<?xml version="1.0" standalone="no"?>
<!DOCTYPE svg PUBLIC "-//W3C//DTD SVG 1.1//EN" "http://www.w3.org/Graphics/SVG/1.1/DTD/svg11.dtd" >
<svg xmlns="http://www.w3.org/2000/svg" xmlns:xlink="http://www.w3.org/1999/xlink" version="1.1">
<metadata>
Created by FontForge 20200314 at Sat Aug 26 04:39:11 2017
 By Unknown
Copyright (c) 2017 by Josh Finklea. All rights reserved.
</metadata>
<defs>
<font id="CentraNo2-Hairline" horiz-adv-x="600" >
  <font-face 
    font-family="Centra No2 Hairline"
    font-weight="260"
    font-stretch="normal"
    units-per-em="1000"
    panose-1="0 0 0 0 0 0 0 0 0 0"
    ascent="800"
    descent="-200"
    x-height="473"
    cap-height="700"
    bbox="-201 -216 1113 902"
    underline-thickness="50"
    underline-position="-100"
    unicode-range="U+000D-FB02"
  />
<missing-glyph horiz-adv-x="840" 
d="M70 700h700v-700h-700v700zM140 70h560v560h-560v-560zM233 113l-50 50l188 187l-188 187l50 50l187 -188l187 188l50 -50l-188 -187l188 -187l-50 -50l-187 188z" />
    <glyph glyph-name=".notdef" horiz-adv-x="840" 
d="M70 700h700v-700h-700v700zM140 70h560v560h-560v-560zM233 113l-50 50l188 187l-188 187l50 50l187 -188l187 188l50 -50l-188 -187l188 -187l-50 -50l-187 188z" />
    <glyph glyph-name=".null" horiz-adv-x="0" 
 />
    <glyph glyph-name="nonmarkingreturn" unicode="&#xd;" horiz-adv-x="259" 
 />
    <glyph glyph-name="NULL" horiz-adv-x="0" 
 />
    <glyph glyph-name="NULL" horiz-adv-x="0" 
 />
    <glyph glyph-name="space" unicode=" " horiz-adv-x="259" 
 />
    <glyph glyph-name="exclam" unicode="!" horiz-adv-x="192" 
d="M91 700h10v-543h-10v543zM96 21q6 0 10 -4t4 -10t-4 -10t-10 -4t-10 4t-4 10t4 10t10 4z" />
    <glyph glyph-name="quotedbl" unicode="&#x22;" horiz-adv-x="195" 
d="M51 700h10v-251h-10v251zM134 700h10v-251h-10v251z" />
    <glyph glyph-name="numbersign" unicode="#" horiz-adv-x="629" 
d="M420 211h-250l-29 -211h-11l30 211h-116v9h117l36 254h-122v9h124l29 205h10l-29 -205h250l29 205h10l-29 -205h116v-9h-118l-35 -254h122v-9h-124l-29 -211h-10zM171 220h251l35 254h-250z" />
    <glyph glyph-name="dollar" unicode="$" horiz-adv-x="485" 
d="M240 1q-75 2 -126 45.5t-67 111.5l9 3q16 -66 64 -107t120 -43v346l-53 22q-57 24 -88.5 62.5t-31.5 95.5q0 34 12.5 61.5t35 47t53.5 30.5t68 11h4v89h10v-90q62 -4 104 -41t56 -92l-10 -2q-13 51 -52.5 86t-97.5 39v-313l55 -23q61 -26 95.5 -65t34.5 -99
q0 -39 -14 -71.5t-39 -55t-58.5 -35.5t-73.5 -13v-97h-10v97zM250 353v-342q37 0 69.5 12t55.5 33.5t36.5 51.5t13.5 67q0 55 -31.5 93t-91.5 63zM240 677h-4q-70 0 -114.5 -38.5t-44.5 -101.5q0 -51 29.5 -88t82.5 -60l51 -22v310z" />
    <glyph glyph-name="percent" unicode="%" horiz-adv-x="772" 
d="M199 390q-32 0 -59.5 12t-48 32.5t-32 48t-11.5 59.5t11.5 59.5t32 48t48 32t59.5 11.5t59.5 -11.5t48 -32t32.5 -48t12 -59.5t-12 -59.5t-32.5 -48t-48 -32.5t-59.5 -12zM633 688h12l-507 -688h-11zM57 542q0 -30 11 -56t30 -45t45 -30t56 -11t56 11t45 30t30 45t11 56
t-11 56t-30 45t-45 30t-56 11t-56 -11t-45 -30t-30 -45t-11 -56zM572 -5q-32 0 -59.5 11.5t-48 32t-32 48t-11.5 59.5t11.5 59.5t32 48t48 32.5t59.5 12t60 -12t48.5 -32.5t32 -48t11.5 -59.5t-11.5 -59.5t-32 -48t-48.5 -32t-60 -11.5zM572 4q30 0 56 11t45 30t30 45t11 56
t-11 56t-30 45t-45 30t-56 11t-55.5 -11t-44.5 -30t-30 -45t-11 -56t11 -56t30 -45t44.5 -30t55.5 -11z" />
    <glyph glyph-name="ampersand" unicode="&#x26;" horiz-adv-x="665" 
d="M227 -9q-40 0 -73 12t-56.5 34t-36.5 52.5t-13 66.5q0 40 16 74t42.5 62t61 51t70.5 43q-59 56 -84.5 98t-25.5 86q0 27 11 52.5t30.5 44.5t46 30.5t57.5 11.5q32 0 58.5 -11.5t46 -30.5t30.5 -44t11 -53q0 -30 -13.5 -56t-36.5 -49t-52.5 -43t-62.5 -38l225 -214
l135 161l7 -6l-135 -162l171 -163h-14l-163 155l-18 -22q-24 -29 -51 -54.5t-57 -45t-62 -31t-65 -11.5zM228 1q32 0 63 11.5t59.5 30.5t55 44t49.5 53l18 22l-228 217q-35 -18 -69 -40.5t-60 -50t-42 -60t-16 -71.5q0 -35 12.5 -63.5t35 -49t53.5 -32t69 -11.5zM138 570
q0 -22 6 -42t19 -41.5t34 -45t50 -51.5q32 17 61 36.5t51.5 42t36 47.5t13.5 54q0 25 -10.5 48.5t-28.5 41.5t-43 28.5t-54 10.5t-53.5 -11t-42.5 -29t-28.5 -41t-10.5 -48z" />
    <glyph glyph-name="quotesingle" unicode="'" horiz-adv-x="112" 
d="M51 700h10v-251h-10v251z" />
    <glyph glyph-name="parenleft" unicode="(" horiz-adv-x="257" 
d="M69 294q0 -132 43.5 -249.5t121.5 -209.5h-11q-78 91 -121 209t-43 250t43 250t121 209h11q-78 -92 -121.5 -209.5t-43.5 -249.5z" />
    <glyph glyph-name="parenright" unicode=")" horiz-adv-x="257" 
d="M188 294q0 132 -43.5 249.5t-121.5 209.5h11q78 -91 121 -209t43 -250t-43 -250t-121 -209h-11q78 92 121.5 209.5t43.5 249.5z" />
    <glyph glyph-name="asterisk" unicode="*" horiz-adv-x="362" 
d="M88 438l85 117l-138 43l3 10l138 -44v145h10v-145l138 44l3 -10l-138 -43l85 -117l-8 -6l-85 117l-85 -117z" />
    <glyph glyph-name="plus" unicode="+" 
d="M295 328h-210v10h210v211h10v-211h210v-10h-210v-212h-10v212z" />
    <glyph glyph-name="comma" unicode="," horiz-adv-x="168" 
d="M71 7q0 6 4 10t10 4t10 -4t4 -10q0 -2 -2 -12l-26 -104h-10l25 103q-7 0 -11 3.5t-4 9.5z" />
    <glyph glyph-name="hyphen" unicode="-" horiz-adv-x="420" 
d="M66 264h288v-10h-288v10z" />
    <glyph glyph-name="period" unicode="." horiz-adv-x="166" 
d="M83 21q6 0 10 -4t4 -10t-4 -10t-10 -4t-10 4t-4 10t4 10t10 4z" />
    <glyph glyph-name="slash" unicode="/" horiz-adv-x="389" 
d="M366 765h11l-368 -865h-11z" />
    <glyph glyph-name="zero" unicode="0" horiz-adv-x="676" 
d="M338 -10q-69 0 -120 29t-84.5 78t-50.5 113t-17 133t17 133t50.5 113t84.5 78.5t120 29.5t120 -29.5t84.5 -78.5t50.5 -113t17 -133t-17 -133t-50.5 -113t-84.5 -78t-120 -29zM338 0q66 0 115.5 28.5t82 75.5t48.5 109t16 130q0 67 -16 129t-48.5 110t-82 76.5
t-115.5 28.5t-115.5 -28.5t-82 -76.5t-48.5 -110t-16 -129q0 -68 16 -130t48.5 -109t82 -75.5t115.5 -28.5z" />
    <glyph glyph-name="one" unicode="1" horiz-adv-x="272" 
d="M167 678h-132v10h142v-688h-10v678z" />
    <glyph glyph-name="two" unicode="2" horiz-adv-x="525" 
d="M51 8l273 280q32 33 56 60.5t40 53.5t24 51.5t8 54.5q0 39 -15 71.5t-41 56.5t-61.5 37.5t-76.5 13.5q-44 0 -79 -17.5t-60 -46.5t-38.5 -66.5t-13.5 -77.5h-10q0 43 14.5 82.5t40.5 69.5t63.5 48t82.5 18q43 0 80.5 -14t65 -39t43 -60t15.5 -76q0 -31 -8.5 -57.5
t-25 -53t-41 -55t-57.5 -62.5l-263 -270h409v-10h-425v8z" />
    <glyph glyph-name="three" unicode="3" horiz-adv-x="544" 
d="M275 -10q-44 0 -84 13.5t-71 40t-49 64.5t-18 88h10q0 -48 17.5 -84.5t47 -61.5t67.5 -37.5t80 -12.5q40 0 78 12.5t67.5 36.5t47 58t17.5 76q0 52 -22.5 86.5t-54 55.5t-65 29.5t-54.5 8.5h-55v9h50q16 0 44.5 8.5t56.5 27.5t49 50t21 76q0 36 -15.5 64t-40.5 48
t-57.5 30.5t-66.5 10.5q-35 0 -67 -11.5t-57 -33.5t-40.5 -55.5t-16.5 -76.5h-10q0 45 16 80t42.5 59t61 36t71.5 12t71 -11.5t60.5 -32.5t42.5 -51t16 -68q0 -42 -17 -72t-41 -49.5t-49.5 -30t-41.5 -13.5q21 -3 51.5 -13t59 -32t48.5 -56t20 -85q0 -45 -18.5 -81
t-49 -60.5t-70 -38t-82.5 -13.5z" />
    <glyph glyph-name="four" unicode="4" horiz-adv-x="575" 
d="M429 176h-394v9l392 501h12v-500h103v-10h-103v-176h-10v176zM429 186v487l-381 -487h381z" />
    <glyph glyph-name="five" unicode="5" horiz-adv-x="548" 
d="M274 -10q-45 0 -85 15.5t-70.5 42.5t-48 63.5t-17.5 79.5h10q0 -40 17 -75t46 -60.5t67 -40.5t81 -15q46 0 85.5 17t68.5 47t45.5 71t16.5 88q0 46 -17 85.5t-46.5 69t-70 46t-87.5 16.5q-60 0 -107 -28t-79 -78l-11 2l48 355h331v-10h-322l-45 -330q30 46 78.5 72.5
t107.5 26.5q49 0 91 -17.5t73 -48t48.5 -72t17.5 -89.5q0 -50 -17.5 -92.5t-47.5 -73.5t-71.5 -49t-89.5 -18z" />
    <glyph glyph-name="six" unicode="6" horiz-adv-x="571" 
d="M288 -10q-49 0 -91 18t-73 49t-49 73.5t-18 92.5q0 73 39 132l221 333h12l-197 -297q30 28 71.5 44t87.5 16q48 0 89.5 -17.5t72.5 -48.5t49 -72.5t18 -89.5q0 -50 -18 -92.5t-49 -73.5t-73.5 -49t-91.5 -18zM288 0q47 0 87.5 17t70.5 47t47 71t17 88q0 46 -17 86t-47 69
t-70 46t-86 17q-47 0 -87.5 -17t-70.5 -46t-47.5 -69t-17.5 -86q0 -47 17 -88t47 -71t70 -47t87 -17z" />
    <glyph glyph-name="seven" unicode="7" horiz-adv-x="463" 
d="M417 676h-381v10h393v-7l-320 -679h-11z" />
    <glyph glyph-name="eight" unicode="8" horiz-adv-x="534" 
d="M267 -10q-42 0 -81 13.5t-69 38t-48 60t-18 80.5q0 46 17 80.5t43.5 58t57.5 35.5t60 15q-28 3 -55 14.5t-48.5 32t-35 49t-13.5 64.5q0 39 16 70t42.5 52t61 32.5t70.5 11.5t70.5 -11.5t61 -32.5t42.5 -52t16 -70q0 -36 -13.5 -64.5t-35 -49t-48.5 -32t-55 -14.5
q28 -3 59.5 -15t58 -35.5t43.5 -58t17 -80.5q0 -45 -18 -80.5t-48 -60t-69 -38t-81 -13.5zM267 0q39 0 76.5 12.5t66 36t46 57.5t17.5 77q0 44 -17 78t-45.5 57.5t-66 35.5t-77.5 12t-77.5 -12t-66 -35.5t-45.5 -57.5t-17 -78q0 -43 17.5 -77t46 -57.5t66 -36t76.5 -12.5z
M447 531q0 37 -15.5 66t-40.5 49t-57.5 30.5t-66.5 10.5t-66.5 -10.5t-57.5 -30.5t-40.5 -49t-15.5 -66t15 -66t40 -49t57.5 -30.5t67.5 -10.5t67.5 10.5t57.5 30.5t40 49t15 66z" />
    <glyph glyph-name="nine" unicode="9" horiz-adv-x="571" 
d="M283 698q49 0 91 -18t73 -49t49 -74t18 -92q0 -73 -39 -132l-221 -333h-12l197 297q-30 -28 -71.5 -44t-87.5 -16q-48 0 -89.5 17.5t-72.5 48.5t-49 72.5t-18 89.5q0 49 18 92t49 74t73.5 49t91.5 18zM283 688q-47 0 -87.5 -17t-70.5 -47t-47 -71t-17 -88q0 -46 17 -86
t47 -69t70 -46t86 -17q47 0 87.5 17t70.5 46t47.5 69t17.5 86q0 47 -17 88t-47 71t-70.5 47t-86.5 17z" />
    <glyph glyph-name="colon" unicode=":" horiz-adv-x="166" 
d="M83 419q6 0 10 -4t4 -10t-4 -10t-10 -4t-10 4t-4 10t4 10t10 4zM83 21q6 0 10 -4t4 -10t-4 -10t-10 -4t-10 4t-4 10t4 10t10 4z" />
    <glyph glyph-name="semicolon" unicode=";" horiz-adv-x="168" 
d="M71 7q0 6 4 10t10 4t10 -4t4 -10q0 -2 -2 -12l-26 -104h-10l25 103q-7 0 -11 3.5t-4 9.5zM84 419q6 0 10 -4t4 -10t-4 -10t-10 -4t-10 4t-4 10t4 10t10 4z" />
    <glyph glyph-name="less" unicode="&#x3c;" 
d="M96 329v8l408 207v-11l-394 -200l394 -200v-11z" />
    <glyph glyph-name="equal" unicode="=" 
d="M85 254h429v-10h-429v10zM85 423h429v-10h-429v10z" />
    <glyph glyph-name="greater" unicode="&#x3e;" 
d="M96 122v11l394 200l-394 200v11l408 -207v-8z" />
    <glyph glyph-name="question" unicode="?" horiz-adv-x="488" 
d="M51 510q0 38 13.5 74t38.5 63.5t60.5 44.5t79.5 17q41 0 76.5 -13.5t61.5 -37.5t41 -57t15 -72q0 -48 -25.5 -88.5t-64.5 -78.5q-21 -20 -38 -38.5t-29.5 -38t-19.5 -42t-7 -50.5v-36h-10v36q0 27 5.5 48.5t17.5 41.5t30.5 40.5t43.5 45.5q38 38 62.5 75.5t24.5 84.5
q0 37 -14.5 68t-39 53.5t-58 35.5t-72.5 13q-42 0 -75.5 -16t-57 -42.5t-36.5 -60.5t-13 -70h-10zM251 21q6 0 10 -4t4 -10t-4 -10t-10 -4t-10 4t-4 10t4 10t10 4z" />
    <glyph glyph-name="at" unicode="@" horiz-adv-x="886" 
d="M450 -129q-83 0 -154.5 25.5t-124 74.5t-83 120t-30.5 161q0 88 32 160.5t87.5 124.5t131.5 81t163 29q77 0 142.5 -25t113 -68.5t74.5 -103.5t27 -130q0 -59 -13 -105.5t-34.5 -79t-49 -50t-56.5 -17.5q-24 0 -40 9t-25 24.5t-11.5 36t0.5 43.5l2 16q-13 -32 -32.5 -56
t-43.5 -40.5t-50.5 -25t-52.5 -8.5q-38 0 -70 14t-55 38.5t-35.5 58t-12.5 72.5q0 42 15.5 79t42 64.5t62 43.5t75.5 16q36 0 66.5 -12.5t52 -33t34.5 -47.5t15 -57l17 141h10l-31 -261q-6 -49 11.5 -77t55.5 -28q26 0 51.5 17t46 48t33 75.5t12.5 100.5q0 68 -26 126.5
t-72.5 101t-110 66.5t-138.5 24q-86 0 -159.5 -28t-128 -78.5t-85.5 -121.5t-31 -157q0 -88 29.5 -157t81 -116.5t121 -72.5t150.5 -25q36 0 72.5 6t70.5 16.5t63.5 25t52.5 32.5l5 -10q-23 -18 -53 -32.5t-64.5 -25t-72 -16.5t-74.5 -6zM423 77q34 0 67 15t59.5 41.5
t42.5 61.5t16 76q0 34 -10.5 65t-31.5 55t-51 38t-69 14q-38 0 -71.5 -15.5t-59 -41.5t-40.5 -61t-15 -75q0 -37 12 -68.5t34 -55t51.5 -36.5t65.5 -13z" />
    <glyph glyph-name="A" unicode="A" horiz-adv-x="664" 
d="M327 700h10l297 -700h-11l-112 264h-358l-112 -264h-11zM507 274l-175 412l-175 -412h350z" />
    <glyph glyph-name="B" unicode="B" horiz-adv-x="586" 
d="M95 700h200q40 0 74 -12t58.5 -34t38.5 -53.5t14 -69.5q0 -34 -11.5 -61t-30.5 -47.5t-43.5 -32.5t-51.5 -16q38 -3 72 -17.5t59.5 -38.5t40 -57t14.5 -73q0 -42 -16 -76.5t-45.5 -59.5t-69.5 -38.5t-88 -13.5h-215v700zM310 10q46 0 84 13t66 36.5t43.5 56.5t15.5 73
t-16 73t-44 56.5t-67 36.5t-84 13h-203v-358h205zM305 378q35 0 65.5 11.5t52.5 31.5t34.5 48.5t12.5 61.5q0 36 -13 65t-36.5 50t-55.5 32.5t-70 11.5h-190v-312h200z" />
    <glyph glyph-name="C" unicode="C" horiz-adv-x="668" 
d="M411 -10q-72 0 -136 28t-112 77t-76 114.5t-28 140.5t28 140.5t76 114t112 77t136 28.5q57 0 108.5 -17.5t95.5 -49.5v-12q-42 32 -94.5 50.5t-109.5 18.5q-71 0 -133 -27.5t-108.5 -75t-73.5 -111.5t-27 -136t27 -136t73.5 -111.5t108.5 -75t133 -27.5q57 0 109.5 18.5
t94.5 50.5v-12q-44 -32 -95.5 -49.5t-108.5 -17.5z" />
    <glyph glyph-name="D" unicode="D" horiz-adv-x="689" 
d="M620 350q0 72 -25.5 134.5t-70.5 108t-106 71.5t-131 26h-182v-680h182q70 0 131 26t106 71.5t70.5 108t25.5 134.5zM630 350q0 -75 -26.5 -139t-72.5 -111t-108.5 -73.5t-135.5 -26.5h-192v700h192q73 0 135.5 -26.5t108.5 -73.5t72.5 -111t26.5 -139z" />
    <glyph glyph-name="E" unicode="E" horiz-adv-x="498" 
d="M95 700h345v-10h-335v-319h305v-10h-305v-351h337v-10h-347v700z" />
    <glyph glyph-name="F" unicode="F" horiz-adv-x="481" 
d="M95 700h335v-10h-325v-319h309v-10h-309v-361h-10v700z" />
    <glyph glyph-name="G" unicode="G" horiz-adv-x="782" 
d="M402 -10q-74 0 -136.5 28t-108.5 76.5t-72 114t-26 140.5q0 76 26 142t72 114.5t108.5 76.5t136.5 28q94 0 169.5 -43t122.5 -117l-9 -5q-46 72 -119 113.5t-164 41.5q-71 0 -132 -27t-105.5 -74.5t-70 -111.5t-25.5 -138q0 -73 25.5 -136.5t70 -111t105.5 -74.5t132 -27
q72 0 131 26t100 71.5t63.5 106.5t22.5 131h-331v10h341v-8q0 -72 -23 -135.5t-66 -110.5t-103 -74t-135 -27z" />
    <glyph glyph-name="H" unicode="H" horiz-adv-x="713" 
d="M95 700h10v-330h503v330h10v-700h-10v360h-503v-360h-10v700z" />
    <glyph glyph-name="I" unicode="I" horiz-adv-x="200" 
d="M95 700h10v-700h-10v700z" />
    <glyph glyph-name="J" unicode="J" horiz-adv-x="486" 
d="M400 207q0 -102 -51 -159.5t-142 -57.5q-63 0 -108.5 32.5t-67.5 95.5l9 4q22 -60 64.5 -91t102.5 -31q85 0 134 55t49 153v492h10v-493v0z" />
    <glyph glyph-name="K" unicode="K" horiz-adv-x="585" 
d="M105 315l419 385h13l-355 -326l374 -374h-13l-368 367l-70 -64v-303h-10v700h10v-385z" />
    <glyph glyph-name="L" unicode="L" horiz-adv-x="407" 
d="M95 700h10v-690h268v-10h-278v700z" />
    <glyph glyph-name="M" unicode="M" horiz-adv-x="896" 
d="M95 700h13l340 -681l340 681h13v-700h-10v683l-339 -678h-8l-339 678v-683h-10v700z" />
    <glyph glyph-name="N" unicode="N" horiz-adv-x="756" 
d="M661 700v-700h-10l-546 684v-684h-10v700h10l546 -685v685h10z" />
    <glyph glyph-name="O" unicode="O" horiz-adv-x="822" 
d="M763 350q0 -75 -28 -140.5t-76 -114t-112 -77t-136 -28.5t-136 28.5t-112 77t-76 114t-28 140.5t28 140.5t76 114t112 77t136 28.5t136 -28.5t112 -77t76 -114t28 -140.5zM753 350q0 72 -27 136t-73.5 111.5t-109 75t-132.5 27.5t-132.5 -27.5t-109 -75t-73.5 -111.5
t-27 -136t27 -136t73.5 -111.5t109 -75t132.5 -27.5t132.5 27.5t109 75t73.5 111.5t27 136z" />
    <glyph glyph-name="P" unicode="P" horiz-adv-x="515" 
d="M95 700h166q48 0 87.5 -12t68 -35t44 -56t15.5 -76t-15.5 -76t-44 -56t-68 -35t-87.5 -12h-156v-342h-10v700zM260 352q46 0 84 11.5t65 33.5t42 53.5t15 70.5t-15 70.5t-42 53.5t-65 33.5t-84 11.5h-155v-338h155z" />
    <glyph glyph-name="Q" unicode="Q" horiz-adv-x="822" 
d="M763 350q0 -78 -30.5 -146t-82.5 -118l98 -85l-6 -7l-99 86q-47 -42 -106.5 -66t-125.5 -24q-72 0 -136 28.5t-112 77t-76 114t-28 140.5t28 140.5t76 114t112 77t136 28.5t136 -28.5t112 -77t76 -114t28 -140.5zM753 350q0 72 -27 136t-73.5 111.5t-109 75t-132.5 27.5
t-132.5 -27.5t-109 -75t-73.5 -111.5t-27 -136t27 -136t73.5 -111.5t109 -75t132.5 -27.5q64 0 121.5 23t102.5 64l-138 121l6 7l139 -122q51 48 81 114t30 143z" />
    <glyph glyph-name="R" unicode="R" horiz-adv-x="537" 
d="M105 0h-10v700h153q47 0 86 -12t67 -34.5t43.5 -55.5t15.5 -75q0 -43 -15.5 -76.5t-43.5 -57t-67 -35.5t-86 -12h-12l259 -342h-12l-259 342h-119v-342zM105 352h142q46 0 83.5 12t64 34t41 53.5t14.5 71.5q0 39 -14.5 70t-41.5 52.5t-64.5 33t-82.5 11.5h-142v-338z" />
    <glyph glyph-name="S" unicode="S" horiz-adv-x="503" 
d="M254 -10q-41 0 -75 12.5t-61 34.5t-45 53t-27 68l9 3q18 -72 70.5 -116.5t128.5 -44.5q40 0 75 12.5t60 35.5t39 54.5t14 71.5q0 57 -33.5 96.5t-95.5 65.5l-121 52q-58 25 -89.5 65t-31.5 99q0 35 13 64t36.5 50t56 32.5t71.5 11.5q35 0 64.5 -11t53 -30.5t39.5 -45.5
t23 -56l-10 -2q-7 28 -22 53t-37 43t-50 28.5t-61 10.5q-37 0 -68 -11t-53 -30.5t-34 -46.5t-12 -60q0 -53 30 -92t84 -62l121 -52q64 -27 100 -68.5t36 -103.5q0 -42 -15 -76t-41.5 -58t-63 -37t-78.5 -13z" />
    <glyph glyph-name="T" unicode="T" horiz-adv-x="516" 
d="M253 690h-230v10h470v-10h-230v-690h-10v690z" />
    <glyph glyph-name="U" unicode="U" horiz-adv-x="690" 
d="M345 -10q-63 0 -111.5 21t-81 59.5t-49.5 92t-17 118.5v419h10v-418q0 -63 16.5 -114.5t48 -89t78 -58t106.5 -20.5t106.5 20.5t78 58t48 89t16.5 114.5v418h10v-419q0 -65 -17 -118.5t-49.5 -92t-81 -59.5t-111.5 -21z" />
    <glyph glyph-name="V" unicode="V" horiz-adv-x="610" 
d="M30 700h11l264 -686l265 686h10l-270 -700h-10z" />
    <glyph glyph-name="W" unicode="W" horiz-adv-x="1011" 
d="M39 700h11l227 -684l224 684h10l223 -684l227 684h11l-233 -700h-10l-223 682l-224 -682h-10z" />
    <glyph glyph-name="X" unicode="X" horiz-adv-x="618" 
d="M554 700h12l-251 -338l269 -362h-12l-263 354l-264 -354h-11l269 362l-251 338h12l245 -330z" />
    <glyph glyph-name="Y" unicode="Y" 
d="M295 323l-269 377h12l262 -368l262 368h12l-269 -376v-324h-10v323z" />
    <glyph glyph-name="Z" unicode="Z" horiz-adv-x="592" 
d="M60 10h488v-10h-504v6l486 684h-465v10h479v-7z" />
    <glyph glyph-name="bracketleft" unicode="[" horiz-adv-x="275" 
d="M86 753h184v-10h-174v-898h174v-10h-184v918z" />
    <glyph glyph-name="backslash" unicode="\" horiz-adv-x="389" 
d="M12 765h11l368 -865h-11z" />
    <glyph glyph-name="bracketright" unicode="]" horiz-adv-x="275" 
d="M189 -165h-184v10h174v898h-174v10h184v-918z" />
    <glyph glyph-name="asciicircum" unicode="^" horiz-adv-x="410" 
d="M201 700h8l153 -295h-10l-147 283l-147 -283h-10z" />
    <glyph glyph-name="underscore" unicode="_" horiz-adv-x="469" 
d="M22 -52h425v-10h-425v10z" />
    <glyph glyph-name="grave" unicode="`" horiz-adv-x="500" 
d="M276 581l-92 131h11l92 -131h-11z" />
    <glyph glyph-name="a" unicode="a" horiz-adv-x="623" 
d="M527 0v174q-8 -32 -26.5 -64.5t-48 -59t-69.5 -43.5t-89 -17q-50 0 -94 19.5t-77 53t-52 78.5t-19 96t19 96t52 78t77 52.5t94 19.5q49 0 89 -16.5t69.5 -43t48 -59t26.5 -64.5v173h10v-473h-10zM62 237q0 -49 18 -92t49.5 -75.5t74 -51t90.5 -18.5q55 0 98.5 21.5
t73.5 56t46 76.5t16 83t-16 83t-46 76t-73.5 55.5t-98.5 21.5q-48 0 -90.5 -18.5t-74 -50.5t-49.5 -75t-18 -92z" />
    <glyph glyph-name="b" unicode="b" horiz-adv-x="623" 
d="M86 0v700h10v-400q7 32 26 64.5t48.5 59t69 43t89.5 16.5t94 -19.5t77 -52.5t52 -78t19 -96t-19 -96t-52 -78.5t-77 -53t-94 -19.5t-89.5 17t-69 43.5t-48.5 59t-26 64.5v-174h-10zM561 237q0 49 -18 92t-49.5 75t-74 50.5t-90.5 18.5q-55 0 -98.5 -21.5t-73.5 -55.5
t-46 -76t-16 -83t16 -83t46 -76.5t73.5 -56t98.5 -21.5q48 0 90.5 18.5t74 51t49.5 75.5t18 92z" />
    <glyph glyph-name="c" unicode="c" horiz-adv-x="495" 
d="M294 -10q-50 0 -94 19.5t-77 53t-52 78.5t-19 96t19 95.5t52 78t77 53t94 19.5q41 0 78 -12.5t67 -35.5v-12q-30 23 -66.5 36.5t-78.5 13.5q-48 0 -90.5 -18.5t-74 -50.5t-49.5 -75t-18 -92t18 -92t49.5 -75.5t74 -51t90.5 -18.5q42 0 78.5 13.5t66.5 36.5v-12
q-30 -23 -67 -35.5t-78 -12.5z" />
    <glyph glyph-name="d" unicode="d" horiz-adv-x="623" 
d="M527 0v174q-8 -32 -26.5 -64.5t-48 -59t-69.5 -43.5t-89 -17q-50 0 -94 19.5t-77 53t-52 78.5t-19 96t19 96t52 78t77 52.5t94 19.5q49 0 89 -16.5t69.5 -43t48 -59t26.5 -64.5v400h10v-700h-10zM62 237q0 -49 18 -92t49.5 -75.5t74 -51t90.5 -18.5q55 0 98.5 21.5
t73.5 56t46 76.5t16 83t-16 83t-46 76t-73.5 55.5t-98.5 21.5q-48 0 -90.5 -18.5t-74 -50.5t-49.5 -75t-18 -92z" />
    <glyph glyph-name="e" unicode="e" horiz-adv-x="554" 
d="M285 -10q-51 0 -94 18t-73.5 51t-48 78t-17.5 99t17 99.5t48 78t73 51t93 18.5q49 0 90.5 -18t71.5 -51t47 -77.5t17 -97.5v-1h-447v-3q0 -52 16.5 -95t46.5 -74t71 -48.5t89 -17.5q64 0 115 32t78 89l10 -3q-29 -60 -82.5 -94t-120.5 -34zM499 247q-2 49 -18.5 90.5
t-45 71.5t-67.5 47t-85 17q-47 0 -87 -17t-69 -47t-46.5 -71.5t-18.5 -90.5h437z" />
    <glyph glyph-name="f" unicode="f" horiz-adv-x="282" 
d="M23 473h80v111q0 63 28.5 94.5t75.5 31.5q22 0 41 -7t29 -14v-11q-11 8 -29 15t-41 7q-42 0 -68 -28t-26 -88v-111h140v-9h-140v-464h-10v464h-80v9z" />
    <glyph glyph-name="g" unicode="g" horiz-adv-x="623" 
d="M52 237q0 51 19 96t52 78t77 52.5t94 19.5q46 0 85 -15.5t69.5 -41.5t50.5 -59.5t28 -70.5v177h10v-453q0 -50 -15.5 -93.5t-46 -75t-75.5 -49.5t-104 -18q-81 0 -140 33.5t-82 91.5l8 4q24 -56 80 -88t134 -32q57 0 100 17.5t72 48t44 72t15 90.5v157q-8 -37 -28 -71
t-50.5 -60t-69.5 -41.5t-85 -15.5q-50 0 -94 19.5t-77 53t-52 78.5t-19 96zM62 237q0 -49 18 -92t49.5 -75.5t74 -51t90.5 -18.5q55 0 98.5 22t73.5 56t46 76t16 83q0 40 -16 82t-46 76.5t-73.5 56t-98.5 21.5q-48 0 -90.5 -18.5t-74 -50.5t-49.5 -75t-18 -92z" />
    <glyph glyph-name="h" unicode="h" horiz-adv-x="578" 
d="M86 700h10v-369q7 29 24 56.5t42.5 48.5t58.5 34t71 13q46 0 83.5 -15t64.5 -42.5t42 -67t15 -87.5v-271h-10v270q0 46 -14 84t-39.5 64t-62 40.5t-80.5 14.5q-43 0 -78.5 -17t-61.5 -45t-40.5 -64t-14.5 -74v-273h-10v700z" />
    <glyph glyph-name="i" unicode="i" horiz-adv-x="182" 
d="M86 0v473h10v-473h-10zM91 615q-5 0 -8.5 3.5t-3.5 8.5t3.5 8.5t8.5 3.5t8.5 -3.5t3.5 -8.5t-3.5 -8.5t-8.5 -3.5z" />
    <glyph glyph-name="j" unicode="j" horiz-adv-x="191" 
d="M105 473v-561q0 -66 -27 -97t-74 -31q-18 0 -30 2.5t-23 7.5v11q8 -5 22 -8t31 -3q41 0 66 28.5t25 89.5v561h10zM100 615q-5 0 -8.5 3.5t-3.5 8.5t3.5 8.5t8.5 3.5t8.5 -3.5t3.5 -8.5t-3.5 -8.5t-8.5 -3.5z" />
    <glyph glyph-name="k" unicode="k" horiz-adv-x="452" 
d="M86 700h10v-472l280 245h14l-228 -199l261 -274h-13l-255 267l-59 -51v-216h-10v700z" />
    <glyph glyph-name="l" unicode="l" horiz-adv-x="182" 
d="M86 700h10v-700h-10v700z" />
    <glyph glyph-name="m" unicode="m" horiz-adv-x="915" 
d="M86 473h10v-142q6 29 22 56.5t39 48.5t53.5 34t65.5 13q73 0 123.5 -41t62.5 -117q7 31 23 59.5t40 50.5t54.5 35t65.5 13q42 0 77 -14t60 -39.5t38.5 -62.5t13.5 -82v-285h-10v284q0 43 -13 78t-36.5 60t-56.5 38t-74 13q-39 0 -72 -17t-57 -45.5t-37 -64.5t-13 -75
v-271h-10v284q0 43 -13 78t-36.5 60t-56.5 38t-74 13q-39 0 -72 -17t-57 -45.5t-37 -64.5t-13 -75v-271h-10v473z" />
    <glyph glyph-name="n" unicode="n" horiz-adv-x="578" 
d="M86 473h10v-142q7 29 24 56.5t42.5 48.5t58.5 34t71 13q46 0 83.5 -15t64.5 -42.5t42 -67t15 -87.5v-271h-10v270q0 46 -14 84t-39.5 64t-62 40.5t-80.5 14.5q-43 0 -78.5 -17t-61.5 -45t-40.5 -64t-14.5 -74v-273h-10v473z" />
    <glyph glyph-name="o" unicode="o" horiz-adv-x="588" 
d="M536 237q0 -51 -19 -96t-52 -78.5t-77 -53t-94 -19.5t-94 19.5t-77 53t-52 78.5t-19 96t19 95.5t52 78t77 53t94 19.5t94 -19.5t77 -53t52 -78t19 -95.5zM526 237q0 49 -18 92t-49.5 75t-74 50.5t-90.5 18.5t-90.5 -18.5t-74 -50.5t-49.5 -75t-18 -92t18 -92t49.5 -75.5
t74 -51t90.5 -18.5t90.5 18.5t74 51t49.5 75.5t18 92z" />
    <glyph glyph-name="p" unicode="p" horiz-adv-x="623" 
d="M86 -208v681h10v-173q7 32 26 64.5t48.5 59t69 43t89.5 16.5t94 -19.5t77 -52.5t52 -78t19 -96t-19 -96t-52 -78.5t-77 -53t-94 -19.5t-89.5 17t-69 43.5t-48.5 59t-26 64.5v-382h-10zM561 237q0 49 -18 92t-49.5 75t-74 50.5t-90.5 18.5q-55 0 -98.5 -21.5t-73.5 -55.5
t-46 -76t-16 -83t16 -83t46 -76.5t73.5 -56t98.5 -21.5q48 0 90.5 18.5t74 51t49.5 75.5t18 92z" />
    <glyph glyph-name="q" unicode="q" horiz-adv-x="623" 
d="M527 -208v382q-8 -32 -26.5 -64.5t-48 -59t-69.5 -43.5t-89 -17q-50 0 -94 19.5t-77 53t-52 78.5t-19 96t19 96t52 78t77 52.5t94 19.5q49 0 89 -16.5t69.5 -43t48 -59t26.5 -64.5v173h10v-681h-10zM62 237q0 -49 18 -92t49.5 -75.5t74 -51t90.5 -18.5q55 0 98.5 21.5
t73.5 56t46 76.5t16 83t-16 83t-46 76t-73.5 55.5t-98.5 21.5q-48 0 -90.5 -18.5t-74 -50.5t-49.5 -75t-18 -92z" />
    <glyph glyph-name="r" unicode="r" horiz-adv-x="317" 
d="M86 473h10v-156q7 33 23.5 62.5t41.5 52t56 36t67 13.5h11v-9h-11q-39 0 -73 -17t-59.5 -46.5t-40.5 -70t-15 -88.5v-250h-10v473z" />
    <glyph glyph-name="s" unicode="s" horiz-adv-x="373" 
d="M56 111q6 -23 16.5 -43t27 -35t39.5 -24t52 -9q26 0 49.5 8.5t40.5 23.5t27 36.5t10 47.5q0 43 -27 70t-72 44l-62 25q-42 17 -68.5 45.5t-26.5 73.5q0 49 34.5 79t87.5 30q30 0 52.5 -9.5t37.5 -24t24.5 -32t14.5 -36.5l-9 -3q-5 17 -14 34t-23 30.5t-34.5 22t-48.5 8.5
q-48 0 -80 -27.5t-32 -71.5q0 -41 24 -67t63 -42l61 -25q23 -9 43 -20.5t34.5 -26t22.5 -33.5t8 -44q0 -55 -38.5 -90.5t-97.5 -35.5q-33 0 -58 9.5t-42.5 26.5t-28.5 38t-16 44z" />
    <glyph glyph-name="t" unicode="t" horiz-adv-x="291" 
d="M261 3q-6 -3 -22.5 -8t-36.5 -5q-45 0 -72 29t-27 89v356h-80v9h80v149h10v-149h144v-9h-144v-355q0 -56 24.5 -82.5t64.5 -26.5q19 0 33 4t26 10v-11z" />
    <glyph glyph-name="u" unicode="u" horiz-adv-x="576" 
d="M490 0h-10v142q-7 -29 -24 -56.5t-42.5 -48.5t-58 -34t-70.5 -13q-45 0 -82.5 15t-64.5 42.5t-42 67t-15 87.5v271h10v-270q0 -47 14 -84.5t39.5 -63.5t61.5 -40.5t80 -14.5q42 0 78 17t61.5 45t40 64t14.5 74v273h10v-473z" />
    <glyph glyph-name="v" unicode="v" horiz-adv-x="478" 
d="M234 0l-200 473h11l194 -461l194 461h11l-200 -473h-10z" />
    <glyph glyph-name="w" unicode="w" horiz-adv-x="804" 
d="M576 0l-174 458l-174 -458h-12l-179 473h11l174 -462l175 462h10l175 -462l174 462h11l-179 -473h-12z" />
    <glyph glyph-name="x" unicode="x" horiz-adv-x="458" 
d="M229 236l-183 -236h-12l189 243l-178 230h11l173 -223l173 223h11l-178 -230l189 -243h-12z" />
    <glyph glyph-name="y" unicode="y" horiz-adv-x="478" 
d="M88 -216q-22 0 -40 8v10q8 -4 18 -6.5t22 -2.5q38 0 61.5 25t45.5 78l45 108l-206 469h11l200 -456l188 456h11l-239 -579q-25 -60 -51 -85t-66 -25z" />
    <glyph glyph-name="z" unicode="z" horiz-adv-x="436" 
d="M54 473h343v-5l-349 -459h355v-9h-370v6l348 458h-327v9z" />
    <glyph glyph-name="braceleft" unicode="{" horiz-adv-x="319" 
d="M66 294q36 -9 58 -41t20 -84l-6 -140q-4 -96 31.5 -140t108.5 -44q15 0 41 2v-10q-27 -2 -42 -2q-78 0 -115.5 46t-33.5 148l6 139q3 57 -25.5 89t-67.5 32h-4v10h4q39 0 67.5 32t25.5 90l-6 139q-4 101 33.5 147t115.5 46q15 0 42 -2v-10q-26 2 -41 2q-73 0 -108.5 -44
t-31.5 -139l6 -140q2 -53 -20 -85t-58 -41z" />
    <glyph glyph-name="bar" unicode="|" horiz-adv-x="216" 
d="M103 765h10v-921h-10v921z" />
    <glyph glyph-name="braceright" unicode="}" horiz-adv-x="319" 
d="M253 294q-36 9 -58 41t-20 84l6 140q4 96 -31.5 140t-108.5 44q-15 0 -41 -2v10q27 2 42 2q78 0 115.5 -46t33.5 -148l-6 -139q-3 -57 25.5 -89t67.5 -32h4v-10h-4q-39 0 -67.5 -32t-25.5 -90l6 -139q4 -101 -33.5 -147t-115.5 -46q-15 0 -42 2v10q26 -2 41 -2
q73 0 108.5 44t31.5 139l-6 140q-2 53 20 85t58 41z" />
    <glyph glyph-name="asciitilde" unicode="~" horiz-adv-x="475" 
d="M334 211q-35 0 -57 13.5t-41.5 29t-40.5 29t-53 13.5q-37 0 -58.5 -22t-22.5 -59h-10q1 43 25.5 67t64.5 24q34 0 56.5 -13.5t42 -29t40.5 -29t53 -13.5q38 0 59 22t22 59h10q-1 -43 -25.5 -67t-64.5 -24z" />
    <glyph glyph-name="nonbreakingspace" unicode="&#xa0;" horiz-adv-x="259" 
 />
    <glyph glyph-name="exclamdown" unicode="&#xa1;" horiz-adv-x="192" 
d="M101 -207h-10v526h10v-526zM96 483q6 0 10 -4t4 -10t-4 -10t-10 -4t-10 4t-4 10t4 10t10 4z" />
    <glyph glyph-name="cent" unicode="&#xa2;" horiz-adv-x="485" 
d="M265 114q-45 4 -83 23t-65.5 49.5t-43.5 70.5t-16 87q0 46 16 86.5t43.5 71t65.5 49.5t83 23v114h10v-113h10q84 0 144 -48v-12q-29 24 -65.5 37t-78.5 13h-10v-441h10q42 0 78.5 13t65.5 36v-12q-29 -23 -65.5 -35t-78.5 -12h-10v-119h-10v119zM265 564
q-43 -3 -79 -21.5t-62.5 -47.5t-41.5 -68t-15 -83t15 -82.5t41.5 -68t62.5 -47.5t79 -22v440z" />
    <glyph glyph-name="sterling" unicode="&#xa3;" horiz-adv-x="570" 
d="M51 10h11q16 0 30.5 5t25.5 17t17.5 31t6.5 46v221h-91v9h91v131q0 104 48 163.5t142 59.5q43 0 76.5 -14.5t57.5 -39.5t37.5 -59t15.5 -74h-10q-2 37 -15 69.5t-35.5 56.5t-54 37.5t-71.5 13.5q-89 0 -135 -56.5t-46 -156.5v-131h214v-9h-214v-223q0 -47 -17 -69.5
t-35 -27.5h410v-10h-459v10z" />
    <glyph glyph-name="currency" unicode="&#xa4;" 
d="M300 111q-45 0 -85 15.5t-71 43.5l-72 -72l-7 7l72 72q-30 29 -47.5 69t-17.5 86t17.5 86t48.5 69l-73 73l7 7l73 -73q31 28 70.5 43.5t84.5 15.5t84 -15.5t70 -43.5l74 73l7 -7l-73 -73q30 -29 48 -69t18 -86t-17.5 -86t-48.5 -69l73 -72l-7 -7l-73 72
q-31 -28 -70.5 -43.5t-84.5 -15.5zM300 121q44 0 83.5 16.5t69.5 45t47.5 67t17.5 82.5t-17.5 82.5t-47.5 67t-69.5 45t-83.5 16.5t-83.5 -16.5t-69.5 -45t-47.5 -67t-17.5 -82.5t17.5 -82.5t47.5 -67t69.5 -45t83.5 -16.5z" />
    <glyph glyph-name="yen" unicode="&#xa5;" horiz-adv-x="550" 
d="M270 191h-183v9h183v128h-183v9h179l-238 347h12l235 -343l235 343h12l-238 -347h178v-9h-182v-128h182v-9h-182v-191h-10v191z" />
    <glyph glyph-name="brokenbar" unicode="&#xa6;" horiz-adv-x="216" 
d="M103 228h10v-384h-10v384zM103 765h10v-380h-10v380z" />
    <glyph glyph-name="section" unicode="&#xa7;" horiz-adv-x="442" 
d="M394 283q0 -53 -32.5 -83.5t-83.5 -47.5q45 -19 69.5 -51.5t24.5 -74.5q0 -29 -11 -53.5t-30.5 -42.5t-46.5 -28t-58 -10q-32 0 -59 10t-47.5 28.5t-33.5 44t-17 57.5h10q7 -59 47.5 -94.5t99.5 -35.5q29 0 54 9.5t43 26t28.5 39t10.5 49.5q0 40 -24 71t-69 49l-103 41
q-118 47 -118 132q0 53 32.5 83.5t83.5 47.5q-45 19 -69.5 51.5t-24.5 74.5q0 29 11 53.5t30.5 42.5t46 28t58.5 10q31 0 58.5 -10t48 -28.5t33.5 -44.5t17 -57h-10q-7 59 -47.5 94.5t-99.5 35.5q-29 0 -54 -9.5t-43 -26t-28.5 -39t-10.5 -49.5q0 -40 24 -71t69 -49l103 -41
q118 -47 118 -132zM265 158q54 16 86.5 45t32.5 80q0 39 -27 70t-85 54l-95 37q-54 -16 -86.5 -45t-32.5 -80q0 -39 27 -70t85 -54z" />
    <glyph glyph-name="dieresis" unicode="&#xa8;" horiz-adv-x="500" 
d="M180 641q6 0 9.5 -4t3.5 -9t-3.5 -9t-9.5 -4t-9.5 4t-3.5 9t3.5 9t9.5 4zM320 641q6 0 9.5 -4t3.5 -9t-3.5 -9t-9.5 -4t-9.5 4t-3.5 9t3.5 9t9.5 4z" />
    <glyph glyph-name="copyright" unicode="&#xa9;" horiz-adv-x="824" 
d="M423 148q-42 0 -78.5 15.5t-63 42.5t-42 64t-15.5 80t15.5 80t42 64t63 42.5t78.5 15.5q36 0 67.5 -11.5t57.5 -31.5v-11q-26 20 -57.5 32t-67.5 12q-40 0 -74.5 -15t-60 -41t-40 -61t-14.5 -75t14.5 -75t40 -61t60 -41t74.5 -15q36 0 68 12t57 32v-11
q-26 -20 -57.5 -31.5t-67.5 -11.5zM412 -10q-72 0 -135.5 28.5t-111.5 77t-75.5 114t-27.5 140.5t27.5 140.5t75.5 114t111.5 77t135.5 28.5t135.5 -28.5t111.5 -77t75.5 -114t27.5 -140.5t-27.5 -140.5t-75.5 -114t-111.5 -77t-135.5 -28.5zM412 0q70 0 132 27.5t108 75
t73 111.5t27 136t-27 136t-73 111.5t-108 75t-132 27.5t-132 -27.5t-108 -75t-73 -111.5t-27 -136t27 -136t73 -111.5t108 -75t132 -27.5z" />
    <glyph glyph-name="ordfeminine" unicode="&#xaa;" horiz-adv-x="491" 
d="M40 482q0 39 14.5 74t40 60.5t59.5 40.5t73 15q35 0 65 -11.5t53.5 -30.5t39.5 -44t22 -52v131h10v-366h-10v131q-6 -27 -22 -52t-39.5 -44t-53.5 -30.5t-65 -11.5q-39 0 -73 15t-59.5 40.5t-40 60.5t-14.5 74zM50 482q0 -37 13.5 -70t37.5 -57.5t56.5 -38.5t69.5 -14
t70 14t57.5 38.5t38.5 57t14 69.5t-14 70t-38 58t-57 39t-71 14q-37 0 -69.5 -14t-56.5 -38.5t-37.5 -57.5t-13.5 -70z" />
    <glyph glyph-name="guillemotleft" unicode="&#xab;" horiz-adv-x="353" 
d="M45 259l133 202h11l-133 -202l133 -202h-11zM167 259l133 202h11l-133 -202l133 -202h-11z" />
    <glyph glyph-name="logicalnot" unicode="&#xac;" 
d="M504 397h-419v10h429v-147h-10v137z" />
    <glyph glyph-name="registered" unicode="&#xae;" horiz-adv-x="824" 
d="M412 -10q-72 0 -135.5 28.5t-111.5 77t-75.5 114t-27.5 140.5t27.5 140.5t75.5 114t111.5 77t135.5 28.5t135.5 -28.5t111.5 -77t75.5 -114t27.5 -140.5t-27.5 -140.5t-75.5 -114t-111.5 -77t-135.5 -28.5zM412 0q70 0 132 27.5t108 75t73 111.5t27 136t-27 136
t-73 111.5t-108 75t-132 27.5t-132 -27.5t-108 -75t-73 -111.5t-27 -136t27 -136t73 -111.5t108 -75t132 -27.5zM549 445q0 -48 -32.5 -73t-85.5 -25h-22l156 -191h-12l-155 191h-83v-191h-10v388h127q53 0 85 -25.5t32 -73.5zM539 445q0 42 -29 65.5t-79 23.5h-116v-177
h116q50 0 79 23.5t29 64.5z" />
    <glyph glyph-name="macron" unicode="&#xaf;" horiz-adv-x="500" 
d="M142 619v9h216v-9h-216z" />
    <glyph glyph-name="degree" unicode="&#xb0;" horiz-adv-x="362" 
d="M305 574q0 -26 -9.5 -48.5t-26.5 -39t-39.5 -26t-48.5 -9.5t-48.5 9.5t-39.5 26t-26.5 39t-9.5 48.5t9.5 48.5t26.5 39t39.5 26t48.5 9.5t48.5 -9.5t39.5 -26t26.5 -39t9.5 -48.5zM295 574q0 23 -9 43.5t-24.5 36t-36.5 24.5t-44 9t-44 -9t-36.5 -24.5t-24.5 -36
t-9 -43.5t9 -43.5t24.5 -36t36.5 -24.5t44 -9t44 9t36.5 24.5t24.5 36t9 43.5z" />
    <glyph glyph-name="plusminus" unicode="&#xb1;" 
d="M85 90h430v-10h-430v10zM295 408h-210v10h210v211h10v-211h210v-10h-210v-212h-10v212z" />
    <glyph glyph-name="twosuperior" unicode="&#xb2;" horiz-adv-x="306" 
d="M34 307l155 155q41 41 56.5 68.5t15.5 55.5q0 42 -30.5 69.5t-75.5 27.5q-23 0 -42.5 -8.5t-33.5 -23.5t-22.5 -35.5t-8.5 -43.5h-10q0 25 9 47.5t24.5 38.5t37 25.5t46.5 9.5q51 0 83.5 -30t32.5 -77q0 -29 -15.5 -58.5t-59.5 -72.5l-148 -147h231v-9h-245v8z" />
    <glyph glyph-name="threesuperior" unicode="&#xb3;" horiz-adv-x="313" 
d="M174 511q8 0 23 5t29.5 16t25 27t10.5 39q0 21 -8.5 36.5t-22.5 26.5t-32 16.5t-37 5.5q-42 0 -70.5 -24.5t-29.5 -62.5h-10q1 43 32.5 70t77.5 27q21 0 41 -6.5t35.5 -19t24.5 -30t9 -39.5q0 -21 -9 -37.5t-21.5 -27.5t-25.5 -18t-21 -8q13 -3 29.5 -10t30.5 -19t24 -30
t10 -42q0 -26 -10.5 -46.5t-28.5 -35t-41 -22.5t-48 -8q-24 0 -46.5 7.5t-40.5 21.5t-28.5 34.5t-10.5 46.5h10q0 -24 10 -42.5t26 -31t37 -19.5t43 -7q23 0 44.5 7t38 20t26 32t9.5 43q0 26 -12.5 44t-29.5 29.5t-34.5 17t-28.5 5.5h-32v9h32z" />
    <glyph glyph-name="acute" unicode="&#xb4;" horiz-adv-x="500" 
d="M199 581l92 131h11l-92 -131h-11z" />
    <glyph glyph-name="uni00B5" unicode="&#xb5;" horiz-adv-x="581" 
d="M86 473h10v-270q0 -47 14 -84.5t39.5 -63.5t61.5 -40.5t80 -14.5q42 0 78 17t61.5 45t40 64t14.5 74v273h10v-473h-10v142q-7 -29 -24 -56.5t-42.5 -48.5t-58 -34t-70.5 -13q-72 0 -123.5 36.5t-70.5 102.5v-337h-10v681z" />
    <glyph glyph-name="paragraph" unicode="&#xb6;" horiz-adv-x="460" 
d="M208 396h-20q-31 0 -58.5 10.5t-48.5 30t-33.5 47.5t-12.5 64t12.5 64t33.5 47.5t48.5 30t58.5 10.5h237v-10h-72v-798h-10v798h-125v-798h-10v504z" />
    <glyph glyph-name="periodcentered" unicode="&#xb7;" horiz-adv-x="166" 
d="M69 257q0 14 14 14t14 -14t-14 -14t-14 14z" />
    <glyph glyph-name="cedilla" unicode="&#xb8;" horiz-adv-x="500" 
d="M174 -94l46 88h10l-40 -75q18 17 46 17q29 0 50.5 -21t21.5 -51t-22 -51t-53 -21q-30 0 -51 18.5t-25 44.5h10q3 -22 21.5 -37.5t44.5 -15.5q27 0 46 18t19 44t-18 44t-44 18q-32 0 -54 -24z" />
    <glyph glyph-name="onesuperior" unicode="&#xb9;" horiz-adv-x="172" 
d="M103 678h-74v10h84v-389h-10v379z" />
    <glyph glyph-name="ordmasculine" unicode="&#xba;" horiz-adv-x="454" 
d="M414 482q0 -39 -14.5 -74t-40 -60.5t-59.5 -40.5t-73 -15t-73 15t-59.5 40.5t-40 60.5t-14.5 74t14.5 74t40 60.5t59.5 40.5t73 15t73 -15t59.5 -40.5t40 -60.5t14.5 -74zM403 482q0 37 -14 70t-38 57.5t-56 38.5t-68 14t-68 -14t-56 -38.5t-38 -57.5t-14 -70t14 -70
t38 -57.5t56 -38.5t68 -14t68 14t56 38.5t38 57.5t14 70z" />
    <glyph glyph-name="guillemotright" unicode="&#xbb;" horiz-adv-x="353" 
d="M175 259l-133 202h11l133 -202l-133 -202h-10zM298 259l-133 202h11l132 -202l-133 -202h-10z" />
    <glyph glyph-name="onequarter" unicode="&#xbc;" horiz-adv-x="579" 
d="M511 688h12l-505 -688h-12zM500 98h-215v9l214 281h11v-280h53v-10h-53v-98h-10v98zM500 108v265l-202 -265h202zM103 678h-74v10h84v-389h-10v379z" />
    <glyph glyph-name="onehalf" unicode="&#xbd;" horiz-adv-x="633" 
d="M511 688h12l-505 -688h-12zM361 8l155 155q41 41 56.5 68.5t15.5 55.5q0 42 -30.5 69.5t-75.5 27.5q-23 0 -42.5 -8.5t-33.5 -23.5t-22.5 -35.5t-8.5 -43.5h-10q0 25 9 47.5t24.5 38.5t37 25.5t46.5 9.5q51 0 83.5 -30t32.5 -77q0 -29 -15.5 -58.5t-59.5 -72.5l-148 -147
h231v-9h-245v8zM103 678h-74v10h84v-389h-10v379z" />
    <glyph glyph-name="threequarters" unicode="&#xbe;" horiz-adv-x="690" 
d="M174 511q8 0 23 5t29.5 16t25 27t10.5 39q0 21 -8.5 36.5t-22.5 26.5t-32 16.5t-37 5.5q-42 0 -70.5 -24.5t-29.5 -62.5h-10q1 43 32.5 70t77.5 27q21 0 41 -6.5t35.5 -19t24.5 -30t9 -39.5q0 -21 -9 -37.5t-21.5 -27.5t-25.5 -18t-21 -8q13 -3 29.5 -10t30.5 -19t24 -30
t10 -42q0 -26 -10.5 -46.5t-28.5 -35t-41 -22.5t-48 -8q-24 0 -46.5 7.5t-40.5 21.5t-28.5 34.5t-10.5 46.5h10q0 -24 10 -42.5t26 -31t37 -19.5t43 -7q23 0 44.5 7t38 20t26 32t9.5 43q0 26 -12.5 44t-29.5 29.5t-34.5 17t-28.5 5.5h-32v9h32zM622 688h12l-505 -688h-12z
M611 98h-215v9l214 281h11v-280h53v-10h-53v-98h-10v98zM611 108v265l-202 -265h202z" />
    <glyph glyph-name="questiondown" unicode="&#xbf;" horiz-adv-x="488" 
d="M437 -17q0 -38 -13.5 -74t-38.5 -64t-60.5 -44.5t-79.5 -16.5q-41 0 -76.5 13.5t-61.5 37.5t-41 57t-15 72q0 48 25.5 88.5t64.5 78.5q21 20 38 38.5t29.5 38t19.5 42t7 50.5v19h10v-19q0 -27 -5.5 -48.5t-17.5 -41.5t-30.5 -40.5t-43.5 -45.5q-38 -38 -62.5 -75.5
t-24.5 -84.5q0 -37 14.5 -68t39 -53.5t58 -35.5t72.5 -13q42 0 75.5 16t57 42.5t36.5 60.5t13 70h10zM239 483q6 0 10 -4t4 -10t-4 -10t-10 -4t-10 4t-4 10t4 10t10 4z" />
    <glyph glyph-name="Agrave" unicode="&#xc0;" horiz-adv-x="664" 
d="M327 700h10l297 -700h-11l-112 264h-358l-112 -264h-11zM507 274l-175 412l-175 -412h350zM325 758l-92 131h11l92 -131h-11z" />
    <glyph glyph-name="Aacute" unicode="&#xc1;" horiz-adv-x="664" 
d="M327 700h10l297 -700h-11l-112 264h-358l-112 -264h-11zM507 274l-175 412l-175 -412h350zM326 758l92 131h11l-92 -131h-11z" />
    <glyph glyph-name="Acircumflex" unicode="&#xc2;" horiz-adv-x="664" 
d="M327 700h10l297 -700h-11l-112 264h-358l-112 -264h-11zM507 274l-175 412l-175 -412h350zM218 758l110 131h8l110 -131h-12l-102 121l-102 -121h-12z" />
    <glyph glyph-name="Atilde" unicode="&#xc3;" horiz-adv-x="664" 
d="M327 700h10l297 -700h-11l-112 264h-358l-112 -264h-11zM507 274l-175 412l-175 -412h350zM394 785q-24 0 -38.5 10.5t-26.5 23.5t-25 23.5t-34 10.5q-26 0 -41 -17t-16 -48h-10q1 35 19 55t47 20q24 0 38.5 -10.5t26.5 -23.5t25 -23.5t34 -10.5q26 0 41 17t16 48h10
q-1 -35 -19 -55t-47 -20z" />
    <glyph glyph-name="Adieresis" unicode="&#xc4;" horiz-adv-x="664" 
d="M327 700h10l297 -700h-11l-112 264h-358l-112 -264h-11zM507 274l-175 412l-175 -412h350zM402 838q6 0 9.5 -4t3.5 -9t-3.5 -9t-9.5 -4t-9.5 4t-3.5 9t3.5 9t9.5 4zM262 838q6 0 9.5 -4t3.5 -9t-3.5 -9t-9.5 -4t-9.5 4t-3.5 9t3.5 9t9.5 4z" />
    <glyph glyph-name="Aring" unicode="&#xc5;" horiz-adv-x="664" 
d="M327 700h10l297 -700h-11l-112 264h-358l-112 -264h-11zM507 274l-175 412l-175 -412h350zM413 823q0 -33 -24 -56t-57 -23t-57 23t-24 56t24 56t57 23t57 -23t24 -56zM403 823q0 28 -21.5 48.5t-49.5 20.5t-49.5 -20.5t-21.5 -48.5t21.5 -48.5t49.5 -20.5t49.5 20.5
t21.5 48.5z" />
    <glyph glyph-name="AE" unicode="&#xc6;" horiz-adv-x="903" 
d="M494 700h350v-10h-334v-319h305v-10h-305v-352l337 1v-10h-347v251h-294l-168 -251h-12zM500 261v431l-288 -431h288z" />
    <glyph glyph-name="Ccedilla" unicode="&#xc7;" horiz-adv-x="668" 
d="M327 -94l45 86q-66 7 -123 38t-99 79t-66.5 109.5t-24.5 131.5q0 75 28 140.5t76 114t112 77t136 28.5q57 0 108.5 -17.5t95.5 -49.5v-12q-42 32 -94.5 50.5t-109.5 18.5q-71 0 -133 -27.5t-108.5 -75t-73.5 -111.5t-27 -136t27 -136t73.5 -111.5t108.5 -75t133 -27.5
q57 0 109.5 18.5t94.5 50.5v-12q-44 -32 -95.5 -49.5t-108.5 -17.5h-13.5t-16.5 1l-38 -72q18 17 46 17q29 0 50.5 -21t21.5 -51t-22 -51t-53 -21q-30 0 -51 18.5t-25 44.5h10q3 -22 21.5 -37.5t44.5 -15.5q27 0 46 18t19 44t-18 44t-44 18q-32 0 -54 -24z" />
    <glyph glyph-name="Egrave" unicode="&#xc8;" horiz-adv-x="498" 
d="M95 700h345v-10h-335v-319h305v-10h-305v-351h337v-10h-347v700zM282 758l-92 131h11l92 -131h-11z" />
    <glyph glyph-name="Eacute" unicode="&#xc9;" horiz-adv-x="498" 
d="M95 700h345v-10h-335v-319h305v-10h-305v-351h337v-10h-347v700zM248 758l92 131h11l-92 -131h-11z" />
    <glyph glyph-name="Ecircumflex" unicode="&#xca;" horiz-adv-x="498" 
d="M95 700h345v-10h-335v-319h305v-10h-305v-351h337v-10h-347v700zM151 758l110 131h8l110 -131h-12l-102 121l-102 -121h-12z" />
    <glyph glyph-name="Edieresis" unicode="&#xcb;" horiz-adv-x="498" 
d="M95 700h345v-10h-335v-319h305v-10h-305v-351h337v-10h-347v700zM336 838q6 0 9.5 -4t3.5 -9t-3.5 -9t-9.5 -4t-9.5 4t-3.5 9t3.5 9t9.5 4zM196 838q6 0 9.5 -4t3.5 -9t-3.5 -9t-9.5 -4t-9.5 4t-3.5 9t3.5 9t9.5 4z" />
    <glyph glyph-name="Igrave" unicode="&#xcc;" horiz-adv-x="200" 
d="M95 700h10v-700h-10v700zM103 758l-92 131h11l92 -131h-11z" />
    <glyph glyph-name="Iacute" unicode="&#xcd;" horiz-adv-x="200" 
d="M95 700h10v-700h-10v700zM86 758l92 131h11l-92 -131h-11z" />
    <glyph glyph-name="Icircumflex" unicode="&#xce;" horiz-adv-x="200" 
d="M95 700h10v-700h-10v700zM-14 758l110 131h8l110 -131h-12l-102 121l-102 -121h-12z" />
    <glyph glyph-name="Idieresis" unicode="&#xcf;" horiz-adv-x="200" 
d="M95 700h10v-700h-10v700zM170 838q6 0 9.5 -4t3.5 -9t-3.5 -9t-9.5 -4t-9.5 4t-3.5 9t3.5 9t9.5 4zM30 838q6 0 9.5 -4t3.5 -9t-3.5 -9t-9.5 -4t-9.5 4t-3.5 9t3.5 9t9.5 4z" />
    <glyph glyph-name="Eth" unicode="&#xd0;" horiz-adv-x="704" 
d="M5 364h105v336h192q73 0 135.5 -26.5t108.5 -73.5t72.5 -111t26.5 -139t-26.5 -139t-72.5 -111t-108.5 -73.5t-135.5 -26.5h-192v355h-105v9zM635 350q0 72 -25.5 134.5t-70.5 108t-106 71.5t-131 26h-182v-326h243v-9h-243v-345h182q70 0 131 26t106 71.5t70.5 108
t25.5 134.5z" />
    <glyph glyph-name="Ntilde" unicode="&#xd1;" horiz-adv-x="756" 
d="M661 700v-700h-10l-546 684v-684h-10v700h10l546 -685v685h10zM454 785q-24 0 -38.5 10.5t-26.5 23.5t-25 23.5t-34 10.5q-26 0 -41 -17t-16 -48h-10q1 35 19 55t47 20q24 0 38.5 -10.5t26.5 -23.5t25 -23.5t34 -10.5q26 0 41 17t16 48h10q-1 -35 -19 -55t-47 -20z" />
    <glyph glyph-name="Ograve" unicode="&#xd2;" horiz-adv-x="822" 
d="M763 350q0 -75 -28 -140.5t-76 -114t-112 -77t-136 -28.5t-136 28.5t-112 77t-76 114t-28 140.5t28 140.5t76 114t112 77t136 28.5t136 -28.5t112 -77t76 -114t28 -140.5zM753 350q0 72 -27 136t-73.5 111.5t-109 75t-132.5 27.5t-132.5 -27.5t-109 -75t-73.5 -111.5
t-27 -136t27 -136t73.5 -111.5t109 -75t132.5 -27.5t132.5 27.5t109 75t73.5 111.5t27 136zM414 758l-92 131h11l92 -131h-11z" />
    <glyph glyph-name="Oacute" unicode="&#xd3;" horiz-adv-x="822" 
d="M763 350q0 -75 -28 -140.5t-76 -114t-112 -77t-136 -28.5t-136 28.5t-112 77t-76 114t-28 140.5t28 140.5t76 114t112 77t136 28.5t136 -28.5t112 -77t76 -114t28 -140.5zM753 350q0 72 -27 136t-73.5 111.5t-109 75t-132.5 27.5t-132.5 -27.5t-109 -75t-73.5 -111.5
t-27 -136t27 -136t73.5 -111.5t109 -75t132.5 -27.5t132.5 27.5t109 75t73.5 111.5t27 136zM397 758l92 131h11l-92 -131h-11z" />
    <glyph glyph-name="Ocircumflex" unicode="&#xd4;" horiz-adv-x="822" 
d="M763 350q0 -75 -28 -140.5t-76 -114t-112 -77t-136 -28.5t-136 28.5t-112 77t-76 114t-28 140.5t28 140.5t76 114t112 77t136 28.5t136 -28.5t112 -77t76 -114t28 -140.5zM753 350q0 72 -27 136t-73.5 111.5t-109 75t-132.5 27.5t-132.5 -27.5t-109 -75t-73.5 -111.5
t-27 -136t27 -136t73.5 -111.5t109 -75t132.5 -27.5t132.5 27.5t109 75t73.5 111.5t27 136zM297 758l110 131h8l110 -131h-12l-102 121l-102 -121h-12z" />
    <glyph glyph-name="Otilde" unicode="&#xd5;" horiz-adv-x="822" 
d="M763 350q0 -75 -28 -140.5t-76 -114t-112 -77t-136 -28.5t-136 28.5t-112 77t-76 114t-28 140.5t28 140.5t76 114t112 77t136 28.5t136 -28.5t112 -77t76 -114t28 -140.5zM753 350q0 72 -27 136t-73.5 111.5t-109 75t-132.5 27.5t-132.5 -27.5t-109 -75t-73.5 -111.5
t-27 -136t27 -136t73.5 -111.5t109 -75t132.5 -27.5t132.5 27.5t109 75t73.5 111.5t27 136zM474 785q-24 0 -38.5 10.5t-26.5 23.5t-25 23.5t-34 10.5q-26 0 -41 -17t-16 -48h-10q1 35 19 55t47 20q24 0 38.5 -10.5t26.5 -23.5t25 -23.5t34 -10.5q26 0 41 17t16 48h10
q-1 -35 -19 -55t-47 -20z" />
    <glyph glyph-name="Odieresis" unicode="&#xd6;" horiz-adv-x="822" 
d="M763 350q0 -75 -28 -140.5t-76 -114t-112 -77t-136 -28.5t-136 28.5t-112 77t-76 114t-28 140.5t28 140.5t76 114t112 77t136 28.5t136 -28.5t112 -77t76 -114t28 -140.5zM753 350q0 72 -27 136t-73.5 111.5t-109 75t-132.5 27.5t-132.5 -27.5t-109 -75t-73.5 -111.5
t-27 -136t27 -136t73.5 -111.5t109 -75t132.5 -27.5t132.5 27.5t109 75t73.5 111.5t27 136zM481 838q6 0 9.5 -4t3.5 -9t-3.5 -9t-9.5 -4t-9.5 4t-3.5 9t3.5 9t9.5 4zM341 838q6 0 9.5 -4t3.5 -9t-3.5 -9t-9.5 -4t-9.5 4t-3.5 9t3.5 9t9.5 4z" />
    <glyph glyph-name="multiply" unicode="&#xd7;" 
d="M102 143l190 190l-190 191l7 7l190 -191l191 191l7 -7l-191 -191l191 -190l-7 -7l-191 190l-190 -190z" />
    <glyph glyph-name="Oslash" unicode="&#xd8;" horiz-adv-x="822" 
d="M70 -6l94 100q-49 49 -77 114.5t-28 141.5q0 75 28 140.5t76 114t112 77t136 28.5q69 0 130.5 -26t109.5 -72l94 101l7 -7l-94 -100q48 -49 76.5 -115t28.5 -141t-28 -140.5t-76 -114t-112 -77t-136 -28.5q-70 0 -131 26t-109 71l-94 -100zM753 350q0 73 -27.5 136.5
t-74.5 111.5l-473 -503q46 -45 105.5 -70t127.5 -25q70 0 132.5 27.5t109 75t73.5 111.5t27 136zM69 350q0 -73 27 -137t75 -112l473 504q-47 45 -106.5 70t-126.5 25q-70 0 -132.5 -27.5t-109 -75t-73.5 -111.5t-27 -136z" />
    <glyph glyph-name="Ugrave" unicode="&#xd9;" horiz-adv-x="690" 
d="M345 -10q-63 0 -111.5 21t-81 59.5t-49.5 92t-17 118.5v419h10v-418q0 -63 16.5 -114.5t48 -89t78 -58t106.5 -20.5t106.5 20.5t78 58t48 89t16.5 114.5v418h10v-419q0 -65 -17 -118.5t-49.5 -92t-81 -59.5t-111.5 -21zM364 758l-92 131h11l92 -131h-11z" />
    <glyph glyph-name="Uacute" unicode="&#xda;" horiz-adv-x="690" 
d="M345 -10q-63 0 -111.5 21t-81 59.5t-49.5 92t-17 118.5v419h10v-418q0 -63 16.5 -114.5t48 -89t78 -58t106.5 -20.5t106.5 20.5t78 58t48 89t16.5 114.5v418h10v-419q0 -65 -17 -118.5t-49.5 -92t-81 -59.5t-111.5 -21zM321 758l92 131h11l-92 -131h-11z" />
    <glyph glyph-name="Ucircumflex" unicode="&#xdb;" horiz-adv-x="690" 
d="M345 -10q-63 0 -111.5 21t-81 59.5t-49.5 92t-17 118.5v419h10v-418q0 -63 16.5 -114.5t48 -89t78 -58t106.5 -20.5t106.5 20.5t78 58t48 89t16.5 114.5v418h10v-419q0 -65 -17 -118.5t-49.5 -92t-81 -59.5t-111.5 -21zM231 758l110 131h8l110 -131h-12l-102 121
l-102 -121h-12z" />
    <glyph glyph-name="Udieresis" unicode="&#xdc;" horiz-adv-x="690" 
d="M345 -10q-63 0 -111.5 21t-81 59.5t-49.5 92t-17 118.5v419h10v-418q0 -63 16.5 -114.5t48 -89t78 -58t106.5 -20.5t106.5 20.5t78 58t48 89t16.5 114.5v418h10v-419q0 -65 -17 -118.5t-49.5 -92t-81 -59.5t-111.5 -21zM415 838q6 0 9.5 -4t3.5 -9t-3.5 -9t-9.5 -4
t-9.5 4t-3.5 9t3.5 9t9.5 4zM275 838q6 0 9.5 -4t3.5 -9t-3.5 -9t-9.5 -4t-9.5 4t-3.5 9t3.5 9t9.5 4z" />
    <glyph glyph-name="Yacute" unicode="&#xdd;" 
d="M295 323l-269 377h12l262 -368l262 368h12l-269 -376v-324h-10v323zM293 758l92 131h11l-92 -131h-11z" />
    <glyph glyph-name="Thorn" unicode="&#xde;" horiz-adv-x="515" 
d="M105 700v-168h156q48 0 87.5 -12t68 -35t44 -56t15.5 -76t-15.5 -76t-44 -56t-68 -35t-87.5 -12h-156v-174h-10v700h10zM260 184q46 0 84 11.5t65 33.5t42 53.5t15 70.5t-15 70.5t-42 53.5t-65 33.5t-84 11.5h-155v-338h155z" />
    <glyph glyph-name="germandbls" unicode="&#xdf;" horiz-adv-x="562" 
d="M288 392q14 0 41.5 8t55 26.5t48 49.5t20.5 77q0 36 -14.5 64.5t-39 48.5t-55.5 30.5t-64 10.5q-88 0 -136.5 -52.5t-48.5 -144.5v-510h-10v509q0 97 51.5 152.5t143.5 55.5q35 0 68 -11.5t58.5 -32.5t41 -51.5t15.5 -68.5q0 -36 -13.5 -64.5t-34 -48.5t-46 -33
t-49.5 -18q32 -6 65 -20.5t59.5 -38.5t43.5 -58.5t17 -79.5q0 -48 -19 -85.5t-50 -63.5t-71.5 -39.5t-83.5 -13.5q-22 0 -44 3t-42 10v10q20 -7 42 -10t44 -3q41 0 79.5 13t68.5 37.5t48 60t18 81.5q0 54 -23.5 90.5t-56.5 58.5t-67 32t-55 10h-44v9h39z" />
    <glyph glyph-name="agrave" unicode="&#xe0;" horiz-adv-x="623" 
d="M527 0v174q-8 -32 -26.5 -64.5t-48 -59t-69.5 -43.5t-89 -17q-50 0 -94 19.5t-77 53t-52 78.5t-19 96t19 96t52 78t77 52.5t94 19.5q49 0 89 -16.5t69.5 -43t48 -59t26.5 -64.5v173h10v-473h-10zM62 237q0 -49 18 -92t49.5 -75.5t74 -51t90.5 -18.5q55 0 98.5 21.5
t73.5 56t46 76.5t16 83t-16 83t-46 76t-73.5 55.5t-98.5 21.5q-48 0 -90.5 -18.5t-74 -50.5t-49.5 -75t-18 -92zM324 581l-92 131h11l92 -131h-11z" />
    <glyph glyph-name="aacute" unicode="&#xe1;" horiz-adv-x="623" 
d="M527 0v174q-8 -32 -26.5 -64.5t-48 -59t-69.5 -43.5t-89 -17q-50 0 -94 19.5t-77 53t-52 78.5t-19 96t19 96t52 78t77 52.5t94 19.5q49 0 89 -16.5t69.5 -43t48 -59t26.5 -64.5v173h10v-473h-10zM62 237q0 -49 18 -92t49.5 -75.5t74 -51t90.5 -18.5q55 0 98.5 21.5
t73.5 56t46 76.5t16 83t-16 83t-46 76t-73.5 55.5t-98.5 21.5q-48 0 -90.5 -18.5t-74 -50.5t-49.5 -75t-18 -92zM284 581l92 131h11l-92 -131h-11z" />
    <glyph glyph-name="acircumflex" unicode="&#xe2;" horiz-adv-x="623" 
d="M527 0v174q-8 -32 -26.5 -64.5t-48 -59t-69.5 -43.5t-89 -17q-50 0 -94 19.5t-77 53t-52 78.5t-19 96t19 96t52 78t77 52.5t94 19.5q49 0 89 -16.5t69.5 -43t48 -59t26.5 -64.5v173h10v-473h-10zM62 237q0 -49 18 -92t49.5 -75.5t74 -51t90.5 -18.5q55 0 98.5 21.5
t73.5 56t46 76.5t16 83t-16 83t-46 76t-73.5 55.5t-98.5 21.5q-48 0 -90.5 -18.5t-74 -50.5t-49.5 -75t-18 -92zM183 581l110 131h8l110 -131h-12l-102 121l-102 -121h-12z" />
    <glyph glyph-name="atilde" unicode="&#xe3;" horiz-adv-x="623" 
d="M527 0v174q-8 -32 -26.5 -64.5t-48 -59t-69.5 -43.5t-89 -17q-50 0 -94 19.5t-77 53t-52 78.5t-19 96t19 96t52 78t77 52.5t94 19.5q49 0 89 -16.5t69.5 -43t48 -59t26.5 -64.5v173h10v-473h-10zM62 237q0 -49 18 -92t49.5 -75.5t74 -51t90.5 -18.5q55 0 98.5 21.5
t73.5 56t46 76.5t16 83t-16 83t-46 76t-73.5 55.5t-98.5 21.5q-48 0 -90.5 -18.5t-74 -50.5t-49.5 -75t-18 -92zM362 593q-24 0 -38.5 10.5t-26.5 23.5t-25 23.5t-34 10.5q-26 0 -41 -17t-16 -48h-10q1 35 19 55t47 20q24 0 38.5 -10.5t26.5 -23.5t25 -23.5t34 -10.5
q26 0 41 17t16 48h10q-1 -35 -19 -55t-47 -20z" />
    <glyph glyph-name="adieresis" unicode="&#xe4;" horiz-adv-x="623" 
d="M527 0v174q-8 -32 -26.5 -64.5t-48 -59t-69.5 -43.5t-89 -17q-50 0 -94 19.5t-77 53t-52 78.5t-19 96t19 96t52 78t77 52.5t94 19.5q49 0 89 -16.5t69.5 -43t48 -59t26.5 -64.5v173h10v-473h-10zM62 237q0 -49 18 -92t49.5 -75.5t74 -51t90.5 -18.5q55 0 98.5 21.5
t73.5 56t46 76.5t16 83t-16 83t-46 76t-73.5 55.5t-98.5 21.5q-48 0 -90.5 -18.5t-74 -50.5t-49.5 -75t-18 -92zM367 641q6 0 9.5 -4t3.5 -9t-3.5 -9t-9.5 -4t-9.5 4t-3.5 9t3.5 9t9.5 4zM227 641q6 0 9.5 -4t3.5 -9t-3.5 -9t-9.5 -4t-9.5 4t-3.5 9t3.5 9t9.5 4z" />
    <glyph glyph-name="aring" unicode="&#xe5;" horiz-adv-x="623" 
d="M527 0v174q-8 -32 -26.5 -64.5t-48 -59t-69.5 -43.5t-89 -17q-50 0 -94 19.5t-77 53t-52 78.5t-19 96t19 96t52 78t77 52.5t94 19.5q49 0 89 -16.5t69.5 -43t48 -59t26.5 -64.5v173h10v-473h-10zM62 237q0 -49 18 -92t49.5 -75.5t74 -51t90.5 -18.5q55 0 98.5 21.5
t73.5 56t46 76.5t16 83t-16 83t-46 76t-73.5 55.5t-98.5 21.5q-48 0 -90.5 -18.5t-74 -50.5t-49.5 -75t-18 -92zM377 646q0 -33 -24 -56t-57 -23t-57 23t-24 56t24 56t57 23t57 -23t24 -56zM367 646q0 28 -21.5 48.5t-49.5 20.5t-49.5 -20.5t-21.5 -48.5t21.5 -48.5
t49.5 -20.5t49.5 20.5t21.5 48.5z" />
    <glyph glyph-name="ae" unicode="&#xe6;" horiz-adv-x="906" 
d="M254 473q-62 0 -106 -32t-61 -86l-10 3q18 57 65 91t112 34q81 0 125.5 -42.5t44.5 -118.5v-9q10 38 30 69.5t48 54t63 34.5t75 12q48 0 89 -18.5t70 -51t45.5 -77t16.5 -97.5v-1h-437v-3q0 -51 16.5 -94t45.5 -74t69 -48.5t87 -17.5q63 0 112.5 32t75.5 88l10 -3
q-28 -59 -80 -93t-118 -34q-41 0 -76.5 12t-64 34.5t-48.5 54t-30 70.5q-4 -36 -21 -67.5t-45 -55t-64 -36.5t-78 -13q-35 0 -63.5 9.5t-49 26.5t-32 40t-11.5 51q0 128 163 143l192 18v44q0 72 -41.5 111.5t-118.5 39.5zM851 247q-2 49 -18 90.5t-43.5 71.5t-66 47
t-83.5 17q-46 0 -85 -17t-67.5 -47t-45.5 -71.5t-18 -90.5h427zM69 117q0 -25 11 -46.5t30.5 -37t46 -24.5t58.5 -9q42 0 78.5 14.5t63 39t42 57.5t15.5 70v88l-192 -18q-78 -8 -115.5 -42.5t-37.5 -91.5z" />
    <glyph glyph-name="ccedilla" unicode="&#xe7;" horiz-adv-x="495" 
d="M229 -94l44 85q-47 4 -87 24.5t-70 53.5t-47 76t-17 92q0 51 19 95.5t52 78t77 53t94 19.5q41 0 78 -12.5t67 -35.5v-12q-30 23 -66.5 36.5t-78.5 13.5q-48 0 -90.5 -18.5t-74 -50.5t-49.5 -75t-18 -92t18 -92t49.5 -75.5t74 -51t90.5 -18.5q42 0 78.5 13.5t66.5 36.5
v-12q-30 -23 -67 -35.5t-78 -12.5h-11l-38 -71q18 17 46 17q29 0 50.5 -21t21.5 -51t-22 -51t-53 -21q-30 0 -51 18.5t-25 44.5h10q3 -22 21.5 -37.5t44.5 -15.5q27 0 46 18t19 44t-18 44t-44 18q-32 0 -54 -24z" />
    <glyph glyph-name="egrave" unicode="&#xe8;" horiz-adv-x="554" 
d="M285 -10q-51 0 -94 18t-73.5 51t-48 78t-17.5 99t17 99.5t48 78t73 51t93 18.5q49 0 90.5 -18t71.5 -51t47 -77.5t17 -97.5v-1h-447v-3q0 -52 16.5 -95t46.5 -74t71 -48.5t89 -17.5q64 0 115 32t78 89l10 -3q-29 -60 -82.5 -94t-120.5 -34zM499 247q-2 49 -18.5 90.5
t-45 71.5t-67.5 47t-85 17q-47 0 -87 -17t-69 -47t-46.5 -71.5t-18.5 -90.5h437zM288 581l-92 131h11l92 -131h-11z" />
    <glyph glyph-name="eacute" unicode="&#xe9;" horiz-adv-x="554" 
d="M285 -10q-51 0 -94 18t-73.5 51t-48 78t-17.5 99t17 99.5t48 78t73 51t93 18.5q49 0 90.5 -18t71.5 -51t47 -77.5t17 -97.5v-1h-447v-3q0 -52 16.5 -95t46.5 -74t71 -48.5t89 -17.5q64 0 115 32t78 89l10 -3q-29 -60 -82.5 -94t-120.5 -34zM499 247q-2 49 -18.5 90.5
t-45 71.5t-67.5 47t-85 17q-47 0 -87 -17t-69 -47t-46.5 -71.5t-18.5 -90.5h437zM263 581l92 131h11l-92 -131h-11z" />
    <glyph glyph-name="ecircumflex" unicode="&#xea;" horiz-adv-x="554" 
d="M285 -10q-51 0 -94 18t-73.5 51t-48 78t-17.5 99t17 99.5t48 78t73 51t93 18.5q49 0 90.5 -18t71.5 -51t47 -77.5t17 -97.5v-1h-447v-3q0 -52 16.5 -95t46.5 -74t71 -48.5t89 -17.5q64 0 115 32t78 89l10 -3q-29 -60 -82.5 -94t-120.5 -34zM499 247q-2 49 -18.5 90.5
t-45 71.5t-67.5 47t-85 17q-47 0 -87 -17t-69 -47t-46.5 -71.5t-18.5 -90.5h437zM169 581l110 131h8l110 -131h-12l-102 121l-102 -121h-12z" />
    <glyph glyph-name="edieresis" unicode="&#xeb;" horiz-adv-x="554" 
d="M285 -10q-51 0 -94 18t-73.5 51t-48 78t-17.5 99t17 99.5t48 78t73 51t93 18.5q49 0 90.5 -18t71.5 -51t47 -77.5t17 -97.5v-1h-447v-3q0 -52 16.5 -95t46.5 -74t71 -48.5t89 -17.5q64 0 115 32t78 89l10 -3q-29 -60 -82.5 -94t-120.5 -34zM499 247q-2 49 -18.5 90.5
t-45 71.5t-67.5 47t-85 17q-47 0 -87 -17t-69 -47t-46.5 -71.5t-18.5 -90.5h437zM353 641q6 0 9.5 -4t3.5 -9t-3.5 -9t-9.5 -4t-9.5 4t-3.5 9t3.5 9t9.5 4zM213 641q6 0 9.5 -4t3.5 -9t-3.5 -9t-9.5 -4t-9.5 4t-3.5 9t3.5 9t9.5 4z" />
    <glyph glyph-name="igrave" unicode="&#xec;" horiz-adv-x="182" 
d="M86 473h10v-473h-10v473zM95 581l-92 131h11l92 -131h-11z" />
    <glyph glyph-name="iacute" unicode="&#xed;" horiz-adv-x="182" 
d="M86 473h10v-473h-10v473zM77 581l92 131h11l-92 -131h-11z" />
    <glyph glyph-name="icircumflex" unicode="&#xee;" horiz-adv-x="182" 
d="M86 473h10v-473h-10v473zM-23 581l110 131h8l110 -131h-12l-102 121l-102 -121h-12z" />
    <glyph glyph-name="idieresis" unicode="&#xef;" horiz-adv-x="182" 
d="M86 473h10v-473h-10v473zM161 641q6 0 9.5 -4t3.5 -9t-3.5 -9t-9.5 -4t-9.5 4t-3.5 9t3.5 9t9.5 4zM21 641q6 0 9.5 -4t3.5 -9t-3.5 -9t-9.5 -4t-9.5 4t-3.5 9t3.5 9t9.5 4z" />
    <glyph glyph-name="eth" unicode="&#xf0;" horiz-adv-x="585" 
d="M533 232q0 -51 -18.5 -95.5t-50.5 -77t-76.5 -51t-95.5 -18.5t-95 18.5t-76.5 51.5t-50.5 77.5t-18 96.5q0 51 18.5 95t50.5 77t76 51.5t95 18.5q60 0 114 -27.5t87 -79.5q-22 44 -54 93t-87 113l-37 42l-169 -60l-6 7l169 60l-81 94h12l79 -91l133 48l6 -7l-133 -48
l36 -41q92 -105 132 -188t40 -159zM523 232q0 50 -18 92.5t-49 74t-73 49.5t-91 18t-91 -18t-73 -49.5t-48.5 -74t-17.5 -91.5t17.5 -91.5t48.5 -74t73 -49.5t91 -18t91 18t73 49.5t49 73.5t18 91z" />
    <glyph glyph-name="ntilde" unicode="&#xf1;" horiz-adv-x="578" 
d="M86 473h10v-142q7 29 24 56.5t42.5 48.5t58.5 34t71 13q46 0 83.5 -15t64.5 -42.5t42 -67t15 -87.5v-271h-10v270q0 46 -14 84t-39.5 64t-62 40.5t-80.5 14.5q-43 0 -78.5 -17t-61.5 -45t-40.5 -64t-14.5 -74v-273h-10v473zM352 593q-24 0 -38.5 10.5t-26.5 23.5
t-25 23.5t-34 10.5q-26 0 -41 -17t-16 -48h-10q1 35 19 55t47 20q24 0 38.5 -10.5t26.5 -23.5t25 -23.5t34 -10.5q26 0 41 17t16 48h10q-1 -35 -19 -55t-47 -20z" />
    <glyph glyph-name="ograve" unicode="&#xf2;" horiz-adv-x="588" 
d="M536 237q0 -51 -19 -96t-52 -78.5t-77 -53t-94 -19.5t-94 19.5t-77 53t-52 78.5t-19 96t19 95.5t52 78t77 53t94 19.5t94 -19.5t77 -53t52 -78t19 -95.5zM526 237q0 49 -18 92t-49.5 75t-74 50.5t-90.5 18.5t-90.5 -18.5t-74 -50.5t-49.5 -75t-18 -92t18 -92t49.5 -75.5
t74 -51t90.5 -18.5t90.5 18.5t74 51t49.5 75.5t18 92zM316 581l-92 131h11l92 -131h-11z" />
    <glyph glyph-name="oacute" unicode="&#xf3;" horiz-adv-x="588" 
d="M536 237q0 -51 -19 -96t-52 -78.5t-77 -53t-94 -19.5t-94 19.5t-77 53t-52 78.5t-19 96t19 95.5t52 78t77 53t94 19.5t94 -19.5t77 -53t52 -78t19 -95.5zM526 237q0 49 -18 92t-49.5 75t-74 50.5t-90.5 18.5t-90.5 -18.5t-74 -50.5t-49.5 -75t-18 -92t18 -92t49.5 -75.5
t74 -51t90.5 -18.5t90.5 18.5t74 51t49.5 75.5t18 92zM270 581l92 131h11l-92 -131h-11z" />
    <glyph glyph-name="ocircumflex" unicode="&#xf4;" horiz-adv-x="588" 
d="M536 237q0 -51 -19 -96t-52 -78.5t-77 -53t-94 -19.5t-94 19.5t-77 53t-52 78.5t-19 96t19 95.5t52 78t77 53t94 19.5t94 -19.5t77 -53t52 -78t19 -95.5zM526 237q0 49 -18 92t-49.5 75t-74 50.5t-90.5 18.5t-90.5 -18.5t-74 -50.5t-49.5 -75t-18 -92t18 -92t49.5 -75.5
t74 -51t90.5 -18.5t90.5 18.5t74 51t49.5 75.5t18 92zM180 581l110 131h8l110 -131h-12l-102 121l-102 -121h-12z" />
    <glyph glyph-name="otilde" unicode="&#xf5;" horiz-adv-x="588" 
d="M536 237q0 -51 -19 -96t-52 -78.5t-77 -53t-94 -19.5t-94 19.5t-77 53t-52 78.5t-19 96t19 95.5t52 78t77 53t94 19.5t94 -19.5t77 -53t52 -78t19 -95.5zM526 237q0 49 -18 92t-49.5 75t-74 50.5t-90.5 18.5t-90.5 -18.5t-74 -50.5t-49.5 -75t-18 -92t18 -92t49.5 -75.5
t74 -51t90.5 -18.5t90.5 18.5t74 51t49.5 75.5t18 92zM357 593q-24 0 -38.5 10.5t-26.5 23.5t-25 23.5t-34 10.5q-26 0 -41 -17t-16 -48h-10q1 35 19 55t47 20q24 0 38.5 -10.5t26.5 -23.5t25 -23.5t34 -10.5q26 0 41 17t16 48h10q-1 -35 -19 -55t-47 -20z" />
    <glyph glyph-name="odieresis" unicode="&#xf6;" horiz-adv-x="588" 
d="M536 237q0 -51 -19 -96t-52 -78.5t-77 -53t-94 -19.5t-94 19.5t-77 53t-52 78.5t-19 96t19 95.5t52 78t77 53t94 19.5t94 -19.5t77 -53t52 -78t19 -95.5zM526 237q0 49 -18 92t-49.5 75t-74 50.5t-90.5 18.5t-90.5 -18.5t-74 -50.5t-49.5 -75t-18 -92t18 -92t49.5 -75.5
t74 -51t90.5 -18.5t90.5 18.5t74 51t49.5 75.5t18 92zM364 641q6 0 9.5 -4t3.5 -9t-3.5 -9t-9.5 -4t-9.5 4t-3.5 9t3.5 9t9.5 4zM224 641q6 0 9.5 -4t3.5 -9t-3.5 -9t-9.5 -4t-9.5 4t-3.5 9t3.5 9t9.5 4z" />
    <glyph glyph-name="divide" unicode="&#xf7;" 
d="M286 194q0 14 14 14t14 -14t-14 -14t-14 14zM85 338h430v-10h-430v10zM286 472q0 14 14 14t14 -14t-14 -14t-14 14z" />
    <glyph glyph-name="oslash" unicode="&#xf8;" horiz-adv-x="588" 
d="M60 -7l64 69q-33 33 -52.5 78t-19.5 97q0 51 19 95.5t52 78t77 53t94 19.5q47 0 88.5 -17.5t73.5 -46.5l63 67l7 -6l-63 -68q34 -34 53.5 -79t19.5 -96t-19 -95.5t-52 -78t-77 -53t-94 -19.5q-48 0 -89.5 17t-73.5 47l-64 -68zM526 237q0 50 -18.5 93t-50.5 75l-320 -343
q31 -29 71 -45t86 -16q48 0 90.5 18.5t74 50.5t49.5 75t18 92zM62 237q0 -50 18.5 -93t50.5 -75l319 343q-31 29 -71 45t-85 16q-48 0 -90.5 -18.5t-74 -50.5t-49.5 -75t-18 -92z" />
    <glyph glyph-name="ugrave" unicode="&#xf9;" horiz-adv-x="576" 
d="M490 0h-10v142q-7 -29 -24 -56.5t-42.5 -48.5t-58 -34t-70.5 -13q-45 0 -82.5 15t-64.5 42.5t-42 67t-15 87.5v271h10v-270q0 -47 14 -84.5t39.5 -63.5t61.5 -40.5t80 -14.5q42 0 78 17t61.5 45t40 64t14.5 74v273h10v-473zM303 581l-92 131h11l92 -131h-11z" />
    <glyph glyph-name="uacute" unicode="&#xfa;" horiz-adv-x="576" 
d="M490 0h-10v142q-7 -29 -24 -56.5t-42.5 -48.5t-58 -34t-70.5 -13q-45 0 -82.5 15t-64.5 42.5t-42 67t-15 87.5v271h10v-270q0 -47 14 -84.5t39.5 -63.5t61.5 -40.5t80 -14.5q42 0 78 17t61.5 45t40 64t14.5 74v273h10v-473zM257 581l92 131h11l-92 -131h-11z" />
    <glyph glyph-name="ucircumflex" unicode="&#xfb;" horiz-adv-x="576" 
d="M490 0h-10v142q-7 -29 -24 -56.5t-42.5 -48.5t-58 -34t-70.5 -13q-45 0 -82.5 15t-64.5 42.5t-42 67t-15 87.5v271h10v-270q0 -47 14 -84.5t39.5 -63.5t61.5 -40.5t80 -14.5q42 0 78 17t61.5 45t40 64t14.5 74v273h10v-473zM172 581l110 131h8l110 -131h-12l-102 121
l-102 -121h-12z" />
    <glyph glyph-name="udieresis" unicode="&#xfc;" horiz-adv-x="576" 
d="M490 0h-10v142q-7 -29 -24 -56.5t-42.5 -48.5t-58 -34t-70.5 -13q-45 0 -82.5 15t-64.5 42.5t-42 67t-15 87.5v271h10v-270q0 -47 14 -84.5t39.5 -63.5t61.5 -40.5t80 -14.5q42 0 78 17t61.5 45t40 64t14.5 74v273h10v-473zM356 641q6 0 9.5 -4t3.5 -9t-3.5 -9t-9.5 -4
t-9.5 4t-3.5 9t3.5 9t9.5 4zM216 641q6 0 9.5 -4t3.5 -9t-3.5 -9t-9.5 -4t-9.5 4t-3.5 9t3.5 9t9.5 4z" />
    <glyph glyph-name="yacute" unicode="&#xfd;" horiz-adv-x="478" 
d="M88 -216q-22 0 -40 8v10q8 -4 18 -6.5t22 -2.5q38 0 61.5 25t45.5 78l45 108l-206 469h11l200 -456l188 456h11l-239 -579q-25 -60 -51 -85t-66 -25zM228 581l92 131h11l-92 -131h-11z" />
    <glyph glyph-name="thorn" unicode="&#xfe;" horiz-adv-x="623" 
d="M86 -208v908h10v-400q7 32 26 64.5t48.5 59t69 43t89.5 16.5t94 -19.5t77 -52.5t52 -78t19 -96t-19 -96t-52 -78.5t-77 -53t-94 -19.5t-89.5 17t-69 43.5t-48.5 59t-26 64.5v-382h-10zM561 237q0 49 -18 92t-49.5 75t-74 50.5t-90.5 18.5q-55 0 -98.5 -21.5t-73.5 -55.5
t-46 -76t-16 -83t16 -83t46 -76.5t73.5 -56t98.5 -21.5q48 0 90.5 18.5t74 51t49.5 75.5t18 92z" />
    <glyph glyph-name="ydieresis" unicode="&#xff;" horiz-adv-x="478" 
d="M88 -216q-22 0 -40 8v10q8 -4 18 -6.5t22 -2.5q38 0 61.5 25t45.5 78l45 108l-206 469h11l200 -456l188 456h11l-239 -579q-25 -60 -51 -85t-66 -25zM309 641q6 0 9.5 -4t3.5 -9t-3.5 -9t-9.5 -4t-9.5 4t-3.5 9t3.5 9t9.5 4zM169 641q6 0 9.5 -4t3.5 -9t-3.5 -9t-9.5 -4
t-9.5 4t-3.5 9t3.5 9t9.5 4z" />
    <glyph glyph-name="Amacron" unicode="&#x100;" horiz-adv-x="664" 
d="M327 700h10l297 -700h-11l-112 264h-358l-112 -264h-11zM507 274l-175 412l-175 -412h350zM224 819v9h216v-9h-216z" />
    <glyph glyph-name="amacron" unicode="&#x101;" horiz-adv-x="623" 
d="M527 0v174q-8 -32 -26.5 -64.5t-48 -59t-69.5 -43.5t-89 -17q-50 0 -94 19.5t-77 53t-52 78.5t-19 96t19 96t52 78t77 52.5t94 19.5q49 0 89 -16.5t69.5 -43t48 -59t26.5 -64.5v173h10v-473h-10zM62 237q0 -49 18 -92t49.5 -75.5t74 -51t90.5 -18.5q55 0 98.5 21.5
t73.5 56t46 76.5t16 83t-16 83t-46 76t-73.5 55.5t-98.5 21.5q-48 0 -90.5 -18.5t-74 -50.5t-49.5 -75t-18 -92zM189 622v9h216v-9h-216z" />
    <glyph glyph-name="Abreve" unicode="&#x102;" horiz-adv-x="664" 
d="M327 700h10l297 -700h-11l-112 264h-358l-112 -264h-11zM507 274l-175 412l-175 -412h350zM332 771q42 0 72 30.5t30 82.5h10q0 -57 -32.5 -90t-79.5 -33t-79.5 33t-32.5 90h10q0 -52 30 -82.5t72 -30.5z" />
    <glyph glyph-name="abreve" unicode="&#x103;" horiz-adv-x="623" 
d="M527 0v174q-8 -32 -26.5 -64.5t-48 -59t-69.5 -43.5t-89 -17q-50 0 -94 19.5t-77 53t-52 78.5t-19 96t19 96t52 78t77 52.5t94 19.5q49 0 89 -16.5t69.5 -43t48 -59t26.5 -64.5v173h10v-473h-10zM62 237q0 -49 18 -92t49.5 -75.5t74 -51t90.5 -18.5q55 0 98.5 21.5
t73.5 56t46 76.5t16 83t-16 83t-46 76t-73.5 55.5t-98.5 21.5q-48 0 -90.5 -18.5t-74 -50.5t-49.5 -75t-18 -92zM296 594q42 0 72 30.5t30 82.5h10q0 -57 -32.5 -90t-79.5 -33t-79.5 33t-32.5 90h10q0 -52 30 -82.5t72 -30.5z" />
    <glyph glyph-name="Aogonek" unicode="&#x104;" horiz-adv-x="664" 
d="M555 -199q-36 0 -58 19t-22 51q0 42 39 76t107 57l-110 260h-358l-112 -264h-11l297 700h10l297 -700q-69 -23 -109 -56t-40 -72q0 -29 20 -45t50 -16q40 0 73 22v-11q-32 -21 -73 -21zM507 274l-175 412l-175 -412h350z" />
    <glyph glyph-name="aogonek" unicode="&#x105;" horiz-adv-x="623" 
d="M458 -199q-36 0 -58 19t-22 51q0 43 40 77t109 57v169q-8 -32 -26.5 -64.5t-48 -59t-69.5 -43.5t-89 -17q-50 0 -94 19.5t-77 53t-52 78.5t-19 96t19 96t52 78t77 52.5t94 19.5q49 0 89 -16.5t69.5 -43t48 -59t26.5 -64.5v173h10v-473q-69 -23 -109 -56t-40 -72
q0 -29 20 -45t50 -16q40 0 73 22v-11q-32 -21 -73 -21zM62 237q0 -49 18 -92t49.5 -75.5t74 -51t90.5 -18.5q55 0 98.5 21.5t73.5 56t46 76.5t16 83t-16 83t-46 76t-73.5 55.5t-98.5 21.5q-48 0 -90.5 -18.5t-74 -50.5t-49.5 -75t-18 -92z" />
    <glyph glyph-name="Cacute" unicode="&#x106;" horiz-adv-x="668" 
d="M386 758l92 131h11l-92 -131h-11zM411 -10q-72 0 -136 28t-112 77t-76 114.5t-28 140.5t28 140.5t76 114t112 77t136 28.5q57 0 108.5 -17.5t95.5 -49.5v-12q-42 32 -94.5 50.5t-109.5 18.5q-71 0 -133 -27.5t-108.5 -75t-73.5 -111.5t-27 -136t27 -136t73.5 -111.5
t108.5 -75t133 -27.5q57 0 109.5 18.5t94.5 50.5v-12q-44 -32 -95.5 -49.5t-108.5 -17.5z" />
    <glyph glyph-name="cacute" unicode="&#x107;" horiz-adv-x="495" 
d="M294 -10q-50 0 -94 19.5t-77 53t-52 78.5t-19 96t19 95.5t52 78t77 53t94 19.5q41 0 78 -12.5t67 -35.5v-12q-30 23 -66.5 36.5t-78.5 13.5q-48 0 -90.5 -18.5t-74 -50.5t-49.5 -75t-18 -92t18 -92t49.5 -75.5t74 -51t90.5 -18.5q42 0 78.5 13.5t66.5 36.5v-12
q-30 -23 -67 -35.5t-78 -12.5zM276 581l92 131h11l-92 -131h-11z" />
    <glyph glyph-name="Ccircumflex" unicode="&#x108;" horiz-adv-x="668" 
d="M293 758l110 131h8l110 -131h-12l-102 121l-102 -121h-12zM411 -10q-72 0 -136 28t-112 77t-76 114.5t-28 140.5t28 140.5t76 114t112 77t136 28.5q57 0 108.5 -17.5t95.5 -49.5v-12q-42 32 -94.5 50.5t-109.5 18.5q-71 0 -133 -27.5t-108.5 -75t-73.5 -111.5t-27 -136
t27 -136t73.5 -111.5t108.5 -75t133 -27.5q57 0 109.5 18.5t94.5 50.5v-12q-44 -32 -95.5 -49.5t-108.5 -17.5z" />
    <glyph glyph-name="ccircumflex" unicode="&#x109;" horiz-adv-x="495" 
d="M294 -10q-50 0 -94 19.5t-77 53t-52 78.5t-19 96t19 95.5t52 78t77 53t94 19.5q41 0 78 -12.5t67 -35.5v-12q-30 23 -66.5 36.5t-78.5 13.5q-48 0 -90.5 -18.5t-74 -50.5t-49.5 -75t-18 -92t18 -92t49.5 -75.5t74 -51t90.5 -18.5q42 0 78.5 13.5t66.5 36.5v-12
q-30 -23 -67 -35.5t-78 -12.5zM179 581l110 131h8l110 -131h-12l-102 121l-102 -121h-12z" />
    <glyph glyph-name="Cdotaccent" unicode="&#x10a;" horiz-adv-x="668" 
d="M407 838q6 0 9.5 -4t3.5 -9t-3.5 -9t-9.5 -4t-9.5 4t-3.5 9t3.5 9t9.5 4zM411 -10q-72 0 -136 28t-112 77t-76 114.5t-28 140.5t28 140.5t76 114t112 77t136 28.5q57 0 108.5 -17.5t95.5 -49.5v-12q-42 32 -94.5 50.5t-109.5 18.5q-71 0 -133 -27.5t-108.5 -75
t-73.5 -111.5t-27 -136t27 -136t73.5 -111.5t108.5 -75t133 -27.5q57 0 109.5 18.5t94.5 50.5v-12q-44 -32 -95.5 -49.5t-108.5 -17.5z" />
    <glyph glyph-name="cdotaccent" unicode="&#x10b;" horiz-adv-x="495" 
d="M294 -10q-50 0 -94 19.5t-77 53t-52 78.5t-19 96t19 95.5t52 78t77 53t94 19.5q41 0 78 -12.5t67 -35.5v-12q-30 23 -66.5 36.5t-78.5 13.5q-48 0 -90.5 -18.5t-74 -50.5t-49.5 -75t-18 -92t18 -92t49.5 -75.5t74 -51t90.5 -18.5q42 0 78.5 13.5t66.5 36.5v-12
q-30 -23 -67 -35.5t-78 -12.5zM295 653q6 0 9.5 -4t3.5 -9t-3.5 -9t-9.5 -4t-9.5 4t-3.5 9t3.5 9t9.5 4z" />
    <glyph glyph-name="Ccaron" unicode="&#x10c;" horiz-adv-x="668" 
d="M521 889l-110 -131h-8l-110 131h12l102 -121l102 121h12zM411 -10q-72 0 -136 28t-112 77t-76 114.5t-28 140.5t28 140.5t76 114t112 77t136 28.5q57 0 108.5 -17.5t95.5 -49.5v-12q-42 32 -94.5 50.5t-109.5 18.5q-71 0 -133 -27.5t-108.5 -75t-73.5 -111.5t-27 -136
t27 -136t73.5 -111.5t108.5 -75t133 -27.5q57 0 109.5 18.5t94.5 50.5v-12q-44 -32 -95.5 -49.5t-108.5 -17.5z" />
    <glyph glyph-name="ccaron" unicode="&#x10d;" horiz-adv-x="495" 
d="M294 -10q-50 0 -94 19.5t-77 53t-52 78.5t-19 96t19 95.5t52 78t77 53t94 19.5q41 0 78 -12.5t67 -35.5v-12q-30 23 -66.5 36.5t-78.5 13.5q-48 0 -90.5 -18.5t-74 -50.5t-49.5 -75t-18 -92t18 -92t49.5 -75.5t74 -51t90.5 -18.5q42 0 78.5 13.5t66.5 36.5v-12
q-30 -23 -67 -35.5t-78 -12.5zM408 712l-110 -131h-8l-110 131h11l103 -122l103 122h11z" />
    <glyph glyph-name="Dcaron" unicode="&#x10e;" horiz-adv-x="689" 
d="M620 350q0 72 -25.5 134.5t-70.5 108t-106 71.5t-131 26h-182v-680h182q70 0 131 26t106 71.5t70.5 108t25.5 134.5zM630 350q0 -75 -26.5 -139t-72.5 -111t-108.5 -73.5t-135.5 -26.5h-192v700h192q73 0 135.5 -26.5t108.5 -73.5t72.5 -111t26.5 -139zM426 889
l-110 -131h-8l-110 131h12l102 -121l102 121h12z" />
    <glyph glyph-name="dcaron" unicode="&#x10f;" horiz-adv-x="623" 
d="M527 0v174q-8 -32 -26.5 -64.5t-48 -59t-69.5 -43.5t-89 -17q-50 0 -94 19.5t-77 53t-52 78.5t-19 96t19 96t52 78t77 52.5t94 19.5q49 0 89 -16.5t69.5 -43t48 -59t26.5 -64.5v400h10v-700h-10zM62 237q0 -49 18 -92t49.5 -75.5t74 -51t90.5 -18.5q55 0 98.5 21.5
t73.5 56t46 76.5t16 83t-16 83t-46 76t-73.5 55.5t-98.5 21.5q-48 0 -90.5 -18.5t-74 -50.5t-49.5 -75t-18 -92zM599 554l23 155h10l-23 -155h-10z" />
    <glyph glyph-name="Dcroat" unicode="&#x110;" horiz-adv-x="704" 
d="M5 364h105v336h192q73 0 135.5 -26.5t108.5 -73.5t72.5 -111t26.5 -139t-26.5 -139t-72.5 -111t-108.5 -73.5t-135.5 -26.5h-192v355h-105v9zM635 350q0 72 -25.5 134.5t-70.5 108t-106 71.5t-131 26h-182v-326h243v-9h-243v-345h182q70 0 131 26t106 71.5t70.5 108
t25.5 134.5z" />
    <glyph glyph-name="dcroat" unicode="&#x111;" horiz-adv-x="638" 
d="M537 585v-585h-10v174q-8 -32 -26.5 -64.5t-48 -59t-69.5 -43t-89 -16.5q-50 0 -94 19.5t-77 52.5t-52 78t-19 96t19 96t52 78t77 52.5t94 19.5q49 0 89 -16.5t69.5 -43t48 -59t26.5 -64.5v285h-243v9h243v106h10v-106h90v-9h-90zM62 237q0 -49 18 -92t49.5 -75t74 -50.5
t90.5 -18.5q55 0 98.5 21.5t73.5 55.5t46 76t16 83t-16 83t-46 76t-73.5 55.5t-98.5 21.5q-48 0 -90.5 -18.5t-74 -50.5t-49.5 -75t-18 -92z" />
    <glyph glyph-name="Emacron" unicode="&#x112;" horiz-adv-x="498" 
d="M95 700h345v-10h-335v-319h305v-10h-305v-351h337v-10h-347v700zM158 819v9h216v-9h-216z" />
    <glyph glyph-name="emacron" unicode="&#x113;" horiz-adv-x="554" 
d="M285 -10q-51 0 -94 18t-73.5 51t-48 78t-17.5 99t17 99.5t48 78t73 51t93 18.5q49 0 90.5 -18t71.5 -51t47 -77.5t17 -97.5v-1h-447v-3q0 -52 16.5 -95t46.5 -74t71 -48.5t89 -17.5q64 0 115 32t78 89l10 -3q-29 -60 -82.5 -94t-120.5 -34zM499 247q-2 49 -18.5 90.5
t-45 71.5t-67.5 47t-85 17q-47 0 -87 -17t-69 -47t-46.5 -71.5t-18.5 -90.5h437zM174 619v9h216v-9h-216z" />
    <glyph glyph-name="Ebreve" unicode="&#x114;" horiz-adv-x="498" 
d="M95 700h345v-10h-335v-319h305v-10h-305v-351h337v-10h-347v700zM266 771q42 0 72 30.5t30 82.5h10q0 -57 -32.5 -90t-79.5 -33t-79.5 33t-32.5 90h10q0 -52 30 -82.5t72 -30.5z" />
    <glyph glyph-name="ebreve" unicode="&#x115;" horiz-adv-x="554" 
d="M285 -10q-51 0 -94 18t-73.5 51t-48 78t-17.5 99t17 99.5t48 78t73 51t93 18.5q49 0 90.5 -18t71.5 -51t47 -77.5t17 -97.5v-1h-447v-3q0 -52 16.5 -95t46.5 -74t71 -48.5t89 -17.5q64 0 115 32t78 89l10 -3q-29 -60 -82.5 -94t-120.5 -34zM499 247q-2 49 -18.5 90.5
t-45 71.5t-67.5 47t-85 17q-47 0 -87 -17t-69 -47t-46.5 -71.5t-18.5 -90.5h437zM283 594q42 0 72 30.5t30 82.5h10q0 -57 -32.5 -90t-79.5 -33t-79.5 33t-32.5 90h10q0 -52 30 -82.5t72 -30.5z" />
    <glyph glyph-name="Edotaccent" unicode="&#x116;" horiz-adv-x="498" 
d="M95 700h345v-10h-335v-319h305v-10h-305v-351h337v-10h-347v700zM268 838q6 0 9.5 -4t3.5 -9t-3.5 -9t-9.5 -4t-9.5 4t-3.5 9t3.5 9t9.5 4z" />
    <glyph glyph-name="edotaccent" unicode="&#x117;" horiz-adv-x="554" 
d="M285 -10q-51 0 -94 18t-73.5 51t-48 78t-17.5 99t17 99.5t48 78t73 51t93 18.5q49 0 90.5 -18t71.5 -51t47 -77.5t17 -97.5v-1h-447v-3q0 -52 16.5 -95t46.5 -74t71 -48.5t89 -17.5q64 0 115 32t78 89l10 -3q-29 -60 -82.5 -94t-120.5 -34zM499 247q-2 49 -18.5 90.5
t-45 71.5t-67.5 47t-85 17q-47 0 -87 -17t-69 -47t-46.5 -71.5t-18.5 -90.5h437zM283 653q6 0 9.5 -4t3.5 -9t-3.5 -9t-9.5 -4t-9.5 4t-3.5 9t3.5 9t9.5 4z" />
    <glyph glyph-name="Eogonek" unicode="&#x118;" horiz-adv-x="498" 
d="M95 700h345v-10h-335v-319h305v-10h-305v-351h337v-10h-27q-69 -23 -109 -56t-40 -72q0 -29 20 -45t50 -16q40 0 73 22v-11q-32 -21 -73 -21q-36 0 -58 19t-22 51q0 41 35.5 73.5t98.5 55.5h-295v700z" />
    <glyph glyph-name="eogonek" unicode="&#x119;" horiz-adv-x="554" 
d="M361 -199q-37 0 -59.5 21t-22.5 57q0 37 25 69t57 55q-37 -13 -76 -13q-51 0 -94 18.5t-73.5 51t-48 77.5t-17.5 99t17 99.5t48 78t73 51t93 18.5q49 0 90.5 -18t71.5 -51t47 -77.5t17 -97.5v-1h-447v-3q0 -51 16.5 -94.5t46.5 -74.5t71 -48.5t89 -17.5q64 0 115 32.5
t78 88.5l10 -3q-16 -32 -39 -57t-50 -42q-21 -13 -41 -29t-35 -34t-24.5 -37t-9.5 -39q0 -33 20.5 -51t52.5 -18q39 0 70 22v-11q-14 -10 -32.5 -15.5t-38.5 -5.5zM499 247q-2 49 -18.5 90.5t-45 71.5t-67.5 47t-85 17q-47 0 -87 -17t-69 -47t-46.5 -71.5t-18.5 -90.5h437z
" />
    <glyph glyph-name="Ecaron" unicode="&#x11a;" horiz-adv-x="498" 
d="M95 700h345v-10h-335v-319h305v-10h-305v-351h337v-10h-347v700zM380 889l-110 -131h-8l-110 131h12l102 -121l102 121h12z" />
    <glyph glyph-name="ecaron" unicode="&#x11b;" horiz-adv-x="554" 
d="M285 -10q-51 0 -94 18t-73.5 51t-48 78t-17.5 99t17 99.5t48 78t73 51t93 18.5q49 0 90.5 -18t71.5 -51t47 -77.5t17 -97.5v-1h-447v-3q0 -52 16.5 -95t46.5 -74t71 -48.5t89 -17.5q64 0 115 32t78 89l10 -3q-29 -60 -82.5 -94t-120.5 -34zM499 247q-2 49 -18.5 90.5
t-45 71.5t-67.5 47t-85 17q-47 0 -87 -17t-69 -47t-46.5 -71.5t-18.5 -90.5h437zM397 712l-110 -131h-8l-110 131h11l103 -122l103 122h11z" />
    <glyph glyph-name="Gcircumflex" unicode="&#x11c;" horiz-adv-x="782" 
d="M402 -10q-74 0 -136.5 28t-108.5 76.5t-72 114t-26 140.5q0 76 26 142t72 114.5t108.5 76.5t136.5 28q94 0 169.5 -43t122.5 -117l-9 -5q-46 72 -119 113.5t-164 41.5q-71 0 -132 -27t-105.5 -74.5t-70 -111.5t-25.5 -138q0 -73 25.5 -136.5t70 -111t105.5 -74.5t132 -27
q72 0 131 26t100 71.5t63.5 106.5t22.5 131h-331v10h341v-8q0 -72 -23 -135.5t-66 -110.5t-103 -74t-135 -27zM288 758l110 131h8l110 -131h-12l-102 121l-102 -121h-12z" />
    <glyph glyph-name="gcircumflex" unicode="&#x11d;" horiz-adv-x="623" 
d="M52 237q0 51 19 96t52 78t77 52.5t94 19.5q46 0 85 -15.5t69.5 -41.5t50.5 -59.5t28 -70.5v177h10v-453q0 -50 -15.5 -93.5t-46 -75t-75.5 -49.5t-104 -18q-81 0 -140 33.5t-82 91.5l8 4q24 -56 80 -88t134 -32q57 0 100 17.5t72 48t44 72t15 90.5v157q-8 -37 -28 -71
t-50.5 -60t-69.5 -41.5t-85 -15.5q-50 0 -94 19.5t-77 53t-52 78.5t-19 96zM62 237q0 -49 18 -92t49.5 -75.5t74 -51t90.5 -18.5q55 0 98.5 22t73.5 56t46 76t16 83q0 40 -16 82t-46 76.5t-73.5 56t-98.5 21.5q-48 0 -90.5 -18.5t-74 -50.5t-49.5 -75t-18 -92zM181 581
l110 131h8l110 -131h-12l-102 121l-102 -121h-12z" />
    <glyph glyph-name="Gbreve" unicode="&#x11e;" horiz-adv-x="782" 
d="M402 -10q-74 0 -136.5 28t-108.5 76.5t-72 114t-26 140.5q0 76 26 142t72 114.5t108.5 76.5t136.5 28q94 0 169.5 -43t122.5 -117l-9 -5q-46 72 -119 113.5t-164 41.5q-71 0 -132 -27t-105.5 -74.5t-70 -111.5t-25.5 -138q0 -73 25.5 -136.5t70 -111t105.5 -74.5t132 -27
q72 0 131 26t100 71.5t63.5 106.5t22.5 131h-331v10h341v-8q0 -72 -23 -135.5t-66 -110.5t-103 -74t-135 -27zM402 771q42 0 72 30.5t30 82.5h10q0 -57 -32.5 -90t-79.5 -33t-79.5 33t-32.5 90h10q0 -52 30 -82.5t72 -30.5z" />
    <glyph glyph-name="gbreve" unicode="&#x11f;" horiz-adv-x="623" 
d="M52 237q0 51 19 96t52 78t77 52.5t94 19.5q46 0 85 -15.5t69.5 -41.5t50.5 -59.5t28 -70.5v177h10v-453q0 -50 -15.5 -93.5t-46 -75t-75.5 -49.5t-104 -18q-81 0 -140 33.5t-82 91.5l8 4q24 -56 80 -88t134 -32q57 0 100 17.5t72 48t44 72t15 90.5v157q-8 -37 -28 -71
t-50.5 -60t-69.5 -41.5t-85 -15.5q-50 0 -94 19.5t-77 53t-52 78.5t-19 96zM62 237q0 -49 18 -92t49.5 -75.5t74 -51t90.5 -18.5q55 0 98.5 22t73.5 56t46 76t16 83q0 40 -16 82t-46 76.5t-73.5 56t-98.5 21.5q-48 0 -90.5 -18.5t-74 -50.5t-49.5 -75t-18 -92zM294 594
q42 0 72 30.5t30 82.5h10q0 -57 -32.5 -90t-79.5 -33t-79.5 33t-32.5 90h10q0 -52 30 -82.5t72 -30.5z" />
    <glyph glyph-name="Gdotaccent" unicode="&#x120;" horiz-adv-x="782" 
d="M402 -10q-74 0 -136.5 28t-108.5 76.5t-72 114t-26 140.5q0 76 26 142t72 114.5t108.5 76.5t136.5 28q94 0 169.5 -43t122.5 -117l-9 -5q-46 72 -119 113.5t-164 41.5q-71 0 -132 -27t-105.5 -74.5t-70 -111.5t-25.5 -138q0 -73 25.5 -136.5t70 -111t105.5 -74.5t132 -27
q72 0 131 26t100 71.5t63.5 106.5t22.5 131h-331v10h341v-8q0 -72 -23 -135.5t-66 -110.5t-103 -74t-135 -27zM402 838q6 0 9.5 -4t3.5 -9t-3.5 -9t-9.5 -4t-9.5 4t-3.5 9t3.5 9t9.5 4z" />
    <glyph glyph-name="gdotaccent" unicode="&#x121;" horiz-adv-x="623" 
d="M52 237q0 51 19 96t52 78t77 52.5t94 19.5q46 0 85 -15.5t69.5 -41.5t50.5 -59.5t28 -70.5v177h10v-453q0 -50 -15.5 -93.5t-46 -75t-75.5 -49.5t-104 -18q-81 0 -140 33.5t-82 91.5l8 4q24 -56 80 -88t134 -32q57 0 100 17.5t72 48t44 72t15 90.5v157q-8 -37 -28 -71
t-50.5 -60t-69.5 -41.5t-85 -15.5q-50 0 -94 19.5t-77 53t-52 78.5t-19 96zM62 237q0 -49 18 -92t49.5 -75.5t74 -51t90.5 -18.5q55 0 98.5 22t73.5 56t46 76t16 83q0 40 -16 82t-46 76.5t-73.5 56t-98.5 21.5q-48 0 -90.5 -18.5t-74 -50.5t-49.5 -75t-18 -92zM295 653
q6 0 9.5 -4t3.5 -9t-3.5 -9t-9.5 -4t-9.5 4t-3.5 9t3.5 9t9.5 4z" />
    <glyph glyph-name="Gcommaaccent" unicode="&#x122;" horiz-adv-x="782" 
d="M402 -10q-74 0 -136.5 28t-108.5 76.5t-72 114t-26 140.5q0 76 26 142t72 114.5t108.5 76.5t136.5 28q94 0 169.5 -43t122.5 -117l-9 -5q-46 72 -119 113.5t-164 41.5q-71 0 -132 -27t-105.5 -74.5t-70 -111.5t-25.5 -138q0 -73 25.5 -136.5t70 -111t105.5 -74.5t132 -27
q72 0 131 26t100 71.5t63.5 106.5t22.5 131h-331v10h341v-8q0 -72 -23 -135.5t-66 -110.5t-103 -74t-135 -27zM389 -75q0 6 4 10t10 4t10 -4t4 -10q0 -2 -2 -12l-26 -104h-10l25 103q-7 0 -11 3.5t-4 9.5z" />
    <glyph glyph-name="gcommaaccent" unicode="&#x123;" horiz-adv-x="623" 
d="M52 237q0 51 19 96t52 78t77 52.5t94 19.5q46 0 85 -15.5t69.5 -41.5t50.5 -59.5t28 -70.5v177h10v-453q0 -50 -15.5 -93.5t-46 -75t-75.5 -49.5t-104 -18q-81 0 -140 33.5t-82 91.5l8 4q24 -56 80 -88t134 -32q57 0 100 17.5t72 48t44 72t15 90.5v157q-8 -37 -28 -71
t-50.5 -60t-69.5 -41.5t-85 -15.5q-50 0 -94 19.5t-77 53t-52 78.5t-19 96zM62 237q0 -49 18 -92t49.5 -75.5t74 -51t90.5 -18.5q55 0 98.5 22t73.5 56t46 76t16 83q0 40 -16 82t-46 76.5t-73.5 56t-98.5 21.5q-48 0 -90.5 -18.5t-74 -50.5t-49.5 -75t-18 -92zM311 580
q0 -6 -4 -10t-10 -4t-10 4t-4 10q0 2 2 12l26 104h10l-25 -103q7 0 11 -3.5t4 -9.5z" />
    <glyph glyph-name="Hcircumflex" unicode="&#x124;" horiz-adv-x="713" 
d="M95 700h10v-330h503v330h10v-700h-10v360h-503v-360h-10v700zM242 758l110 131h8l110 -131h-12l-102 121l-102 -121h-12z" />
    <glyph glyph-name="hcircumflex" unicode="&#x125;" horiz-adv-x="578" 
d="M86 700h10v-369q7 29 24 56.5t42.5 48.5t58.5 34t71 13q46 0 83.5 -15t64.5 -42.5t42 -67t15 -87.5v-271h-10v270q0 46 -14 84t-39.5 64t-62 40.5t-80.5 14.5q-43 0 -78.5 -17t-61.5 -45t-40.5 -64t-14.5 -74v-273h-10v700zM-22 758l110 131h8l110 -131h-12l-102 121
l-102 -121h-12z" />
    <glyph glyph-name="Hbar" unicode="&#x126;" horiz-adv-x="743" 
d="M21 547h89v153h10v-153h503v153h10v-153h89v-10h-89v-537h-10v360h-503v-360h-10v537h-89v10zM623 370v167h-503v-167h503z" />
    <glyph glyph-name="hbar" unicode="&#x127;" horiz-adv-x="593" 
d="M101 585h-90v9h90v106h10v-106h243v-9h-243v-254q7 29 24 56.5t42.5 48.5t58.5 34t71 13q46 0 83.5 -15t64.5 -42.5t42 -67t15 -87.5v-271h-10v270q0 46 -14 84t-39.5 64t-62 40.5t-80.5 14.5q-43 0 -78.5 -17t-61.5 -45t-40.5 -64t-14.5 -74v-273h-10v585z" />
    <glyph glyph-name="Itilde" unicode="&#x128;" horiz-adv-x="200" 
d="M95 700h10v-700h-10v700zM162 785q-24 0 -38.5 10.5t-26.5 23.5t-25 23.5t-34 10.5q-26 0 -41 -17t-16 -48h-10q1 35 19 55t47 20q24 0 38.5 -10.5t26.5 -23.5t25 -23.5t34 -10.5q26 0 41 17t16 48h10q-1 -35 -19 -55t-47 -20z" />
    <glyph glyph-name="itilde" unicode="&#x129;" horiz-adv-x="182" 
d="M86 473h10v-473h-10v473zM153 593q-24 0 -38.5 10.5t-26.5 23.5t-25 23.5t-34 10.5q-26 0 -41 -17t-16 -48h-10q1 35 19 55t47 20q24 0 38.5 -10.5t26.5 -23.5t25 -23.5t34 -10.5q26 0 41 17t16 48h10q-1 -35 -19 -55t-47 -20z" />
    <glyph glyph-name="Imacron" unicode="&#x12a;" horiz-adv-x="200" 
d="M95 700h10v-700h-10v700zM-8 819v9h216v-9h-216z" />
    <glyph glyph-name="imacron" unicode="&#x12b;" horiz-adv-x="182" 
d="M86 473h10v-473h-10v473zM-17 619v9h216v-9h-216z" />
    <glyph glyph-name="Ibreve" unicode="&#x12c;" horiz-adv-x="200" 
d="M95 700h10v-700h-10v700zM100 771q42 0 72 30.5t30 82.5h10q0 -57 -32.5 -90t-79.5 -33t-79.5 33t-32.5 90h10q0 -52 30 -82.5t72 -30.5z" />
    <glyph glyph-name="ibreve" unicode="&#x12d;" horiz-adv-x="182" 
d="M86 473h10v-473h-10v473zM91 594q42 0 72 30.5t30 82.5h10q0 -57 -32.5 -90t-79.5 -33t-79.5 33t-32.5 90h10q0 -52 30 -82.5t72 -30.5z" />
    <glyph glyph-name="Iogonek" unicode="&#x12e;" horiz-adv-x="200" 
d="M84 -199q-35 0 -56.5 21.5t-21.5 58.5q0 35 23.5 67t65.5 56v696h10v-700q-42 -24 -65.5 -54t-23.5 -64t19.5 -52.5t49.5 -18.5q38 0 69 22v-11q-14 -10 -32 -15.5t-38 -5.5z" />
    <glyph glyph-name="iogonek" unicode="&#x12f;" horiz-adv-x="182" 
d="M96 0q-42 -24 -65.5 -54t-23.5 -64t19.5 -52.5t49.5 -18.5q38 0 69 22v-11q-14 -10 -32 -15.5t-38 -5.5q-35 0 -56.5 21.5t-21.5 58.5q0 35 23.5 67t65.5 56v469h10v-473zM91 615q-5 0 -8.5 3.5t-3.5 8.5t3.5 8.5t8.5 3.5t8.5 -3.5t3.5 -8.5t-3.5 -8.5t-8.5 -3.5z" />
    <glyph glyph-name="Idotaccent" unicode="&#x130;" horiz-adv-x="200" 
d="M95 700h10v-700h-10v700zM100 838q6 0 9.5 -4t3.5 -9t-3.5 -9t-9.5 -4t-9.5 4t-3.5 9t3.5 9t9.5 4z" />
    <glyph glyph-name="dotlessi" unicode="&#x131;" horiz-adv-x="182" 
d="M86 473h10v-473h-10v473z" />
    <glyph glyph-name="IJ" unicode="&#x132;" horiz-adv-x="671" 
d="M95 700h10v-700h-10v700zM585 207q0 -102 -51 -159.5t-142 -57.5q-63 0 -108.5 32.5t-67.5 95.5l9 4q22 -60 64.5 -91t102.5 -31q85 0 134 55t49 153v492h10v-493z" />
    <glyph glyph-name="ij" unicode="&#x133;" horiz-adv-x="373" 
d="M86 0v473h10v-473h-10zM91 615q-5 0 -8.5 3.5t-3.5 8.5t3.5 8.5t8.5 3.5t8.5 -3.5t3.5 -8.5t-3.5 -8.5t-8.5 -3.5zM287 473v-561q0 -66 -27 -97t-74 -31q-18 0 -30 2.5t-23 7.5v11q8 -5 22 -8t31 -3q41 0 66 28.5t25 89.5v561h10zM282 615q-5 0 -8.5 3.5t-3.5 8.5
t3.5 8.5t8.5 3.5t8.5 -3.5t3.5 -8.5t-3.5 -8.5t-8.5 -3.5z" />
    <glyph glyph-name="Jcircumflex" unicode="&#x134;" horiz-adv-x="486" 
d="M400 207q0 -102 -51 -159.5t-142 -57.5q-63 0 -108.5 32.5t-67.5 95.5l9 4q22 -60 64.5 -91t102.5 -31q85 0 134 55t49 153v492h10v-493zM280 758l110 131h8l110 -131h-12l-102 121l-102 -121h-12z" />
    <glyph glyph-name="jcircumflex" unicode="&#x135;" horiz-adv-x="191" 
d="M105 473v-561q0 -66 -27 -97t-74 -31q-18 0 -30 2.5t-23 7.5v11q8 -5 22 -8t31 -3q41 0 66 28.5t25 89.5v561h10zM-15 581l110 131h8l110 -131h-12l-102 121l-102 -121h-12z" />
    <glyph glyph-name="Kcommaaccent" unicode="&#x136;" horiz-adv-x="585" 
d="M105 315l419 385h13l-355 -326l374 -374h-13l-368 367l-70 -64v-303h-10v700h10v-385zM282 -75q0 6 4 10t10 4t10 -4t4 -10q0 -2 -2 -12l-26 -104h-10l25 103q-7 0 -11 3.5t-4 9.5z" />
    <glyph glyph-name="kcommaaccent" unicode="&#x137;" horiz-adv-x="452" 
d="M86 700h10v-472l280 245h14l-228 -199l261 -274h-13l-255 267l-59 -51v-216h-10v700zM226 -75q0 6 4 10t10 4t10 -4t4 -10q0 -2 -2 -12l-26 -104h-10l25 103q-7 0 -11 3.5t-4 9.5z" />
    <glyph glyph-name="kgreenlandic" unicode="&#x138;" horiz-adv-x="452" 
d="M96 473v-245l280 245h14l-228 -199l261 -274h-13l-255 267l-59 -51v-216h-10v473h10z" />
    <glyph glyph-name="Lacute" unicode="&#x139;" horiz-adv-x="407" 
d="M83 758l92 131h11l-92 -131h-11zM95 700h10v-690h268v-10h-278v700z" />
    <glyph glyph-name="lacute" unicode="&#x13a;" horiz-adv-x="182" 
d="M86 700h10v-700h-10v700zM67 758l92 131h11l-92 -131h-11z" />
    <glyph glyph-name="Lcommaaccent" unicode="&#x13b;" horiz-adv-x="407" 
d="M95 700h10v-690h268v-10h-278v700zM225 -75q0 6 4 10t10 4t10 -4t4 -10q0 -2 -2 -12l-26 -104h-10l25 103q-7 0 -11 3.5t-4 9.5z" />
    <glyph glyph-name="lcommaaccent" unicode="&#x13c;" horiz-adv-x="182" 
d="M86 700h10v-700h-10v700zM77 -75q0 6 4 10t10 4t10 -4t4 -10q0 -2 -2 -12l-26 -104h-10l25 103q-7 0 -11 3.5t-4 9.5z" />
    <glyph glyph-name="Lcaron" unicode="&#x13d;" horiz-adv-x="407" 
d="M95 700h10v-690h268v-10h-278v700zM219 554l23 155h10l-23 -155h-10z" />
    <glyph glyph-name="lcaron" unicode="&#x13e;" horiz-adv-x="182" 
d="M86 700h10v-700h-10v700zM146 554l23 155h10l-23 -155h-10z" />
    <glyph glyph-name="Ldot" unicode="&#x13f;" horiz-adv-x="407" 
d="M95 700h10v-690h268v-10h-278v700zM286 337q0 13 13 13t13 -13t-13 -13t-13 13z" />
    <glyph glyph-name="ldot" unicode="&#x140;" horiz-adv-x="228" 
d="M86 700h10v-700h-10v700zM192 337q0 13 13 13t13 -13t-13 -13t-13 13z" />
    <glyph glyph-name="Lslash" unicode="&#x141;" horiz-adv-x="422" 
d="M17 272l93 51v377h10v-372l182 99v-11l-182 -99v-307h268v-10h-278v312l-93 -51v11z" />
    <glyph glyph-name="lslash" unicode="&#x142;" horiz-adv-x="245" 
d="M17 322l101 64v314h10v-308l100 64v-11l-100 -64v-381h-10v375l-101 -64v11z" />
    <glyph glyph-name="Nacute" unicode="&#x143;" horiz-adv-x="756" 
d="M661 700v-700h-10l-546 684v-684h-10v700h10l546 -685v685h10zM373 758l92 131h11l-92 -131h-11z" />
    <glyph glyph-name="nacute" unicode="&#x144;" horiz-adv-x="578" 
d="M86 473h10v-142q7 29 24 56.5t42.5 48.5t58.5 34t71 13q46 0 83.5 -15t64.5 -42.5t42 -67t15 -87.5v-271h-10v270q0 46 -14 84t-39.5 64t-62 40.5t-80.5 14.5q-43 0 -78.5 -17t-61.5 -45t-40.5 -64t-14.5 -74v-273h-10v473zM276 581l92 131h11l-92 -131h-11z" />
    <glyph glyph-name="Ncommaaccent" unicode="&#x145;" horiz-adv-x="756" 
d="M661 700v-700h-10l-546 684v-684h-10v700h10l546 -685v685h10zM365 -75q0 6 4 10t10 4t10 -4t4 -10q0 -2 -2 -12l-26 -104h-10l25 103q-7 0 -11 3.5t-4 9.5z" />
    <glyph glyph-name="ncommaaccent" unicode="&#x146;" horiz-adv-x="578" 
d="M86 473h10v-142q7 29 24 56.5t42.5 48.5t58.5 34t71 13q46 0 83.5 -15t64.5 -42.5t42 -67t15 -87.5v-271h-10v270q0 46 -14 84t-39.5 64t-62 40.5t-80.5 14.5q-43 0 -78.5 -17t-61.5 -45t-40.5 -64t-14.5 -74v-273h-10v473zM285 -75q0 6 4 10t10 4t10 -4t4 -10
q0 -2 -2 -12l-26 -104h-10l25 103q-7 0 -11 3.5t-4 9.5z" />
    <glyph glyph-name="Ncaron" unicode="&#x147;" horiz-adv-x="756" 
d="M661 700v-700h-10l-546 684v-684h-10v700h10l546 -685v685h10zM502 889l-110 -131h-8l-110 131h12l102 -121l102 121h12z" />
    <glyph glyph-name="ncaron" unicode="&#x148;" horiz-adv-x="578" 
d="M86 473h10v-142q7 29 24 56.5t42.5 48.5t58.5 34t71 13q46 0 83.5 -15t64.5 -42.5t42 -67t15 -87.5v-271h-10v270q0 46 -14 84t-39.5 64t-62 40.5t-80.5 14.5q-43 0 -78.5 -17t-61.5 -45t-40.5 -64t-14.5 -74v-273h-10v473zM403 712l-110 -131h-8l-110 131h11l103 -122
l103 122h11z" />
    <glyph glyph-name="Eng" unicode="&#x14a;" horiz-adv-x="756" 
d="M661 700v-731q0 -185 -145 -185q-39 0 -73.5 19t-55.5 48l8 6q21 -28 52 -45.5t69 -17.5q135 0 135 175v31l-546 684v-684h-10v700h10l546 -685v685h10z" />
    <glyph glyph-name="eng" unicode="&#x14b;" horiz-adv-x="578" 
d="M86 473h10v-142q7 29 24 56.5t42.5 48.5t58.5 34t71 13q46 0 83.5 -15t64.5 -42.5t42 -67t15 -87.5v-359q0 -66 -27.5 -97t-72.5 -31q-17 0 -29.5 2.5t-23.5 7.5v11q8 -5 22 -8t31 -3q40 0 65 28.5t25 89.5v358q0 46 -14 84t-39.5 64t-62 40.5t-80.5 14.5
q-43 0 -78.5 -17t-61.5 -45t-40.5 -64t-14.5 -74v-273h-10v473z" />
    <glyph glyph-name="Omacron" unicode="&#x14c;" horiz-adv-x="822" 
d="M763 350q0 -75 -28 -140.5t-76 -114t-112 -77t-136 -28.5t-136 28.5t-112 77t-76 114t-28 140.5t28 140.5t76 114t112 77t136 28.5t136 -28.5t112 -77t76 -114t28 -140.5zM753 350q0 72 -27 136t-73.5 111.5t-109 75t-132.5 27.5t-132.5 -27.5t-109 -75t-73.5 -111.5
t-27 -136t27 -136t73.5 -111.5t109 -75t132.5 -27.5t132.5 27.5t109 75t73.5 111.5t27 136zM303 819v9h216v-9h-216z" />
    <glyph glyph-name="omacron" unicode="&#x14d;" horiz-adv-x="588" 
d="M536 237q0 -51 -19 -96t-52 -78.5t-77 -53t-94 -19.5t-94 19.5t-77 53t-52 78.5t-19 96t19 95.5t52 78t77 53t94 19.5t94 -19.5t77 -53t52 -78t19 -95.5zM526 237q0 49 -18 92t-49.5 75t-74 50.5t-90.5 18.5t-90.5 -18.5t-74 -50.5t-49.5 -75t-18 -92t18 -92t49.5 -75.5
t74 -51t90.5 -18.5t90.5 18.5t74 51t49.5 75.5t18 92zM186 619v9h216v-9h-216z" />
    <glyph glyph-name="Obreve" unicode="&#x14e;" horiz-adv-x="822" 
d="M763 350q0 -75 -28 -140.5t-76 -114t-112 -77t-136 -28.5t-136 28.5t-112 77t-76 114t-28 140.5t28 140.5t76 114t112 77t136 28.5t136 -28.5t112 -77t76 -114t28 -140.5zM753 350q0 72 -27 136t-73.5 111.5t-109 75t-132.5 27.5t-132.5 -27.5t-109 -75t-73.5 -111.5
t-27 -136t27 -136t73.5 -111.5t109 -75t132.5 -27.5t132.5 27.5t109 75t73.5 111.5t27 136zM411 771q42 0 72 30.5t30 82.5h10q0 -57 -32.5 -90t-79.5 -33t-79.5 33t-32.5 90h10q0 -52 30 -82.5t72 -30.5z" />
    <glyph glyph-name="obreve" unicode="&#x14f;" horiz-adv-x="588" 
d="M536 237q0 -51 -19 -96t-52 -78.5t-77 -53t-94 -19.5t-94 19.5t-77 53t-52 78.5t-19 96t19 95.5t52 78t77 53t94 19.5t94 -19.5t77 -53t52 -78t19 -95.5zM526 237q0 49 -18 92t-49.5 75t-74 50.5t-90.5 18.5t-90.5 -18.5t-74 -50.5t-49.5 -75t-18 -92t18 -92t49.5 -75.5
t74 -51t90.5 -18.5t90.5 18.5t74 51t49.5 75.5t18 92zM294 594q42 0 72 30.5t30 82.5h10q0 -57 -32.5 -90t-79.5 -33t-79.5 33t-32.5 90h10q0 -52 30 -82.5t72 -30.5z" />
    <glyph glyph-name="Ohungarumlaut" unicode="&#x150;" horiz-adv-x="822" 
d="M763 350q0 -75 -28 -140.5t-76 -114t-112 -77t-136 -28.5t-136 28.5t-112 77t-76 114t-28 140.5t28 140.5t76 114t112 77t136 28.5t136 -28.5t112 -77t76 -114t28 -140.5zM753 350q0 72 -27 136t-73.5 111.5t-109 75t-132.5 27.5t-132.5 -27.5t-109 -75t-73.5 -111.5
t-27 -136t27 -136t73.5 -111.5t109 -75t132.5 -27.5t132.5 27.5t109 75t73.5 111.5t27 136zM336 758l84 131h11l-84 -131h-11zM465 758l84 131h11l-84 -131h-11z" />
    <glyph glyph-name="ohungarumlaut" unicode="&#x151;" horiz-adv-x="588" 
d="M536 237q0 -51 -19 -96t-52 -78.5t-77 -53t-94 -19.5t-94 19.5t-77 53t-52 78.5t-19 96t19 95.5t52 78t77 53t94 19.5t94 -19.5t77 -53t52 -78t19 -95.5zM526 237q0 49 -18 92t-49.5 75t-74 50.5t-90.5 18.5t-90.5 -18.5t-74 -50.5t-49.5 -75t-18 -92t18 -92t49.5 -75.5
t74 -51t90.5 -18.5t90.5 18.5t74 51t49.5 75.5t18 92zM233 581l84 131h11l-84 -131h-11zM362 581l84 131h11l-84 -131h-11z" />
    <glyph glyph-name="OE" unicode="&#x152;" horiz-adv-x="967" 
d="M402 0q-73 0 -135.5 26.5t-108.5 73.5t-72.5 111t-26.5 139t26.5 139t72.5 111t108.5 73.5t135.5 26.5h507v-10h-335v-319h305v-10h-305v-351h337v-10h-509zM69 350q0 -72 25.5 -134.5t70.5 -108t106 -71.5t131 -26h162v680h-162q-70 0 -131 -26t-106 -71.5t-70.5 -108
t-25.5 -134.5z" />
    <glyph glyph-name="oe" unicode="&#x153;" horiz-adv-x="1019" 
d="M289 483q43 0 81.5 -14.5t69.5 -40.5t52 -61.5t30 -77.5q7 43 27 79t49.5 61.5t67.5 39.5t82 14q49 0 90.5 -18t71.5 -51t47 -78t17 -98h-447v-3q0 -52 16.5 -95t46.5 -74t71 -48.5t89 -17.5q64 0 115 32t78 89l10 -3q-29 -60 -82.5 -94t-120.5 -34q-45 0 -83 14
t-68 39.5t-50 61.5t-28 80q-9 -42 -30 -77.5t-51.5 -62t-69 -41t-81.5 -14.5q-49 0 -92 19.5t-75.5 53t-51 78.5t-18.5 96t18.5 96t51 78t75.5 52.5t92 19.5zM289 473q-47 0 -88.5 -18.5t-72 -50.5t-48.5 -75t-18 -92t18 -92t48.5 -75.5t72 -51t88.5 -18.5t88.5 18.5
t72.5 51t49 75.5t18 92t-18 92t-49 75t-72.5 50.5t-88.5 18.5zM964 247q-2 49 -18.5 90.5t-45 71.5t-67.5 47t-85 17q-47 0 -87 -17t-69 -47t-46.5 -71.5t-18.5 -90.5h437z" />
    <glyph glyph-name="Racute" unicode="&#x154;" horiz-adv-x="537" 
d="M105 0h-10v700h153q47 0 86 -12t67 -34.5t43.5 -55.5t15.5 -75q0 -43 -15.5 -76.5t-43.5 -57t-67 -35.5t-86 -12h-12l259 -342h-12l-259 342h-119v-342zM105 352h142q46 0 83.5 12t64 34t41 53.5t14.5 71.5q0 39 -14.5 70t-41.5 52.5t-64.5 33t-82.5 11.5h-142v-338z
M224 758l92 131h11l-92 -131h-11z" />
    <glyph glyph-name="racute" unicode="&#x155;" horiz-adv-x="317" 
d="M86 473h10v-156q7 33 23.5 62.5t41.5 52t56 36t67 13.5h11v-9h-11q-39 0 -73 -17t-59.5 -46.5t-40.5 -70t-15 -88.5v-250h-10v473zM148 581l92 131h11l-92 -131h-11z" />
    <glyph glyph-name="Rcommaaccent" unicode="&#x156;" horiz-adv-x="537" 
d="M105 0h-10v700h153q47 0 86 -12t67 -34.5t43.5 -55.5t15.5 -75q0 -43 -15.5 -76.5t-43.5 -57t-67 -35.5t-86 -12h-12l259 -342h-12l-259 342h-119v-342zM105 352h142q46 0 83.5 12t64 34t41 53.5t14.5 71.5q0 39 -14.5 70t-41.5 52.5t-64.5 33t-82.5 11.5h-142v-338z
M263 -75q0 6 4 10t10 4t10 -4t4 -10q0 -2 -2 -12l-26 -104h-10l25 103q-7 0 -11 3.5t-4 9.5z" />
    <glyph glyph-name="rcommaaccent" unicode="&#x157;" horiz-adv-x="317" 
d="M86 473h10v-156q7 33 23.5 62.5t41.5 52t56 36t67 13.5h11v-9h-11q-39 0 -73 -17t-59.5 -46.5t-40.5 -70t-15 -88.5v-250h-10v473zM77 -75q0 6 4 10t10 4t10 -4t4 -10q0 -2 -2 -12l-26 -104h-10l25 103q-7 0 -11 3.5t-4 9.5z" />
    <glyph glyph-name="Rcaron" unicode="&#x158;" horiz-adv-x="537" 
d="M105 0h-10v700h153q47 0 86 -12t67 -34.5t43.5 -55.5t15.5 -75q0 -43 -15.5 -76.5t-43.5 -57t-67 -35.5t-86 -12h-12l259 -342h-12l-259 342h-119v-342zM105 352h142q46 0 83.5 12t64 34t41 53.5t14.5 71.5q0 39 -14.5 70t-41.5 52.5t-64.5 33t-82.5 11.5h-142v-338z
M363 889l-110 -131h-8l-110 131h12l102 -121l102 121h12z" />
    <glyph glyph-name="rcaron" unicode="&#x159;" horiz-adv-x="317" 
d="M86 473h10v-156q7 33 23.5 62.5t41.5 52t56 36t67 13.5h11v-9h-11q-39 0 -73 -17t-59.5 -46.5t-40.5 -70t-15 -88.5v-250h-10v473zM302 712l-110 -131h-8l-110 131h11l103 -122l103 122h11z" />
    <glyph glyph-name="Sacute" unicode="&#x15a;" horiz-adv-x="503" 
d="M220 758l92 131h11l-92 -131h-11zM254 -10q-41 0 -75 12.5t-61 34.5t-45 53t-27 68l9 3q18 -72 70.5 -116.5t128.5 -44.5q40 0 75 12.5t60 35.5t39 54.5t14 71.5q0 57 -33.5 96.5t-95.5 65.5l-121 52q-58 25 -89.5 65t-31.5 99q0 35 13 64t36.5 50t56 32.5t71.5 11.5
q35 0 64.5 -11t53 -30.5t39.5 -45.5t23 -56l-10 -2q-7 28 -22 53t-37 43t-50 28.5t-61 10.5q-37 0 -68 -11t-53 -30.5t-34 -46.5t-12 -60q0 -53 30 -92t84 -62l121 -52q64 -27 100 -68.5t36 -103.5q0 -42 -15 -76t-41.5 -58t-63 -37t-78.5 -13z" />
    <glyph glyph-name="sacute" unicode="&#x15b;" horiz-adv-x="373" 
d="M153 581l92 131h11l-92 -131h-11zM56 111q6 -23 16.5 -43t27 -35t39.5 -24t52 -9q26 0 49.5 8.5t40.5 23.5t27 36.5t10 47.5q0 43 -27 70t-72 44l-62 25q-42 17 -68.5 45.5t-26.5 73.5q0 49 34.5 79t87.5 30q30 0 52.5 -9.5t37.5 -24t24.5 -32t14.5 -36.5l-9 -3
q-5 17 -14 34t-23 30.5t-34.5 22t-48.5 8.5q-48 0 -80 -27.5t-32 -71.5q0 -41 24 -67t63 -42l61 -25q23 -9 43 -20.5t34.5 -26t22.5 -33.5t8 -44q0 -55 -38.5 -90.5t-97.5 -35.5q-33 0 -58 9.5t-42.5 26.5t-28.5 38t-16 44z" />
    <glyph glyph-name="Scircumflex" unicode="&#x15c;" horiz-adv-x="503" 
d="M129 758l110 131h8l110 -131h-12l-102 121l-102 -121h-12zM254 -10q-41 0 -75 12.5t-61 34.5t-45 53t-27 68l9 3q18 -72 70.5 -116.5t128.5 -44.5q40 0 75 12.5t60 35.5t39 54.5t14 71.5q0 57 -33.5 96.5t-95.5 65.5l-121 52q-58 25 -89.5 65t-31.5 99q0 35 13 64
t36.5 50t56 32.5t71.5 11.5q35 0 64.5 -11t53 -30.5t39.5 -45.5t23 -56l-10 -2q-7 28 -22 53t-37 43t-50 28.5t-61 10.5q-37 0 -68 -11t-53 -30.5t-34 -46.5t-12 -60q0 -53 30 -92t84 -62l121 -52q64 -27 100 -68.5t36 -103.5q0 -42 -15 -76t-41.5 -58t-63 -37t-78.5 -13z
" />
    <glyph glyph-name="scircumflex" unicode="&#x15d;" horiz-adv-x="373" 
d="M70 581l110 131h8l110 -131h-12l-102 121l-102 -121h-12zM56 111q6 -23 16.5 -43t27 -35t39.5 -24t52 -9q26 0 49.5 8.5t40.5 23.5t27 36.5t10 47.5q0 43 -27 70t-72 44l-62 25q-42 17 -68.5 45.5t-26.5 73.5q0 49 34.5 79t87.5 30q30 0 52.5 -9.5t37.5 -24t24.5 -32
t14.5 -36.5l-9 -3q-5 17 -14 34t-23 30.5t-34.5 22t-48.5 8.5q-48 0 -80 -27.5t-32 -71.5q0 -41 24 -67t63 -42l61 -25q23 -9 43 -20.5t34.5 -26t22.5 -33.5t8 -44q0 -55 -38.5 -90.5t-97.5 -35.5q-33 0 -58 9.5t-42.5 26.5t-28.5 38t-16 44z" />
    <glyph glyph-name="Scedilla" unicode="&#x15e;" horiz-adv-x="503" 
d="M266 -64q29 0 50.5 -21t21.5 -51t-22 -51t-53 -21q-30 0 -51 18.5t-25 44.5h10q3 -22 21.5 -37.5t44.5 -15.5q27 0 46 18t19 44t-18 44t-44 18q-32 0 -54 -24l-8 4l44 84q-38 1 -70.5 13t-59.5 34t-45 53t-27 68l9 3q18 -72 70.5 -116.5t128.5 -44.5q40 0 75 12.5
t60 35.5t39 54.5t14 71.5q0 57 -33.5 96.5t-95.5 65.5l-121 52q-58 25 -89.5 65t-31.5 99q0 35 13 64t36.5 50t56 32.5t71.5 11.5q35 0 64.5 -11t53 -30.5t39.5 -45.5t23 -56l-10 -2q-7 28 -22 53t-37 43t-50 28.5t-61 10.5q-37 0 -68 -11t-53 -30.5t-34 -46.5t-12 -60
q0 -53 30 -92t84 -62l121 -52q64 -27 100 -68.5t36 -103.5q0 -42 -15 -76t-41.5 -58t-63.5 -37q-34 -12 -74 -13l-38 -71q18 17 46 17z" />
    <glyph glyph-name="scedilla" unicode="&#x15f;" horiz-adv-x="373" 
d="M56 111q6 -23 16.5 -43t27 -35t39.5 -24t52 -9q26 0 49.5 8.5t40.5 23.5t27 36.5t10 47.5q0 43 -27 70t-72 44l-62 25q-42 17 -68.5 45.5t-26.5 73.5q0 49 34.5 79t87.5 30q30 0 52.5 -9.5t37.5 -24t24.5 -32t14.5 -36.5l-9 -3q-5 17 -14 34t-23 30.5t-34.5 22t-48.5 8.5
q-48 0 -80 -27.5t-32 -71.5q0 -41 24 -67t63 -42l61 -25q23 -9 43 -20.5t34.5 -26t22.5 -33.5t8 -44q0 -55 -38.5 -90.5t-97.5 -35.5h-8l-38 -71q18 17 46 17q29 0 50.5 -21t21.5 -51t-22 -51t-53 -21q-30 0 -51 18.5t-25 44.5h10q3 -22 21.5 -37.5t44.5 -15.5q27 0 46 18
t19 44t-18 44t-44 18q-32 0 -54 -24l-8 4l44 85q-22 2 -40 9q-25 9 -42.5 26t-28.5 38t-16 44z" />
    <glyph glyph-name="Scaron" unicode="&#x160;" horiz-adv-x="503" 
d="M358 889l-110 -131h-8l-110 131h12l102 -121l102 121h12zM254 -10q-41 0 -75 12.5t-61 34.5t-45 53t-27 68l9 3q18 -72 70.5 -116.5t128.5 -44.5q40 0 75 12.5t60 35.5t39 54.5t14 71.5q0 57 -33.5 96.5t-95.5 65.5l-121 52q-58 25 -89.5 65t-31.5 99q0 35 13 64t36.5 50
t56 32.5t71.5 11.5q35 0 64.5 -11t53 -30.5t39.5 -45.5t23 -56l-10 -2q-7 28 -22 53t-37 43t-50 28.5t-61 10.5q-37 0 -68 -11t-53 -30.5t-34 -46.5t-12 -60q0 -53 30 -92t84 -62l121 -52q64 -27 100 -68.5t36 -103.5q0 -42 -15 -76t-41.5 -58t-63 -37t-78.5 -13z" />
    <glyph glyph-name="scaron" unicode="&#x161;" horiz-adv-x="373" 
d="M295 712l-110 -131h-8l-110 131h11l103 -122l103 122h11zM56 111q6 -23 16.5 -43t27 -35t39.5 -24t52 -9q26 0 49.5 8.5t40.5 23.5t27 36.5t10 47.5q0 43 -27 70t-72 44l-62 25q-42 17 -68.5 45.5t-26.5 73.5q0 49 34.5 79t87.5 30q30 0 52.5 -9.5t37.5 -24t24.5 -32
t14.5 -36.5l-9 -3q-5 17 -14 34t-23 30.5t-34.5 22t-48.5 8.5q-48 0 -80 -27.5t-32 -71.5q0 -41 24 -67t63 -42l61 -25q23 -9 43 -20.5t34.5 -26t22.5 -33.5t8 -44q0 -55 -38.5 -90.5t-97.5 -35.5q-33 0 -58 9.5t-42.5 26.5t-28.5 38t-16 44z" />
    <glyph glyph-name="Tcommaaccent" unicode="&#x162;" horiz-adv-x="516" 
d="M253 690h-230v10h470v-10h-230v-690h-10v690zM244 -75q0 6 4 10t10 4t10 -4t4 -10q0 -2 -2 -12l-26 -104h-10l25 103q-7 0 -11 3.5t-4 9.5z" />
    <glyph glyph-name="tcommaaccent" unicode="&#x163;" horiz-adv-x="291" 
d="M261 3q-6 -3 -22.5 -8t-36.5 -5q-45 0 -72 29t-27 89v356h-80v9h80v149h10v-149h144v-9h-144v-355q0 -56 24.5 -82.5t64.5 -26.5q19 0 33 4t26 10v-11zM153 -75q0 6 4 10t10 4t10 -4t4 -10q0 -2 -2 -12l-26 -104h-10l25 103q-7 0 -11 3.5t-4 9.5z" />
    <glyph glyph-name="Tcaron" unicode="&#x164;" horiz-adv-x="516" 
d="M253 690h-230v10h470v-10h-230v-690h-10v690zM372 889l-110 -131h-8l-110 131h12l102 -121l102 121h12z" />
    <glyph glyph-name="tcaron" unicode="&#x165;" horiz-adv-x="291" 
d="M261 3q-6 -3 -22.5 -8t-36.5 -5q-45 0 -72 29t-27 89v356h-80v9h80v149h10v-149h144v-9h-144v-355q0 -56 24.5 -82.5t64.5 -26.5q19 0 33 4t26 10v-11zM200 554l23 155h10l-23 -155h-10z" />
    <glyph glyph-name="Tbar" unicode="&#x166;" horiz-adv-x="516" 
d="M102 357h151v333h-230v10h470v-10h-230v-333h151v-10h-151v-347h-10v347h-151v10z" />
    <glyph glyph-name="tbar" unicode="&#x167;" horiz-adv-x="291" 
d="M23 267h80v197h-80v9h80v149h10v-149h144v-9h-144v-197h144v-9h-144v-149q0 -56 24.5 -82.5t64.5 -26.5q19 0 33 4t26 10v-11q-6 -3 -22.5 -8t-36.5 -5q-45 0 -72 29t-27 89v150h-80v9z" />
    <glyph glyph-name="Utilde" unicode="&#x168;" horiz-adv-x="690" 
d="M345 -10q-63 0 -111.5 21t-81 59.5t-49.5 92t-17 118.5v419h10v-418q0 -63 16.5 -114.5t48 -89t78 -58t106.5 -20.5t106.5 20.5t78 58t48 89t16.5 114.5v418h10v-419q0 -65 -17 -118.5t-49.5 -92t-81 -59.5t-111.5 -21zM408 785q-24 0 -38.5 10.5t-26.5 23.5t-25 23.5
t-34 10.5q-26 0 -41 -17t-16 -48h-10q1 35 19 55t47 20q24 0 38.5 -10.5t26.5 -23.5t25 -23.5t34 -10.5q26 0 41 17t16 48h10q-1 -35 -19 -55t-47 -20z" />
    <glyph glyph-name="utilde" unicode="&#x169;" horiz-adv-x="576" 
d="M490 0h-10v142q-7 -29 -24 -56.5t-42.5 -48.5t-58 -34t-70.5 -13q-45 0 -82.5 15t-64.5 42.5t-42 67t-15 87.5v271h10v-270q0 -47 14 -84.5t39.5 -63.5t61.5 -40.5t80 -14.5q42 0 78 17t61.5 45t40 64t14.5 74v273h10v-473zM349 593q-24 0 -38.5 10.5t-26.5 23.5
t-25 23.5t-34 10.5q-26 0 -41 -17t-16 -48h-10q1 35 19 55t47 20q24 0 38.5 -10.5t26.5 -23.5t25 -23.5t34 -10.5q26 0 41 17t16 48h10q-1 -35 -19 -55t-47 -20z" />
    <glyph glyph-name="Umacron" unicode="&#x16a;" horiz-adv-x="690" 
d="M345 -10q-63 0 -111.5 21t-81 59.5t-49.5 92t-17 118.5v419h10v-418q0 -63 16.5 -114.5t48 -89t78 -58t106.5 -20.5t106.5 20.5t78 58t48 89t16.5 114.5v418h10v-419q0 -65 -17 -118.5t-49.5 -92t-81 -59.5t-111.5 -21zM237 819v9h216v-9h-216z" />
    <glyph glyph-name="umacron" unicode="&#x16b;" horiz-adv-x="576" 
d="M490 0h-10v142q-7 -29 -24 -56.5t-42.5 -48.5t-58 -34t-70.5 -13q-45 0 -82.5 15t-64.5 42.5t-42 67t-15 87.5v271h10v-270q0 -47 14 -84.5t39.5 -63.5t61.5 -40.5t80 -14.5q42 0 78 17t61.5 45t40 64t14.5 74v273h10v-473zM176 619v9h216v-9h-216z" />
    <glyph glyph-name="Ubreve" unicode="&#x16c;" horiz-adv-x="690" 
d="M345 -10q-63 0 -111.5 21t-81 59.5t-49.5 92t-17 118.5v419h10v-418q0 -63 16.5 -114.5t48 -89t78 -58t106.5 -20.5t106.5 20.5t78 58t48 89t16.5 114.5v418h10v-419q0 -65 -17 -118.5t-49.5 -92t-81 -59.5t-111.5 -21zM345 771q42 0 72 30.5t30 82.5h10q0 -57 -32.5 -90
t-79.5 -33t-79.5 33t-32.5 90h10q0 -52 30 -82.5t72 -30.5z" />
    <glyph glyph-name="ubreve" unicode="&#x16d;" horiz-adv-x="576" 
d="M490 0h-10v142q-7 -29 -24 -56.5t-42.5 -48.5t-58 -34t-70.5 -13q-45 0 -82.5 15t-64.5 42.5t-42 67t-15 87.5v271h10v-270q0 -47 14 -84.5t39.5 -63.5t61.5 -40.5t80 -14.5q42 0 78 17t61.5 45t40 64t14.5 74v273h10v-473zM286 594q42 0 72 30.5t30 82.5h10
q0 -57 -32.5 -90t-79.5 -33t-79.5 33t-32.5 90h10q0 -52 30 -82.5t72 -30.5z" />
    <glyph glyph-name="Uring" unicode="&#x16e;" horiz-adv-x="690" 
d="M345 -10q-63 0 -111.5 21t-81 59.5t-49.5 92t-17 118.5v419h10v-418q0 -63 16.5 -114.5t48 -89t78 -58t106.5 -20.5t106.5 20.5t78 58t48 89t16.5 114.5v418h10v-419q0 -65 -17 -118.5t-49.5 -92t-81 -59.5t-111.5 -21zM426 823q0 -33 -24 -56t-57 -23t-57 23t-24 56
t24 56t57 23t57 -23t24 -56zM416 823q0 28 -21.5 48.5t-49.5 20.5t-49.5 -20.5t-21.5 -48.5t21.5 -48.5t49.5 -20.5t49.5 20.5t21.5 48.5z" />
    <glyph glyph-name="uring" unicode="&#x16f;" horiz-adv-x="576" 
d="M490 0h-10v142q-7 -29 -24 -56.5t-42.5 -48.5t-58 -34t-70.5 -13q-45 0 -82.5 15t-64.5 42.5t-42 67t-15 87.5v271h10v-270q0 -47 14 -84.5t39.5 -63.5t61.5 -40.5t80 -14.5q42 0 78 17t61.5 45t40 64t14.5 74v273h10v-473zM365 646q0 -33 -24 -56t-57 -23t-57 23t-24 56
t24 56t57 23t57 -23t24 -56zM355 646q0 28 -21.5 48.5t-49.5 20.5t-49.5 -20.5t-21.5 -48.5t21.5 -48.5t49.5 -20.5t49.5 20.5t21.5 48.5z" />
    <glyph glyph-name="Uhungarumlaut" unicode="&#x170;" horiz-adv-x="690" 
d="M345 -10q-63 0 -111.5 21t-81 59.5t-49.5 92t-17 118.5v419h10v-418q0 -63 16.5 -114.5t48 -89t78 -58t106.5 -20.5t106.5 20.5t78 58t48 89t16.5 114.5v418h10v-419q0 -65 -17 -118.5t-49.5 -92t-81 -59.5t-111.5 -21zM270 758l84 131h11l-84 -131h-11zM399 758l84 131
h11l-84 -131h-11z" />
    <glyph glyph-name="uhungarumlaut" unicode="&#x171;" horiz-adv-x="576" 
d="M490 0h-10v142q-7 -29 -24 -56.5t-42.5 -48.5t-58 -34t-70.5 -13q-45 0 -82.5 15t-64.5 42.5t-42 67t-15 87.5v271h10v-270q0 -47 14 -84.5t39.5 -63.5t61.5 -40.5t80 -14.5q42 0 78 17t61.5 45t40 64t14.5 74v273h10v-473zM209 581l84 131h11l-84 -131h-11zM338 581
l84 131h11l-84 -131h-11z" />
    <glyph glyph-name="Uogonek" unicode="&#x172;" horiz-adv-x="690" 
d="M385 -199q-36 0 -58 19t-22 51q0 36 27 68.5t70 55.5q-14 -2 -28 -3.5t-29 -1.5q-63 0 -111.5 21t-81 59.5t-49.5 92t-17 118.5v419h10v-418q0 -63 16.5 -114.5t48 -89t78 -58t106.5 -20.5t106.5 20.5t78 58t48 89t16.5 114.5v418h10v-419q0 -102 -39.5 -172.5
t-117.5 -101.5q-58 -23 -95 -60t-37 -75q0 -29 20 -45t50 -16q40 0 73 22v-11q-32 -21 -73 -21z" />
    <glyph glyph-name="uogonek" unicode="&#x173;" horiz-adv-x="576" 
d="M490 0q-69 -23 -109 -56t-40 -72q0 -29 20 -45t50 -16q40 0 73 22v-11q-32 -21 -73 -21q-36 0 -58 19t-22 51q0 43 40 77t109 57v137q-7 -29 -24 -56.5t-42.5 -48.5t-58 -34t-70.5 -13q-45 0 -82.5 15t-64.5 42.5t-42 67t-15 87.5v271h10v-270q0 -47 14 -84.5t39.5 -63.5
t61.5 -40.5t80 -14.5q42 0 78 17t61.5 45t40 64t14.5 74v273h10v-473z" />
    <glyph glyph-name="Wcircumflex" unicode="&#x174;" horiz-adv-x="1011" 
d="M39 700h11l227 -684l224 684h10l223 -684l227 684h11l-233 -700h-10l-223 682l-224 -682h-10zM392 758l110 131h8l110 -131h-12l-102 121l-102 -121h-12z" />
    <glyph glyph-name="wcircumflex" unicode="&#x175;" horiz-adv-x="804" 
d="M576 0l-174 458l-174 -458h-12l-179 473h11l174 -462l175 462h10l175 -462l174 462h11l-179 -473h-12zM287 581l110 131h8l110 -131h-12l-102 121l-102 -121h-12z" />
    <glyph glyph-name="Ycircumflex" unicode="&#x176;" 
d="M295 323l-269 377h12l262 -368l262 368h12l-269 -376v-324h-10v323zM186 758l110 131h8l110 -131h-12l-102 121l-102 -121h-12z" />
    <glyph glyph-name="ycircumflex" unicode="&#x177;" horiz-adv-x="478" 
d="M88 -216q-22 0 -40 8v10q8 -4 18 -6.5t22 -2.5q38 0 61.5 25t45.5 78l45 108l-206 469h11l200 -456l188 456h11l-239 -579q-25 -60 -51 -85t-66 -25zM125 581l110 131h8l110 -131h-12l-102 121l-102 -121h-12z" />
    <glyph glyph-name="Ydieresis" unicode="&#x178;" 
d="M295 323l-269 377h12l262 -368l262 368h12l-269 -376v-324h-10v323zM370 838q6 0 9.5 -4t3.5 -9t-3.5 -9t-9.5 -4t-9.5 4t-3.5 9t3.5 9t9.5 4zM230 838q6 0 9.5 -4t3.5 -9t-3.5 -9t-9.5 -4t-9.5 4t-3.5 9t3.5 9t9.5 4z" />
    <glyph glyph-name="Zacute" unicode="&#x179;" horiz-adv-x="592" 
d="M60 10h488v-10h-504v6l486 684h-465v10h479v-7zM293 758l92 131h11l-92 -131h-11z" />
    <glyph glyph-name="zacute" unicode="&#x17a;" horiz-adv-x="436" 
d="M54 473h343v-5l-349 -459h355v-9h-370v6l348 458h-327v9zM201 581l92 131h11l-92 -131h-11z" />
    <glyph glyph-name="Zdotaccent" unicode="&#x17b;" horiz-adv-x="592" 
d="M60 10h488v-10h-504v6l486 684h-465v10h479v-7zM315 838q6 0 9.5 -4t3.5 -9t-3.5 -9t-9.5 -4t-9.5 4t-3.5 9t3.5 9t9.5 4z" />
    <glyph glyph-name="zdotaccent" unicode="&#x17c;" horiz-adv-x="436" 
d="M54 473h343v-5l-349 -459h355v-9h-370v6l348 458h-327v9zM232 653q6 0 9.5 -4t3.5 -9t-3.5 -9t-9.5 -4t-9.5 4t-3.5 9t3.5 9t9.5 4z" />
    <glyph glyph-name="Zcaron" unicode="&#x17d;" horiz-adv-x="592" 
d="M60 10h488v-10h-504v6l486 684h-465v10h479v-7zM427 889l-110 -131h-8l-110 131h12l102 -121l102 121h12z" />
    <glyph glyph-name="zcaron" unicode="&#x17e;" horiz-adv-x="436" 
d="M54 473h343v-5l-349 -459h355v-9h-370v6l348 458h-327v9zM345 712l-110 -131h-8l-110 131h11l103 -122l103 122h11z" />
    <glyph glyph-name="florin" unicode="&#x192;" horiz-adv-x="492" 
d="M129 383h113l38 214q11 64 42.5 90.5t73.5 26.5q24 0 42.5 -5.5t30.5 -11.5v-11q-12 6 -31 12t-42 6q-41 0 -68.5 -26t-37.5 -83l-37 -212h133v-9h-135l-73 -419q-11 -64 -42.5 -90.5t-73.5 -26.5q-24 0 -42.5 5.5t-30.5 11.5v11q12 -6 31 -12t42 -6q41 0 68.5 26
t37.5 83l73 417h-112v9z" />
    <glyph glyph-name="AEacute" unicode="&#x1fc;" horiz-adv-x="903" 
d="M494 700h350v-10h-334v-319h305v-10h-305v-352l337 1v-10h-347v251h-294l-168 -251h-12zM500 261v431l-288 -431h288zM566 758l92 131h11l-92 -131h-11z" />
    <glyph glyph-name="aeacute" unicode="&#x1fd;" horiz-adv-x="906" 
d="M254 473q-62 0 -106 -32t-61 -86l-10 3q18 57 65 91t112 34q81 0 125.5 -42.5t44.5 -118.5v-9q10 38 30 69.5t48 54t63 34.5t75 12q48 0 89 -18.5t70 -51t45.5 -77t16.5 -97.5v-1h-437v-3q0 -51 16.5 -94t45.5 -74t69 -48.5t87 -17.5q63 0 112.5 32t75.5 88l10 -3
q-28 -59 -80 -93t-118 -34q-41 0 -76.5 12t-64 34.5t-48.5 54t-30 70.5q-4 -36 -21 -67.5t-45 -55t-64 -36.5t-78 -13q-35 0 -63.5 9.5t-49 26.5t-32 40t-11.5 51q0 128 163 143l192 18v44q0 72 -41.5 111.5t-118.5 39.5zM851 247q-2 49 -18 90.5t-43.5 71.5t-66 47
t-83.5 17q-46 0 -85 -17t-67.5 -47t-45.5 -71.5t-18 -90.5h427zM69 117q0 -25 11 -46.5t30.5 -37t46 -24.5t58.5 -9q42 0 78.5 14.5t63 39t42 57.5t15.5 70v88l-192 -18q-78 -8 -115.5 -42.5t-37.5 -91.5zM458 581l92 131h11l-92 -131h-11z" />
    <glyph glyph-name="Oslashacute" unicode="&#x1fe;" horiz-adv-x="822" 
d="M70 -6l94 100q-49 49 -77 114.5t-28 141.5q0 75 28 140.5t76 114t112 77t136 28.5q69 0 130.5 -26t109.5 -72l94 101l7 -7l-94 -100q48 -49 76.5 -115t28.5 -141t-28 -140.5t-76 -114t-112 -77t-136 -28.5q-70 0 -131 26t-109 71l-94 -100zM753 350q0 73 -27.5 136.5
t-74.5 111.5l-473 -503q46 -45 105.5 -70t127.5 -25q70 0 132.5 27.5t109 75t73.5 111.5t27 136zM69 350q0 -73 27 -137t75 -112l473 504q-47 45 -106.5 70t-126.5 25q-70 0 -132.5 -27.5t-109 -75t-73.5 -111.5t-27 -136zM397 758l92 131h11l-92 -131h-11z" />
    <glyph glyph-name="oslashacute" unicode="&#x1ff;" horiz-adv-x="588" 
d="M270 581l92 131h11l-92 -131h-11zM60 -7l64 69q-33 33 -52.5 78t-19.5 97q0 51 19 95.5t52 78t77 53t94 19.5q47 0 88.5 -17.5t73.5 -46.5l63 67l7 -6l-63 -68q34 -34 53.5 -79t19.5 -96t-19 -95.5t-52 -78t-77 -53t-94 -19.5q-48 0 -89.5 17t-73.5 47l-64 -68zM526 237
q0 50 -18.5 93t-50.5 75l-320 -343q31 -29 71 -45t86 -16q48 0 90.5 18.5t74 50.5t49.5 75t18 92zM62 237q0 -50 18.5 -93t50.5 -75l319 343q-31 29 -71 45t-85 16q-48 0 -90.5 -18.5t-74 -50.5t-49.5 -75t-18 -92z" />
    <glyph glyph-name="Scommaaccent" unicode="&#x218;" horiz-adv-x="503" 
d="M245 -75q0 6 4 10t10 4t10 -4t4 -10q0 -2 -2 -12l-26 -104h-10l25 103q-7 0 -11 3.5t-4 9.5zM254 -10q-41 0 -75 12.5t-61 34.5t-45 53t-27 68l9 3q18 -72 70.5 -116.5t128.5 -44.5q40 0 75 12.5t60 35.5t39 54.5t14 71.5q0 57 -33.5 96.5t-95.5 65.5l-121 52
q-58 25 -89.5 65t-31.5 99q0 35 13 64t36.5 50t56 32.5t71.5 11.5q35 0 64.5 -11t53 -30.5t39.5 -45.5t23 -56l-10 -2q-7 28 -22 53t-37 43t-50 28.5t-61 10.5q-37 0 -68 -11t-53 -30.5t-34 -46.5t-12 -60q0 -53 30 -92t84 -62l121 -52q64 -27 100 -68.5t36 -103.5
q0 -42 -15 -76t-41.5 -58t-63 -37t-78.5 -13z" />
    <glyph glyph-name="scommaaccent" unicode="&#x219;" horiz-adv-x="373" 
d="M180 -75q0 6 4 10t10 4t10 -4t4 -10q0 -2 -2 -12l-26 -104h-10l25 103q-7 0 -11 3.5t-4 9.5zM56 111q6 -23 16.5 -43t27 -35t39.5 -24t52 -9q26 0 49.5 8.5t40.5 23.5t27 36.5t10 47.5q0 43 -27 70t-72 44l-62 25q-42 17 -68.5 45.5t-26.5 73.5q0 49 34.5 79t87.5 30
q30 0 52.5 -9.5t37.5 -24t24.5 -32t14.5 -36.5l-9 -3q-5 17 -14 34t-23 30.5t-34.5 22t-48.5 8.5q-48 0 -80 -27.5t-32 -71.5q0 -41 24 -67t63 -42l61 -25q23 -9 43 -20.5t34.5 -26t22.5 -33.5t8 -44q0 -55 -38.5 -90.5t-97.5 -35.5q-33 0 -58 9.5t-42.5 26.5t-28.5 38
t-16 44z" />
    <glyph glyph-name="dotlessj" unicode="&#x237;" horiz-adv-x="191" 
d="M105 473v-561q0 -66 -27 -97t-74 -31q-18 0 -30 2.5t-23 7.5v11q8 -5 22 -8t31 -3q41 0 66 28.5t25 89.5v561h10z" />
    <glyph glyph-name="circumflex" unicode="&#x2c6;" horiz-adv-x="500" 
d="M136 581l110 131h8l110 -131h-12l-102 121l-102 -121h-12z" />
    <glyph glyph-name="caron" unicode="&#x2c7;" horiz-adv-x="500" 
d="M364 712l-110 -131h-8l-110 131h11l103 -122l103 122h11z" />
    <glyph glyph-name="breve" unicode="&#x2d8;" horiz-adv-x="500" 
d="M250 594q42 0 72 30.5t30 82.5h10q0 -57 -32.5 -90t-79.5 -33t-79.5 33t-32.5 90h10q0 -52 30 -82.5t72 -30.5z" />
    <glyph glyph-name="dotaccent" unicode="&#x2d9;" horiz-adv-x="500" 
d="M250 653q6 0 9.5 -4t3.5 -9t-3.5 -9t-9.5 -4t-9.5 4t-3.5 9t3.5 9t9.5 4z" />
    <glyph glyph-name="ring" unicode="&#x2da;" horiz-adv-x="500" 
d="M331 646q0 -33 -24 -56t-57 -23t-57 23t-24 56t24 56t57 23t57 -23t24 -56zM321 646q0 28 -21.5 48.5t-49.5 20.5t-49.5 -20.5t-21.5 -48.5t21.5 -48.5t49.5 -20.5t49.5 20.5t21.5 48.5z" />
    <glyph glyph-name="ogonek" unicode="&#x2db;" horiz-adv-x="500" 
d="M250 -199q-36 0 -58 19t-22 51q0 43 41 77.5t111 57.5l7 -6q-69 -23 -109 -56t-40 -72q0 -29 20 -45t50 -16q40 0 73 22v-11q-32 -21 -73 -21z" />
    <glyph glyph-name="tilde" unicode="&#x2dc;" horiz-adv-x="500" 
d="M312 593q-24 0 -38.5 10.5t-26.5 23.5t-25 23.5t-34 10.5q-26 0 -41 -17t-16 -48h-10q1 35 19 55t47 20q24 0 38.5 -10.5t26.5 -23.5t25 -23.5t34 -10.5q26 0 41 17t16 48h10q-1 -35 -19 -55t-47 -20z" />
    <glyph glyph-name="hungarumlaut" unicode="&#x2dd;" horiz-adv-x="500" 
d="M138 581l84 131h11l-84 -131h-11zM267 581l84 131h11l-84 -131h-11z" />
    <glyph glyph-name="uni0312" unicode="&#x312;" horiz-adv-x="500" 
d="M259 580q0 -6 -4 -10t-10 -4t-10 4t-4 10q0 2 2 12l26 104h10l-25 -103q7 0 11 -3.5t4 -9.5z" />
    <glyph glyph-name="mu" unicode="&#x3bc;" horiz-adv-x="581" 
d="M86 473h10v-270q0 -47 14 -84.5t39.5 -63.5t61.5 -40.5t80 -14.5q42 0 78 17t61.5 45t40 64t14.5 74v273h10v-473h-10v142q-7 -29 -24 -56.5t-42.5 -48.5t-58 -34t-70.5 -13q-72 0 -123.5 36.5t-70.5 102.5v-337h-10v681z" />
    <glyph glyph-name="pi" unicode="&#x3c0;" horiz-adv-x="549" 
d="M115 463h-98v10h515v-10h-97v-463h-10v463h-300v-463h-10v463z" />
    <glyph glyph-name="Wgrave" unicode="&#x1e80;" horiz-adv-x="1011" 
d="M39 700h11l227 -684l224 684h10l223 -684l227 684h11l-233 -700h-10l-223 682l-224 -682h-10zM510 758l-92 131h11l92 -131h-11z" />
    <glyph glyph-name="wgrave" unicode="&#x1e81;" horiz-adv-x="804" 
d="M576 0l-174 458l-174 -458h-12l-179 473h11l174 -462l175 462h10l175 -462l174 462h11l-179 -473h-12zM406 581l-92 131h11l92 -131h-11z" />
    <glyph glyph-name="Wacute" unicode="&#x1e82;" horiz-adv-x="1011" 
d="M39 700h11l227 -684l224 684h10l223 -684l227 684h11l-233 -700h-10l-223 682l-224 -682h-10zM491 758l92 131h11l-92 -131h-11z" />
    <glyph glyph-name="wacute" unicode="&#x1e83;" horiz-adv-x="804" 
d="M576 0l-174 458l-174 -458h-12l-179 473h11l174 -462l175 462h10l175 -462l174 462h11l-179 -473h-12zM387 581l92 131h11l-92 -131h-11z" />
    <glyph glyph-name="Wdieresis" unicode="&#x1e84;" horiz-adv-x="1011" 
d="M39 700h11l227 -684l224 684h10l223 -684l227 684h11l-233 -700h-10l-223 682l-224 -682h-10zM576 838q6 0 9.5 -4t3.5 -9t-3.5 -9t-9.5 -4t-9.5 4t-3.5 9t3.5 9t9.5 4zM436 838q6 0 9.5 -4t3.5 -9t-3.5 -9t-9.5 -4t-9.5 4t-3.5 9t3.5 9t9.5 4z" />
    <glyph glyph-name="wdieresis" unicode="&#x1e85;" horiz-adv-x="804" 
d="M576 0l-174 458l-174 -458h-12l-179 473h11l174 -462l175 462h10l175 -462l174 462h11l-179 -473h-12zM472 641q6 0 9.5 -4t3.5 -9t-3.5 -9t-9.5 -4t-9.5 4t-3.5 9t3.5 9t9.5 4zM332 641q6 0 9.5 -4t3.5 -9t-3.5 -9t-9.5 -4t-9.5 4t-3.5 9t3.5 9t9.5 4z" />
    <glyph glyph-name="Ygrave" unicode="&#x1ef2;" 
d="M295 323l-269 377h12l262 -368l262 368h12l-269 -376v-324h-10v323zM297 758l-92 131h11l92 -131h-11z" />
    <glyph glyph-name="ygrave" unicode="&#x1ef3;" horiz-adv-x="478" 
d="M88 -216q-22 0 -40 8v10q8 -4 18 -6.5t22 -2.5q38 0 61.5 25t45.5 78l45 108l-206 469h11l200 -456l188 456h11l-239 -579q-25 -60 -51 -85t-66 -25zM245 581l-92 131h11l92 -131h-11z" />
    <glyph glyph-name="thinspace" unicode="&#x2009;" horiz-adv-x="130" 
 />
    <glyph glyph-name="figuredash" unicode="&#x2012;" horiz-adv-x="602" 
d="M90 264h422v-10h-422v10z" />
    <glyph glyph-name="endash" unicode="&#x2013;" horiz-adv-x="553" 
d="M66 264h421v-10h-421v10z" />
    <glyph glyph-name="emdash" unicode="&#x2014;" horiz-adv-x="853" 
d="M66 264h721v-10h-721v10z" />
    <glyph glyph-name="quoteleft" unicode="&#x2018;" horiz-adv-x="126" 
d="M74 593q0 -6 -4 -10t-10 -4t-10 4t-4 10q0 2 2 12l26 104h10l-25 -103q7 0 11 -3.5t4 -9.5z" />
    <glyph glyph-name="quoteright" unicode="&#x2019;" horiz-adv-x="126" 
d="M54 695q0 6 4 10t10 4t10 -4t4 -10q0 -2 -2 -12l-26 -104h-10l25 103q-7 0 -11 3.5t-4 9.5z" />
    <glyph glyph-name="quotesinglbase" unicode="&#x201a;" horiz-adv-x="126" 
d="M54 7q0 6 4 10t10 4t10 -4t4 -10q0 -2 -2 -12l-26 -104h-10l25 103q-7 0 -11 3.5t-4 9.5z" />
    <glyph glyph-name="quotedblleft" unicode="&#x201c;" horiz-adv-x="209" 
d="M74 593q0 -6 -4 -10t-10 -4t-10 4t-4 10q0 2 2 12l26 104h10l-25 -103q7 0 11 -3.5t4 -9.5zM157 593q0 -6 -4 -10t-10 -4t-10 4t-4 10q0 2 2 12l26 104h10l-25 -103q7 0 11 -3.5t4 -9.5z" />
    <glyph glyph-name="quotedblright" unicode="&#x201d;" horiz-adv-x="209" 
d="M54 695q0 6 4 10t10 4t10 -4t4 -10q0 -2 -2 -12l-26 -104h-10l25 103q-7 0 -11 3.5t-4 9.5zM137 695q0 6 4 10t10 4t10 -4t4 -10q0 -2 -2 -12l-26 -104h-10l25 103q-7 0 -11 3.5t-4 9.5z" />
    <glyph glyph-name="quotedblbase" unicode="&#x201e;" horiz-adv-x="209" 
d="M54 7q0 6 4 10t10 4t10 -4t4 -10q0 -2 -2 -12l-26 -104h-10l25 103q-7 0 -11 3.5t-4 9.5zM137 7q0 6 4 10t10 4t10 -4t4 -10q0 -2 -2 -12l-26 -104h-10l25 103q-7 0 -11 3.5t-4 9.5z" />
    <glyph glyph-name="dagger" unicode="&#x2020;" horiz-adv-x="427" 
d="M51 425h157v275h10v-275h158v-10h-158v-523h-10v523h-157v10z" />
    <glyph glyph-name="daggerdbl" unicode="&#x2021;" horiz-adv-x="427" 
d="M51 445h157v255h10v-255h158v-10h-158v-269h158v-10h-158v-264h-10v264h-157v10h157v269h-157v10z" />
    <glyph glyph-name="bullet" unicode="&#x2022;" horiz-adv-x="184" 
d="M60 259q0 13 9.5 22.5t22.5 9.5t22.5 -9.5t9.5 -22.5t-9.5 -22.5t-22.5 -9.5t-22.5 9.5t-9.5 22.5z" />
    <glyph glyph-name="ellipsis" unicode="&#x2026;" horiz-adv-x="536" 
d="M83 21q6 0 10 -4t4 -10t-4 -10t-10 -4t-10 4t-4 10t4 10t10 4zM453 21q6 0 10 -4t4 -10t-4 -10t-10 -4t-10 4t-4 10t4 10t10 4zM268 21q6 0 10 -4t4 -10t-4 -10t-10 -4t-10 4t-4 10t4 10t10 4z" />
    <glyph glyph-name="perthousand" unicode="&#x2030;" horiz-adv-x="1161" 
d="M199 390q-32 0 -59.5 12t-48 32.5t-32 48t-11.5 59.5t11.5 59.5t32 48t48 32t59.5 11.5t59.5 -11.5t48 -32t32.5 -48t12 -59.5t-12 -59.5t-32.5 -48t-48 -32.5t-59.5 -12zM138 0h-11l506 688h12zM57 542q0 -30 11 -56t30 -45t45 -30t56 -11t56 11t45 30t30 45t11 56
t-11 56t-30 45t-45 30t-56 11t-56 -11t-45 -30t-30 -45t-11 -56zM572 -5q-32 0 -59.5 11.5t-48 32t-32 48t-11.5 59.5t11.5 59.5t32 48t48 32.5t59.5 12t60 -12t48.5 -32.5t32 -48t11.5 -59.5t-11.5 -59.5t-32 -48t-48.5 -32t-60 -11.5zM572 4q30 0 56 11t45 30t30 45t11 56
t-11 56t-30 45t-45 30t-56 11t-55.5 -11t-44.5 -30t-30 -45t-11 -56t11 -56t30 -45t44.5 -30t55.5 -11zM961 -5q-32 0 -59.5 11.5t-48 32t-32 48t-11.5 59.5t11.5 59.5t32 48t48 32.5t59.5 12t60 -12t48.5 -32.5t32 -48t11.5 -59.5t-11.5 -59.5t-32 -48t-48.5 -32t-60 -11.5
zM961 4q30 0 56 11t45 30t30 45t11 56t-11 56t-30 45t-45 30t-56 11t-55.5 -11t-44.5 -30t-30 -45t-11 -56t11 -56t30 -45t44.5 -30t55.5 -11z" />
    <glyph glyph-name="guilsinglleft" unicode="&#x2039;" horiz-adv-x="231" 
d="M45 259l133 202h11l-133 -202l133 -202h-11z" />
    <glyph glyph-name="guilsinglright" unicode="&#x203a;" horiz-adv-x="231" 
d="M175 259l-133 202h11l133 -202l-133 -202h-10z" />
    <glyph glyph-name="fraction" unicode="&#x2044;" horiz-adv-x="115" 
d="M304 688h12l-505 -688h-12z" />
    <glyph glyph-name="uni2070" unicode="&#x2070;" horiz-adv-x="347" 
d="M173 294q-63 0 -99.5 54.5t-36.5 145.5q0 45 9.5 81.5t27.5 63t43 40.5t56 14q63 0 100 -54.5t37 -144.5q0 -91 -37 -145.5t-100 -54.5zM173 304q59 0 93 51.5t34 138.5q0 86 -34 137.5t-93 51.5q-58 0 -92 -51.5t-34 -137.5q0 -87 34 -138.5t92 -51.5z" />
    <glyph glyph-name="uni2074" unicode="&#x2074;" horiz-adv-x="317" 
d="M238 397h-215v9l214 281h11v-280h53v-10h-53v-98h-10v98zM238 407v265l-202 -265h202z" />
    <glyph glyph-name="uni2075" unicode="&#x2075;" horiz-adv-x="319" 
d="M162 294q-26 0 -49 8.5t-40.5 24t-27.5 36t-10 44.5h10q0 -21 9.5 -40t25.5 -33t37 -22t45 -8q25 0 47 9.5t38 25.5t25.5 38t9.5 48q0 25 -9.5 47t-26 38t-39 25t-47.5 9q-33 0 -59 -15.5t-43 -42.5l-13 1l27 202h192v-10h-184l-24 -181q14 25 43 40.5t62 15.5
q28 0 52 -10t41.5 -27t27.5 -41t10 -51q0 -28 -10 -52t-27.5 -41.5t-41 -27.5t-51.5 -10z" />
    <glyph glyph-name="uni2076" unicode="&#x2076;" horiz-adv-x="334" 
d="M169 294q-28 0 -52.5 10t-42.5 27.5t-28 41.5t-10 52q0 42 23 77l123 186h11l-110 -167q33 33 88 33q27 0 51 -10t42 -27.5t28.5 -41t10.5 -50.5q0 -28 -10.5 -52t-28.5 -41.5t-42.5 -27.5t-52.5 -10zM169 304q26 0 48.5 9.5t39.5 25.5t26.5 38t9.5 48q0 25 -10 47
t-26.5 38t-39 25t-47.5 9q-26 0 -48.5 -9t-39.5 -25t-26.5 -38t-9.5 -47q0 -26 9.5 -48t26 -38t39 -25.5t48.5 -9.5z" />
    <glyph glyph-name="uni2077" unicode="&#x2077;" horiz-adv-x="278" 
d="M243 677h-216v10h228v-9l-178 -379h-11z" />
    <glyph glyph-name="uni2078" unicode="&#x2078;" horiz-adv-x="316" 
d="M158 294q-26 0 -49 8.5t-40 23.5t-26.5 35t-9.5 43q0 41 27.5 70t70.5 35q-35 4 -58.5 29.5t-23.5 60.5q0 41 31.5 67.5t77.5 26.5t77.5 -26.5t31.5 -67.5q0 -35 -23.5 -60.5t-58.5 -29.5q43 -6 70.5 -35t27.5 -70q0 -23 -9.5 -43t-26.5 -35t-40 -23.5t-49 -8.5zM158 304
q24 0 45 7.5t36.5 21t24.5 32t9 39.5q0 44 -32.5 72t-82.5 28t-82.5 -28t-32.5 -72q0 -21 9 -39.5t24.5 -32t36.5 -21t45 -7.5zM158 513q42 0 70.5 24t28.5 61t-28.5 61t-70.5 24t-70.5 -24t-28.5 -61t28.5 -61t70.5 -24z" />
    <glyph glyph-name="uni2079" unicode="&#x2079;" horiz-adv-x="334" 
d="M165 693q28 0 52.5 -10t42.5 -27.5t28 -41.5t10 -52q0 -42 -23 -77l-123 -186h-11l110 167q-33 -33 -88 -33q-27 0 -51 10t-42 27.5t-28.5 41t-10.5 50.5q0 28 10 52t28 41.5t42.5 27.5t53.5 10zM165 683q-26 0 -48.5 -9.5t-39.5 -25.5t-26.5 -38.5t-9.5 -47.5t10 -47
t26.5 -38t39 -25t47.5 -9q26 0 48.5 9t39.5 25t26.5 38t9.5 47t-9.5 47.5t-26 38.5t-39 25.5t-48.5 9.5z" />
    <glyph glyph-name="uni207A" unicode="&#x207a;" horiz-adv-x="328" 
d="M159 488h-119v10h119v118h10v-118h119v-10h-119v-118h-10v118z" />
    <glyph glyph-name="uni207B" unicode="&#x207b;" horiz-adv-x="328" 
d="M40 498h248v-10h-248v10z" />
    <glyph glyph-name="uni207C" unicode="&#x207c;" horiz-adv-x="328" 
d="M40 455h248v-10h-248v10zM40 542h248v-10h-248v10z" />
    <glyph glyph-name="uni207D" unicode="&#x207d;" horiz-adv-x="163" 
d="M129 255q-48 49 -71 112t-23 126t23 125.5t71 111.5h11q-48 -50 -71.5 -112t-23.5 -125t23.5 -125.5t71.5 -112.5h-11v0z" />
    <glyph glyph-name="uni207E" unicode="&#x207e;" horiz-adv-x="163" 
d="M23 255q48 50 71.5 112.5t23.5 125.5t-23.5 125t-71.5 112h11q48 -49 71 -111.5t23 -125.5t-23 -126t-71 -112h-11z" />
    <glyph glyph-name="n.superior" unicode="&#x207f;" horiz-adv-x="464" 
d="M74 665h10v-109q6 23 19.5 44t33 37t44.5 25.5t54 9.5q36 0 65.5 -11.5t50.5 -33.5t32.5 -52.5t11.5 -67.5v-208h-10v208q0 71 -41 113t-109 42q-32 0 -59.5 -12t-47.5 -33.5t-32 -50.5t-12 -63v-204h-10v366z" />
    <glyph glyph-name="uni2080" unicode="&#x2080;" horiz-adv-x="347" 
d="M173 -5q-63 0 -99.5 54.5t-36.5 145.5q0 45 9.5 81.5t27.5 63t43 40.5t56 14q63 0 100 -54.5t37 -144.5q0 -91 -37 -145.5t-100 -54.5zM173 5q59 0 93 51.5t34 138.5q0 86 -34 137.5t-93 51.5q-58 0 -92 -51.5t-34 -137.5q0 -87 34 -138.5t92 -51.5z" />
    <glyph glyph-name="uni2081" unicode="&#x2081;" horiz-adv-x="172" 
d="M103 379h-74v10h84v-389h-10v379z" />
    <glyph glyph-name="uni2082" unicode="&#x2082;" horiz-adv-x="306" 
d="M34 8l155 155q41 41 56.5 68.5t15.5 55.5q0 42 -30.5 69.5t-75.5 27.5q-23 0 -42.5 -8.5t-33.5 -23.5t-22.5 -35.5t-8.5 -43.5h-10q0 25 9 47.5t24.5 38.5t37 25.5t46.5 9.5q51 0 83.5 -30t32.5 -77q0 -29 -15.5 -58.5t-59.5 -72.5l-148 -147h231v-9h-245v8z" />
    <glyph glyph-name="uni2083" unicode="&#x2083;" horiz-adv-x="313" 
d="M174 212q8 0 23 5t29.5 16t25 27t10.5 39q0 21 -8.5 36.5t-22.5 26.5t-32 16.5t-37 5.5q-42 0 -70.5 -24.5t-29.5 -62.5h-10q1 43 32.5 70t77.5 27q21 0 41 -6.5t35.5 -19t24.5 -30t9 -39.5q0 -21 -9 -37.5t-21.5 -27.5t-25.5 -18t-21 -8q13 -3 29.5 -10t30.5 -19t24 -30
t10 -42q0 -26 -10.5 -46.5t-28.5 -35t-41 -22.5t-48 -8q-24 0 -46.5 7.5t-40.5 21.5t-28.5 34.5t-10.5 46.5h10q0 -24 10 -42.5t26 -31t37 -19.5t43 -7q23 0 44.5 7t38 20t26 32t9.5 43q0 26 -12.5 44t-29.5 29.5t-34.5 17t-28.5 5.5h-32v9h32z" />
    <glyph glyph-name="uni2084" unicode="&#x2084;" horiz-adv-x="317" 
d="M238 98h-215v9l214 281h11v-280h53v-10h-53v-98h-10v98zM238 108v265l-202 -265h202z" />
    <glyph glyph-name="uni2085" unicode="&#x2085;" horiz-adv-x="319" 
d="M162 -5q-26 0 -49 8.5t-40.5 24t-27.5 36t-10 44.5h10q0 -21 9.5 -40t25.5 -33t37 -22t45 -8q25 0 47 9.5t38 25.5t25.5 38t9.5 48q0 25 -9.5 47t-26 38t-39 25t-47.5 9q-33 0 -59 -15.5t-43 -42.5l-13 1l27 202h192v-10h-184l-24 -181q14 25 43 40.5t62 15.5
q28 0 52 -10t41.5 -27t27.5 -41t10 -51q0 -28 -10 -52t-27.5 -41.5t-41 -27.5t-51.5 -10z" />
    <glyph glyph-name="uni2086" unicode="&#x2086;" horiz-adv-x="334" 
d="M169 -5q-28 0 -52.5 10t-42.5 27.5t-28 41.5t-10 52q0 42 23 77l123 186h11l-110 -167q33 33 88 33q27 0 51 -10t42 -27.5t28.5 -41t10.5 -50.5q0 -28 -10.5 -52t-28.5 -41.5t-42.5 -27.5t-52.5 -10zM169 5q26 0 48.5 9.5t39.5 25.5t26.5 38t9.5 48q0 25 -10 47t-26.5 38
t-39 25t-47.5 9q-26 0 -48.5 -9t-39.5 -25t-26.5 -38t-9.5 -47q0 -26 9.5 -48t26 -38t39 -25.5t48.5 -9.5z" />
    <glyph glyph-name="uni2087" unicode="&#x2087;" horiz-adv-x="278" 
d="M243 378h-216v10h228v-9l-178 -379h-11z" />
    <glyph glyph-name="uni2088" unicode="&#x2088;" horiz-adv-x="316" 
d="M158 -5q-26 0 -49 8.5t-40 23.5t-26.5 35t-9.5 43q0 41 27.5 70t70.5 35q-35 4 -58.5 29.5t-23.5 60.5q0 41 31.5 67.5t77.5 26.5t77.5 -26.5t31.5 -67.5q0 -35 -23.5 -60.5t-58.5 -29.5q43 -6 70.5 -35t27.5 -70q0 -23 -9.5 -43t-26.5 -35t-40 -23.5t-49 -8.5zM158 5
q24 0 45 7.5t36.5 21t24.5 32t9 39.5q0 44 -32.5 72t-82.5 28t-82.5 -28t-32.5 -72q0 -21 9 -39.5t24.5 -32t36.5 -21t45 -7.5zM158 214q42 0 70.5 24t28.5 61t-28.5 61t-70.5 24t-70.5 -24t-28.5 -61t28.5 -61t70.5 -24z" />
    <glyph glyph-name="uni2089" unicode="&#x2089;" horiz-adv-x="334" 
d="M165 394q28 0 52.5 -10t42.5 -27.5t28 -41.5t10 -52q0 -42 -23 -77l-123 -186h-11l110 167q-33 -33 -88 -33q-27 0 -51 10t-42 27.5t-28.5 41t-10.5 50.5q0 28 10 52t28 41.5t42.5 27.5t53.5 10zM165 384q-26 0 -48.5 -9.5t-39.5 -25.5t-26.5 -38.5t-9.5 -47.5t10 -47
t26.5 -38t39 -25t47.5 -9q26 0 48.5 9t39.5 25t26.5 38t9.5 47t-9.5 47.5t-26 38.5t-39 25.5t-48.5 9.5z" />
    <glyph glyph-name="uni208A" unicode="&#x208a;" horiz-adv-x="328" 
d="M159 189h-119v10h119v118h10v-118h119v-10h-119v-118h-10v118z" />
    <glyph glyph-name="uni208B" unicode="&#x208b;" horiz-adv-x="328" 
d="M40 199h248v-10h-248v10z" />
    <glyph glyph-name="uni208C" unicode="&#x208c;" horiz-adv-x="328" 
d="M40 156h248v-10h-248v10zM40 243h248v-10h-248v10z" />
    <glyph glyph-name="uni208D" unicode="&#x208d;" horiz-adv-x="163" 
d="M129 -44q-48 49 -71 112t-23 126t23 125.5t71 111.5h11q-48 -50 -71.5 -112t-23.5 -125t23.5 -125.5t71.5 -112.5h-11v0z" />
    <glyph glyph-name="uni208E" unicode="&#x208e;" horiz-adv-x="163" 
d="M23 -44q48 50 71.5 112.5t23.5 125.5t-23.5 125t-71.5 112h11q48 -49 71 -111.5t23 -125.5t-23 -126t-71 -112h-11z" />
    <glyph glyph-name="Euro" unicode="&#x20ac;" horiz-adv-x="606" 
d="M412 264h-304q10 -56 35 -104.5t61 -84t82 -55.5t100 -20q45 0 87 12t77 35v-12q-35 -21 -77 -33t-87 -12q-56 0 -104 20.5t-85.5 57.5t-63 87t-35.5 109h-87v9h85q-2 19 -3.5 34.5t-1.5 33.5q0 17 1.5 34t3.5 34h-85v9h87q10 59 35.5 109.5t63 87t85.5 57.5t104 21
q45 0 87 -12t77 -33v-12q-35 23 -77 35t-87 12q-54 0 -100 -20t-82.5 -55.5t-61 -84t-34.5 -105.5h303v-9h-305q-2 -17 -3.5 -34t-1.5 -34q0 -18 1.5 -34.5t3.5 -33.5h306v-9z" />
    <glyph glyph-name="afii61289" unicode="&#x2113;" horiz-adv-x="386" 
d="M248 -10q-45 0 -72 29t-27 89v163q-50 -30 -110 -48v10q29 9 56.5 22t53.5 29v275q0 67 24.5 101.5t70.5 34.5q44 0 71 -32.5t27 -89.5q0 -87 -49.5 -164.5t-133.5 -130.5v-169q0 -56 25 -82t65 -26q19 0 34.5 4t24.5 8v-12q-12 -5 -26 -8t-34 -3zM159 290
q78 51 125.5 125t47.5 158q0 53 -25 82.5t-63 29.5q-39 0 -62 -31.5t-23 -94.5v-269z" />
    <glyph glyph-name="trademark" unicode="&#x2122;" horiz-adv-x="762" 
d="M355 700h12l162 -325l161 325h12v-342h-10v322l-159 -320h-8l-160 320v-322h-10v342zM23 700h248v-10h-119v-332h-10v332h-119v10z" />
    <glyph glyph-name="ohm" unicode="&#x2126;" horiz-adv-x="788" 
d="M394 693q-66 0 -125 -26.5t-102.5 -71.5t-69 -105t-25.5 -128q0 -65 19.5 -122t54.5 -103.5t83 -79.5t104 -50v-7h-276v10h242q-51 19 -94.5 52.5t-75 79.5t-49.5 101.5t-18 118.5q0 70 26 132t71 108.5t105.5 73.5t129.5 27t129.5 -27t105.5 -73.5t71 -108.5t26 -132
q0 -63 -18 -118.5t-49.5 -101.5t-75 -79.5t-94.5 -52.5h242v-10h-276v7q56 17 104 50t83 79.5t54.5 103.5t19.5 122q0 68 -25.5 128t-69 105t-102.5 71.5t-125 26.5z" />
    <glyph glyph-name="estimated" unicode="&#x212e;" horiz-adv-x="796" 
d="M704 179q-20 -42 -52 -77t-72 -59.5t-86 -38.5t-95 -14q-72 0 -133.5 26.5t-107 73t-71 109t-25.5 133.5t25.5 133.5t70.5 109t106.5 73.5t134.5 27q70 0 131 -25.5t106 -69t71 -101.5t26 -122v-13h-563v-252q44 -43 102 -67.5t127 -24.5q47 0 91.5 13t82.5 36.5t69 56.5
t51 73h11zM399 665q-69 0 -127.5 -24.5t-101.5 -67.5v-219h456v223q-44 41 -101 64.5t-126 23.5z" />
    <glyph glyph-name="uni2153" unicode="&#x2153;" horiz-adv-x="645" 
d="M511 688h12l-505 -688h-12zM506 212q8 0 23 5t29.5 16t25 27t10.5 39q0 21 -8.5 36.5t-22.5 26.5t-32 16.5t-37 5.5q-42 0 -70.5 -24.5t-29.5 -62.5h-10q1 43 32.5 70t77.5 27q21 0 41 -6.5t35.5 -19t24.5 -30t9 -39.5q0 -21 -9 -37.5t-21.5 -27.5t-25.5 -18t-21 -8
q13 -3 29.5 -10t30.5 -19t24 -30t10 -42q0 -26 -10.5 -46.5t-28.5 -35t-41 -22.5t-48 -8q-24 0 -46.5 7.5t-40.5 21.5t-28.5 34.5t-10.5 46.5h10q0 -24 10 -42.5t26 -31t37 -19.5t43 -7q23 0 44.5 7t38 20t26 32t9.5 43q0 26 -12.5 44t-29.5 29.5t-34.5 17t-28.5 5.5h-32v9
h32zM103 678h-74v10h84v-389h-10v379z" />
    <glyph glyph-name="uni2154" unicode="&#x2154;" horiz-adv-x="784" 
d="M34 307l155 155q41 41 56.5 68.5t15.5 55.5q0 42 -30.5 69.5t-75.5 27.5q-23 0 -42.5 -8.5t-33.5 -23.5t-22.5 -35.5t-8.5 -43.5h-10q0 25 9 47.5t24.5 38.5t37 25.5t46.5 9.5q51 0 83.5 -30t32.5 -77q0 -29 -15.5 -58.5t-59.5 -72.5l-148 -147h231v-9h-245v8zM650 688
h12l-505 -688h-12zM645 212q8 0 23 5t29.5 16t25 27t10.5 39q0 21 -8.5 36.5t-22.5 26.5t-32 16.5t-37 5.5q-42 0 -70.5 -24.5t-29.5 -62.5h-10q1 43 32.5 70t77.5 27q21 0 41 -6.5t35.5 -19t24.5 -30t9 -39.5q0 -21 -9 -37.5t-21.5 -27.5t-25.5 -18t-21 -8q13 -3 29.5 -10
t30.5 -19t24 -30t10 -42q0 -26 -10.5 -46.5t-28.5 -35t-41 -22.5t-48 -8q-24 0 -46.5 7.5t-40.5 21.5t-28.5 34.5t-10.5 46.5h10q0 -24 10 -42.5t26 -31t37 -19.5t43 -7q23 0 44.5 7t38 20t26 32t9.5 43q0 26 -12.5 44t-29.5 29.5t-34.5 17t-28.5 5.5h-32v9h32z" />
    <glyph glyph-name="uni2155" unicode="&#x2155;" horiz-adv-x="646" 
d="M511 688h12l-505 -688h-12zM489 -5q-26 0 -49 8.5t-40.5 24t-27.5 36t-10 44.5h10q0 -21 9.5 -40t25.5 -33t37 -22t45 -8q25 0 47 9.5t38 25.5t25.5 38t9.5 48q0 25 -9.5 47t-26 38t-39 25t-47.5 9q-33 0 -59 -15.5t-43 -42.5l-13 1l27 202h192v-10h-184l-24 -181
q14 25 43 40.5t62 15.5q28 0 52 -10t41.5 -27t27.5 -41t10 -51q0 -28 -10 -52t-27.5 -41.5t-41 -27.5t-51.5 -10zM103 678h-74v10h84v-389h-10v379z" />
    <glyph glyph-name="uni2156" unicode="&#x2156;" horiz-adv-x="785" 
d="M650 688h12l-505 -688h-12zM628 -5q-26 0 -49 8.5t-40.5 24t-27.5 36t-10 44.5h10q0 -21 9.5 -40t25.5 -33t37 -22t45 -8q25 0 47 9.5t38 25.5t25.5 38t9.5 48q0 25 -9.5 47t-26 38t-39 25t-47.5 9q-33 0 -59 -15.5t-43 -42.5l-13 1l27 202h192v-10h-184l-24 -181
q14 25 43 40.5t62 15.5q28 0 52 -10t41.5 -27t27.5 -41t10 -51q0 -28 -10 -52t-27.5 -41.5t-41 -27.5t-51.5 -10zM34 307l155 155q41 41 56.5 68.5t15.5 55.5q0 42 -30.5 69.5t-75.5 27.5q-23 0 -42.5 -8.5t-33.5 -23.5t-22.5 -35.5t-8.5 -43.5h-10q0 25 9 47.5t24.5 38.5
t37 25.5t46.5 9.5q51 0 83.5 -30t32.5 -77q0 -29 -15.5 -58.5t-59.5 -72.5l-148 -147h231v-9h-245v8z" />
    <glyph glyph-name="uni2157" unicode="&#x2157;" horiz-adv-x="757" 
d="M622 688h12l-505 -688h-12zM600 -5q-26 0 -49 8.5t-40.5 24t-27.5 36t-10 44.5h10q0 -21 9.5 -40t25.5 -33t37 -22t45 -8q25 0 47 9.5t38 25.5t25.5 38t9.5 48q0 25 -9.5 47t-26 38t-39 25t-47.5 9q-33 0 -59 -15.5t-43 -42.5l-13 1l27 202h192v-10h-184l-24 -181
q14 25 43 40.5t62 15.5q28 0 52 -10t41.5 -27t27.5 -41t10 -51q0 -28 -10 -52t-27.5 -41.5t-41 -27.5t-51.5 -10zM174 511q8 0 23 5t29.5 16t25 27t10.5 39q0 21 -8.5 36.5t-22.5 26.5t-32 16.5t-37 5.5q-42 0 -70.5 -24.5t-29.5 -62.5h-10q1 43 32.5 70t77.5 27
q21 0 41 -6.5t35.5 -19t24.5 -30t9 -39.5q0 -21 -9 -37.5t-21.5 -27.5t-25.5 -18t-21 -8q13 -3 29.5 -10t30.5 -19t24 -30t10 -42q0 -26 -10.5 -46.5t-28.5 -35t-41 -22.5t-48 -8q-24 0 -46.5 7.5t-40.5 21.5t-28.5 34.5t-10.5 46.5h10q0 -24 10 -42.5t26 -31t37 -19.5
t43 -7q23 0 44.5 7t38 20t26 32t9.5 43q0 26 -12.5 44t-29.5 29.5t-34.5 17t-28.5 5.5h-32v9h32z" />
    <glyph glyph-name="uni2158" unicode="&#x2158;" horiz-adv-x="771" 
d="M238 397h-215v9l214 281h11v-280h53v-10h-53v-98h-10v98zM238 407v265l-202 -265h202zM636 688h12l-505 -688h-12zM614 -5q-26 0 -49 8.5t-40.5 24t-27.5 36t-10 44.5h10q0 -21 9.5 -40t25.5 -33t37 -22t45 -8q25 0 47 9.5t38 25.5t25.5 38t9.5 48q0 25 -9.5 47t-26 38
t-39 25t-47.5 9q-33 0 -59 -15.5t-43 -42.5l-13 1l27 202h192v-10h-184l-24 -181q14 25 43 40.5t62 15.5q28 0 52 -10t41.5 -27t27.5 -41t10 -51q0 -28 -10 -52t-27.5 -41.5t-41 -27.5t-51.5 -10z" />
    <glyph glyph-name="uni2159" unicode="&#x2159;" horiz-adv-x="606" 
d="M511 688h12l-505 -688h-12zM441 -5q-28 0 -52.5 10t-42.5 27.5t-28 41.5t-10 52q0 42 23 77l123 186h11l-110 -167q33 33 88 33q27 0 51 -10t42 -27.5t28.5 -41t10.5 -50.5q0 -28 -10.5 -52t-28.5 -41.5t-42.5 -27.5t-52.5 -10zM441 5q26 0 48.5 9.5t39.5 25.5t26.5 38
t9.5 48q0 25 -10 47t-26.5 38t-39 25t-47.5 9q-26 0 -48.5 -9t-39.5 -25t-26.5 -38t-9.5 -47q0 -26 9.5 -48t26 -38t39 -25.5t48.5 -9.5zM103 678h-74v10h84v-389h-10v379z" />
    <glyph glyph-name="uni215A" unicode="&#x215a;" horiz-adv-x="718" 
d="M162 294q-26 0 -49 8.5t-40.5 24t-27.5 36t-10 44.5h10q0 -21 9.5 -40t25.5 -33t37 -22t45 -8q25 0 47 9.5t38 25.5t25.5 38t9.5 48q0 25 -9.5 47t-26 38t-39 25t-47.5 9q-33 0 -59 -15.5t-43 -42.5l-13 1l27 202h192v-10h-184l-24 -181q14 25 43 40.5t62 15.5
q28 0 52 -10t41.5 -27t27.5 -41t10 -51q0 -28 -10 -52t-27.5 -41.5t-41 -27.5t-51.5 -10zM623 688h12l-505 -688h-12zM553 -5q-28 0 -52.5 10t-42.5 27.5t-28 41.5t-10 52q0 42 23 77l123 186h11l-110 -167q33 33 88 33q27 0 51 -10t42 -27.5t28.5 -41t10.5 -50.5
q0 -28 -10.5 -52t-28.5 -41.5t-42.5 -27.5t-52.5 -10zM553 5q26 0 48.5 9.5t39.5 25.5t26.5 38t9.5 48q0 25 -10 47t-26.5 38t-39 25t-47.5 9q-26 0 -48.5 -9t-39.5 -25t-26.5 -38t-9.5 -47q0 -26 9.5 -48t26 -38t39 -25.5t48.5 -9.5z" />
    <glyph glyph-name="uni215B" unicode="&#x215b;" horiz-adv-x="633" 
d="M511 688h12l-505 -688h-12zM475 -5q-26 0 -49 8.5t-40 23.5t-26.5 35t-9.5 43q0 41 27.5 70t70.5 35q-35 4 -58.5 29.5t-23.5 60.5q0 41 31.5 67.5t77.5 26.5t77.5 -26.5t31.5 -67.5q0 -35 -23.5 -60.5t-58.5 -29.5q43 -6 70.5 -35t27.5 -70q0 -23 -9.5 -43t-26.5 -35
t-40 -23.5t-49 -8.5zM475 5q24 0 45 7.5t36.5 21t24.5 32t9 39.5q0 44 -32.5 72t-82.5 28t-82.5 -28t-32.5 -72q0 -21 9 -39.5t24.5 -32t36.5 -21t45 -7.5zM475 214q42 0 70.5 24t28.5 61t-28.5 61t-70.5 24t-70.5 -24t-28.5 -61t28.5 -61t70.5 -24zM103 678h-74v10h84v-389
h-10v379z" />
    <glyph glyph-name="uni215C" unicode="&#x215c;" horiz-adv-x="744" 
d="M622 688h12l-505 -688h-12zM586 -5q-26 0 -49 8.5t-40 23.5t-26.5 35t-9.5 43q0 41 27.5 70t70.5 35q-35 4 -58.5 29.5t-23.5 60.5q0 41 31.5 67.5t77.5 26.5t77.5 -26.5t31.5 -67.5q0 -35 -23.5 -60.5t-58.5 -29.5q43 -6 70.5 -35t27.5 -70q0 -23 -9.5 -43t-26.5 -35
t-40 -23.5t-49 -8.5zM586 5q24 0 45 7.5t36.5 21t24.5 32t9 39.5q0 44 -32.5 72t-82.5 28t-82.5 -28t-32.5 -72q0 -21 9 -39.5t24.5 -32t36.5 -21t45 -7.5zM586 214q42 0 70.5 24t28.5 61t-28.5 61t-70.5 24t-70.5 -24t-28.5 -61t28.5 -61t70.5 -24zM174 511q8 0 23 5
t29.5 16t25 27t10.5 39q0 21 -8.5 36.5t-22.5 26.5t-32 16.5t-37 5.5q-42 0 -70.5 -24.5t-29.5 -62.5h-10q1 43 32.5 70t77.5 27q21 0 41 -6.5t35.5 -19t24.5 -30t9 -39.5q0 -21 -9 -37.5t-21.5 -27.5t-25.5 -18t-21 -8q13 -3 29.5 -10t30.5 -19t24 -30t10 -42
q0 -26 -10.5 -46.5t-28.5 -35t-41 -22.5t-48 -8q-24 0 -46.5 7.5t-40.5 21.5t-28.5 34.5t-10.5 46.5h10q0 -24 10 -42.5t26 -31t37 -19.5t43 -7q23 0 44.5 7t38 20t26 32t9.5 43q0 26 -12.5 44t-29.5 29.5t-34.5 17t-28.5 5.5h-32v9h32z" />
    <glyph glyph-name="uni215D" unicode="&#x215d;" horiz-adv-x="745" 
d="M162 294q-26 0 -49 8.5t-40.5 24t-27.5 36t-10 44.5h10q0 -21 9.5 -40t25.5 -33t37 -22t45 -8q25 0 47 9.5t38 25.5t25.5 38t9.5 48q0 25 -9.5 47t-26 38t-39 25t-47.5 9q-33 0 -59 -15.5t-43 -42.5l-13 1l27 202h192v-10h-184l-24 -181q14 25 43 40.5t62 15.5
q28 0 52 -10t41.5 -27t27.5 -41t10 -51q0 -28 -10 -52t-27.5 -41.5t-41 -27.5t-51.5 -10zM623 688h12l-505 -688h-12zM587 -5q-26 0 -49 8.5t-40 23.5t-26.5 35t-9.5 43q0 41 27.5 70t70.5 35q-35 4 -58.5 29.5t-23.5 60.5q0 41 31.5 67.5t77.5 26.5t77.5 -26.5t31.5 -67.5
q0 -35 -23.5 -60.5t-58.5 -29.5q43 -6 70.5 -35t27.5 -70q0 -23 -9.5 -43t-26.5 -35t-40 -23.5t-49 -8.5zM587 5q24 0 45 7.5t36.5 21t24.5 32t9 39.5q0 44 -32.5 72t-82.5 28t-82.5 -28t-32.5 -72q0 -21 9 -39.5t24.5 -32t36.5 -21t45 -7.5zM587 214q42 0 70.5 24t28.5 61
t-28.5 61t-70.5 24t-70.5 -24t-28.5 -61t28.5 -61t70.5 -24z" />
    <glyph glyph-name="uni215E" unicode="&#x215e;" horiz-adv-x="644" 
d="M243 677h-216v10h228v-9l-178 -379h-11zM522 688h12l-505 -688h-12zM486 -5q-26 0 -49 8.5t-40 23.5t-26.5 35t-9.5 43q0 41 27.5 70t70.5 35q-35 4 -58.5 29.5t-23.5 60.5q0 41 31.5 67.5t77.5 26.5t77.5 -26.5t31.5 -67.5q0 -35 -23.5 -60.5t-58.5 -29.5
q43 -6 70.5 -35t27.5 -70q0 -23 -9.5 -43t-26.5 -35t-40 -23.5t-49 -8.5zM486 5q24 0 45 7.5t36.5 21t24.5 32t9 39.5q0 44 -32.5 72t-82.5 28t-82.5 -28t-32.5 -72q0 -21 9 -39.5t24.5 -32t36.5 -21t45 -7.5zM486 214q42 0 70.5 24t28.5 61t-28.5 61t-70.5 24t-70.5 -24
t-28.5 -61t28.5 -61t70.5 -24z" />
    <glyph glyph-name="uni215F" unicode="&#x215f;" horiz-adv-x="322" 
d="M103 678h-74v10h84v-389h-10v379zM511 688h12l-505 -688h-12z" />
    <glyph glyph-name="arrowleft" unicode="&#x2190;" horiz-adv-x="850" 
d="M760 355v-10h-656l273 -271l-7 -7l-285 283l285 283l7 -7l-273 -271h656z" />
    <glyph glyph-name="arrowup" unicode="&#x2191;" horiz-adv-x="800" 
d="M395 694l-271 -273l-7 7l283 285l283 -285l-7 -7l-271 273v-694h-10v694z" />
    <glyph glyph-name="arrowright" unicode="&#x2192;" horiz-adv-x="850" 
d="M746 355l-273 271l7 7l285 -283l-285 -283l-7 7l273 271h-656v10h656z" />
    <glyph glyph-name="arrowdown" unicode="&#x2193;" horiz-adv-x="800" 
d="M395 700h10v-694l271 273l7 -7l-283 -285l-283 285l7 7l271 -273v694z" />
    <glyph glyph-name="uni2196" unicode="&#x2196;" horiz-adv-x="750" 
d="M634 210l-7 -7l-480 480v-385h-10v402h402v-10h-385z" />
    <glyph glyph-name="uni2197" unicode="&#x2197;" horiz-adv-x="750" 
d="M596 690h-385v10h402v-402h-10v385l-480 -480l-7 7z" />
    <glyph glyph-name="uni2198" unicode="&#x2198;" horiz-adv-x="750" 
d="M154 10h385v-10h-402v402h10v-385l480 480l7 -7z" />
    <glyph glyph-name="uni2199" unicode="&#x2199;" horiz-adv-x="750" 
d="M116 490l7 7l480 -480v385h10v-402h-402v10h385z" />
    <glyph glyph-name="partialdiff" unicode="&#x2202;" horiz-adv-x="592" 
d="M272 -10q-47 0 -86 16.5t-67.5 46t-44 70t-15.5 88.5q0 52 18 96t50 76t75.5 50t94.5 18q70 0 129 -34t93 -91q1 6 1 13v12q0 79 -18 142t-50.5 107.5t-78.5 68.5t-103 24q-79 0 -141 -40v11q62 39 141 39q59 0 107 -24.5t82 -70.5t52.5 -111.5t18.5 -147.5
q0 -81 -18 -147t-51.5 -113t-81.5 -73t-107 -26zM272 0q52 0 95.5 22t76 62.5t51.5 97.5t24 127q-34 61 -93.5 96.5t-128.5 35.5q-49 0 -91 -17.5t-72.5 -48t-47.5 -73t-17 -91.5q0 -46 15 -84.5t42 -66.5t64 -44t82 -16z" />
    <glyph glyph-name="Delta" unicode="&#x2206;" horiz-adv-x="679" 
d="M334 694h10l296 -694h-601zM54 10h571l-286 670z" />
    <glyph glyph-name="product" unicode="&#x220f;" horiz-adv-x="681" 
d="M95 694h491v-694h-10v684h-471v-684h-10v694z" />
    <glyph glyph-name="summation" unicode="&#x2211;" horiz-adv-x="551" 
d="M60 7l258 340l-258 339v7h431v-10h-417l256 -335v-2l-256 -336h417v-10h-431v7z" />
    <glyph glyph-name="minus" unicode="&#x2212;" 
d="M85 338h430v-10h-430v10z" />
    <glyph glyph-name="radical" unicode="&#x221a;" horiz-adv-x="617" 
d="M110 420h-71v10h78l169 -418l285 682h11l-290 -694h-12z" />
    <glyph glyph-name="infinity" unicode="&#x221e;" horiz-adv-x="766" 
d="M201 465q28 0 54 -12t49.5 -30t43 -40.5t35.5 -43.5q16 21 35.5 43.5t42.5 40.5t49 30t55 12t53.5 -10.5t42.5 -28.5t28.5 -42t10.5 -52t-10.5 -52.5t-28.5 -42.5t-42.5 -28t-53.5 -10t-55 12t-49 30t-42.5 40.5t-35.5 43.5q-16 -21 -35.5 -43.5t-43 -40.5t-49.5 -30
t-54 -12q-29 0 -53.5 10t-42.5 28t-28.5 42.5t-10.5 52.5t10.5 52t28.5 42t42.5 28.5t53.5 10.5zM390 332q15 -21 34 -42.5t41.5 -39.5t47.5 -29.5t52 -11.5t49.5 9.5t39.5 26t26.5 39t9.5 48.5q0 25 -9.5 47.5t-26.5 39.5t-39.5 26.5t-49.5 9.5t-52 -11.5t-47.5 -29.5
t-41.5 -39.5t-34 -42.5zM376 332q-15 21 -34 42.5t-41.5 39.5t-47.5 29.5t-52 11.5t-49.5 -9.5t-39.5 -26.5t-26.5 -39.5t-9.5 -47.5q0 -26 9.5 -48.5t26.5 -39t39.5 -26t49.5 -9.5t52 11.5t47.5 29.5t41.5 39.5t34 42.5z" />
    <glyph glyph-name="integral" unicode="&#x222b;" horiz-adv-x="387" 
d="M99 -216q-20 0 -36.5 5t-27.5 11v11q8 -5 24 -11t39 -6q40 0 65 27.5t25 87.5v666q0 64 27 94.5t72 30.5q21 0 37.5 -5t27.5 -11v-11q-8 5 -24.5 11t-39.5 6q-40 0 -65 -27.5t-25 -87.5v-666q0 -65 -27 -95t-72 -30z" />
    <glyph glyph-name="approxequal" unicode="&#x2248;" 
d="M397 203q-35 0 -57 13.5t-41.5 29t-40.5 29t-53 13.5q-37 0 -58.5 -22t-22.5 -59h-10q1 43 25.5 67t64.5 24q34 0 56.5 -13.5t42 -29t40.5 -29t53 -13.5q38 0 59 22t22 59h10q-1 -43 -25.5 -67t-64.5 -24zM397 369q-35 0 -57 13.5t-41.5 29t-40.5 29t-53 13.5
q-37 0 -58.5 -22t-22.5 -59h-10q1 43 25.5 67t64.5 24q34 0 56.5 -13.5t42 -29t40.5 -29t53 -13.5q38 0 59 22t22 59h10q-1 -43 -25.5 -67t-64.5 -24z" />
    <glyph glyph-name="notequal" unicode="&#x2260;" 
d="M85 423h259l61 131h11l-61 -131h159v-10h-163l-73 -159h236v-10h-241l-61 -134h-11l61 134h-177v10h182l73 159h-255v10z" />
    <glyph glyph-name="equivalence" unicode="&#x2261;" 
d="M85 170h429v-10h-429v10zM85 339h429v-10h-429v10zM85 508h429v-10h-429v10z" />
    <glyph glyph-name="lessequal" unicode="&#x2264;" 
d="M96 409v8l408 207v-11l-394 -200l394 -200v-11zM96 90h408v-10h-408v10z" />
    <glyph glyph-name="greaterequal" unicode="&#x2265;" 
d="M96 202v11l394 200l-394 200v11l408 -207v-8zM504 80h-408v10h408v-10z" />
    <glyph glyph-name="lozenge" unicode="&#x25ca;" horiz-adv-x="532" 
d="M44 347l218 347h8l218 -347l-218 -347h-8zM475 347l-209 335l-209 -335l209 -335z" />
    <glyph glyph-name="anglebracketleft" unicode="&#x3008;" horiz-adv-x="263" 
d="M27 294l203 459h10l-201 -459l201 -459h-10z" />
    <glyph glyph-name="anglebracketright" unicode="&#x3009;" horiz-adv-x="263" 
d="M33 -165h-10l201 459l-201 459h10l203 -459z" />
    <glyph glyph-name="commaaccent" unicode="&#xf6c3;" horiz-adv-x="500" 
d="M241 -75q0 6 4 10t10 4t10 -4t4 -10q0 -2 -2 -12l-26 -104h-10l25 103q-7 0 -11 3.5t-4 9.5z" />
    <glyph glyph-name="fi" unicode="&#xfb01;" horiz-adv-x="464" 
d="M368 0v473h10v-473h-10zM373 615q-5 0 -8.5 3.5t-3.5 8.5t3.5 8.5t8.5 3.5t8.5 -3.5t3.5 -8.5t-3.5 -8.5t-8.5 -3.5zM23 473h80v111q0 63 28.5 94.5t75.5 31.5q22 0 41 -7t29 -14v-11q-11 8 -29 15t-41 7q-42 0 -68 -28t-26 -88v-111h140v-9h-140v-464h-10v464h-80v9z
" />
    <glyph glyph-name="fl" unicode="&#xfb02;" horiz-adv-x="464" 
d="M368 700h10v-700h-10v700zM23 473h80v111q0 63 28.5 94.5t75.5 31.5q22 0 41 -7t29 -14v-11q-11 8 -29 15t-41 7q-42 0 -68 -28t-26 -88v-111h140v-9h-140v-464h-10v464h-80v9z" />
    <glyph glyph-name="Adieresis.square" horiz-adv-x="664" 
d="M327 700h10l297 -700h-11l-112 264h-358l-112 -264h-11zM507 274l-175 412l-175 -412h350zM268 796v60h10v-60h-10zM389 796v60h10v-60h-10z" />
    <glyph glyph-name="Anocross" horiz-adv-x="664" 
d="M332 686l-291 -686h-11l297 700h10l297 -700h-11z" />
    <glyph glyph-name="Cdotaccent.square" horiz-adv-x="668" 
d="M403 796v60h10v-60h-10zM411 -10q-72 0 -136 28t-112 77t-76 114.5t-28 140.5t28 140.5t76 114t112 77t136 28.5q57 0 108.5 -17.5t95.5 -49.5v-12q-42 32 -94.5 50.5t-109.5 18.5q-71 0 -133 -27.5t-108.5 -75t-73.5 -111.5t-27 -136t27 -136t73.5 -111.5t108.5 -75
t133 -27.5q57 0 109.5 18.5t94.5 50.5v-12q-44 -32 -95.5 -49.5t-108.5 -17.5z" />
    <glyph glyph-name="Edieresis.square" horiz-adv-x="498" 
d="M95 700h345v-10h-335v-319h305v-10h-305v-351h337v-10h-347v700zM202 796v60h10v-60h-10zM323 796v60h10v-60h-10z" />
    <glyph glyph-name="Edotaccent.square" horiz-adv-x="498" 
d="M95 700h345v-10h-335v-319h305v-10h-305v-351h337v-10h-347v700zM264 796v60h10v-60h-10z" />
    <glyph glyph-name="Gcommaaccent.square" horiz-adv-x="782" 
d="M402 -10q-74 0 -136.5 28t-108.5 76.5t-72 114t-26 140.5q0 76 26 142t72 114.5t108.5 76.5t136.5 28q94 0 169.5 -43t122.5 -117l-9 -5q-46 72 -119 113.5t-164 41.5q-71 0 -132 -27t-105.5 -74.5t-70 -111.5t-25.5 -138q0 -73 25.5 -136.5t70 -111t105.5 -74.5t132 -27
q72 0 131 26t100 71.5t63.5 106.5t22.5 131h-331v10h341v-8q0 -72 -23 -135.5t-66 -110.5t-103 -74t-135 -27zM399 -60h10v-62l-23 -94h-10l23 96v60z" />
    <glyph glyph-name="Gdotaccent.square" horiz-adv-x="782" 
d="M402 -10q-74 0 -136.5 28t-108.5 76.5t-72 114t-26 140.5q0 76 26 142t72 114.5t108.5 76.5t136.5 28q94 0 169.5 -43t122.5 -117l-9 -5q-46 72 -119 113.5t-164 41.5q-71 0 -132 -27t-105.5 -74.5t-70 -111.5t-25.5 -138q0 -73 25.5 -136.5t70 -111t105.5 -74.5t132 -27
q72 0 131 26t100 71.5t63.5 106.5t22.5 131h-331v10h341v-8q0 -72 -23 -135.5t-66 -110.5t-103 -74t-135 -27zM398 796v60h10v-60h-10z" />
    <glyph glyph-name="Idieresis.square" horiz-adv-x="200" 
d="M95 700h10v-700h-10v700zM35 796v60h10v-60h-10zM156 796v60h10v-60h-10z" />
    <glyph glyph-name="Idotaccent.square" horiz-adv-x="200" 
d="M95 700h10v-700h-10v700zM95 796v60h10v-60h-10z" />
    <glyph glyph-name="Kcommaaccent.square" horiz-adv-x="585" 
d="M105 315l419 385h13l-355 -326l374 -374h-13l-368 367l-70 -64v-303h-10v700h10v-385zM293 -60h10v-62l-23 -94h-10l23 96v60z" />
    <glyph glyph-name="Lcommaaccent.square" horiz-adv-x="407" 
d="M95 700h10v-690h268v-10h-278v700zM234 -60h10v-62l-23 -94h-10l23 96v60z" />
    <glyph glyph-name="Ldot.square" horiz-adv-x="407" 
d="M95 700h10v-690h268v-10h-278v700zM294 309v75h10v-75h-10z" />
    <glyph glyph-name="Ncommaaccent.square" horiz-adv-x="756" 
d="M661 700v-700h-10l-546 684v-684h-10v700h10l546 -685v685h10zM376 -60h10v-62l-23 -94h-10l23 96v60z" />
    <glyph glyph-name="Odieresis.square" horiz-adv-x="822" 
d="M763 350q0 -75 -28 -140.5t-76 -114t-112 -77t-136 -28.5t-136 28.5t-112 77t-76 114t-28 140.5t28 140.5t76 114t112 77t136 28.5t136 -28.5t112 -77t76 -114t28 -140.5zM753 350q0 72 -27 136t-73.5 111.5t-109 75t-132.5 27.5t-132.5 -27.5t-109 -75t-73.5 -111.5
t-27 -136t27 -136t73.5 -111.5t109 -75t132.5 -27.5t132.5 27.5t109 75t73.5 111.5t27 136zM346 796v60h10v-60h-10zM467 796v60h10v-60h-10z" />
    <glyph glyph-name="Rcommaaccent.square" horiz-adv-x="537" 
d="M105 0h-10v700h153q47 0 86 -12t67 -34.5t43.5 -55.5t15.5 -75q0 -43 -15.5 -76.5t-43.5 -57t-67 -35.5t-86 -12h-12l259 -342h-12l-259 342h-119v-342zM105 352h142q46 0 83.5 12t64 34t41 53.5t14.5 71.5q0 39 -14.5 70t-41.5 52.5t-64.5 33t-82.5 11.5h-142v-338z
M275 -60h10v-62l-23 -94h-10l23 96v60z" />
    <glyph glyph-name="Scommaaccent.square" horiz-adv-x="503" 
d="M255 -60h10v-62l-23 -94h-10l23 96v60zM254 -10q-41 0 -75 12.5t-61 34.5t-45 53t-27 68l9 3q18 -72 70.5 -116.5t128.5 -44.5q40 0 75 12.5t60 35.5t39 54.5t14 71.5q0 57 -33.5 96.5t-95.5 65.5l-121 52q-58 25 -89.5 65t-31.5 99q0 35 13 64t36.5 50t56 32.5
t71.5 11.5q35 0 64.5 -11t53 -30.5t39.5 -45.5t23 -56l-10 -2q-7 28 -22 53t-37 43t-50 28.5t-61 10.5q-37 0 -68 -11t-53 -30.5t-34 -46.5t-12 -60q0 -53 30 -92t84 -62l121 -52q64 -27 100 -68.5t36 -103.5q0 -42 -15 -76t-41.5 -58t-63 -37t-78.5 -13z" />
    <glyph glyph-name="Tcommaaccent.square" horiz-adv-x="516" 
d="M253 690h-230v10h470v-10h-230v-690h-10v690zM253 -60h10v-62l-23 -94h-10l23 96v60z" />
    <glyph glyph-name="Udieresis.square" horiz-adv-x="690" 
d="M345 -10q-63 0 -111.5 21t-81 59.5t-49.5 92t-17 118.5v419h10v-418q0 -63 16.5 -114.5t48 -89t78 -58t106.5 -20.5t106.5 20.5t78 58t48 89t16.5 114.5v418h10v-419q0 -65 -17 -118.5t-49.5 -92t-81 -59.5t-111.5 -21zM280 796v60h10v-60h-10zM401 796v60h10v-60h-10z
" />
    <glyph glyph-name="Wdieresis.square" horiz-adv-x="1011" 
d="M39 700h11l227 -684l224 684h10l223 -684l227 684h11l-233 -700h-10l-223 682l-224 -682h-10zM441 796v60h10v-60h-10zM562 796v60h10v-60h-10z" />
    <glyph glyph-name="Ydieresis.square" 
d="M295 323l-269 377h12l262 -368l262 368h12l-269 -376v-324h-10v323zM235 796v60h10v-60h-10zM356 796v60h10v-60h-10z" />
    <glyph glyph-name="Zdotaccent.square" horiz-adv-x="592" 
d="M60 10h488v-10h-504v6l486 684h-465v10h479v-7zM311 796v60h10v-60h-10z" />
    <glyph glyph-name="a.alt" horiz-adv-x="505" 
d="M212 -10q-68 0 -110.5 35.5t-42.5 91.5q0 128 163 143l192 18v44q0 72 -41.5 111.5t-118.5 39.5q-62 0 -106 -32t-61 -86l-10 3q18 57 65 91t112 34q81 0 125.5 -42.5t44.5 -118.5v-322h-10v142q-8 -29 -26 -56.5t-44 -48.5t-59.5 -34t-72.5 -13zM212 0q44 0 81 17t64 45
t42 64t15 74v69l-192 -18q-78 -8 -115.5 -42.5t-37.5 -91.5q0 -25 10.5 -46.5t29.5 -37t45.5 -24.5t57.5 -9z" />
    <glyph glyph-name="t.alt" horiz-adv-x="230" 
d="M108 464h-95v9h95v149h10v-149h104v-9h-104v-464h-10v464z" />
    <glyph glyph-name="u.alt" horiz-adv-x="562" 
d="M281 -10q-45 0 -82 15t-63.5 42.5t-40.5 67t-14 88.5v270h10v-270q0 -47 13.5 -84.5t38.5 -63.5t60 -40.5t78 -14.5t78 14.5t60 40.5t38.5 63.5t13.5 84.5v270h10v-270q0 -49 -14 -88.5t-40.5 -67t-63.5 -42.5t-82 -15z" />
    <glyph glyph-name="adieresis.square" horiz-adv-x="623" 
d="M527 0v174q-8 -32 -26.5 -64.5t-48 -59t-69.5 -43.5t-89 -17q-50 0 -94 19.5t-77 53t-52 78.5t-19 96t19 96t52 78t77 52.5t94 19.5q49 0 89 -16.5t69.5 -43t48 -59t26.5 -64.5v173h10v-473h-10zM62 237q0 -49 18 -92t49.5 -75.5t74 -51t90.5 -18.5q55 0 98.5 21.5
t73.5 56t46 76.5t16 83t-16 83t-46 76t-73.5 55.5t-98.5 21.5q-48 0 -90.5 -18.5t-74 -50.5t-49.5 -75t-18 -92zM232 588v75h10v-75h-10zM353 588v75h10v-75h-10z" />
    <glyph glyph-name="cdotaccent.square" horiz-adv-x="495" 
d="M294 -10q-50 0 -94 19.5t-77 53t-52 78.5t-19 96t19 95.5t52 78t77 53t94 19.5q41 0 78 -12.5t67 -35.5v-12q-30 23 -66.5 36.5t-78.5 13.5q-48 0 -90.5 -18.5t-74 -50.5t-49.5 -75t-18 -92t18 -92t49.5 -75.5t74 -51t90.5 -18.5q42 0 78.5 13.5t66.5 36.5v-12
q-30 -23 -67 -35.5t-78 -12.5zM290 588v75h10v-75h-10z" />
    <glyph glyph-name="edieresis.square" horiz-adv-x="554" 
d="M285 -10q-51 0 -94 18t-73.5 51t-48 78t-17.5 99t17 99.5t48 78t73 51t93 18.5q49 0 90.5 -18t71.5 -51t47 -77.5t17 -97.5v-1h-447v-3q0 -52 16.5 -95t46.5 -74t71 -48.5t89 -17.5q64 0 115 32t78 89l10 -3q-29 -60 -82.5 -94t-120.5 -34zM499 247q-2 49 -18.5 90.5
t-45 71.5t-67.5 47t-85 17q-47 0 -87 -17t-69 -47t-46.5 -71.5t-18.5 -90.5h437zM218 588v75h10v-75h-10zM339 588v75h10v-75h-10z" />
    <glyph glyph-name="edotaccent.square" horiz-adv-x="554" 
d="M285 -10q-51 0 -94 18t-73.5 51t-48 78t-17.5 99t17 99.5t48 78t73 51t93 18.5q49 0 90.5 -18t71.5 -51t47 -77.5t17 -97.5v-1h-447v-3q0 -52 16.5 -95t46.5 -74t71 -48.5t89 -17.5q64 0 115 32t78 89l10 -3q-29 -60 -82.5 -94t-120.5 -34zM499 247q-2 49 -18.5 90.5
t-45 71.5t-67.5 47t-85 17q-47 0 -87 -17t-69 -47t-46.5 -71.5t-18.5 -90.5h437zM278 588v75h10v-75h-10z" />
    <glyph glyph-name="gcommaaccent.square" horiz-adv-x="623" 
d="M52 237q0 51 19 96t52 78t77 52.5t94 19.5q46 0 85 -15.5t69.5 -41.5t50.5 -59.5t28 -70.5v177h10v-453q0 -50 -15.5 -93.5t-46 -75t-75.5 -49.5t-104 -18q-81 0 -140 33.5t-82 91.5l8 4q24 -56 80 -88t134 -32q57 0 100 17.5t72 48t44 72t15 90.5v157q-8 -37 -28 -71
t-50.5 -60t-69.5 -41.5t-85 -15.5q-50 0 -94 19.5t-77 53t-52 78.5t-19 96zM62 237q0 -49 18 -92t49.5 -75.5t74 -51t90.5 -18.5q55 0 98.5 22t73.5 56t46 76t16 83q0 40 -16 82t-46 76.5t-73.5 56t-98.5 21.5q-48 0 -90.5 -18.5t-74 -50.5t-49.5 -75t-18 -92zM321 712
l-20 -82v-61h-10v62l20 81h10z" />
    <glyph glyph-name="gdotaccent.square" horiz-adv-x="623" 
d="M52 237q0 51 19 96t52 78t77 52.5t94 19.5q46 0 85 -15.5t69.5 -41.5t50.5 -59.5t28 -70.5v177h10v-453q0 -50 -15.5 -93.5t-46 -75t-75.5 -49.5t-104 -18q-81 0 -140 33.5t-82 91.5l8 4q24 -56 80 -88t134 -32q57 0 100 17.5t72 48t44 72t15 90.5v157q-8 -37 -28 -71
t-50.5 -60t-69.5 -41.5t-85 -15.5q-50 0 -94 19.5t-77 53t-52 78.5t-19 96zM62 237q0 -49 18 -92t49.5 -75.5t74 -51t90.5 -18.5q55 0 98.5 22t73.5 56t46 76t16 83q0 40 -16 82t-46 76.5t-73.5 56t-98.5 21.5q-48 0 -90.5 -18.5t-74 -50.5t-49.5 -75t-18 -92zM291 588v75
h10v-75h-10z" />
    <glyph glyph-name="idieresis.square" horiz-adv-x="182" 
d="M86 473h10v-473h-10v473zM26 588v75h10v-75h-10zM147 588v75h10v-75h-10z" />
    <glyph glyph-name="idotaccent" horiz-adv-x="182" 
d="M86 0v473h10v-473h-10zM91 615q-5 0 -8.5 3.5t-3.5 8.5t3.5 8.5t8.5 3.5t8.5 -3.5t3.5 -8.5t-3.5 -8.5t-8.5 -3.5z" />
    <glyph glyph-name="idotaccent.square" horiz-adv-x="182" 
d="M86 473h10v-473h-10v473zM86 664h10v-76h-10v76z" />
    <glyph glyph-name="iogonek.square" horiz-adv-x="182" 
d="M75 -199q-35 0 -56.5 21.5t-21.5 58.5q0 35 23.5 67t65.5 56v469h10v-473q-42 -24 -65.5 -54t-23.5 -64t19.5 -52.5t49.5 -18.5q38 0 69 22v-11q-14 -10 -32 -15.5t-38 -5.5zM86 664h10v-76h-10v76z" />
    <glyph glyph-name="kcommaaccent.square" horiz-adv-x="452" 
d="M86 700h10v-472l280 245h14l-228 -199l261 -274h-13l-255 267l-59 -51v-216h-10v700zM235 -60h10v-62l-23 -94h-10l23 96v60z" />
    <glyph glyph-name="lcommaaccent.square" horiz-adv-x="182" 
d="M86 700h10v-700h-10v700zM86 -60h10v-62l-23 -94h-10l23 96v60z" />
    <glyph glyph-name="ldot.square" horiz-adv-x="228" 
d="M86 700h10v-700h-10v700zM200 299v75h10v-75h-10z" />
    <glyph glyph-name="ncommaaccent.square" horiz-adv-x="578" 
d="M86 473h10v-142q7 29 24 56.5t42.5 48.5t58.5 34t71 13q46 0 83.5 -15t64.5 -42.5t42 -67t15 -87.5v-271h-10v270q0 46 -14 84t-39.5 64t-62 40.5t-80.5 14.5q-43 0 -78.5 -17t-61.5 -45t-40.5 -64t-14.5 -74v-273h-10v473zM298 -60h10v-62l-23 -94h-10l23 96v60z" />
    <glyph glyph-name="odieresis.square" horiz-adv-x="588" 
d="M536 237q0 -51 -19 -96t-52 -78.5t-77 -53t-94 -19.5t-94 19.5t-77 53t-52 78.5t-19 96t19 95.5t52 78t77 53t94 19.5t94 -19.5t77 -53t52 -78t19 -95.5zM526 237q0 49 -18 92t-49.5 75t-74 50.5t-90.5 18.5t-90.5 -18.5t-74 -50.5t-49.5 -75t-18 -92t18 -92t49.5 -75.5
t74 -51t90.5 -18.5t90.5 18.5t74 51t49.5 75.5t18 92zM229 588v75h10v-75h-10zM350 588v75h10v-75h-10z" />
    <glyph glyph-name="rcommaaccent.square" horiz-adv-x="317" 
d="M86 473h10v-156q7 33 23.5 62.5t41.5 52t56 36t67 13.5h11v-9h-11q-39 0 -73 -17t-59.5 -46.5t-40.5 -70t-15 -88.5v-250h-10v473zM86 -60h10v-62l-23 -94h-10l23 96v60z" />
    <glyph glyph-name="scommaaccent.square" horiz-adv-x="373" 
d="M190 -60h10v-62l-23 -94h-10l23 96v60zM56 111q6 -23 16.5 -43t27 -35t39.5 -24t52 -9q26 0 49.5 8.5t40.5 23.5t27 36.5t10 47.5q0 43 -27 70t-72 44l-62 25q-42 17 -68.5 45.5t-26.5 73.5q0 49 34.5 79t87.5 30q30 0 52.5 -9.5t37.5 -24t24.5 -32t14.5 -36.5l-9 -3
q-5 17 -14 34t-23 30.5t-34.5 22t-48.5 8.5q-48 0 -80 -27.5t-32 -71.5q0 -41 24 -67t63 -42l61 -25q23 -9 43 -20.5t34.5 -26t22.5 -33.5t8 -44q0 -55 -38.5 -90.5t-97.5 -35.5q-33 0 -58 9.5t-42.5 26.5t-28.5 38t-16 44z" />
    <glyph glyph-name="tcommaaccent.square" horiz-adv-x="291" 
d="M261 3q-6 -3 -22.5 -8t-36.5 -5q-45 0 -72 29t-27 89v356h-80v9h80v149h10v-149h144v-9h-144v-355q0 -56 24.5 -82.5t64.5 -26.5q19 0 33 4t26 10v-11zM166 -60h10v-62l-23 -94h-10l23 96v60z" />
    <glyph glyph-name="udieresis.square" horiz-adv-x="576" 
d="M490 0h-10v142q-7 -29 -24 -56.5t-42.5 -48.5t-58 -34t-70.5 -13q-45 0 -82.5 15t-64.5 42.5t-42 67t-15 87.5v271h10v-270q0 -47 14 -84.5t39.5 -63.5t61.5 -40.5t80 -14.5q42 0 78 17t61.5 45t40 64t14.5 74v273h10v-473zM221 588v75h10v-75h-10zM342 588v75h10v-75
h-10z" />
    <glyph glyph-name="wdieresis.square" horiz-adv-x="804" 
d="M576 0l-174 458l-174 -458h-12l-179 473h11l174 -462l175 462h10l175 -462l174 462h11l-179 -473h-12zM337 588v75h10v-75h-10zM458 588v75h10v-75h-10z" />
    <glyph glyph-name="ydieresis.square" horiz-adv-x="478" 
d="M88 -216q-22 0 -40 8v10q8 -4 18 -6.5t22 -2.5q38 0 61.5 25t45.5 78l45 108l-206 469h11l200 -456l188 456h11l-239 -579q-25 -60 -51 -85t-66 -25zM175 588v75h10v-75h-10zM296 588v75h10v-75h-10z" />
    <glyph glyph-name="ij.square" horiz-adv-x="373" 
d="M86 473h10v-473h-10v473zM86 664h10v-76h-10v76zM287 473v-561q0 -66 -27 -97t-74 -31q-18 0 -30 2.5t-23 7.5v11q8 -5 22 -8t31 -3q41 0 66 28.5t25 89.5v561h10zM277 664h10v-76h-10v76z" />
    <glyph glyph-name="zdotaccent.square" horiz-adv-x="436" 
d="M54 473h343v-5l-349 -459h355v-9h-370v6l348 458h-327v9zM227 588v75h10v-75h-10z" />
    <glyph glyph-name="i.square" horiz-adv-x="182" 
d="M86 473h10v-473h-10v473zM86 664h10v-76h-10v76z" />
    <glyph glyph-name="j.square" horiz-adv-x="191" 
d="M105 473v-561q0 -66 -27 -97t-74 -31q-18 0 -30 2.5t-23 7.5v11q8 -5 22 -8t31 -3q41 0 66 28.5t25 89.5v561h10zM95 664h10v-76h-10v76z" />
    <glyph glyph-name="aring.alt" horiz-adv-x="505" 
d="M212 -10q-68 0 -110.5 35.5t-42.5 91.5q0 128 163 143l192 18v44q0 72 -41.5 111.5t-118.5 39.5q-62 0 -106 -32t-61 -86l-10 3q18 57 65 91t112 34q81 0 125.5 -42.5t44.5 -118.5v-322h-10v142q-8 -29 -26 -56.5t-44 -48.5t-59.5 -34t-72.5 -13zM212 0q44 0 81 17t64 45
t42 64t15 74v69l-192 -18q-78 -8 -115.5 -42.5t-37.5 -91.5q0 -25 10.5 -46.5t29.5 -37t45.5 -24.5t57.5 -9zM335 646q0 -33 -24 -56t-57 -23t-57 23t-24 56t24 56t57 23t57 -23t24 -56zM325 646q0 28 -21.5 48.5t-49.5 20.5t-49.5 -20.5t-21.5 -48.5t21.5 -48.5t49.5 -20.5
t49.5 20.5t21.5 48.5z" />
    <glyph glyph-name="aacute.alt" horiz-adv-x="505" 
d="M228 581l92 131h11l-92 -131h-11zM212 -10q-68 0 -110.5 35.5t-42.5 91.5q0 128 163 143l192 18v44q0 72 -41.5 111.5t-118.5 39.5q-62 0 -106 -32t-61 -86l-10 3q18 57 65 91t112 34q81 0 125.5 -42.5t44.5 -118.5v-322h-10v142q-8 -29 -26 -56.5t-44 -48.5t-59.5 -34
t-72.5 -13zM212 0q44 0 81 17t64 45t42 64t15 74v69l-192 -18q-78 -8 -115.5 -42.5t-37.5 -91.5q0 -25 10.5 -46.5t29.5 -37t45.5 -24.5t57.5 -9z" />
    <glyph glyph-name="abreve.alt" horiz-adv-x="505" 
d="M254 594q42 0 72 30.5t30 82.5h10q0 -57 -32.5 -90t-79.5 -33t-79.5 33t-32.5 90h10q0 -52 30 -82.5t72 -30.5zM212 -10q-68 0 -110.5 35.5t-42.5 91.5q0 128 163 143l192 18v44q0 72 -41.5 111.5t-118.5 39.5q-62 0 -106 -32t-61 -86l-10 3q18 57 65 91t112 34
q81 0 125.5 -42.5t44.5 -118.5v-322h-10v142q-8 -29 -26 -56.5t-44 -48.5t-59.5 -34t-72.5 -13zM212 0q44 0 81 17t64 45t42 64t15 74v69l-192 -18q-78 -8 -115.5 -42.5t-37.5 -91.5q0 -25 10.5 -46.5t29.5 -37t45.5 -24.5t57.5 -9z" />
    <glyph glyph-name="acircumflex.alt" horiz-adv-x="505" 
d="M212 -10q-68 0 -110.5 35.5t-42.5 91.5q0 128 163 143l192 18v44q0 72 -41.5 111.5t-118.5 39.5q-62 0 -106 -32t-61 -86l-10 3q18 57 65 91t112 34q81 0 125.5 -42.5t44.5 -118.5v-322h-10v142q-8 -29 -26 -56.5t-44 -48.5t-59.5 -34t-72.5 -13zM212 0q44 0 81 17t64 45
t42 64t15 74v69l-192 -18q-78 -8 -115.5 -42.5t-37.5 -91.5q0 -25 10.5 -46.5t29.5 -37t45.5 -24.5t57.5 -9zM140 581l110 131h8l110 -131h-12l-102 121l-102 -121h-12z" />
    <glyph glyph-name="adieresis.alt" horiz-adv-x="505" 
d="M212 -10q-68 0 -110.5 35.5t-42.5 91.5q0 128 163 143l192 18v44q0 72 -41.5 111.5t-118.5 39.5q-62 0 -106 -32t-61 -86l-10 3q18 57 65 91t112 34q81 0 125.5 -42.5t44.5 -118.5v-322h-10v142q-8 -29 -26 -56.5t-44 -48.5t-59.5 -34t-72.5 -13zM212 0q44 0 81 17t64 45
t42 64t15 74v69l-192 -18q-78 -8 -115.5 -42.5t-37.5 -91.5q0 -25 10.5 -46.5t29.5 -37t45.5 -24.5t57.5 -9zM324 641q6 0 9.5 -4t3.5 -9t-3.5 -9t-9.5 -4t-9.5 4t-3.5 9t3.5 9t9.5 4zM184 641q6 0 9.5 -4t3.5 -9t-3.5 -9t-9.5 -4t-9.5 4t-3.5 9t3.5 9t9.5 4z" />
    <glyph glyph-name="adieresisalt.square" horiz-adv-x="505" 
d="M189 588v75h10v-75h-10zM310 588v75h10v-75h-10zM212 -10q-68 0 -110.5 35.5t-42.5 91.5q0 128 163 143l192 18v44q0 72 -41.5 111.5t-118.5 39.5q-62 0 -106 -32t-61 -86l-10 3q18 57 65 91t112 34q81 0 125.5 -42.5t44.5 -118.5v-322h-10v142q-8 -29 -26 -56.5
t-44 -48.5t-59.5 -34t-72.5 -13zM212 0q44 0 81 17t64 45t42 64t15 74v69l-192 -18q-78 -8 -115.5 -42.5t-37.5 -91.5q0 -25 10.5 -46.5t29.5 -37t45.5 -24.5t57.5 -9z" />
    <glyph glyph-name="agrave.alt" horiz-adv-x="505" 
d="M264 581l-92 131h11l92 -131h-11zM212 -10q-68 0 -110.5 35.5t-42.5 91.5q0 128 163 143l192 18v44q0 72 -41.5 111.5t-118.5 39.5q-62 0 -106 -32t-61 -86l-10 3q18 57 65 91t112 34q81 0 125.5 -42.5t44.5 -118.5v-322h-10v142q-8 -29 -26 -56.5t-44 -48.5t-59.5 -34
t-72.5 -13zM212 0q44 0 81 17t64 45t42 64t15 74v69l-192 -18q-78 -8 -115.5 -42.5t-37.5 -91.5q0 -25 10.5 -46.5t29.5 -37t45.5 -24.5t57.5 -9z" />
    <glyph glyph-name="amacron.alt" horiz-adv-x="505" 
d="M145 619v9h216v-9h-216zM212 -10q-68 0 -110.5 35.5t-42.5 91.5q0 128 163 143l192 18v44q0 72 -41.5 111.5t-118.5 39.5q-62 0 -106 -32t-61 -86l-10 3q18 57 65 91t112 34q81 0 125.5 -42.5t44.5 -118.5v-322h-10v142q-8 -29 -26 -56.5t-44 -48.5t-59.5 -34t-72.5 -13z
M212 0q44 0 81 17t64 45t42 64t15 74v69l-192 -18q-78 -8 -115.5 -42.5t-37.5 -91.5q0 -25 10.5 -46.5t29.5 -37t45.5 -24.5t57.5 -9z" />
    <glyph glyph-name="aogonek.alt" horiz-adv-x="505" 
d="M212 -10q-68 0 -110.5 35.5t-42.5 91.5q0 128 163 143l192 18v44q0 72 -41.5 111.5t-118.5 39.5q-62 0 -106 -32t-61 -86l-10 3q18 57 65 91t112 34q81 0 125.5 -42.5t44.5 -118.5v-322q-69 -23 -109 -56t-40 -72q0 -29 20 -45t50 -16q40 0 73 22v-11q-32 -21 -73 -21
q-36 0 -58 19t-22 51q0 43 40 77t109 57v137q-8 -29 -26 -56.5t-44 -48.5t-59.5 -34t-72.5 -13zM212 0q44 0 81 17t64 45t42 64t15 74v69l-192 -18q-78 -8 -115.5 -42.5t-37.5 -91.5q0 -25 10.5 -46.5t29.5 -37t45.5 -24.5t57.5 -9z" />
    <glyph glyph-name="atilde.alt" horiz-adv-x="505" 
d="M314 593q-24 0 -38.5 10.5t-26.5 23.5t-25 23.5t-34 10.5q-26 0 -41 -17t-16 -48h-10q1 35 19 55t47 20q24 0 38.5 -10.5t26.5 -23.5t25 -23.5t34 -10.5q26 0 41 17t16 48h10q-1 -35 -19 -55t-47 -20zM212 -10q-68 0 -110.5 35.5t-42.5 91.5q0 128 163 143l192 18v44
q0 72 -41.5 111.5t-118.5 39.5q-62 0 -106 -32t-61 -86l-10 3q18 57 65 91t112 34q81 0 125.5 -42.5t44.5 -118.5v-322h-10v142q-8 -29 -26 -56.5t-44 -48.5t-59.5 -34t-72.5 -13zM212 0q44 0 81 17t64 45t42 64t15 74v69l-192 -18q-78 -8 -115.5 -42.5t-37.5 -91.5
q0 -25 10.5 -46.5t29.5 -37t45.5 -24.5t57.5 -9z" />
    <glyph glyph-name="tbar.alt" horiz-adv-x="230" 
d="M13 267h95v197h-95v9h95v149h10v-149h104v-9h-104v-197h104v-9h-104v-258h-10v258h-95v9z" />
    <glyph glyph-name="tcaron.alt" horiz-adv-x="230" 
d="M205 554l23 155h10l-23 -155h-10zM108 464h-95v9h95v149h10v-149h104v-9h-104v-464h-10v464z" />
    <glyph glyph-name="tcommaaccent.alt" horiz-adv-x="230" 
d="M108 464h-95v9h95v149h10v-149h104v-9h-104v-464h-10v464zM99 -75q0 6 4 10t10 4t10 -4t4 -10q0 -2 -2 -12l-26 -104h-10l25 103q-7 0 -11 3.5t-4 9.5z" />
    <glyph glyph-name="tcommaaccentalt.square" horiz-adv-x="230" 
d="M108 -60h10v-62l-23 -94h-10l23 96v60zM108 464h-95v9h95v149h10v-149h104v-9h-104v-464h-10v464z" />
    <glyph glyph-name="uacute.alt" horiz-adv-x="562" 
d="M253 581l92 131h11l-92 -131h-11zM281 -10q-45 0 -82 15t-63.5 42.5t-40.5 67t-14 88.5v270h10v-270q0 -47 13.5 -84.5t38.5 -63.5t60 -40.5t78 -14.5t78 14.5t60 40.5t38.5 63.5t13.5 84.5v270h10v-270q0 -49 -14 -88.5t-40.5 -67t-63.5 -42.5t-82 -15z" />
    <glyph glyph-name="ubreve.alt" horiz-adv-x="562" 
d="M281 594q42 0 72 30.5t30 82.5h10q0 -57 -32.5 -90t-79.5 -33t-79.5 33t-32.5 90h10q0 -52 30 -82.5t72 -30.5zM281 -10q-45 0 -82 15t-63.5 42.5t-40.5 67t-14 88.5v270h10v-270q0 -47 13.5 -84.5t38.5 -63.5t60 -40.5t78 -14.5t78 14.5t60 40.5t38.5 63.5t13.5 84.5
v270h10v-270q0 -49 -14 -88.5t-40.5 -67t-63.5 -42.5t-82 -15z" />
    <glyph glyph-name="ucircumflex.alt" horiz-adv-x="562" 
d="M281 -10q-45 0 -82 15t-63.5 42.5t-40.5 67t-14 88.5v270h10v-270q0 -47 13.5 -84.5t38.5 -63.5t60 -40.5t78 -14.5t78 14.5t60 40.5t38.5 63.5t13.5 84.5v270h10v-270q0 -49 -14 -88.5t-40.5 -67t-63.5 -42.5t-82 -15zM167 581l110 131h8l110 -131h-12l-102 121
l-102 -121h-12z" />
    <glyph glyph-name="udieresis.alt" horiz-adv-x="562" 
d="M281 -10q-45 0 -82 15t-63.5 42.5t-40.5 67t-14 88.5v270h10v-270q0 -47 13.5 -84.5t38.5 -63.5t60 -40.5t78 -14.5t78 14.5t60 40.5t38.5 63.5t13.5 84.5v270h10v-270q0 -49 -14 -88.5t-40.5 -67t-63.5 -42.5t-82 -15zM351 641q6 0 9.5 -4t3.5 -9t-3.5 -9t-9.5 -4
t-9.5 4t-3.5 9t3.5 9t9.5 4zM211 641q6 0 9.5 -4t3.5 -9t-3.5 -9t-9.5 -4t-9.5 4t-3.5 9t3.5 9t9.5 4z" />
    <glyph glyph-name="udieresisalt.square" horiz-adv-x="562" 
d="M216 588v75h10v-75h-10zM337 588v75h10v-75h-10zM281 -10q-45 0 -82 15t-63.5 42.5t-40.5 67t-14 88.5v270h10v-270q0 -47 13.5 -84.5t38.5 -63.5t60 -40.5t78 -14.5t78 14.5t60 40.5t38.5 63.5t13.5 84.5v270h10v-270q0 -49 -14 -88.5t-40.5 -67t-63.5 -42.5t-82 -15z
" />
    <glyph glyph-name="ugrave.alt" horiz-adv-x="562" 
d="M298 581l-92 131h11l92 -131h-11zM281 -10q-45 0 -82 15t-63.5 42.5t-40.5 67t-14 88.5v270h10v-270q0 -47 13.5 -84.5t38.5 -63.5t60 -40.5t78 -14.5t78 14.5t60 40.5t38.5 63.5t13.5 84.5v270h10v-270q0 -49 -14 -88.5t-40.5 -67t-63.5 -42.5t-82 -15z" />
    <glyph glyph-name="uhungarumlaut.alt" horiz-adv-x="562" 
d="M203 581l84 131h11l-84 -131h-11zM332 581l84 131h11l-84 -131h-11zM281 -10q-45 0 -82 15t-63.5 42.5t-40.5 67t-14 88.5v270h10v-270q0 -47 13.5 -84.5t38.5 -63.5t60 -40.5t78 -14.5t78 14.5t60 40.5t38.5 63.5t13.5 84.5v270h10v-270q0 -49 -14 -88.5t-40.5 -67
t-63.5 -42.5t-82 -15z" />
    <glyph glyph-name="umacron.alt" horiz-adv-x="562" 
d="M281 -10q-45 0 -82 15t-63.5 42.5t-40.5 67t-14 88.5v270h10v-270q0 -47 13.5 -84.5t38.5 -63.5t60 -40.5t78 -14.5t78 14.5t60 40.5t38.5 63.5t13.5 84.5v270h10v-270q0 -49 -14 -88.5t-40.5 -67t-63.5 -42.5t-82 -15zM173 619v9h216v-9h-216z" />
    <glyph glyph-name="uogonek.alt" horiz-adv-x="562" 
d="M281 -10q-45 0 -82 15t-63.5 42.5t-40.5 67t-14 88.5v270h10v-270q0 -47 13.5 -84.5t38.5 -63.5t60 -40.5t78 -14.5t78 14.5t60 40.5t38.5 63.5t13.5 84.5v270h10v-270q0 -72 -30.5 -123t-83.5 -74q-69 -31 -100.5 -61.5t-31.5 -69.5q0 -32 20 -48t50 -16q40 0 73 22v-11
q-32 -21 -73 -21q-37 0 -58.5 19.5t-21.5 53.5q0 25 9.5 44.5t24.5 34t32.5 25t33.5 18.5q-10 -3 -22 -4.5t-22 -1.5z" />
    <glyph glyph-name="uring.alt" horiz-adv-x="562" 
d="M362 646q0 -33 -24 -56t-57 -23t-57 23t-24 56t24 56t57 23t57 -23t24 -56zM352 646q0 28 -21.5 48.5t-49.5 20.5t-49.5 -20.5t-21.5 -48.5t21.5 -48.5t49.5 -20.5t49.5 20.5t21.5 48.5zM281 -10q-45 0 -82 15t-63.5 42.5t-40.5 67t-14 88.5v270h10v-270
q0 -47 13.5 -84.5t38.5 -63.5t60 -40.5t78 -14.5t78 14.5t60 40.5t38.5 63.5t13.5 84.5v270h10v-270q0 -49 -14 -88.5t-40.5 -67t-63.5 -42.5t-82 -15z" />
    <glyph glyph-name="utilde.alt" horiz-adv-x="562" 
d="M342 593q-24 0 -38.5 10.5t-26.5 23.5t-25 23.5t-34 10.5q-26 0 -41 -17t-16 -48h-10q1 35 19 55t47 20q24 0 38.5 -10.5t26.5 -23.5t25 -23.5t34 -10.5q26 0 41 17t16 48h10q-1 -35 -19 -55t-47 -20zM281 -10q-45 0 -82 15t-63.5 42.5t-40.5 67t-14 88.5v270h10v-270
q0 -47 13.5 -84.5t38.5 -63.5t60 -40.5t78 -14.5t78 14.5t60 40.5t38.5 63.5t13.5 84.5v270h10v-270q0 -49 -14 -88.5t-40.5 -67t-63.5 -42.5t-82 -15z" />
    <glyph glyph-name="ordfeminine.alt" horiz-adv-x="404" 
d="M171 292q-52 0 -86 27.5t-34 70.5q0 100 129 112l145 14v33q0 54 -32.5 83.5t-90.5 29.5q-48 0 -81.5 -24t-47.5 -63l-9 3q14 42 50.5 68t87.5 26q63 0 98 -32.5t35 -90.5v-250h-10v103q-6 -21 -19.5 -40.5t-33 -35t-45.5 -25t-56 -9.5zM172 302q31 0 59 11.5t49 31.5
t33 46.5t12 56.5v58l-144 -14q-60 -6 -89.5 -32.5t-29.5 -69.5q0 -38 31 -63t79 -25z" />
    <glyph glyph-name="a.superior" horiz-adv-x="491" 
d="M40 482q0 39 14.5 74t40 60.5t59.5 40.5t73 15q35 0 65 -11.5t53.5 -30.5t39.5 -44t22 -52v131h10v-366h-10v131q-6 -27 -22 -52t-39.5 -44t-53.5 -30.5t-65 -11.5q-39 0 -73 15t-59.5 40.5t-40 60.5t-14.5 74zM50 482q0 -37 13.5 -70t37.5 -57.5t56.5 -38.5t69.5 -14
t70 14t57.5 38.5t38.5 57t14 69.5t-14 70t-38 58t-57 39t-71 14q-37 0 -69.5 -14t-56.5 -38.5t-37.5 -57.5t-13.5 -70z" />
    <glyph glyph-name="b.superior" horiz-adv-x="496" 
d="M451 482q0 -39 -14.5 -74t-40 -60.5t-59.5 -40.5t-73 -15q-35 0 -65 11.5t-53.5 30.5t-39.5 44t-22 52v-131h-10v525h10v-290q6 27 22 52t39.5 44t53.5 30.5t65 11.5q39 0 73 -15t59.5 -40.5t40 -60.5t14.5 -74zM441 482q0 37 -13.5 70t-37.5 57.5t-56.5 38.5t-69.5 14
q-38 0 -71 -14t-57 -39t-38 -58t-14 -70t14 -69.5t38.5 -57t57 -38.5t70.5 -14q37 0 69.5 14t56.5 38.5t37.5 57.5t13.5 70z" />
    <glyph glyph-name="c.superior" horiz-adv-x="387" 
d="M227 292q-39 0 -73 15t-59.5 40.5t-40 60.5t-14.5 74t14.5 73.5t40 60.5t59.5 41t73 15q64 0 112 -37v-12q-23 18 -51 28.5t-60 10.5q-37 0 -69.5 -14.5t-56.5 -39t-38 -57t-14 -69.5t14 -70t38 -57.5t56.5 -38.5t69.5 -14q32 0 60 10.5t51 28.5v-12q-48 -37 -112 -37z
" />
    <glyph glyph-name="d.superior" horiz-adv-x="491" 
d="M40 482q0 39 14.5 74t40 60.5t59.5 40.5t73 15q35 0 65 -11.5t53.5 -30.5t39.5 -44t22 -52v290h10v-525h-10v131q-6 -27 -22 -52t-39.5 -44t-53.5 -30.5t-65 -11.5q-39 0 -73 15t-59.5 40.5t-40 60.5t-14.5 74zM50 482q0 -37 13.5 -70t37.5 -57.5t56.5 -38.5t69.5 -14
t70 14t57.5 38.5t38.5 57t14 69.5t-14 70t-38 58t-57 39t-71 14q-37 0 -69.5 -14t-56.5 -38.5t-37.5 -57.5t-13.5 -70z" />
    <glyph glyph-name="e.superior" horiz-adv-x="434" 
d="M220 292q-39 0 -72 14t-57 39.5t-37.5 60t-13.5 76.5t13 76.5t37 60t57 39.5t72 14t71 -14t55.5 -39t36.5 -59.5t13 -74.5v-1h-345v-3q0 -39 13 -72t35.5 -56.5t53.5 -37t68 -13.5q51 0 90 25t60 67l9 -4q-23 -45 -64.5 -71.5t-94.5 -26.5zM385 493q-1 36 -14 67
t-34.5 53.5t-51.5 35.5t-66 13t-66 -12.5t-52.5 -35t-36 -53.5t-14.5 -68h335z" />
    <glyph glyph-name="f.superior" horiz-adv-x="222" 
d="M20 665h62v69q0 51 23.5 74t58.5 23q17 0 30 -4.5t23 -10.5v-12q-6 5 -19.5 11t-33.5 6q-31 0 -51.5 -21.5t-20.5 -67.5v-67h106v-9h-106v-357h-10v357h-62v9z" />
    <glyph glyph-name="g.superior" horiz-adv-x="496" 
d="M422 315q0 -39 -12 -72t-35.5 -57t-58 -38t-80.5 -14q-63 0 -108 25.5t-64 70.5l9 4q19 -42 61 -66t102 -24q42 0 75 13t55.5 36t34 54.5t11.5 67.5v115q-6 -27 -22 -52t-39.5 -44t-53.5 -30.5t-65 -11.5q-39 0 -73 15t-59.5 40.5t-40 60.5t-14.5 74t14.5 74t40 60.5
t59.5 40.5t73 15q35 0 65 -11.5t53.5 -30.5t39.5 -44t22 -52v131h10v-350zM55 482q0 -37 13.5 -70t37.5 -57.5t56.5 -38.5t69.5 -14t70 14t57.5 38.5t38.5 57t14 69.5t-14 70t-38 58t-57 39t-71 14q-37 0 -69.5 -14t-56.5 -38.5t-37.5 -57.5t-13.5 -70z" />
    <glyph glyph-name="h.superior" horiz-adv-x="464" 
d="M74 824h10v-268q6 23 19.5 44t33 37t44.5 25.5t54 9.5q36 0 65.5 -11.5t50.5 -33.5t32.5 -52.5t11.5 -67.5v-208h-10v208q0 71 -41 113t-109 42q-32 0 -59.5 -12t-47.5 -33.5t-32 -50.5t-12 -63v-204h-10v525z" />
    <glyph glyph-name="i.superior" horiz-adv-x="158" 
d="M74 299v366h10v-366h-10zM79 790q11 0 11 -11t-11 -11t-11 11t11 11z" />
    <glyph glyph-name="j.superior" horiz-adv-x="138" 
d="M64 229q0 -50 -22 -72.5t-57 -22.5q-14 0 -23.5 2t-17.5 5v11q6 -2 16.5 -5t24.5 -3q31 0 50 20.5t19 65.5v435h10v-436zM59 792q11 0 11 -11t-11 -11t-11 11t11 11z" />
    <glyph glyph-name="k.superior" horiz-adv-x="363" 
d="M74 824h10v-345l214 186h13l-175 -153l202 -213h-13l-196 207l-45 -39v-168h-10v525z" />
    <glyph glyph-name="l.superior" horiz-adv-x="158" 
d="M74 824h10v-525h-10v525z" />
    <glyph glyph-name="m.superior" horiz-adv-x="723" 
d="M74 665h10v-108q5 22 17.5 43t30.5 37t41 25.5t49 9.5q59 0 96.5 -33.5t47.5 -90.5q4 24 16.5 46.5t31.5 39.5t43.5 27.5t51.5 10.5q33 0 59.5 -11t45.5 -31t29.5 -48.5t10.5 -62.5v-220h-10v220q0 66 -37 105t-99 39q-29 0 -54.5 -12.5t-44 -33.5t-29.5 -50t-11 -62
v-206h-10v214q0 69 -37 109.5t-100 40.5q-29 0 -54 -12.5t-43.5 -34t-29.5 -51t-11 -63.5v-203h-10v366z" />
    <glyph glyph-name="o.superior" horiz-adv-x="454" 
d="M414 482q0 -39 -14.5 -74t-40 -60.5t-59.5 -40.5t-73 -15t-73 15t-59.5 40.5t-40 60.5t-14.5 74t14.5 74t40 60.5t59.5 40.5t73 15t73 -15t59.5 -40.5t40 -60.5t14.5 -74zM403 482q0 37 -14 70t-38 57.5t-56 38.5t-68 14t-68 -14t-56 -38.5t-38 -57.5t-14 -70t14 -70
t38 -57.5t56 -38.5t68 -14t68 14t56 38.5t38 57.5t14 70z" />
    <glyph glyph-name="p.superior" horiz-adv-x="496" 
d="M451 482q0 -39 -14.5 -74t-40 -60.5t-59.5 -40.5t-73 -15q-35 0 -65 11.5t-53.5 30.5t-39.5 44t-22 52v-286h-10v521h10v-131q6 27 22 52t39.5 44t53.5 30.5t65 11.5q39 0 73 -15t59.5 -40.5t40 -60.5t14.5 -74zM441 482q0 37 -13.5 70t-37.5 57.5t-56.5 38.5t-69.5 14
q-38 0 -71 -14t-57 -39t-38 -58t-14 -70t14 -69.5t38.5 -57t57 -38.5t70.5 -14q37 0 69.5 14t56.5 38.5t37.5 57.5t13.5 70z" />
    <glyph glyph-name="q.superior" horiz-adv-x="491" 
d="M40 482q0 39 14.5 74t40 60.5t59.5 40.5t73 15q35 0 65 -11.5t53.5 -30.5t39.5 -44t22 -52v131h10v-521h-10v286q-6 -27 -22 -52t-39.5 -44t-53.5 -30.5t-65 -11.5q-39 0 -73 15t-59.5 40.5t-40 60.5t-14.5 74zM50 482q0 -37 13.5 -70t37.5 -57.5t56.5 -38.5t69.5 -14
t70 14t57.5 38.5t38.5 57t14 69.5t-14 70t-38 58t-57 39t-71 14q-37 0 -69.5 -14t-56.5 -38.5t-37.5 -57.5t-13.5 -70z" />
    <glyph glyph-name="r.superior" horiz-adv-x="252" 
d="M74 665h10v-116q5 25 18 47t31.5 38.5t42.5 26.5t51 10h11v-9h-11q-30 0 -56 -13t-45.5 -35.5t-30.5 -54.5t-11 -69v-191h-10v366z" />
    <glyph glyph-name="s.superior" horiz-adv-x="303" 
d="M156 292q-45 0 -75 23t-41 66l10 2q9 -37 37 -59t67 -22q42 0 71 24.5t29 62.5q0 29 -17 48t-47 32l-75 32q-29 12 -45 34.5t-16 51.5q0 38 26.5 61.5t68.5 23.5q38 0 65.5 -20.5t35.5 -58.5l-10 -2q-7 32 -31 51.5t-60 19.5q-37 0 -61 -20.5t-24 -54.5q0 -25 14 -45
t40 -31l75 -32q38 -17 54.5 -38.5t16.5 -50.5q0 -45 -30 -71.5t-78 -26.5z" />
    <glyph glyph-name="t.superior" horiz-adv-x="230" 
d="M158 292q-34 0 -56 21.5t-22 67.5v275h-60v9h60v99h10v-99h111v-9h-111v-273q0 -41 19.5 -61t49.5 -20q14 0 26 3.5t19 6.5v-11q-9 -4 -20 -6.5t-26 -2.5z" />
    <glyph glyph-name="u.superior" horiz-adv-x="462" 
d="M388 299h-10v109q-6 -23 -19.5 -44t-33 -37t-44.5 -25.5t-53 -9.5q-36 0 -65 11.5t-50 33.5t-32.5 52t-11.5 68v208h10v-208q0 -71 40.5 -113t108.5 -42q31 0 58.5 12t47.5 33.5t32 50.5t12 63v204h10v-366z" />
    <glyph glyph-name="v.superior" horiz-adv-x="378" 
d="M29 665h11l149 -353l149 353h11l-155 -366h-10z" />
    <glyph glyph-name="w.superior" horiz-adv-x="630" 
d="M32 665h10l135 -353l133 353h10l133 -353l135 353h10l-140 -366h-10l-133 353l-133 -353h-10z" />
    <glyph glyph-name="x.superior" horiz-adv-x="360" 
d="M174 487l-137 178h11l132 -171l132 171h11l-138 -178l146 -188h-11l-140 181l-140 -181h-11z" />
    <glyph glyph-name="y.superior" horiz-adv-x="378" 
d="M73 134q-19 0 -32 6v11q14 -7 32 -7q29 0 46.5 20t34.5 57l35 81l-160 363h11l154 -350l144 350h11l-185 -445q-19 -45 -40 -65.5t-51 -20.5z" />
    <glyph glyph-name="z.superior" horiz-adv-x="344" 
d="M50 665h261v-5l-268 -352h272v-9h-286v6l267 351h-246v9z" />
    <glyph glyph-name="aalt.superior" horiz-adv-x="404" 
d="M171 292q-52 0 -86 27.5t-34 70.5q0 100 129 112l145 14v33q0 54 -32.5 83.5t-90.5 29.5q-48 0 -81.5 -24t-47.5 -63l-9 3q14 42 50.5 68t87.5 26q63 0 98 -32.5t35 -90.5v-250h-10v103q-6 -21 -19.5 -40.5t-33 -35t-45.5 -25t-56 -9.5zM172 302q31 0 59 11.5t49 31.5
t33 46.5t12 56.5v58l-144 -14q-60 -6 -89.5 -32.5t-29.5 -69.5q0 -38 31 -63t79 -25z" />
    <glyph glyph-name="talt.superior" horiz-adv-x="181" 
d="M85 656h-73v9h73v99h10v-99h79v-9h-79v-357h-10v357z" />
    <glyph glyph-name="ualt.superior" horiz-adv-x="449" 
d="M224 292q-70 0 -112.5 44.5t-42.5 119.5v209h10v-208q0 -71 39.5 -113t105.5 -42q67 0 106.5 42t39.5 113v208h10v-209q0 -75 -42.5 -119.5t-113.5 -44.5z" />
    <glyph glyph-name="isquare.superior" horiz-adv-x="158" 
d="M74 665h10v-366h-10v366zM74 797h10v-56h-10v56z" />
    <glyph glyph-name="jsquare.superior" horiz-adv-x="138" 
d="M54 797h10v-56h-10v56zM64 229q0 -50 -22 -72.5t-57 -22.5q-14 0 -23.5 2t-17.5 5v11q6 -2 16.5 -5t24.5 -3q31 0 50 20.5t19 65.5v435h10v-436z" />
    <glyph glyph-name="caronSlovak" horiz-adv-x="500" 
d="M232 554l23 155h10l-23 -155h-10z" />
    <glyph glyph-name="commaaccent.square" horiz-adv-x="500" 
d="M256 -60h10v-62l-23 -94h-10l23 96v60z" />
    <glyph glyph-name="dieresis.square" horiz-adv-x="500" 
d="M184 588v75h10v-75h-10zM305 588v75h10v-75h-10z" />
    <glyph glyph-name="dotaccent.square" horiz-adv-x="500" 
d="M245 588v75h10v-75h-10z" />
    <glyph glyph-name="uni0312.square" horiz-adv-x="500" 
d="M265 712l-20 -82v-61h-10v62l20 81h10z" />
    <glyph glyph-name="acute.cap" horiz-adv-x="500" 
d="M199 758l92 131h11l-92 -131h-11z" />
    <glyph glyph-name="breve.cap" horiz-adv-x="500" 
d="M250 771q42 0 72 30.5t30 82.5h10q0 -57 -32.5 -90t-79.5 -33t-79.5 33t-32.5 90h10q0 -52 30 -82.5t72 -30.5z" />
    <glyph glyph-name="caron.cap" horiz-adv-x="500" 
d="M364 889l-110 -131h-8l-110 131h12l102 -121l102 121h12z" />
    <glyph glyph-name="circumflex.cap" horiz-adv-x="500" 
d="M136 758l110 131h8l110 -131h-12l-102 121l-102 -121h-12z" />
    <glyph glyph-name="dieresis.cap" horiz-adv-x="500" 
d="M320 838q6 0 9.5 -4t3.5 -9t-3.5 -9t-9.5 -4t-9.5 4t-3.5 9t3.5 9t9.5 4zM180 838q6 0 9.5 -4t3.5 -9t-3.5 -9t-9.5 -4t-9.5 4t-3.5 9t3.5 9t9.5 4z" />
    <glyph glyph-name="dieresiscap.square" horiz-adv-x="500" 
d="M184 796v60h10v-60h-10zM305 796v60h10v-60h-10z" />
    <glyph glyph-name="dotaccent.cap" horiz-adv-x="500" 
d="M250 838q6 0 9.5 -4t3.5 -9t-3.5 -9t-9.5 -4t-9.5 4t-3.5 9t3.5 9t9.5 4z" />
    <glyph glyph-name="dotaccentcap.square" horiz-adv-x="500" 
d="M245 796v60h10v-60h-10z" />
    <glyph glyph-name="grave.cap" horiz-adv-x="500" 
d="M291 758l-92 131h11l92 -131h-11z" />
    <glyph glyph-name="hungarumlaut.cap" horiz-adv-x="500" 
d="M138 758l84 131h11l-84 -131h-11zM267 758l84 131h11l-84 -131h-11z" />
    <glyph glyph-name="macron.cap" horiz-adv-x="500" 
d="M142 819v9h216v-9h-216z" />
    <glyph glyph-name="ring.cap" horiz-adv-x="500" 
d="M331 823q0 -33 -24 -56t-57 -23t-57 23t-24 56t24 56t57 23t57 -23t24 -56zM321 823q0 28 -21.5 48.5t-49.5 20.5t-49.5 -20.5t-21.5 -48.5t21.5 -48.5t49.5 -20.5t49.5 20.5t21.5 48.5z" />
    <glyph glyph-name="tilde.cap" horiz-adv-x="500" 
d="M315 785q-24 0 -38.5 10.5t-26.5 23.5t-25 23.5t-34 10.5q-26 0 -41 -17t-16 -48h-10q1 35 19 55t47 20q24 0 38.5 -10.5t26.5 -23.5t25 -23.5t34 -10.5q26 0 41 17t16 48h10q-1 -35 -19 -55t-47 -20z" />
    <glyph glyph-name="period.square" horiz-adv-x="166" 
d="M78 0v80h10v-80h-10z" />
    <glyph glyph-name="comma.square" horiz-adv-x="166" 
d="M78 80h10v-82l-26 -106h-10l26 108v80z" />
    <glyph glyph-name="colon.square" horiz-adv-x="166" 
d="M78 0v80h10v-80h-10zM78 360v80h10v-80h-10z" />
    <glyph glyph-name="semicolon.square" horiz-adv-x="166" 
d="M78 360v80h10v-80h-10zM78 80h10v-82l-26 -106h-10l26 108v80z" />
    <glyph glyph-name="ellipsis.square" horiz-adv-x="536" 
d="M78 0v80h10v-80h-10zM263 0v80h10v-80h-10zM448 0v80h10v-80h-10z" />
    <glyph glyph-name="exclamdown.cap" horiz-adv-x="192" 
d="M91 545h10v-545h-10v545zM96 709q6 0 10 -4t4 -10t-4 -10t-10 -4t-10 4t-4 10t4 10t10 4z" />
    <glyph glyph-name="questiondown.cap" horiz-adv-x="488" 
d="M437 191q0 -38 -13.5 -74t-38.5 -64t-60.5 -44.5t-79.5 -16.5q-41 0 -76.5 13.5t-61.5 37.5t-41 57t-15 72q0 48 25.5 88.5t64.5 78.5q21 20 38 38.5t29.5 38t19.5 42t7 50.5v37h10v-37q0 -27 -5.5 -48.5t-17.5 -41.5t-30.5 -40.5t-43.5 -45.5q-38 -38 -62.5 -75.5
t-24.5 -84.5q0 -37 14.5 -68t39 -53.5t58 -35.5t72.5 -13q42 0 75.5 16t57 42.5t36.5 60.5t13 70h10zM239 709q6 0 10 -4t4 -10t-4 -10t-10 -4t-10 4t-4 10t4 10t10 4z" />
    <glyph glyph-name="exclam.square" horiz-adv-x="192" 
d="M91 0v80h10v-80h-10zM91 700h10v-543h-10v543z" />
    <glyph glyph-name="exclamdown.square" horiz-adv-x="192" 
d="M91 393v80h10v-80h-10zM101 -207h-10v526h10v-526z" />
    <glyph glyph-name="exclamdowncap.square" horiz-adv-x="192" 
d="M91 620v80h10v-80h-10zM91 545h10v-545h-10v545z" />
    <glyph glyph-name="question.square" horiz-adv-x="488" 
d="M243 0v80h10v-80h-10zM51 510q0 38 13.5 74t38.5 63.5t60.5 44.5t79.5 17q41 0 76.5 -13.5t61.5 -37.5t41 -57t15 -72q0 -48 -25.5 -88.5t-64.5 -78.5q-21 -20 -38 -38.5t-29.5 -38t-19.5 -42t-7 -50.5v-36h-10v36q0 27 5.5 48.5t17.5 41.5t30.5 40.5t43.5 45.5
q38 38 62.5 75.5t24.5 84.5q0 37 -14.5 68t-39 53.5t-58 35.5t-72.5 13q-42 0 -75.5 -16t-57 -42.5t-36.5 -60.5t-13 -70h-10z" />
    <glyph glyph-name="questiondown.square" horiz-adv-x="488" 
d="M235 393v80h10v-80h-10zM437 -17q0 -38 -13.5 -74t-38.5 -64t-60.5 -44.5t-79.5 -16.5q-41 0 -76.5 13.5t-61.5 37.5t-41 57t-15 72q0 48 25.5 88.5t64.5 78.5q21 20 38 38.5t29.5 38t19.5 42t7 50.5v19h10v-19q0 -27 -5.5 -48.5t-17.5 -41.5t-30.5 -40.5t-43.5 -45.5
q-38 -38 -62.5 -75.5t-24.5 -84.5q0 -37 14.5 -68t39 -53.5t58 -35.5t72.5 -13q42 0 75.5 16t57 42.5t36.5 60.5t13 70h10z" />
    <glyph glyph-name="questiondowncap.square" horiz-adv-x="488" 
d="M235 620v80h10v-80h-10zM437 191q0 -38 -13.5 -74t-38.5 -64t-60.5 -44.5t-79.5 -16.5q-41 0 -76.5 13.5t-61.5 37.5t-41 57t-15 72q0 48 25.5 88.5t64.5 78.5q21 20 38 38.5t29.5 38t19.5 42t7 50.5v37h10v-37q0 -27 -5.5 -48.5t-17.5 -41.5t-30.5 -40.5t-43.5 -45.5
q-38 -38 -62.5 -75.5t-24.5 -84.5q0 -37 14.5 -68t39 -53.5t58 -35.5t72.5 -13q42 0 75.5 16t57 42.5t36.5 60.5t13 70h10z" />
    <glyph glyph-name="reversequoteleft" horiz-adv-x="126" 
d="M82 579h-10l-26 104q-1 4 -1.5 6.5t-0.5 5.5q0 14 14 14t14 -14q0 -13 -15 -13z" />
    <glyph glyph-name="reversequotedblleft" horiz-adv-x="209" 
d="M165 579h-10l-26 104q-1 4 -1.5 6.5t-0.5 5.5q0 14 14 14t14 -14q0 -13 -15 -13zM82 579h-10l-26 104q-1 4 -1.5 6.5t-0.5 5.5q0 14 14 14t14 -14q0 -13 -15 -13z" />
    <glyph glyph-name="quoteleft.square" horiz-adv-x="124" 
d="M57 512h-10v82l26 106h10l-26 -108v-80z" />
    <glyph glyph-name="quoteright.square" horiz-adv-x="124" 
d="M67 700h10v-82l-26 -106h-10l26 108v80z" />
    <glyph glyph-name="quotedblleft.square" horiz-adv-x="202" 
d="M57 512h-10v82l26 106h10l-26 -108v-80zM135 512h-10v82l26 106h10l-26 -108v-80z" />
    <glyph glyph-name="quotedblright.square" horiz-adv-x="202" 
d="M67 700h10v-82l-26 -106h-10l26 108v80zM145 700h10v-82l-26 -106h-10l26 108v80z" />
    <glyph glyph-name="quotesinglbase.square" horiz-adv-x="132" 
d="M64 80h10v-82l-26 -106h-10l26 108v80z" />
    <glyph glyph-name="quotedblbase.square" horiz-adv-x="210" 
d="M64 80h10v-82l-26 -106h-10l26 108v80zM142 80h10v-82l-26 -106h-10l26 108v80z" />
    <glyph glyph-name="reversequoteleft.square" horiz-adv-x="132" 
d="M94 512h-10l-26 106v82h10v-80z" />
    <glyph glyph-name="reversequotedblleft.square" horiz-adv-x="210" 
d="M94 512h-10l-26 106v82h10v-80zM172 512h-10l-26 106v82h10v-80z" />
    <glyph glyph-name="guilsinglleft.cap" horiz-adv-x="231" 
d="M45 345l133 202h11l-133 -202l133 -202h-11z" />
    <glyph glyph-name="guilsinglright.cap" horiz-adv-x="231" 
d="M175 345l-133 202h11l133 -202l-133 -202h-10z" />
    <glyph glyph-name="guillemotleft.cap" horiz-adv-x="353" 
d="M45 345l133 202h11l-133 -202l133 -202h-11zM167 345l133 202h11l-133 -202l133 -202h-11z" />
    <glyph glyph-name="guillemotright.cap" horiz-adv-x="353" 
d="M175 345l-133 202h11l133 -202l-133 -202h-10zM298 345l-133 202h11l132 -202l-133 -202h-10z" />
    <glyph glyph-name="doublebar" horiz-adv-x="327" 
d="M103 765h10v-921h-10v921zM214 765h10v-921h-10v921z" />
    <glyph glyph-name="slash.cap" horiz-adv-x="389" 
d="M349 724h11l-319 -748h-11z" />
    <glyph glyph-name="backslash.cap" horiz-adv-x="389" 
d="M29 724h11l319 -748h-11z" />
    <glyph glyph-name="bar.cap" horiz-adv-x="216" 
d="M103 724h10v-748h-10v748z" />
    <glyph glyph-name="doublebar.cap" horiz-adv-x="327" 
d="M103 724h10v-748h-10v748zM214 724h10v-748h-10v748z" />
    <glyph glyph-name="brokenbar.cap" horiz-adv-x="216" 
d="M103 274h10v-298h-10v298zM103 724h10v-293h-10v293z" />
    <glyph glyph-name="bullet.cap" horiz-adv-x="184" 
d="M60 345q0 13 9.5 22.5t22.5 9.5t22.5 -9.5t9.5 -22.5t-9.5 -22.5t-22.5 -9.5t-22.5 9.5t-9.5 22.5z" />
    <glyph glyph-name="periodcentered.square" horiz-adv-x="166" 
d="M78 218v80h10v-80h-10z" />
    <glyph glyph-name="periodcentered.cap" horiz-adv-x="166" 
d="M69 343q0 14 14 14t14 -14t-14 -14t-14 14z" />
    <glyph glyph-name="periodcenteredcap.square" horiz-adv-x="166" 
d="M78 304v80h10v-80h-10z" />
    <glyph glyph-name="hyphen.cap" horiz-adv-x="420" 
d="M66 351h288v-10h-288v10z" />
    <glyph glyph-name="endash.cap" horiz-adv-x="553" 
d="M66 351h421v-10h-421v10z" />
    <glyph glyph-name="emdash.cap" horiz-adv-x="853" 
d="M66 351h721v-10h-721v10z" />
    <glyph glyph-name="figuredash.cap" 
d="M89 351h422v-10h-422v10z" />
    <glyph glyph-name="parenleft.cap" horiz-adv-x="255" 
d="M216 -60q-75 79 -116 184.5t-41 222.5t41 222t116 184h11q-75 -80 -116.5 -185t-41.5 -221t41.5 -221.5t116.5 -185.5h-11v0z" />
    <glyph glyph-name="parenright.cap" horiz-adv-x="255" 
d="M28 -60q75 80 116.5 185.5t41.5 221.5t-41.5 221t-116.5 185h11q75 -79 116 -184t41 -222t-41 -222.5t-116 -184.5h-11v0z" />
    <glyph glyph-name="bracketleft.cap" horiz-adv-x="275" 
d="M86 753h184v-10h-174v-793h174v-10h-184v813z" />
    <glyph glyph-name="bracketright.cap" horiz-adv-x="275" 
d="M189 -60h-184v10h174v793h-174v10h184v-813z" />
    <glyph glyph-name="braceleft.cap" horiz-adv-x="319" 
d="M66 346q36 -9 58.5 -41t19.5 -84l-5 -88q-5 -96 30.5 -140t108.5 -44q15 0 41 2v-10q-27 -2 -42 -2q-73 0 -111 40t-38 128q0 17 1 26l5 87q2 39 -11 66.5t-35 41t-47 13.5h-4v10h4q25 0 47 13.5t35 41.5t11 67l-5 87q-1 9 -1 26q0 87 38 127t111 40q15 0 42 -2v-10
q-26 2 -41 2q-140 0 -140 -160l1 -23l5 -88q3 -53 -19.5 -85t-58.5 -41z" />
    <glyph glyph-name="braceright.cap" horiz-adv-x="319" 
d="M253 346q-36 9 -58.5 41t-19.5 84l5 88q5 96 -30.5 140t-108.5 44q-15 0 -41 -2v10q27 2 42 2q73 0 111 -40t38 -128q0 -17 -1 -26l-5 -87q-2 -39 11 -66.5t35 -41t47 -13.5h4v-10h-4q-25 0 -47 -13.5t-35 -41.5t-11 -67l5 -87q1 -9 1 -26q0 -87 -38 -127t-111 -40
q-15 0 -42 2v10q26 -2 41 -2q140 0 140 160l-1 23l-5 88q-3 53 19.5 85t58.5 41z" />
    <glyph glyph-name="anglebracketleft.cap" horiz-adv-x="254" 
d="M207 -60l-180 406l180 407h10l-178 -407l178 -406h-10z" />
    <glyph glyph-name="anglebracketright.cap" horiz-adv-x="254" 
d="M37 -60l178 406l-178 407h10l180 -407l-180 -406h-10z" />
    <glyph glyph-name="at.cap" horiz-adv-x="870" 
d="M449 -41q-83 0 -154.5 25.5t-124 74.5t-83 120t-30.5 161q0 88 32 160.5t87.5 124.5t131.5 81t163 29q77 0 142.5 -25t113 -68.5t74.5 -103.5t27 -130q0 -59 -13 -105.5t-34.5 -79t-49 -50t-56.5 -17.5q-24 0 -40 9t-25 24.5t-11.5 36t0.5 43.5l2 16q-13 -32 -32.5 -56
t-43.5 -40.5t-50.5 -25t-52.5 -8.5q-38 0 -70 14t-55 38.5t-35.5 58t-12.5 72.5q0 42 15.5 79t42 64.5t62 43.5t75.5 16q36 0 66.5 -12.5t52 -33t34.5 -47.5t15 -57l17 141h10l-31 -261q-6 -49 11.5 -77t55.5 -28q26 0 51.5 17t46 48t33 75.5t12.5 100.5q0 68 -26 126.5
t-72.5 101t-110 66.5t-138.5 24q-86 0 -159.5 -28t-128 -78.5t-85.5 -121.5t-31 -157q0 -88 29.5 -157t81 -116.5t121 -72.5t150.5 -25q36 0 72.5 6t70.5 16.5t63.5 25t52.5 32.5l5 -10q-23 -18 -53 -32.5t-64.5 -25t-72 -16.5t-74.5 -6zM422 165q34 0 67 15t59.5 41.5
t42.5 61.5t16 76q0 34 -10.5 65t-31.5 55t-51 38t-69 14q-38 0 -71.5 -15.5t-59 -41.5t-40.5 -61t-15 -75q0 -37 12 -68.5t34 -55t51.5 -36.5t65.5 -13z" />
    <glyph glyph-name="registered.superior" horiz-adv-x="444" 
d="M409 509q0 -39 -15 -74t-40.5 -61t-59.5 -41t-72 -15t-72 15t-59.5 41t-40.5 61t-15 74t15 74t40.5 61t59.5 41t72 15t72 -15t59.5 -41t40.5 -61t15 -74zM399 509q0 37 -14 70t-38.5 57.5t-56.5 39t-68 14.5t-68 -14.5t-56.5 -39t-38.5 -57.5t-14 -70t14 -70t38.5 -57.5
t56.5 -39t68 -14.5t68 14.5t56.5 39t38.5 57.5t14 70zM233 612q29 0 46 -14t17 -38q0 -26 -17 -41t-46 -15h-12l83 -98h-12l-82 98h-35v-98h-10v206h68zM175 603v-90h58q25 0 39 12.5t14 34.5q0 20 -14.5 31.5t-38.5 11.5h-58z" />
    <glyph glyph-name="numbersign.LT" 
d="M80 483h125l29 205h10l-29 -205h209l29 205h10l-29 -205h117v-9h-118l-36 -254h123v-9h-125l-29 -211h-10l29 211h-208l-30 -211h-10l30 211h-118v9h119l36 254h-124v9zM178 220h209l36 254h-209z" />
    <glyph glyph-name="zero.LT" 
d="M300 0q52 0 94 24.5t72 69t46 108t16 141.5t-16 141.5t-46 108.5t-72 69.5t-94 24.5t-94 -24.5t-72 -69.5t-46 -108.5t-16 -141.5t16 -141.5t46 -108t72 -69t94 -24.5zM300 -10q-54 0 -98 25t-75 71t-48 111t-17 146t17 146t48 111.5t75 71.5t98 25t98 -25t75 -71.5
t48 -111.5t17 -146t-17 -146t-48 -111t-75 -71t-98 -25z" />
    <glyph glyph-name="one.LT" 
d="M89 10h217v668h-134v10h144v-678h208v-10h-435v10z" />
    <glyph glyph-name="two.LT" 
d="M88 8l273 280q32 33 56 60.5t40 53.5t24 51.5t8 54.5q0 39 -15 71.5t-41 56.5t-61.5 37.5t-76.5 13.5q-44 0 -79 -17.5t-60 -46.5t-38.5 -66.5t-13.5 -77.5h-10q0 43 14.5 82.5t40.5 69.5t63.5 48t82.5 18q43 0 80.5 -14t65 -39t43 -60t15.5 -76q0 -31 -8.5 -57.5
t-25 -53t-41 -55t-57.5 -62.5l-263 -270h409v-10h-425v8z" />
    <glyph glyph-name="three.LT" 
d="M303 -10q-44 0 -84 13.5t-71 40t-49 64.5t-18 88h10q0 -48 17.5 -84.5t47 -61.5t67.5 -37.5t80 -12.5q40 0 78 12.5t67.5 36.5t47 58t17.5 76q0 52 -22.5 86.5t-54 55.5t-65 29.5t-54.5 8.5h-55v9h50q16 0 44.5 8.5t56.5 27.5t49 50t21 76q0 36 -15.5 64t-40.5 48
t-57.5 30.5t-66.5 10.5q-35 0 -67 -11.5t-57 -33.5t-40.5 -55.5t-16.5 -76.5h-10q0 45 16 80t42.5 59t61 36t71.5 12t71 -11.5t60.5 -32.5t42.5 -51t16 -68q0 -42 -17 -72t-41 -49.5t-49.5 -30t-41.5 -13.5q21 -3 51.5 -13t59 -32t48.5 -56t20 -85q0 -45 -18.5 -81
t-49 -60.5t-70 -38t-82.5 -13.5z" />
    <glyph glyph-name="four.LT" 
d="M439 176h-379v9l377 501h12v-500h94v-10h-94v-176h-10v176zM439 186v487l-365 -487h365z" />
    <glyph glyph-name="five.LT" 
d="M300 -10q-45 0 -85 15.5t-70.5 42.5t-48 63.5t-17.5 79.5h10q0 -40 17 -75t46 -60.5t67 -40.5t81 -15q46 0 85.5 17t68.5 47t45.5 71t16.5 88q0 46 -17 85.5t-46.5 69t-70 46t-87.5 16.5q-60 0 -107 -28t-79 -78l-11 2l48 355h331v-10h-322l-45 -330q30 46 78.5 72.5
t107.5 26.5q49 0 91 -17.5t73 -48t48.5 -72t17.5 -89.5q0 -50 -17.5 -92.5t-47.5 -73.5t-71.5 -49t-89.5 -18z" />
    <glyph glyph-name="six.LT" 
d="M303 -10q-49 0 -91 18t-73 49t-49 73.5t-18 92.5q0 73 39 132l221 333h12l-197 -297q30 28 71.5 44t87.5 16q48 0 89.5 -17.5t72.5 -48.5t49 -72.5t18 -89.5q0 -50 -18 -92.5t-49 -73.5t-73.5 -49t-91.5 -18zM303 0q47 0 87.5 17t70.5 47t47 71t17 88q0 46 -17 86t-47 69
t-70 46t-86 17q-47 0 -87.5 -17t-70.5 -46t-47.5 -69t-17.5 -86q0 -47 17 -88t47 -71t70 -47t87 -17z" />
    <glyph glyph-name="seven.LT" 
d="M485 676h-381v10h393v-7l-320 -679h-11z" />
    <glyph glyph-name="eight.LT" 
d="M300 -10q-42 0 -81 13.5t-69 38t-48 60t-18 80.5q0 46 17 80.5t43.5 58t57.5 35.5t60 15q-28 3 -55 14.5t-48.5 32t-35 49t-13.5 64.5q0 39 16 70t42.5 52t61 32.5t70.5 11.5t70.5 -11.5t61 -32.5t42.5 -52t16 -70q0 -36 -13.5 -64.5t-35 -49t-48.5 -32t-55 -14.5
q28 -3 59.5 -15t58 -35.5t43.5 -58t17 -80.5q0 -45 -18 -80.5t-48 -60t-69 -38t-81 -13.5zM300 0q39 0 76.5 12.5t66 36t46 57.5t17.5 77q0 44 -17 78t-45.5 57.5t-66 35.5t-77.5 12t-77.5 -12t-66 -35.5t-45.5 -57.5t-17 -78q0 -43 17.5 -77t46 -57.5t66 -36t76.5 -12.5z
M480 531q0 37 -15.5 66t-40.5 49t-57.5 30.5t-66.5 10.5t-66.5 -10.5t-57.5 -30.5t-40.5 -49t-15.5 -66t15 -66t40 -49t57.5 -30.5t67.5 -10.5t67.5 10.5t57.5 30.5t40 49t15 66z" />
    <glyph glyph-name="nine.LT" 
d="M297 698q49 0 91 -18t73 -49t49 -74t18 -92q0 -73 -39 -132l-221 -333h-12l197 297q-30 -28 -71.5 -44t-87.5 -16q-48 0 -89.5 17.5t-72.5 48.5t-49 72.5t-18 89.5q0 49 18 92t49 74t73.5 49t91.5 18zM297 688q-47 0 -87.5 -17t-70.5 -47t-47 -71t-17 -88q0 -46 17 -86
t47 -69t70 -46t86 -17q47 0 87.5 17t70.5 46t47.5 69t17.5 86q0 47 -17 88t-47 71t-70.5 47t-86.5 17z" />
    <glyph glyph-name="Euro.LT" 
d="M409 264h-304q10 -56 35 -104.5t61 -84t82 -55.5t100 -20q45 0 87 12t77 35v-12q-35 -21 -77 -33t-87 -12q-56 0 -104 20.5t-85.5 57.5t-63 87t-35.5 109h-87v9h85q-2 19 -3.5 34.5t-1.5 33.5q0 17 1.5 34t3.5 34h-85v9h87q10 59 35.5 109.5t63 87t85.5 57.5t104 21
q45 0 87 -12t77 -33v-12q-35 23 -77 35t-87 12q-54 0 -100 -20t-82.5 -55.5t-61 -84t-34.5 -105.5h303v-9h-305q-2 -17 -3.5 -34t-1.5 -34q0 -18 1.5 -34.5t3.5 -33.5h306v-9z" />
    <glyph glyph-name="dollar.LT" 
d="M297 1q-75 2 -126 45.5t-67 111.5l9 3q16 -66 64 -107t120 -43v346l-53 22q-57 24 -88.5 62.5t-31.5 95.5q0 34 12.5 61.5t35 47t53.5 30.5t68 11h4v89h10v-90q62 -4 104 -41t56 -92l-10 -2q-13 51 -52.5 86t-97.5 39v-313l55 -23q61 -26 95.5 -65t34.5 -99
q0 -39 -14 -71.5t-39 -55t-58.5 -35.5t-73.5 -13v-97h-10v97zM307 353v-342q37 0 69.5 12t55.5 33.5t36.5 51.5t13.5 67q0 55 -31.5 93t-91.5 63zM297 677h-4q-70 0 -114.5 -38.5t-44.5 -101.5q0 -51 29.5 -88t82.5 -60l51 -22v310z" />
    <glyph glyph-name="cent.LT" 
d="M322 114q-45 4 -83 23t-65.5 49.5t-43.5 70.5t-16 87q0 46 16 86.5t43.5 71t65.5 49.5t83 23v114h10v-113h10q84 0 144 -48v-12q-29 24 -65.5 37t-78.5 13h-10v-441h10q42 0 78.5 13t65.5 36v-12q-29 -23 -65.5 -35t-78.5 -12h-10v-119h-10v119zM322 564
q-43 -3 -79 -21.5t-62.5 -47.5t-41.5 -68t-15 -83t15 -82.5t41.5 -68t62.5 -47.5t79 -22v440z" />
    <glyph glyph-name="sterling.LT" 
d="M66 10h11q16 0 30.5 5t25.5 17t17.5 31t6.5 46v221h-91v9h91v131q0 104 48 163.5t142 59.5q43 0 76.5 -14.5t57.5 -39.5t37.5 -59t15.5 -74h-10q-2 37 -15 69.5t-35.5 56.5t-54 37.5t-71.5 13.5q-89 0 -135 -56.5t-46 -156.5v-131h214v-9h-214v-223q0 -47 -17 -69.5
t-35 -27.5h410v-10h-459v10z" />
    <glyph glyph-name="florin.LT" 
d="M183 383h113l38 214q11 64 42.5 90.5t73.5 26.5q24 0 42.5 -5.5t30.5 -11.5v-11q-12 6 -31 12t-42 6q-41 0 -68.5 -26t-37.5 -83l-37 -212h133v-9h-135l-73 -419q-11 -64 -42.5 -90.5t-73.5 -26.5q-24 0 -42.5 5.5t-30.5 11.5v11q12 -6 31 -12t42 -6q41 0 68.5 26
t37.5 83l73 417h-112v9z" />
    <glyph glyph-name="yen.LT" 
d="M295 191h-183v9h183v128h-183v9h179l-223 347h12l220 -343l220 343h12l-223 -347h178v-9h-182v-128h182v-9h-182v-191h-10v191z" />
    <glyph glyph-name="zero.OP" horiz-adv-x="610" 
d="M305 0q51 0 95 21t76 60t50.5 94t18.5 123q0 67 -18.5 122t-50.5 94t-76 60.5t-95 21.5t-95 -21.5t-76 -60.5t-50.5 -94t-18.5 -122q0 -68 18.5 -123t50.5 -94t76 -60t95 -21zM305 -10q-54 0 -99.5 22t-79 62t-52.5 97t-19 127t19 127t52.5 97t79 62t99.5 22t99.5 -22
t79 -62t52.5 -97t19 -127t-19 -127t-52.5 -97t-79 -62t-99.5 -22z" />
    <glyph glyph-name="one.OP" horiz-adv-x="254" 
d="M165 587h-133v10h143v-597h-10v587z" />
    <glyph glyph-name="two.OP" horiz-adv-x="501" 
d="M45 7l266 231q32 28 55 52t38 46.5t22 45t7 48.5q0 36 -14 66t-38.5 52.5t-58 35t-71.5 12.5q-42 0 -76 -16t-58 -43t-37 -61t-13 -70h-10q0 38 13.5 74t39 64t61.5 45t80 17q40 0 75.5 -13t61 -36.5t40.5 -55.5t15 -70q0 -27 -7 -51t-22 -47.5t-39 -48.5t-58 -54
l-254 -220h395v-10h-413v7z" />
    <glyph glyph-name="three.OP" horiz-adv-x="531" 
d="M271 -101q-44 0 -84 13.5t-71 40t-49 64.5t-18 88h10q0 -48 17.5 -84.5t47 -61.5t67.5 -37.5t80 -12.5q40 0 78 12.5t67.5 36.5t47 58t17.5 76q0 52 -22.5 86.5t-54 55.5t-65 29.5t-54.5 8.5h-55v9h50q16 0 44.5 8.5t56.5 27.5t49 50t21 76q0 36 -15.5 64t-40.5 48
t-57.5 30.5t-66.5 10.5q-35 0 -67 -11.5t-57 -33.5t-40.5 -55.5t-16.5 -76.5h-10q0 45 16 80t42.5 59t61 36t71.5 12t71 -11.5t60.5 -32.5t42.5 -51t16 -68q0 -42 -17 -72t-41 -49.5t-49.5 -30t-41.5 -13.5q21 -3 51.5 -13t59 -32t48.5 -56t20 -85q0 -45 -18.5 -81
t-49 -60.5t-70 -38t-82.5 -13.5z" />
    <glyph glyph-name="four.OP" horiz-adv-x="566" 
d="M423 56h-394v9l392 531h12v-530h103v-10h-103v-146h-10v146zM423 66v517l-381 -517h381z" />
    <glyph glyph-name="five.OP" horiz-adv-x="535" 
d="M268 -101q-45 0 -85 15.5t-70.5 42.5t-48 63.5t-17.5 79.5h10q0 -40 17 -75t46 -60.5t67 -40.5t81 -15q46 0 85.5 17t68.5 47t45.5 71t16.5 88q0 46 -17 85.5t-46.5 69t-70 46t-87.5 16.5q-60 0 -107 -28t-79 -78l-11 2l48 355h331v-10h-322l-45 -330q30 46 78.5 72.5
t107.5 26.5q49 0 91 -17.5t73 -48t48.5 -72t17.5 -89.5q0 -50 -17.5 -92.5t-47.5 -73.5t-71.5 -49t-89.5 -18z" />
    <glyph glyph-name="six.OP" horiz-adv-x="571" 
d="M288 -10q-49 0 -91 18t-73 49t-49 73.5t-18 92.5q0 73 39 132l221 333h12l-197 -297q30 28 71.5 44t87.5 16q48 0 89.5 -17.5t72.5 -48.5t49 -72.5t18 -89.5q0 -50 -18 -92.5t-49 -73.5t-73.5 -49t-91.5 -18zM288 0q47 0 87.5 17t70.5 47t47 71t17 88q0 46 -17 86t-47 69
t-70 46t-86 17q-47 0 -87.5 -17t-70.5 -46t-47.5 -69t-17.5 -86q0 -47 17 -88t47 -71t70 -47t87 -17z" />
    <glyph glyph-name="seven.OP" horiz-adv-x="443" 
d="M405 586h-381v10h393v-7l-320 -679h-11z" />
    <glyph glyph-name="eight.OP" horiz-adv-x="534" 
d="M267 -10q-42 0 -81 13.5t-69 38t-48 60t-18 80.5q0 46 17 80.5t43.5 58t57.5 35.5t60 15q-28 3 -55 14.5t-48.5 32t-35 49t-13.5 64.5q0 39 16 70t42.5 52t61 32.5t70.5 11.5t70.5 -11.5t61 -32.5t42.5 -52t16 -70q0 -36 -13.5 -64.5t-35 -49t-48.5 -32t-55 -14.5
q28 -3 59.5 -15t58 -35.5t43.5 -58t17 -80.5q0 -45 -18 -80.5t-48 -60t-69 -38t-81 -13.5zM267 0q39 0 76.5 12.5t66 36t46 57.5t17.5 77q0 44 -17 78t-45.5 57.5t-66 35.5t-77.5 12t-77.5 -12t-66 -35.5t-45.5 -57.5t-17 -78q0 -43 17.5 -77t46 -57.5t66 -36t76.5 -12.5z
M447 531q0 37 -15.5 66t-40.5 49t-57.5 30.5t-66.5 10.5t-66.5 -10.5t-57.5 -30.5t-40.5 -49t-15.5 -66t15 -66t40 -49t57.5 -30.5t67.5 -10.5t67.5 10.5t57.5 30.5t40 49t15 66z" />
    <glyph glyph-name="nine.OP" horiz-adv-x="559" 
d="M279 607q49 0 91 -18t73 -49t49 -74t18 -92q0 -73 -39 -132l-221 -333h-12l197 297q-30 -28 -71.5 -44t-87.5 -16q-48 0 -89.5 17.5t-72.5 48.5t-49 72.5t-18 89.5q0 49 18 92t49 74t73.5 49t91.5 18zM279 597q-47 0 -87.5 -17t-70.5 -47t-47 -71t-17 -88q0 -46 17 -86
t47 -69t70 -46t86 -17q47 0 87.5 17t70.5 46t47.5 69t17.5 86q0 47 -17 88t-47 71t-70.5 47t-86.5 17z" />
    <glyph glyph-name="zero.OT" 
d="M300 -10q-50 0 -93 22t-74.5 62t-49 97t-17.5 127t17.5 127t49 97t74.5 62t93 22t93 -22t74.5 -62t49 -97t17.5 -127t-17.5 -127t-49 -97t-74.5 -62t-93 -22zM300 0q48 0 89 21t71 60t47 94t17 123q0 67 -17 122t-47 94t-71 60.5t-89 21.5t-89 -21.5t-71 -60.5t-47 -94
t-17 -122q0 -68 17 -123t47 -94t71 -60t89 -21z" />
    <glyph glyph-name="one.OT" 
d="M102 10h204v577h-133v10h143v-587h195v-10h-409v10z" />
    <glyph glyph-name="two.OT" 
d="M94 7l266 231q32 28 55 52t38 46.5t22 45t7 48.5q0 36 -14 66t-38.5 52.5t-58 35t-71.5 12.5q-42 0 -76 -16t-58 -43t-37 -61t-13 -70h-10q0 38 13.5 74t39 64t61.5 45t80 17q40 0 75.5 -13t61 -36.5t40.5 -55.5t15 -70q0 -27 -7 -51t-22 -47.5t-39 -48.5t-58 -54
l-254 -220h395v-10h-413v7z" />
    <glyph glyph-name="three.OT" 
d="M306 -101q-44 0 -84 13.5t-71 40t-49 64.5t-18 88h10q0 -48 17.5 -84.5t47 -61.5t67.5 -37.5t80 -12.5q40 0 78 12.5t67.5 36.5t47 58t17.5 76q0 52 -22.5 86.5t-54 55.5t-65 29.5t-54.5 8.5h-55v9h50q16 0 44.5 8.5t56.5 27.5t49 50t21 76q0 36 -15.5 64t-40.5 48
t-57.5 30.5t-66.5 10.5q-35 0 -67 -11.5t-57 -33.5t-40.5 -55.5t-16.5 -76.5h-10q0 45 16 80t42.5 59t61 36t71.5 12t71 -11.5t60.5 -32.5t42.5 -51t16 -68q0 -42 -17 -72t-41 -49.5t-49.5 -30t-41.5 -13.5q21 -3 51.5 -13t59 -32t48.5 -56t20 -85q0 -45 -18.5 -81
t-49 -60.5t-70 -38t-82.5 -13.5z" />
    <glyph glyph-name="four.OT" 
d="M436 56h-378v9l376 531h12v-530h94v-10h-94v-146h-10v146zM436 66v517l-365 -517h365z" />
    <glyph glyph-name="five.OT" 
d="M300 -101q-45 0 -85 15.5t-70.5 42.5t-48 63.5t-17.5 79.5h10q0 -40 17 -75t46 -60.5t67 -40.5t81 -15q46 0 85.5 17t68.5 47t45.5 71t16.5 88q0 46 -17 85.5t-46.5 69t-70 46t-87.5 16.5q-60 0 -107 -28t-79 -78l-11 2l48 355h331v-10h-322l-45 -330q30 46 78.5 72.5
t107.5 26.5q49 0 91 -17.5t73 -48t48.5 -72t17.5 -89.5q0 -50 -17.5 -92.5t-47.5 -73.5t-71.5 -49t-89.5 -18z" />
    <glyph glyph-name="six.OT" 
d="M302 -10q-49 0 -91 18t-73 49t-49 73.5t-18 92.5q0 73 39 132l221 333h12l-197 -297q30 28 71.5 44t87.5 16q48 0 89.5 -17.5t72.5 -48.5t49 -72.5t18 -89.5q0 -50 -18 -92.5t-49 -73.5t-73.5 -49t-91.5 -18zM302 0q47 0 87.5 17t70.5 47t47 71t17 88q0 46 -17 86t-47 69
t-70 46t-86 17q-47 0 -87.5 -17t-70.5 -46t-47.5 -69t-17.5 -86q0 -47 17 -88t47 -71t70 -47t87 -17z" />
    <glyph glyph-name="seven.OT" 
d="M483 586h-381v10h393v-7l-320 -679h-11z" />
    <glyph glyph-name="eight.OT" 
d="M300 -10q-42 0 -81 13.5t-69 38t-48 60t-18 80.5q0 46 17 80.5t43.5 58t57.5 35.5t60 15q-28 3 -55 14.5t-48.5 32t-35 49t-13.5 64.5q0 39 16 70t42.5 52t61 32.5t70.5 11.5t70.5 -11.5t61 -32.5t42.5 -52t16 -70q0 -36 -13.5 -64.5t-35 -49t-48.5 -32t-55 -14.5
q28 -3 59.5 -15t58 -35.5t43.5 -58t17 -80.5q0 -45 -18 -80.5t-48 -60t-69 -38t-81 -13.5zM300 0q39 0 76.5 12.5t66 36t46 57.5t17.5 77q0 44 -17 78t-45.5 57.5t-66 35.5t-77.5 12t-77.5 -12t-66 -35.5t-45.5 -57.5t-17 -78q0 -43 17.5 -77t46 -57.5t66 -36t76.5 -12.5z
M480 531q0 37 -15.5 66t-40.5 49t-57.5 30.5t-66.5 10.5t-66.5 -10.5t-57.5 -30.5t-40.5 -49t-15.5 -66t15 -66t40 -49t57.5 -30.5t67.5 -10.5t67.5 10.5t57.5 30.5t40 49t15 66z" />
    <glyph glyph-name="nine.OT" 
d="M299 607q49 0 91 -18t73 -49t49 -74t18 -92q0 -73 -39 -132l-221 -333h-12l197 297q-30 -28 -71.5 -44t-87.5 -16q-48 0 -89.5 17.5t-72.5 48.5t-49 72.5t-18 89.5q0 49 18 92t49 74t73.5 49t91.5 18zM299 597q-47 0 -87.5 -17t-70.5 -47t-47 -71t-17 -88q0 -46 17 -86
t47 -69t70 -46t86 -17q47 0 87.5 17t70.5 46t47.5 69t17.5 86q0 47 -17 88t-47 71t-70.5 47t-86.5 17z" />
    <glyph glyph-name="zero.inf" horiz-adv-x="347" 
d="M173 -113q-63 0 -99.5 54.5t-36.5 145.5q0 45 9.5 81.5t27.5 63t43 40.5t56 14q63 0 100 -54.5t37 -144.5q0 -91 -37 -145.5t-100 -54.5zM173 -103q59 0 93 51.5t34 138.5q0 86 -34 137.5t-93 51.5q-58 0 -92 -51.5t-34 -137.5q0 -87 34 -138.5t92 -51.5z" />
    <glyph glyph-name="one.inf" horiz-adv-x="172" 
d="M103 271h-74v10h84v-389h-10v379z" />
    <glyph glyph-name="two.inf" horiz-adv-x="306" 
d="M34 -100l155 155q41 41 56.5 68.5t15.5 55.5q0 42 -30.5 69.5t-75.5 27.5q-23 0 -42.5 -8.5t-33.5 -23.5t-22.5 -35.5t-8.5 -43.5h-10q0 25 9 47.5t24.5 38.5t37 25.5t46.5 9.5q51 0 83.5 -30t32.5 -77q0 -29 -15.5 -58.5t-59.5 -72.5l-148 -147h231v-9h-245v8z" />
    <glyph glyph-name="three.inf" horiz-adv-x="313" 
d="M174 104q8 0 23 5t29.5 16t25 27t10.5 39q0 21 -8.5 36.5t-22.5 26.5t-32 16.5t-37 5.5q-42 0 -70.5 -24.5t-29.5 -62.5h-10q1 43 32.5 70t77.5 27q21 0 41 -6.5t35.5 -19t24.5 -30t9 -39.5q0 -21 -9 -37.5t-21.5 -27.5t-25.5 -18t-21 -8q13 -3 29.5 -10t30.5 -19t24 -30
t10 -42q0 -26 -10.5 -46.5t-28.5 -35t-41 -22.5t-48 -8q-24 0 -46.5 7.5t-40.5 21.5t-28.5 34.5t-10.5 46.5h10q0 -24 10 -42.5t26 -31t37 -19.5t43 -7q23 0 44.5 7t38 20t26 32t9.5 43q0 26 -12.5 44t-29.5 29.5t-34.5 17t-28.5 5.5h-32v9h32z" />
    <glyph glyph-name="four.inf" horiz-adv-x="317" 
d="M238 -10h-215v9l214 281h11v-280h53v-10h-53v-98h-10v98zM238 0v265l-202 -265h202z" />
    <glyph glyph-name="five.inf" horiz-adv-x="319" 
d="M162 -113q-26 0 -49 8.5t-40.5 24t-27.5 36t-10 44.5h10q0 -21 9.5 -40t25.5 -33t37 -22t45 -8q25 0 47 9.5t38 25.5t25.5 38t9.5 48q0 25 -9.5 47t-26 38t-39 25t-47.5 9q-33 0 -59 -15.5t-43 -42.5l-13 1l27 202h192v-10h-184l-24 -181q14 25 43 40.5t62 15.5
q28 0 52 -10t41.5 -27t27.5 -41t10 -51q0 -28 -10 -52t-27.5 -41.5t-41 -27.5t-51.5 -10z" />
    <glyph glyph-name="six.inf" horiz-adv-x="334" 
d="M169 -113q-28 0 -52.5 10t-42.5 27.5t-28 41.5t-10 52q0 42 23 77l123 186h11l-110 -167q33 33 88 33q27 0 51 -10t42 -27.5t28.5 -41t10.5 -50.5q0 -28 -10.5 -52t-28.5 -41.5t-42.5 -27.5t-52.5 -10zM169 -103q26 0 48.5 9.5t39.5 25.5t26.5 38t9.5 48q0 25 -10 47
t-26.5 38t-39 25t-47.5 9q-26 0 -48.5 -9t-39.5 -25t-26.5 -38t-9.5 -47q0 -26 9.5 -48t26 -38t39 -25.5t48.5 -9.5z" />
    <glyph glyph-name="seven.inf" horiz-adv-x="278" 
d="M243 270h-216v10h228v-9l-178 -379h-11z" />
    <glyph glyph-name="eight.inf" horiz-adv-x="316" 
d="M158 -113q-26 0 -49 8.5t-40 23.5t-26.5 35t-9.5 43q0 41 27.5 70t70.5 35q-35 4 -58.5 29.5t-23.5 60.5q0 41 31.5 67.5t77.5 26.5t77.5 -26.5t31.5 -67.5q0 -35 -23.5 -60.5t-58.5 -29.5q43 -6 70.5 -35t27.5 -70q0 -23 -9.5 -43t-26.5 -35t-40 -23.5t-49 -8.5z
M158 -103q24 0 45 7.5t36.5 21t24.5 32t9 39.5q0 44 -32.5 72t-82.5 28t-82.5 -28t-32.5 -72q0 -21 9 -39.5t24.5 -32t36.5 -21t45 -7.5zM158 106q42 0 70.5 24t28.5 61t-28.5 61t-70.5 24t-70.5 -24t-28.5 -61t28.5 -61t70.5 -24z" />
    <glyph glyph-name="nine.inf" horiz-adv-x="334" 
d="M165 286q28 0 52.5 -10t42.5 -27.5t28 -41.5t10 -52q0 -42 -23 -77l-123 -186h-11l110 167q-33 -33 -88 -33q-27 0 -51 10t-42 27.5t-28.5 41t-10.5 50.5q0 28 10 52t28 41.5t42.5 27.5t53.5 10zM165 276q-26 0 -48.5 -9.5t-39.5 -25.5t-26.5 -38.5t-9.5 -47.5t10 -47
t26.5 -38t39 -25t47.5 -9q26 0 48.5 9t39.5 25t26.5 38t9.5 47t-9.5 47.5t-26 38.5t-39 25.5t-48.5 9.5z" />
    <glyph glyph-name="plus.inf" horiz-adv-x="328" 
d="M159 81h-119v10h119v118h10v-118h119v-10h-119v-118h-10v118z" />
    <glyph glyph-name="minus.inf" horiz-adv-x="328" 
d="M40 91h248v-10h-248v10z" />
    <glyph glyph-name="equal.inf" horiz-adv-x="328" 
d="M40 48h248v-10h-248v10zM40 135h248v-10h-248v10z" />
    <glyph glyph-name="parenleft.inf" horiz-adv-x="163" 
d="M129 -152q-48 49 -71 112t-23 126t23 125.5t71 111.5h11q-48 -50 -71.5 -112t-23.5 -125t23.5 -125.5t71.5 -112.5h-11v0z" />
    <glyph glyph-name="parenright.inf" horiz-adv-x="163" 
d="M23 -152q48 50 71.5 112.5t23.5 125.5t-23.5 125t-71.5 112h11q48 -49 71 -111.5t23 -125.5t-23 -126t-71 -112h-11z" />
    </font>
</defs>
</svg>
