<?xml version="1.0" standalone="no"?>
<!DOCTYPE svg PUBLIC "-//W3C//DTD SVG 1.1//EN" "http://www.w3.org/Graphics/SVG/1.1/DTD/svg11.dtd" >
<svg xmlns="http://www.w3.org/2000/svg" xmlns:xlink="http://www.w3.org/1999/xlink" version="1.1">
<metadata>
Created by FontForge 20200314 at Sat Aug 26 04:39:11 2017
 By Unknown
Copyright (c) 2017 by Josh Finklea. All rights reserved.
</metadata>
<defs>
<font id="CentraNo2-BookItalic" horiz-adv-x="600" >
  <font-face 
    font-family="Centra No2"
    font-weight="400"
    font-style="italic"
    font-stretch="normal"
    units-per-em="1000"
    panose-1="0 0 0 0 0 0 0 0 0 0"
    ascent="800"
    descent="-200"
    x-height="486"
    cap-height="700"
    bbox="-240 -229 1151 926"
    underline-thickness="50"
    underline-position="-100"
    unicode-range="U+000D-FB02"
  />
<missing-glyph horiz-adv-x="840" 
d="M70 700h700v-700h-700v700zM140 70h560v560h-560v-560zM233 113l-50 50l188 187l-188 187l50 50l187 -188l187 188l50 -50l-188 -187l188 -187l-50 -50l-187 188z" />
    <glyph glyph-name=".notdef" horiz-adv-x="840" 
d="M70 700h700v-700h-700v700zM140 70h560v560h-560v-560zM233 113l-50 50l188 187l-188 187l50 50l187 -188l187 188l50 -50l-188 -187l188 -187l-50 -50l-187 188z" />
    <glyph glyph-name=".null" horiz-adv-x="0" 
 />
    <glyph glyph-name="nonmarkingreturn" unicode="&#xd;" horiz-adv-x="245" 
 />
    <glyph glyph-name="NULL" horiz-adv-x="0" 
 />
    <glyph glyph-name="NULL" horiz-adv-x="0" 
 />
    <glyph glyph-name="space" unicode=" " horiz-adv-x="245" 
 />
    <glyph glyph-name="exclam" unicode="!" horiz-adv-x="262" 
d="M246 700l-83 -503h-78l68 503h93zM166 53q0 -26 -18 -44t-44 -18q-25 0 -42 17.5t-17 41.5q0 26 18 44t44 18q25 0 42 -17.5t17 -41.5z" />
    <glyph glyph-name="quotedbl" unicode="&#x22;" horiz-adv-x="341" 
d="M84 424l29 276h94l-53 -276h-70zM241 424l29 276h94l-53 -276h-70z" />
    <glyph glyph-name="numbersign" unicode="#" horiz-adv-x="653" 
d="M552 501h104l-10 -67h-114l-51 -176h108l-10 -67h-118l-55 -191h-77l55 191h-170l-55 -191h-77l55 191h-104l10 67h114l51 176h-108l10 67h118l54 186h77l-54 -186h170l54 186h77zM234 258h170l51 176h-170z" />
    <glyph glyph-name="dollar" unicode="$" horiz-adv-x="523" 
d="M363 680q52 -14 88 -52t54 -97l-78 -28q-11 33 -30 58t-46 37l-32 -211l30 -15q62 -31 92.5 -74t30.5 -96q0 -44 -16 -80.5t-44 -63t-66.5 -41.5t-83.5 -16l-14 -97h-67l15 103q-63 14 -107.5 58t-62.5 116l80 25q13 -44 39 -74.5t63 -43.5l36 241l-17 9q-60 32 -89 73
t-29 95q0 39 14 71.5t39 56.5t59.5 37.5t75.5 15.5l14 89h67zM385 193q0 61 -78 104l-33 -215q49 5 80 34.5t31 76.5zM195 515q0 -55 62 -95l28 187q-41 -5 -65.5 -30t-24.5 -62z" />
    <glyph glyph-name="percent" unicode="%" horiz-adv-x="815" 
d="M612 311q32 0 60 -11t48.5 -30.5t32 -46.5t11.5 -59q0 -35 -13.5 -66.5t-36.5 -54.5t-55 -36.5t-69 -13.5q-32 0 -60 11t-48.5 30.5t-32 46.5t-11.5 59q0 35 13.5 66t36.5 54.5t55 37t69 13.5zM594 68q19 0 35 7.5t28 20t19 29t7 34.5q0 32 -21 54.5t-54 22.5
q-19 0 -35 -7.5t-28 -20t-19 -29t-7 -34.5q0 -32 21 -54.5t54 -22.5zM172 0h-105l610 687h105zM235 376q-32 0 -60 11t-48.5 30.5t-32 46.5t-11.5 59q0 35 13.5 66t36.5 54.5t55 37t69 13.5q32 0 60 -11t48.5 -30.5t32 -46.5t11.5 -59q0 -35 -13.5 -66.5t-36.5 -54.5
t-55 -36.5t-69 -13.5zM253 619q-19 0 -35 -7.5t-28 -20t-19 -29t-7 -34.5q0 -32 21 -54.5t54 -22.5q19 0 35 7.5t28 20t19 29t7 34.5q0 32 -21 54.5t-54 22.5z" />
    <glyph glyph-name="ampersand" unicode="&#x26;" horiz-adv-x="709" 
d="M658 305l-137 -141l145 -164h-117l-88 100q-51 -48 -112 -79.5t-134 -31.5q-37 0 -70 11t-58.5 32t-40.5 52.5t-15 73.5q0 40 13.5 74.5t37.5 64t57 53t73 41.5q-29 35 -44.5 69.5t-15.5 75.5q0 37 15 69t40 56t58.5 37.5t70.5 13.5q32 0 61 -10.5t50.5 -30t34.5 -47.5
t13 -62q0 -61 -39.5 -107t-111.5 -88l122 -139l130 131zM225 71q57 0 98 26t82 67l-143 166q-26 -13 -51.5 -29.5t-45.5 -36.5t-32.5 -44.5t-12.5 -53.5q0 -21 8.5 -38t23 -30t33.5 -20t40 -7zM239 541q0 -32 17 -61t37 -52q16 8 36.5 21t38 28.5t29.5 34t12 37.5
q0 36 -21.5 61t-57.5 25q-19 0 -35.5 -7.5t-29 -20.5t-19.5 -30t-7 -36z" />
    <glyph glyph-name="quotesingle" unicode="'" horiz-adv-x="184" 
d="M84 424l29 276h94l-53 -276h-70z" />
    <glyph glyph-name="parenleft" unicode="(" horiz-adv-x="320" 
d="M58 207q0 165 64.5 301.5t173.5 244.5h91q-121 -125 -182 -259t-61 -285q0 -99 26 -196t79 -178h-85q-25 36 -45 81t-33.5 93.5t-20.5 99t-7 98.5z" />
    <glyph glyph-name="parenright" unicode=")" horiz-adv-x="320" 
d="M278 381q0 -165 -64.5 -301.5t-173.5 -244.5h-91q121 125 182 259t61 285q0 99 -26 196t-79 178h85q25 -36 45 -81t33.5 -93.5t20.5 -99t7 -98.5z" />
    <glyph glyph-name="asterisk" unicode="*" horiz-adv-x="421" 
d="M194 527l-110 51l31 66l111 -52l20 123l73 -8l-21 -123l123 25l9 -71l-122 -24l55 -108l-65 -37l-55 107l-87 -91l-50 51z" />
    <glyph glyph-name="plus" unicode="+" 
d="M94 370h190l29 192h72l-29 -192h190l-11 -73h-190l-29 -194h-72l29 194h-190z" />
    <glyph glyph-name="comma" unicode="," horiz-adv-x="252" 
d="M77 -99h-59l61 99q-19 2 -31.5 16t-12.5 36q0 26 19 43t45 17q24 0 41.5 -16.5t17.5 -41.5q0 -15 -6.5 -28.5t-16.5 -29.5z" />
    <glyph glyph-name="hyphen" unicode="-" horiz-adv-x="424" 
d="M70 302h304l-12 -78h-304z" />
    <glyph glyph-name="period" unicode="." horiz-adv-x="252" 
d="M158 53q0 -26 -18 -44t-44 -18q-25 0 -42 17.5t-17 41.5q0 26 18 44t44 18q25 0 42 -17.5t17 -41.5z" />
    <glyph glyph-name="slash" unicode="/" horiz-adv-x="449" 
d="M28 -100h-89l494 865h89z" />
    <glyph glyph-name="zero" unicode="0" horiz-adv-x="666" 
d="M378 698q63 0 109.5 -23t78 -63t47 -94t15.5 -115q0 -71 -19 -144.5t-58 -133.5t-97.5 -98t-137.5 -38q-62 0 -108 22.5t-77.5 62t-47 93.5t-15.5 116q0 45 8 93.5t24.5 95t42 87.5t60 72t78 49t97.5 18zM539 399q0 40 -9 78.5t-28.5 69t-50.5 49.5t-76 19
q-57 0 -98 -32.5t-68 -81.5t-39.5 -106.5t-12.5 -107.5q0 -40 9 -78.5t28.5 -69t50.5 -49t75 -18.5q58 0 99.5 32t68 81t39 106.5t12.5 107.5z" />
    <glyph glyph-name="one" unicode="1" horiz-adv-x="341" 
d="M126 0l90 603h-124l13 84h212l-103 -687h-88z" />
    <glyph glyph-name="two" unicode="2" horiz-adv-x="546" 
d="M319 699q45 0 84 -15t68.5 -42t46 -64.5t16.5 -82.5q0 -38 -11 -70t-31 -60.5t-48 -55t-62 -53.5l-225 -174h321l-12 -82h-458l11 73l317 251q45 35 77 76t32 91q0 27 -10 49.5t-27 39t-41 26t-51 9.5q-30 0 -55.5 -11.5t-44.5 -32t-31 -48.5t-15 -61h-86q4 52 23 95.5
t49.5 75t72 49t90.5 17.5z" />
    <glyph glyph-name="three" unicode="3" horiz-adv-x="559" 
d="M266 -11q-54 0 -97 16.5t-72 46t-44 71t-13 91.5h87q1 -63 39 -102.5t104 -39.5q30 0 57 9t48 26t33.5 41.5t12.5 55.5q0 30 -13 52.5t-34 37t-47 21.5t-51 7h-24l12 78h45q24 0 47.5 9t42.5 24.5t31 37t12 46.5q0 23 -10 41.5t-26.5 31t-36.5 19.5t-40 7
q-60 0 -100 -35.5t-45 -94.5h-86q4 48 23 87t50 67t72 43.5t89 15.5q37 0 72.5 -12.5t63 -35.5t44.5 -55t17 -70q0 -63 -34 -104.5t-87 -61.5q48 -22 75 -63t27 -96q0 -50 -21 -89.5t-55.5 -66.5t-78.5 -41.5t-89 -14.5z" />
    <glyph glyph-name="four" unicode="4" horiz-adv-x="591" 
d="M25 230l408 456h101l-66 -447h96l-12 -78h-96l-24 -161h-87l24 161h-354zM381 239l50 330l-298 -330h248z" />
    <glyph glyph-name="five" unicode="5" horiz-adv-x="565" 
d="M270 72q34 0 64.5 13.5t53 37t35.5 54t13 64.5q0 32 -11.5 58t-31 44.5t-46.5 28.5t-57 10q-40 0 -78.5 -20t-64.5 -56l-76 17l104 364h368l-12 -82h-298l-58 -198q29 27 66 40.5t75 13.5q46 0 84.5 -16.5t66 -45t43 -67.5t15.5 -84q0 -54 -21 -101.5t-57 -82.5
t-83.5 -55t-100.5 -20q-52 0 -93.5 16t-70.5 44.5t-44.5 68t-15.5 86.5h89q0 -27 10 -51t28.5 -42t45 -28.5t58.5 -10.5z" />
    <glyph glyph-name="six" unicode="6" horiz-adv-x="585" 
d="M543 247q0 -55 -21.5 -102t-58 -81.5t-84.5 -54.5t-101 -20q-48 0 -90.5 16.5t-74 46t-50 71t-18.5 91.5q0 35 8.5 66.5t23.5 60t34.5 55.5t41.5 53l201 238h108l-203 -239q14 9 32 13t35 4q47 0 86.5 -17.5t68.5 -47t45.5 -69t16.5 -84.5zM282 72q34 0 65 13.5t55 36.5
t38 53.5t14 65.5q0 31 -11.5 57t-31.5 45.5t-46.5 30.5t-57.5 11q-35 0 -66.5 -12.5t-55 -34.5t-37.5 -52.5t-14 -66.5q0 -32 11.5 -59t31.5 -46.5t47 -30.5t58 -11z" />
    <glyph glyph-name="seven" unicode="7" horiz-adv-x="510" 
d="M160 0h-100l368 604h-339l13 82h445l-10 -67z" />
    <glyph glyph-name="eight" unicode="8" horiz-adv-x="554" 
d="M328 699q37 0 73 -11.5t64 -33t45 -53.5t17 -73q0 -28 -9 -54.5t-24.5 -48.5t-38 -39t-49.5 -25q48 -22 74.5 -64.5t26.5 -95.5q0 -49 -21.5 -88.5t-56 -67t-78.5 -42t-89 -14.5q-42 0 -83 13t-73.5 37.5t-52 60.5t-19.5 83q0 70 40 121t113 74q-36 17 -57.5 52.5
t-21.5 75.5q0 44 19 80t49.5 61t70 38.5t81.5 13.5zM264 71q30 0 58 9.5t49.5 27t34.5 43t13 57.5q0 28 -12 50t-32 37t-45 23t-51 8q-29 0 -57.5 -8.5t-50.5 -25t-35.5 -40.5t-13.5 -56q0 -30 12 -53t31.5 -39t45.5 -24.5t53 -8.5zM326 618q-25 0 -49 -7t-42.5 -21
t-29.5 -35t-11 -48q0 -21 9 -39.5t24.5 -32.5t36.5 -22t44 -8q25 0 48.5 7t42.5 21t30.5 34.5t11.5 46.5q0 24 -9.5 43.5t-25.5 33t-37 20.5t-43 7z" />
    <glyph glyph-name="nine" unicode="9" horiz-adv-x="585" 
d="M74 440q0 55 21.5 102t58 81.5t84.5 54.5t101 20q48 0 90.5 -16.5t74 -46t50 -71t18.5 -91.5q0 -35 -8.5 -66.5t-23.5 -60t-34.5 -55.5t-41.5 -53l-201 -238h-108l203 239q-14 -9 -32 -13t-35 -4q-47 0 -86.5 17.5t-68.5 47t-45.5 69t-16.5 84.5zM335 615
q-34 0 -65 -13.5t-55 -36.5t-38 -53.5t-14 -65.5q0 -31 11.5 -57t31.5 -45.5t46.5 -30.5t57.5 -11q35 0 66.5 12.5t55 34.5t37.5 52.5t14 66.5q0 32 -11.5 59t-31.5 46.5t-47 30.5t-58 11z" />
    <glyph glyph-name="colon" unicode=":" horiz-adv-x="252" 
d="M158 53q0 -26 -18 -44t-44 -18q-25 0 -42 17.5t-17 41.5q0 26 18 44t44 18q25 0 42 -17.5t17 -41.5zM212 415q0 -26 -18 -44t-44 -18q-25 0 -42 17.5t-17 41.5q0 26 18 44t44 18q25 0 42 -17.5t17 -41.5z" />
    <glyph glyph-name="semicolon" unicode=";" horiz-adv-x="252" 
d="M77 -99h-59l61 99q-19 2 -31.5 16t-12.5 36q0 26 19 43t45 17q24 0 41.5 -16.5t17.5 -41.5q0 -15 -6.5 -28.5t-16.5 -29.5zM212 415q0 -26 -18 -44t-44 -18q-25 0 -42 17.5t-17 41.5q0 26 18 44t44 18q25 0 42 -17.5t17 -41.5z" />
    <glyph glyph-name="less" unicode="&#x3c;" 
d="M108 372l453 205l-12 -88l-354 -158l306 -158l-13 -84l-392 205z" />
    <glyph glyph-name="equal" unicode="=" 
d="M80 272h452l-11 -71h-452zM109 466h452l-11 -71h-452z" />
    <glyph glyph-name="greater" unicode="&#x3e;" 
d="M520 294l-453 -205l12 88l354 158l-306 158l13 84l391 -205z" />
    <glyph glyph-name="question" unicode="?" horiz-adv-x="525" 
d="M437 519q0 23 -9 43t-24.5 34.5t-37 23t-46.5 8.5q-28 0 -53 -10.5t-44 -28.5t-31 -42.5t-14 -53.5h-87q3 47 21.5 87t49.5 69.5t72 46t88 16.5q44 0 81.5 -14t64.5 -38t42.5 -57t15.5 -72q0 -52 -25.5 -96.5t-88.5 -93.5q-14 -11 -31 -24t-32 -27.5t-26 -30.5t-14 -34
l-4 -28h-91l5 35q5 36 35 75.5t82 77.5q48 34 74.5 66.5t26.5 67.5zM305 53q0 -26 -18 -44t-44 -18q-25 0 -42 17.5t-17 41.5q0 26 18 44t44 18q25 0 42 -17.5t17 -41.5z" />
    <glyph glyph-name="at" unicode="@" horiz-adv-x="866" 
d="M763 331q0 55 -21.5 101t-58.5 79.5t-88 52t-109 18.5q-71 0 -136.5 -25.5t-115.5 -72t-80 -111.5t-30 -143q0 -71 24.5 -126t66 -92.5t97 -57.5t118.5 -20q65 0 126.5 18.5t106.5 49.5l30 -59q-24 -17 -55 -31.5t-65.5 -24.5t-71.5 -15.5t-73 -5.5q-78 0 -147 24
t-121 70t-82 112.5t-30 151.5q0 95 36.5 173.5t97.5 134.5t141 87t168 31q73 0 136 -23.5t109.5 -65.5t73.5 -99t27 -124q0 -62 -16 -112t-42.5 -85t-61.5 -54.5t-72 -19.5q-24 0 -40.5 5.5t-27.5 15t-16.5 21.5t-6.5 25q-26 -34 -63.5 -51t-80.5 -17q-35 0 -64.5 12.5
t-50.5 35.5t-33 54.5t-12 69.5q0 44 16 82.5t43.5 67.5t64.5 46t78 17q42 0 76.5 -18t53.5 -49l11 57h68l-46 -242q-6 -31 2 -50t35 -19q20 0 40 15t35.5 41.5t25.5 63.5t10 81zM424 130q27 0 51 11.5t42.5 31t29 46.5t10.5 57q0 50 -29.5 80t-74.5 30q-27 0 -51 -11.5
t-42 -31t-28.5 -45t-10.5 -54.5q0 -50 29 -82t74 -32z" />
    <glyph glyph-name="A" unicode="A" horiz-adv-x="671" 
d="M440 700l183 -700h-91l-52 203h-297l-112 -203h-95l394 700h70zM227 284h233l-73 291z" />
    <glyph glyph-name="B" unicode="B" horiz-adv-x="612" 
d="M568 529q0 -53 -26 -96.5t-80 -67.5q48 -20 74 -58.5t26 -94.5q0 -53 -21 -92.5t-55.5 -66t-80 -40t-94.5 -13.5h-257l105 700h209q38 0 74 -10.5t64 -32t45 -53.5t17 -75zM311 79q30 0 59 8.5t51.5 25t36.5 41t14 56.5q0 31 -13.5 53t-34.5 35.5t-47.5 19.5t-52.5 6
h-133l-36 -245h156zM480 524q0 27 -10.5 45.5t-28 30t-40 16.5t-45.5 5h-120l-33 -220h133q28 0 54 8t46 24t32 38.5t12 52.5z" />
    <glyph glyph-name="C" unicode="C" horiz-adv-x="661" 
d="M450 626q-59 0 -112 -25t-92.5 -66.5t-62.5 -95.5t-23 -113q0 -52 18.5 -97.5t51 -79.5t77 -54t97.5 -20q52 0 103.5 18.5t96.5 47.5l-14 -99q-44 -23 -93 -38t-98 -15q-69 0 -129.5 26t-105.5 71t-70.5 106t-25.5 131q0 78 31 149t83.5 124t122.5 84.5t148 31.5
q62 0 119.5 -18t105.5 -54l-15 -98q-45 38 -97.5 61t-115.5 23z" />
    <glyph glyph-name="D" unicode="D" horiz-adv-x="713" 
d="M159 700h215q66 0 122 -23t96.5 -64.5t63.5 -98t23 -122.5q0 -81 -31.5 -152t-85.5 -124.5t-126.5 -84.5t-155.5 -31h-226zM587 386q0 51 -16.5 93t-46 73t-70.5 48t-90 17h-129l-80 -534h134q61 0 115 24t94.5 65.5t64.5 96.5t24 117z" />
    <glyph glyph-name="E" unicode="E" horiz-adv-x="531" 
d="M159 700h389l-13 -82h-300l-32 -214h279l-12 -81h-279l-36 -241h302l-12 -82h-391z" />
    <glyph glyph-name="F" unicode="F" horiz-adv-x="513" 
d="M143 0h-89l105 700h381l-13 -82h-292l-32 -214h276l-12 -81h-276z" />
    <glyph glyph-name="G" unicode="G" horiz-adv-x="789" 
d="M750 317q-11 -70 -40 -130t-74 -104t-105.5 -69t-133.5 -25q-69 0 -129.5 26t-104.5 71t-69.5 106t-25.5 131q0 78 30.5 149t83 124t122.5 84.5t148 31.5q49 0 95 -13t85 -37.5t69 -59.5t48 -80l-83 -34q-27 66 -84.5 102.5t-133.5 36.5q-60 0 -112.5 -25t-91.5 -66.5
t-62 -96t-23 -113.5q0 -52 18 -98t50 -80t76 -54t97 -20q47 0 89 16t75.5 44t57 66.5t33.5 84.5h-256l12 84h347z" />
    <glyph glyph-name="H" unicode="H" horiz-adv-x="734" 
d="M159 700h89l-44 -295h376l44 295h89l-105 -700h-89l48 321h-376l-48 -321h-89z" />
    <glyph glyph-name="I" unicode="I" horiz-adv-x="269" 
d="M248 700l-105 -700h-89l105 700h89z" />
    <glyph glyph-name="J" unicode="J" horiz-adv-x="500" 
d="M413 192q-6 -43 -23 -80t-44 -64.5t-64 -43t-84 -15.5q-75 0 -129 40t-69 116l76 33q12 -45 42 -75.5t82 -30.5q29 0 50.5 10.5t37 28.5t24.5 41.5t13 48.5l75 499h89z" />
    <glyph glyph-name="K" unicode="K" horiz-adv-x="620" 
d="M203 402l334 298h117l-355 -318l272 -382h-108l-229 326l-49 -43l-42 -283h-89l105 700h89z" />
    <glyph glyph-name="L" unicode="L" horiz-adv-x="449" 
d="M248 700l-93 -617h250l-12 -83h-339l105 700h89z" />
    <glyph glyph-name="M" unicode="M" horiz-adv-x="937" 
d="M916 700l-105 -700h-87l81 544l-341 -544h-61l-181 547l-81 -547h-87l105 700h105l186 -576l357 576h109z" />
    <glyph glyph-name="N" unicode="N" horiz-adv-x="775" 
d="M754 700l-105 -700h-82l-342 568l-85 -568h-86l105 700h89l336 -562l84 562h86z" />
    <glyph glyph-name="O" unicode="O" horiz-adv-x="822" 
d="M788 377q0 -78 -31 -148.5t-83.5 -123.5t-123 -84.5t-148.5 -31.5q-70 0 -131 26t-106 71t-71 106t-26 131q0 78 31 149t83.5 124t123 84.5t148.5 31.5q70 0 131 -26t106 -71.5t71 -106.5t26 -131zM405 74q60 0 113 25t93 66.5t63 95.5t23 113q0 52 -18.5 98.5t-51 80.5
t-77.5 54t-99 20q-60 0 -113 -25t-93 -66.5t-63 -96t-23 -113.5q0 -52 18.5 -98t51.5 -80t78 -54t98 -20z" />
    <glyph glyph-name="P" unicode="P" horiz-adv-x="559" 
d="M366 700q46 0 84 -12t65 -35t42 -57t15 -78q0 -52 -19.5 -93t-53.5 -69.5t-80 -43.5t-100 -15h-132l-44 -297h-89l105 700h207zM200 379h124q34 0 63 9.5t50 27t33 42t12 55.5q0 52 -33.5 78.5t-90.5 26.5h-123z" />
    <glyph glyph-name="Q" unicode="Q" horiz-adv-x="822" 
d="M679 -13l-67 67q-46 -31 -99.5 -48t-110.5 -17q-70 0 -131 26t-106 71t-71 106t-26 131q0 78 31 149t83.5 124t123 84.5t148.5 31.5q70 0 131 -26t106 -71.5t71 -106.5t26 -131q0 -77 -30 -146t-81 -122l62 -63zM405 74q40 0 76.5 11t68.5 31l-64 65l61 59l69 -70
q38 42 59.5 94.5t21.5 109.5q0 52 -18.5 98.5t-51 80.5t-77.5 54t-99 20q-60 0 -113 -25t-93 -66.5t-63 -96t-23 -113.5q0 -52 18.5 -98t51.5 -80t78 -54t98 -20z" />
    <glyph glyph-name="R" unicode="R" horiz-adv-x="588" 
d="M361 700q91 0 145.5 -47t54.5 -135q0 -46 -15.5 -83.5t-42.5 -65t-65 -45.5t-83 -24l175 -300h-102l-170 297h-71l-44 -297h-89l105 700h202zM199 376h115q33 0 62 9.5t50 27t33 43t12 57.5q0 51 -33.5 78t-90.5 27h-112z" />
    <glyph glyph-name="S" unicode="S" horiz-adv-x="543" 
d="M319 628q-51 0 -83.5 -27t-32.5 -71q0 -65 87 -111l75 -39q130 -67 130 -180q0 -47 -17 -86t-48 -67t-73 -43t-91 -15q-89 0 -153 48t-88 141l84 27q19 -60 59 -96t100 -36t97.5 32t37.5 86q0 67 -88 113l-78 40q-124 63 -124 177q0 42 15.5 77t43 60.5t66 39.5t83.5 14
q78 0 131.5 -43.5t77.5 -121.5l-82 -29q-16 48 -47.5 79t-81.5 31z" />
    <glyph glyph-name="T" unicode="T" horiz-adv-x="538" 
d="M88 700h498l-12 -82h-204l-92 -618h-90l92 618h-204z" />
    <glyph glyph-name="U" unicode="U" horiz-adv-x="695" 
d="M320 -11q-68 0 -116.5 21.5t-78 60.5t-39.5 92.5t0 118.5l62 418h90l-62 -417q-7 -46 -1 -84.5t24 -66.5t49 -43.5t74 -15.5t78.5 15.5t62 43.5t44 66.5t24.5 84.5l64 417h89l-63 -419q-10 -66 -34.5 -120t-63 -92t-89.5 -59t-114 -21z" />
    <glyph glyph-name="V" unicode="V" horiz-adv-x="625" 
d="M248 0l-168 700h91l128 -551l291 551h95l-377 -700h-60z" />
    <glyph glyph-name="W" unicode="W" horiz-adv-x="982" 
d="M214 0l-132 700h89l96 -534l264 534h55l104 -534l257 534h93l-343 -700h-57l-105 533l-264 -533h-57z" />
    <glyph glyph-name="X" unicode="X" horiz-adv-x="617" 
d="M381 358l191 -358h-99l-153 293l-242 -293h-105l303 363l-179 337h99l141 -271l225 271h104z" />
    <glyph glyph-name="Y" unicode="Y" horiz-adv-x="620" 
d="M80 700h100l151 -306l243 306h106l-313 -388l-47 -312h-89l47 312z" />
    <glyph glyph-name="Z" unicode="Z" horiz-adv-x="607" 
d="M136 81h412l-12 -81h-537l9 58l491 561h-381l12 81h508l-9 -58z" />
    <glyph glyph-name="bracketleft" unicode="[" horiz-adv-x="329" 
d="M156 753h229l-10 -71h-148l-116 -776h148l-11 -71h-229z" />
    <glyph glyph-name="backslash" unicode="\" horiz-adv-x="449" 
d="M83 765h84l241 -865h-84z" />
    <glyph glyph-name="bracketright" unicode="]" horiz-adv-x="329" 
d="M188 -165h-229l11 71h148l116 776h-148l10 71h229z" />
    <glyph glyph-name="asciicircum" unicode="^" horiz-adv-x="467" 
d="M450 396h-84l-75 213l-139 -213h-89l202 304h72z" />
    <glyph glyph-name="underscore" unicode="_" horiz-adv-x="486" 
d="M-29 -45h458l-10 -69h-458z" />
    <glyph glyph-name="grave" unicode="`" horiz-adv-x="500" 
d="M317 577l-91 139h99l71 -139h-79z" />
    <glyph glyph-name="a" unicode="a" horiz-adv-x="626" 
d="M271 -11q-49 0 -90.5 17.5t-72 48.5t-47.5 74t-17 94q0 57 20.5 107t56.5 87t84.5 58.5t104.5 21.5q58 0 104.5 -24t72.5 -62l11 75h85l-73 -486h-85l12 72q-29 -41 -72 -62t-94 -21zM286 68q37 0 70 15.5t57.5 41.5t39 61.5t14.5 76.5q0 34 -11.5 62.5t-32 49t-48 32
t-60.5 11.5q-38 0 -71 -15t-58.5 -41t-40 -60.5t-14.5 -72.5q0 -35 12 -64t32.5 -51t49 -34t61.5 -12z" />
    <glyph glyph-name="b" unicode="b" horiz-adv-x="626" 
d="M356 497q49 0 90.5 -17.5t72 -48.5t47.5 -74t17 -94q0 -57 -21 -107t-57 -87t-84.5 -58.5t-103.5 -21.5q-58 0 -104.5 24t-72.5 62l-11 -75h-85l105 700h85l-43 -282q10 14 27 28t38 25.5t46.5 18.5t53.5 7zM341 418q-37 0 -70 -15.5t-57.5 -41.5t-39 -62t-14.5 -76
q0 -34 11.5 -62.5t32 -49t48 -32t60.5 -11.5q37 0 70.5 15t59 41t40 60.5t14.5 72.5q0 34 -12 63.5t-32.5 51.5t-49 34t-61.5 12z" />
    <glyph glyph-name="c" unicode="c" horiz-adv-x="482" 
d="M44 221q0 57 21 107.5t58 88t87 59t107 21.5q41 0 81 -12.5t71 -38.5l-13 -86q-30 26 -65 41.5t-76 15.5q-39 0 -72 -15.5t-58 -42t-39 -61t-14 -72.5q0 -34 11.5 -63t32.5 -50t49.5 -33t61.5 -12q35 0 69.5 13t65.5 31l-14 -89q-29 -16 -60 -25t-64 -9q-51 0 -94.5 17
t-76 47.5t-51 73t-18.5 94.5z" />
    <glyph glyph-name="d" unicode="d" horiz-adv-x="625" 
d="M271 -11q-49 0 -90.5 17.5t-72 48.5t-47.5 74t-17 94q0 57 20.5 107t56.5 87t84.5 58.5t104.5 21.5q58 0 104.5 -24t72.5 -62l42 289h85l-104 -700h-85l12 72q-29 -41 -72 -62t-94 -21zM286 68q37 0 70 15.5t57.5 41.5t39 61.5t14.5 76.5q0 34 -11.5 62.5t-32 49t-48 32
t-60.5 11.5q-38 0 -71 -15t-58.5 -41t-40 -60.5t-14.5 -72.5q0 -35 12 -64t32.5 -51t49 -34t61.5 -12z" />
    <glyph glyph-name="e" unicode="e" horiz-adv-x="560" 
d="M282 66q26 0 47 6.5t37.5 18t30.5 27t27 32.5l67 -37q-33 -54 -88.5 -89t-127.5 -35q-50 0 -92.5 16.5t-73 46t-48 71.5t-17.5 93q0 56 19.5 107t54 89.5t82.5 61.5t105 23q48 0 88.5 -17.5t69.5 -48t45 -72t16 -89.5q0 -12 -1.5 -27t-5.5 -27h-390q0 -33 13 -61
t34.5 -47.5t49.5 -30.5t58 -11zM300 422q-21 0 -45.5 -7.5t-47.5 -24t-42 -42t-29 -61.5h305q-2 30 -13 54.5t-30 42.5t-44 28t-54 10z" />
    <glyph glyph-name="f" unicode="f" horiz-adv-x="346" 
d="M64 486h74l9 56q11 81 60 125.5t123 44.5q21 0 42.5 -4t36.5 -11l-10 -77q-15 8 -32.5 10.5t-34.5 2.5q-42 0 -67 -24.5t-33 -70.5l-8 -52h137l-12 -77h-136l-61 -409h-86l61 409h-75z" />
    <glyph glyph-name="g" unicode="g" horiz-adv-x="616" 
d="M430 89q-28 -41 -70 -62.5t-91 -21.5q-48 0 -89 17t-71 47t-46.5 71.5t-16.5 91.5q0 55 20 103.5t55.5 84.5t83 56.5t101.5 20.5q57 0 102 -22t70 -62l11 73h84l-69 -468q-8 -53 -28.5 -96.5t-53 -75t-77.5 -49t-102 -17.5q-71 0 -131.5 33.5t-91.5 104.5l73 42
q21 -51 61 -76.5t92 -25.5q40 0 70 13t51.5 36t34.5 54.5t19 69.5zM282 82q36 0 68 14.5t56 39.5t38 58.5t14 71.5q0 33 -11 61t-31 48t-47 31.5t-58 11.5q-36 0 -68.5 -14.5t-57 -39t-38.5 -57.5t-14 -69q0 -33 11.5 -61.5t31.5 -49.5t47 -33t59 -12z" />
    <glyph glyph-name="h" unicode="h" horiz-adv-x="590" 
d="M130 0h-86l105 700h86l-43 -282q26 35 67.5 57t92.5 22q97 0 141.5 -58t29.5 -158l-42 -281h-86l41 277q10 67 -18 103.5t-91 36.5q-61 0 -104.5 -45t-54.5 -120z" />
    <glyph glyph-name="i" unicode="i" horiz-adv-x="246" 
d="M203 486l-73 -486h-86l73 486h86zM237 631q0 -25 -17.5 -42t-41.5 -17t-40.5 17t-16.5 40q0 25 17.5 42t41.5 17q25 0 41 -17t16 -40z" />
    <glyph glyph-name="j" unicode="j" horiz-adv-x="249" 
d="M240 631q0 -25 -17.5 -42t-41.5 -17t-40.5 17t-16.5 40q0 25 17.5 42t41.5 17t40.5 -17t16.5 -40zM126 -49q-12 -82 -55.5 -126.5t-111.5 -44.5q-35 0 -65 15l12 76q18 -12 45 -12q35 0 59 25t31 71l79 531h86z" />
    <glyph glyph-name="k" unicode="k" horiz-adv-x="508" 
d="M173 296l229 190h114l-252 -209l198 -277h-104l-158 224l-43 -35l-28 -189h-85l105 700h85z" />
    <glyph glyph-name="l" unicode="l" horiz-adv-x="246" 
d="M235 700l-105 -700h-86l105 700h86z" />
    <glyph glyph-name="m" unicode="m" horiz-adv-x="880" 
d="M771 0h-86l42 282q9 63 -14.5 99.5t-79.5 36.5q-27 0 -51 -11t-43 -31.5t-32 -49t-18 -63.5l-39 -263h-86l41 276q10 66 -13 104t-79 38q-55 0 -94.5 -44t-50.5 -119l-38 -255h-86l73 486h85l-10 -68q24 38 60.5 58.5t84.5 20.5q55 0 92 -25.5t52 -70.5q11 16 27 33
t37.5 31t49 23t62.5 9q44 0 76.5 -15t52.5 -43t27 -66.5t0 -85.5z" />
    <glyph glyph-name="n" unicode="n" horiz-adv-x="590" 
d="M130 0h-86l73 486h86l-11 -68q26 35 67.5 57t92.5 22q97 0 141.5 -58t29.5 -158l-42 -281h-86l41 277q10 67 -18 103.5t-91 36.5q-61 0 -104.5 -45t-54.5 -120z" />
    <glyph glyph-name="o" unicode="o" horiz-adv-x="598" 
d="M317 497q50 0 93.5 -17.5t75.5 -48.5t50.5 -74t18.5 -94q0 -56 -21 -105.5t-58 -87t-87 -59.5t-107 -22q-51 0 -94.5 17.5t-75.5 48.5t-50 74t-18 94q0 56 21 105.5t58 87t87 59.5t107 22zM313 418q-36 0 -68.5 -14.5t-58 -40t-40.5 -61t-15 -76.5q0 -33 11.5 -61.5
t32 -50t48.5 -34t62 -12.5q36 0 69 14.5t58.5 40.5t40.5 61t15 77q0 33 -11.5 61.5t-32 49.5t-49 33.5t-62.5 12.5z" />
    <glyph glyph-name="p" unicode="p" horiz-adv-x="625" 
d="M201 486l-11 -70q10 15 26.5 29.5t37.5 26t46.5 18.5t54.5 7q49 0 90.5 -17.5t72 -48.5t47.5 -74t17 -94q0 -57 -21 -107t-57 -87t-84.5 -58.5t-103.5 -21.5q-58 0 -104.5 24t-72.5 62l-42 -283h-85l104 694h85zM340 418q-37 0 -70 -15.5t-57.5 -41.5t-39 -62t-14.5 -76
q0 -34 11.5 -62.5t32 -49t48 -32t60.5 -11.5q37 0 70.5 15t59 41t40 60.5t14.5 72.5q0 34 -12 63.5t-32.5 51.5t-49 34t-61.5 12z" />
    <glyph glyph-name="q" unicode="q" horiz-adv-x="626" 
d="M271 -11q-49 0 -90.5 17.5t-72 48.5t-47.5 74t-17 94q0 57 20.5 107t56.5 87t84.5 58.5t104.5 21.5q58 0 104.5 -24t72.5 -62l11 75h85l-104 -694h-85l43 280q-29 -41 -72 -62t-94 -21zM286 68q37 0 70 15.5t57.5 41.5t39 61.5t14.5 76.5q0 34 -11.5 62.5t-32 49t-48 32
t-60.5 11.5q-38 0 -71 -15t-58.5 -41t-40 -60.5t-14.5 -72.5q0 -35 12 -64t32.5 -51t49 -34t61.5 -12z" />
    <glyph glyph-name="r" unicode="r" horiz-adv-x="362" 
d="M359 405q-2 0 -6 1q-3 0 -6.5 0.5t-8.5 0.5q-35 0 -64 -13t-52 -37t-38 -57.5t-21 -73.5l-34 -226h-85l73 486h84l-13 -83q23 41 67 66t91 25q5 0 10 -0.5t9 -0.5q4 -1 7 -1z" />
    <glyph glyph-name="s" unicode="s" horiz-adv-x="420" 
d="M100 159q3 -20 11.5 -37t22 -30t31 -20.5t36.5 -7.5q34 0 59.5 18t25.5 54q0 24 -16.5 39.5t-42.5 26.5l-51 23q-19 9 -37.5 19.5t-33.5 26t-24 36t-9 49.5q0 33 12.5 59t34.5 44.5t51 28t61 9.5q65 0 107 -35.5t56 -95.5l-77 -23q-11 38 -33 59t-56 21q-26 0 -48.5 -15
t-22.5 -46q0 -23 18 -38.5t43 -26.5l48 -22q20 -9 39 -20t33.5 -26.5t23.5 -36.5t9 -49q0 -37 -14.5 -65.5t-39 -48t-56 -30t-65.5 -10.5q-33 0 -63 11t-53.5 30.5t-38.5 47t-19 59.5z" />
    <glyph glyph-name="t" unicode="t" horiz-adv-x="355" 
d="M172 153q-6 -43 9.5 -63.5t56.5 -20.5q32 0 59 15l-12 -81q-14 -5 -31.5 -9.5t-41.5 -4.5q-70 0 -104 42.5t-23 113.5l39 264h-75l12 77h75l21 146h86l-21 -146h136l-12 -77h-136z" />
    <glyph glyph-name="u" unicode="u" horiz-adv-x="587" 
d="M458 486h86l-73 -486h-86l11 68q-27 -35 -67 -57t-94 -22q-94 0 -138 58.5t-29 157.5l42 281h86l-41 -277q-10 -67 17.5 -103.5t89.5 -36.5q30 0 56.5 12t47 33.5t34.5 52t20 67.5z" />
    <glyph glyph-name="v" unicode="v" horiz-adv-x="512" 
d="M187 0l-130 486h89l92 -368l202 368h93l-276 -486h-70z" />
    <glyph glyph-name="w" unicode="w" horiz-adv-x="794" 
d="M491 0l-74 360l-182 -360h-66l-108 486h86l73 -364l183 364h62l75 -364l181 364h90l-254 -486h-66z" />
    <glyph glyph-name="x" unicode="x" horiz-adv-x="501" 
d="M246 188l-161 -188h-100l218 251l-137 235h96l99 -176l152 176h102l-210 -239l144 -247h-97z" />
    <glyph glyph-name="y" unicode="y" horiz-adv-x="513" 
d="M212 -81q-22 -39 -42 -66t-40.5 -43t-42.5 -23t-48 -7q-32 0 -55 15l10 73q8 -4 19 -7t25 -3q29 0 52 20t49 67l39 71l-121 470h89l90 -375l206 375h92z" />
    <glyph glyph-name="z" unicode="z" horiz-adv-x="450" 
d="M81 486h376l-8 -54l-332 -357h282l-11 -75h-398l8 56l331 355h-260z" />
    <glyph glyph-name="braceleft" unicode="{" horiz-adv-x="363" 
d="M162 21q-13 -65 11 -91.5t74 -26.5q19 0 36 1l-10 -67q-6 -1 -16.5 -2t-23.5 -1q-89 0 -129.5 45t-20.5 144l27 141q4 24 0 40.5t-14 27.5t-25 17t-33 9l11 71q37 4 66 25.5t34 68.5l16 150q11 100 61 140t136 40q10 0 18.5 -0.5t15 -1t14.5 -1.5l-11 -68q-6 1 -16.5 1.5
t-18.5 0.5q-51 0 -82 -26t-38 -92l-16 -145q-5 -54 -31 -84.5t-70 -46.5q40 -15 56 -46t6 -82z" />
    <glyph glyph-name="bar" unicode="|" horiz-adv-x="272" 
d="M36 -156l138 921h82l-138 -921h-82z" />
    <glyph glyph-name="braceright" unicode="}" horiz-adv-x="363" 
d="M218 566q13 65 -11 91.5t-74 26.5q-15 0 -37 -1l10 67q15 2 24 2.5t17 0.5q89 0 129 -45t21 -144l-27 -141q-5 -24 -0.5 -40.5t14.5 -27.5t25 -17t33 -9l-11 -71q-38 -5 -66.5 -26t-33.5 -68l-16 -150q-11 -100 -61 -140t-136 -40q-18 0 -30 1t-18 2l10 68
q7 -1 17.5 -1.5t18.5 -0.5q51 0 82 26t38 92l16 145q5 54 31 84.5t70 46.5q-40 15 -56 46t-6 82z" />
    <glyph glyph-name="asciitilde" unicode="~" horiz-adv-x="511" 
d="M41 202q2 30 13.5 53.5t30 40t42 25t49.5 8.5q37 0 59.5 -9.5t39.5 -21.5t31.5 -21.5t35.5 -9.5q25 0 41.5 17t18.5 41h78q-2 -30 -14 -53.5t-30.5 -40t-42.5 -25t-49 -8.5q-36 0 -59 10t-40 21.5t-31.5 21.5t-35.5 10q-25 0 -41.5 -17.5t-18.5 -41.5h-77z" />
    <glyph glyph-name="nonbreakingspace" unicode="&#xa0;" horiz-adv-x="245" 
 />
    <glyph glyph-name="exclamdown" unicode="&#xa1;" horiz-adv-x="262" 
d="M18 -208l82 498h78l-67 -498h-93zM99 434q0 26 18 44t44 18q25 0 42 -17.5t17 -41.5q0 -26 -18 -44t-44 -18q-25 0 -42 17.5t-17 41.5z" />
    <glyph glyph-name="cent" unicode="&#xa2;" horiz-adv-x="472" 
d="M300 178q32 2 63 13.5t60 28.5l-14 -87q-28 -15 -57 -24t-63 -9l-16 -105h-65l17 113q-36 9 -66 28.5t-52 47t-34 62.5t-12 76q0 51 18 96.5t49.5 81t74.5 57.5t93 27l16 103h65l-16 -104q29 -5 56.5 -16.5t49.5 -29.5l-12 -83q-23 20 -49.5 33t-56.5 18l-22 -148z
M284 504q-30 -7 -55.5 -23.5t-43.5 -40t-28.5 -53t-10.5 -60.5q0 -50 24.5 -86.5t66.5 -52.5l25 169z" />
    <glyph glyph-name="sterling" unicode="&#xa3;" horiz-adv-x="594" 
d="M168 475q6 45 24 83.5t47 67t68.5 45t90.5 16.5q40 0 76.5 -13.5t63.5 -40t41.5 -65t10.5 -87.5h-85q3 57 -28 90t-83 33q-33 0 -57 -11.5t-41 -31t-27 -44.5t-14 -52l-14 -94h180l-11 -76h-179l-19 -124q-6 -38 -18.5 -60t-26.5 -30h356l-12 -81h-491l12 81h21
q23 0 42.5 20t27.5 70l19 124h-78l11 76h78z" />
    <glyph glyph-name="currency" unicode="&#xa4;" 
d="M551 343q0 -45 -16.5 -85t-45.5 -72l65 -75l-61 -51l-66 77q-28 -16 -59 -24.5t-64 -8.5q-40 0 -76 12t-65 34l-80 -69l-51 59l79 68q-31 50 -31 113q0 45 16 84.5t45 70.5l-65 77l60 51l66 -78q28 16 59.5 25t65.5 9q40 0 76 -12t65 -35l80 70l51 -59l-79 -69
q14 -24 22.5 -52t8.5 -60zM307 180q32 0 61.5 12.5t52 34t36 50.5t13.5 62q0 30 -11.5 56.5t-31.5 46t-47 31t-57 11.5q-33 0 -62 -12.5t-51.5 -34.5t-35.5 -51t-13 -62q0 -30 11.5 -56.5t31 -46t46.5 -30.5t57 -11z" />
    <glyph glyph-name="yen" unicode="&#xa5;" horiz-adv-x="614" 
d="M264 246l9 57h-179l10 69h140l-160 312h98l145 -290l235 290h100l-254 -312h142l-10 -69h-180l-9 -57h180l-10 -69h-180l-26 -177h-87l26 177h-179l10 69h179z" />
    <glyph glyph-name="brokenbar" unicode="&#xa6;" horiz-adv-x="272" 
d="M117 385l57 380h82l-57 -380h-82zM175 228l-57 -384h-82l57 384h82z" />
    <glyph glyph-name="section" unicode="&#xa7;" horiz-adv-x="480" 
d="M446 291q0 -46 -30.5 -81t-80.5 -53q32 -26 42.5 -54t10.5 -57q0 -35 -14 -65t-38.5 -51.5t-58 -33.5t-71.5 -12q-39 0 -71 11.5t-55.5 32.5t-36 49.5t-12.5 62.5h76q2 -40 30.5 -64.5t70.5 -24.5q45 0 73.5 26t28.5 66q0 27 -16 48.5t-45 34.5l-67 29q-66 29 -98 65
t-32 85q0 45 30 80t81 53q-32 26 -42.5 54.5t-10.5 57.5q0 35 14 65t38.5 51.5t58 33.5t71.5 12q39 0 71 -11.5t55.5 -32.5t36 -49.5t12.5 -62.5h-76q-2 40 -30.5 64.5t-70.5 24.5q-45 0 -73.5 -26t-28.5 -66q0 -27 16 -48.5t45 -34.5l67 -29q66 -29 98 -65t32 -85zM272 193
q43 9 69.5 33t26.5 58q0 32 -21.5 54t-63.5 40l-57 24q-44 -8 -70 -32.5t-26 -57.5q0 -32 21.5 -54t63.5 -40z" />
    <glyph glyph-name="dieresis" unicode="&#xa8;" horiz-adv-x="500" 
d="M269 628q0 -22 -15.5 -37.5t-37.5 -15.5t-37 15.5t-15 36.5q0 22 15.5 37.5t37.5 15.5t37 -15.5t15 -36.5zM450 628q0 -22 -15.5 -37.5t-37.5 -15.5t-37 15.5t-15 36.5q0 22 15.5 37.5t37.5 15.5t37 -15.5t15 -36.5z" />
    <glyph glyph-name="copyright" unicode="&#xa9;" horiz-adv-x="813" 
d="M246 349q0 39 14.5 74t40.5 60.5t62 40.5t79 15q29 0 55 -7.5t49 -23.5v-74q-26 16 -51 25t-53 9q-25 0 -46.5 -9.5t-37.5 -25.5t-25 -37.5t-9 -46.5q0 -24 9 -45.5t25 -37t37.5 -25t46.5 -9.5q30 0 56.5 10t48.5 24v-75q-45 -30 -104 -30q-44 0 -80.5 15t-62.5 40.5
t-40 59.5t-14 73zM777 350q0 -75 -28 -140.5t-76 -114.5t-112.5 -77.5t-137.5 -28.5t-137.5 28.5t-113 77.5t-76.5 114.5t-28 140.5t28 141t76.5 115t113 77.5t137.5 28.5t137.5 -28.5t112.5 -77.5t76 -115t28 -141zM698 350q0 59 -21.5 111.5t-58.5 91.5t-87.5 62
t-107.5 23q-58 0 -108 -23t-87.5 -62t-59 -91.5t-21.5 -111.5t21.5 -111t59 -91t87.5 -62t108 -23q57 0 107.5 23t87.5 62t58.5 91t21.5 111z" />
    <glyph glyph-name="ordfeminine" unicode="&#xaa;" horiz-adv-x="489" 
d="M247 291q-38 0 -69.5 13t-54.5 36.5t-35.5 55.5t-12.5 71q0 43 15.5 80.5t42.5 65.5t63.5 44t78.5 16t76 -16t54 -45l9 53h73l-55 -366h-73l8 49q-22 -28 -53.5 -42.5t-66.5 -14.5zM259 358q27 0 50.5 10.5t41.5 29t28 43t10 52.5q0 49 -31 81t-79 32q-27 0 -51 -11
t-42 -29t-28.5 -42.5t-10.5 -51.5q0 -24 8.5 -45t23.5 -36.5t35.5 -24t44.5 -8.5z" />
    <glyph glyph-name="guillemotleft" unicode="&#xab;" horiz-adv-x="467" 
d="M41 265l163 199h90l-164 -204l103 -200h-88zM216 265l163 199h90l-164 -204l103 -200h-88z" />
    <glyph glyph-name="logicalnot" unicode="&#xac;" 
d="M105 446h452l-34 -225h-72l23 154h-380z" />
    <glyph glyph-name="registered" unicode="&#xae;" horiz-adv-x="813" 
d="M777 350q0 -75 -28 -140.5t-76 -114.5t-112.5 -77.5t-137.5 -28.5t-137.5 28.5t-113 77.5t-76.5 114.5t-28 140.5t28 141t76.5 115t113 77.5t137.5 28.5t137.5 -28.5t112.5 -77.5t76 -115t28 -141zM698 350q0 59 -21.5 111.5t-58.5 91.5t-87.5 62t-107.5 23
q-58 0 -108 -23t-87.5 -62t-59 -91.5t-21.5 -111.5t21.5 -111t59 -91t87.5 -62t108 -23q57 0 107.5 23t87.5 62t58.5 91t21.5 111zM559 417q0 -35 -19.5 -62.5t-52.5 -41.5l95 -143h-90l-82 130h-29v-130h-76v360h125q57 0 93 -29.5t36 -83.5zM481 415q0 23 -15.5 34.5
t-38.5 11.5h-46v-93h46q23 0 38.5 12t15.5 35z" />
    <glyph glyph-name="macron" unicode="&#xaf;" horiz-adv-x="500" 
d="M169 598l9 58h268l-9 -58h-268z" />
    <glyph glyph-name="degree" unicode="&#xb0;" horiz-adv-x="406" 
d="M256 698q30 0 56 -10t45.5 -28t30.5 -43.5t11 -55.5q0 -34 -12.5 -61.5t-34 -47t-50 -30t-59.5 -10.5q-30 0 -55.5 10.5t-44 28.5t-29 43.5t-10.5 55.5q0 32 12 59t32.5 47t48 31t59.5 11zM255 630q-32 0 -55 -23.5t-23 -55.5q0 -31 21.5 -51t51.5 -20q16 0 30 6.5
t24 17.5t16 25t6 30q0 30 -20.5 50.5t-50.5 20.5z" />
    <glyph glyph-name="plusminus" unicode="&#xb1;" 
d="M107 462h190l27 184h72l-27 -184h190l-11 -71h-190l-27 -182h-72l27 182h-190zM57 126h452l-11 -71h-452z" />
    <glyph glyph-name="twosuperior" unicode="&#xb2;" horiz-adv-x="334" 
d="M228 694q27 0 50 -8.5t40 -23.5t27 -36.5t10 -47.5q0 -42 -24 -74t-64 -61l-109 -80h170l-10 -64h-278l8 57l179 133q25 19 41 38.5t16 48.5q0 23 -17 38t-41 15q-31 0 -51.5 -22t-23.5 -53h-70q5 61 45 100.5t102 39.5z" />
    <glyph glyph-name="threesuperior" unicode="&#xb3;" horiz-adv-x="336" 
d="M208 530q26 0 47.5 12.5t21.5 43.5q0 20 -16.5 32.5t-35.5 12.5q-25 0 -43 -13.5t-22 -43.5h-67q1 30 12.5 52.5t30 37.5t42 22.5t48.5 7.5q22 0 43.5 -6.5t38.5 -19t27.5 -31.5t10.5 -43q0 -31 -18.5 -56t-47.5 -36q27 -13 42 -34.5t15 -51.5q0 -29 -13 -52t-33.5 -39
t-45.5 -24.5t-50 -8.5q-28 0 -53 7.5t-43.5 23t-29.5 40t-11 57.5h69q1 -30 20.5 -46.5t48.5 -16.5t50 16t21 45q0 27 -20 41t-47 14h-19l9 57h18v0z" />
    <glyph glyph-name="acute" unicode="&#xb4;" horiz-adv-x="500" 
d="M200 577l112 139h105l-130 -139h-87z" />
    <glyph glyph-name="uni00B5" unicode="&#xb5;" horiz-adv-x="594" 
d="M117 486h86l-41 -277q-10 -67 17.5 -103.5t89.5 -36.5q30 0 56.5 12t47 33.5t34.5 52t20 67.5l38 252h86l-73 -486h-86l11 68q-27 -35 -67 -57t-94 -22q-34 0 -61.5 8t-47.5 22l-34 -227h-86z" />
    <glyph glyph-name="paragraph" unicode="&#xb6;" horiz-adv-x="577" 
d="M238 339q-38 0 -69.5 12t-54.5 33t-35.5 51.5t-12.5 68.5q0 46 16 82.5t44 61.5t65.5 38.5t80.5 13.5h343l-10 -68h-71l-110 -740h-73l110 740h-106l-110 -740h-73z" />
    <glyph glyph-name="periodcentered" unicode="&#xb7;" horiz-adv-x="252" 
d="M191 264q0 -26 -18 -44t-44 -18q-25 0 -42 17.5t-17 41.5q0 26 18 44t44 18q25 0 42 -17.5t17 -41.5z" />
    <glyph glyph-name="cedilla" unicode="&#xb8;" horiz-adv-x="500" 
d="M285 -128q0 -39 -29 -65.5t-73 -26.5q-37 0 -62 23t-28 55h62q2 -9 10.5 -17.5t22.5 -8.5q17 0 27.5 11t10.5 27q0 14 -9 22t-24 9q-10 1 -18 -3.5t-14 -10.5l-50 38l59 78h67l-46 -55q8 2 16 2q35 -2 56.5 -23t21.5 -55z" />
    <glyph glyph-name="onesuperior" unicode="&#xb9;" horiz-adv-x="229" 
d="M104 299l48 321h-68l10 67h139l-58 -388h-71z" />
    <glyph glyph-name="ordmasculine" unicode="&#xba;" horiz-adv-x="459" 
d="M257 358q27 0 51 11t41.5 29.5t27.5 43.5t10 52q0 23 -8 43.5t-22.5 35.5t-34.5 24t-44 9q-28 0 -51.5 -11t-41 -29.5t-27.5 -43t-10 -51.5q0 -23 8 -43.5t22 -36t34.5 -24.5t44.5 -9zM460 498q0 -43 -15.5 -80.5t-43.5 -65.5t-65.5 -44.5t-80.5 -16.5q-39 0 -72 13.5
t-57 37t-37.5 55.5t-13.5 70q0 42 16 79.5t43.5 65.5t65.5 44.5t82 16.5q38 0 70.5 -13t56.5 -36.5t37.5 -55.5t13.5 -70z" />
    <glyph glyph-name="guillemotright" unicode="&#xbb;" horiz-adv-x="466" 
d="M256 258l-161 -198h-91l164 205l-102 199h86zM431 258l-161 -198h-91l164 205l-102 199h86z" />
    <glyph glyph-name="onequarter" unicode="&#xbc;" horiz-adv-x="746" 
d="M103 0h-94l609 687h94zM666 146h49l-9 -62h-49l-13 -84h-68l13 84h-193l8 52l212 252h86zM487 146h111l24 159zM104 299l48 321h-68l10 67h139l-58 -388h-71z" />
    <glyph glyph-name="onehalf" unicode="&#xbd;" horiz-adv-x="785" 
d="M103 0h-94l609 687h94zM633 395q27 0 50 -8.5t40 -23.5t27 -36.5t10 -47.5q0 -42 -24 -74t-64 -61l-109 -80h170l-10 -64h-278l8 57l179 133q25 19 41 38.5t16 48.5q0 23 -17 38t-41 15q-31 0 -51.5 -22t-23.5 -53h-70q5 61 45 100.5t102 39.5zM104 299l48 321h-68l10 67
h139l-58 -388h-71z" />
    <glyph glyph-name="threequarters" unicode="&#xbe;" horiz-adv-x="843" 
d="M208 530q26 0 47.5 12.5t21.5 43.5q0 20 -16.5 32.5t-35.5 12.5q-25 0 -43 -13.5t-22 -43.5h-67q1 30 12.5 52.5t30 37.5t42 22.5t48.5 7.5q22 0 43.5 -6.5t38.5 -19t27.5 -31.5t10.5 -43q0 -31 -18.5 -56t-47.5 -36q27 -13 42 -34.5t15 -51.5q0 -29 -13 -52t-33.5 -39
t-45.5 -24.5t-50 -8.5q-28 0 -53 7.5t-43.5 23t-29.5 40t-11 57.5h69q1 -30 20.5 -46.5t48.5 -16.5t50 16t21 45q0 27 -20 41t-47 14h-19l9 57h18zM200 0h-94l609 687h94zM763 146h49l-9 -62h-49l-13 -84h-68l13 84h-193l8 52l212 252h86zM584 146h111l24 159z" />
    <glyph glyph-name="questiondown" unicode="&#xbf;" horiz-adv-x="515" 
d="M321 290l-4 -30q-5 -36 -35 -75.5t-82 -77.5q-48 -34 -74.5 -66.5t-26.5 -67.5q0 -23 9 -43t24.5 -34.5t37 -23t46.5 -8.5q28 0 53 10.5t44 28.5t31 42.5t14 53.5h87q-3 -47 -21.5 -87.5t-49.5 -69.5t-72 -45.5t-88 -16.5q-44 0 -81.5 14t-64.5 38t-42.5 57t-15.5 72
q0 52 25.5 96.5t88.5 93.5q14 11 31 24t32.5 27.5t26.5 30.5t13 34l3 23h91zM228 434q0 26 18 44t44 18q25 0 42 -17.5t17 -41.5q0 -26 -18 -44t-44 -18q-25 0 -42 17.5t-17 41.5z" />
    <glyph glyph-name="Agrave" unicode="&#xc0;" horiz-adv-x="671" 
d="M440 700l183 -700h-91l-52 203h-297l-112 -203h-95l394 700h70zM227 284h233l-73 291zM368 756l-91 139h99l71 -139h-79z" />
    <glyph glyph-name="Aacute" unicode="&#xc1;" horiz-adv-x="671" 
d="M440 700l183 -700h-91l-52 203h-297l-112 -203h-95l394 700h70zM227 284h233l-73 291zM376 756l112 139h105l-130 -139h-87z" />
    <glyph glyph-name="Acircumflex" unicode="&#xc2;" horiz-adv-x="671" 
d="M440 700l183 -700h-91l-52 203h-297l-112 -203h-95l394 700h70zM227 284h233l-73 291zM268 756l132 139h68l90 -139h-87l-46 72l-68 -72h-89z" />
    <glyph glyph-name="Atilde" unicode="&#xc3;" horiz-adv-x="671" 
d="M440 700l183 -700h-91l-52 203h-297l-112 -203h-95l394 700h70zM227 284h233l-73 291zM258 769q5 55 32.5 79t65.5 24q25 0 43 -7.5t32 -17t26.5 -17t27.5 -7.5q20 0 29.5 13t11.5 33h59q-4 -56 -32 -79.5t-66 -23.5q-25 0 -43 7.5t-32 17t-26.5 17t-27.5 7.5
q-20 0 -29.5 -13t-11.5 -33h-59z" />
    <glyph glyph-name="Adieresis" unicode="&#xc4;" horiz-adv-x="671" 
d="M440 700l183 -700h-91l-52 203h-297l-112 -203h-95l394 700h70zM227 284h233l-73 291zM385 826q0 -22 -15.5 -37.5t-37.5 -15.5t-37 15.5t-15 36.5q0 22 15.5 37.5t37.5 15.5t37 -15.5t15 -36.5zM566 826q0 -22 -15.5 -37.5t-37.5 -15.5t-37 15.5t-15 36.5
q0 22 15.5 37.5t37.5 15.5t37 -15.5t15 -36.5z" />
    <glyph glyph-name="Aring" unicode="&#xc5;" horiz-adv-x="671" 
d="M440 700l183 -700h-91l-52 203h-297l-112 -203h-95l394 700h70zM227 284h233l-73 291zM523 838q0 -21 -8 -39.5t-22.5 -33t-33.5 -22.5t-41 -8q-40 0 -66.5 25t-26.5 63q0 21 8.5 39.5t22.5 33t33.5 22.5t41.5 8q39 0 65.5 -25t26.5 -63zM466 834q0 17 -11 28t-28 11
q-19 0 -32 -13.5t-13 -32.5q0 -17 11 -28t28 -11q19 0 32 13.5t13 32.5z" />
    <glyph glyph-name="AE" unicode="&#xc6;" horiz-adv-x="931" 
d="M484 201h-247l-158 -201h-104l545 700h428l-13 -82h-300l-32 -214h279l-12 -81h-279l-36 -241h302l-12 -82h-391zM496 282l49 327l-248 -327h199z" />
    <glyph glyph-name="Ccedilla" unicode="&#xc7;" horiz-adv-x="661" 
d="M434 -128q0 -39 -29 -65.5t-73 -26.5q-37 0 -62 23t-28 55h62q2 -9 10.5 -17.5t22.5 -8.5q17 0 27.5 11t10.5 27q0 14 -9 22t-24 9q-10 1 -18 -3.5t-14 -10.5l-50 38l56 74q-54 13 -99.5 43.5t-78.5 73t-51.5 95.5t-18.5 112q0 78 31 149t83.5 124t122.5 84.5t148 31.5
q62 0 119.5 -18t105.5 -54l-15 -98q-45 38 -97.5 61t-115.5 23q-59 0 -112 -25t-92.5 -66.5t-62.5 -95.5t-23 -113q0 -52 18.5 -97.5t51 -79.5t77 -54t97.5 -20q52 0 103.5 18.5t96.5 47.5l-14 -99q-44 -23 -93 -38t-98 -15h-9.5t-14.5 1l-35 -42q8 2 16 2q35 -2 56.5 -23
t21.5 -55z" />
    <glyph glyph-name="Egrave" unicode="&#xc8;" horiz-adv-x="531" 
d="M159 700h389l-13 -82h-300l-32 -214h279l-12 -81h-279l-36 -241h302l-12 -82h-391zM351 756l-91 139h99l71 -139h-79z" />
    <glyph glyph-name="Eacute" unicode="&#xc9;" horiz-adv-x="531" 
d="M159 700h389l-13 -82h-300l-32 -214h279l-12 -81h-279l-36 -241h302l-12 -82h-391zM304 756l112 139h105l-130 -139h-87z" />
    <glyph glyph-name="Ecircumflex" unicode="&#xca;" horiz-adv-x="531" 
d="M159 700h389l-13 -82h-300l-32 -214h279l-12 -81h-279l-36 -241h302l-12 -82h-391zM217 756l132 139h68l90 -139h-87l-46 72l-68 -72h-89z" />
    <glyph glyph-name="Edieresis" unicode="&#xcb;" horiz-adv-x="531" 
d="M159 700h389l-13 -82h-300l-32 -214h279l-12 -81h-279l-36 -241h302l-12 -82h-391zM334 826q0 -22 -15.5 -37.5t-37.5 -15.5t-37 15.5t-15 36.5q0 22 15.5 37.5t37.5 15.5t37 -15.5t15 -36.5zM515 826q0 -22 -15.5 -37.5t-37.5 -15.5t-37 15.5t-15 36.5q0 22 15.5 37.5
t37.5 15.5t37 -15.5t15 -36.5z" />
    <glyph glyph-name="Igrave" unicode="&#xcc;" horiz-adv-x="269" 
d="M248 700l-105 -700h-89l105 700h89zM172 756l-91 139h99l71 -139h-79z" />
    <glyph glyph-name="Iacute" unicode="&#xcd;" horiz-adv-x="269" 
d="M248 700l-105 -700h-89l105 700h89zM168 756l112 139h105l-130 -139h-87z" />
    <glyph glyph-name="Icircumflex" unicode="&#xce;" horiz-adv-x="269" 
d="M248 700l-105 -700h-89l105 700h89zM64 756l132 139h68l90 -139h-87l-46 72l-68 -72h-89z" />
    <glyph glyph-name="Idieresis" unicode="&#xcf;" horiz-adv-x="269" 
d="M248 700l-105 -700h-89l105 700h89zM181 826q0 -22 -15.5 -37.5t-37.5 -15.5t-37 15.5t-15 36.5q0 22 15.5 37.5t37.5 15.5t37 -15.5t15 -36.5zM362 826q0 -22 -15.5 -37.5t-37.5 -15.5t-37 15.5t-15 36.5q0 22 15.5 37.5t37.5 15.5t37 -15.5t15 -36.5z" />
    <glyph glyph-name="Eth" unicode="&#xd0;" horiz-adv-x="728" 
d="M116 312h-90l12 80h90l46 308h215q66 0 122 -23t96.5 -64.5t63.5 -98t23 -122.5q0 -81 -31.5 -152t-85.5 -124.5t-126.5 -84.5t-155.5 -31h-226zM409 312h-205l-34 -229h134q61 0 115 24t94.5 65.5t64.5 96.5t24 117q0 51 -16.5 93t-46 73t-70.5 48t-90 17h-129l-34 -225
h205z" />
    <glyph glyph-name="Ntilde" unicode="&#xd1;" horiz-adv-x="775" 
d="M754 700l-105 -700h-82l-342 568l-85 -568h-86l105 700h89l336 -562l84 562h86zM325 769q5 55 32.5 79t65.5 24q25 0 43 -7.5t32 -17t26.5 -17t27.5 -7.5q20 0 29.5 13t11.5 33h59q-4 -56 -32 -79.5t-66 -23.5q-25 0 -43 7.5t-32 17t-26.5 17t-27.5 7.5q-20 0 -29.5 -13
t-11.5 -33h-59z" />
    <glyph glyph-name="Ograve" unicode="&#xd2;" horiz-adv-x="822" 
d="M788 377q0 -78 -31 -148.5t-83.5 -123.5t-123 -84.5t-148.5 -31.5q-70 0 -131 26t-106 71t-71 106t-26 131q0 78 31 149t83.5 124t123 84.5t148.5 31.5q70 0 131 -26t106 -71.5t71 -106.5t26 -131zM405 74q60 0 113 25t93 66.5t63 95.5t23 113q0 52 -18.5 98.5t-51 80.5
t-77.5 54t-99 20q-60 0 -113 -25t-93 -66.5t-63 -96t-23 -113.5q0 -52 18.5 -98t51.5 -80t78 -54t98 -20zM446 756l-91 139h99l71 -139h-79z" />
    <glyph glyph-name="Oacute" unicode="&#xd3;" horiz-adv-x="822" 
d="M788 377q0 -78 -31 -148.5t-83.5 -123.5t-123 -84.5t-148.5 -31.5q-70 0 -131 26t-106 71t-71 106t-26 131q0 78 31 149t83.5 124t123 84.5t148.5 31.5q70 0 131 -26t106 -71.5t71 -106.5t26 -131zM405 74q60 0 113 25t93 66.5t63 95.5t23 113q0 52 -18.5 98.5t-51 80.5
t-77.5 54t-99 20q-60 0 -113 -25t-93 -66.5t-63 -96t-23 -113.5q0 -52 18.5 -98t51.5 -80t78 -54t98 -20zM425 756l112 139h105l-130 -139h-87z" />
    <glyph glyph-name="Ocircumflex" unicode="&#xd4;" horiz-adv-x="822" 
d="M788 377q0 -78 -31 -148.5t-83.5 -123.5t-123 -84.5t-148.5 -31.5q-70 0 -131 26t-106 71t-71 106t-26 131q0 78 31 149t83.5 124t123 84.5t148.5 31.5q70 0 131 -26t106 -71.5t71 -106.5t26 -131zM405 74q60 0 113 25t93 66.5t63 95.5t23 113q0 52 -18.5 98.5t-51 80.5
t-77.5 54t-99 20q-60 0 -113 -25t-93 -66.5t-63 -96t-23 -113.5q0 -52 18.5 -98t51.5 -80t78 -54t98 -20zM334 756l132 139h68l90 -139h-87l-46 72l-68 -72h-89z" />
    <glyph glyph-name="Otilde" unicode="&#xd5;" horiz-adv-x="822" 
d="M788 377q0 -78 -31 -148.5t-83.5 -123.5t-123 -84.5t-148.5 -31.5q-70 0 -131 26t-106 71t-71 106t-26 131q0 78 31 149t83.5 124t123 84.5t148.5 31.5q70 0 131 -26t106 -71.5t71 -106.5t26 -131zM405 74q60 0 113 25t93 66.5t63 95.5t23 113q0 52 -18.5 98.5t-51 80.5
t-77.5 54t-99 20q-60 0 -113 -25t-93 -66.5t-63 -96t-23 -113.5q0 -52 18.5 -98t51.5 -80t78 -54t98 -20zM324 769q5 55 32.5 79t65.5 24q25 0 43 -7.5t32 -17t26.5 -17t27.5 -7.5q20 0 29.5 13t11.5 33h59q-4 -56 -32 -79.5t-66 -23.5q-25 0 -43 7.5t-32 17t-26.5 17
t-27.5 7.5q-20 0 -29.5 -13t-11.5 -33h-59z" />
    <glyph glyph-name="Odieresis" unicode="&#xd6;" horiz-adv-x="822" 
d="M788 377q0 -78 -31 -148.5t-83.5 -123.5t-123 -84.5t-148.5 -31.5q-70 0 -131 26t-106 71t-71 106t-26 131q0 78 31 149t83.5 124t123 84.5t148.5 31.5q70 0 131 -26t106 -71.5t71 -106.5t26 -131zM405 74q60 0 113 25t93 66.5t63 95.5t23 113q0 52 -18.5 98.5t-51 80.5
t-77.5 54t-99 20q-60 0 -113 -25t-93 -66.5t-63 -96t-23 -113.5q0 -52 18.5 -98t51.5 -80t78 -54t98 -20zM451 826q0 -22 -15.5 -37.5t-37.5 -15.5t-37 15.5t-15 36.5q0 22 15.5 37.5t37.5 15.5t37 -15.5t15 -36.5zM632 826q0 -22 -15.5 -37.5t-37.5 -15.5t-37 15.5
t-15 36.5q0 22 15.5 37.5t37.5 15.5t37 -15.5t15 -36.5z" />
    <glyph glyph-name="multiply" unicode="&#xd7;" 
d="M174 554l145 -171l200 173l45 -51l-200 -174l146 -171l-55 -48l-146 171l-199 -173l-45 52l200 173l-146 172z" />
    <glyph glyph-name="Oslash" unicode="&#xd8;" horiz-adv-x="822" 
d="M827 663l-100 -92q29 -41 45 -90t16 -104q0 -78 -31 -148.5t-83.5 -123.5t-123 -84.5t-148.5 -31.5q-64 0 -120 21.5t-101 59.5l-98 -90l-54 60l99 90q-29 41 -44.5 89.5t-15.5 103.5q0 78 31 149t83.5 124t123 84.5t148.5 31.5q65 0 121.5 -22.5t100.5 -61.5l100 91z
M159 326q0 -38 9.5 -72t26.5 -63l416 378q-32 27 -72 42.5t-88 15.5q-60 0 -113 -25t-93 -66.5t-63 -96t-23 -113.5zM405 74q60 0 113 25t93 66.5t63 95.5t23 113q0 76 -37 136l-413 -380q32 -26 71.5 -41t86.5 -15z" />
    <glyph glyph-name="Ugrave" unicode="&#xd9;" horiz-adv-x="695" 
d="M320 -11q-68 0 -116.5 21.5t-78 60.5t-39.5 92.5t0 118.5l62 418h90l-62 -417q-7 -46 -1 -84.5t24 -66.5t49 -43.5t74 -15.5t78.5 15.5t62 43.5t44 66.5t24.5 84.5l64 417h89l-63 -419q-10 -66 -34.5 -120t-63 -92t-89.5 -59t-114 -21zM402 756l-91 139h99l71 -139h-79z
" />
    <glyph glyph-name="Uacute" unicode="&#xda;" horiz-adv-x="695" 
d="M320 -11q-68 0 -116.5 21.5t-78 60.5t-39.5 92.5t0 118.5l62 418h90l-62 -417q-7 -46 -1 -84.5t24 -66.5t49 -43.5t74 -15.5t78.5 15.5t62 43.5t44 66.5t24.5 84.5l64 417h89l-63 -419q-10 -66 -34.5 -120t-63 -92t-89.5 -59t-114 -21zM364 756l112 139h105l-130 -139
h-87z" />
    <glyph glyph-name="Ucircumflex" unicode="&#xdb;" horiz-adv-x="695" 
d="M320 -11q-68 0 -116.5 21.5t-78 60.5t-39.5 92.5t0 118.5l62 418h90l-62 -417q-7 -46 -1 -84.5t24 -66.5t49 -43.5t74 -15.5t78.5 15.5t62 43.5t44 66.5t24.5 84.5l64 417h89l-63 -419q-10 -66 -34.5 -120t-63 -92t-89.5 -59t-114 -21zM279 756l132 139h68l90 -139h-87
l-46 72l-68 -72h-89z" />
    <glyph glyph-name="Udieresis" unicode="&#xdc;" horiz-adv-x="695" 
d="M320 -11q-68 0 -116.5 21.5t-78 60.5t-39.5 92.5t0 118.5l62 418h90l-62 -417q-7 -46 -1 -84.5t24 -66.5t49 -43.5t74 -15.5t78.5 15.5t62 43.5t44 66.5t24.5 84.5l64 417h89l-63 -419q-10 -66 -34.5 -120t-63 -92t-89.5 -59t-114 -21zM395 826q0 -22 -15.5 -37.5
t-37.5 -15.5t-37 15.5t-15 36.5q0 22 15.5 37.5t37.5 15.5t37 -15.5t15 -36.5zM576 826q0 -22 -15.5 -37.5t-37.5 -15.5t-37 15.5t-15 36.5q0 22 15.5 37.5t37.5 15.5t37 -15.5t15 -36.5z" />
    <glyph glyph-name="Yacute" unicode="&#xdd;" horiz-adv-x="620" 
d="M80 700h100l151 -306l243 306h106l-313 -388l-47 -312h-89l47 312zM342 756l112 139h105l-130 -139h-87z" />
    <glyph glyph-name="Thorn" unicode="&#xde;" horiz-adv-x="559" 
d="M248 700l-22 -145h118q46 0 84 -12t65 -35t42 -57t15 -78q0 -52 -19.5 -93t-53.5 -69.5t-80 -43.5t-100 -15h-131l-23 -152h-89l105 700h89zM178 234h124q34 0 63 9.5t50 27t33 42t12 55.5q0 52 -33.5 78.5t-90.5 26.5h-122z" />
    <glyph glyph-name="germandbls" unicode="&#xdf;" horiz-adv-x="601" 
d="M328 422q29 0 55.5 9.5t47 26t32.5 40t12 51.5q0 22 -8.5 41t-24 32.5t-36 21.5t-44.5 8q-66 0 -106.5 -43.5t-51.5 -116.5l-74 -492h-86l74 491q16 111 79 175t166 64q43 0 79.5 -13t62.5 -36t40.5 -54.5t14.5 -68.5q0 -60 -35 -106t-89 -70q51 -20 80.5 -63.5
t29.5 -101.5q0 -50 -20 -92t-54.5 -72t-82 -46.5t-102.5 -16.5q-24 0 -44.5 3.5t-39.5 9.5l12 74q15 -6 36 -7.5t38 -1.5q34 0 65.5 11t55 31.5t37.5 48t14 60.5q0 28 -11 51t-31 39.5t-47 25.5t-59 9h-16l12 78h19z" />
    <glyph glyph-name="agrave" unicode="&#xe0;" horiz-adv-x="626" 
d="M271 -11q-49 0 -90.5 17.5t-72 48.5t-47.5 74t-17 94q0 57 20.5 107t56.5 87t84.5 58.5t104.5 21.5q58 0 104.5 -24t72.5 -62l11 75h85l-73 -486h-85l12 72q-29 -41 -72 -62t-94 -21zM286 68q37 0 70 15.5t57.5 41.5t39 61.5t14.5 76.5q0 34 -11.5 62.5t-32 49t-48 32
t-60.5 11.5q-38 0 -71 -15t-58.5 -41t-40 -60.5t-14.5 -72.5q0 -35 12 -64t32.5 -51t49 -34t61.5 -12zM337 577l-91 139h99l71 -139h-79z" />
    <glyph glyph-name="aacute" unicode="&#xe1;" horiz-adv-x="626" 
d="M271 -11q-49 0 -90.5 17.5t-72 48.5t-47.5 74t-17 94q0 57 20.5 107t56.5 87t84.5 58.5t104.5 21.5q58 0 104.5 -24t72.5 -62l11 75h85l-73 -486h-85l12 72q-29 -41 -72 -62t-94 -21zM286 68q37 0 70 15.5t57.5 41.5t39 61.5t14.5 76.5q0 34 -11.5 62.5t-32 49t-48 32
t-60.5 11.5q-38 0 -71 -15t-58.5 -41t-40 -60.5t-14.5 -72.5q0 -35 12 -64t32.5 -51t49 -34t61.5 -12zM305 577l112 139h105l-130 -139h-87z" />
    <glyph glyph-name="acircumflex" unicode="&#xe2;" horiz-adv-x="626" 
d="M271 -11q-49 0 -90.5 17.5t-72 48.5t-47.5 74t-17 94q0 57 20.5 107t56.5 87t84.5 58.5t104.5 21.5q58 0 104.5 -24t72.5 -62l11 75h85l-73 -486h-85l12 72q-29 -41 -72 -62t-94 -21zM286 68q37 0 70 15.5t57.5 41.5t39 61.5t14.5 76.5q0 34 -11.5 62.5t-32 49t-48 32
t-60.5 11.5q-38 0 -71 -15t-58.5 -41t-40 -60.5t-14.5 -72.5q0 -35 12 -64t32.5 -51t49 -34t61.5 -12zM207 577l132 139h68l90 -139h-87l-46 72l-68 -72h-89z" />
    <glyph glyph-name="atilde" unicode="&#xe3;" horiz-adv-x="626" 
d="M271 -11q-49 0 -90.5 17.5t-72 48.5t-47.5 74t-17 94q0 57 20.5 107t56.5 87t84.5 58.5t104.5 21.5q58 0 104.5 -24t72.5 -62l11 75h85l-73 -486h-85l12 72q-29 -41 -72 -62t-94 -21zM286 68q37 0 70 15.5t57.5 41.5t39 61.5t14.5 76.5q0 34 -11.5 62.5t-32 49t-48 32
t-60.5 11.5q-38 0 -71 -15t-58.5 -41t-40 -60.5t-14.5 -72.5q0 -35 12 -64t32.5 -51t49 -34t61.5 -12zM201 588q5 55 32.5 79t65.5 24q25 0 43 -7.5t32 -17t26.5 -17t27.5 -7.5q20 0 29.5 13t11.5 33h59q-4 -56 -32 -79.5t-66 -23.5q-25 0 -43 7.5t-32 17t-26.5 17
t-27.5 7.5q-20 0 -29.5 -13t-11.5 -33h-59z" />
    <glyph glyph-name="adieresis" unicode="&#xe4;" horiz-adv-x="626" 
d="M271 -11q-49 0 -90.5 17.5t-72 48.5t-47.5 74t-17 94q0 57 20.5 107t56.5 87t84.5 58.5t104.5 21.5q58 0 104.5 -24t72.5 -62l11 75h85l-73 -486h-85l12 72q-29 -41 -72 -62t-94 -21zM286 68q37 0 70 15.5t57.5 41.5t39 61.5t14.5 76.5q0 34 -11.5 62.5t-32 49t-48 32
t-60.5 11.5q-38 0 -71 -15t-58.5 -41t-40 -60.5t-14.5 -72.5q0 -35 12 -64t32.5 -51t49 -34t61.5 -12zM319 628q0 -22 -15.5 -37.5t-37.5 -15.5t-37 15.5t-15 36.5q0 22 15.5 37.5t37.5 15.5t37 -15.5t15 -36.5zM500 628q0 -22 -15.5 -37.5t-37.5 -15.5t-37 15.5t-15 36.5
q0 22 15.5 37.5t37.5 15.5t37 -15.5t15 -36.5z" />
    <glyph glyph-name="aring" unicode="&#xe5;" horiz-adv-x="626" 
d="M271 -11q-49 0 -90.5 17.5t-72 48.5t-47.5 74t-17 94q0 57 20.5 107t56.5 87t84.5 58.5t104.5 21.5q58 0 104.5 -24t72.5 -62l11 75h85l-73 -486h-85l12 72q-29 -41 -72 -62t-94 -21zM286 68q37 0 70 15.5t57.5 41.5t39 61.5t14.5 76.5q0 34 -11.5 62.5t-32 49t-48 32
t-60.5 11.5q-38 0 -71 -15t-58.5 -41t-40 -60.5t-14.5 -72.5q0 -35 12 -64t32.5 -51t49 -34t61.5 -12zM459 653q0 -21 -8 -39.5t-22.5 -31.5t-33 -20.5t-39.5 -7.5q-40 0 -67.5 26t-27.5 66q0 21 8 39.5t22.5 31.5t33 20.5t39.5 7.5q40 0 67.5 -25.5t27.5 -66.5zM402 651
q0 17 -11.5 29t-28.5 12q-16 0 -30 -12t-14 -32q0 -17 11.5 -29t28.5 -12q16 0 30 12.5t14 31.5z" />
    <glyph glyph-name="ae" unicode="&#xe6;" horiz-adv-x="865" 
d="M594 66q50 0 80.5 24.5t54.5 59.5l67 -37q-32 -54 -86 -89t-123 -35q-63 0 -112 29t-76 80q-39 -59 -93.5 -84t-117.5 -25q-70 0 -111.5 35t-40.5 96q1 68 49.5 111t139.5 54l148 18l4 27q6 39 -21 65t-75 26q-80 0 -119 -86l-76 31q27 63 79.5 97t124.5 34
q56 0 95.5 -22.5t57.5 -60.5q32 38 76 60.5t98 22.5q47 0 86 -17.5t67 -48t43.5 -72t15.5 -89.5q0 -12 -1.5 -27t-5.5 -27h-375q0 -33 12 -61t32.5 -47.5t47 -30.5t55.5 -11zM612 422q-20 0 -43.5 -7.5t-45 -24t-39.5 -42t-28 -61.5h290q-2 30 -12.5 54.5t-28.5 42.5t-42 28
t-51 10zM123 125q0 -29 22 -45t62 -16q28 0 53.5 10t45.5 27.5t33.5 41t17.5 51.5l5 35l-130 -17q-51 -7 -80 -30t-29 -57z" />
    <glyph glyph-name="ccedilla" unicode="&#xe7;" horiz-adv-x="482" 
d="M331 -128q0 -39 -29 -65.5t-73 -26.5q-37 0 -62 23t-28 55h62q2 -9 10.5 -17.5t22.5 -8.5q17 0 27.5 11t10.5 27q0 14 -9 22t-24 9q-10 1 -18 -3.5t-14 -10.5l-50 38l55 74q-37 10 -68 30t-53 48.5t-34.5 65t-12.5 78.5q0 57 21 107.5t58 88t87 59t107 21.5
q41 0 81 -12.5t71 -38.5l-13 -86q-30 26 -65 41.5t-76 15.5q-39 0 -72 -15.5t-58 -42t-39 -61t-14 -72.5q0 -34 11.5 -63t32.5 -50t49.5 -33t61.5 -12q35 0 69.5 13t65.5 31l-14 -89q-29 -16 -60 -25t-64 -9h-13l-34 -41q8 2 16 2q35 -2 56.5 -23t21.5 -55z" />
    <glyph glyph-name="egrave" unicode="&#xe8;" horiz-adv-x="560" 
d="M282 66q26 0 47 6.5t37.5 18t30.5 27t27 32.5l67 -37q-33 -54 -88.5 -89t-127.5 -35q-50 0 -92.5 16.5t-73 46t-48 71.5t-17.5 93q0 56 19.5 107t54 89.5t82.5 61.5t105 23q48 0 88.5 -17.5t69.5 -48t45 -72t16 -89.5q0 -12 -1.5 -27t-5.5 -27h-390q0 -33 13 -61
t34.5 -47.5t49.5 -30.5t58 -11zM300 422q-21 0 -45.5 -7.5t-47.5 -24t-42 -42t-29 -61.5h305q-2 30 -13 54.5t-30 42.5t-44 28t-54 10zM306 577l-91 139h99l71 -139h-79z" />
    <glyph glyph-name="eacute" unicode="&#xe9;" horiz-adv-x="560" 
d="M282 66q26 0 47 6.5t37.5 18t30.5 27t27 32.5l67 -37q-33 -54 -88.5 -89t-127.5 -35q-50 0 -92.5 16.5t-73 46t-48 71.5t-17.5 93q0 56 19.5 107t54 89.5t82.5 61.5t105 23q48 0 88.5 -17.5t69.5 -48t45 -72t16 -89.5q0 -12 -1.5 -27t-5.5 -27h-390q0 -33 13 -61
t34.5 -47.5t49.5 -30.5t58 -11zM300 422q-21 0 -45.5 -7.5t-47.5 -24t-42 -42t-29 -61.5h305q-2 30 -13 54.5t-30 42.5t-44 28t-54 10zM284 577l112 139h105l-130 -139h-87z" />
    <glyph glyph-name="ecircumflex" unicode="&#xea;" horiz-adv-x="560" 
d="M282 66q26 0 47 6.5t37.5 18t30.5 27t27 32.5l67 -37q-33 -54 -88.5 -89t-127.5 -35q-50 0 -92.5 16.5t-73 46t-48 71.5t-17.5 93q0 56 19.5 107t54 89.5t82.5 61.5t105 23q48 0 88.5 -17.5t69.5 -48t45 -72t16 -89.5q0 -12 -1.5 -27t-5.5 -27h-390q0 -33 13 -61
t34.5 -47.5t49.5 -30.5t58 -11zM300 422q-21 0 -45.5 -7.5t-47.5 -24t-42 -42t-29 -61.5h305q-2 30 -13 54.5t-30 42.5t-44 28t-54 10zM184 577l132 139h68l90 -139h-87l-46 72l-68 -72h-89z" />
    <glyph glyph-name="edieresis" unicode="&#xeb;" horiz-adv-x="560" 
d="M282 66q26 0 47 6.5t37.5 18t30.5 27t27 32.5l67 -37q-33 -54 -88.5 -89t-127.5 -35q-50 0 -92.5 16.5t-73 46t-48 71.5t-17.5 93q0 56 19.5 107t54 89.5t82.5 61.5t105 23q48 0 88.5 -17.5t69.5 -48t45 -72t16 -89.5q0 -12 -1.5 -27t-5.5 -27h-390q0 -33 13 -61
t34.5 -47.5t49.5 -30.5t58 -11zM300 422q-21 0 -45.5 -7.5t-47.5 -24t-42 -42t-29 -61.5h305q-2 30 -13 54.5t-30 42.5t-44 28t-54 10zM298 628q0 -22 -15.5 -37.5t-37.5 -15.5t-37 15.5t-15 36.5q0 22 15.5 37.5t37.5 15.5t37 -15.5t15 -36.5zM479 628q0 -22 -15.5 -37.5
t-37.5 -15.5t-37 15.5t-15 36.5q0 22 15.5 37.5t37.5 15.5t37 -15.5t15 -36.5z" />
    <glyph glyph-name="igrave" unicode="&#xec;" horiz-adv-x="246" 
d="M131 577l-91 139h99l71 -139h-79zM203 486l-73 -486h-86l73 486h86z" />
    <glyph glyph-name="iacute" unicode="&#xed;" horiz-adv-x="246" 
d="M126 577l112 139h105l-130 -139h-87zM203 486l-73 -486h-86l73 486h86z" />
    <glyph glyph-name="icircumflex" unicode="&#xee;" horiz-adv-x="246" 
d="M203 486l-73 -486h-86l73 486h86zM26 577l132 139h68l90 -139h-87l-46 72l-68 -72h-89z" />
    <glyph glyph-name="idieresis" unicode="&#xef;" horiz-adv-x="246" 
d="M137 628q0 -22 -15.5 -37.5t-37.5 -15.5t-37 15.5t-15 36.5q0 22 15.5 37.5t37.5 15.5t37 -15.5t15 -36.5zM318 628q0 -22 -15.5 -37.5t-37.5 -15.5t-37 15.5t-15 36.5q0 22 15.5 37.5t37.5 15.5t37 -15.5t15 -36.5zM203 486l-73 -486h-86l73 486h86z" />
    <glyph glyph-name="eth" unicode="&#xf0;" horiz-adv-x="599" 
d="M537 649l-118 -44l29 -44q43 -66 75 -138.5t32 -148.5q0 -58 -18.5 -109.5t-53 -90.5t-84.5 -62t-112 -23q-51 0 -95 17t-76.5 48t-51 73.5t-18.5 93.5q0 52 19.5 99t53.5 82.5t80 56.5t99 21q32 0 66.5 -8.5t60.5 -29.5q-18 35 -38 69t-41 67l-149 -55l-30 56l143 53
l-61 92h93l42 -65l123 46zM287 67q38 0 71 15.5t57.5 41t38.5 59.5t14 70q0 33 -11 61t-31 48.5t-48.5 32.5t-62.5 12q-39 0 -72 -15t-57.5 -40t-38.5 -58.5t-14 -70.5q0 -32 11 -60.5t31.5 -49.5t48.5 -33.5t63 -12.5z" />
    <glyph glyph-name="ntilde" unicode="&#xf1;" horiz-adv-x="590" 
d="M130 0h-86l73 486h86l-11 -68q26 35 67.5 57t92.5 22q97 0 141.5 -58t29.5 -158l-42 -281h-86l41 277q10 67 -18 103.5t-91 36.5q-61 0 -104.5 -45t-54.5 -120zM194 588q5 55 32.5 79t65.5 24q25 0 43 -7.5t32 -17t26.5 -17t27.5 -7.5q20 0 29.5 13t11.5 33h59
q-4 -56 -32 -79.5t-66 -23.5q-25 0 -43 7.5t-32 17t-26.5 17t-27.5 7.5q-20 0 -29.5 -13t-11.5 -33h-59z" />
    <glyph glyph-name="ograve" unicode="&#xf2;" horiz-adv-x="598" 
d="M317 497q50 0 93.5 -17.5t75.5 -48.5t50.5 -74t18.5 -94q0 -56 -21 -105.5t-58 -87t-87 -59.5t-107 -22q-51 0 -94.5 17.5t-75.5 48.5t-50 74t-18 94q0 56 21 105.5t58 87t87 59.5t107 22zM313 418q-36 0 -68.5 -14.5t-58 -40t-40.5 -61t-15 -76.5q0 -33 11.5 -61.5
t32 -50t48.5 -34t62 -12.5q36 0 69 14.5t58.5 40.5t40.5 61t15 77q0 33 -11.5 61.5t-32 49.5t-49 33.5t-62.5 12.5zM307 577l-91 139h99l71 -139h-79z" />
    <glyph glyph-name="oacute" unicode="&#xf3;" horiz-adv-x="598" 
d="M317 497q50 0 93.5 -17.5t75.5 -48.5t50.5 -74t18.5 -94q0 -56 -21 -105.5t-58 -87t-87 -59.5t-107 -22q-51 0 -94.5 17.5t-75.5 48.5t-50 74t-18 94q0 56 21 105.5t58 87t87 59.5t107 22zM313 418q-36 0 -68.5 -14.5t-58 -40t-40.5 -61t-15 -76.5q0 -33 11.5 -61.5
t32 -50t48.5 -34t62 -12.5q36 0 69 14.5t58.5 40.5t40.5 61t15 77q0 33 -11.5 61.5t-32 49.5t-49 33.5t-62.5 12.5zM295 577l112 139h105l-130 -139h-87z" />
    <glyph glyph-name="ocircumflex" unicode="&#xf4;" horiz-adv-x="598" 
d="M317 497q50 0 93.5 -17.5t75.5 -48.5t50.5 -74t18.5 -94q0 -56 -21 -105.5t-58 -87t-87 -59.5t-107 -22q-51 0 -94.5 17.5t-75.5 48.5t-50 74t-18 94q0 56 21 105.5t58 87t87 59.5t107 22zM313 418q-36 0 -68.5 -14.5t-58 -40t-40.5 -61t-15 -76.5q0 -33 11.5 -61.5
t32 -50t48.5 -34t62 -12.5q36 0 69 14.5t58.5 40.5t40.5 61t15 77q0 33 -11.5 61.5t-32 49.5t-49 33.5t-62.5 12.5zM203 577l132 139h68l90 -139h-87l-46 72l-68 -72h-89z" />
    <glyph glyph-name="otilde" unicode="&#xf5;" horiz-adv-x="598" 
d="M317 497q50 0 93.5 -17.5t75.5 -48.5t50.5 -74t18.5 -94q0 -56 -21 -105.5t-58 -87t-87 -59.5t-107 -22q-51 0 -94.5 17.5t-75.5 48.5t-50 74t-18 94q0 56 21 105.5t58 87t87 59.5t107 22zM313 418q-36 0 -68.5 -14.5t-58 -40t-40.5 -61t-15 -76.5q0 -33 11.5 -61.5
t32 -50t48.5 -34t62 -12.5q36 0 69 14.5t58.5 40.5t40.5 61t15 77q0 33 -11.5 61.5t-32 49.5t-49 33.5t-62.5 12.5zM191 588q5 55 32.5 79t65.5 24q25 0 43 -7.5t32 -17t26.5 -17t27.5 -7.5q20 0 29.5 13t11.5 33h59q-4 -56 -32 -79.5t-66 -23.5q-25 0 -43 7.5t-32 17
t-26.5 17t-27.5 7.5q-20 0 -29.5 -13t-11.5 -33h-59z" />
    <glyph glyph-name="odieresis" unicode="&#xf6;" horiz-adv-x="598" 
d="M317 497q50 0 93.5 -17.5t75.5 -48.5t50.5 -74t18.5 -94q0 -56 -21 -105.5t-58 -87t-87 -59.5t-107 -22q-51 0 -94.5 17.5t-75.5 48.5t-50 74t-18 94q0 56 21 105.5t58 87t87 59.5t107 22zM313 418q-36 0 -68.5 -14.5t-58 -40t-40.5 -61t-15 -76.5q0 -33 11.5 -61.5
t32 -50t48.5 -34t62 -12.5q36 0 69 14.5t58.5 40.5t40.5 61t15 77q0 33 -11.5 61.5t-32 49.5t-49 33.5t-62.5 12.5zM311 628q0 -22 -15.5 -37.5t-37.5 -15.5t-37 15.5t-15 36.5q0 22 15.5 37.5t37.5 15.5t37 -15.5t15 -36.5zM492 628q0 -22 -15.5 -37.5t-37.5 -15.5
t-37 15.5t-15 36.5q0 22 15.5 37.5t37.5 15.5t37 -15.5t15 -36.5z" />
    <glyph glyph-name="divide" unicode="&#xf7;" 
d="M94 370h452l-11 -73h-452zM344 161q0 -24 -17 -40.5t-40 -16.5t-38.5 16t-15.5 38q0 24 17 40.5t40 16.5t38.5 -16t15.5 -38zM396 509q0 -24 -17 -40.5t-40 -16.5t-38.5 16t-15.5 38q0 24 17 40.5t40 16.5t38.5 -16t15.5 -38z" />
    <glyph glyph-name="oslash" unicode="&#xf8;" horiz-adv-x="598" 
d="M317 497q44 0 82.5 -13.5t69.5 -37.5l62 56l49 -56l-61 -56q36 -56 36 -127q0 -56 -21 -105.5t-58 -87t-87 -59.5t-107 -22q-89 0 -151 50l-63 -57l-49 56l61 56q-36 56 -36 129q0 56 21 105.5t58 87t87 59.5t107 22zM313 418q-36 0 -68.5 -14.5t-58 -40t-40.5 -61
t-15 -76.5t16 -72l259 234q-41 30 -93 30zM468 261q0 19 -4 36t-11 33l-259 -234q39 -28 91 -28q36 0 69 14.5t58.5 40.5t40.5 61t15 77z" />
    <glyph glyph-name="ugrave" unicode="&#xf9;" horiz-adv-x="587" 
d="M458 486h86l-73 -486h-86l11 68q-27 -35 -67 -57t-94 -22q-94 0 -138 58.5t-29 157.5l42 281h86l-41 -277q-10 -67 17.5 -103.5t89.5 -36.5q30 0 56.5 12t47 33.5t34.5 52t20 67.5zM313 577l-91 139h99l71 -139h-79z" />
    <glyph glyph-name="uacute" unicode="&#xfa;" horiz-adv-x="587" 
d="M458 486h86l-73 -486h-86l11 68q-27 -35 -67 -57t-94 -22q-94 0 -138 58.5t-29 157.5l42 281h86l-41 -277q-10 -67 17.5 -103.5t89.5 -36.5q30 0 56.5 12t47 33.5t34.5 52t20 67.5zM285 577l112 139h105l-130 -139h-87z" />
    <glyph glyph-name="ucircumflex" unicode="&#xfb;" horiz-adv-x="587" 
d="M458 486h86l-73 -486h-86l11 68q-27 -35 -67 -57t-94 -22q-94 0 -138 58.5t-29 157.5l42 281h86l-41 -277q-10 -67 17.5 -103.5t89.5 -36.5q30 0 56.5 12t47 33.5t34.5 52t20 67.5zM196 577l132 139h68l90 -139h-87l-46 72l-68 -72h-89z" />
    <glyph glyph-name="udieresis" unicode="&#xfc;" horiz-adv-x="587" 
d="M458 486h86l-73 -486h-86l11 68q-27 -35 -67 -57t-94 -22q-94 0 -138 58.5t-29 157.5l42 281h86l-41 -277q-10 -67 17.5 -103.5t89.5 -36.5q30 0 56.5 12t47 33.5t34.5 52t20 67.5zM308 628q0 -22 -15.5 -37.5t-37.5 -15.5t-37 15.5t-15 36.5q0 22 15.5 37.5t37.5 15.5
t37 -15.5t15 -36.5zM489 628q0 -22 -15.5 -37.5t-37.5 -15.5t-37 15.5t-15 36.5q0 22 15.5 37.5t37.5 15.5t37 -15.5t15 -36.5z" />
    <glyph glyph-name="yacute" unicode="&#xfd;" horiz-adv-x="513" 
d="M212 -81q-22 -39 -42 -66t-40.5 -43t-42.5 -23t-48 -7q-32 0 -55 15l10 73q8 -4 19 -7t25 -3q29 0 52 20t49 67l39 71l-121 470h89l90 -375l206 375h92zM261 577l112 139h105l-130 -139h-87z" />
    <glyph glyph-name="thorn" unicode="&#xfe;" horiz-adv-x="625" 
d="M190 416q10 15 26.5 29.5t37.5 26t46.5 18.5t54.5 7q49 0 90.5 -17.5t72 -48.5t47.5 -74t17 -94q0 -57 -21 -107t-57 -87t-84.5 -58.5t-103.5 -21.5q-58 0 -104.5 24t-72.5 62l-42 -283h-85l136 908h85zM340 418q-37 0 -70 -15.5t-57.5 -41.5t-39 -62t-14.5 -76
q0 -34 11.5 -62.5t32 -49t48 -32t60.5 -11.5q37 0 70.5 15t59 41t40 60.5t14.5 72.5q0 34 -12 63.5t-32.5 51.5t-49 34t-61.5 12z" />
    <glyph glyph-name="ydieresis" unicode="&#xff;" horiz-adv-x="513" 
d="M212 -81q-22 -39 -42 -66t-40.5 -43t-42.5 -23t-48 -7q-32 0 -55 15l10 73q8 -4 19 -7t25 -3q29 0 52 20t49 67l39 71l-121 470h89l90 -375l206 375h92zM272 628q0 -22 -15.5 -37.5t-37.5 -15.5t-37 15.5t-15 36.5q0 22 15.5 37.5t37.5 15.5t37 -15.5t15 -36.5zM453 628
q0 -22 -15.5 -37.5t-37.5 -15.5t-37 15.5t-15 36.5q0 22 15.5 37.5t37.5 15.5t37 -15.5t15 -36.5z" />
    <glyph glyph-name="Amacron" unicode="&#x100;" horiz-adv-x="671" 
d="M440 700l183 -700h-91l-52 203h-297l-112 -203h-95l394 700h70zM227 284h233l-73 291zM283 780l9 58h268l-9 -58h-268z" />
    <glyph glyph-name="amacron" unicode="&#x101;" horiz-adv-x="626" 
d="M271 -11q-49 0 -90.5 17.5t-72 48.5t-47.5 74t-17 94q0 57 20.5 107t56.5 87t84.5 58.5t104.5 21.5q58 0 104.5 -24t72.5 -62l11 75h85l-73 -486h-85l12 72q-29 -41 -72 -62t-94 -21zM286 68q37 0 70 15.5t57.5 41.5t39 61.5t14.5 76.5q0 34 -11.5 62.5t-32 49t-48 32
t-60.5 11.5q-38 0 -71 -15t-58.5 -41t-40 -60.5t-14.5 -72.5q0 -35 12 -64t32.5 -51t49 -34t61.5 -12zM221 600l9 58h268l-9 -58h-268z" />
    <glyph glyph-name="Abreve" unicode="&#x102;" horiz-adv-x="671" 
d="M440 700l183 -700h-91l-52 203h-297l-112 -203h-95l394 700h70zM227 284h233l-73 291zM428 819q29 0 48.5 20t24.5 53h67q-5 -59 -44.5 -96t-99.5 -37q-30 0 -53.5 10t-40 27.5t-24.5 42t-6 53.5h67q0 -33 16 -53t45 -20z" />
    <glyph glyph-name="abreve" unicode="&#x103;" horiz-adv-x="626" 
d="M271 -11q-49 0 -90.5 17.5t-72 48.5t-47.5 74t-17 94q0 57 20.5 107t56.5 87t84.5 58.5t104.5 21.5q58 0 104.5 -24t72.5 -62l11 75h85l-73 -486h-85l12 72q-29 -41 -72 -62t-94 -21zM286 68q37 0 70 15.5t57.5 41.5t39 61.5t14.5 76.5q0 34 -11.5 62.5t-32 49t-48 32
t-60.5 11.5q-38 0 -71 -15t-58.5 -41t-40 -60.5t-14.5 -72.5q0 -35 12 -64t32.5 -51t49 -34t61.5 -12zM361 637q29 0 48.5 20t24.5 53h67q-5 -59 -44.5 -96t-99.5 -37q-30 0 -53.5 10t-40 27.5t-24.5 42t-6 53.5h67q0 -33 16 -53t45 -20z" />
    <glyph glyph-name="Aogonek" unicode="&#x104;" horiz-adv-x="671" 
d="M440 700l183 -700q-25 -9 -47.5 -21t-39.5 -26t-27 -29.5t-10 -30.5q0 -17 11 -26t31 -9q13 0 26 3.5t25 12.5l-9 -62q-30 -16 -66 -16q-44 0 -67.5 21.5t-23.5 59.5q0 75 106 123l-52 203h-297l-112 -203h-95l394 700h70zM227 284h233l-73 291z" />
    <glyph glyph-name="aogonek" unicode="&#x105;" horiz-adv-x="626" 
d="M271 -11q-49 0 -90.5 17.5t-72 48.5t-47.5 74t-17 94q0 57 20.5 107t56.5 87t84.5 58.5t104.5 21.5q58 0 104.5 -24t72.5 -62l11 75h85l-73 -486q-24 -10 -46 -22t-38.5 -26t-26 -29t-9.5 -30q0 -17 11 -26t31 -9q13 0 26 3.5t25 12.5l-9 -62q-30 -16 -66 -16
q-44 0 -67.5 21.5t-23.5 59.5q0 76 108 124l12 71q-29 -41 -72 -62t-94 -21zM286 68q37 0 70 15.5t57.5 41.5t39 61.5t14.5 76.5q0 34 -11.5 62.5t-32 49t-48 32t-60.5 11.5q-38 0 -71 -15t-58.5 -41t-40 -60.5t-14.5 -72.5q0 -35 12 -64t32.5 -51t49 -34t61.5 -12z" />
    <glyph glyph-name="Cacute" unicode="&#x106;" horiz-adv-x="661" 
d="M450 626q-59 0 -112 -25t-92.5 -66.5t-62.5 -95.5t-23 -113q0 -52 18.5 -97.5t51 -79.5t77 -54t97.5 -20q52 0 103.5 18.5t96.5 47.5l-14 -99q-44 -23 -93 -38t-98 -15q-69 0 -129.5 26t-105.5 71t-70.5 106t-25.5 131q0 78 31 149t83.5 124t122.5 84.5t148 31.5
q62 0 119.5 -18t105.5 -54l-15 -98q-45 38 -97.5 61t-115.5 23zM429 756l112 139h105l-130 -139h-87z" />
    <glyph glyph-name="cacute" unicode="&#x107;" horiz-adv-x="482" 
d="M44 221q0 57 21 107.5t58 88t87 59t107 21.5q41 0 81 -12.5t71 -38.5l-13 -86q-30 26 -65 41.5t-76 15.5q-39 0 -72 -15.5t-58 -42t-39 -61t-14 -72.5q0 -34 11.5 -63t32.5 -50t49.5 -33t61.5 -12q35 0 69.5 13t65.5 31l-14 -89q-29 -16 -60 -25t-64 -9q-51 0 -94.5 17
t-76 47.5t-51 73t-18.5 94.5zM288 577l112 139h105l-130 -139h-87z" />
    <glyph glyph-name="Ccircumflex" unicode="&#x108;" horiz-adv-x="661" 
d="M450 626q-59 0 -112 -25t-92.5 -66.5t-62.5 -95.5t-23 -113q0 -52 18.5 -97.5t51 -79.5t77 -54t97.5 -20q52 0 103.5 18.5t96.5 47.5l-14 -99q-44 -23 -93 -38t-98 -15q-69 0 -129.5 26t-105.5 71t-70.5 106t-25.5 131q0 78 31 149t83.5 124t122.5 84.5t148 31.5
q62 0 119.5 -18t105.5 -54l-15 -98q-45 38 -97.5 61t-115.5 23zM343 756l132 139h68l90 -139h-87l-46 72l-68 -72h-89z" />
    <glyph glyph-name="ccircumflex" unicode="&#x109;" horiz-adv-x="482" 
d="M44 221q0 57 21 107.5t58 88t87 59t107 21.5q41 0 81 -12.5t71 -38.5l-13 -86q-30 26 -65 41.5t-76 15.5q-39 0 -72 -15.5t-58 -42t-39 -61t-14 -72.5q0 -34 11.5 -63t32.5 -50t49.5 -33t61.5 -12q35 0 69.5 13t65.5 31l-14 -89q-29 -16 -60 -25t-64 -9q-51 0 -94.5 17
t-76 47.5t-51 73t-18.5 94.5zM202 577l132 139h68l90 -139h-87l-46 72l-68 -72h-89z" />
    <glyph glyph-name="Cdotaccent" unicode="&#x10a;" horiz-adv-x="661" 
d="M450 626q-59 0 -112 -25t-92.5 -66.5t-62.5 -95.5t-23 -113q0 -52 18.5 -97.5t51 -79.5t77 -54t97.5 -20q52 0 103.5 18.5t96.5 47.5l-14 -99q-44 -23 -93 -38t-98 -15q-69 0 -129.5 26t-105.5 71t-70.5 106t-25.5 131q0 78 31 149t83.5 124t122.5 84.5t148 31.5
q62 0 119.5 -18t105.5 -54l-15 -98q-45 38 -97.5 61t-115.5 23zM556 828q0 -24 -17 -40.5t-40 -16.5t-39 16t-16 39q0 24 17 40.5t40 16.5t39 -16t16 -39z" />
    <glyph glyph-name="cdotaccent" unicode="&#x10b;" horiz-adv-x="482" 
d="M44 221q0 57 21 107.5t58 88t87 59t107 21.5q41 0 81 -12.5t71 -38.5l-13 -86q-30 26 -65 41.5t-76 15.5q-39 0 -72 -15.5t-58 -42t-39 -61t-14 -72.5q0 -34 11.5 -63t32.5 -50t49.5 -33t61.5 -12q35 0 69.5 13t65.5 31l-14 -89q-29 -16 -60 -25t-64 -9q-51 0 -94.5 17
t-76 47.5t-51 73t-18.5 94.5zM419 631q0 -25 -17.5 -42t-41.5 -17t-40.5 17t-16.5 40q0 25 17.5 42t41.5 17t40.5 -17t16.5 -40z" />
    <glyph glyph-name="Ccaron" unicode="&#x10c;" horiz-adv-x="661" 
d="M450 626q-59 0 -112 -25t-92.5 -66.5t-62.5 -95.5t-23 -113q0 -52 18.5 -97.5t51 -79.5t77 -54t97.5 -20q52 0 103.5 18.5t96.5 47.5l-14 -99q-44 -23 -93 -38t-98 -15q-69 0 -129.5 26t-105.5 71t-70.5 106t-25.5 131q0 78 31 149t83.5 124t122.5 84.5t148 31.5
q62 0 119.5 -18t105.5 -54l-15 -98q-45 38 -97.5 61t-115.5 23zM652 895l-132 -139h-68l-90 139h87l46 -72l68 72h89z" />
    <glyph glyph-name="ccaron" unicode="&#x10d;" horiz-adv-x="482" 
d="M44 221q0 57 21 107.5t58 88t87 59t107 21.5q41 0 81 -12.5t71 -38.5l-13 -86q-30 26 -65 41.5t-76 15.5q-39 0 -72 -15.5t-58 -42t-39 -61t-14 -72.5q0 -34 11.5 -63t32.5 -50t49.5 -33t61.5 -12q35 0 69.5 13t65.5 31l-14 -89q-29 -16 -60 -25t-64 -9q-51 0 -94.5 17
t-76 47.5t-51 73t-18.5 94.5zM519 716l-132 -139h-68l-90 139h87l46 -72l68 72h89z" />
    <glyph glyph-name="Dcaron" unicode="&#x10e;" horiz-adv-x="713" 
d="M159 700h215q66 0 122 -23t96.5 -64.5t63.5 -98t23 -122.5q0 -81 -31.5 -152t-85.5 -124.5t-126.5 -84.5t-155.5 -31h-226zM587 386q0 51 -16.5 93t-46 73t-70.5 48t-90 17h-129l-80 -534h134q61 0 115 24t94.5 65.5t64.5 96.5t24 117zM569 895l-132 -139h-68l-90 139h87
l46 -72l68 72h89z" />
    <glyph glyph-name="dcaron" unicode="&#x10f;" horiz-adv-x="625" 
d="M271 -11q-49 0 -90.5 17.5t-72 48.5t-47.5 74t-17 94q0 57 20.5 107t56.5 87t84.5 58.5t104.5 21.5q58 0 104.5 -24t72.5 -62l42 289h85l-104 -700h-85l12 72q-29 -41 -72 -62t-94 -21zM286 68q37 0 70 15.5t57.5 41.5t39 61.5t14.5 76.5q0 34 -11.5 62.5t-32 49t-48 32
t-60.5 11.5q-38 0 -71 -15t-58.5 -41t-40 -60.5t-14.5 -72.5q0 -35 12 -64t32.5 -51t49 -34t61.5 -12zM632 548l51 163h90l-66 -163h-75z" />
    <glyph glyph-name="Dcroat" unicode="&#x110;" horiz-adv-x="728" 
d="M116 312h-90l12 80h90l46 308h215q66 0 122 -23t96.5 -64.5t63.5 -98t23 -122.5q0 -81 -31.5 -152t-85.5 -124.5t-126.5 -84.5t-155.5 -31h-226zM409 312h-205l-34 -229h134q61 0 115 24t94.5 65.5t64.5 96.5t24 117q0 51 -16.5 93t-46 73t-70.5 48t-90 17h-129l-34 -225
h205z" />
    <glyph glyph-name="dcroat" unicode="&#x111;" horiz-adv-x="631" 
d="M529 700h85l-12 -78h68l-10 -64h-67l-83 -558h-85l12 72q-29 -41 -72 -62t-94 -21q-49 0 -90.5 17.5t-72 48.5t-47.5 74t-17 94q0 57 20.5 107t56.5 87t84.5 58.5t104.5 21.5q58 0 104.5 -24t72.5 -62l21 147h-221l10 64h220zM286 68q37 0 70 15.5t57.5 41.5t39 61.5
t14.5 76.5q0 34 -11.5 62.5t-32 49t-48 32t-60.5 11.5q-38 0 -71 -15t-58.5 -41t-40 -60.5t-14.5 -72.5q0 -35 12 -64t32.5 -51t49 -34t61.5 -12z" />
    <glyph glyph-name="Emacron" unicode="&#x112;" horiz-adv-x="531" 
d="M159 700h389l-13 -82h-300l-32 -214h279l-12 -81h-279l-36 -241h302l-12 -82h-391zM232 780l9 58h268l-9 -58h-268z" />
    <glyph glyph-name="emacron" unicode="&#x113;" horiz-adv-x="560" 
d="M282 66q26 0 47 6.5t37.5 18t30.5 27t27 32.5l67 -37q-33 -54 -88.5 -89t-127.5 -35q-50 0 -92.5 16.5t-73 46t-48 71.5t-17.5 93q0 56 19.5 107t54 89.5t82.5 61.5t105 23q48 0 88.5 -17.5t69.5 -48t45 -72t16 -89.5q0 -12 -1.5 -27t-5.5 -27h-390q0 -33 13 -61
t34.5 -47.5t49.5 -30.5t58 -11zM300 422q-21 0 -45.5 -7.5t-47.5 -24t-42 -42t-29 -61.5h305q-2 30 -13 54.5t-30 42.5t-44 28t-54 10zM197 598l9 58h268l-9 -58h-268z" />
    <glyph glyph-name="Ebreve" unicode="&#x114;" horiz-adv-x="531" 
d="M159 700h389l-13 -82h-300l-32 -214h279l-12 -81h-279l-36 -241h302l-12 -82h-391zM376 819q29 0 48.5 20t24.5 53h67q-5 -59 -44.5 -96t-99.5 -37q-30 0 -53.5 10t-40 27.5t-24.5 42t-6 53.5h67q0 -33 16 -53t45 -20z" />
    <glyph glyph-name="ebreve" unicode="&#x115;" horiz-adv-x="560" 
d="M282 66q26 0 47 6.5t37.5 18t30.5 27t27 32.5l67 -37q-33 -54 -88.5 -89t-127.5 -35q-50 0 -92.5 16.5t-73 46t-48 71.5t-17.5 93q0 56 19.5 107t54 89.5t82.5 61.5t105 23q48 0 88.5 -17.5t69.5 -48t45 -72t16 -89.5q0 -12 -1.5 -27t-5.5 -27h-390q0 -33 13 -61
t34.5 -47.5t49.5 -30.5t58 -11zM300 422q-21 0 -45.5 -7.5t-47.5 -24t-42 -42t-29 -61.5h305q-2 30 -13 54.5t-30 42.5t-44 28t-54 10zM346 637q29 0 48.5 20t24.5 53h67q-5 -59 -44.5 -96t-99.5 -37q-30 0 -53.5 10t-40 27.5t-24.5 42t-6 53.5h67q0 -33 16 -53t45 -20z" />
    <glyph glyph-name="Edotaccent" unicode="&#x116;" horiz-adv-x="531" 
d="M159 700h389l-13 -82h-300l-32 -214h279l-12 -81h-279l-36 -241h302l-12 -82h-391zM431 828q0 -24 -17 -40.5t-40 -16.5t-39 16t-16 39q0 24 17 40.5t40 16.5t39 -16t16 -39z" />
    <glyph glyph-name="edotaccent" unicode="&#x117;" horiz-adv-x="560" 
d="M282 66q26 0 47 6.5t37.5 18t30.5 27t27 32.5l67 -37q-33 -54 -88.5 -89t-127.5 -35q-50 0 -92.5 16.5t-73 46t-48 71.5t-17.5 93q0 56 19.5 107t54 89.5t82.5 61.5t105 23q48 0 88.5 -17.5t69.5 -48t45 -72t16 -89.5q0 -12 -1.5 -27t-5.5 -27h-390q0 -33 13 -61
t34.5 -47.5t49.5 -30.5t58 -11zM300 422q-21 0 -45.5 -7.5t-47.5 -24t-42 -42t-29 -61.5h305q-2 30 -13 54.5t-30 42.5t-44 28t-54 10zM397 631q0 -25 -17.5 -42t-41.5 -17t-40.5 17t-16.5 40q0 25 17.5 42t41.5 17t40.5 -17t16.5 -40z" />
    <glyph glyph-name="Eogonek" unicode="&#x118;" horiz-adv-x="531" 
d="M159 700h389l-13 -82h-300l-32 -214h279l-12 -81h-279l-36 -241h302l-12 -82h-25q-24 -10 -46 -22t-38.5 -26t-26 -29t-9.5 -30q0 -17 11 -26t31 -9q13 0 26 3.5t25 12.5l-9 -62q-30 -16 -66 -16q-44 0 -67.5 21.5t-23.5 59.5q0 74 105 123h-278z" />
    <glyph glyph-name="eogonek" unicode="&#x119;" horiz-adv-x="560" 
d="M282 66q26 0 47 6.5t37.5 18t30.5 27t27 32.5l67 -37q-17 -29 -42.5 -53.5t-51.5 -42.5q-40 -29 -70.5 -59t-30.5 -65q0 -17 11 -26t31 -9q13 0 26 3.5t25 12.5l-9 -62q-30 -16 -66 -16q-44 0 -67.5 21t-23.5 57q0 29 17 59.5t52 56.5q-5 0 -8.5 -0.5t-8.5 -0.5
q-50 0 -92.5 16.5t-73 46t-48 71.5t-17.5 93q0 56 19.5 107t54 89.5t82.5 61.5t105 23q48 0 88.5 -17.5t69.5 -48t45 -72t16 -89.5q0 -12 -1.5 -27t-5.5 -27h-390q0 -33 13 -61t34.5 -47.5t49.5 -30.5t58 -11zM300 422q-21 0 -45.5 -7.5t-47.5 -24t-42 -42t-29 -61.5h305
q-2 30 -13 54.5t-30 42.5t-44 28t-54 10z" />
    <glyph glyph-name="Ecaron" unicode="&#x11a;" horiz-adv-x="531" 
d="M159 700h389l-13 -82h-300l-32 -214h279l-12 -81h-279l-36 -241h302l-12 -82h-391zM527 895l-132 -139h-68l-90 139h87l46 -72l68 72h89z" />
    <glyph glyph-name="ecaron" unicode="&#x11b;" horiz-adv-x="560" 
d="M282 66q26 0 47 6.5t37.5 18t30.5 27t27 32.5l67 -37q-33 -54 -88.5 -89t-127.5 -35q-50 0 -92.5 16.5t-73 46t-48 71.5t-17.5 93q0 56 19.5 107t54 89.5t82.5 61.5t105 23q48 0 88.5 -17.5t69.5 -48t45 -72t16 -89.5q0 -12 -1.5 -27t-5.5 -27h-390q0 -33 13 -61
t34.5 -47.5t49.5 -30.5t58 -11zM300 422q-21 0 -45.5 -7.5t-47.5 -24t-42 -42t-29 -61.5h305q-2 30 -13 54.5t-30 42.5t-44 28t-54 10zM497 716l-132 -139h-68l-90 139h87l46 -72l68 72h89z" />
    <glyph glyph-name="Gcircumflex" unicode="&#x11c;" horiz-adv-x="789" 
d="M750 317q-11 -70 -40 -130t-74 -104t-105.5 -69t-133.5 -25q-69 0 -129.5 26t-104.5 71t-69.5 106t-25.5 131q0 78 30.5 149t83 124t122.5 84.5t148 31.5q49 0 95 -13t85 -37.5t69 -59.5t48 -80l-83 -34q-27 66 -84.5 102.5t-133.5 36.5q-60 0 -112.5 -25t-91.5 -66.5
t-62 -96t-23 -113.5q0 -52 18 -98t50 -80t76 -54t97 -20q47 0 89 16t75.5 44t57 66.5t33.5 84.5h-256l12 84h347zM330 756l132 139h68l90 -139h-87l-46 72l-68 -72h-89z" />
    <glyph glyph-name="gcircumflex" unicode="&#x11d;" horiz-adv-x="616" 
d="M430 89q-28 -41 -70 -62.5t-91 -21.5q-48 0 -89 17t-71 47t-46.5 71.5t-16.5 91.5q0 55 20 103.5t55.5 84.5t83 56.5t101.5 20.5q57 0 102 -22t70 -62l11 73h84l-69 -468q-8 -53 -28.5 -96.5t-53 -75t-77.5 -49t-102 -17.5q-71 0 -131.5 33.5t-91.5 104.5l73 42
q21 -51 61 -76.5t92 -25.5q40 0 70 13t51.5 36t34.5 54.5t19 69.5zM282 82q36 0 68 14.5t56 39.5t38 58.5t14 71.5q0 33 -11 61t-31 48t-47 31.5t-58 11.5q-36 0 -68.5 -14.5t-57 -39t-38.5 -57.5t-14 -69q0 -33 11.5 -61.5t31.5 -49.5t47 -33t59 -12zM200 577l132 139h68
l90 -139h-87l-46 72l-68 -72h-89z" />
    <glyph glyph-name="Gbreve" unicode="&#x11e;" horiz-adv-x="789" 
d="M750 317q-11 -70 -40 -130t-74 -104t-105.5 -69t-133.5 -25q-69 0 -129.5 26t-104.5 71t-69.5 106t-25.5 131q0 78 30.5 149t83 124t122.5 84.5t148 31.5q49 0 95 -13t85 -37.5t69 -59.5t48 -80l-83 -34q-27 66 -84.5 102.5t-133.5 36.5q-60 0 -112.5 -25t-91.5 -66.5
t-62 -96t-23 -113.5q0 -52 18 -98t50 -80t76 -54t97 -20q47 0 89 16t75.5 44t57 66.5t33.5 84.5h-256l12 84h347zM485 819q29 0 48.5 20t24.5 53h67q-5 -59 -44.5 -96t-99.5 -37q-30 0 -53.5 10t-40 27.5t-24.5 42t-6 53.5h67q0 -33 16 -53t45 -20z" />
    <glyph glyph-name="gbreve" unicode="&#x11f;" horiz-adv-x="616" 
d="M430 89q-28 -41 -70 -62.5t-91 -21.5q-48 0 -89 17t-71 47t-46.5 71.5t-16.5 91.5q0 55 20 103.5t55.5 84.5t83 56.5t101.5 20.5q57 0 102 -22t70 -62l11 73h84l-69 -468q-8 -53 -28.5 -96.5t-53 -75t-77.5 -49t-102 -17.5q-71 0 -131.5 33.5t-91.5 104.5l73 42
q21 -51 61 -76.5t92 -25.5q40 0 70 13t51.5 36t34.5 54.5t19 69.5zM282 82q36 0 68 14.5t56 39.5t38 58.5t14 71.5q0 33 -11 61t-31 48t-47 31.5t-58 11.5q-36 0 -68.5 -14.5t-57 -39t-38.5 -57.5t-14 -69q0 -33 11.5 -61.5t31.5 -49.5t47 -33t59 -12zM358 637q29 0 48.5 20
t24.5 53h67q-5 -59 -44.5 -96t-99.5 -37q-30 0 -53.5 10t-40 27.5t-24.5 42t-6 53.5h67q0 -33 16 -53t45 -20z" />
    <glyph glyph-name="Gdotaccent" unicode="&#x120;" horiz-adv-x="789" 
d="M750 317q-11 -70 -40 -130t-74 -104t-105.5 -69t-133.5 -25q-69 0 -129.5 26t-104.5 71t-69.5 106t-25.5 131q0 78 30.5 149t83 124t122.5 84.5t148 31.5q49 0 95 -13t85 -37.5t69 -59.5t48 -80l-83 -34q-27 66 -84.5 102.5t-133.5 36.5q-60 0 -112.5 -25t-91.5 -66.5
t-62 -96t-23 -113.5q0 -52 18 -98t50 -80t76 -54t97 -20q47 0 89 16t75.5 44t57 66.5t33.5 84.5h-256l12 84h347zM541 828q0 -24 -17 -40.5t-40 -16.5t-39 16t-16 39q0 24 17 40.5t40 16.5t39 -16t16 -39z" />
    <glyph glyph-name="gdotaccent" unicode="&#x121;" horiz-adv-x="616" 
d="M430 89q-28 -41 -70 -62.5t-91 -21.5q-48 0 -89 17t-71 47t-46.5 71.5t-16.5 91.5q0 55 20 103.5t55.5 84.5t83 56.5t101.5 20.5q57 0 102 -22t70 -62l11 73h84l-69 -468q-8 -53 -28.5 -96.5t-53 -75t-77.5 -49t-102 -17.5q-71 0 -131.5 33.5t-91.5 104.5l73 42
q21 -51 61 -76.5t92 -25.5q40 0 70 13t51.5 36t34.5 54.5t19 69.5zM282 82q36 0 68 14.5t56 39.5t38 58.5t14 71.5q0 33 -11 61t-31 48t-47 31.5t-58 11.5q-36 0 -68.5 -14.5t-57 -39t-38.5 -57.5t-14 -69q0 -33 11.5 -61.5t31.5 -49.5t47 -33t59 -12zM411 631
q0 -25 -17.5 -42t-41.5 -17t-40.5 17t-16.5 40q0 25 17.5 42t41.5 17t40.5 -17t16.5 -40z" />
    <glyph glyph-name="Gcommaaccent" unicode="&#x122;" horiz-adv-x="789" 
d="M750 317q-11 -70 -40 -130t-74 -104t-105.5 -69t-133.5 -25q-69 0 -129.5 26t-104.5 71t-69.5 106t-25.5 131q0 78 30.5 149t83 124t122.5 84.5t148 31.5q49 0 95 -13t85 -37.5t69 -59.5t48 -80l-83 -34q-27 66 -84.5 102.5t-133.5 36.5q-60 0 -112.5 -25t-91.5 -66.5
t-62 -96t-23 -113.5q0 -52 18 -98t50 -80t76 -54t97 -20q47 0 89 16t75.5 44t57 66.5t33.5 84.5h-256l12 84h347zM314 -218l42 69q-18 1 -29 13t-11 31q0 23 17 38t41 15q21 0 37 -13.5t16 -36.5q0 -13 -6.5 -25.5t-14.5 -26.5l-39 -64h-53z" />
    <glyph glyph-name="gcommaaccent" unicode="&#x123;" horiz-adv-x="616" 
d="M430 89q-28 -41 -70 -62.5t-91 -21.5q-48 0 -89 17t-71 47t-46.5 71.5t-16.5 91.5q0 55 20 103.5t55.5 84.5t83 56.5t101.5 20.5q57 0 102 -22t70 -62l11 73h84l-69 -468q-8 -53 -28.5 -96.5t-53 -75t-77.5 -49t-102 -17.5q-71 0 -131.5 33.5t-91.5 104.5l73 42
q21 -51 61 -76.5t92 -25.5q40 0 70 13t51.5 36t34.5 54.5t19 69.5zM282 82q36 0 68 14.5t56 39.5t38 58.5t14 71.5q0 33 -11 61t-31 48t-47 31.5t-58 11.5q-36 0 -68.5 -14.5t-57 -39t-38.5 -57.5t-14 -69q0 -33 11.5 -61.5t31.5 -49.5t47 -33t59 -12zM403 731l-42 -69
q18 -1 29 -12.5t11 -29.5q0 -23 -17 -39t-41 -16q-21 0 -37 13.5t-16 36.5q0 13 6.5 25.5t14.5 26.5l39 64h53z" />
    <glyph glyph-name="Hcircumflex" unicode="&#x124;" horiz-adv-x="734" 
d="M159 700h89l-44 -295h376l44 295h89l-105 -700h-89l48 321h-376l-48 -321h-89zM296 756l132 139h68l90 -139h-87l-46 72l-68 -72h-89z" />
    <glyph glyph-name="hcircumflex" unicode="&#x125;" horiz-adv-x="590" 
d="M130 0h-86l105 700h86l-43 -282q26 35 67.5 57t92.5 22q97 0 141.5 -58t29.5 -158l-42 -281h-86l41 277q10 67 -18 103.5t-91 36.5q-61 0 -104.5 -45t-54.5 -120zM57 756l132 139h68l90 -139h-87l-46 72l-68 -72h-89z" />
    <glyph glyph-name="Hbar" unicode="&#x126;" horiz-adv-x="764" 
d="M146 514h-78l12 80h78l16 106h89l-16 -106h376l16 106h89l-16 -106h78l-12 -80h-78l-77 -514h-89l48 321h-376l-48 -321h-89zM595 405l16 109h-376l-16 -109h376z" />
    <glyph glyph-name="hbar" unicode="&#x127;" horiz-adv-x="595" 
d="M135 0h-86l83 558h-67l10 64h67l12 78h86l-12 -78h211l-10 -64h-211l-21 -140q26 35 67.5 57t92.5 22q97 0 141.5 -58t29.5 -158l-42 -281h-86l41 277q10 67 -18 103.5t-91 36.5q-61 0 -104.5 -45t-54.5 -120z" />
    <glyph glyph-name="Itilde" unicode="&#x128;" horiz-adv-x="269" 
d="M248 700l-105 -700h-89l105 700h89zM51 769q5 55 32.5 79t65.5 24q25 0 43 -7.5t32 -17t26.5 -17t27.5 -7.5q20 0 29.5 13t11.5 33h59q-4 -56 -32 -79.5t-66 -23.5q-25 0 -43 7.5t-32 17t-26.5 17t-27.5 7.5q-20 0 -29.5 -13t-11.5 -33h-59z" />
    <glyph glyph-name="itilde" unicode="&#x129;" horiz-adv-x="246" 
d="M10 588q5 55 32.5 79t65.5 24q25 0 43 -7.5t32 -17t26.5 -17t27.5 -7.5q20 0 29.5 13t11.5 33h59q-4 -56 -32 -79.5t-66 -23.5q-25 0 -43 7.5t-32 17t-26.5 17t-27.5 7.5q-20 0 -29.5 -13t-11.5 -33h-59zM203 486l-73 -486h-86l73 486h86z" />
    <glyph glyph-name="Imacron" unicode="&#x12a;" horiz-adv-x="269" 
d="M248 700l-105 -700h-89l105 700h89zM76 780l9 58h268l-9 -58h-268z" />
    <glyph glyph-name="imacron" unicode="&#x12b;" horiz-adv-x="246" 
d="M39 598l9 58h268l-9 -58h-268zM203 486l-73 -486h-86l73 486h86z" />
    <glyph glyph-name="Ibreve" unicode="&#x12c;" horiz-adv-x="269" 
d="M248 700l-105 -700h-89l105 700h89zM220 819q29 0 48.5 20t24.5 53h67q-5 -59 -44.5 -96t-99.5 -37q-30 0 -53.5 10t-40 27.5t-24.5 42t-6 53.5h67q0 -33 16 -53t45 -20z" />
    <glyph glyph-name="ibreve" unicode="&#x12d;" horiz-adv-x="246" 
d="M182 637q29 0 48.5 20t24.5 53h67q-5 -59 -44.5 -96t-99.5 -37q-30 0 -53.5 10t-40 27.5t-24.5 42t-6 53.5h67q0 -33 16 -53t45 -20zM203 486l-73 -486h-86l73 486h86z" />
    <glyph glyph-name="Iogonek" unicode="&#x12e;" horiz-adv-x="269" 
d="M248 700l-105 -700q-22 -10 -41.5 -22t-34.5 -26t-23.5 -29t-8.5 -30q0 -17 11 -26t31 -9q13 0 26 3.5t25 12.5l-9 -62q-30 -16 -66 -16q-44 0 -67.5 21.5t-23.5 59.5q0 76 92 123l105 700h89z" />
    <glyph glyph-name="iogonek" unicode="&#x12f;" horiz-adv-x="246" 
d="M203 486l-73 -486q-24 -10 -46 -22t-38.5 -26t-26 -29t-9.5 -30q0 -17 11 -26t31 -9q13 0 26 3.5t25 12.5l-9 -62q-30 -16 -66 -16q-44 0 -67.5 21.5t-23.5 59.5q0 77 107 125l73 484h86zM237 631q0 -25 -17.5 -42t-41.5 -17t-40.5 17t-16.5 40q0 25 17.5 42t41.5 17
q25 0 41 -17t16 -40z" />
    <glyph glyph-name="Idotaccent" unicode="&#x130;" horiz-adv-x="269" 
d="M248 700l-105 -700h-89l105 700h89zM275 828q0 -24 -17 -40.5t-40 -16.5t-39 16t-16 39q0 24 17 40.5t40 16.5t39 -16t16 -39z" />
    <glyph glyph-name="dotlessi" unicode="&#x131;" horiz-adv-x="246" 
d="M203 486l-73 -486h-86l73 486h86z" />
    <glyph glyph-name="IJ" unicode="&#x132;" horiz-adv-x="752" 
d="M248 700l-105 -700h-89l105 700h89zM665 192q-6 -43 -23 -80t-44 -64.5t-64 -43t-84 -15.5q-75 0 -129 40t-69 116l76 33q12 -45 42 -75.5t82 -30.5q29 0 50.5 10.5t37 28.5t24.5 41.5t13 48.5l75 499h89z" />
    <glyph glyph-name="ij" unicode="&#x133;" horiz-adv-x="474" 
d="M203 486l-73 -486h-86l73 486h86zM237 631q0 -25 -17.5 -42t-41.5 -17t-40.5 17t-16.5 40q0 25 17.5 42t41.5 17q25 0 41 -17t16 -40zM465 631q0 -25 -17.5 -42t-41.5 -17t-40.5 17t-16.5 40q0 25 17.5 42t41.5 17t40.5 -17t16.5 -40zM351 -49q-12 -82 -55.5 -126.5
t-111.5 -44.5q-35 0 -65 15l12 76q18 -12 45 -12q35 0 59 25t31 71l79 531h86z" />
    <glyph glyph-name="Jcircumflex" unicode="&#x134;" horiz-adv-x="500" 
d="M413 192q-6 -43 -23 -80t-44 -64.5t-64 -43t-84 -15.5q-75 0 -129 40t-69 116l76 33q12 -45 42 -75.5t82 -30.5q29 0 50.5 10.5t37 28.5t24.5 41.5t13 48.5l75 499h89zM307 756l132 139h68l90 -139h-87l-46 72l-68 -72h-89z" />
    <glyph glyph-name="jcircumflex" unicode="&#x135;" horiz-adv-x="249" 
d="M126 -49q-12 -82 -55.5 -126.5t-111.5 -44.5q-35 0 -65 15l12 76q18 -12 45 -12q35 0 59 25t31 71l79 531h86zM31 577l132 139h68l90 -139h-87l-46 72l-68 -72h-89z" />
    <glyph glyph-name="Kcommaaccent" unicode="&#x136;" horiz-adv-x="620" 
d="M203 402l334 298h117l-355 -318l272 -382h-108l-229 326l-49 -43l-42 -283h-89l105 700h89zM218 -218l42 69q-18 1 -29 13t-11 31q0 23 17 38t41 15q21 0 37 -13.5t16 -36.5q0 -13 -6.5 -25.5t-14.5 -26.5l-39 -64h-53z" />
    <glyph glyph-name="kcommaaccent" unicode="&#x137;" horiz-adv-x="508" 
d="M173 296l229 190h114l-252 -209l198 -277h-104l-158 224l-43 -35l-28 -189h-85l105 700h85zM164 -218l42 69q-18 1 -29 13t-11 31q0 23 17 38t41 15q21 0 37 -13.5t16 -36.5q0 -13 -6.5 -25.5t-14.5 -26.5l-39 -64h-53z" />
    <glyph glyph-name="kgreenlandic" unicode="&#x138;" horiz-adv-x="508" 
d="M202 486l-29 -190l229 190h114l-252 -209l198 -277h-104l-159 226l-41 -34l-29 -192h-85l73 486h85z" />
    <glyph glyph-name="Lacute" unicode="&#x139;" horiz-adv-x="449" 
d="M248 700l-93 -617h250l-12 -83h-339l105 700h89zM170 756l112 139h105l-130 -139h-87z" />
    <glyph glyph-name="lacute" unicode="&#x13a;" horiz-adv-x="246" 
d="M235 700l-105 -700h-86l105 700h86zM157 756l112 139h105l-130 -139h-87z" />
    <glyph glyph-name="Lcommaaccent" unicode="&#x13b;" horiz-adv-x="449" 
d="M248 700l-93 -617h250l-12 -83h-339l105 700h89zM150 -218l42 69q-18 1 -29 13t-11 31q0 23 17 38t41 15q21 0 37 -13.5t16 -36.5q0 -13 -6.5 -25.5t-14.5 -26.5l-39 -64h-53z" />
    <glyph glyph-name="lcommaaccent" unicode="&#x13c;" horiz-adv-x="246" 
d="M235 700l-105 -700h-86l105 700h86zM17 -218l42 69q-18 1 -29 13t-11 31q0 23 17 38t41 15q21 0 37 -13.5t16 -36.5q0 -13 -6.5 -25.5t-14.5 -26.5l-39 -64h-53z" />
    <glyph glyph-name="Lcaron" unicode="&#x13d;" horiz-adv-x="449" 
d="M248 700l-93 -617h250l-12 -83h-339l105 700h89zM307 548l51 163h90l-66 -163h-75z" />
    <glyph glyph-name="lcaron" unicode="&#x13e;" horiz-adv-x="246" 
d="M235 700l-105 -700h-86l105 700h86zM251 548l51 163h90l-66 -163h-75z" />
    <glyph glyph-name="Ldot" unicode="&#x13f;" horiz-adv-x="449" 
d="M248 700l-93 -617h250l-12 -83h-339l105 700h89zM430 353q0 -25 -17.5 -42t-41.5 -17t-40.5 17t-16.5 40q0 25 17.5 42t41.5 17t40.5 -17t16.5 -40z" />
    <glyph glyph-name="ldot" unicode="&#x140;" horiz-adv-x="322" 
d="M235 700l-105 -700h-86l105 700h86zM355 331q0 -25 -17.5 -42t-41.5 -17t-40.5 17t-16.5 40q0 25 17.5 42t41.5 17t40.5 -17t16.5 -40z" />
    <glyph glyph-name="Lslash" unicode="&#x141;" horiz-adv-x="464" 
d="M263 700l-47 -310l176 83l-12 -81l-176 -84l-34 -225h250l-12 -83h-339l39 263l-94 -44l12 81l94 45l54 355h89z" />
    <glyph glyph-name="lslash" unicode="&#x142;" horiz-adv-x="286" 
d="M255 700l-40 -263l97 49l-12 -80l-97 -49l-53 -357h-86l46 310l-93 -47l12 80l93 47l47 310h86z" />
    <glyph glyph-name="Nacute" unicode="&#x143;" horiz-adv-x="775" 
d="M754 700l-105 -700h-82l-342 568l-85 -568h-86l105 700h89l336 -562l84 562h86zM427 756l112 139h105l-130 -139h-87z" />
    <glyph glyph-name="nacute" unicode="&#x144;" horiz-adv-x="590" 
d="M130 0h-86l73 486h86l-11 -68q26 35 67.5 57t92.5 22q97 0 141.5 -58t29.5 -158l-42 -281h-86l41 277q10 67 -18 103.5t-91 36.5q-61 0 -104.5 -45t-54.5 -120zM295 577l112 139h105l-130 -139h-87z" />
    <glyph glyph-name="Ncommaaccent" unicode="&#x145;" horiz-adv-x="775" 
d="M754 700l-105 -700h-82l-342 568l-85 -568h-86l105 700h89l336 -562l84 562h86zM279 -218l42 69q-18 1 -29 13t-11 31q0 23 17 38t41 15q21 0 37 -13.5t16 -36.5q0 -13 -6.5 -25.5t-14.5 -26.5l-39 -64h-53z" />
    <glyph glyph-name="ncommaaccent" unicode="&#x146;" horiz-adv-x="590" 
d="M130 0h-86l73 486h86l-11 -68q26 35 67.5 57t92.5 22q97 0 141.5 -58t29.5 -158l-42 -281h-86l41 277q10 67 -18 103.5t-91 36.5q-61 0 -104.5 -45t-54.5 -120zM195 -218l42 69q-18 1 -29 13t-11 31q0 23 17 38t41 15q21 0 37 -13.5t16 -36.5q0 -13 -6.5 -25.5
t-14.5 -26.5l-39 -64h-53z" />
    <glyph glyph-name="Ncaron" unicode="&#x147;" horiz-adv-x="775" 
d="M754 700l-105 -700h-82l-342 568l-85 -568h-86l105 700h89l336 -562l84 562h86zM638 895l-132 -139h-68l-90 139h87l46 -72l68 72h89z" />
    <glyph glyph-name="ncaron" unicode="&#x148;" horiz-adv-x="590" 
d="M130 0h-86l73 486h86l-11 -68q26 35 67.5 57t92.5 22q97 0 141.5 -58t29.5 -158l-42 -281h-86l41 277q10 67 -18 103.5t-91 36.5q-61 0 -104.5 -45t-54.5 -120zM515 716l-132 -139h-68l-90 139h87l46 -72l68 72h89z" />
    <glyph glyph-name="Eng" unicode="&#x14a;" horiz-adv-x="775" 
d="M754 700l-107 -715q-14 -97 -72.5 -151t-149.5 -54q-35 0 -57 6.5t-36 11.5l12 77q11 -4 29.5 -9t48.5 -5q54 0 91.5 36.5t47.5 103.5l1 7l-337 560l-85 -568h-86l105 700h89l336 -562l84 562h86z" />
    <glyph glyph-name="eng" unicode="&#x14b;" horiz-adv-x="590" 
d="M436 277q10 67 -18 103.5t-91 36.5q-61 0 -104.5 -45t-54.5 -120l-38 -252h-86l73 486h86l-11 -68q26 35 67.5 57t92.5 22q97 0 141.5 -58t29.5 -158l-50 -334q-5 -34 -17 -64.5t-32 -53t-48 -36t-65 -13.5q-18 0 -35.5 3.5t-32.5 11.5l11 77q12 -7 26.5 -9.5t28.5 -2.5
q19 0 32.5 8.5t23 21.5t15 29.5t7.5 32.5z" />
    <glyph glyph-name="Omacron" unicode="&#x14c;" horiz-adv-x="822" 
d="M788 377q0 -78 -31 -148.5t-83.5 -123.5t-123 -84.5t-148.5 -31.5q-70 0 -131 26t-106 71t-71 106t-26 131q0 78 31 149t83.5 124t123 84.5t148.5 31.5q70 0 131 -26t106 -71.5t71 -106.5t26 -131zM405 74q60 0 113 25t93 66.5t63 95.5t23 113q0 52 -18.5 98.5t-51 80.5
t-77.5 54t-99 20q-60 0 -113 -25t-93 -66.5t-63 -96t-23 -113.5q0 -52 18.5 -98t51.5 -80t78 -54t98 -20zM350 780l9 58h268l-9 -58h-268z" />
    <glyph glyph-name="omacron" unicode="&#x14d;" horiz-adv-x="598" 
d="M317 497q50 0 93.5 -17.5t75.5 -48.5t50.5 -74t18.5 -94q0 -56 -21 -105.5t-58 -87t-87 -59.5t-107 -22q-51 0 -94.5 17.5t-75.5 48.5t-50 74t-18 94q0 56 21 105.5t58 87t87 59.5t107 22zM313 418q-36 0 -68.5 -14.5t-58 -40t-40.5 -61t-15 -76.5q0 -33 11.5 -61.5
t32 -50t48.5 -34t62 -12.5q36 0 69 14.5t58.5 40.5t40.5 61t15 77q0 33 -11.5 61.5t-32 49.5t-49 33.5t-62.5 12.5zM216 598l9 58h268l-9 -58h-268z" />
    <glyph glyph-name="Obreve" unicode="&#x14e;" horiz-adv-x="822" 
d="M788 377q0 -78 -31 -148.5t-83.5 -123.5t-123 -84.5t-148.5 -31.5q-70 0 -131 26t-106 71t-71 106t-26 131q0 78 31 149t83.5 124t123 84.5t148.5 31.5q70 0 131 -26t106 -71.5t71 -106.5t26 -131zM405 74q60 0 113 25t93 66.5t63 95.5t23 113q0 52 -18.5 98.5t-51 80.5
t-77.5 54t-99 20q-60 0 -113 -25t-93 -66.5t-63 -96t-23 -113.5q0 -52 18.5 -98t51.5 -80t78 -54t98 -20zM495 819q29 0 48.5 20t24.5 53h67q-5 -59 -44.5 -96t-99.5 -37q-30 0 -53.5 10t-40 27.5t-24.5 42t-6 53.5h67q0 -33 16 -53t45 -20z" />
    <glyph glyph-name="obreve" unicode="&#x14f;" horiz-adv-x="598" 
d="M317 497q50 0 93.5 -17.5t75.5 -48.5t50.5 -74t18.5 -94q0 -56 -21 -105.5t-58 -87t-87 -59.5t-107 -22q-51 0 -94.5 17.5t-75.5 48.5t-50 74t-18 94q0 56 21 105.5t58 87t87 59.5t107 22zM313 418q-36 0 -68.5 -14.5t-58 -40t-40.5 -61t-15 -76.5q0 -33 11.5 -61.5
t32 -50t48.5 -34t62 -12.5q36 0 69 14.5t58.5 40.5t40.5 61t15 77q0 33 -11.5 61.5t-32 49.5t-49 33.5t-62.5 12.5zM360 637q29 0 48.5 20t24.5 53h67q-5 -59 -44.5 -96t-99.5 -37q-30 0 -53.5 10t-40 27.5t-24.5 42t-6 53.5h67q0 -33 16 -53t45 -20z" />
    <glyph glyph-name="Ohungarumlaut" unicode="&#x150;" horiz-adv-x="822" 
d="M788 377q0 -78 -31 -148.5t-83.5 -123.5t-123 -84.5t-148.5 -31.5q-70 0 -131 26t-106 71t-71 106t-26 131q0 78 31 149t83.5 124t123 84.5t148.5 31.5q70 0 131 -26t106 -71.5t71 -106.5t26 -131zM405 74q60 0 113 25t93 66.5t63 95.5t23 113q0 52 -18.5 98.5t-51 80.5
t-77.5 54t-99 20q-60 0 -113 -25t-93 -66.5t-63 -96t-23 -113.5q0 -52 18.5 -98t51.5 -80t78 -54t98 -20zM359 756l105 139h96l-122 -139h-79zM520 756l105 139h95l-121 -139h-79z" />
    <glyph glyph-name="ohungarumlaut" unicode="&#x151;" horiz-adv-x="598" 
d="M317 497q50 0 93.5 -17.5t75.5 -48.5t50.5 -74t18.5 -94q0 -56 -21 -105.5t-58 -87t-87 -59.5t-107 -22q-51 0 -94.5 17.5t-75.5 48.5t-50 74t-18 94q0 56 21 105.5t58 87t87 59.5t107 22zM313 418q-36 0 -68.5 -14.5t-58 -40t-40.5 -61t-15 -76.5q0 -33 11.5 -61.5
t32 -50t48.5 -34t62 -12.5q36 0 69 14.5t58.5 40.5t40.5 61t15 77q0 33 -11.5 61.5t-32 49.5t-49 33.5t-62.5 12.5zM224 572l105 139h96l-122 -139h-79zM385 572l105 139h95l-121 -139h-79z" />
    <glyph glyph-name="OE" unicode="&#x152;" horiz-adv-x="973" 
d="M373 0q-66 0 -122 23t-96.5 64.5t-63.5 98t-23 122.5q0 81 31.5 152t85.5 124.5t126.5 84.5t155.5 31h523l-13 -82h-300l-32 -214h279l-12 -81h-279l-36 -241h302l-12 -82h-514zM160 314q0 -51 16.5 -93t46 -73t70.5 -48t90 -17h125l80 534h-130q-61 0 -115 -24
t-94.5 -65.5t-64.5 -96.5t-24 -117z" />
    <glyph glyph-name="oe" unicode="&#x153;" horiz-adv-x="972" 
d="M697 66q26 0 46 6.5t36.5 18t30.5 27t26 32.5l67 -37q-33 -54 -87.5 -89t-125.5 -35q-65 0 -115.5 29.5t-77.5 83.5q-36 -51 -91.5 -82t-122.5 -31q-51 0 -94.5 17.5t-76 48.5t-50.5 74t-18 94q0 56 21 106t57.5 87.5t86.5 59t108 21.5q66 0 118.5 -31t81.5 -85
q33 52 85 84t118 32q48 0 87.5 -17.5t68 -48t44.5 -72t16 -89.5q0 -12 -1.5 -27t-5.5 -27h-383q0 -33 12.5 -61t33.5 -47.5t48 -30.5t57 -11zM285 68q39 0 72.5 15.5t58 42t39 61t14.5 72.5q0 33 -11.5 62t-31.5 50.5t-48.5 34t-62.5 12.5q-39 0 -72.5 -15.5t-58.5 -42
t-39 -61t-14 -72.5q0 -33 11.5 -61.5t31.5 -50.5t48.5 -34.5t62.5 -12.5zM715 422q-21 0 -44.5 -7.5t-46 -24t-41 -42t-28.5 -61.5h298q-2 30 -13 54.5t-29.5 42.5t-43 28t-52.5 10z" />
    <glyph glyph-name="Racute" unicode="&#x154;" horiz-adv-x="588" 
d="M361 700q91 0 145.5 -47t54.5 -135q0 -46 -15.5 -83.5t-42.5 -65t-65 -45.5t-83 -24l175 -300h-102l-170 297h-71l-44 -297h-89l105 700h202zM199 376h115q33 0 62 9.5t50 27t33 43t12 57.5q0 51 -33.5 78t-90.5 27h-112zM299 756l112 139h105l-130 -139h-87z" />
    <glyph glyph-name="racute" unicode="&#x155;" horiz-adv-x="362" 
d="M359 405q-2 0 -6 1q-3 0 -6.5 0.5t-8.5 0.5q-35 0 -64 -13t-52 -37t-38 -57.5t-21 -73.5l-34 -226h-85l73 486h84l-13 -83q23 41 67 66t91 25q5 0 10 -0.5t9 -0.5q4 -1 7 -1zM191 577l112 139h105l-130 -139h-87z" />
    <glyph glyph-name="Rcommaaccent" unicode="&#x156;" horiz-adv-x="588" 
d="M361 700q91 0 145.5 -47t54.5 -135q0 -46 -15.5 -83.5t-42.5 -65t-65 -45.5t-83 -24l175 -300h-102l-170 297h-71l-44 -297h-89l105 700h202zM199 376h115q33 0 62 9.5t50 27t33 43t12 57.5q0 51 -33.5 78t-90.5 27h-112zM209 -218l42 69q-18 1 -29 13t-11 31q0 23 17 38
t41 15q21 0 37 -13.5t16 -36.5q0 -13 -6.5 -25.5t-14.5 -26.5l-39 -64h-53z" />
    <glyph glyph-name="rcommaaccent" unicode="&#x157;" horiz-adv-x="362" 
d="M359 405q-2 0 -6 1q-3 0 -6.5 0.5t-8.5 0.5q-35 0 -64 -13t-52 -37t-38 -57.5t-21 -73.5l-34 -226h-85l73 486h84l-13 -83q23 41 67 66t91 25q5 0 10 -0.5t9 -0.5q4 -1 7 -1zM16 -218l42 69q-18 1 -29 13t-11 31q0 23 17 38t41 15q21 0 37 -13.5t16 -36.5
q0 -13 -6.5 -25.5t-14.5 -26.5l-39 -64h-53z" />
    <glyph glyph-name="Rcaron" unicode="&#x158;" horiz-adv-x="588" 
d="M361 700q91 0 145.5 -47t54.5 -135q0 -46 -15.5 -83.5t-42.5 -65t-65 -45.5t-83 -24l175 -300h-102l-170 297h-71l-44 -297h-89l105 700h202zM199 376h115q33 0 62 9.5t50 27t33 43t12 57.5q0 51 -33.5 78t-90.5 27h-112zM528 895l-132 -139h-68l-90 139h87l46 -72l68 72
h89z" />
    <glyph glyph-name="rcaron" unicode="&#x159;" horiz-adv-x="362" 
d="M359 405q-2 0 -6 1q-3 0 -6.5 0.5t-8.5 0.5q-35 0 -64 -13t-52 -37t-38 -57.5t-21 -73.5l-34 -226h-85l73 486h84l-13 -83q23 41 67 66t91 25q5 0 10 -0.5t9 -0.5q4 -1 7 -1zM424 716l-132 -139h-68l-90 139h87l46 -72l68 72h89z" />
    <glyph glyph-name="Sacute" unicode="&#x15a;" horiz-adv-x="543" 
d="M319 628q-51 0 -83.5 -27t-32.5 -71q0 -65 87 -111l75 -39q130 -67 130 -180q0 -47 -17 -86t-48 -67t-73 -43t-91 -15q-89 0 -153 48t-88 141l84 27q19 -60 59 -96t100 -36t97.5 32t37.5 86q0 67 -88 113l-78 40q-124 63 -124 177q0 42 15.5 77t43 60.5t66 39.5t83.5 14
q78 0 131.5 -43.5t77.5 -121.5l-82 -29q-16 48 -47.5 79t-81.5 31zM297 756l112 139h105l-130 -139h-87z" />
    <glyph glyph-name="sacute" unicode="&#x15b;" horiz-adv-x="420" 
d="M100 159q3 -20 11.5 -37t22 -30t31 -20.5t36.5 -7.5q34 0 59.5 18t25.5 54q0 24 -16.5 39.5t-42.5 26.5l-51 23q-19 9 -37.5 19.5t-33.5 26t-24 36t-9 49.5q0 33 12.5 59t34.5 44.5t51 28t61 9.5q65 0 107 -35.5t56 -95.5l-77 -23q-11 38 -33 59t-56 21q-26 0 -48.5 -15
t-22.5 -46q0 -23 18 -38.5t43 -26.5l48 -22q20 -9 39 -20t33.5 -26.5t23.5 -36.5t9 -49q0 -37 -14.5 -65.5t-39 -48t-56 -30t-65.5 -10.5q-33 0 -63 11t-53.5 30.5t-38.5 47t-19 59.5zM204 577l112 139h105l-130 -139h-87z" />
    <glyph glyph-name="Scircumflex" unicode="&#x15c;" horiz-adv-x="543" 
d="M319 628q-51 0 -83.5 -27t-32.5 -71q0 -65 87 -111l75 -39q130 -67 130 -180q0 -47 -17 -86t-48 -67t-73 -43t-91 -15q-89 0 -153 48t-88 141l84 27q19 -60 59 -96t100 -36t97.5 32t37.5 86q0 67 -88 113l-78 40q-124 63 -124 177q0 42 15.5 77t43 60.5t66 39.5t83.5 14
q78 0 131.5 -43.5t77.5 -121.5l-82 -29q-16 48 -47.5 79t-81.5 31zM196 756l132 139h68l90 -139h-87l-46 72l-68 -72h-89z" />
    <glyph glyph-name="scircumflex" unicode="&#x15d;" horiz-adv-x="420" 
d="M100 159q3 -20 11.5 -37t22 -30t31 -20.5t36.5 -7.5q34 0 59.5 18t25.5 54q0 24 -16.5 39.5t-42.5 26.5l-51 23q-19 9 -37.5 19.5t-33.5 26t-24 36t-9 49.5q0 33 12.5 59t34.5 44.5t51 28t61 9.5q65 0 107 -35.5t56 -95.5l-77 -23q-11 38 -33 59t-56 21q-26 0 -48.5 -15
t-22.5 -46q0 -23 18 -38.5t43 -26.5l48 -22q20 -9 39 -20t33.5 -26.5t23.5 -36.5t9 -49q0 -37 -14.5 -65.5t-39 -48t-56 -30t-65.5 -10.5q-33 0 -63 11t-53.5 30.5t-38.5 47t-19 59.5zM113 577l132 139h68l90 -139h-87l-46 72l-68 -72h-89z" />
    <glyph glyph-name="Scedilla" unicode="&#x15e;" horiz-adv-x="543" 
d="M338 -128q0 -39 -29 -65.5t-73 -26.5q-37 0 -62 23t-28 55h62q2 -9 10.5 -17.5t22.5 -8.5q17 0 27.5 11t10.5 27q0 14 -9 22t-24 9q-10 1 -18 -3.5t-14 -10.5l-50 38l51 69q-70 12 -120 58.5t-70 125.5l84 27q19 -60 59 -96t100 -36t97.5 32t37.5 86q0 67 -88 113l-78 40
q-124 63 -124 177q0 42 15.5 77t43 60.5t66 39.5t83.5 14q78 0 131.5 -43.5t77.5 -121.5l-82 -29q-16 48 -47.5 79t-81.5 31q-51 0 -83.5 -27t-32.5 -71q0 -65 87 -111l75 -39q130 -67 130 -180q0 -46 -16 -84t-45 -65.5t-69 -43.5t-87 -18l-34 -41q8 2 16 2q35 -2 56.5 -23
t21.5 -55z" />
    <glyph glyph-name="scedilla" unicode="&#x15f;" horiz-adv-x="420" 
d="M267 -128q0 -39 -29 -65.5t-73 -26.5q-37 0 -62 23t-28 55h62q2 -9 10.5 -17.5t22.5 -8.5q17 0 27.5 11t10.5 27q0 14 -9 22t-24 9q-10 1 -18 -3.5t-14 -10.5l-50 38l53 71q-50 13 -84 50.5t-40 90.5l78 22q3 -20 11.5 -37t22 -30t31 -20.5t36.5 -7.5q34 0 59.5 18
t25.5 54q0 24 -16.5 39.5t-42.5 26.5l-51 23q-19 9 -37.5 19.5t-33.5 26t-24 36t-9 49.5q0 33 12.5 59t34.5 44.5t51 28t61 9.5q65 0 107 -35.5t56 -95.5l-77 -23q-11 38 -33 59t-56 21q-26 0 -48.5 -15t-22.5 -46q0 -23 18 -38.5t43 -26.5l48 -22q20 -9 39 -20t33.5 -26.5
t23.5 -36.5t9 -49q0 -35 -13.5 -63t-36 -47.5t-52 -30.5t-62.5 -12l-34 -42q8 2 16 2q35 -2 56.5 -23t21.5 -55z" />
    <glyph glyph-name="Scaron" unicode="&#x160;" horiz-adv-x="543" 
d="M319 628q-51 0 -83.5 -27t-32.5 -71q0 -65 87 -111l75 -39q130 -67 130 -180q0 -47 -17 -86t-48 -67t-73 -43t-91 -15q-89 0 -153 48t-88 141l84 27q19 -60 59 -96t100 -36t97.5 32t37.5 86q0 67 -88 113l-78 40q-124 63 -124 177q0 42 15.5 77t43 60.5t66 39.5t83.5 14
q78 0 131.5 -43.5t77.5 -121.5l-82 -29q-16 48 -47.5 79t-81.5 31zM508 895l-132 -139h-68l-90 139h87l46 -72l68 72h89z" />
    <glyph glyph-name="scaron" unicode="&#x161;" horiz-adv-x="420" 
d="M100 159q3 -20 11.5 -37t22 -30t31 -20.5t36.5 -7.5q34 0 59.5 18t25.5 54q0 24 -16.5 39.5t-42.5 26.5l-51 23q-19 9 -37.5 19.5t-33.5 26t-24 36t-9 49.5q0 33 12.5 59t34.5 44.5t51 28t61 9.5q65 0 107 -35.5t56 -95.5l-77 -23q-11 38 -33 59t-56 21q-26 0 -48.5 -15
t-22.5 -46q0 -23 18 -38.5t43 -26.5l48 -22q20 -9 39 -20t33.5 -26.5t23.5 -36.5t9 -49q0 -37 -14.5 -65.5t-39 -48t-56 -30t-65.5 -10.5q-33 0 -63 11t-53.5 30.5t-38.5 47t-19 59.5zM425 716l-132 -139h-68l-90 139h87l46 -72l68 72h89z" />
    <glyph glyph-name="Tcommaaccent" unicode="&#x162;" horiz-adv-x="538" 
d="M88 700h498l-12 -82h-204l-92 -618h-90l92 618h-204zM163 -218l42 69q-18 1 -29 13t-11 31q0 23 17 38t41 15q21 0 37 -13.5t16 -36.5q0 -13 -6.5 -25.5t-14.5 -26.5l-39 -64h-53z" />
    <glyph glyph-name="tcommaaccent" unicode="&#x163;" horiz-adv-x="355" 
d="M172 153q-6 -43 9.5 -63.5t56.5 -20.5q32 0 59 15l-12 -81q-14 -5 -31.5 -9.5t-41.5 -4.5q-70 0 -104 42.5t-23 113.5l39 264h-75l12 77h75l21 146h86l-21 -146h136l-12 -77h-136zM92 -218l42 69q-18 1 -29 13t-11 31q0 23 17 38t41 15q21 0 37 -13.5t16 -36.5
q0 -13 -6.5 -25.5t-14.5 -26.5l-39 -64h-53z" />
    <glyph glyph-name="Tcaron" unicode="&#x164;" horiz-adv-x="538" 
d="M88 700h498l-12 -82h-204l-92 -618h-90l92 618h-204zM512 895l-132 -139h-68l-90 139h87l46 -72l68 72h89z" />
    <glyph glyph-name="tcaron" unicode="&#x165;" horiz-adv-x="355" 
d="M172 153q-6 -43 9.5 -63.5t56.5 -20.5q32 0 59 15l-12 -81q-14 -5 -31.5 -9.5t-41.5 -4.5q-70 0 -104 42.5t-23 113.5l39 264h-75l12 77h75l21 146h86l-21 -146h136l-12 -77h-136zM292 548l51 163h90l-66 -163h-75z" />
    <glyph glyph-name="Tbar" unicode="&#x166;" horiz-adv-x="538" 
d="M88 700h498l-12 -82h-204l-34 -227h129l-12 -81h-129l-46 -310h-90l46 310h-129l12 81h129l34 227h-204z" />
    <glyph glyph-name="tbar" unicode="&#x167;" horiz-adv-x="355" 
d="M194 305h136l-11 -75h-136l-11 -77q-6 -43 9.5 -63.5t56.5 -20.5q32 0 59 15l-12 -81q-14 -5 -31.5 -9.5t-41.5 -4.5q-70 0 -104 42.5t-23 113.5l12 85h-69l11 75h69l16 104h-75l12 77h75l21 146h86l-21 -146h136l-12 -77h-136z" />
    <glyph glyph-name="Utilde" unicode="&#x168;" horiz-adv-x="695" 
d="M320 -11q-68 0 -116.5 21.5t-78 60.5t-39.5 92.5t0 118.5l62 418h90l-62 -417q-7 -46 -1 -84.5t24 -66.5t49 -43.5t74 -15.5t78.5 15.5t62 43.5t44 66.5t24.5 84.5l64 417h89l-63 -419q-10 -66 -34.5 -120t-63 -92t-89.5 -59t-114 -21zM269 769q5 55 32.5 79t65.5 24
q25 0 43 -7.5t32 -17t26.5 -17t27.5 -7.5q20 0 29.5 13t11.5 33h59q-4 -56 -32 -79.5t-66 -23.5q-25 0 -43 7.5t-32 17t-26.5 17t-27.5 7.5q-20 0 -29.5 -13t-11.5 -33h-59z" />
    <glyph glyph-name="utilde" unicode="&#x169;" horiz-adv-x="587" 
d="M458 486h86l-73 -486h-86l11 68q-27 -35 -67 -57t-94 -22q-94 0 -138 58.5t-29 157.5l42 281h86l-41 -277q-10 -67 17.5 -103.5t89.5 -36.5q30 0 56.5 12t47 33.5t34.5 52t20 67.5zM188 588q5 55 32.5 79t65.5 24q25 0 43 -7.5t32 -17t26.5 -17t27.5 -7.5q20 0 29.5 13
t11.5 33h59q-4 -56 -32 -79.5t-66 -23.5q-25 0 -43 7.5t-32 17t-26.5 17t-27.5 7.5q-20 0 -29.5 -13t-11.5 -33h-59z" />
    <glyph glyph-name="Umacron" unicode="&#x16a;" horiz-adv-x="695" 
d="M320 -11q-68 0 -116.5 21.5t-78 60.5t-39.5 92.5t0 118.5l62 418h90l-62 -417q-7 -46 -1 -84.5t24 -66.5t49 -43.5t74 -15.5t78.5 15.5t62 43.5t44 66.5t24.5 84.5l64 417h89l-63 -419q-10 -66 -34.5 -120t-63 -92t-89.5 -59t-114 -21zM292 780l9 58h268l-9 -58h-268z
" />
    <glyph glyph-name="umacron" unicode="&#x16b;" horiz-adv-x="587" 
d="M458 486h86l-73 -486h-86l11 68q-27 -35 -67 -57t-94 -22q-94 0 -138 58.5t-29 157.5l42 281h86l-41 -277q-10 -67 17.5 -103.5t89.5 -36.5q30 0 56.5 12t47 33.5t34.5 52t20 67.5zM208 598l9 58h268l-9 -58h-268z" />
    <glyph glyph-name="Ubreve" unicode="&#x16c;" horiz-adv-x="695" 
d="M320 -11q-68 0 -116.5 21.5t-78 60.5t-39.5 92.5t0 118.5l62 418h90l-62 -417q-7 -46 -1 -84.5t24 -66.5t49 -43.5t74 -15.5t78.5 15.5t62 43.5t44 66.5t24.5 84.5l64 417h89l-63 -419q-10 -66 -34.5 -120t-63 -92t-89.5 -59t-114 -21zM435 819q29 0 48.5 20t24.5 53h67
q-5 -59 -44.5 -96t-99.5 -37q-30 0 -53.5 10t-40 27.5t-24.5 42t-6 53.5h67q0 -33 16 -53t45 -20z" />
    <glyph glyph-name="ubreve" unicode="&#x16d;" horiz-adv-x="587" 
d="M458 486h86l-73 -486h-86l11 68q-27 -35 -67 -57t-94 -22q-94 0 -138 58.5t-29 157.5l42 281h86l-41 -277q-10 -67 17.5 -103.5t89.5 -36.5q30 0 56.5 12t47 33.5t34.5 52t20 67.5zM350 637q29 0 48.5 20t24.5 53h67q-5 -59 -44.5 -96t-99.5 -37q-30 0 -53.5 10t-40 27.5
t-24.5 42t-6 53.5h67q0 -33 16 -53t45 -20z" />
    <glyph glyph-name="Uring" unicode="&#x16e;" horiz-adv-x="695" 
d="M320 -11q-68 0 -116.5 21.5t-78 60.5t-39.5 92.5t0 118.5l62 418h90l-62 -417q-7 -46 -1 -84.5t24 -66.5t49 -43.5t74 -15.5t78.5 15.5t62 43.5t44 66.5t24.5 84.5l64 417h89l-63 -419q-10 -66 -34.5 -120t-63 -92t-89.5 -59t-114 -21zM532 838q0 -21 -8 -39.5t-22.5 -33
t-33.5 -22.5t-41 -8q-40 0 -66.5 25t-26.5 63q0 21 8.5 39.5t22.5 33t33.5 22.5t41.5 8q39 0 65.5 -25t26.5 -63zM475 834q0 17 -11 28t-28 11q-19 0 -32 -13.5t-13 -32.5q0 -17 11 -28t28 -11q19 0 32 13.5t13 32.5z" />
    <glyph glyph-name="uring" unicode="&#x16f;" horiz-adv-x="587" 
d="M458 486h86l-73 -486h-86l11 68q-27 -35 -67 -57t-94 -22q-94 0 -138 58.5t-29 157.5l42 281h86l-41 -277q-10 -67 17.5 -103.5t89.5 -36.5q30 0 56.5 12t47 33.5t34.5 52t20 67.5zM448 653q0 -21 -8 -39.5t-22.5 -31.5t-33 -20.5t-39.5 -7.5q-40 0 -67.5 26t-27.5 66
q0 21 8 39.5t22.5 31.5t33 20.5t39.5 7.5q40 0 67.5 -25.5t27.5 -66.5zM391 651q0 17 -11.5 29t-28.5 12q-16 0 -30 -12t-14 -32q0 -17 11.5 -29t28.5 -12q16 0 30 12.5t14 31.5z" />
    <glyph glyph-name="Uhungarumlaut" unicode="&#x170;" horiz-adv-x="695" 
d="M320 -11q-68 0 -116.5 21.5t-78 60.5t-39.5 92.5t0 118.5l62 418h90l-62 -417q-7 -46 -1 -84.5t24 -66.5t49 -43.5t74 -15.5t78.5 15.5t62 43.5t44 66.5t24.5 84.5l64 417h89l-63 -419q-10 -66 -34.5 -120t-63 -92t-89.5 -59t-114 -21zM294 756l105 139h96l-122 -139h-79
zM455 756l105 139h95l-121 -139h-79z" />
    <glyph glyph-name="uhungarumlaut" unicode="&#x171;" horiz-adv-x="587" 
d="M458 486h86l-73 -486h-86l11 68q-27 -35 -67 -57t-94 -22q-94 0 -138 58.5t-29 157.5l42 281h86l-41 -277q-10 -67 17.5 -103.5t89.5 -36.5q30 0 56.5 12t47 33.5t34.5 52t20 67.5zM212 572l105 139h96l-122 -139h-79zM373 572l105 139h95l-121 -139h-79z" />
    <glyph glyph-name="Uogonek" unicode="&#x172;" horiz-adv-x="695" 
d="M221 -123q0 66 80 113q-63 3 -108 25.5t-72 61t-35.5 91t0.5 114.5l62 418h90l-62 -417q-7 -46 -1 -84.5t24 -66.5t49 -43.5t74 -15.5t78.5 15.5t62 43.5t44 66.5t24.5 84.5l64 417h89l-63 -419q-16 -107 -68.5 -178.5t-138.5 -101.5q-24 -9 -46 -21t-38.5 -26t-26 -29.5
t-9.5 -31.5q0 -17 11 -26t31 -9q13 0 26 3.5t25 12.5l-9 -62q-30 -16 -66 -16q-44 0 -67.5 21.5t-23.5 59.5z" />
    <glyph glyph-name="uogonek" unicode="&#x173;" horiz-adv-x="587" 
d="M458 486h86l-73 -486q-24 -10 -46 -22t-38.5 -26t-26 -29t-9.5 -30q0 -17 11 -26t31 -9q13 0 26 3.5t25 12.5l-9 -62q-30 -16 -66 -16q-44 0 -67.5 21.5t-23.5 59.5q0 76 107 124l11 67q-27 -35 -67 -57t-94 -22q-94 0 -138 58.5t-29 157.5l42 281h86l-41 -277
q-10 -67 17.5 -103.5t89.5 -36.5q30 0 56.5 12t47 33.5t34.5 52t20 67.5z" />
    <glyph glyph-name="Wcircumflex" unicode="&#x174;" horiz-adv-x="982" 
d="M214 0l-132 700h89l96 -534l264 534h55l104 -534l257 534h93l-343 -700h-57l-105 533l-264 -533h-57zM423 756l132 139h68l90 -139h-87l-46 72l-68 -72h-89z" />
    <glyph glyph-name="wcircumflex" unicode="&#x175;" horiz-adv-x="794" 
d="M491 0l-74 360l-182 -360h-66l-108 486h86l73 -364l183 364h62l75 -364l181 364h90l-254 -486h-66zM300 577l132 139h68l90 -139h-87l-46 72l-68 -72h-89z" />
    <glyph glyph-name="Ycircumflex" unicode="&#x176;" horiz-adv-x="620" 
d="M80 700h100l151 -306l243 306h106l-313 -388l-47 -312h-89l47 312zM243 756l132 139h68l90 -139h-87l-46 72l-68 -72h-89z" />
    <glyph glyph-name="ycircumflex" unicode="&#x177;" horiz-adv-x="513" 
d="M212 -81q-22 -39 -42 -66t-40.5 -43t-42.5 -23t-48 -7q-32 0 -55 15l10 73q8 -4 19 -7t25 -3q29 0 52 20t49 67l39 71l-121 470h89l90 -375l206 375h92zM161 577l132 139h68l90 -139h-87l-46 72l-68 -72h-89z" />
    <glyph glyph-name="Ydieresis" unicode="&#x178;" horiz-adv-x="620" 
d="M80 700h100l151 -306l243 306h106l-313 -388l-47 -312h-89l47 312zM356 826q0 -22 -15.5 -37.5t-37.5 -15.5t-37 15.5t-15 36.5q0 22 15.5 37.5t37.5 15.5t37 -15.5t15 -36.5zM537 826q0 -22 -15.5 -37.5t-37.5 -15.5t-37 15.5t-15 36.5q0 22 15.5 37.5t37.5 15.5
t37 -15.5t15 -36.5z" />
    <glyph glyph-name="Zacute" unicode="&#x179;" horiz-adv-x="607" 
d="M136 81h412l-12 -81h-537l9 58l491 561h-381l12 81h508l-9 -58zM340 756l112 139h105l-130 -139h-87z" />
    <glyph glyph-name="zacute" unicode="&#x17a;" horiz-adv-x="450" 
d="M81 486h376l-8 -54l-332 -357h282l-11 -75h-398l8 56l331 355h-260zM234 577l112 139h105l-130 -139h-87z" />
    <glyph glyph-name="Zdotaccent" unicode="&#x17b;" horiz-adv-x="607" 
d="M136 81h412l-12 -81h-537l9 58l491 561h-381l12 81h508l-9 -58zM468 828q0 -24 -17 -40.5t-40 -16.5t-39 16t-16 39q0 24 17 40.5t40 16.5t39 -16t16 -39z" />
    <glyph glyph-name="zdotaccent" unicode="&#x17c;" horiz-adv-x="450" 
d="M81 486h376l-8 -54l-332 -357h282l-11 -75h-398l8 56l331 355h-260zM359 631q0 -25 -17.5 -42t-41.5 -17t-40.5 17t-16.5 40q0 25 17.5 42t41.5 17t40.5 -17t16.5 -40z" />
    <glyph glyph-name="Zcaron" unicode="&#x17d;" horiz-adv-x="607" 
d="M136 81h412l-12 -81h-537l9 58l491 561h-381l12 81h508l-9 -58zM567 895l-132 -139h-68l-90 139h87l46 -72l68 72h89z" />
    <glyph glyph-name="zcaron" unicode="&#x17e;" horiz-adv-x="450" 
d="M81 486h376l-8 -54l-332 -357h282l-11 -75h-398l8 56l331 355h-260zM462 716l-132 -139h-68l-90 139h87l46 -72l68 72h89z" />
    <glyph glyph-name="florin" unicode="&#x192;" horiz-adv-x="486" 
d="M313 405h133l-12 -77h-142l-89 -330q-22 -82 -69.5 -123.5t-118.5 -41.5q-23 0 -45 3.5t-37 11.5l12 78q28 -13 61 -13q88 0 114 95l86 320h-105l12 77h114l41 149q22 82 69.5 123.5t118.5 41.5q24 0 44.5 -4t37.5 -11l-12 -82q-13 8 -29.5 12.5t-32.5 4.5
q-87 0 -113 -95z" />
    <glyph glyph-name="AEacute" unicode="&#x1fc;" horiz-adv-x="931" 
d="M484 201h-247l-158 -201h-104l545 700h428l-13 -82h-300l-32 -214h279l-12 -81h-279l-36 -241h302l-12 -82h-391zM496 282l49 327l-248 -327h199zM612 756l112 139h105l-130 -139h-87z" />
    <glyph glyph-name="aeacute" unicode="&#x1fd;" horiz-adv-x="859" 
d="M588 66q50 0 80.5 24.5t54.5 59.5l67 -37q-32 -54 -86 -89t-123 -35q-63 0 -112 29t-76 80q-39 -59 -93.5 -84t-117.5 -25q-70 0 -111.5 35t-40.5 96q1 68 49.5 111t139.5 54l148 18l4 27q6 39 -21 65t-75 26q-80 0 -119 -86l-76 31q27 63 79.5 97t124.5 34
q56 0 95.5 -22.5t57.5 -60.5q32 38 76 60.5t98 22.5q47 0 86 -17.5t67 -48t43.5 -72t15.5 -89.5q0 -12 -1.5 -27t-5.5 -27h-375q0 -33 12 -61t32.5 -47.5t47 -30.5t55.5 -11zM606 422q-20 0 -43.5 -7.5t-45 -24t-39.5 -42t-28 -61.5h290q-2 30 -12.5 54.5t-28.5 42.5t-42 28
t-51 10zM117 125q0 -29 22 -45t62 -16q28 0 53.5 10t45.5 27.5t33.5 41t17.5 51.5l5 35l-130 -17q-51 -7 -80 -30t-29 -57zM447 577l112 139h105l-130 -139h-87z" />
    <glyph glyph-name="Oslashacute" unicode="&#x1fe;" horiz-adv-x="822" 
d="M827 663l-100 -92q29 -41 45 -90t16 -104q0 -78 -31 -148.5t-83.5 -123.5t-123 -84.5t-148.5 -31.5q-64 0 -120 21.5t-101 59.5l-98 -90l-54 60l99 90q-29 41 -44.5 89.5t-15.5 103.5q0 78 31 149t83.5 124t123 84.5t148.5 31.5q65 0 121.5 -22.5t100.5 -61.5l100 91z
M159 326q0 -38 9.5 -72t26.5 -63l416 378q-32 27 -72 42.5t-88 15.5q-60 0 -113 -25t-93 -66.5t-63 -96t-23 -113.5zM405 74q60 0 113 25t93 66.5t63 95.5t23 113q0 76 -37 136l-413 -380q32 -26 71.5 -41t86.5 -15zM425 756l112 139h105l-130 -139h-87z" />
    <glyph glyph-name="oslashacute" unicode="&#x1ff;" horiz-adv-x="598" 
d="M317 497q44 0 82.5 -13.5t69.5 -37.5l62 56l49 -56l-61 -56q36 -56 36 -127q0 -56 -21 -105.5t-58 -87t-87 -59.5t-107 -22q-89 0 -151 50l-63 -57l-49 56l61 56q-36 56 -36 129q0 56 21 105.5t58 87t87 59.5t107 22zM313 418q-36 0 -68.5 -14.5t-58 -40t-40.5 -61
t-15 -76.5t16 -72l259 234q-41 30 -93 30zM468 261q0 19 -4 36t-11 33l-259 -234q39 -28 91 -28q36 0 69 14.5t58.5 40.5t40.5 61t15 77zM295 577l112 139h105l-130 -139h-87z" />
    <glyph glyph-name="Scommaaccent" unicode="&#x218;" horiz-adv-x="543" 
d="M319 628q-51 0 -83.5 -27t-32.5 -71q0 -65 87 -111l75 -39q130 -67 130 -180q0 -47 -17 -86t-48 -67t-73 -43t-91 -15q-89 0 -153 48t-88 141l84 27q19 -60 59 -96t100 -36t97.5 32t37.5 86q0 67 -88 113l-78 40q-124 63 -124 177q0 42 15.5 77t43 60.5t66 39.5t83.5 14
q78 0 131.5 -43.5t77.5 -121.5l-82 -29q-16 48 -47.5 79t-81.5 31zM177 -218l42 69q-18 1 -29 13t-11 31q0 23 17 38t41 15q21 0 37 -13.5t16 -36.5q0 -13 -6.5 -25.5t-14.5 -26.5l-39 -64h-53z" />
    <glyph glyph-name="scommaaccent" unicode="&#x219;" horiz-adv-x="420" 
d="M100 159q3 -20 11.5 -37t22 -30t31 -20.5t36.5 -7.5q34 0 59.5 18t25.5 54q0 24 -16.5 39.5t-42.5 26.5l-51 23q-19 9 -37.5 19.5t-33.5 26t-24 36t-9 49.5q0 33 12.5 59t34.5 44.5t51 28t61 9.5q65 0 107 -35.5t56 -95.5l-77 -23q-11 38 -33 59t-56 21q-26 0 -48.5 -15
t-22.5 -46q0 -23 18 -38.5t43 -26.5l48 -22q20 -9 39 -20t33.5 -26.5t23.5 -36.5t9 -49q0 -37 -14.5 -65.5t-39 -48t-56 -30t-65.5 -10.5q-33 0 -63 11t-53.5 30.5t-38.5 47t-19 59.5zM115 -218l42 69q-18 1 -29 13t-11 31q0 23 17 38t41 15q21 0 37 -13.5t16 -36.5
q0 -13 -6.5 -25.5t-14.5 -26.5l-39 -64h-53z" />
    <glyph glyph-name="dotlessj" unicode="&#x237;" horiz-adv-x="249" 
d="M126 -49q-12 -82 -55.5 -126.5t-111.5 -44.5q-35 0 -65 15l12 76q18 -12 45 -12q35 0 59 25t31 71l79 531h86z" />
    <glyph glyph-name="circumflex" unicode="&#x2c6;" horiz-adv-x="500" 
d="M155 577l132 139h68l90 -139h-87l-46 72l-68 -72h-89z" />
    <glyph glyph-name="caron" unicode="&#x2c7;" horiz-adv-x="500" 
d="M466 716l-132 -139h-68l-90 139h87l46 -72l68 72h89z" />
    <glyph glyph-name="breve" unicode="&#x2d8;" horiz-adv-x="500" 
d="M314 637q29 0 48.5 20t24.5 53h67q-5 -59 -44.5 -96t-99.5 -37q-30 0 -53.5 10t-40 27.5t-24.5 42t-6 53.5h67q0 -33 16 -53t45 -20z" />
    <glyph glyph-name="dotaccent" unicode="&#x2d9;" horiz-adv-x="500" 
d="M366 631q0 -25 -17.5 -42t-41.5 -17t-40.5 17t-16.5 40q0 25 17.5 42t41.5 17t40.5 -17t16.5 -40z" />
    <glyph glyph-name="ring" unicode="&#x2da;" horiz-adv-x="500" 
d="M410 653q0 -21 -8 -39.5t-22.5 -31.5t-33 -20.5t-39.5 -7.5q-40 0 -67.5 26t-27.5 66q0 21 8 39.5t22.5 31.5t33 20.5t39.5 7.5q40 0 67.5 -25.5t27.5 -66.5zM353 651q0 17 -11.5 29t-28.5 12q-16 0 -30 -12t-14 -32q0 -17 11.5 -29t28.5 -12q16 0 30 12.5t14 31.5z" />
    <glyph glyph-name="ogonek" unicode="&#x2db;" horiz-adv-x="500" 
d="M301 0q-24 -10 -46 -22t-38.5 -26t-26 -29t-9.5 -30q0 -17 11 -26t31 -9q13 0 26 3.5t25 12.5l-9 -62q-30 -16 -66 -16q-44 0 -67.5 21.5t-23.5 59.5q0 76 112 126z" />
    <glyph glyph-name="tilde" unicode="&#x2dc;" horiz-adv-x="500" 
d="M144 588q5 55 32.5 79t65.5 24q25 0 43 -7.5t32 -17t26.5 -17t27.5 -7.5q20 0 29.5 13t11.5 33h59q-4 -56 -32 -79.5t-66 -23.5q-25 0 -43 7.5t-32 17t-26.5 17t-27.5 7.5q-20 0 -29.5 -13t-11.5 -33h-59v0z" />
    <glyph glyph-name="hungarumlaut" unicode="&#x2dd;" horiz-adv-x="500" 
d="M129 572l105 139h96l-122 -139h-79zM290 572l105 139h95l-121 -139h-79z" />
    <glyph glyph-name="uni0312" unicode="&#x312;" horiz-adv-x="500" 
d="M362 731l-42 -69q18 -1 29 -12.5t11 -29.5q0 -23 -17 -39t-41 -16q-21 0 -37 13.5t-16 36.5q0 13 6.5 25.5t14.5 26.5l39 64h53z" />
    <glyph glyph-name="mu" unicode="&#x3bc;" horiz-adv-x="594" 
d="M117 486h86l-41 -277q-10 -67 17.5 -103.5t89.5 -36.5q30 0 56.5 12t47 33.5t34.5 52t20 67.5l38 252h86l-73 -486h-86l11 68q-27 -35 -67 -57t-94 -22q-34 0 -61.5 8t-47.5 22l-34 -227h-86z" />
    <glyph glyph-name="pi" unicode="&#x3c0;" horiz-adv-x="596" 
d="M62 486h546l-12 -80h-85l-61 -406h-86l61 406h-204l-61 -406h-86l61 406h-85z" />
    <glyph glyph-name="Wgrave" unicode="&#x1e80;" horiz-adv-x="982" 
d="M214 0l-132 700h89l96 -534l264 534h55l104 -534l257 534h93l-343 -700h-57l-105 533l-264 -533h-57zM530 756l-91 139h99l71 -139h-79z" />
    <glyph glyph-name="wgrave" unicode="&#x1e81;" horiz-adv-x="794" 
d="M491 0l-74 360l-182 -360h-66l-108 486h86l73 -364l183 364h62l75 -364l181 364h90l-254 -486h-66zM400 577l-91 139h99l71 -139h-79z" />
    <glyph glyph-name="Wacute" unicode="&#x1e82;" horiz-adv-x="982" 
d="M214 0l-132 700h89l96 -534l264 534h55l104 -534l257 534h93l-343 -700h-57l-105 533l-264 -533h-57zM525 756l112 139h105l-130 -139h-87z" />
    <glyph glyph-name="wacute" unicode="&#x1e83;" horiz-adv-x="794" 
d="M491 0l-74 360l-182 -360h-66l-108 486h86l73 -364l183 364h62l75 -364l181 364h90l-254 -486h-66zM400 577l112 139h105l-130 -139h-87z" />
    <glyph glyph-name="Wdieresis" unicode="&#x1e84;" horiz-adv-x="982" 
d="M214 0l-132 700h89l96 -534l264 534h55l104 -534l257 534h93l-343 -700h-57l-105 533l-264 -533h-57zM540 826q0 -22 -15.5 -37.5t-37.5 -15.5t-37 15.5t-15 36.5q0 22 15.5 37.5t37.5 15.5t37 -15.5t15 -36.5zM721 826q0 -22 -15.5 -37.5t-37.5 -15.5t-37 15.5t-15 36.5
q0 22 15.5 37.5t37.5 15.5t37 -15.5t15 -36.5z" />
    <glyph glyph-name="wdieresis" unicode="&#x1e85;" horiz-adv-x="794" 
d="M491 0l-74 360l-182 -360h-66l-108 486h86l73 -364l183 364h62l75 -364l181 364h90l-254 -486h-66zM411 628q0 -22 -15.5 -37.5t-37.5 -15.5t-37 15.5t-15 36.5q0 22 15.5 37.5t37.5 15.5t37 -15.5t15 -36.5zM592 628q0 -22 -15.5 -37.5t-37.5 -15.5t-37 15.5t-15 36.5
q0 22 15.5 37.5t37.5 15.5t37 -15.5t15 -36.5z" />
    <glyph glyph-name="Ygrave" unicode="&#x1ef2;" horiz-adv-x="620" 
d="M80 700h100l151 -306l243 306h106l-313 -388l-47 -312h-89l47 312zM353 756l-91 139h99l71 -139h-79z" />
    <glyph glyph-name="ygrave" unicode="&#x1ef3;" horiz-adv-x="513" 
d="M212 -81q-22 -39 -42 -66t-40.5 -43t-42.5 -23t-48 -7q-32 0 -55 15l10 73q8 -4 19 -7t25 -3q29 0 52 20t49 67l39 71l-121 470h89l90 -375l206 375h92zM277 577l-91 139h99l71 -139h-79z" />
    <glyph glyph-name="thinspace" unicode="&#x2009;" horiz-adv-x="115" 
 />
    <glyph glyph-name="figuredash" unicode="&#x2012;" horiz-adv-x="599" 
d="M69 299h480l-11 -72h-480z" />
    <glyph glyph-name="endash" unicode="&#x2013;" horiz-adv-x="562" 
d="M69 299h443l-11 -72h-443z" />
    <glyph glyph-name="emdash" unicode="&#x2014;" horiz-adv-x="862" 
d="M69 299h743l-11 -72h-743z" />
    <glyph glyph-name="quoteleft" unicode="&#x2018;" horiz-adv-x="202" 
d="M166 700h59l-61 -98q19 -2 31.5 -16t12.5 -36q0 -25 -19 -42t-45 -17q-24 0 -41.5 16.5t-17.5 40.5q0 15 6.5 28.5t16.5 29.5z" />
    <glyph glyph-name="quoteright" unicode="&#x2019;" horiz-adv-x="202" 
d="M144 503h-59l61 98q-19 2 -31.5 16t-12.5 36q0 25 19 42t45 17q24 0 41.5 -16.5t17.5 -40.5q0 -15 -6.5 -28.5t-16.5 -29.5z" />
    <glyph glyph-name="quotesinglbase" unicode="&#x201a;" horiz-adv-x="202" 
d="M53 -100h-59l61 98q-19 2 -31.5 16t-12.5 36q0 25 19 42t45 17q24 0 41.5 -16.5t17.5 -40.5q0 -15 -6.5 -28.5t-16.5 -29.5z" />
    <glyph glyph-name="quotedblleft" unicode="&#x201c;" horiz-adv-x="364" 
d="M166 700h59l-61 -98q19 -2 31.5 -16t12.5 -36q0 -25 -19 -42t-45 -17q-24 0 -41.5 16.5t-17.5 40.5q0 15 6.5 28.5t16.5 29.5zM328 700h59l-61 -98q19 -2 31.5 -16t12.5 -36q0 -25 -19 -42t-45 -17q-24 0 -41.5 16.5t-17.5 40.5q0 15 6.5 28.5t16.5 29.5z" />
    <glyph glyph-name="quotedblright" unicode="&#x201d;" horiz-adv-x="364" 
d="M144 503h-59l61 98q-19 2 -31.5 16t-12.5 36q0 25 19 42t45 17q24 0 41.5 -16.5t17.5 -40.5q0 -15 -6.5 -28.5t-16.5 -29.5zM306 503h-59l61 98q-19 2 -31.5 16t-12.5 36q0 25 19 42t45 17q24 0 41.5 -16.5t17.5 -40.5q0 -15 -6.5 -28.5t-16.5 -29.5z" />
    <glyph glyph-name="quotedblbase" unicode="&#x201e;" horiz-adv-x="364" 
d="M53 -100h-59l61 98q-19 2 -31.5 16t-12.5 36q0 25 19 42t45 17q24 0 41.5 -16.5t17.5 -40.5q0 -15 -6.5 -28.5t-16.5 -29.5zM215 -100h-59l61 98q-19 2 -31.5 16t-12.5 36q0 25 19 42t45 17q24 0 41.5 -16.5t17.5 -40.5q0 -15 -6.5 -28.5t-16.5 -29.5z" />
    <glyph glyph-name="dagger" unicode="&#x2020;" horiz-adv-x="455" 
d="M72 458h145l37 242h85l-37 -242h145l-11 -76h-145l-73 -490h-85l73 490h-145z" />
    <glyph glyph-name="daggerdbl" unicode="&#x2021;" horiz-adv-x="455" 
d="M75 479h145l33 221h85l-33 -221h145l-11 -76h-145l-31 -205h145l-11 -76h-145l-34 -230h-85l34 230h-145l11 76h145l31 205h-145z" />
    <glyph glyph-name="bullet" unicode="&#x2022;" horiz-adv-x="286" 
d="M60 261q0 18 7.5 34t20.5 28.5t29 19.5t34 7t33.5 -6.5t27 -18t18 -27t6.5 -32.5q0 -37 -27 -63t-64 -26q-35 0 -60 25t-25 59z" />
    <glyph glyph-name="ellipsis" unicode="&#x2026;" horiz-adv-x="837" 
d="M158 53q0 -26 -18 -44t-44 -18q-25 0 -42 17.5t-17 41.5q0 26 18 44t44 18q25 0 42 -17.5t17 -41.5zM743 53q0 -26 -18 -44t-44 -18q-25 0 -42 17.5t-17 41.5q0 26 18 44t44 18q25 0 42 -17.5t17 -41.5zM451 53q0 -26 -18 -44t-44 -18q-25 0 -42 17.5t-17 41.5
q0 26 18 44t44 18q25 0 42 -17.5t17 -41.5z" />
    <glyph glyph-name="perthousand" unicode="&#x2030;" horiz-adv-x="1202" 
d="M612 311q32 0 60 -11t48.5 -30.5t32 -46.5t11.5 -59q0 -35 -13.5 -66.5t-36.5 -54.5t-55 -36.5t-69 -13.5q-32 0 -60 11t-48.5 30.5t-32 46.5t-11.5 59q0 35 13.5 66t36.5 54.5t55 37t69 13.5zM594 68q19 0 35 7.5t28 20t19 29t7 34.5q0 32 -21 54.5t-54 22.5
q-19 0 -35 -7.5t-28 -20t-19 -29t-7 -34.5q0 -32 21 -54.5t54 -22.5zM172 0h-105l610 687h105zM235 376q-32 0 -60 11t-48.5 30.5t-32 46.5t-11.5 59q0 35 13.5 66t36.5 54.5t55 37t69 13.5q32 0 60 -11t48.5 -30.5t32 -46.5t11.5 -59q0 -35 -13.5 -66.5t-36.5 -54.5
t-55 -36.5t-69 -13.5zM253 619q-19 0 -35 -7.5t-28 -20t-19 -29t-7 -34.5q0 -32 21 -54.5t54 -22.5q19 0 35 7.5t28 20t19 29t7 34.5q0 32 -21 54.5t-54 22.5zM999 311q32 0 60 -11t48.5 -30.5t32 -46.5t11.5 -59q0 -35 -13.5 -66.5t-36.5 -54.5t-55 -36.5t-69 -13.5
q-32 0 -60 11t-48.5 30.5t-32 46.5t-11.5 59q0 35 13.5 66t36.5 54.5t55 37t69 13.5zM981 68q19 0 35 7.5t28 20t19 29t7 34.5q0 32 -21 54.5t-54 22.5q-19 0 -35 -7.5t-28 -20t-19 -29t-7 -34.5q0 -32 21 -54.5t54 -22.5z" />
    <glyph glyph-name="guilsinglleft" unicode="&#x2039;" horiz-adv-x="292" 
d="M41 265l163 199h90l-164 -204l103 -200h-88z" />
    <glyph glyph-name="guilsinglright" unicode="&#x203a;" horiz-adv-x="291" 
d="M256 258l-161 -198h-91l164 205l-102 199h86z" />
    <glyph glyph-name="fraction" unicode="&#x2044;" horiz-adv-x="192" 
d="M-146 0h-94l609 687h94z" />
    <glyph glyph-name="uni2070" unicode="&#x2070;" horiz-adv-x="369" 
d="M375 534q0 -38 -9 -80.5t-29.5 -78.5t-53.5 -59.5t-81 -23.5q-66 0 -99 42.5t-33 122.5q0 36 8.5 77.5t28.5 77t52.5 59t79.5 23.5q68 0 102 -44t34 -116zM207 358q29 0 47.5 19t29.5 46t15.5 57.5t4.5 53.5q0 17 -3.5 34t-11 30.5t-20.5 21.5t-32 8q-29 0 -47.5 -19.5
t-29.5 -46.5t-15.5 -56.5t-4.5 -49.5q0 -17 2.5 -34.5t10 -31.5t20.5 -23t34 -9z" />
    <glyph glyph-name="uni2074" unicode="&#x2074;" horiz-adv-x="345" 
d="M311 445h49l-9 -62h-49l-13 -84h-68l13 84h-193l8 52l212 252h86zM132 445h111l24 159z" />
    <glyph glyph-name="uni2075" unicode="&#x2075;" horiz-adv-x="343" 
d="M78 488l57 199h219l-9 -62h-166l-24 -86q14 12 31 17.5t35 5.5q56 0 90.5 -34.5t34.5 -88.5q0 -31 -12 -57.5t-33 -46.5t-48.5 -31.5t-58.5 -11.5q-62 0 -99 35t-37 89h70q0 -24 18.5 -41.5t50.5 -17.5q16 0 30.5 6.5t25 17.5t17 25t6.5 30q0 32 -20.5 49t-49.5 17
q-18 0 -34.5 -7t-28.5 -23z" />
    <glyph glyph-name="uni2076" unicode="&#x2076;" horiz-adv-x="355" 
d="M356 443q0 -30 -12 -57t-32.5 -48t-48 -33.5t-59.5 -12.5q-27 0 -52.5 8.5t-45 25t-31.5 41t-12 56.5q0 36 16.5 67.5t42.5 63.5l110 133h87l-116 -132q14 7 32 7q25 0 47.5 -9t38.5 -24.5t25.5 -37.5t9.5 -48zM214 504q-16 0 -31 -6t-26 -16.5t-18 -24.5t-7 -31
q0 -26 19.5 -47.5t53.5 -21.5q15 0 29.5 5.5t26 16t18.5 25t7 32.5q0 29 -20 48.5t-52 19.5z" />
    <glyph glyph-name="uni2077" unicode="&#x2077;" horiz-adv-x="323" 
d="M65 299l208 323h-191l10 65h277l-8 -52l-214 -336h-82z" />
    <glyph glyph-name="uni2078" unicode="&#x2078;" horiz-adv-x="343" 
d="M191 292q-27 0 -51.5 7.5t-42.5 21.5t-29 35t-11 47q0 42 23.5 71t59.5 39q-20 12 -31 30.5t-11 40.5q0 25 11 45.5t29 34.5t41 22t48 8q22 0 44 -7t39.5 -20t28 -32t10.5 -43q0 -32 -18 -55t-47 -34q26 -14 40.5 -34t14.5 -48q0 -32 -12.5 -56.5t-33.5 -40.5t-47.5 -24
t-54.5 -8zM194 354q30 0 53 17t23 49q0 25 -20.5 40.5t-49.5 15.5q-27 0 -50 -16.5t-23 -47.5q0 -26 19.5 -42t47.5 -16zM220 533q25 0 44 14t19 40q0 21 -17 34t-41 13q-23 0 -42 -14t-19 -40q0 -21 16.5 -34t39.5 -13z" />
    <glyph glyph-name="uni2079" unicode="&#x2079;" horiz-adv-x="359" 
d="M77 543q0 30 12 57t32.5 48t48 33.5t59.5 12.5q27 0 52.5 -8.5t45 -25t31.5 -41t12 -56.5q0 -36 -16.5 -67.5t-42.5 -63.5l-110 -133h-87l116 132q-14 -7 -32 -7q-26 0 -48 9t-38 24.5t-25.5 37.5t-9.5 48zM219 482q16 0 31 6t26 16.5t18 24.5t7 31q0 26 -19.5 47.5
t-53.5 21.5q-15 0 -29.5 -5.5t-26 -16t-18.5 -25t-7 -32.5q0 -29 20 -48.5t52 -19.5z" />
    <glyph glyph-name="uni207A" unicode="&#x207a;" horiz-adv-x="343" 
d="M82 524h101l15 101h61l-15 -101h101l-9 -62h-101l-15 -101h-61l15 101h-101z" />
    <glyph glyph-name="uni207B" unicode="&#x207b;" horiz-adv-x="343" 
d="M82 524h263l-9 -62h-263z" />
    <glyph glyph-name="uni207C" unicode="&#x207c;" horiz-adv-x="343" 
d="M73 464h263l-9 -61h-263zM91 584h263l-9 -61h-263z" />
    <glyph glyph-name="uni207D" unicode="&#x207d;" horiz-adv-x="212" 
d="M69 455q0 73 33 145t98 130h65q-65 -66 -97 -134.5t-32 -137.5q0 -51 14.5 -103.5t43.5 -99.5h-61q-32 39 -48 93t-16 107z" />
    <glyph glyph-name="uni207E" unicode="&#x207e;" horiz-adv-x="212" 
d="M218 530q0 -73 -33 -145t-98 -130h-65q65 66 97 134.5t32 137.5q0 51 -14.5 103.5t-43.5 99.5h61q32 -39 48 -93t16 -107z" />
    <glyph glyph-name="n.superior" unicode="&#x207f;" horiz-adv-x="467" 
d="M152 299h-73l55 366h73l-8 -51q20 26 50 42.5t71 16.5q72 0 105 -43.5t22 -118.5l-31 -212h-73l32 209q8 48 -11.5 73t-64.5 25t-78 -32.5t-41 -85.5z" />
    <glyph glyph-name="uni2080" unicode="&#x2080;" horiz-adv-x="369" 
d="M331 235q0 -38 -9 -80.5t-29.5 -78.5t-53.5 -59.5t-81 -23.5q-66 0 -99 42.5t-33 122.5q0 36 8.5 77.5t28.5 77t52.5 59t79.5 23.5q68 0 102 -44t34 -116zM163 59q29 0 47.5 19t29.5 46t15.5 57.5t4.5 53.5q0 17 -3.5 34t-11 30.5t-20.5 21.5t-32 8q-29 0 -47.5 -19.5
t-29.5 -46.5t-15.5 -56.5t-4.5 -49.5q0 -17 2.5 -34.5t10 -31.5t20.5 -23t34 -9z" />
    <glyph glyph-name="uni2081" unicode="&#x2081;" horiz-adv-x="229" 
d="M61 0l48 321h-68l10 67h139l-58 -388h-71z" />
    <glyph glyph-name="uni2082" unicode="&#x2082;" horiz-adv-x="334" 
d="M182 395q27 0 50 -8.5t40 -23.5t27 -36.5t10 -47.5q0 -42 -24 -74t-64 -61l-109 -80h170l-10 -64h-278l8 57l179 133q25 19 41 38.5t16 48.5q0 23 -17 38t-41 15q-31 0 -51.5 -22t-23.5 -53h-70q5 61 45 100.5t102 39.5z" />
    <glyph glyph-name="uni2083" unicode="&#x2083;" horiz-adv-x="336" 
d="M163 231q26 0 47.5 12.5t21.5 43.5q0 20 -16.5 32.5t-35.5 12.5q-25 0 -43 -13.5t-22 -43.5h-67q1 30 12.5 52.5t30 37.5t42 22.5t48.5 7.5q22 0 43.5 -6.5t38.5 -19t27.5 -31.5t10.5 -43q0 -31 -18.5 -56t-47.5 -36q27 -13 42 -34.5t15 -51.5q0 -29 -13 -52t-33.5 -39
t-45.5 -24.5t-50 -8.5q-28 0 -53 7.5t-43.5 23t-29.5 40t-11 57.5h69q1 -30 20.5 -46.5t48.5 -16.5t50 16t21 45q0 27 -20 41t-47 14h-19l9 57h18v0z" />
    <glyph glyph-name="uni2084" unicode="&#x2084;" horiz-adv-x="345" 
d="M265 146h49l-9 -62h-49l-13 -84h-68l13 84h-193l8 52l212 252h86zM86 146h111l24 159z" />
    <glyph glyph-name="uni2085" unicode="&#x2085;" horiz-adv-x="343" 
d="M32 189l57 199h219l-9 -62h-166l-24 -86q14 12 31 17.5t35 5.5q56 0 90.5 -34.5t34.5 -88.5q0 -31 -12 -57.5t-33 -46.5t-48.5 -31.5t-58.5 -11.5q-62 0 -99 35t-37 89h70q0 -24 18.5 -41.5t50.5 -17.5q16 0 30.5 6.5t25 17.5t17 25t6.5 30q0 32 -20.5 49t-49.5 17
q-18 0 -34.5 -7t-28.5 -23z" />
    <glyph glyph-name="uni2086" unicode="&#x2086;" horiz-adv-x="355" 
d="M308 144q0 -30 -12 -57t-32.5 -48t-48 -33.5t-59.5 -12.5q-27 0 -52.5 8.5t-45 25t-31.5 41t-12 56.5q0 36 16.5 67.5t42.5 63.5l110 133h87l-116 -132q14 7 32 7q25 0 47.5 -9t38.5 -24.5t25.5 -37.5t9.5 -48zM166 205q-16 0 -31 -6t-26 -16.5t-18 -24.5t-7 -31
q0 -26 19.5 -47.5t53.5 -21.5q15 0 29.5 5.5t26 16t18.5 25t7 32.5q0 29 -20 48.5t-52 19.5z" />
    <glyph glyph-name="uni2087" unicode="&#x2087;" horiz-adv-x="323" 
d="M20 0l208 323h-191l10 65h277l-8 -52l-214 -336h-82z" />
    <glyph glyph-name="uni2088" unicode="&#x2088;" horiz-adv-x="343" 
d="M145 -7q-27 0 -51.5 7.5t-42.5 21.5t-29 35t-11 47q0 42 23.5 71t59.5 39q-20 12 -31 30.5t-11 40.5q0 25 11 45.5t29 34.5t41 22t48 8q22 0 44 -7t39.5 -20t28 -32t10.5 -43q0 -32 -18 -55t-47 -34q26 -14 40.5 -34t14.5 -48q0 -32 -12.5 -56.5t-33.5 -40.5t-47.5 -24
t-54.5 -8zM148 55q30 0 53 17t23 49q0 25 -20.5 40.5t-49.5 15.5q-27 0 -50 -16.5t-23 -47.5q0 -26 19.5 -42t47.5 -16zM174 234q25 0 44 14t19 40q0 21 -17 34t-41 13q-23 0 -42 -14t-19 -40q0 -21 16.5 -34t39.5 -13z" />
    <glyph glyph-name="uni2089" unicode="&#x2089;" horiz-adv-x="359" 
d="M33 244q0 30 12 57t32.5 48t48 33.5t59.5 12.5q27 0 52.5 -8.5t45 -25t31.5 -41t12 -56.5q0 -36 -16.5 -67.5t-42.5 -63.5l-110 -133h-87l116 132q-14 -7 -32 -7q-26 0 -48 9t-38 24.5t-25.5 37.5t-9.5 48zM175 183q16 0 31 6t26 16.5t18 24.5t7 31q0 26 -19.5 47.5
t-53.5 21.5q-15 0 -29.5 -5.5t-26 -16t-18.5 -25t-7 -32.5q0 -29 20 -48.5t52 -19.5z" />
    <glyph glyph-name="uni208A" unicode="&#x208a;" horiz-adv-x="343" 
d="M37 225h101l15 101h61l-15 -101h101l-9 -62h-101l-15 -101h-61l15 101h-101z" />
    <glyph glyph-name="uni208B" unicode="&#x208b;" horiz-adv-x="343" 
d="M37 225h263l-9 -62h-263z" />
    <glyph glyph-name="uni208C" unicode="&#x208c;" horiz-adv-x="343" 
d="M29 165h263l-9 -61h-263zM47 285h263l-9 -61h-263z" />
    <glyph glyph-name="uni208D" unicode="&#x208d;" horiz-adv-x="212" 
d="M24 156q0 73 33 145t98 130h65q-65 -66 -97 -134.5t-32 -137.5q0 -51 14.5 -103.5t43.5 -99.5h-61q-32 39 -48 93t-16 107z" />
    <glyph glyph-name="uni208E" unicode="&#x208e;" horiz-adv-x="212" 
d="M173 231q0 -73 -33 -145t-98 -130h-65q65 66 97 134.5t32 137.5q0 51 -14.5 103.5t-43.5 99.5h61q32 -39 48 -93t16 -107z" />
    <glyph glyph-name="Euro" unicode="&#x20ac;" horiz-adv-x="598" 
d="M438 245h-236q10 -35 29.5 -65t45 -51.5t57 -33.5t67.5 -12q35 0 70 10.5t68 25.5l-13 -87q-30 -14 -63.5 -22t-65.5 -8q-53 0 -99.5 18t-84 50.5t-64 77t-37.5 97.5h-95l10 69h77q0 18 0.5 32t2.5 27h-71l10 69h79q18 52 50.5 97t75.5 78t94 51.5t106 18.5
q45 0 86.5 -11.5t79.5 -34.5l-13 -87q-67 52 -156 52q-38 0 -73 -12.5t-65 -34.5t-54 -52t-40 -65h250l-10 -69h-261q-2 -12 -3 -26.5t-1 -32.5h257z" />
    <glyph glyph-name="afii61289" unicode="&#x2113;" horiz-adv-x="408" 
d="M42 289q36 6 77 23l36 240q4 30 14.5 56.5t28 46t42.5 31t58 11.5q53 0 88.5 -31t35.5 -85q0 -51 -17.5 -97.5t-47.5 -87t-71 -73.5t-88 -58l-16 -108q-13 -88 78 -88q28 0 47 10l-10 -80q-26 -10 -57 -10q-37 0 -66.5 11t-48.5 32.5t-27 52.5t-2 72l10 69
q-37 -12 -76 -18zM294 618q-14 0 -23.5 -7t-15.5 -17.5t-9.5 -22.5t-4.5 -23l-27 -181q53 39 88.5 91t35.5 110q0 50 -44 50z" />
    <glyph glyph-name="trademark" unicode="&#x2122;" horiz-adv-x="797" 
d="M805 700l-51 -342h-63l35 235l-143 -235h-43l-73 234l-35 -234h-63l51 342h77l78 -251l150 251h80zM90 700h266l-9 -62h-101l-42 -280h-65l42 280h-100z" />
    <glyph glyph-name="ohm" unicode="&#x2126;" horiz-adv-x="803" 
d="M425 65q53 9 98 41t77.5 77t51 98t18.5 103q0 49 -17.5 91.5t-48 74.5t-72.5 50.5t-90 18.5q-56 0 -105.5 -23t-86.5 -62t-58 -90.5t-21 -109.5q0 -45 11 -88t31.5 -79.5t48.5 -63t61 -38.5l-10 -65h-292l12 83h143q-46 43 -70.5 112t-24.5 142q0 75 29 142t78.5 117
t116 79t141.5 29q66 0 123.5 -23.5t100 -65t67 -98t24.5 -122.5q0 -43 -11.5 -88t-32.5 -86t-50 -77t-64 -61h123l-12 -83h-299l10 65v0z" />
    <glyph glyph-name="estimated" unicode="&#x212e;" horiz-adv-x="776" 
d="M161 142q35 -51 91.5 -81.5t128.5 -30.5q77 0 145 40.5t113 108.5h53q-26 -44 -60.5 -79t-75.5 -59.5t-86.5 -38t-92.5 -13.5q-68 0 -125.5 24.5t-99 67t-64.5 100t-23 123.5q0 75 28.5 142.5t78 118t116 80.5t142.5 30q67 0 124 -24t98 -66.5t64 -100t23 -124.5
q0 -8 -0.5 -15.5t-1.5 -15.5h-548zM427 634q-59 0 -111 -21t-93 -57l-28 -186h422l23 158q-35 49 -89.5 77.5t-123.5 28.5z" />
    <glyph glyph-name="uni2153" unicode="&#x2153;" horiz-adv-x="787" 
d="M103 0h-94l609 687h94zM614 231q26 0 47.5 12.5t21.5 43.5q0 20 -16.5 32.5t-35.5 12.5q-25 0 -43 -13.5t-22 -43.5h-67q1 30 12.5 52.5t30 37.5t42 22.5t48.5 7.5q22 0 43.5 -6.5t38.5 -19t27.5 -31.5t10.5 -43q0 -31 -18.5 -56t-47.5 -36q27 -13 42 -34.5t15 -51.5
q0 -29 -13 -52t-33.5 -39t-45.5 -24.5t-50 -8.5q-28 0 -53 7.5t-43.5 23t-29.5 40t-11 57.5h69q1 -30 20.5 -46.5t48.5 -16.5t50 16t21 45q0 27 -20 41t-47 14h-19l9 57h18zM104 299l48 321h-68l10 67h139l-58 -388h-71z" />
    <glyph glyph-name="uni2154" unicode="&#x2154;" horiz-adv-x="907" 
d="M228 694q27 0 50 -8.5t40 -23.5t27 -36.5t10 -47.5q0 -42 -24 -74t-64 -61l-109 -80h170l-10 -64h-278l8 57l179 133q25 19 41 38.5t16 48.5q0 23 -17 38t-41 15q-31 0 -51.5 -22t-23.5 -53h-70q5 61 45 100.5t102 39.5zM223 0h-94l609 687h94zM734 231q26 0 47.5 12.5
t21.5 43.5q0 20 -16.5 32.5t-35.5 12.5q-25 0 -43 -13.5t-22 -43.5h-67q1 30 12.5 52.5t30 37.5t42 22.5t48.5 7.5q22 0 43.5 -6.5t38.5 -19t27.5 -31.5t10.5 -43q0 -31 -18.5 -56t-47.5 -36q27 -13 42 -34.5t15 -51.5q0 -29 -13 -52t-33.5 -39t-45.5 -24.5t-50 -8.5
q-28 0 -53 7.5t-43.5 23t-29.5 40t-11 57.5h69q1 -30 20.5 -46.5t48.5 -16.5t50 16t21 45q0 27 -20 41t-47 14h-19l9 57h18z" />
    <glyph glyph-name="uni2155" unicode="&#x2155;" horiz-adv-x="794" 
d="M103 0h-94l609 687h94zM483 189l57 199h219l-9 -62h-166l-24 -86q14 12 31 17.5t35 5.5q56 0 90.5 -34.5t34.5 -88.5q0 -31 -12 -57.5t-33 -46.5t-48.5 -31.5t-58.5 -11.5q-62 0 -99 35t-37 89h70q0 -24 18.5 -41.5t50.5 -17.5q16 0 30.5 6.5t25 17.5t17 25t6.5 30
q0 32 -20.5 49t-49.5 17q-18 0 -34.5 -7t-28.5 -23zM104 299l48 321h-68l10 67h139l-58 -388h-71z" />
    <glyph glyph-name="uni2156" unicode="&#x2156;" horiz-adv-x="914" 
d="M223 0h-94l609 687h94zM603 189l57 199h219l-9 -62h-166l-24 -86q14 12 31 17.5t35 5.5q56 0 90.5 -34.5t34.5 -88.5q0 -31 -12 -57.5t-33 -46.5t-48.5 -31.5t-58.5 -11.5q-62 0 -99 35t-37 89h70q0 -24 18.5 -41.5t50.5 -17.5q16 0 30.5 6.5t25 17.5t17 25t6.5 30
q0 32 -20.5 49t-49.5 17q-18 0 -34.5 -7t-28.5 -23zM228 694q27 0 50 -8.5t40 -23.5t27 -36.5t10 -47.5q0 -42 -24 -74t-64 -61l-109 -80h170l-10 -64h-278l8 57l179 133q25 19 41 38.5t16 48.5q0 23 -17 38t-41 15q-31 0 -51.5 -22t-23.5 -53h-70q5 61 45 100.5t102 39.5z
" />
    <glyph glyph-name="uni2157" unicode="&#x2157;" horiz-adv-x="891" 
d="M200 0h-94l609 687h94zM580 189l57 199h219l-9 -62h-166l-24 -86q14 12 31 17.5t35 5.5q56 0 90.5 -34.5t34.5 -88.5q0 -31 -12 -57.5t-33 -46.5t-48.5 -31.5t-58.5 -11.5q-62 0 -99 35t-37 89h70q0 -24 18.5 -41.5t50.5 -17.5q16 0 30.5 6.5t25 17.5t17 25t6.5 30
q0 32 -20.5 49t-49.5 17q-18 0 -34.5 -7t-28.5 -23zM208 530q26 0 47.5 12.5t21.5 43.5q0 20 -16.5 32.5t-35.5 12.5q-25 0 -43 -13.5t-22 -43.5h-67q1 30 12.5 52.5t30 37.5t42 22.5t48.5 7.5q22 0 43.5 -6.5t38.5 -19t27.5 -31.5t10.5 -43q0 -31 -18.5 -56t-47.5 -36
q27 -13 42 -34.5t15 -51.5q0 -29 -13 -52t-33.5 -39t-45.5 -24.5t-50 -8.5q-28 0 -53 7.5t-43.5 23t-29.5 40t-11 57.5h69q1 -30 20.5 -46.5t48.5 -16.5t50 16t21 45q0 27 -20 41t-47 14h-19l9 57h18z" />
    <glyph glyph-name="uni2158" unicode="&#x2158;" horiz-adv-x="910" 
d="M311 445h49l-9 -62h-49l-13 -84h-68l13 84h-193l8 52l212 252h86zM132 445h111l24 159zM219 0h-94l609 687h94zM599 189l57 199h219l-9 -62h-166l-24 -86q14 12 31 17.5t35 5.5q56 0 90.5 -34.5t34.5 -88.5q0 -31 -12 -57.5t-33 -46.5t-48.5 -31.5t-58.5 -11.5
q-62 0 -99 35t-37 89h70q0 -24 18.5 -41.5t50.5 -17.5q16 0 30.5 6.5t25 17.5t17 25t6.5 30q0 32 -20.5 49t-49.5 17q-18 0 -34.5 -7t-28.5 -23z" />
    <glyph glyph-name="uni2159" unicode="&#x2159;" horiz-adv-x="756" 
d="M103 0h-94l609 687h94zM709 144q0 -30 -12 -57t-32.5 -48t-48 -33.5t-59.5 -12.5q-27 0 -52.5 8.5t-45 25t-31.5 41t-12 56.5q0 36 16.5 67.5t42.5 63.5l110 133h87l-116 -132q14 7 32 7q25 0 47.5 -9t38.5 -24.5t25.5 -37.5t9.5 -48zM567 205q-16 0 -31 -6t-26 -16.5
t-18 -24.5t-7 -31q0 -26 19.5 -47.5t53.5 -21.5q15 0 29.5 5.5t26 16t18.5 25t7 32.5q0 29 -20 48.5t-52 19.5zM104 299l48 321h-68l10 67h139l-58 -388h-71z" />
    <glyph glyph-name="uni215A" unicode="&#x215a;" horiz-adv-x="855" 
d="M78 488l57 199h219l-9 -62h-166l-24 -86q14 12 31 17.5t35 5.5q56 0 90.5 -34.5t34.5 -88.5q0 -31 -12 -57.5t-33 -46.5t-48.5 -31.5t-58.5 -11.5q-62 0 -99 35t-37 89h70q0 -24 18.5 -41.5t50.5 -17.5q16 0 30.5 6.5t25 17.5t17 25t6.5 30q0 32 -20.5 49t-49.5 17
q-18 0 -34.5 -7t-28.5 -23zM202 0h-94l609 687h94zM808 144q0 -30 -12 -57t-32.5 -48t-48 -33.5t-59.5 -12.5q-27 0 -52.5 8.5t-45 25t-31.5 41t-12 56.5q0 36 16.5 67.5t42.5 63.5l110 133h87l-116 -132q14 7 32 7q25 0 47.5 -9t38.5 -24.5t25.5 -37.5t9.5 -48zM666 205
q-16 0 -31 -6t-26 -16.5t-18 -24.5t-7 -31q0 -26 19.5 -47.5t53.5 -21.5q15 0 29.5 5.5t26 16t18.5 25t7 32.5q0 29 -20 48.5t-52 19.5z" />
    <glyph glyph-name="uni215B" unicode="&#x215b;" horiz-adv-x="784" 
d="M103 0h-94l609 687h94zM586 -7q-27 0 -51.5 7.5t-42.5 21.5t-29 35t-11 47q0 42 23.5 71t59.5 39q-20 12 -31 30.5t-11 40.5q0 25 11 45.5t29 34.5t41 22t48 8q22 0 44 -7t39.5 -20t28 -32t10.5 -43q0 -32 -18 -55t-47 -34q26 -14 40.5 -34t14.5 -48q0 -32 -12.5 -56.5
t-33.5 -40.5t-47.5 -24t-54.5 -8zM589 55q30 0 53 17t23 49q0 25 -20.5 40.5t-49.5 15.5q-27 0 -50 -16.5t-23 -47.5q0 -26 19.5 -42t47.5 -16zM615 234q25 0 44 14t19 40q0 21 -17 34t-41 13q-23 0 -42 -14t-19 -40q0 -21 16.5 -34t39.5 -13zM104 299l48 321h-68l10 67h139
l-58 -388h-71z" />
    <glyph glyph-name="uni215C" unicode="&#x215c;" horiz-adv-x="881" 
d="M200 0h-94l609 687h94zM683 -7q-27 0 -51.5 7.5t-42.5 21.5t-29 35t-11 47q0 42 23.5 71t59.5 39q-20 12 -31 30.5t-11 40.5q0 25 11 45.5t29 34.5t41 22t48 8q22 0 44 -7t39.5 -20t28 -32t10.5 -43q0 -32 -18 -55t-47 -34q26 -14 40.5 -34t14.5 -48q0 -32 -12.5 -56.5
t-33.5 -40.5t-47.5 -24t-54.5 -8zM686 55q30 0 53 17t23 49q0 25 -20.5 40.5t-49.5 15.5q-27 0 -50 -16.5t-23 -47.5q0 -26 19.5 -42t47.5 -16zM712 234q25 0 44 14t19 40q0 21 -17 34t-41 13q-23 0 -42 -14t-19 -40q0 -21 16.5 -34t39.5 -13zM208 530q26 0 47.5 12.5
t21.5 43.5q0 20 -16.5 32.5t-35.5 12.5q-25 0 -43 -13.5t-22 -43.5h-67q1 30 12.5 52.5t30 37.5t42 22.5t48.5 7.5q22 0 43.5 -6.5t38.5 -19t27.5 -31.5t10.5 -43q0 -31 -18.5 -56t-47.5 -36q27 -13 42 -34.5t15 -51.5q0 -29 -13 -52t-33.5 -39t-45.5 -24.5t-50 -8.5
q-28 0 -53 7.5t-43.5 23t-29.5 40t-11 57.5h69q1 -30 20.5 -46.5t48.5 -16.5t50 16t21 45q0 27 -20 41t-47 14h-19l9 57h18z" />
    <glyph glyph-name="uni215D" unicode="&#x215d;" horiz-adv-x="883" 
d="M78 488l57 199h219l-9 -62h-166l-24 -86q14 12 31 17.5t35 5.5q56 0 90.5 -34.5t34.5 -88.5q0 -31 -12 -57.5t-33 -46.5t-48.5 -31.5t-58.5 -11.5q-62 0 -99 35t-37 89h70q0 -24 18.5 -41.5t50.5 -17.5q16 0 30.5 6.5t25 17.5t17 25t6.5 30q0 32 -20.5 49t-49.5 17
q-18 0 -34.5 -7t-28.5 -23zM202 0h-94l609 687h94zM685 -7q-27 0 -51.5 7.5t-42.5 21.5t-29 35t-11 47q0 42 23.5 71t59.5 39q-20 12 -31 30.5t-11 40.5q0 25 11 45.5t29 34.5t41 22t48 8q22 0 44 -7t39.5 -20t28 -32t10.5 -43q0 -32 -18 -55t-47 -34q26 -14 40.5 -34
t14.5 -48q0 -32 -12.5 -56.5t-33.5 -40.5t-47.5 -24t-54.5 -8zM688 55q30 0 53 17t23 49q0 25 -20.5 40.5t-49.5 15.5q-27 0 -50 -16.5t-23 -47.5q0 -26 19.5 -42t47.5 -16zM714 234q25 0 44 14t19 40q0 21 -17 34t-41 13q-23 0 -42 -14t-19 -40q0 -21 16.5 -34t39.5 -13z
" />
    <glyph glyph-name="uni215E" unicode="&#x215e;" horiz-adv-x="818" 
d="M65 299l208 323h-191l10 65h277l-8 -52l-214 -336h-82zM137 0h-94l609 687h94zM620 -7q-27 0 -51.5 7.5t-42.5 21.5t-29 35t-11 47q0 42 23.5 71t59.5 39q-20 12 -31 30.5t-11 40.5q0 25 11 45.5t29 34.5t41 22t48 8q22 0 44 -7t39.5 -20t28 -32t10.5 -43q0 -32 -18 -55
t-47 -34q26 -14 40.5 -34t14.5 -48q0 -32 -12.5 -56.5t-33.5 -40.5t-47.5 -24t-54.5 -8zM623 55q30 0 53 17t23 49q0 25 -20.5 40.5t-49.5 15.5q-27 0 -50 -16.5t-23 -47.5q0 -26 19.5 -42t47.5 -16zM649 234q25 0 44 14t19 40q0 21 -17 34t-41 13q-23 0 -42 -14t-19 -40
q0 -21 16.5 -34t39.5 -13z" />
    <glyph glyph-name="uni215F" unicode="&#x215f;" horiz-adv-x="441" 
d="M104 299l48 321h-68l10 67h139l-58 -388h-71zM103 0h-94l609 687h94z" />
    <glyph glyph-name="arrowleft" unicode="&#x2190;" horiz-adv-x="850" 
d="M344 44l-261 306l353 306l45 -50l-253 -220h563l-10 -72h-569l187 -220z" />
    <glyph glyph-name="arrowup" unicode="&#x2191;" horiz-adv-x="800" 
d="M675 364l-188 220l-87 -584h-72l87 580l-252 -220l-45 52l352 306l260 -306z" />
    <glyph glyph-name="arrowright" unicode="&#x2192;" horiz-adv-x="850" 
d="M402 95l251 219h-562l11 72h570l-188 222l54 48l261 -306l-352 -306z" />
    <glyph glyph-name="arrowdown" unicode="&#x2193;" horiz-adv-x="800" 
d="M158 336l188 -220l87 584h72l-87 -580l252 220l45 -52l-352 -306l-260 306z" />
    <glyph glyph-name="uni2196" unicode="&#x2196;" horiz-adv-x="750" 
d="M620 629h-313l345 -405l-56 -49l-345 405l-46 -313h-71l65 433h432z" />
    <glyph glyph-name="uni2197" unicode="&#x2197;" horiz-adv-x="750" 
d="M257 700h432l-65 -433h-71l47 309l-464 -403l-44 53l463 403h-309z" />
    <glyph glyph-name="uni2198" unicode="&#x2198;" horiz-adv-x="750" 
d="M526 0h-432l65 433h71l-47 -309l464 403l44 -53l-463 -403h309z" />
    <glyph glyph-name="uni2199" unicode="&#x2199;" horiz-adv-x="750" 
d="M163 71h313l-345 405l56 49l344 -405l47 313h71l-65 -433h-432z" />
    <glyph glyph-name="partialdiff" unicode="&#x2202;" horiz-adv-x="609" 
d="M267 -9q-45 0 -85.5 13t-71 39t-48 64.5t-17.5 89.5q0 52 20 99.5t55 82.5t82.5 56t101.5 21q25 0 51.5 -5t51 -15t45 -25t35.5 -35q1 11 1.5 23t0.5 17q0 45 -12 83.5t-35.5 66t-58.5 43.5t-82 16q-66 0 -127 -25l12 81q28 11 60 17t62 6q67 0 117 -21t83.5 -60
t50 -93.5t16.5 -121.5t-18.5 -140.5t-56.5 -135t-96 -101.5t-137 -40zM270 72q37 0 69.5 17t58 45.5t43 64.5t25.5 74q-19 49 -64.5 76.5t-98.5 27.5q-36 0 -67.5 -14t-54 -37.5t-35.5 -55t-13 -65.5q0 -62 38.5 -97.5t98.5 -35.5z" />
    <glyph glyph-name="Delta" unicode="&#x2206;" horiz-adv-x="714" 
d="M0 0l393 700h68l183 -700h-644zM138 82h394l-124 483z" />
    <glyph glyph-name="product" unicode="&#x220f;" horiz-adv-x="714" 
d="M158 693h534l-104 -693h-89l91 610h-356l-91 -610h-89z" />
    <glyph glyph-name="summation" unicode="&#x2211;" horiz-adv-x="575" 
d="M400 329l-246 -248h347l-12 -81h-475l9 65l281 283l-196 280l10 65h475l-13 -81h-352l176 -254z" />
    <glyph glyph-name="minus" unicode="&#x2212;" 
d="M94 370h452l-11 -73h-452z" />
    <glyph glyph-name="radical" unicode="&#x221a;" horiz-adv-x="685" 
d="M718 694l-400 -694h-64l-103 388h-89l12 77h144l86 -339l326 568h88z" />
    <glyph glyph-name="infinity" unicode="&#x221e;" horiz-adv-x="788" 
d="M743 342q0 -36 -13.5 -68t-37.5 -55t-57 -36.5t-73 -13.5q-51 0 -88.5 25.5t-69.5 68.5q-38 -44 -77.5 -69t-90.5 -25q-36 0 -65.5 12t-51 32.5t-33.5 48.5t-12 60q0 36 13.5 68t37.5 55t57 36.5t73 13.5q51 0 88.5 -25.5t69.5 -68.5q38 43 77.5 68.5t90.5 25.5
q36 0 65.5 -12t51 -32.5t33.5 -48.5t12 -60zM658 337q0 34 -24 57.5t-59 23.5q-19 0 -36 -8t-32 -20.5t-28 -27.5t-25 -30q10 -15 21 -30.5t24 -27.5t29 -20t35 -8t36 7t30 19.5t21 29t8 35.5zM159 327q0 -34 23.5 -57.5t58.5 -23.5q19 0 36 8t32.5 20.5t28.5 27.5t25 30
q-10 15 -21 30.5t-24.5 27.5t-29.5 20t-35 8t-36 -7t-30 -19.5t-20.5 -29t-7.5 -35.5z" />
    <glyph glyph-name="integral" unicode="&#x222b;" horiz-adv-x="418" 
d="M208 -55q-13 -88 -61.5 -126.5t-115.5 -38.5q-26 0 -44 4.5t-29 9.5l12 76q11 -5 24 -7.5t33 -2.5q35 0 61.5 20.5t34.5 71.5l87 586q14 88 62.5 126.5t115.5 38.5q26 0 44 -4.5t28 -9.5l-11 -76q-11 5 -24 7.5t-33 2.5q-35 0 -62 -20.5t-35 -71.5l-87 -586v0z" />
    <glyph glyph-name="approxequal" unicode="&#x2248;" 
d="M82 180q2 30 13.5 53.5t30 40t42 25t49.5 8.5q37 0 59.5 -9.5t39.5 -21.5t31.5 -21.5t35.5 -9.5q25 0 41.5 17t18.5 41h78q-2 -30 -14 -53.5t-30.5 -40t-42.5 -25t-49 -8.5q-36 0 -59 10t-40 21.5t-31.5 21.5t-35.5 10q-25 0 -41.5 -17.5t-18.5 -41.5h-77zM112 363
q2 30 13.5 53.5t30 40t42 25t49.5 8.5q37 0 59.5 -9.5t39.5 -21.5t31.5 -21.5t35.5 -9.5q25 0 41.5 17t18.5 41h78q-2 -30 -14 -53.5t-30.5 -40t-42.5 -25t-49 -8.5q-36 0 -59 10t-40 21.5t-31.5 21.5t-35.5 10q-25 0 -41.5 -17.5t-18.5 -41.5h-77z" />
    <glyph glyph-name="notequal" unicode="&#x2260;" 
d="M109 466h247l55 90h82l-55 -90h123l-11 -71h-155l-75 -123h212l-11 -71h-245l-56 -93h-82l56 93h-125l11 71h158l75 123h-215z" />
    <glyph glyph-name="equivalence" unicode="&#x2261;" 
d="M65 175h452l-11 -71h-452zM93 368h452l-10 -71h-452zM122 561h452l-10 -71h-452z" />
    <glyph glyph-name="lessequal" unicode="&#x2264;" 
d="M71 126h423l-11 -71h-423zM122 467l449 178l-11 -80l-352 -142l309 -142l-12 -77l-396 179z" />
    <glyph glyph-name="greaterequal" unicode="&#x2265;" 
d="M484 55h-423l11 71h423zM533 383l-450 -179l12 82l350 141l-308 141l12 77l397 -178z" />
    <glyph glyph-name="lozenge" unicode="&#x25ca;" horiz-adv-x="566" 
d="M278 0h-61l-167 350l270 344h61l167 -347zM337 590l-192 -245l116 -242l192 247z" />
    <glyph glyph-name="anglebracketleft" unicode="&#x3008;" horiz-adv-x="323" 
d="M33 296l270 457h87l-272 -463l133 -455h-83z" />
    <glyph glyph-name="anglebracketright" unicode="&#x3009;" horiz-adv-x="322" 
d="M304 292l-270 -457h-87l272 463l-133 455h83z" />
    <glyph glyph-name="commaaccent" unicode="&#xf6c3;" horiz-adv-x="500" 
d="M138 -218l42 69q-18 1 -29 13t-11 31q0 23 17 38t41 15q21 0 37 -13.5t16 -36.5q0 -13 -6.5 -25.5t-14.5 -26.5l-39 -64h-53z" />
    <glyph glyph-name="fi" unicode="&#xfb01;" horiz-adv-x="592" 
d="M64 486h74l9 56q11 81 60 125.5t123 44.5q21 0 42.5 -4t36.5 -11l-10 -77q-15 8 -32.5 10.5t-34.5 2.5q-42 0 -67 -24.5t-33 -70.5l-8 -52h137l-12 -77h-136l-61 -409h-86l61 409h-75zM549 486l-73 -486h-86l73 486h86zM583 631q0 -25 -17.5 -42t-41.5 -17t-40.5 17
t-16.5 40q0 25 17.5 42t41.5 17q25 0 41 -17t16 -40z" />
    <glyph glyph-name="fl" unicode="&#xfb02;" horiz-adv-x="592" 
d="M64 486h74l9 56q11 81 60 125.5t123 44.5q21 0 42.5 -4t36.5 -11l-10 -77q-15 8 -32.5 10.5t-34.5 2.5q-42 0 -67 -24.5t-33 -70.5l-8 -52h137l-12 -77h-136l-61 -409h-86l61 409h-75zM581 700l-105 -700h-86l105 700h86z" />
    <glyph glyph-name="Adieresis.square" horiz-adv-x="671" 
d="M440 700l183 -700h-91l-52 203h-297l-112 -203h-95l394 700h70zM227 284h233l-73 291zM283 775l15 100h85l-15 -100h-85zM464 775l15 100h85l-15 -100h-85z" />
    <glyph glyph-name="Anocross" horiz-adv-x="671" 
d="M71 0h-95l394 700h70l183 -700h-91l-145 575z" />
    <glyph glyph-name="Cdotaccent.square" horiz-adv-x="661" 
d="M450 626q-59 0 -112 -25t-92.5 -66.5t-62.5 -95.5t-23 -113q0 -52 18.5 -97.5t51 -79.5t77 -54t97.5 -20q52 0 103.5 18.5t96.5 47.5l-14 -99q-44 -23 -93 -38t-98 -15q-69 0 -129.5 26t-105.5 71t-70.5 106t-25.5 131q0 78 31 149t83.5 124t122.5 84.5t148 31.5
q62 0 119.5 -18t105.5 -54l-15 -98q-45 38 -97.5 61t-115.5 23zM450 775l15 101h86l-15 -101h-86z" />
    <glyph glyph-name="Edieresis.square" horiz-adv-x="531" 
d="M159 700h389l-13 -82h-300l-32 -214h279l-12 -81h-279l-36 -241h302l-12 -82h-391zM232 775l15 100h85l-15 -100h-85zM413 775l15 100h85l-15 -100h-85z" />
    <glyph glyph-name="Edotaccent.square" horiz-adv-x="531" 
d="M159 700h389l-13 -82h-300l-32 -214h279l-12 -81h-279l-36 -241h302l-12 -82h-391zM325 775l15 101h86l-15 -101h-86z" />
    <glyph glyph-name="Gcommaaccent.square" horiz-adv-x="789" 
d="M750 317q-11 -70 -40 -130t-74 -104t-105.5 -69t-133.5 -25q-69 0 -129.5 26t-104.5 71t-69.5 106t-25.5 131q0 78 30.5 149t83 124t122.5 84.5t148 31.5q49 0 95 -13t85 -37.5t69 -59.5t48 -80l-83 -34q-27 66 -84.5 102.5t-133.5 36.5q-60 0 -112.5 -25t-91.5 -66.5
t-62 -96t-23 -113.5q0 -52 18 -98t50 -80t76 -54t97 -20q47 0 89 16t75.5 44t57 66.5t33.5 84.5h-256l12 84h347zM335 -55h88l-14 -96q-6 -43 -28 -60.5t-54 -17.5q-6 0 -9.5 0.5t-6.5 1.5l7 43q4 -1 8 -1q11 0 20.5 7.5t11.5 21.5l1 7h-38z" />
    <glyph glyph-name="Gdotaccent.square" horiz-adv-x="789" 
d="M750 317q-11 -70 -40 -130t-74 -104t-105.5 -69t-133.5 -25q-69 0 -129.5 26t-104.5 71t-69.5 106t-25.5 131q0 78 30.5 149t83 124t122.5 84.5t148 31.5q49 0 95 -13t85 -37.5t69 -59.5t48 -80l-83 -34q-27 66 -84.5 102.5t-133.5 36.5q-60 0 -112.5 -25t-91.5 -66.5
t-62 -96t-23 -113.5q0 -52 18 -98t50 -80t76 -54t97 -20q47 0 89 16t75.5 44t57 66.5t33.5 84.5h-256l12 84h347zM434 775l15 101h86l-15 -101h-86z" />
    <glyph glyph-name="Idieresis.square" horiz-adv-x="269" 
d="M248 700l-105 -700h-89l105 700h89zM79 775l15 100h85l-15 -100h-85zM260 775l15 100h85l-15 -100h-85z" />
    <glyph glyph-name="Idotaccent.square" horiz-adv-x="269" 
d="M248 700l-105 -700h-89l105 700h89zM170 775l15 101h86l-15 -101h-86z" />
    <glyph glyph-name="Kcommaaccent.square" horiz-adv-x="620" 
d="M203 402l334 298h117l-355 -318l272 -382h-108l-229 326l-49 -43l-42 -283h-89l105 700h89zM241 -55h88l-14 -96q-6 -43 -28 -60.5t-54 -17.5q-6 0 -9.5 0.5t-6.5 1.5l7 43q4 -1 8 -1q11 0 20.5 7.5t11.5 21.5l1 7h-38z" />
    <glyph glyph-name="Lcommaaccent.square" horiz-adv-x="449" 
d="M248 700l-93 -617h250l-12 -83h-339l105 700h89zM170 -55h88l-14 -96q-6 -43 -28 -60.5t-54 -17.5q-6 0 -9.5 0.5t-6.5 1.5l7 43q4 -1 8 -1q11 0 20.5 7.5t11.5 21.5l1 7h-38z" />
    <glyph glyph-name="Ldot.square" horiz-adv-x="449" 
d="M248 700l-93 -617h250l-12 -83h-339l105 700h89zM322 298l16 105h86l-16 -105h-86z" />
    <glyph glyph-name="Ncommaaccent.square" horiz-adv-x="775" 
d="M754 700l-105 -700h-82l-342 568l-85 -568h-86l105 700h89l336 -562l84 562h86zM300 -55h88l-14 -96q-6 -43 -28 -60.5t-54 -17.5q-6 0 -9.5 0.5t-6.5 1.5l7 43q4 -1 8 -1q11 0 20.5 7.5t11.5 21.5l1 7h-38z" />
    <glyph glyph-name="Odieresis.square" horiz-adv-x="822" 
d="M788 377q0 -78 -31 -148.5t-83.5 -123.5t-123 -84.5t-148.5 -31.5q-70 0 -131 26t-106 71t-71 106t-26 131q0 78 31 149t83.5 124t123 84.5t148.5 31.5q70 0 131 -26t106 -71.5t71 -106.5t26 -131zM405 74q60 0 113 25t93 66.5t63 95.5t23 113q0 52 -18.5 98.5t-51 80.5
t-77.5 54t-99 20q-60 0 -113 -25t-93 -66.5t-63 -96t-23 -113.5q0 -52 18.5 -98t51.5 -80t78 -54t98 -20zM349 775l15 100h85l-15 -100h-85zM530 775l15 100h85l-15 -100h-85z" />
    <glyph glyph-name="Rcommaaccent.square" horiz-adv-x="588" 
d="M361 700q91 0 145.5 -47t54.5 -135q0 -46 -15.5 -83.5t-42.5 -65t-65 -45.5t-83 -24l175 -300h-102l-170 297h-71l-44 -297h-89l105 700h202zM199 376h115q33 0 62 9.5t50 27t33 43t12 57.5q0 51 -33.5 78t-90.5 27h-112zM230 -55h88l-14 -96q-6 -43 -28 -60.5t-54 -17.5
q-6 0 -9.5 0.5t-6.5 1.5l7 43q4 -1 8 -1q11 0 20.5 7.5t11.5 21.5l1 7h-38z" />
    <glyph glyph-name="Scommaaccent.square" horiz-adv-x="543" 
d="M319 628q-51 0 -83.5 -27t-32.5 -71q0 -65 87 -111l75 -39q130 -67 130 -180q0 -47 -17 -86t-48 -67t-73 -43t-91 -15q-89 0 -153 48t-88 141l84 27q19 -60 59 -96t100 -36t97.5 32t37.5 86q0 67 -88 113l-78 40q-124 63 -124 177q0 42 15.5 77t43 60.5t66 39.5t83.5 14
q78 0 131.5 -43.5t77.5 -121.5l-82 -29q-16 48 -47.5 79t-81.5 31zM198 -55h88l-14 -96q-6 -43 -28 -60.5t-54 -17.5q-6 0 -9.5 0.5t-6.5 1.5l7 43q4 -1 8 -1q11 0 20.5 7.5t11.5 21.5l1 7h-38z" />
    <glyph glyph-name="Tcommaaccent.square" horiz-adv-x="538" 
d="M88 700h498l-12 -82h-204l-92 -618h-90l92 618h-204zM181 -55h88l-14 -96q-6 -43 -28 -60.5t-54 -17.5q-6 0 -9.5 0.5t-6.5 1.5l7 43q4 -1 8 -1q11 0 20.5 7.5t11.5 21.5l1 7h-38z" />
    <glyph glyph-name="Udieresis.square" horiz-adv-x="695" 
d="M320 -11q-68 0 -116.5 21.5t-78 60.5t-39.5 92.5t0 118.5l62 418h90l-62 -417q-7 -46 -1 -84.5t24 -66.5t49 -43.5t74 -15.5t78.5 15.5t62 43.5t44 66.5t24.5 84.5l64 417h89l-63 -419q-10 -66 -34.5 -120t-63 -92t-89.5 -59t-114 -21zM292 775l15 100h85l-15 -100h-85z
M473 775l15 100h85l-15 -100h-85z" />
    <glyph glyph-name="Wdieresis.square" horiz-adv-x="982" 
d="M214 0l-132 700h89l96 -534l264 534h55l104 -534l257 534h93l-343 -700h-57l-105 533l-264 -533h-57zM437 775l15 100h85l-15 -100h-85zM618 775l15 100h85l-15 -100h-85z" />
    <glyph glyph-name="Ydieresis.square" horiz-adv-x="620" 
d="M80 700h100l151 -306l243 306h106l-313 -388l-47 -312h-89l47 312zM253 775l15 100h85l-15 -100h-85zM434 775l15 100h85l-15 -100h-85z" />
    <glyph glyph-name="Zdotaccent.square" horiz-adv-x="607" 
d="M136 81h412l-12 -81h-537l9 58l491 561h-381l12 81h508l-9 -58zM362 775l15 101h86l-15 -101h-86z" />
    <glyph glyph-name="a.alt" horiz-adv-x="522" 
d="M413 0h-81l10 62q-29 -35 -72 -54t-91 -19q-67 0 -105.5 35t-38.5 97q0 68 49 110.5t140 53.5l151 18l4 27q6 39 -21 65t-75 26q-81 0 -122 -86l-76 31q28 63 81.5 97t125.5 34q43 0 77.5 -12.5t57 -35.5t32 -55t3.5 -70zM122 125q0 -29 21 -45t59 -16q29 0 56 10
t48 27.5t35 41t18 51.5l5 35l-133 -17q-51 -7 -80 -30t-29 -57z" />
    <glyph glyph-name="t.alt" horiz-adv-x="308" 
d="M70 0l61 409h-87l12 77h87l21 146h86l-21 -146h100l-12 -77h-100l-61 -409h-86z" />
    <glyph glyph-name="u.alt" horiz-adv-x="562" 
d="M255 -11q-102 0 -151.5 60t-33.5 168l40 269h86l-40 -268q-11 -70 16.5 -109t87.5 -39q56 0 93 40t47 108l40 268h86l-41 -273q-16 -106 -76 -165t-154 -59z" />
    <glyph glyph-name="adieresis.square" horiz-adv-x="626" 
d="M271 -11q-49 0 -90.5 17.5t-72 48.5t-47.5 74t-17 94q0 57 20.5 107t56.5 87t84.5 58.5t104.5 21.5q58 0 104.5 -24t72.5 -62l11 75h85l-73 -486h-85l12 72q-29 -41 -72 -62t-94 -21zM286 68q37 0 70 15.5t57.5 41.5t39 61.5t14.5 76.5q0 34 -11.5 62.5t-32 49t-48 32
t-60.5 11.5q-38 0 -71 -15t-58.5 -41t-40 -60.5t-14.5 -72.5q0 -35 12 -64t32.5 -51t49 -34t61.5 -12zM215 580l15 100h85l-15 -100h-85zM396 580l15 100h85l-15 -100h-85z" />
    <glyph glyph-name="cdotaccent.square" horiz-adv-x="482" 
d="M44 221q0 57 21 107.5t58 88t87 59t107 21.5q41 0 81 -12.5t71 -38.5l-13 -86q-30 26 -65 41.5t-76 15.5q-39 0 -72 -15.5t-58 -42t-39 -61t-14 -72.5q0 -34 11.5 -63t32.5 -50t49.5 -33t61.5 -12q35 0 69.5 13t65.5 31l-14 -89q-29 -16 -60 -25t-64 -9q-51 0 -94.5 17
t-76 47.5t-51 73t-18.5 94.5zM309 577l16 105h86l-16 -105h-86z" />
    <glyph glyph-name="edieresis.square" horiz-adv-x="560" 
d="M282 66q26 0 47 6.5t37.5 18t30.5 27t27 32.5l67 -37q-33 -54 -88.5 -89t-127.5 -35q-50 0 -92.5 16.5t-73 46t-48 71.5t-17.5 93q0 56 19.5 107t54 89.5t82.5 61.5t105 23q48 0 88.5 -17.5t69.5 -48t45 -72t16 -89.5q0 -12 -1.5 -27t-5.5 -27h-390q0 -33 13 -61
t34.5 -47.5t49.5 -30.5t58 -11zM300 422q-21 0 -45.5 -7.5t-47.5 -24t-42 -42t-29 -61.5h305q-2 30 -13 54.5t-30 42.5t-44 28t-54 10zM196 580l15 100h85l-15 -100h-85zM377 580l15 100h85l-15 -100h-85z" />
    <glyph glyph-name="edotaccent.square" horiz-adv-x="560" 
d="M282 66q26 0 47 6.5t37.5 18t30.5 27t27 32.5l67 -37q-33 -54 -88.5 -89t-127.5 -35q-50 0 -92.5 16.5t-73 46t-48 71.5t-17.5 93q0 56 19.5 107t54 89.5t82.5 61.5t105 23q48 0 88.5 -17.5t69.5 -48t45 -72t16 -89.5q0 -12 -1.5 -27t-5.5 -27h-390q0 -33 13 -61
t34.5 -47.5t49.5 -30.5t58 -11zM300 422q-21 0 -45.5 -7.5t-47.5 -24t-42 -42t-29 -61.5h305q-2 30 -13 54.5t-30 42.5t-44 28t-54 10zM285 577l16 105h86l-16 -105h-86z" />
    <glyph glyph-name="gcommaaccent.square" horiz-adv-x="616" 
d="M430 89q-28 -41 -70 -62.5t-91 -21.5q-48 0 -89 17t-71 47t-46.5 71.5t-16.5 91.5q0 55 20 103.5t55.5 84.5t83 56.5t101.5 20.5q57 0 102 -22t70 -62l11 73h84l-69 -468q-8 -53 -28.5 -96.5t-53 -75t-77.5 -49t-102 -17.5q-71 0 -131.5 33.5t-91.5 104.5l73 42
q21 -51 61 -76.5t92 -25.5q40 0 70 13t51.5 36t34.5 54.5t19 69.5zM282 82q36 0 68 14.5t56 39.5t38 58.5t14 71.5q0 33 -11 61t-31 48t-47 31.5t-58 11.5q-36 0 -68.5 -14.5t-57 -39t-38.5 -57.5t-14 -69q0 -33 11.5 -61.5t31.5 -49.5t47 -33t59 -12zM381 568h-88l14 96
q6 43 28 60.5t54 17.5q6 0 9.5 -0.5t6.5 -1.5l-7 -43q-4 1 -8 1q-11 0 -20.5 -7.5t-11.5 -21.5l-1 -7h38z" />
    <glyph glyph-name="gdotaccent.square" horiz-adv-x="616" 
d="M430 89q-28 -41 -70 -62.5t-91 -21.5q-48 0 -89 17t-71 47t-46.5 71.5t-16.5 91.5q0 55 20 103.5t55.5 84.5t83 56.5t101.5 20.5q57 0 102 -22t70 -62l11 73h84l-69 -468q-8 -53 -28.5 -96.5t-53 -75t-77.5 -49t-102 -17.5q-71 0 -131.5 33.5t-91.5 104.5l73 42
q21 -51 61 -76.5t92 -25.5q40 0 70 13t51.5 36t34.5 54.5t19 69.5zM282 82q36 0 68 14.5t56 39.5t38 58.5t14 71.5q0 33 -11 61t-31 48t-47 31.5t-58 11.5q-36 0 -68.5 -14.5t-57 -39t-38.5 -57.5t-14 -69q0 -33 11.5 -61.5t31.5 -49.5t47 -33t59 -12zM300 577l16 105h86
l-16 -105h-86z" />
    <glyph glyph-name="idieresis.square" horiz-adv-x="246" 
d="M203 486l-73 -486h-86l73 486h86zM37 580l15 100h85l-15 -100h-85zM218 580l15 100h85l-15 -100h-85z" />
    <glyph glyph-name="idotaccent" horiz-adv-x="246" 
d="M203 486l-73 -486h-86l73 486h86zM237 631q0 -25 -17.5 -42t-41.5 -17t-40.5 17t-16.5 40q0 25 17.5 42t41.5 17q25 0 41 -17t16 -40z" />
    <glyph glyph-name="idotaccent.square" horiz-adv-x="246" 
d="M203 486l-73 -486h-86l73 486h86zM130 577l16 105h86l-16 -105h-86z" />
    <glyph glyph-name="iogonek.square" horiz-adv-x="246" 
d="M203 486l-73 -486q-24 -10 -46 -22t-38.5 -26t-26 -29t-9.5 -30q0 -17 11 -26t31 -9q13 0 26 3.5t25 12.5l-9 -62q-30 -16 -66 -16q-44 0 -67.5 21.5t-23.5 59.5q0 77 107 125l73 484h86zM130 577l16 105h86l-16 -105h-86z" />
    <glyph glyph-name="kcommaaccent.square" horiz-adv-x="508" 
d="M173 296l229 190h114l-252 -209l198 -277h-104l-158 224l-43 -35l-28 -189h-85l105 700h85zM186 -55h88l-14 -96q-6 -43 -28 -60.5t-54 -17.5q-6 0 -9.5 0.5t-6.5 1.5l7 43q4 -1 8 -1q11 0 20.5 7.5t11.5 21.5l1 7h-38z" />
    <glyph glyph-name="lcommaaccent.square" horiz-adv-x="246" 
d="M235 700l-105 -700h-86l105 700h86zM35 -55h88l-14 -96q-6 -43 -28 -60.5t-54 -17.5q-6 0 -9.5 0.5t-6.5 1.5l7 43q4 -1 8 -1q11 0 20.5 7.5t11.5 21.5l1 7h-38z" />
    <glyph glyph-name="ldot.square" horiz-adv-x="322" 
d="M235 700l-105 -700h-86l105 700h86zM246 276l16 105h86l-16 -105h-86z" />
    <glyph glyph-name="ncommaaccent.square" horiz-adv-x="590" 
d="M130 0h-86l73 486h86l-11 -68q26 35 67.5 57t92.5 22q97 0 141.5 -58t29.5 -158l-42 -281h-86l41 277q10 67 -18 103.5t-91 36.5q-61 0 -104.5 -45t-54.5 -120zM216 -55h88l-14 -96q-6 -43 -28 -60.5t-54 -17.5q-6 0 -9.5 0.5t-6.5 1.5l7 43q4 -1 8 -1q11 0 20.5 7.5
t11.5 21.5l1 7h-38z" />
    <glyph glyph-name="odieresis.square" horiz-adv-x="598" 
d="M317 497q50 0 93.5 -17.5t75.5 -48.5t50.5 -74t18.5 -94q0 -56 -21 -105.5t-58 -87t-87 -59.5t-107 -22q-51 0 -94.5 17.5t-75.5 48.5t-50 74t-18 94q0 56 21 105.5t58 87t87 59.5t107 22zM313 418q-36 0 -68.5 -14.5t-58 -40t-40.5 -61t-15 -76.5q0 -33 11.5 -61.5
t32 -50t48.5 -34t62 -12.5q36 0 69 14.5t58.5 40.5t40.5 61t15 77q0 33 -11.5 61.5t-32 49.5t-49 33.5t-62.5 12.5zM212 580l15 100h85l-15 -100h-85zM393 580l15 100h85l-15 -100h-85z" />
    <glyph glyph-name="rcommaaccent.square" horiz-adv-x="362" 
d="M359 405q-2 0 -6 1q-3 0 -6.5 0.5t-8.5 0.5q-35 0 -64 -13t-52 -37t-38 -57.5t-21 -73.5l-34 -226h-85l73 486h84l-13 -83q23 41 67 66t91 25q5 0 10 -0.5t9 -0.5q4 -1 7 -1zM36 -55h88l-14 -96q-6 -43 -28 -60.5t-54 -17.5q-6 0 -9.5 0.5t-6.5 1.5l7 43q4 -1 8 -1
q11 0 20.5 7.5t11.5 21.5l1 7h-38z" />
    <glyph glyph-name="scommaaccent.square" horiz-adv-x="420" 
d="M134 -55h88l-14 -96q-6 -43 -28 -60.5t-54 -17.5q-6 0 -9.5 0.5t-6.5 1.5l7 43q4 -1 8 -1q11 0 20.5 7.5t11.5 21.5l1 7h-38zM100 159q3 -20 11.5 -37t22 -30t31 -20.5t36.5 -7.5q34 0 59.5 18t25.5 54q0 24 -16.5 39.5t-42.5 26.5l-51 23q-19 9 -37.5 19.5t-33.5 26
t-24 36t-9 49.5q0 33 12.5 59t34.5 44.5t51 28t61 9.5q65 0 107 -35.5t56 -95.5l-77 -23q-11 38 -33 59t-56 21q-26 0 -48.5 -15t-22.5 -46q0 -23 18 -38.5t43 -26.5l48 -22q20 -9 39 -20t33.5 -26.5t23.5 -36.5t9 -49q0 -37 -14.5 -65.5t-39 -48t-56 -30t-65.5 -10.5
q-33 0 -63 11t-53.5 30.5t-38.5 47t-19 59.5z" />
    <glyph glyph-name="tcommaaccent.square" horiz-adv-x="355" 
d="M172 153q-6 -43 9.5 -63.5t56.5 -20.5q32 0 59 15l-12 -81q-14 -5 -31.5 -9.5t-41.5 -4.5q-70 0 -104 42.5t-23 113.5l39 264h-75l12 77h75l21 146h86l-21 -146h136l-12 -77h-136zM112 -55h88l-14 -96q-6 -43 -28 -60.5t-54 -17.5q-6 0 -9.5 0.5t-6.5 1.5l7 43q4 -1 8 -1
q11 0 20.5 7.5t11.5 21.5l1 7h-38z" />
    <glyph glyph-name="udieresis.square" horiz-adv-x="587" 
d="M458 486h86l-73 -486h-86l11 68q-27 -35 -67 -57t-94 -22q-94 0 -138 58.5t-29 157.5l42 281h86l-41 -277q-10 -67 17.5 -103.5t89.5 -36.5q30 0 56.5 12t47 33.5t34.5 52t20 67.5zM207 580l15 100h85l-15 -100h-85zM388 580l15 100h85l-15 -100h-85z" />
    <glyph glyph-name="wdieresis.square" horiz-adv-x="794" 
d="M491 0l-74 360l-182 -360h-66l-108 486h86l73 -364l183 364h62l75 -364l181 364h90l-254 -486h-66zM310 580l15 100h85l-15 -100h-85zM491 580l15 100h85l-15 -100h-85z" />
    <glyph glyph-name="ydieresis.square" horiz-adv-x="513" 
d="M212 -81q-22 -39 -42 -66t-40.5 -43t-42.5 -23t-48 -7q-32 0 -55 15l10 73q8 -4 19 -7t25 -3q29 0 52 20t49 67l39 71l-121 470h89l90 -375l206 375h92zM173 580l15 100h85l-15 -100h-85zM354 580l15 100h85l-15 -100h-85z" />
    <glyph glyph-name="ij.square" horiz-adv-x="474" 
d="M203 486l-73 -486h-86l73 486h86zM130 577l16 105h86l-16 -105h-86zM351 -49q-12 -82 -55.5 -126.5t-111.5 -44.5q-35 0 -65 15l12 76q18 -12 45 -12q35 0 59 25t31 71l79 531h86zM358 577l16 105h86l-16 -105h-86z" />
    <glyph glyph-name="zdotaccent.square" horiz-adv-x="450" 
d="M81 486h376l-8 -54l-332 -357h282l-11 -75h-398l8 56l331 355h-260zM250 577l16 105h86l-16 -105h-86z" />
    <glyph glyph-name="i.square" horiz-adv-x="246" 
d="M203 486l-73 -486h-86l73 486h86zM130 577l16 105h86l-16 -105h-86z" />
    <glyph glyph-name="j.square" horiz-adv-x="249" 
d="M126 -49q-12 -82 -55.5 -126.5t-111.5 -44.5q-35 0 -65 15l12 76q18 -12 45 -12q35 0 59 25t31 71l79 531h86zM133 577l16 105h86l-16 -105h-86z" />
    <glyph glyph-name="aring.alt" horiz-adv-x="522" 
d="M413 0h-81l10 62q-29 -35 -72 -54t-91 -19q-67 0 -105.5 35t-38.5 97q0 68 49 110.5t140 53.5l151 18l4 27q6 39 -21 65t-75 26q-81 0 -122 -86l-76 31q28 63 81.5 97t125.5 34q43 0 77.5 -12.5t57 -35.5t32 -55t3.5 -70zM422 653q0 -21 -8 -39.5t-22.5 -31.5t-33 -20.5
t-39.5 -7.5q-40 0 -67.5 26t-27.5 66q0 21 8 39.5t22.5 31.5t33 20.5t39.5 7.5q40 0 67.5 -25.5t27.5 -66.5zM122 125q0 -29 21 -45t59 -16q29 0 56 10t48 27.5t35 41t18 51.5l5 35l-133 -17q-51 -7 -80 -30t-29 -57zM365 651q0 17 -11.5 29t-28.5 12q-16 0 -30 -12t-14 -32
q0 -17 11.5 -29t28.5 -12q16 0 30 12.5t14 31.5z" />
    <glyph glyph-name="aacute.alt" horiz-adv-x="522" 
d="M413 0h-81l10 62q-29 -35 -72 -54t-91 -19q-67 0 -105.5 35t-38.5 97q0 68 49 110.5t140 53.5l151 18l4 27q6 39 -21 65t-75 26q-81 0 -122 -86l-76 31q28 63 81.5 97t125.5 34q43 0 77.5 -12.5t57 -35.5t32 -55t3.5 -70zM122 125q0 -29 21 -45t59 -16q29 0 56 10
t48 27.5t35 41t18 51.5l5 35l-133 -17q-51 -7 -80 -30t-29 -57zM264 577l112 139h105l-130 -139h-87z" />
    <glyph glyph-name="abreve.alt" horiz-adv-x="522" 
d="M413 0h-81l10 62q-29 -35 -72 -54t-91 -19q-67 0 -105.5 35t-38.5 97q0 68 49 110.5t140 53.5l151 18l4 27q6 39 -21 65t-75 26q-81 0 -122 -86l-76 31q28 63 81.5 97t125.5 34q43 0 77.5 -12.5t57 -35.5t32 -55t3.5 -70zM122 125q0 -29 21 -45t59 -16q29 0 56 10
t48 27.5t35 41t18 51.5l5 35l-133 -17q-51 -7 -80 -30t-29 -57zM324 637q29 0 48.5 20t24.5 53h67q-5 -59 -44.5 -96t-99.5 -37q-30 0 -53.5 10t-40 27.5t-24.5 42t-6 53.5h67q0 -33 16 -53t45 -20z" />
    <glyph glyph-name="acircumflex.alt" horiz-adv-x="522" 
d="M413 0h-81l10 62q-29 -35 -72 -54t-91 -19q-67 0 -105.5 35t-38.5 97q0 68 49 110.5t140 53.5l151 18l4 27q6 39 -21 65t-75 26q-81 0 -122 -86l-76 31q28 63 81.5 97t125.5 34q43 0 77.5 -12.5t57 -35.5t32 -55t3.5 -70zM122 125q0 -29 21 -45t59 -16q29 0 56 10
t48 27.5t35 41t18 51.5l5 35l-133 -17q-51 -7 -80 -30t-29 -57zM169 577l132 139h68l90 -139h-87l-46 72l-68 -72h-89z" />
    <glyph glyph-name="adieresis.alt" horiz-adv-x="522" 
d="M413 0h-81l10 62q-29 -35 -72 -54t-91 -19q-67 0 -105.5 35t-38.5 97q0 68 49 110.5t140 53.5l151 18l4 27q6 39 -21 65t-75 26q-81 0 -122 -86l-76 31q28 63 81.5 97t125.5 34q43 0 77.5 -12.5t57 -35.5t32 -55t3.5 -70zM122 125q0 -29 21 -45t59 -16q29 0 56 10
t48 27.5t35 41t18 51.5l5 35l-133 -17q-51 -7 -80 -30t-29 -57zM281 628q0 -22 -15.5 -37.5t-37.5 -15.5t-37 15.5t-15 36.5q0 22 15.5 37.5t37.5 15.5t37 -15.5t15 -36.5zM462 628q0 -22 -15.5 -37.5t-37.5 -15.5t-37 15.5t-15 36.5q0 22 15.5 37.5t37.5 15.5t37 -15.5
t15 -36.5z" />
    <glyph glyph-name="adieresisalt.square" horiz-adv-x="522" 
d="M413 0h-81l10 62q-29 -35 -72 -54t-91 -19q-67 0 -105.5 35t-38.5 97q0 68 49 110.5t140 53.5l151 18l4 27q6 39 -21 65t-75 26q-81 0 -122 -86l-76 31q28 63 81.5 97t125.5 34q43 0 77.5 -12.5t57 -35.5t32 -55t3.5 -70zM122 125q0 -29 21 -45t59 -16q29 0 56 10
t48 27.5t35 41t18 51.5l5 35l-133 -17q-51 -7 -80 -30t-29 -57zM180 580l15 100h85l-15 -100h-85zM361 580l15 100h85l-15 -100h-85z" />
    <glyph glyph-name="agrave.alt" horiz-adv-x="522" 
d="M413 0h-81l10 62q-29 -35 -72 -54t-91 -19q-67 0 -105.5 35t-38.5 97q0 68 49 110.5t140 53.5l151 18l4 27q6 39 -21 65t-75 26q-81 0 -122 -86l-76 31q28 63 81.5 97t125.5 34q43 0 77.5 -12.5t57 -35.5t32 -55t3.5 -70zM122 125q0 -29 21 -45t59 -16q29 0 56 10
t48 27.5t35 41t18 51.5l5 35l-133 -17q-51 -7 -80 -30t-29 -57zM290 577l-91 139h99l71 -139h-79z" />
    <glyph glyph-name="amacron.alt" horiz-adv-x="522" 
d="M413 0h-81l10 62q-29 -35 -72 -54t-91 -19q-67 0 -105.5 35t-38.5 97q0 68 49 110.5t140 53.5l151 18l4 27q6 39 -21 65t-75 26q-81 0 -122 -86l-76 31q28 63 81.5 97t125.5 34q43 0 77.5 -12.5t57 -35.5t32 -55t3.5 -70zM122 125q0 -29 21 -45t59 -16q29 0 56 10
t48 27.5t35 41t18 51.5l5 35l-133 -17q-51 -7 -80 -30t-29 -57zM182 598l9 58h268l-9 -58h-268z" />
    <glyph glyph-name="aogonek.alt" horiz-adv-x="522" 
d="M413 0q-24 -9 -45 -21.5t-37.5 -26t-26 -29t-9.5 -30.5q0 -17 11 -26t31 -9q13 0 26 3.5t25 12.5l-9 -62q-30 -16 -66 -16q-44 0 -67.5 21.5t-23.5 59.5q0 77 110 125l10 60q-29 -35 -72 -54t-91 -19q-67 0 -105.5 35t-38.5 97q0 68 49 110.5t140 53.5l151 18l4 27
q6 39 -21 65t-75 26q-81 0 -122 -86l-76 31q28 63 81.5 97t125.5 34q43 0 77.5 -12.5t57 -35.5t32 -55t3.5 -70zM122 125q0 -29 21 -45t59 -16q29 0 56 10t48 27.5t35 41t18 51.5l5 35l-133 -17q-51 -7 -80 -30t-29 -57z" />
    <glyph glyph-name="atilde.alt" horiz-adv-x="522" 
d="M413 0h-81l10 62q-29 -35 -72 -54t-91 -19q-67 0 -105.5 35t-38.5 97q0 68 49 110.5t140 53.5l151 18l4 27q6 39 -21 65t-75 26q-81 0 -122 -86l-76 31q28 63 81.5 97t125.5 34q43 0 77.5 -12.5t57 -35.5t32 -55t3.5 -70zM122 125q0 -29 21 -45t59 -16q29 0 56 10
t48 27.5t35 41t18 51.5l5 35l-133 -17q-51 -7 -80 -30t-29 -57zM155 588q5 55 32.5 79t65.5 24q25 0 43 -7.5t32 -17t26.5 -17t27.5 -7.5q20 0 29.5 13t11.5 33h59q-4 -56 -32 -79.5t-66 -23.5q-25 0 -43 7.5t-32 17t-26.5 17t-27.5 7.5q-20 0 -29.5 -13t-11.5 -33h-59z" />
    <glyph glyph-name="tbar.alt" horiz-adv-x="308" 
d="M70 0l34 230h-84l11 75h84l16 104h-87l12 77h87l21 146h86l-21 -146h100l-12 -77h-100l-16 -104h103l-11 -75h-103l-34 -230h-86z" />
    <glyph glyph-name="tcaron.alt" horiz-adv-x="308" 
d="M299 548l51 163h90l-66 -163h-75zM70 0l61 409h-87l12 77h87l21 146h86l-21 -146h100l-12 -77h-100l-61 -409h-86z" />
    <glyph glyph-name="tcommaaccent.alt" horiz-adv-x="308" 
d="M43 -218l42 69q-18 1 -29 13t-11 31q0 23 17 38t41 15q21 0 37 -13.5t16 -36.5q0 -13 -6.5 -25.5t-14.5 -26.5l-39 -64h-53zM70 0l61 409h-87l12 77h87l21 146h86l-21 -146h100l-12 -77h-100l-61 -409h-86z" />
    <glyph glyph-name="tcommaaccentalt.square" horiz-adv-x="308" 
d="M61 -55h88l-14 -96q-6 -43 -28 -60.5t-54 -17.5q-6 0 -9.5 0.5t-6.5 1.5l7 43q4 -1 8 -1q11 0 20.5 7.5t11.5 21.5l1 7h-38zM70 0l61 409h-87l12 77h87l21 146h86l-21 -146h100l-12 -77h-100l-61 -409h-86z" />
    <glyph glyph-name="uacute.alt" horiz-adv-x="562" 
d="M275 577l112 139h105l-130 -139h-87zM255 -11q-102 0 -151.5 60t-33.5 168l40 269h86l-40 -268q-11 -70 16.5 -109t87.5 -39q56 0 93 40t47 108l40 268h86l-41 -273q-16 -106 -76 -165t-154 -59z" />
    <glyph glyph-name="ubreve.alt" horiz-adv-x="562" 
d="M341 637q29 0 48.5 20t24.5 53h67q-5 -59 -44.5 -96t-99.5 -37q-30 0 -53.5 10t-40 27.5t-24.5 42t-6 53.5h67q0 -33 16 -53t45 -20zM255 -11q-102 0 -151.5 60t-33.5 168l40 269h86l-40 -268q-11 -70 16.5 -109t87.5 -39q56 0 93 40t47 108l40 268h86l-41 -273
q-16 -106 -76 -165t-154 -59z" />
    <glyph glyph-name="ucircumflex.alt" horiz-adv-x="562" 
d="M186 577l132 139h68l90 -139h-87l-46 72l-68 -72h-89zM255 -11q-102 0 -151.5 60t-33.5 168l40 269h86l-40 -268q-11 -70 16.5 -109t87.5 -39q56 0 93 40t47 108l40 268h86l-41 -273q-16 -106 -76 -165t-154 -59z" />
    <glyph glyph-name="udieresis.alt" horiz-adv-x="562" 
d="M296 628q0 -22 -15.5 -37.5t-37.5 -15.5t-37 15.5t-15 36.5q0 22 15.5 37.5t37.5 15.5t37 -15.5t15 -36.5zM477 628q0 -22 -15.5 -37.5t-37.5 -15.5t-37 15.5t-15 36.5q0 22 15.5 37.5t37.5 15.5t37 -15.5t15 -36.5zM255 -11q-102 0 -151.5 60t-33.5 168l40 269h86
l-40 -268q-11 -70 16.5 -109t87.5 -39q56 0 93 40t47 108l40 268h86l-41 -273q-16 -106 -76 -165t-154 -59z" />
    <glyph glyph-name="udieresisalt.square" horiz-adv-x="562" 
d="M195 580l15 100h85l-15 -100h-85zM376 580l15 100h85l-15 -100h-85zM255 -11q-102 0 -151.5 60t-33.5 168l40 269h86l-40 -268q-11 -70 16.5 -109t87.5 -39q56 0 93 40t47 108l40 268h86l-41 -273q-16 -106 -76 -165t-154 -59z" />
    <glyph glyph-name="ugrave.alt" horiz-adv-x="562" 
d="M303 577l-91 139h99l71 -139h-79zM255 -11q-102 0 -151.5 60t-33.5 168l40 269h86l-40 -268q-11 -70 16.5 -109t87.5 -39q56 0 93 40t47 108l40 268h86l-41 -273q-16 -106 -76 -165t-154 -59z" />
    <glyph glyph-name="uhungarumlaut.alt" horiz-adv-x="562" 
d="M202 572l105 139h96l-122 -139h-79zM363 572l105 139h95l-121 -139h-79zM255 -11q-102 0 -151.5 60t-33.5 168l40 269h86l-40 -268q-11 -70 16.5 -109t87.5 -39q56 0 93 40t47 108l40 268h86l-41 -273q-16 -106 -76 -165t-154 -59z" />
    <glyph glyph-name="umacron.alt" horiz-adv-x="562" 
d="M255 -11q-102 0 -151.5 60t-33.5 168l40 269h86l-40 -268q-11 -70 16.5 -109t87.5 -39q56 0 93 40t47 108l40 268h86l-41 -273q-16 -106 -76 -165t-154 -59zM199 598l9 58h268l-9 -58h-268z" />
    <glyph glyph-name="uogonek.alt" horiz-adv-x="562" 
d="M158 -123q0 33 18.5 60.5t53.5 52.5q-90 8 -132.5 67t-27.5 160l40 269h86l-40 -268q-11 -70 16.5 -109t87.5 -39q56 0 93 40t47 108l40 268h86l-41 -273q-12 -81 -49.5 -133t-95.5 -78q-22 -10 -42 -22t-35 -26.5t-23.5 -29.5t-8.5 -31q0 -17 11 -26t31 -9q13 0 26 3.5
t25 12.5l-9 -62q-30 -16 -66 -16q-44 0 -67.5 21.5t-23.5 59.5z" />
    <glyph glyph-name="uring.alt" horiz-adv-x="562" 
d="M440 653q0 -21 -8 -39.5t-22.5 -31.5t-33 -20.5t-39.5 -7.5q-40 0 -67.5 26t-27.5 66q0 21 8 39.5t22.5 31.5t33 20.5t39.5 7.5q40 0 67.5 -25.5t27.5 -66.5zM383 651q0 17 -11.5 29t-28.5 12q-16 0 -30 -12t-14 -32q0 -17 11.5 -29t28.5 -12q16 0 30 12.5t14 31.5z
M255 -11q-102 0 -151.5 60t-33.5 168l40 269h86l-40 -268q-11 -70 16.5 -109t87.5 -39q56 0 93 40t47 108l40 268h86l-41 -273q-16 -106 -76 -165t-154 -59z" />
    <glyph glyph-name="utilde.alt" horiz-adv-x="562" 
d="M175 588q5 55 32.5 79t65.5 24q25 0 43 -7.5t32 -17t26.5 -17t27.5 -7.5q20 0 29.5 13t11.5 33h59q-4 -56 -32 -79.5t-66 -23.5q-25 0 -43 7.5t-32 17t-26.5 17t-27.5 7.5q-20 0 -29.5 -13t-11.5 -33h-59zM255 -11q-102 0 -151.5 60t-33.5 168l40 269h86l-40 -268
q-11 -70 16.5 -109t87.5 -39q56 0 93 40t47 108l40 268h86l-41 -273q-16 -106 -76 -165t-154 -59z" />
    <glyph glyph-name="ordfeminine.alt" horiz-adv-x="415" 
d="M363 299h-70l7 46q-22 -26 -54.5 -40t-68.5 -14q-52 0 -80.5 26.5t-28.5 72.5q0 53 37.5 86t106.5 41l114 12l3 19q4 26 -14.5 42.5t-50.5 16.5q-30 0 -52.5 -12.5t-36.5 -41.5l-65 20q19 48 59 74t94 26q71 0 108 -36t28 -93zM140 396q0 -19 16 -30t43 -11q21 0 40.5 7
t35 19.5t25.5 29t13 35.5l3 23l-96 -10q-36 -4 -58 -21.5t-22 -41.5z" />
    <glyph glyph-name="a.superior" horiz-adv-x="489" 
d="M247 291q-38 0 -69.5 13t-54.5 36.5t-35.5 55.5t-12.5 71q0 43 15.5 80.5t42.5 65.5t63.5 44t78.5 16t76 -16t54 -45l9 53h73l-55 -366h-73l8 49q-22 -28 -53.5 -42.5t-66.5 -14.5zM259 358q27 0 50.5 10.5t41.5 29t28 43t10 52.5q0 49 -31 81t-79 32q-27 0 -51 -11
t-42 -29t-28.5 -42.5t-10.5 -51.5q0 -24 8.5 -45t23.5 -36.5t35.5 -24t44.5 -8.5z" />
    <glyph glyph-name="b.superior" horiz-adv-x="489" 
d="M320 673q38 0 69.5 -13t54 -36.5t35 -55.5t12.5 -71q0 -43 -15.5 -80.5t-42.5 -65.5t-63.5 -44t-78.5 -16t-76 17.5t-54 46.5l-9 -56h-73l78 525h73l-31 -207q21 26 53.5 41t67.5 15zM307 606q-27 0 -50.5 -10.5t-41.5 -29t-28 -43t-10 -52.5q0 -49 31 -81t79 -32
q27 0 51 11t42 29t28.5 42.5t10.5 51.5q0 24 -8.5 45t-23.5 36.5t-35.5 24t-44.5 8.5z" />
    <glyph glyph-name="c.superior" horiz-adv-x="373" 
d="M75 463q0 44 16 82t44 66.5t65.5 45t81.5 16.5q31 0 61.5 -9.5t53.5 -28.5l-11 -69q-23 19 -49 30t-56 11q-28 0 -52.5 -11t-42.5 -30t-28 -44t-10 -53q0 -24 8.5 -44.5t23.5 -35.5t35.5 -23.5t44.5 -8.5q26 0 52.5 9.5t49.5 22.5l-10 -71q-22 -13 -45.5 -20t-49.5 -7
q-38 0 -71.5 12.5t-58 35t-38.5 54.5t-14 70z" />
    <glyph glyph-name="d.superior" horiz-adv-x="489" 
d="M247 291q-38 0 -69.5 13t-54.5 36.5t-35.5 55.5t-12.5 71q0 43 15.5 80.5t42.5 65.5t63.5 44t78.5 16t76 -16t54 -45l32 212h73l-78 -525h-73l8 49q-22 -28 -53.5 -42.5t-66.5 -14.5zM259 358q27 0 50.5 10.5t41.5 29t28 43t10 52.5q0 49 -31 81t-79 32q-27 0 -51 -11
t-42 -29t-28.5 -42.5t-10.5 -51.5q0 -24 8.5 -45t23.5 -36.5t35.5 -24t44.5 -8.5z" />
    <glyph glyph-name="e.superior" horiz-adv-x="434" 
d="M253 353q40 0 64 18.5t43 43.5l54 -32q-25 -41 -68 -66.5t-98 -25.5q-37 0 -68.5 12.5t-55 35.5t-36.5 55t-13 70q0 42 14.5 80t41 66.5t63 45.5t80.5 17q36 0 66.5 -13t53 -35.5t35 -54t12.5 -67.5q0 -9 -1.5 -21t-3.5 -22h-292q0 -24 9 -43.5t24 -33.5t35 -22t41 -8z
M269 612q-16 0 -34 -5.5t-34 -17t-29.5 -29.5t-20.5 -43h223q-2 42 -31.5 68.5t-73.5 26.5z" />
    <glyph glyph-name="f.superior" horiz-adv-x="271" 
d="M145 665l6 41q9 61 48 94.5t97 33.5q17 0 32.5 -3t27.5 -8l-9 -64q-11 4 -21.5 6.5t-27.5 2.5q-31 0 -50.5 -19t-24.5 -52l-5 -32h103l-10 -64h-102l-45 -302h-73l44 302h-56l10 64h56z" />
    <glyph glyph-name="g.superior" horiz-adv-x="485" 
d="M363 355q-22 -26 -52.5 -39t-65.5 -13q-36 0 -67 13t-53.5 35.5t-35 54t-12.5 68.5q0 41 15.5 77.5t42 63.5t62.5 42.5t78 15.5t74 -17t52 -46l8 55h73l-53 -352q-6 -39 -21.5 -72t-41 -56.5t-61 -37t-80.5 -13.5q-53 0 -100 25.5t-71 78.5l63 32q15 -35 44 -53t65 -18
q60 0 91 34.5t40 87.5zM259 368q26 0 49 10.5t40.5 28.5t27.5 41.5t10 49.5q0 48 -30.5 78t-78.5 30q-26 0 -49 -10.5t-40.5 -28t-28 -41t-10.5 -48.5q0 -48 31 -79t79 -31z" />
    <glyph glyph-name="h.superior" horiz-adv-x="467" 
d="M152 299h-73l78 525h73l-31 -210q20 26 50 42.5t71 16.5q72 0 105 -43.5t22 -118.5l-31 -212h-73l32 209q8 48 -11.5 73t-64.5 25t-78 -32.5t-41 -85.5z" />
    <glyph glyph-name="i.superior" horiz-adv-x="205" 
d="M231 773q0 -20 -14 -34t-34 -14t-33 13.5t-13 32.5q0 20 14 34t34 14t33 -13.5t13 -32.5zM77 299l55 366h74l-55 -366h-74z" />
    <glyph glyph-name="j.superior" horiz-adv-x="185" 
d="M212 773q0 -20 -14 -34t-34 -14t-33 13.5t-13 32.5q0 20 14 34t34 14t33 -13.5t13 -32.5zM126 264q-10 -65 -44 -97t-86 -32q-15 0 -27.5 3t-24.5 8l10 62q13 -7 33 -7q26 0 44 17.5t23 48.5l59 398h73z" />
    <glyph glyph-name="k.superior" horiz-adv-x="406" 
d="M449 665l-192 -159l148 -207h-87l-117 169l-28 -21l-22 -148h-72l78 525h72l-45 -298l169 139h96z" />
    <glyph glyph-name="l.superior" horiz-adv-x="209" 
d="M230 824l-78 -525h-73l78 525h73z" />
    <glyph glyph-name="m.superior" horiz-adv-x="688" 
d="M152 299h-73l55 366h72l-8 -47q20 26 49 40.5t64 14.5q42 0 67.5 -18.5t36.5 -51.5q18 25 52.5 47.5t84.5 22.5q67 0 97.5 -43t19.5 -113l-33 -218h-73l32 211q7 45 -9.5 70.5t-58.5 25.5q-39 0 -67 -29t-36 -80l-30 -198h-73l31 207q7 47 -9.5 73.5t-57.5 26.5
q-40 0 -68 -30.5t-36 -83.5z" />
    <glyph glyph-name="o.superior" horiz-adv-x="459" 
d="M257 358q27 0 51 11t41.5 29.5t27.5 43.5t10 52q0 23 -8 43.5t-22.5 35.5t-34.5 24t-44 9q-28 0 -51.5 -11t-41 -29.5t-27.5 -43t-10 -51.5q0 -23 8 -43.5t22 -36t34.5 -24.5t44.5 -9zM460 498q0 -43 -15.5 -80.5t-43.5 -65.5t-65.5 -44.5t-80.5 -16.5q-39 0 -72 13.5
t-57 37t-37.5 55.5t-13.5 70q0 42 16 79.5t43.5 65.5t65.5 44.5t82 16.5q38 0 70.5 -13t56.5 -36.5t37.5 -55.5t13.5 -70z" />
    <glyph glyph-name="p.superior" horiz-adv-x="489" 
d="M207 665l-8 -51q20 28 53 43.5t68 15.5q38 0 69.5 -13t54 -36.5t35 -55.5t12.5 -71q0 -43 -15.5 -80.5t-42.5 -65.5t-63.5 -44t-78.5 -16t-76 17.5t-54 46.5l-32 -211h-73l78 521h73zM307 606q-27 0 -50.5 -10.5t-41.5 -29t-28 -43t-10 -52.5q0 -49 31 -81t79 -32
q27 0 51 11t42 29t28.5 42.5t10.5 51.5q0 24 -8.5 45t-23.5 36.5t-35.5 24t-44.5 8.5z" />
    <glyph glyph-name="q.superior" horiz-adv-x="489" 
d="M247 291q-38 0 -69.5 13t-54.5 36.5t-35.5 55.5t-12.5 71q0 43 15.5 80.5t42.5 65.5t63.5 44t78.5 16t76 -16t54 -45l9 53h73l-78 -521h-73l31 204q-22 -28 -53.5 -42.5t-66.5 -14.5zM259 358q27 0 50.5 10.5t41.5 29t28 43t10 52.5q0 49 -31 81t-79 32q-27 0 -51 -11
t-42 -29t-28.5 -42.5t-10.5 -51.5q0 -24 8.5 -45t23.5 -36.5t35.5 -24t44.5 -8.5z" />
    <glyph glyph-name="r.superior" horiz-adv-x="284" 
d="M323 596q-2 0 -5 1q-2 0 -5.5 0.5t-6.5 0.5q-32 0 -54.5 -12t-38.5 -33t-26 -50.5t-15 -64.5l-21 -139h-72l55 366h71l-9 -59q19 29 51 47t66 18q9 0 15 -0.5t6 -1.5z" />
    <glyph glyph-name="s.superior" horiz-adv-x="349" 
d="M267 400q0 26 -42 48l-42 22q-36 19 -52.5 44t-16.5 54q0 22 9 41.5t25.5 33.5t39 22t49.5 8q48 0 80 -24.5t46 -68.5l-62 -22q-8 26 -25.5 40.5t-40.5 14.5q-21 0 -36 -11.5t-15 -27.5q0 -26 40 -47l40 -21q38 -20 56 -45.5t18 -55.5q0 -50 -37 -82t-97 -32
q-53 0 -89.5 28t-47.5 76l64 20q7 -29 27 -45.5t49 -16.5q26 0 43 13t17 34z" />
    <glyph glyph-name="t.superior" horiz-adv-x="281" 
d="M232 774l-16 -109h102l-10 -64h-102l-27 -182q-9 -61 50 -61q25 0 44 11l-10 -68q-10 -5 -24 -7.5t-34 -2.5q-56 0 -82 33t-18 88l28 189h-56l10 64h56l16 109h73z" />
    <glyph glyph-name="u.superior" horiz-adv-x="464" 
d="M389 665h73l-55 -366h-73l8 51q-20 -26 -49.5 -42.5t-70.5 -16.5q-72 0 -104.5 44t-21.5 119l31 211h73l-32 -209q-8 -48 11.5 -73t63.5 -25q45 0 77.5 32.5t40.5 85.5z" />
    <glyph glyph-name="v.superior" horiz-adv-x="401" 
d="M81 665h76l68 -268l147 268h78l-209 -366h-61z" />
    <glyph glyph-name="w.superior" horiz-adv-x="614" 
d="M411 299l-55 262l-133 -262h-57l-82 366h73l54 -264l133 264h53l56 -264l132 264h75l-192 -366h-57z" />
    <glyph glyph-name="x.superior" horiz-adv-x="398" 
d="M231 433l-118 -134h-86l168 190l-103 176h81l72 -126l110 126h87l-160 -181l107 -185h-81z" />
    <glyph glyph-name="y.superior" horiz-adv-x="404" 
d="M76 135q-15 0 -27.5 3.5t-20.5 8.5l9 60q7 -3 15 -5t19 -2q23 0 40.5 15.5t36.5 48.5l27 47l-93 354h76l67 -275l152 275h77l-214 -373q-26 -44 -44.5 -74t-36.5 -48.5t-37.5 -26.5t-45.5 -8z" />
    <glyph glyph-name="z.superior" horiz-adv-x="353" 
d="M386 621l-243 -260h207l-9 -62h-307l7 45l241 258h-190l10 63h291z" />
    <glyph glyph-name="aalt.superior" horiz-adv-x="415" 
d="M363 299h-70l7 46q-22 -26 -54.5 -40t-68.5 -14q-52 0 -80.5 26.5t-28.5 72.5q0 53 37.5 86t106.5 41l114 12l3 19q4 26 -14.5 42.5t-50.5 16.5q-30 0 -52.5 -12.5t-36.5 -41.5l-65 20q19 48 59 74t94 26q71 0 108 -36t28 -93zM140 396q0 -19 16 -30t43 -11q21 0 40.5 7
t35 19.5t25.5 29t13 35.5l3 23l-96 -10q-36 -4 -58 -21.5t-22 -41.5z" />
    <glyph glyph-name="talt.superior" horiz-adv-x="243" 
d="M93 299l45 302h-65l10 64h65l16 109h73l-16 -109h75l-10 -64h-75l-45 -302h-73z" />
    <glyph glyph-name="ualt.superior" horiz-adv-x="446" 
d="M239 291q-78 0 -115.5 45.5t-25.5 126.5l30 202h72l-30 -202q-8 -49 11.5 -76.5t62.5 -27.5q40 0 67 28.5t34 75.5l30 202h74l-31 -207q-12 -81 -59.5 -124t-119.5 -43z" />
    <glyph glyph-name="isquare.superior" horiz-adv-x="205" 
d="M140 730l13 85h74l-13 -85h-74zM77 299l55 366h74l-55 -366h-74z" />
    <glyph glyph-name="jsquare.superior" horiz-adv-x="185" 
d="M126 264q-10 -65 -44 -97t-86 -32q-15 0 -27.5 3t-24.5 8l10 62q13 -7 33 -7q26 0 44 17.5t23 48.5l59 398h73zM122 730l12 85h74l-12 -85h-74z" />
    <glyph glyph-name="caronSlovak" horiz-adv-x="500" 
d="M237 548l51 163h90l-66 -163h-75z" />
    <glyph glyph-name="commaaccent.square" horiz-adv-x="500" 
d="M159 -55h88l-14 -96q-6 -43 -28 -60.5t-54 -17.5q-6 0 -9.5 0.5t-6.5 1.5l7 43q4 -1 8 -1q11 0 20.5 7.5t11.5 21.5l1 7h-38z" />
    <glyph glyph-name="dieresis.square" horiz-adv-x="500" 
d="M168 580l15 100h85l-15 -100h-85zM349 580l15 100h85l-15 -100h-85z" />
    <glyph glyph-name="dotaccent.square" horiz-adv-x="500" 
d="M257 577l16 105h86l-16 -105h-86z" />
    <glyph glyph-name="uni0312.square" horiz-adv-x="500" 
d="M341 568h-88l14 96q6 43 28 60.5t54 17.5q6 0 9.5 -0.5t6.5 -1.5l-7 -43q-4 1 -8 1q-11 0 -20.5 -7.5t-11.5 -21.5l-1 -7h38z" />
    <glyph glyph-name="acute.cap" horiz-adv-x="500" 
d="M228 756l112 139h105l-130 -139h-87z" />
    <glyph glyph-name="breve.cap" horiz-adv-x="500" 
d="M342 819q29 0 48.5 20t24.5 53h67q-5 -59 -44.5 -96t-99.5 -37q-30 0 -53.5 10t-40 27.5t-24.5 42t-6 53.5h67q0 -33 16 -53t45 -20z" />
    <glyph glyph-name="caron.cap" horiz-adv-x="500" 
d="M493 895l-132 -139h-68l-90 139h87l46 -72l68 72h89z" />
    <glyph glyph-name="circumflex.cap" horiz-adv-x="500" 
d="M182 756l132 139h68l90 -139h-87l-46 72l-68 -72h-89z" />
    <glyph glyph-name="dieresis.cap" horiz-adv-x="500" 
d="M299 826q0 -22 -15.5 -37.5t-37.5 -15.5t-37 15.5t-15 36.5q0 22 15.5 37.5t37.5 15.5t37 -15.5t15 -36.5zM480 826q0 -22 -15.5 -37.5t-37.5 -15.5t-37 15.5t-15 36.5q0 22 15.5 37.5t37.5 15.5t37 -15.5t15 -36.5z" />
    <glyph glyph-name="dieresiscap.square" horiz-adv-x="500" 
d="M197 775l15 100h85l-15 -100h-85zM378 775l15 100h85l-15 -100h-85z" />
    <glyph glyph-name="dotaccent.cap" horiz-adv-x="500" 
d="M393 828q0 -24 -17 -40.5t-40 -16.5t-39 16t-16 39q0 24 17 40.5t40 16.5t39 -16t16 -39z" />
    <glyph glyph-name="dotaccentcap.square" horiz-adv-x="500" 
d="M287 775l15 101h86l-15 -101h-86z" />
    <glyph glyph-name="grave.cap" horiz-adv-x="500" 
d="M344 756l-91 139h99l71 -139h-79z" />
    <glyph glyph-name="hungarumlaut.cap" horiz-adv-x="500" 
d="M154 756l105 139h96l-122 -139h-79zM315 756l105 139h95l-121 -139h-79z" />
    <glyph glyph-name="macron.cap" horiz-adv-x="500" 
d="M197 780l9 58h268l-9 -58h-268z" />
    <glyph glyph-name="ring.cap" horiz-adv-x="500" 
d="M437 838q0 -21 -8 -39.5t-22.5 -33t-33.5 -22.5t-41 -8q-40 0 -66.5 25t-26.5 63q0 21 8.5 39.5t22.5 33t33.5 22.5t41.5 8q39 0 65.5 -25t26.5 -63zM380 834q0 17 -11 28t-28 11q-19 0 -32 -13.5t-13 -32.5q0 -17 11 -28t28 -11q19 0 32 13.5t13 32.5z" />
    <glyph glyph-name="tilde.cap" horiz-adv-x="500" 
d="M171 769q5 55 32.5 79t65.5 24q25 0 43 -7.5t32 -17t26.5 -17t27.5 -7.5q20 0 29.5 13t11.5 33h59q-4 -56 -32 -79.5t-66 -23.5q-25 0 -43 7.5t-32 17t-26.5 17t-27.5 7.5q-20 0 -29.5 -13t-11.5 -33h-59v0z" />
    <glyph glyph-name="period.square" horiz-adv-x="253" 
d="M40 0l16 109h101l-16 -109h-101z" />
    <glyph glyph-name="comma.square" horiz-adv-x="252" 
d="M56 109h101l-19 -125q-8 -52 -33.5 -74t-61.5 -22q-8 0 -18 2l7 49q5 -1 9 -1q13 0 25 11.5t15 30.5l3 20h-44z" />
    <glyph glyph-name="colon.square" horiz-adv-x="253" 
d="M40 0l16 109h101l-16 -109h-101zM94 358l16 109h101l-16 -109h-101z" />
    <glyph glyph-name="semicolon.square" horiz-adv-x="252" 
d="M93 358l16 109h101l-16 -109h-101zM56 109h101l-19 -125q-8 -52 -33.5 -74t-61.5 -22q-8 0 -18 2l7 49q5 -1 9 -1q13 0 25 11.5t15 30.5l3 20h-44z" />
    <glyph glyph-name="ellipsis.square" horiz-adv-x="837" 
d="M40 0l16 109h101l-16 -109h-101zM624 0l16 109h101l-16 -109h-101zM333 0l16 109h100l-16 -109h-100z" />
    <glyph glyph-name="exclamdown.cap" horiz-adv-x="262" 
d="M49 0l82 505h78l-67 -505h-93zM130 649q0 26 18 44t44 18q25 0 42 -17.5t17 -41.5q0 -26 -18 -44t-44 -18q-25 0 -42 17.5t-17 41.5z" />
    <glyph glyph-name="questiondown.cap" horiz-adv-x="525" 
d="M353 500l-4 -30q-5 -36 -35 -75.5t-82 -77.5q-48 -34 -74.5 -66.5t-26.5 -67.5q0 -23 9 -43t24.5 -34.5t37 -23t46.5 -8.5q28 0 53 10.5t44 28.5t31 42.5t14 53.5h87q-3 -47 -21.5 -87.5t-49.5 -69.5t-72 -45.5t-88 -16.5q-44 0 -81.5 14t-64.5 38t-42.5 57t-15.5 72
q0 52 25.5 96.5t88.5 93.5q14 11 31 24t32.5 27.5t26.5 30.5t13 34l3 23h91zM260 644q0 26 18 44t44 18q25 0 42 -17.5t17 -41.5q0 -26 -18 -44t-44 -18q-25 0 -42 17.5t-17 41.5z" />
    <glyph glyph-name="exclam.square" horiz-adv-x="261" 
d="M159 106l-16 -106h-97l16 106h97zM246 700l-85 -503h-75l67 503h93z" />
    <glyph glyph-name="exclamdown.square" horiz-adv-x="261" 
d="M18 -208l83 498h75l-65 -498h-93zM217 485l-16 -106h-97l16 106h97z" />
    <glyph glyph-name="exclamdowncap.square" horiz-adv-x="262" 
d="M249 700l-16 -106h-97l16 106h97zM49 0l84 505h75l-66 -505h-93z" />
    <glyph glyph-name="question.square" horiz-adv-x="525" 
d="M437 519q0 23 -9 43t-24.5 34.5t-37 23t-46.5 8.5q-28 0 -53 -10.5t-44 -28.5t-31 -42.5t-14 -53.5h-87q3 47 21.5 87t49.5 69.5t72 46t88 16.5q44 0 81.5 -14t64.5 -38t42.5 -57t15.5 -72q0 -52 -25.5 -96.5t-88.5 -93.5q-14 -11 -31 -24t-32.5 -27.5t-26.5 -30.5
t-14 -34l-4 -28h-91l5 35q5 36 35.5 75.5t82.5 77.5q48 34 74.5 66.5t26.5 67.5zM296 106l-16 -106h-98l16 106h98z" />
    <glyph glyph-name="questiondown.square" horiz-adv-x="514" 
d="M322 290l-4 -29q-5 -36 -35.5 -75.5t-82.5 -77.5q-48 -34 -74.5 -66.5t-26.5 -67.5q0 -23 9 -43t24.5 -34.5t37 -23t46.5 -8.5q28 0 53 10.5t44 28.5t31 42.5t14 53.5h87q-3 -47 -21.5 -87.5t-49.5 -69.5t-72 -45.5t-88 -16.5q-44 0 -81.5 14t-64.5 38t-42.5 57t-15.5 72
q0 52 25.5 96.5t88.5 93.5q14 11 31 24t32.5 27.5t26.5 30.5t14 34l3 22h91zM352 485l-15 -106h-98l15 106h98z" />
    <glyph glyph-name="questiondowncap.square" horiz-adv-x="525" 
d="M354 505l-5 -35q-5 -36 -35 -75.5t-82 -77.5q-48 -34 -74.5 -66.5t-26.5 -67.5q0 -23 9 -43t24.5 -34.5t37 -23t46.5 -8.5q28 0 53 10.5t44 28.5t31 42.5t14 53.5h87q-3 -47 -21.5 -87.5t-49.5 -69.5t-72 -45.5t-88 -16.5q-44 0 -81.5 14t-64.5 38t-42.5 57t-15.5 72
q0 52 25.5 96.5t88.5 93.5q14 11 31 24t32 27.5t26 30.5t14 34l4 28h91zM384 700l-16 -106h-98l16 106h98z" />
    <glyph glyph-name="reversequoteleft" horiz-adv-x="202" 
d="M143 503l-33 99q-3 9 -6 22t-3 27q0 26 18 43.5t44 17.5t43 -16t17 -40q0 -23 -16 -39t-37 -16h-6l33 -98h-54z" />
    <glyph glyph-name="reversequotedblleft" horiz-adv-x="363" 
d="M143 503l-33 99q-3 9 -6 22t-3 27q0 26 18 43.5t44 17.5t43 -16t17 -40q0 -23 -16 -39t-37 -16h-6l33 -98h-54zM304 503l-33 99q-3 9 -6 22t-3 27q0 26 18 43.5t44 17.5t43 -16t17 -40q0 -23 -16 -39t-37 -16h-6l33 -98h-54z" />
    <glyph glyph-name="quoteleft.square" horiz-adv-x="203" 
d="M189 492h-100l19 124q8 52 33.5 74t60.5 22q8 0 17 -2l-7 -49q-4 1 -9 1q-13 0 -24 -11.5t-14 -30.5l-3 -20h43z" />
    <glyph glyph-name="quoteright.square" horiz-adv-x="202" 
d="M121 700h99l-19 -124q-8 -52 -33.5 -74t-60.5 -22q-8 0 -17 2l7 49q4 -1 9 -1q13 0 24 11.5t14 30.5l3 20h-43z" />
    <glyph glyph-name="quotedblleft.square" horiz-adv-x="356" 
d="M189 492h-100l19 124q8 52 33.5 74t60.5 22q8 0 17 -2l-7 -49q-4 1 -9 1q-13 0 -24 -11.5t-14 -30.5l-3 -20h43zM342 492h-100l19 124q8 52 33.5 74t60.5 22q8 0 17 -2l-7 -49q-4 1 -9 1q-13 0 -24 -11.5t-14 -30.5l-3 -20h43z" />
    <glyph glyph-name="quotedblright.square" horiz-adv-x="355" 
d="M121 700h99l-19 -124q-8 -52 -33.5 -74t-60.5 -22q-8 0 -17 2l7 49q4 -1 9 -1q13 0 24 11.5t14 30.5l3 20h-43zM274 700h99l-19 -124q-8 -52 -33.5 -74t-60.5 -22q-8 0 -17 2l7 49q4 -1 9 -1q13 0 24 11.5t14 30.5l3 20h-43z" />
    <glyph glyph-name="quotesinglbase.square" horiz-adv-x="202" 
d="M33 108h99l-19 -124q-8 -52 -33.5 -74t-60.5 -22q-8 0 -17 2l7 49q4 -1 9 -1q13 0 24 11.5t14 30.5l3 20h-43z" />
    <glyph glyph-name="quotedblbase.square" horiz-adv-x="355" 
d="M33 108h99l-19 -124q-8 -52 -33.5 -74t-60.5 -22q-8 0 -17 2l7 49q4 -1 9 -1q13 0 24 11.5t14 30.5l3 20h-43zM186 108h99l-19 -124q-8 -52 -33.5 -74t-60.5 -22q-8 0 -17 2l7 49q4 -1 9 -1q13 0 24 11.5t14 30.5l3 20h-43z" />
    <glyph glyph-name="reversequoteleft.square" horiz-adv-x="201" 
d="M203 592h-44l-3 -20q-3 -19 5 -30t20 -11q6 0 10 1l-7 -50q-4 -1 -11 -1q-38 1 -59 28t-11 85l16 106h100z" />
    <glyph glyph-name="reversequotedblleft.square" horiz-adv-x="354" 
d="M203 592h-44l-3 -20q-3 -19 5 -30t20 -11q6 0 10 1l-7 -50q-4 -1 -11 -1q-38 1 -59 28t-11 85l16 106h100zM356 592h-44l-3 -20q-3 -19 5 -30t20 -11q6 0 10 1l-7 -50q-4 -1 -11 -1q-38 1 -59 28t-11 85l16 106h100z" />
    <glyph glyph-name="guilsinglleft.cap" horiz-adv-x="292" 
d="M54 348l163 199h90l-164 -204l103 -200h-88z" />
    <glyph glyph-name="guilsinglright.cap" horiz-adv-x="291" 
d="M263 341l-161 -198h-91l164 205l-102 199h86z" />
    <glyph glyph-name="guillemotleft.cap" horiz-adv-x="467" 
d="M54 348l163 199h90l-164 -204l103 -200h-88zM229 348l163 199h90l-164 -204l103 -200h-88z" />
    <glyph glyph-name="guillemotright.cap" horiz-adv-x="466" 
d="M263 341l-161 -198h-91l164 205l-102 199h86zM438 341l-161 -198h-91l164 205l-102 199h86z" />
    <glyph glyph-name="doublebar" horiz-adv-x="433" 
d="M36 -156l138 921h82l-138 -921h-82zM197 -156l138 921h82l-138 -921h-82z" />
    <glyph glyph-name="slash.cap" horiz-adv-x="449" 
d="M499 724l-428 -748h-89l429 748h88z" />
    <glyph glyph-name="backslash.cap" horiz-adv-x="449" 
d="M303 -24l-209 748h84l209 -748h-84z" />
    <glyph glyph-name="bar.cap" horiz-adv-x="272" 
d="M56 -24l112 748h82l-112 -748h-82z" />
    <glyph glyph-name="doublebar.cap" horiz-adv-x="433" 
d="M56 -24l112 748h82l-112 -748h-82zM217 -24l112 748h82l-112 -748h-82z" />
    <glyph glyph-name="brokenbar.cap" horiz-adv-x="272" 
d="M124 431l44 293h82l-44 -293h-82zM183 274l-45 -298h-82l45 298h82z" />
    <glyph glyph-name="bullet.cap" horiz-adv-x="286" 
d="M73 343q0 18 7.5 34t20.5 28.5t29 19.5t34 7t33.5 -6.5t27 -18t18 -27t6.5 -32.5q0 -37 -27 -63t-64 -26q-35 0 -60 25t-25 59z" />
    <glyph glyph-name="periodcentered.square" horiz-adv-x="253" 
d="M70 208l16 109h101l-16 -109h-101z" />
    <glyph glyph-name="periodcentered.cap" horiz-adv-x="252" 
d="M203 346q0 -26 -18 -44t-44 -18q-25 0 -42 17.5t-17 41.5q0 26 18 44t44 18q25 0 42 -17.5t17 -41.5z" />
    <glyph glyph-name="periodcenteredcap.square" horiz-adv-x="252" 
d="M82 290l16 109h101l-16 -109h-101z" />
    <glyph glyph-name="hyphen.cap" horiz-adv-x="424" 
d="M83 384h304l-12 -78h-304z" />
    <glyph glyph-name="endash.cap" horiz-adv-x="562" 
d="M82 382h443l-11 -72h-443z" />
    <glyph glyph-name="emdash.cap" horiz-adv-x="862" 
d="M82 382h743l-11 -72h-743z" />
    <glyph glyph-name="figuredash.cap" horiz-adv-x="599" 
d="M82 382h480l-11 -72h-480z" />
    <glyph glyph-name="parenleft.cap" horiz-adv-x="320" 
d="M67 275q0 129 55.5 253t164.5 225h90q-113 -114 -168 -233.5t-55 -238.5q0 -84 24.5 -174t76.5 -167h-84q-51 68 -77.5 157t-26.5 178z" />
    <glyph glyph-name="parenright.cap" horiz-adv-x="320" 
d="M285 418q0 -129 -55.5 -253t-164.5 -225h-90q113 114 168 233.5t55 238.5q0 84 -24.5 174t-76.5 167h84q51 -68 77.5 -157t26.5 -178z" />
    <glyph glyph-name="bracketleft.cap" horiz-adv-x="329" 
d="M157 753h229l-11 -71h-148l-100 -671h148l-11 -71h-229z" />
    <glyph glyph-name="bracketright.cap" horiz-adv-x="329" 
d="M204 -60h-229l11 71h148l100 671h-148l11 71h229z" />
    <glyph glyph-name="braceleft.cap" horiz-adv-x="363" 
d="M177 127q-14 -65 10.5 -91.5t74.5 -26.5q23 0 36 1l-10 -67q-6 -1 -16.5 -2t-23.5 -1q-89 0 -130 45t-20 144l19 88q5 24 1 40.5t-14.5 27.5t-25.5 17t-33 9l11 71q19 2 36 8t30.5 17.5t22.5 28t11 40.5l8 97q4 50 19.5 84.5t40.5 55.5t59.5 30.5t77.5 9.5q21 0 48 -3
l-11 -68q-20 2 -35 2q-50 0 -82 -26.5t-38 -91.5l-8 -92q-5 -54 -31 -84.5t-70 -46.5q40 -15 56.5 -46t5.5 -82z" />
    <glyph glyph-name="braceright.cap" horiz-adv-x="363" 
d="M217 566q13 64 -10.5 91t-73.5 27q-22 0 -37 -2l11 68q22 3 44 3q87 0 126.5 -43.5t19.5 -141.5l-19 -92q-5 -24 -1 -40.5t14.5 -27.5t25.5 -17t33 -9l-11 -71q-38 -5 -67 -26t-33 -68l-8 -92q-8 -98 -61 -141.5t-140 -43.5q-24 0 -44 3l10 68q22 -2 36 -2q51 0 83 27
t37 91l7 92q4 52 30 82t70 45q-40 15 -56.5 46t-5.5 82z" />
    <glyph glyph-name="anglebracketleft.cap" horiz-adv-x="317" 
d="M41 349l242 404h86l-243 -410l119 -403h-83z" />
    <glyph glyph-name="anglebracketright.cap" horiz-adv-x="317" 
d="M66 -60h-89l244 410l-118 403h80l123 -411z" />
    <glyph glyph-name="at.cap" horiz-adv-x="862" 
d="M777 424q0 55 -21.5 101t-58.5 79.5t-88 52t-109 18.5q-71 0 -136.5 -25.5t-115.5 -72t-80 -111.5t-30 -143q0 -71 24.5 -126t66 -92.5t97 -57.5t118.5 -20q65 0 126.5 18.5t106.5 49.5l30 -59q-24 -17 -55 -31.5t-65.5 -24.5t-71.5 -15.5t-73 -5.5q-78 0 -147 24
t-121 70t-82 112.5t-30 151.5q0 95 36.5 173.5t97.5 134.5t141 87t168 31q73 0 136 -23.5t109.5 -65.5t73.5 -99t27 -124q0 -62 -16 -112t-42.5 -85t-61.5 -54.5t-72 -19.5q-24 0 -40.5 5.5t-27.5 15t-16.5 21.5t-6.5 25q-26 -34 -63.5 -51t-80.5 -17q-35 0 -64.5 12.5
t-50.5 35.5t-33 54.5t-12 69.5q0 44 16 82.5t43.5 67.5t64.5 46t78 17q42 0 76.5 -18t53.5 -49l11 57h68l-46 -242q-6 -31 2 -50t35 -19q20 0 40 15t35.5 41.5t25.5 63.5t10 81zM438 223q27 0 51 11.5t42.5 31t29 46.5t10.5 57q0 50 -29.5 80t-74.5 30q-27 0 -51 -11.5
t-42 -31t-28.5 -45t-10.5 -54.5q0 -50 29 -82t74 -32z" />
    <glyph glyph-name="registered.superior" horiz-adv-x="477" 
d="M470 507q0 -40 -15 -75t-41 -61.5t-60 -41.5t-73 -15t-73.5 15t-60.5 41.5t-41 61.5t-15 75t15 75t41 61t60.5 41.5t73.5 15.5t73 -15.5t60 -41.5t41 -61t15 -75zM417 507q0 29 -10.5 55t-29 45.5t-43.5 30.5t-53 11q-29 0 -53.5 -11t-43.5 -30.5t-29.5 -45.5t-10.5 -55
t10.5 -55t29.5 -45.5t43.5 -30.5t53.5 -11q28 0 53 11t43.5 30.5t29 45.5t10.5 55zM284 601q32 0 51 -16t19 -45q0 -35 -34 -51l44 -73h-54l-35 63h-12v-63h-46v185h67zM263 520h20q10 0 16.5 5t6.5 15t-6.5 15t-16.5 5h-20v-40z" />
    <glyph glyph-name="numbersign.LT" 
d="M506 500h105l-10 -65h-114l-51 -178h108l-10 -65h-117l-56 -192h-75l56 192h-141l-56 -192h-75l56 192h-105l10 65h114l51 178h-108l10 65h117l55 187h75l-55 -187h141l55 187h75zM220 257h141l51 178h-141z" />
    <glyph glyph-name="zero.LT" 
d="M574 413q0 -70 -17.5 -145t-53.5 -137t-92 -102t-132 -40q-60 0 -102.5 24t-69.5 63.5t-39.5 91t-12.5 106.5q0 45 7.5 94.5t23 96.5t39.5 89.5t57 74.5t74.5 51t93.5 19q60 0 102.5 -24.5t69.5 -64.5t39.5 -91.5t12.5 -105.5zM284 73q56 0 94.5 35.5t62 87.5t34 110
t10.5 103q0 34 -6.5 70.5t-22 66.5t-42.5 49.5t-68 19.5q-56 0 -94.5 -35.5t-62.5 -87.5t-34.5 -110t-10.5 -103q0 -35 6.5 -71.5t22.5 -66.5t43 -49t68 -19z" />
    <glyph glyph-name="one.LT" 
d="M57 80h187l78 523h-137l13 84h225l-91 -607h183l-12 -80h-458z" />
    <glyph glyph-name="two.LT" 
d="M346 699q45 0 84 -15t68.5 -42t46 -64.5t16.5 -82.5q0 -38 -11 -70t-31 -60.5t-48 -55t-62 -53.5l-225 -174h321l-12 -82h-458l11 73l317 251q45 35 77 76t32 91q0 27 -10 49.5t-27 39t-41 26t-51 9.5q-30 0 -55.5 -11.5t-44.5 -32t-31 -48.5t-15 -61h-86q4 52 23 95.5
t49.5 75t72 49t90.5 17.5z" />
    <glyph glyph-name="three.LT" 
d="M286 -11q-54 0 -97 16.5t-72 46t-44 71t-13 91.5h87q1 -63 39 -102.5t104 -39.5q30 0 57 9t48 26t33.5 41.5t12.5 55.5q0 30 -13 52.5t-34 37t-47 21.5t-51 7h-24l12 78h45q24 0 47.5 9t42.5 24.5t31 37t12 46.5q0 23 -10 41.5t-26.5 31t-36.5 19.5t-40 7
q-60 0 -100 -35.5t-45 -94.5h-86q4 48 23 87t50 67t72 43.5t89 15.5q37 0 72.5 -12.5t63 -35.5t44.5 -55t17 -70q0 -63 -34 -104.5t-87 -61.5q48 -22 75 -63t27 -96q0 -50 -21 -89.5t-55.5 -66.5t-78.5 -41.5t-89 -14.5z" />
    <glyph glyph-name="four.LT" 
d="M39 230l397 456h101l-66 -447h88l-12 -78h-88l-24 -161h-87l24 161h-343zM384 239l50 330l-288 -330h238z" />
    <glyph glyph-name="five.LT" 
d="M287 72q34 0 64.5 13.5t53 37t35.5 54t13 64.5q0 32 -11.5 58t-31 44.5t-46.5 28.5t-57 10q-40 0 -78.5 -20t-64.5 -56l-76 17l104 364h368l-12 -82h-298l-58 -198q29 27 66 40.5t75 13.5q46 0 84.5 -16.5t66 -45t43 -67.5t15.5 -84q0 -54 -21 -101.5t-57 -82.5
t-83.5 -55t-100.5 -20q-52 0 -93.5 16t-70.5 44.5t-44.5 68t-15.5 86.5h89q0 -27 10 -51t28.5 -42t45 -28.5t58.5 -10.5z" />
    <glyph glyph-name="six.LT" 
d="M550 247q0 -55 -21.5 -102t-58 -81.5t-84.5 -54.5t-101 -20q-48 0 -90.5 16.5t-74 46t-50 71t-18.5 91.5q0 35 8.5 66.5t23.5 60t34.5 55.5t41.5 53l201 238h108l-203 -239q14 9 32 13t35 4q47 0 86.5 -17.5t68.5 -47t45.5 -69t16.5 -84.5zM289 72q34 0 65 13.5t55 36.5
t38 53.5t14 65.5q0 31 -11.5 57t-31.5 45.5t-46.5 30.5t-57.5 11q-35 0 -66.5 -12.5t-55 -34.5t-37.5 -52.5t-14 -66.5q0 -32 11.5 -59t31.5 -46.5t47 -30.5t58 -11z" />
    <glyph glyph-name="seven.LT" 
d="M205 0h-100l368 604h-339l13 82h445l-10 -67z" />
    <glyph glyph-name="eight.LT" 
d="M351 699q37 0 73 -11.5t64 -33t45 -53.5t17 -73q0 -28 -9 -54.5t-24.5 -48.5t-38 -39t-49.5 -25q48 -22 74.5 -64.5t26.5 -95.5q0 -49 -21.5 -88.5t-56 -67t-78.5 -42t-89 -14.5q-42 0 -83 13t-73.5 37.5t-52 60.5t-19.5 83q0 70 40 121t113 74q-36 17 -57.5 52.5
t-21.5 75.5q0 44 19 80t49.5 61t70 38.5t81.5 13.5zM287 71q30 0 58 9.5t49.5 27t34.5 43t13 57.5q0 28 -12 50t-32 37t-45 23t-51 8q-29 0 -57.5 -8.5t-50.5 -25t-35.5 -40.5t-13.5 -56q0 -30 12 -53t31.5 -39t45.5 -24.5t53 -8.5zM349 618q-25 0 -49 -7t-42.5 -21
t-29.5 -35t-11 -48q0 -21 9 -39.5t24.5 -32.5t36.5 -22t44 -8q25 0 48.5 7t42.5 21t30.5 34.5t11.5 46.5q0 24 -9.5 43.5t-25.5 33t-37 20.5t-43 7z" />
    <glyph glyph-name="nine.LT" 
d="M81 440q0 55 21.5 102t58 81.5t84.5 54.5t101 20q48 0 90.5 -16.5t74 -46t50 -71t18.5 -91.5q0 -35 -8.5 -66.5t-23.5 -60t-34.5 -55.5t-41.5 -53l-201 -238h-108l203 239q-14 -9 -32 -13t-35 -4q-47 0 -86.5 17.5t-68.5 47t-45.5 69t-16.5 84.5zM342 615
q-34 0 -65 -13.5t-55 -36.5t-38 -53.5t-14 -65.5q0 -31 11.5 -57t31.5 -45.5t46.5 -30.5t57.5 -11q35 0 66.5 12.5t55 34.5t37.5 52.5t14 66.5q0 32 -11.5 59t-31.5 46.5t-47 30.5t-58 11z" />
    <glyph glyph-name="Euro.LT" 
d="M439 245h-236q10 -35 29.5 -65t45 -51.5t57 -33.5t67.5 -12q35 0 70 10.5t68 25.5l-13 -87q-30 -14 -63.5 -22t-65.5 -8q-53 0 -99.5 18t-84 50.5t-64 77t-37.5 97.5h-95l10 69h77q0 18 0.5 32t2.5 27h-71l10 69h79q18 52 50.5 97t75.5 78t94 51.5t106 18.5
q45 0 86.5 -11.5t79.5 -34.5l-13 -87q-67 52 -156 52q-38 0 -73 -12.5t-65 -34.5t-54 -52t-40 -65h250l-10 -69h-261q-2 -12 -3 -26.5t-1 -32.5h257z" />
    <glyph glyph-name="dollar.LT" 
d="M401 680q52 -14 88 -52t54 -97l-78 -28q-11 33 -30 58t-46 37l-32 -211l30 -15q62 -31 92.5 -74t30.5 -96q0 -44 -16 -80.5t-44 -63t-66.5 -41.5t-83.5 -16l-14 -97h-67l15 103q-63 14 -107.5 58t-62.5 116l80 25q13 -44 39 -74.5t63 -43.5l36 241l-17 9q-60 32 -89 73
t-29 95q0 39 14 71.5t39 56.5t59.5 37.5t75.5 15.5l14 89h67zM423 193q0 61 -78 104l-33 -215q49 5 80 34.5t31 76.5zM233 515q0 -55 62 -95l28 187q-41 -5 -65.5 -30t-24.5 -62z" />
    <glyph glyph-name="cent.LT" 
d="M368 178q32 2 63 13.5t60 28.5l-14 -87q-28 -15 -57 -24t-63 -9l-16 -105h-65l17 113q-36 9 -66 28.5t-52 47t-34 62.5t-12 76q0 51 18 96.5t49.5 81t74.5 57.5t93 27l16 103h65l-16 -104q29 -5 56.5 -16.5t49.5 -29.5l-12 -83q-23 20 -49.5 33t-56.5 18l-22 -148z
M352 504q-30 -7 -55.5 -23.5t-43.5 -40t-28.5 -53t-10.5 -60.5q0 -50 24.5 -86.5t66.5 -52.5l25 169z" />
    <glyph glyph-name="sterling.LT" 
d="M171 475q6 45 24 83.5t47 67t68.5 45t90.5 16.5q40 0 76.5 -13.5t63.5 -40t41.5 -65t10.5 -87.5h-85q3 57 -28 90t-83 33q-33 0 -57 -11.5t-41 -31t-27 -44.5t-14 -52l-14 -94h180l-11 -76h-179l-19 -124q-6 -38 -18.5 -60t-26.5 -30h356l-12 -81h-491l12 81h21
q23 0 42.5 20t27.5 70l19 124h-78l11 76h78z" />
    <glyph glyph-name="florin.LT" 
d="M370 405h133l-12 -77h-142l-89 -330q-22 -82 -69.5 -123.5t-118.5 -41.5q-23 0 -45 3.5t-37 11.5l12 78q28 -13 61 -13q88 0 114 95l86 320h-105l12 77h114l41 149q22 82 69.5 123.5t118.5 41.5q24 0 44.5 -4t37.5 -11l-12 -82q-13 8 -29.5 12.5t-32.5 4.5
q-87 0 -113 -95z" />
    <glyph glyph-name="yen.LT" 
d="M96 372h152l-147 312h97l126 -271l207 271h100l-241 -312h152l-10 -69h-179l-9 -57h179l-10 -69h-179l-26 -177h-88l26 177h-179l10 69h179l9 57h-179z" />
    <glyph glyph-name="zero.OP" horiz-adv-x="635" 
d="M596 340q0 -64 -20 -126.5t-58 -112.5t-93 -81t-126 -31q-57 0 -102.5 21t-76.5 57t-47.5 85.5t-16.5 106.5q0 63 19.5 125.5t57.5 112t93 80.5t126 31q58 0 103 -20t76.5 -56t48 -85t16.5 -107zM304 72q50 0 88 24.5t63.5 62.5t38 84t12.5 90q0 39 -9.5 73.5t-29 61
t-49.5 42t-70 15.5q-50 0 -88 -24.5t-63.5 -62.5t-38.5 -84.5t-13 -89.5q0 -38 10 -73t29.5 -61.5t49.5 -42t70 -15.5z" />
    <glyph glyph-name="one.OP" horiz-adv-x="331" 
d="M126 0l76 510h-123l13 86h213l-89 -596h-90z" />
    <glyph glyph-name="two.OP" horiz-adv-x="517" 
d="M163 82h290l-12 -82h-435l11 73l262 188l52 39t41.5 36.5t27 39.5t9.5 47q0 24 -9.5 43t-25 32.5t-36.5 20.5t-44 7q-27 0 -52 -11t-44.5 -31t-31.5 -47.5t-14 -61.5h-86q3 53 22 96t50 73.5t71.5 47t86.5 16.5q39 0 75 -12t64 -34.5t45 -55.5t17 -75q0 -37 -11 -68
t-34 -60t-60 -59t-88 -65z" />
    <glyph glyph-name="three.OP" horiz-adv-x="555" 
d="M252 -102q-54 0 -97 16.5t-72 46t-44 71t-13 91.5h87q1 -63 39 -102.5t104 -39.5q30 0 57 9t48 26t33.5 41.5t12.5 55.5q0 30 -13 52.5t-34 37t-47 21.5t-51 7h-24l12 78h45q24 0 47.5 9t42.5 24.5t31 37t12 46.5q0 23 -10 41.5t-26.5 31t-36.5 19.5t-40 7
q-60 0 -100 -35.5t-45 -94.5h-86q4 48 23 87t50 67t72 43.5t89 15.5q37 0 72.5 -12.5t63 -35.5t44.5 -55t17 -70q0 -63 -34 -104.5t-87 -61.5q48 -22 75 -63t27 -96q0 -50 -21 -89.5t-55.5 -66.5t-78.5 -41.5t-89 -14.5z" />
    <glyph glyph-name="four.OP" horiz-adv-x="586" 
d="M2 109l411 487h102l-71 -475h96l-12 -78h-96l-20 -133h-87l20 133h-353zM357 121l52 355l-299 -355h247z" />
    <glyph glyph-name="five.OP" horiz-adv-x="558" 
d="M253 -19q34 0 64.5 13.5t53 37t35.5 54t13 64.5q0 32 -11.5 58t-31 44.5t-46.5 28.5t-57 10q-40 0 -78.5 -20t-64.5 -56l-76 17l104 364h368l-12 -82h-298l-58 -198q29 27 66 40.5t75 13.5q46 0 84.5 -16.5t66 -45t43 -67.5t15.5 -84q0 -54 -21 -101.5t-57 -82.5
t-83.5 -55t-100.5 -20q-52 0 -93.5 16t-70.5 44.5t-44.5 68t-15.5 86.5h89q0 -27 10 -51t28.5 -42t45 -28.5t58.5 -10.5z" />
    <glyph glyph-name="six.OP" horiz-adv-x="585" 
d="M543 247q0 -55 -21.5 -102t-58 -81.5t-84.5 -54.5t-101 -20q-48 0 -90.5 16.5t-74 46t-50 71t-18.5 91.5q0 35 8.5 66.5t23.5 60t34.5 55.5t41.5 53l201 238h108l-203 -239q14 9 32 13t35 4q47 0 86.5 -17.5t68.5 -47t45.5 -69t16.5 -84.5zM282 72q34 0 65 13.5t55 36.5
t38 53.5t14 65.5q0 31 -11.5 57t-31.5 45.5t-46.5 30.5t-57.5 11q-35 0 -66.5 -12.5t-55 -34.5t-37.5 -52.5t-14 -66.5q0 -32 11.5 -59t31.5 -46.5t47 -30.5t58 -11z" />
    <glyph glyph-name="seven.OP" horiz-adv-x="507" 
d="M140 -90h-100l368 604h-339l13 82h445l-10 -67z" />
    <glyph glyph-name="eight.OP" horiz-adv-x="554" 
d="M328 699q37 0 73 -11.5t64 -33t45 -53.5t17 -73q0 -28 -9 -54.5t-24.5 -48.5t-38 -39t-49.5 -25q48 -22 74.5 -64.5t26.5 -95.5q0 -49 -21.5 -88.5t-56 -67t-78.5 -42t-89 -14.5q-42 0 -83 13t-73.5 37.5t-52 60.5t-19.5 83q0 70 40 121t113 74q-36 17 -57.5 52.5
t-21.5 75.5q0 44 19 80t49.5 61t70 38.5t81.5 13.5zM264 71q30 0 58 9.5t49.5 27t34.5 43t13 57.5q0 28 -12 50t-32 37t-45 23t-51 8q-29 0 -57.5 -8.5t-50.5 -25t-35.5 -40.5t-13.5 -56q0 -30 12 -53t31.5 -39t45.5 -24.5t53 -8.5zM326 618q-25 0 -49 -7t-42.5 -21
t-29.5 -35t-11 -48q0 -21 9 -39.5t24.5 -32.5t36.5 -22t44 -8q25 0 48.5 7t42.5 21t30.5 34.5t11.5 46.5q0 24 -9.5 43.5t-25.5 33t-37 20.5t-43 7z" />
    <glyph glyph-name="nine.OP" horiz-adv-x="581" 
d="M58 350q0 55 21.5 102t58 81.5t84.5 54.5t101 20q48 0 90.5 -16.5t74 -46t50 -71t18.5 -91.5q0 -35 -8.5 -66.5t-23.5 -60t-34.5 -55.5t-41.5 -53l-201 -238h-108l203 239q-14 -9 -32 -13t-35 -4q-47 0 -86.5 17.5t-68.5 47t-45.5 69t-16.5 84.5zM319 525
q-34 0 -65 -13.5t-55 -36.5t-38 -53.5t-14 -65.5q0 -31 11.5 -57t31.5 -45.5t46.5 -30.5t57.5 -11q35 0 66.5 12.5t55 34.5t37.5 52.5t14 66.5q0 32 -11.5 59t-31.5 46.5t-47 30.5t-58 11z" />
    <glyph glyph-name="zero.OT" 
d="M566 345q0 -62 -17 -125.5t-52 -114.5t-88.5 -83.5t-126.5 -32.5q-57 0 -100 19.5t-72 54.5t-44 83.5t-15 105.5q0 62 17 125.5t52 114.5t88.5 83.5t126.5 32.5q55 0 98.5 -19.5t72.5 -54.5t44.5 -83t15.5 -106zM286 73q52 0 88.5 26t59.5 65.5t33.5 87t10.5 90.5
q0 37 -9 70.5t-27 58t-46 39t-66 14.5q-52 0 -88 -25.5t-59 -65t-33.5 -86.5t-10.5 -90q0 -37 8.5 -70t26.5 -58.5t45.5 -40.5t66.5 -15z" />
    <glyph glyph-name="one.OT" 
d="M61 79h183l65 433h-132l12 84h221l-77 -517h178l-12 -79h-450z" />
    <glyph glyph-name="two.OT" 
d="M204 82h290l-12 -82h-435l11 73l262 188l52 39t41.5 36.5t27 39.5t9.5 47q0 24 -9.5 43t-25 32.5t-36.5 20.5t-44 7q-27 0 -52 -11t-44.5 -31t-31.5 -47.5t-14 -61.5h-86q3 53 22 96t50 73.5t71.5 47t86.5 16.5q39 0 75 -12t64 -34.5t45 -55.5t17 -75q0 -37 -11 -68
t-34 -60t-60 -59t-88 -65z" />
    <glyph glyph-name="three.OT" 
d="M274 -102q-54 0 -97 16.5t-72 46t-44 71t-13 91.5h87q1 -63 39 -102.5t104 -39.5q30 0 57 9t48 26t33.5 41.5t12.5 55.5q0 30 -13 52.5t-34 37t-47 21.5t-51 7h-24l12 78h45q24 0 47.5 9t42.5 24.5t31 37t12 46.5q0 23 -10 41.5t-26.5 31t-36.5 19.5t-40 7
q-60 0 -100 -35.5t-45 -94.5h-86q4 48 23 87t50 67t72 43.5t89 15.5q37 0 72.5 -12.5t63 -35.5t44.5 -55t17 -70q0 -63 -34 -104.5t-87 -61.5q48 -22 75 -63t27 -96q0 -50 -21 -89.5t-55.5 -66.5t-78.5 -41.5t-89 -14.5z" />
    <glyph glyph-name="four.OT" 
d="M17 111l401 485h102l-71 -475h89l-12 -78h-89l-20 -133h-87l20 133h-343zM362 121l53 356l-292 -356h239z" />
    <glyph glyph-name="five.OT" 
d="M274 -19q34 0 64.5 13.5t53 37t35.5 54t13 64.5q0 32 -11.5 58t-31 44.5t-46.5 28.5t-57 10q-40 0 -78.5 -20t-64.5 -56l-76 17l104 364h368l-12 -82h-298l-58 -198q29 27 66 40.5t75 13.5q46 0 84.5 -16.5t66 -45t43 -67.5t15.5 -84q0 -54 -21 -101.5t-57 -82.5
t-83.5 -55t-100.5 -20q-52 0 -93.5 16t-70.5 44.5t-44.5 68t-15.5 86.5h89q0 -27 10 -51t28.5 -42t45 -28.5t58.5 -10.5z" />
    <glyph glyph-name="six.OT" 
d="M550 247q0 -55 -21.5 -102t-58 -81.5t-84.5 -54.5t-101 -20q-48 0 -90.5 16.5t-74 46t-50 71t-18.5 91.5q0 35 8.5 66.5t23.5 60t34.5 55.5t41.5 53l201 238h108l-203 -239q14 9 32 13t35 4q47 0 86.5 -17.5t68.5 -47t45.5 -69t16.5 -84.5zM289 72q34 0 65 13.5t55 36.5
t38 53.5t14 65.5q0 31 -11.5 57t-31.5 45.5t-46.5 30.5t-57.5 11q-35 0 -66.5 -12.5t-55 -34.5t-37.5 -52.5t-14 -66.5q0 -32 11.5 -59t31.5 -46.5t47 -30.5t58 -11z" />
    <glyph glyph-name="seven.OT" 
d="M186 -90h-100l368 604h-339l13 82h445l-10 -67z" />
    <glyph glyph-name="eight.OT" 
d="M351 699q37 0 73 -11.5t64 -33t45 -53.5t17 -73q0 -28 -9 -54.5t-24.5 -48.5t-38 -39t-49.5 -25q48 -22 74.5 -64.5t26.5 -95.5q0 -49 -21.5 -88.5t-56 -67t-78.5 -42t-89 -14.5q-42 0 -83 13t-73.5 37.5t-52 60.5t-19.5 83q0 70 40 121t113 74q-36 17 -57.5 52.5
t-21.5 75.5q0 44 19 80t49.5 61t70 38.5t81.5 13.5zM287 71q30 0 58 9.5t49.5 27t34.5 43t13 57.5q0 28 -12 50t-32 37t-45 23t-51 8q-29 0 -57.5 -8.5t-50.5 -25t-35.5 -40.5t-13.5 -56q0 -30 12 -53t31.5 -39t45.5 -24.5t53 -8.5zM349 618q-25 0 -49 -7t-42.5 -21
t-29.5 -35t-11 -48q0 -21 9 -39.5t24.5 -32.5t36.5 -22t44 -8q25 0 48.5 7t42.5 21t30.5 34.5t11.5 46.5q0 24 -9.5 43.5t-25.5 33t-37 20.5t-43 7z" />
    <glyph glyph-name="nine.OT" 
d="M67 350q0 55 21.5 102t58 81.5t84.5 54.5t101 20q48 0 90.5 -16.5t74 -46t50 -71t18.5 -91.5q0 -35 -8.5 -66.5t-23.5 -60t-34.5 -55.5t-41.5 -53l-201 -238h-108l203 239q-14 -9 -32 -13t-35 -4q-47 0 -86.5 17.5t-68.5 47t-45.5 69t-16.5 84.5zM328 525
q-34 0 -65 -13.5t-55 -36.5t-38 -53.5t-14 -65.5q0 -31 11.5 -57t31.5 -45.5t46.5 -30.5t57.5 -11q35 0 66.5 12.5t55 34.5t37.5 52.5t14 66.5q0 32 -11.5 59t-31.5 46.5t-47 30.5t-58 11z" />
    <glyph glyph-name="zero.inf" horiz-adv-x="369" 
d="M314 127q0 -38 -9 -80.5t-29.5 -78.5t-53.5 -59.5t-81 -23.5q-66 0 -99 42.5t-33 122.5q0 36 8.5 77.5t28.5 77t52.5 59t79.5 23.5q68 0 102 -44t34 -116zM146 -49q29 0 47.5 19t29.5 46t15.5 57.5t4.5 53.5q0 17 -3.5 34t-11 30.5t-20.5 21.5t-32 8q-29 0 -47.5 -19.5
t-29.5 -46.5t-15.5 -56.5t-4.5 -49.5q0 -17 2.5 -34.5t10 -31.5t20.5 -23t34 -9z" />
    <glyph glyph-name="one.inf" horiz-adv-x="229" 
d="M42 -108l48 321h-68l10 67h139l-58 -388h-71z" />
    <glyph glyph-name="two.inf" horiz-adv-x="334" 
d="M165 287q27 0 50 -8.5t40 -23.5t27 -36.5t10 -47.5q0 -42 -24 -74t-64 -61l-109 -80h170l-10 -64h-278l8 57l179 133q25 19 41 38.5t16 48.5q0 23 -17 38t-41 15q-31 0 -51.5 -22t-23.5 -53h-70q5 61 45 100.5t102 39.5z" />
    <glyph glyph-name="three.inf" horiz-adv-x="336" 
d="M145 123q26 0 47.5 12.5t21.5 43.5q0 20 -16.5 32.5t-35.5 12.5q-25 0 -43 -13.5t-22 -43.5h-67q1 30 12.5 52.5t30 37.5t42 22.5t48.5 7.5q22 0 43.5 -6.5t38.5 -19t27.5 -31.5t10.5 -43q0 -31 -18.5 -56t-47.5 -36q27 -13 42 -34.5t15 -51.5q0 -29 -13 -52t-33.5 -39
t-45.5 -24.5t-50 -8.5q-28 0 -53 7.5t-43.5 23t-29.5 40t-11 57.5h69q1 -30 20.5 -46.5t48.5 -16.5t50 16t21 45q0 27 -20 41t-47 14h-19l9 57h18v0z" />
    <glyph glyph-name="four.inf" horiz-adv-x="345" 
d="M250 38h49l-9 -62h-49l-13 -84h-68l13 84h-193l8 52l212 252h86zM71 38h111l24 159z" />
    </font>
</defs>
</svg>
