<?xml version="1.0" standalone="no"?>
<!DOCTYPE svg PUBLIC "-//W3C//DTD SVG 1.1//EN" "http://www.w3.org/Graphics/SVG/1.1/DTD/svg11.dtd" >
<svg xmlns="http://www.w3.org/2000/svg" xmlns:xlink="http://www.w3.org/1999/xlink" version="1.1">
<metadata>
Created by FontForge 20200314 at Sat Aug 26 04:39:11 2017
 By Unknown
Copyright (c) 2017 by Josh Finklea. All rights reserved.
</metadata>
<defs>
<font id="CentraNo2-Extrabold" horiz-adv-x="600" >
  <font-face 
    font-family="Centra No2 Extrabold"
    font-weight="800"
    font-stretch="normal"
    units-per-em="1000"
    panose-1="0 0 0 0 0 0 0 0 0 0"
    ascent="800"
    descent="-200"
    x-height="500"
    cap-height="700"
    bbox="-224 -300 1214 954"
    underline-thickness="50"
    underline-position="-100"
    unicode-range="U+000D-FB02"
  />
<missing-glyph horiz-adv-x="840" 
d="M70 700h700v-700h-700v700zM140 70h560v560h-560v-560zM233 113l-50 50l188 187l-188 187l50 50l187 -188l187 188l50 -50l-188 -187l188 -187l-50 -50l-187 188z" />
    <glyph glyph-name=".notdef" horiz-adv-x="840" 
d="M70 700h700v-700h-700v700zM140 70h560v560h-560v-560zM233 113l-50 50l188 187l-188 187l50 50l187 -188l187 188l50 -50l-188 -187l188 -187l-50 -50l-187 188z" />
    <glyph glyph-name=".null" horiz-adv-x="0" 
 />
    <glyph glyph-name="nonmarkingreturn" unicode="&#xd;" horiz-adv-x="225" 
 />
    <glyph glyph-name="NULL" horiz-adv-x="0" 
 />
    <glyph glyph-name="NULL" horiz-adv-x="0" 
 />
    <glyph glyph-name="space" unicode=" " horiz-adv-x="225" 
 />
    <glyph glyph-name="exclam" unicode="!" horiz-adv-x="320" 
d="M79 234l-16 466h194l-16 -466h-162zM260 86q0 -20 -8 -38.5t-21.5 -32t-31.5 -21.5t-39 -8q-42 0 -71 29t-29 71t29 71t71 29q21 0 39 -8t31.5 -21.5t21.5 -32t8 -38.5z" />
    <glyph glyph-name="quotedbl" unicode="&#x22;" horiz-adv-x="464" 
d="M50 400l-15 300h170l-15 -300h-140zM274 400l-15 300h170l-15 -300h-140z" />
    <glyph glyph-name="numbersign" unicode="#" horiz-adv-x="685" 
d="M560 520h93v-125h-111l-14 -99h94v-125h-111l-24 -171h-142l24 171h-103l-24 -171h-142l24 171h-92v125h110l14 99h-93v125h111l24 166h141l-24 -166h103l24 166h142zM283 296h103l14 99h-103z" />
    <glyph glyph-name="dollar" unicode="$" horiz-adv-x="562" 
d="M176 245q15 -37 46.5 -58t66.5 -21q25 0 42.5 10t17.5 30q0 14 -11.5 25t-38.5 20l-80 28q-71 25 -116.5 72t-45.5 123q0 40 12.5 74t35.5 60.5t54.5 44.5t70.5 26v97h120v-99q57 -13 103.5 -46.5t73.5 -84.5l-144 -90q-14 29 -37.5 47.5t-54.5 18.5q-24 0 -38 -10.5
t-14 -27.5q0 -16 12 -24.5t31 -16.5l90 -34q82 -30 121 -77t39 -116q0 -43 -14.5 -78t-39 -61.5t-58 -44.5t-70.5 -26v-102h-120v101q-65 12 -119 50.5t-83 101.5z" />
    <glyph glyph-name="percent" unicode="%" horiz-adv-x="841" 
d="M377 527q0 -36 -13.5 -66.5t-37.5 -53.5t-56 -36t-69 -13t-69 13t-56 36t-37.5 53.5t-13.5 66.5t13.5 66.5t37.5 53.5t56 36t69 13t69 -13t56 -36t37.5 -53.5t13.5 -66.5zM259 527q0 26 -16.5 42.5t-41.5 16.5t-41.5 -16.5t-16.5 -42.5t16.5 -42.5t41.5 -16.5t41.5 16.5
t16.5 42.5zM242 0h-153l510 687h153zM464 160q0 36 13.5 66.5t37.5 53.5t56 36t69 13t69 -13t56 -36t37.5 -53.5t13.5 -66.5t-13.5 -66.5t-37.5 -53.5t-56 -36t-69 -13t-69 13t-56 36t-37.5 53.5t-13.5 66.5zM582 160q0 -26 16.5 -42.5t41.5 -16.5t41.5 16.5t16.5 42.5
t-16.5 42.5t-41.5 16.5t-41.5 -16.5t-16.5 -42.5z" />
    <glyph glyph-name="ampersand" unicode="&#x26;" horiz-adv-x="755" 
d="M522 0l-62 65q-40 -39 -91.5 -59t-106.5 -20q-51 0 -92.5 14.5t-71.5 41t-46.5 63.5t-16.5 82q0 57 29 105t86 87q-63 67 -63 148q0 40 16 74t44 59t67 39.5t86 14.5q42 0 77.5 -13.5t61 -37.5t40 -57t14.5 -72q0 -44 -23.5 -86t-74.5 -84l68 -69l114 127l115 -105
l-121 -132l184 -185h-233zM277 141q21 0 39 9.5t33 26.5l-95 97q-43 -32 -43 -72q0 -26 18.5 -43.5t47.5 -17.5zM249 532q0 -16 9 -31t34 -39q26 20 36 37t10 34q0 19 -12.5 31t-32.5 12q-18 0 -31 -13t-13 -31z" />
    <glyph glyph-name="quotesingle" unicode="'" horiz-adv-x="240" 
d="M50 400l-15 300h170l-15 -300h-140z" />
    <glyph glyph-name="parenleft" unicode="(" horiz-adv-x="377" 
d="M40 294q0 128 41.5 248t116.5 211h177q-76 -108 -117.5 -221t-41.5 -238t41.5 -238t117.5 -221h-177q-75 91 -116.5 211t-41.5 248z" />
    <glyph glyph-name="parenright" unicode=")" horiz-adv-x="377" 
d="M337 294q0 -128 -41.5 -248t-116.5 -211h-177q76 108 117.5 221t41.5 238t-41.5 238t-117.5 221h177q75 -91 116.5 -211t41.5 -248z" />
    <glyph glyph-name="asterisk" unicode="*" horiz-adv-x="447" 
d="M223 418l-55 -81l-109 80l60 77l-94 27l42 128l92 -33l-3 98h135l-3 -98l92 33l42 -128l-94 -27l60 -77l-109 -80z" />
    <glyph glyph-name="plus" unicode="+" 
d="M60 409h164v168h151v-168h165v-151h-165v-170h-151v170h-164v151z" />
    <glyph glyph-name="comma" unicode="," horiz-adv-x="302" 
d="M55 -129l76 131h-1q-18 0 -33.5 7t-27 19t-18 28t-6.5 34q0 46 30.5 75.5t74.5 29.5q46 0 76.5 -29.5t30.5 -75.5q0 -24 -7.5 -47.5t-24.5 -55.5l-65 -116h-105z" />
    <glyph glyph-name="hyphen" unicode="-" horiz-adv-x="425" 
d="M50 351h325v-164h-325v164z" />
    <glyph glyph-name="period" unicode="." horiz-adv-x="302" 
d="M257 91q0 -21 -8.5 -40t-22.5 -33.5t-33.5 -23t-41.5 -8.5t-41 8.5t-33.5 22.5t-23 33.5t-8.5 40.5t8.5 40.5t23 33.5t33.5 22.5t41 8.5t41 -8.5t33.5 -22.5t23 -33.5t8.5 -40.5z" />
    <glyph glyph-name="slash" unicode="/" horiz-adv-x="520" 
d="M158 -100h-181l368 865h181z" />
    <glyph glyph-name="zero" unicode="0" horiz-adv-x="681" 
d="M645 343q0 -71 -20 -135.5t-58.5 -114t-95 -78.5t-130.5 -29t-131 29t-95.5 78.5t-58.5 114t-20 135.5t20 135.5t58.5 114t95.5 78.5t131 29t130.5 -29t95 -78.5t58.5 -114t20 -135.5zM459 343q0 35 -7 68t-21.5 59t-36.5 41.5t-53 15.5t-53.5 -15.5t-37 -41.5t-21.5 -59
t-7 -68t7 -68t21.5 -59t37 -41.5t53.5 -15.5t53 15.5t36.5 41.5t21.5 59t7 68z" />
    <glyph glyph-name="one" unicode="1" horiz-adv-x="395" 
d="M145 0v518h-115v168h301v-686h-186z" />
    <glyph glyph-name="two" unicode="2" horiz-adv-x="584" 
d="M292 700q56 0 103 -17t81 -48t53 -73t19 -93q0 -33 -8.5 -63.5t-27.5 -59.5t-49.5 -58.5t-75.5 -62.5q-40 -29 -66 -44.5t-29 -17.5h260v-163h-517v146l253 205q40 32 57 56t17 49q0 32 -19.5 52t-50.5 20q-35 0 -55.5 -24.5t-21.5 -69.5h-181q0 61 18 110.5t52 84
t81.5 53t106.5 18.5z" />
    <glyph glyph-name="three" unicode="3" horiz-adv-x="591" 
d="M284 421q31 0 50 17.5t19 44.5q0 24 -16.5 41t-46.5 17q-31 0 -48 -22t-18 -57h-175q0 56 17.5 100.5t50 75t77.5 46.5t100 16q52 0 96 -15t76 -41t49.5 -61.5t17.5 -77.5q0 -88 -76 -139q51 -25 77.5 -62.5t26.5 -93.5q0 -50 -19.5 -91t-54.5 -70.5t-83 -46t-106 -16.5
q-59 0 -107.5 17t-83 49t-53 79.5t-18.5 108.5h180q1 -38 23 -63.5t59 -25.5q35 0 56.5 18t21.5 51q0 30 -23 48.5t-65 18.5h-29v134h25v0z" />
    <glyph glyph-name="four" unicode="4" horiz-adv-x="628" 
d="M20 252l268 434h226v-407h96v-150h-96v-129h-173v129h-321v123zM342 279v223l-130 -223h130z" />
    <glyph glyph-name="five" unicode="5" horiz-adv-x="593" 
d="M53 314l51 372h411v-156h-273l-13 -88q50 32 114 32q49 0 89.5 -18t69.5 -49t45 -72.5t16 -87.5q0 -56 -20 -104t-55.5 -83t-83.5 -54.5t-104 -19.5q-60 0 -108 16.5t-82.5 46.5t-53.5 72.5t-20 94.5h176q1 -12 7 -23.5t16.5 -21t26 -15.5t35.5 -6q38 0 63 25.5t25 62.5
t-25 61t-63 24q-28 0 -49 -12.5t-32 -30.5z" />
    <glyph glyph-name="six" unicode="6" horiz-adv-x="601" 
d="M571 246q0 -56 -20.5 -104t-56.5 -82.5t-85 -54t-106 -19.5q-58 0 -107 19.5t-85 53.5t-56 80.5t-20 101.5q0 49 17.5 101t46.5 99l155 245h209l-152 -216q5 2 14.5 4.5t22.5 2.5q49 0 90 -18t70.5 -49t46 -73.5t16.5 -90.5zM395 239q0 19 -7 35.5t-20 29t-30 19.5t-36 7
t-36 -7t-29.5 -19t-19.5 -28.5t-7 -35.5q0 -38 26.5 -64.5t65.5 -26.5q19 0 36 7t30 19t20 28.5t7 35.5z" />
    <glyph glyph-name="seven" unicode="7" horiz-adv-x="565" 
d="M273 0h-204l264 523h-303v163h513v-131z" />
    <glyph glyph-name="eight" unicode="8" horiz-adv-x="592" 
d="M296 700q48 0 91 -14t75 -40.5t51 -63t19 -81.5q0 -43 -21.5 -76t-56.5 -54q20 -10 39.5 -25.5t34.5 -36.5t24.5 -46.5t9.5 -55.5q0 -52 -22 -93t-59 -69.5t-85 -43.5t-100 -15t-100 15t-85 43.5t-59 69.5t-22 93q0 30 9.5 55.5t24.5 46.5t34.5 36.5t39.5 25.5
q-35 21 -56.5 54t-21.5 76q0 45 19 81.5t51 63t75 40.5t91 14zM382 217q0 34 -24 57t-62 23t-62 -23t-24 -57q0 -35 24 -58t62 -23t62 23t24 58zM296 554q-30 0 -50.5 -18.5t-20.5 -47.5t20 -47.5t51 -18.5t51 18.5t20 47.5t-20.5 47.5t-50.5 18.5z" />
    <glyph glyph-name="nine" unicode="9" horiz-adv-x="601" 
d="M30 440q0 56 20.5 104t56.5 82.5t85 54t106 19.5q58 0 107 -19.5t85 -53.5t56 -80.5t20 -101.5q0 -49 -17.5 -101t-46.5 -99l-154 -245h-212l151 214q-11 -6 -36 -6q-49 0 -89.5 18t-70 49.5t-45.5 74t-16 90.5zM206 447q0 -19 7 -35.5t20 -29t29.5 -19.5t36.5 -7
q19 0 36 7t29.5 19t19.5 28.5t7 35.5q0 38 -26.5 64.5t-65.5 26.5q-20 0 -36.5 -7t-29.5 -19t-20 -28.5t-7 -35.5z" />
    <glyph glyph-name="colon" unicode=":" horiz-adv-x="302" 
d="M257 409q0 -21 -8.5 -40t-22.5 -33.5t-33.5 -23t-41.5 -8.5t-41 8.5t-33.5 22.5t-23 33.5t-8.5 40.5t8.5 40.5t23 33.5t33.5 22.5t41 8.5t41 -8.5t33.5 -22.5t23 -33.5t8.5 -40.5zM257 91q0 -21 -8.5 -40t-22.5 -33.5t-33.5 -23t-41.5 -8.5t-41 8.5t-33.5 22.5t-23 33.5
t-8.5 40.5t8.5 40.5t23 33.5t33.5 22.5t41 8.5t41 -8.5t33.5 -22.5t23 -33.5t8.5 -40.5z" />
    <glyph glyph-name="semicolon" unicode=";" horiz-adv-x="302" 
d="M55 -129l76 131h-1q-18 0 -33.5 7t-27 19t-18 28t-6.5 34q0 46 30.5 75.5t74.5 29.5q46 0 76.5 -29.5t30.5 -75.5q0 -24 -7.5 -47.5t-24.5 -55.5l-65 -116h-105zM257 409q0 -21 -8.5 -40t-22.5 -33.5t-33.5 -23t-41.5 -8.5t-41 8.5t-33.5 22.5t-23 33.5t-8.5 40.5
t8.5 40.5t23 33.5t33.5 22.5t41 8.5t41 -8.5t33.5 -22.5t23 -33.5t8.5 -40.5z" />
    <glyph glyph-name="less" unicode="&#x3c;" 
d="M80 415l440 203v-180l-244 -103l244 -103v-184l-440 203v164z" />
    <glyph glyph-name="equal" unicode="=" 
d="M60 297h480v-151h-480v151zM60 521h480v-151h-480v151z" />
    <glyph glyph-name="greater" unicode="&#x3e;" 
d="M520 251l-440 -203v180l244 103l-244 103v184l440 -203v-164z" />
    <glyph glyph-name="question" unicode="?" horiz-adv-x="565" 
d="M530 500q0 -93 -72 -154q-15 -14 -32 -25.5t-31.5 -23.5t-23.5 -24t-9 -25v-14h-179v33q0 35 25 70t73 65q32 20 48 39t16 42t-17 40t-46 17t-47 -20.5t-19 -51.5h-181q0 55 17.5 100t50 77.5t78.5 50.5t102 18q54 0 99.5 -16t78 -44.5t51 -68t18.5 -85.5zM374 86
q0 -20 -8 -38.5t-21.5 -32t-31.5 -21.5t-39 -8q-42 0 -71 29t-29 71t29 71t71 29q21 0 39 -8t31.5 -21.5t21.5 -32t8 -38.5z" />
    <glyph glyph-name="at" unicode="@" horiz-adv-x="856" 
d="M619 70q-39 -1 -68 13t-42 41q-17 -26 -47 -41.5t-63 -15.5q-36 0 -66 13t-51.5 37t-34 58t-12.5 77q0 42 13.5 79t37 64t55.5 42.5t70 15.5q31 0 54.5 -12.5t37.5 -35.5l5 36h118l-27 -223q-2 -15 3 -25.5t25 -10.5q14 0 26.5 10t22 27.5t15 41.5t5.5 51q0 49 -17 89.5
t-48 69t-75 44.5t-97 16q-62 0 -115 -21t-92 -58t-61 -87.5t-22 -109.5q0 -57 19.5 -105.5t55 -83.5t85 -54.5t108.5 -19.5q119 0 206 54l65 -106q-48 -32 -121.5 -52.5t-151.5 -20.5q-85 0 -158 26t-127 75t-85 120.5t-31 163.5q0 89 32.5 163t89.5 127t134.5 82.5
t167.5 29.5q79 0 146.5 -26t116.5 -71.5t76.5 -107.5t27.5 -134q0 -57 -17.5 -102t-46.5 -77t-66 -49t-76 -17zM421 180q29 0 48 26t19 64q0 34 -16.5 52t-41.5 18q-29 0 -48 -25.5t-19 -62.5q0 -35 17 -53.5t41 -18.5z" />
    <glyph glyph-name="A" unicode="A" horiz-adv-x="738" 
d="M455 700l277 -700h-196l-45 119h-249l-44 -119h-192l277 700h172zM297 277h140l-70 191z" />
    <glyph glyph-name="B" unicode="B" horiz-adv-x="644" 
d="M64 700h279q48 0 89 -13t71 -37.5t47 -60t17 -80.5t-22 -79.5t-57 -54.5q60 -21 91 -64t31 -103q0 -48 -17.5 -86.5t-50.5 -65.5t-80.5 -41.5t-107.5 -14.5h-290v700zM342 155q35 0 56.5 16t21.5 49t-21.5 49t-56.5 16h-96v-130h96zM321 433q27 0 45.5 14t18.5 43
t-18.5 43t-45.5 14h-75v-114h75z" />
    <glyph glyph-name="C" unicode="C" horiz-adv-x="604" 
d="M34 350q0 76 27.5 142.5t76.5 116t115 77.5t144 28q41 0 82.5 -10.5t80.5 -32.5v-196q-33 26 -69.5 40t-82.5 14q-41 0 -74 -14t-56.5 -38t-36.5 -57t-13 -70t13 -69.5t36.5 -57t56.5 -38.5t74 -14q45 0 81 13.5t72 38.5v-195q-45 -24 -87.5 -33t-77.5 -9
q-79 0 -145.5 27.5t-114.5 76t-75 115t-27 145.5z" />
    <glyph glyph-name="D" unicode="D" horiz-adv-x="706" 
d="M672 350q0 -73 -28.5 -137t-78 -111t-115.5 -74.5t-140 -27.5h-246v700h246q74 0 140 -27.5t115.5 -74.5t78 -111t28.5 -137zM479 350q0 36 -13.5 67.5t-37 55.5t-55 37.5t-67.5 13.5h-54v-348h54q36 0 67.5 13.5t55 37.5t37 55.5t13.5 67.5z" />
    <glyph glyph-name="E" unicode="E" horiz-adv-x="532" 
d="M64 700h426v-170h-238v-96h214v-164h-214v-100h240v-170h-428v700z" />
    <glyph glyph-name="F" unicode="F" horiz-adv-x="510" 
d="M252 0h-188v700h414v-170h-226v-98h204v-170h-204v-262z" />
    <glyph glyph-name="G" unicode="G" horiz-adv-x="790" 
d="M562 448q-23 43 -63.5 66t-93.5 23q-38 0 -71 -14.5t-57.5 -40t-38.5 -59.5t-14 -73t14 -74t39 -60.5t57.5 -40.5t70.5 -15q54 0 96 24.5t56 64.5h-172v153h375v-70q0 -73 -27.5 -136.5t-75 -110t-112.5 -73t-140 -26.5q-78 0 -145.5 28.5t-117.5 78t-79 116t-29 141.5
t29.5 141t80 115.5t118 78.5t143.5 29q54 0 104 -12.5t92.5 -36t76 -58t55.5 -77.5z" />
    <glyph glyph-name="H" unicode="H" horiz-adv-x="728" 
d="M64 700h190v-256h220v256h190v-700h-190v264h-220v-264h-190v700z" />
    <glyph glyph-name="I" unicode="I" horiz-adv-x="318" 
d="M254 700v-700h-190v700h190z" />
    <glyph glyph-name="J" unicode="J" horiz-adv-x="555" 
d="M499 231q0 -57 -17.5 -102t-50.5 -77t-79.5 -49t-104.5 -17q-85 0 -147 40.5t-90 109.5l164 90q9 -25 28 -43.5t45 -18.5q62 0 62 73v463h190v-469v0z" />
    <glyph glyph-name="K" unicode="K" horiz-adv-x="696" 
d="M253 432l201 268h222l-264 -333l282 -367h-236l-205 284v-284h-189v700h189v-268z" />
    <glyph glyph-name="L" unicode="L" horiz-adv-x="514" 
d="M252 700v-523h240v-177h-428v700h188z" />
    <glyph glyph-name="M" unicode="M" horiz-adv-x="958" 
d="M894 700v-700h-183v393l-172 -393h-121l-171 391v-391h-183v700h231l188 -433l187 433h224z" />
    <glyph glyph-name="N" unicode="N" horiz-adv-x="772" 
d="M708 700v-700h-190l-271 397v-397h-183v700h192l269 -401v401h183z" />
    <glyph glyph-name="O" unicode="O" horiz-adv-x="810" 
d="M776 350q0 -76 -29 -142.5t-79.5 -115.5t-118 -77.5t-144.5 -28.5t-144.5 28.5t-118 77.5t-79.5 115.5t-29 142.5t29 142.5t79.5 115.5t118 77.5t144.5 28.5t144.5 -28.5t118 -77.5t79.5 -115.5t29 -142.5zM583 350q0 38 -14 71t-38 57.5t-56.5 38.5t-69.5 14
q-38 0 -70.5 -14t-56.5 -38.5t-37.5 -57.5t-13.5 -71t13.5 -71t37.5 -57.5t56.5 -38.5t70.5 -14q37 0 69.5 14t56.5 38.5t38 57.5t14 71z" />
    <glyph glyph-name="P" unicode="P" horiz-adv-x="610" 
d="M315 700q61 0 112 -16t88 -47t57 -76t20 -102t-20 -102t-57 -75.5t-88 -47t-112 -16.5h-63v-218h-188v700h251zM252 383h67q37 0 60.5 20t23.5 55t-23.5 55t-60.5 20h-67v-150z" />
    <glyph glyph-name="Q" unicode="Q" horiz-adv-x="810" 
d="M683 -24l-77 67q-44 -27 -94.5 -42t-106.5 -15q-77 0 -144.5 28.5t-118 77.5t-79.5 115.5t-29 142.5t29 142.5t79.5 115.5t118 77.5t144.5 28.5t144.5 -28.5t118 -77.5t79.5 -115.5t29 -142.5q0 -57 -16.5 -108.5t-46.5 -95.5l68 -60zM589 350q0 39 -14.5 73t-39 59.5
t-58 40t-72.5 14.5t-72.5 -14.5t-58 -40t-39 -59.5t-14.5 -73t14.5 -73t39 -59.5t58 -40t72.5 -14.5q28 0 55 8l-70 63l98 110l84 -74q17 37 17 80z" />
    <glyph glyph-name="R" unicode="R" horiz-adv-x="642" 
d="M251 0h-187v700h250q61 0 111.5 -15.5t87 -46t56.5 -74.5t20 -101q0 -73 -35.5 -123.5t-92.5 -79.5l179 -260h-220l-147 231h-22v-231zM251 383h66q36 0 59.5 20t23.5 55t-23.5 55t-59.5 20h-66v-150z" />
    <glyph glyph-name="S" unicode="S" horiz-adv-x="586" 
d="M181 246q17 -39 50 -61.5t70 -22.5q26 0 45 10.5t19 32.5q0 15 -12 26.5t-41 21.5l-85 30q-38 13 -69.5 32t-54.5 44.5t-35.5 57.5t-12.5 73q0 50 18 91t50.5 70.5t77.5 46t98 16.5q40 0 78 -10t71 -29.5t60.5 -47t45.5 -61.5l-153 -95q-15 30 -40 50t-57 20
q-26 0 -41 -11t-15 -30q0 -17 13 -26t33 -17l96 -36q87 -32 128.5 -82.5t41.5 -122.5q0 -55 -22 -98t-58.5 -72t-83.5 -44.5t-97 -15.5q-43 0 -84 11t-77 32t-65.5 52t-48.5 72z" />
    <glyph glyph-name="T" unicode="T" horiz-adv-x="568" 
d="M17 700h534v-176h-173v-524h-188v524h-173v176z" />
    <glyph glyph-name="U" unicode="U" horiz-adv-x="690" 
d="M345 -14q-66 0 -119.5 20.5t-91 58t-58 91.5t-20.5 121v423h191v-411q0 -58 25 -89t73 -31t73 31t25 89v411h191v-423q0 -67 -20.5 -121t-58 -91.5t-91 -58t-119.5 -20.5z" />
    <glyph glyph-name="V" unicode="V" horiz-adv-x="703" 
d="M269 0l-266 700h201l151 -421l150 421h195l-267 -700h-164z" />
    <glyph glyph-name="W" unicode="W" horiz-adv-x="1074" 
d="M247 0l-241 700h196l129 -420l127 420h162l126 -420l130 420h192l-241 -700h-163l-127 426l-127 -426h-163z" />
    <glyph glyph-name="X" unicode="X" horiz-adv-x="693" 
d="M236 700l112 -190l113 190h213l-218 -338l234 -362h-217l-128 211l-129 -211h-213l233 359l-217 341h217z" />
    <glyph glyph-name="Y" unicode="Y" horiz-adv-x="679" 
d="M434 0h-189v298l-247 402h214l129 -225l130 225h210l-247 -402v-298z" />
    <glyph glyph-name="Z" unicode="Z" horiz-adv-x="619" 
d="M280 169h311v-169h-565v133l304 398h-284v169h539v-133z" />
    <glyph glyph-name="bracketleft" unicode="[" horiz-adv-x="368" 
d="M55 753h283v-142h-113v-634h113v-142h-283v918z" />
    <glyph glyph-name="backslash" unicode="\" horiz-adv-x="520" 
d="M-6 765h181l368 -865h-181z" />
    <glyph glyph-name="bracketright" unicode="]" horiz-adv-x="368" 
d="M313 -165h-283v142h113v634h-113v142h283v-918z" />
    <glyph glyph-name="asciicircum" unicode="^" horiz-adv-x="500" 
d="M480 385h-160l-71 144l-71 -144h-158l163 315h134z" />
    <glyph glyph-name="underscore" unicode="_" horiz-adv-x="538" 
d="M20 -34h498v-145h-498v145z" />
    <glyph glyph-name="grave" unicode="`" horiz-adv-x="500" 
d="M179 571l-142 151h181l104 -151h-143z" />
    <glyph glyph-name="a" unicode="a" horiz-adv-x="644" 
d="M589 500v-500h-180v54q-58 -67 -153 -67q-48 0 -90 20t-72.5 55.5t-48 83.5t-17.5 104q0 55 17.5 103.5t48 83.5t72.5 55.5t90 20.5t86.5 -16.5t66.5 -50.5v54h180zM210 250q0 -21 8 -39t22 -31.5t32.5 -21.5t39.5 -8t39.5 8t32.5 21.5t22 31.5t8 39t-8 39t-22 31.5
t-32.5 21.5t-39.5 8t-39.5 -8t-32.5 -21.5t-22 -31.5t-8 -39z" />
    <glyph glyph-name="b" unicode="b" horiz-adv-x="646" 
d="M55 0v700h182v-257q27 34 65.5 52t85.5 18q49 0 91 -20t73 -55.5t48.5 -83.5t17.5 -104t-17.5 -104t-48.5 -83t-73 -55.5t-91 -20.5q-47 0 -86 16.5t-65 50.5v-54h-182zM435 250q0 21 -8 39t-22 31.5t-32 21.5t-39 8t-39.5 -8t-32.5 -21.5t-22 -31.5t-8 -39t8 -39
t22 -31.5t32.5 -21.5t39.5 -8t39 8t32 21.5t22 31.5t8 39z" />
    <glyph glyph-name="c" unicode="c" horiz-adv-x="449" 
d="M28 250q0 57 20 105.5t56 84t85.5 55t108.5 19.5q29 0 60 -6.5t57 -19.5v-166q-43 28 -91 28t-79.5 -27.5t-31.5 -72.5t31.5 -72.5t79.5 -27.5q49 0 91 30v-166q-29 -15 -60 -21.5t-60 -6.5q-57 0 -105.5 18.5t-84.5 53t-56.5 83t-20.5 109.5z" />
    <glyph glyph-name="d" unicode="d" horiz-adv-x="646" 
d="M591 700v-700h-182v54q-27 -33 -65.5 -50t-85.5 -17q-49 0 -91 20t-73 55.5t-48.5 83.5t-17.5 104q0 55 17.5 103.5t48.5 83.5t73 55.5t91 20.5q47 0 86 -16.5t65 -50.5v254h182zM211 250q0 -21 8 -39t22 -31.5t32 -21.5t39 -8t39.5 8t32.5 21.5t22 31.5t8 39t-8 39
t-22 31.5t-32.5 21.5t-39.5 8t-39 -8t-32 -21.5t-22 -31.5t-8 -39z" />
    <glyph glyph-name="e" unicode="e" horiz-adv-x="578" 
d="M539 121q-31 -65 -92.5 -100t-146.5 -35q-60 0 -110 19t-86 54t-56 83.5t-20 107.5q0 57 20.5 105t56 83.5t84 55.5t105.5 20q58 0 106.5 -19.5t82.5 -55t53 -86t19 -112.5q0 -12 -0.5 -21t-1.5 -16h-346q3 -32 29.5 -52t62.5 -20q30 0 49.5 10.5t33.5 33.5zM378 309
q-3 29 -26.5 47t-58.5 18t-58.5 -18.5t-26.5 -46.5h170z" />
    <glyph glyph-name="f" unicode="f" horiz-adv-x="401" 
d="M261 500h123v-147h-123v-353h-182v353h-67v147h67v13q0 103 59 161.5t165 58.5q25 0 48 -4.5t40 -12.5v-151q-11 5 -24.5 8.5t-30.5 3.5q-32 0 -53.5 -16.5t-21.5 -51.5v-9z" />
    <glyph glyph-name="g" unicode="g" horiz-adv-x="640" 
d="M405 64q-23 -26 -60.5 -43t-84.5 -17q-51 0 -93.5 19t-73 52.5t-48 79.5t-17.5 100q0 55 17.5 102.5t48.5 82t73.5 54t92.5 19.5q48 0 85 -18t60 -48v53h180v-466q0 -58 -19 -107.5t-55.5 -85.5t-91 -56t-126.5 -20q-94 0 -161.5 36.5t-95.5 98.5l146 81q17 -30 46 -48
t66 -18q54 0 82.5 31t28.5 90v28zM410 255q0 21 -8 38.5t-21.5 31t-31.5 21t-38 7.5t-38 -7.5t-31.5 -21t-21.5 -31t-8 -38.5t8 -38.5t21.5 -31t31.5 -21t38 -7.5t38 7.5t31.5 21t21.5 31t8 38.5z" />
    <glyph glyph-name="h" unicode="h" horiz-adv-x="603" 
d="M238 0h-183v700h183v-261q21 37 57 56t82 19q81 0 127.5 -52.5t46.5 -143.5v-318h-183v271q0 36 -17 56t-46 20q-31 0 -49 -21.5t-18 -59.5v-266z" />
    <glyph glyph-name="i" unicode="i" horiz-adv-x="295" 
d="M56 0v500h183v-500h-183zM250 641q0 -20 -8 -38.5t-22 -32.5t-32.5 -22t-40.5 -8q-21 0 -39.5 8t-32.5 22t-22 32t-8 39t8 39t22 32t32.5 22t39.5 8q22 0 40.5 -8t32.5 -22t22 -32.5t8 -38.5z" />
    <glyph glyph-name="j" unicode="j" horiz-adv-x="295" 
d="M56 500h183v-501q0 -108 -54.5 -166.5t-151.5 -58.5q-32 0 -51.5 4t-32.5 8v154q5 -2 14.5 -4t23.5 -2q35 0 52 20.5t17 56.5v489zM250 641q0 -20 -8 -38.5t-22 -32.5t-32.5 -22t-40.5 -8q-21 0 -39.5 8t-32.5 22t-22 32t-8 39t8 39t22 32t32.5 22t39.5 8q22 0 40.5 -8
t32.5 -22t22 -32.5t8 -38.5z" />
    <glyph glyph-name="k" unicode="k" horiz-adv-x="599" 
d="M588 500l-193 -227l204 -273h-216l-146 204v-204h-182v700h182v-367l138 167h213z" />
    <glyph glyph-name="l" unicode="l" horiz-adv-x="293" 
d="M238 700v-700h-183v700h183z" />
    <glyph glyph-name="m" unicode="m" horiz-adv-x="896" 
d="M238 0h-183v500h183v-59q20 32 54 52.5t82 20.5q49 0 84.5 -21t55.5 -59q26 44 68.5 62t87.5 18q85 0 129.5 -52t44.5 -140v-322h-183v272q0 36 -15.5 55.5t-43.5 19.5t-44.5 -20t-16.5 -57v-270h-183v272q0 36 -15.5 55.5t-43.5 19.5t-44.5 -20t-16.5 -57v-270z" />
    <glyph glyph-name="n" unicode="n" horiz-adv-x="603" 
d="M238 0h-183v500h183v-61q21 37 57 56t82 19q81 0 127.5 -52.5t46.5 -143.5v-318h-183v268q0 38 -17 58.5t-47 20.5t-48 -21t-18 -60v-266z" />
    <glyph glyph-name="o" unicode="o" horiz-adv-x="610" 
d="M305 514q59 0 110 -20t88 -55.5t58 -83.5t21 -105t-21 -105t-58 -83.5t-88 -55.5t-110 -20t-110 20t-88 55.5t-58 83.5t-21 105t21 105t58 83.5t88 55.5t110 20zM305 348q-20 0 -37.5 -7.5t-31 -21t-21.5 -31t-8 -38.5t8 -38.5t21.5 -31t31 -21t37.5 -7.5q19 0 37 7.5
t31.5 21t21.5 31t8 38.5t-8 38.5t-21.5 31t-31.5 21t-37 7.5z" />
    <glyph glyph-name="p" unicode="p" horiz-adv-x="646" 
d="M237 500v-57q27 34 65.5 52t85.5 18q49 0 91 -20t73 -55.5t48.5 -83.5t17.5 -104t-17.5 -104t-48.5 -83t-73 -55.5t-91 -20.5q-47 0 -86 16.5t-65 50.5v-262h-182v708h182zM435 250q0 21 -8 39t-22 31.5t-32 21.5t-39 8t-39.5 -8t-32.5 -21.5t-22 -31.5t-8 -39t8 -39
t22 -31.5t32.5 -21.5t39.5 -8t39 8t32 21.5t22 31.5t8 39z" />
    <glyph glyph-name="q" unicode="q" horiz-adv-x="646" 
d="M591 500v-708h-182v262q-27 -33 -65.5 -50t-85.5 -17q-49 0 -91 20t-73 55.5t-48.5 83.5t-17.5 104q0 55 17.5 103.5t48.5 83.5t73 55.5t91 20.5q47 0 86 -16.5t65 -50.5v54h182zM211 250q0 -21 8 -39t22 -31.5t32 -21.5t39 -8t39.5 8t32.5 21.5t22 31.5t8 39t-8 39
t-22 31.5t-32.5 21.5t-39.5 8t-39 -8t-32 -21.5t-22 -31.5t-8 -39z" />
    <glyph glyph-name="r" unicode="r" horiz-adv-x="418" 
d="M400 320q-10 4 -21.5 5.5t-22.5 1.5q-57 0 -88 -37.5t-31 -107.5v-182h-182v500h181v-79q20 44 54.5 67.5t82.5 23.5q17 0 27 -4v-188z" />
    <glyph glyph-name="s" unicode="s" horiz-adv-x="487" 
d="M467 160q0 -41 -16 -73t-45 -54.5t-70.5 -34.5t-92.5 -12q-66 0 -126.5 18t-105.5 50l72 127q37 -23 80.5 -37t80.5 -14q42 0 42 21q0 11 -12 16t-41 12l-26 6q-89 20 -129.5 57t-40.5 101q0 39 15.5 70t43.5 53.5t67.5 34.5t88.5 12q55 0 106 -15t104 -44l-63 -128
q-39 21 -77 33t-68 12q-20 0 -28.5 -4.5t-8.5 -15.5q0 -9 12.5 -14t43.5 -13l27 -7q88 -23 127.5 -60.5t39.5 -96.5z" />
    <glyph glyph-name="t" unicode="t" horiz-adv-x="397" 
d="M260 643v-143h117v-147h-117v-135q0 -38 16 -53.5t47 -15.5q14 0 28 4t26 11v-154q-18 -9 -47 -16t-71 -7q-84 0 -132.5 49t-48.5 139v178h-67v147h67v143h182z" />
    <glyph glyph-name="u" unicode="u" horiz-adv-x="601" 
d="M546 0h-183v61q-21 -37 -56.5 -56t-81.5 -19q-81 0 -127 52.5t-46 143.5v318h183v-268q0 -38 16.5 -58.5t46.5 -20.5q29 0 47 21t18 60v266h183v-500z" />
    <glyph glyph-name="v" unicode="v" horiz-adv-x="582" 
d="M4 500h193l97 -278l97 278h187l-201 -500h-172z" />
    <glyph glyph-name="w" unicode="w" horiz-adv-x="839" 
d="M507 0l-88 267l-87 -267h-156l-170 500h185l78 -260l85 260h135l84 -260l79 260h181l-170 -500h-156z" />
    <glyph glyph-name="x" unicode="x" horiz-adv-x="590" 
d="M292 124l-85 -124h-201l184 252l-177 248h208l76 -115l78 115h202l-177 -244l184 -256h-207z" />
    <glyph glyph-name="y" unicode="y" horiz-adv-x="607" 
d="M149 -226q-37 0 -62 7.5t-39 15.5v149q31 -14 63 -14q33 0 57.5 11.5t36.5 40.5l4 10l-205 506h193l109 -306l109 306h188l-213 -524q-44 -107 -103 -154.5t-138 -47.5z" />
    <glyph glyph-name="z" unicode="z" horiz-adv-x="513" 
d="M480 386l-212 -240h216v-146h-455v116l210 238h-199v146h440v-114z" />
    <glyph glyph-name="braceleft" unicode="{" horiz-adv-x="384" 
d="M93 556q-5 106 46.5 152t156.5 46q23 0 58 -3v-126h-20q-34 0 -53.5 -15t-17.5 -59l5 -108q1 -26 -2 -47t-12 -38.5t-25 -32.5t-40 -29q24 -15 40 -30t25 -33t12 -39.5t2 -48.5l-5 -108q-2 -44 17.5 -59t53.5 -15h20v-126q-31 -3 -58 -3q-105 0 -156.5 46t-46.5 152
l5 109q2 39 -17.5 62.5t-55.5 28.5v122q36 5 55.5 29.5t17.5 63.5z" />
    <glyph glyph-name="bar" unicode="|" horiz-adv-x="308" 
d="M69 -156v921h170v-921h-170z" />
    <glyph glyph-name="braceright" unicode="}" horiz-adv-x="384" 
d="M291 32q5 -106 -46.5 -152t-156.5 -46q-23 0 -58 3v126h20q34 0 53.5 15t17.5 59l-5 108q-1 26 2 47t12 38.5t25 32.5t40 29q-24 15 -40 30t-25 33t-12 39.5t-2 48.5l5 108q2 44 -17.5 59t-53.5 15h-20v126q31 3 58 3q105 0 156.5 -46t46.5 -152l-5 -109
q-2 -39 17.5 -62.5t55.5 -28.5v-122q-36 -5 -55.5 -29.5t-17.5 -63.5z" />
    <glyph glyph-name="asciitilde" unicode="~" horiz-adv-x="525" 
d="M34 187q2 79 40.5 124.5t106.5 45.5q33 0 54 -8t36.5 -17t28 -17t29.5 -8q20 0 31.5 11.5t12.5 32.5h118q-2 -79 -40.5 -124.5t-106.5 -45.5q-33 0 -54 8t-36.5 17t-28.5 17t-29 8q-20 0 -31.5 -11.5t-12.5 -32.5h-118z" />
    <glyph glyph-name="nonbreakingspace" unicode="&#xa0;" horiz-adv-x="225" 
 />
    <glyph glyph-name="exclamdown" unicode="&#xa1;" horiz-adv-x="320" 
d="M241 266l16 -474h-194l16 474h162zM60 414q0 20 7.5 38.5t21 32t32 21.5t39.5 8q42 0 71 -29t29 -71t-29 -71t-71 -29q-21 0 -39.5 8t-32 21.5t-21 32t-7.5 38.5z" />
    <glyph glyph-name="cent" unicode="&#xa2;" horiz-adv-x="429" 
d="M30 343q0 43 12.5 81.5t36 69.5t56 53t71.5 34v105h116v-96q38 -6 73 -22v-156q-22 14 -42.5 20.5t-43.5 6.5q-43 0 -73 -27t-30 -69t29.5 -69t73.5 -27q23 0 43.5 7t42.5 21v-156q-35 -17 -73 -23v-96h-116v103q-39 11 -71 32.5t-55.5 52t-36.5 70t-13 85.5z" />
    <glyph glyph-name="sterling" unicode="&#xa3;" horiz-adv-x="615" 
d="M109 463q0 51 16 93.5t46.5 73t75 47.5t100.5 17q54 0 98 -17.5t75 -48t48 -73t17 -91.5h-177q-1 26 -16 45t-41 19q-29 0 -42.5 -20.5t-13.5 -51.5v-50h137v-144h-137v-15q0 -30 -8 -51.5t-25 -31.5h317v-164h-531v164h6q26 0 40.5 18.5t14.5 62.5v17h-61v144h61v57z
" />
    <glyph glyph-name="currency" unicode="&#xa4;" 
d="M544 332q0 -34 -9 -65t-26 -57l78 -77l-88 -88l-81 80q-53 -29 -118 -29t-118 29l-80 -80l-88 88l77 77q-17 26 -26 57t-9 65t9 64.5t26 57.5l-77 77l88 88l80 -80q26 14 56 21.5t62 7.5t62 -8t56 -22l81 81l88 -88l-78 -78q17 -26 26 -56.5t9 -64.5zM384 332
q0 36 -24 60t-60 24t-60 -24t-24 -60t24 -60t60 -24t60 24t24 60z" />
    <glyph glyph-name="yen" unicode="&#xa5;" horiz-adv-x="655" 
d="M78 408h92l-162 277h206l115 -212l116 212h202l-161 -277h93v-113h-159v-46h159v-113h-159v-136h-183v136h-159v113h159v46h-159v113z" />
    <glyph glyph-name="brokenbar" unicode="&#xa6;" horiz-adv-x="308" 
d="M69 385v380h170v-380h-170zM239 228v-384h-170v384h170z" />
    <glyph glyph-name="section" unicode="&#xa7;" horiz-adv-x="533" 
d="M327 515q-2 26 -17.5 42t-41.5 16q-23 0 -37.5 -12.5t-14.5 -32.5q0 -17 12 -27.5t32 -17.5l70 -23q44 -15 77 -30.5t55.5 -34t34 -42t11.5 -53.5q0 -38 -21.5 -68t-61.5 -52q60 -51 60 -121q0 -42 -16 -76.5t-45 -59t-69.5 -38.5t-89.5 -14q-48 0 -87.5 14t-68 40
t-44.5 63t-16 82h157q2 -26 17.5 -42t41.5 -16q23 0 37.5 12.5t14.5 32.5q0 17 -12 27.5t-32 17.5l-70 23q-44 15 -77 30t-55.5 34t-34 42.5t-11.5 53.5q0 37 21.5 67.5t60.5 52.5q-59 50 -59 121q0 42 16 76.5t45 59t69.5 38.5t89.5 14q48 0 87.5 -14t68 -40t44.5 -63
t16 -82h-157zM338 282q0 17 -18 28.5t-53 22.5l-39 13q-33 -19 -33 -43q0 -17 18 -28.5t53 -22.5l39 -13q33 17 33 43z" />
    <glyph glyph-name="dieresis" unicode="&#xa8;" horiz-adv-x="500" 
d="M225 645q0 -33 -24 -57.5t-59 -24.5q-34 0 -58 24t-24 58t24 58t58 24q35 0 59 -24.5t24 -57.5zM439 645q0 -33 -24 -57.5t-59 -24.5q-34 0 -58 24t-24 58t24 58t58 24q35 0 59 -24.5t24 -57.5z" />
    <glyph glyph-name="copyright" unicode="&#xa9;" horiz-adv-x="804" 
d="M246 349q0 38 13.5 70t37.5 55.5t57 37t72 13.5q37 0 73 -17v-109q-29 18 -57 18q-31 0 -52 -19t-21 -49q0 -29 20.5 -47.5t52.5 -18.5q29 0 57 19v-109q-39 -18 -75 -18q-38 0 -70.5 12.5t-56.5 35t-37.5 55t-13.5 71.5zM768 350q0 -75 -29 -141.5t-78.5 -116t-116 -78
t-142.5 -28.5t-142.5 28.5t-116 78t-78.5 116t-29 141.5t29 141.5t78.5 116t116 78t142.5 28.5t142.5 -28.5t116 -78t78.5 -116t29 -141.5zM644 350q0 51 -19.5 95.5t-52.5 77.5t-77 52.5t-93 19.5q-50 0 -94 -19.5t-77 -52.5t-52 -77.5t-19 -95.5t19 -95.5t52 -77.5
t77 -52.5t94 -19.5q49 0 93 19.5t77 52.5t52.5 77.5t19.5 95.5z" />
    <glyph glyph-name="ordfeminine" unicode="&#xaa;" horiz-adv-x="495" 
d="M444 672v-373h-134v44q-17 -26 -47 -40t-65 -14q-37 0 -68.5 14.5t-54.5 41t-36 62.5t-13 78q0 43 13 79t36 62t54.5 40.5t68.5 14.5t66.5 -14t45.5 -38v43h134zM238 411q31 0 53.5 21.5t22.5 52.5q0 32 -22.5 53.5t-53.5 21.5t-53.5 -21.5t-22.5 -53.5q0 -31 22.5 -52.5
t53.5 -21.5z" />
    <glyph glyph-name="guillemotleft" unicode="&#xab;" horiz-adv-x="568" 
d="M30 269l133 202h154l-131 -202l132 -202h-158zM256 269l133 202h154l-131 -202l132 -202h-158z" />
    <glyph glyph-name="logicalnot" unicode="&#xac;" 
d="M60 506h480v-345h-153v194h-327v151z" />
    <glyph glyph-name="registered" unicode="&#xae;" horiz-adv-x="804" 
d="M768 350q0 -75 -29 -141.5t-78.5 -116t-116 -78t-142.5 -28.5t-142.5 28.5t-116 78t-78.5 116t-29 141.5t29 141.5t78.5 116t116 78t142.5 28.5t142.5 -28.5t116 -78t78.5 -116t29 -141.5zM644 350q0 51 -19.5 95.5t-52.5 77.5t-77 52.5t-93 19.5q-50 0 -94 -19.5
t-77 -52.5t-52 -77.5t-19 -95.5t19 -95.5t52 -77.5t77 -52.5t94 -19.5q49 0 93 19.5t77 52.5t52.5 77.5t19.5 95.5zM541 399q0 -29 -14 -52.5t-40 -38.5l73 -121h-121l-51 93h-11v-93h-105v326h139q57 0 93.5 -30t36.5 -84zM434 396q0 14 -10.5 21.5t-24.5 7.5h-22v-60h22
q14 0 24.5 7.5t10.5 23.5z" />
    <glyph glyph-name="macron" unicode="&#xaf;" horiz-adv-x="500" 
d="M84 571v121h332v-121h-332z" />
    <glyph glyph-name="degree" unicode="&#xb0;" horiz-adv-x="432" 
d="M216 700q37 0 69 -13t56 -36t37.5 -53.5t13.5 -66.5t-13.5 -66.5t-37.5 -53.5t-56 -36t-69 -13t-69 13t-56 36t-37.5 53.5t-13.5 66.5t13.5 66.5t37.5 53.5t56 36t69 13zM158 531q0 -26 16.5 -42.5t41.5 -16.5t41.5 16.5t16.5 42.5t-16.5 42.5t-41.5 16.5t-41.5 -16.5
t-16.5 -42.5z" />
    <glyph glyph-name="plusminus" unicode="&#xb1;" 
d="M60 519h164v148h151v-148h165v-149h-165v-140h-151v140h-164v149zM60 171h480v-149h-480v149z" />
    <glyph glyph-name="twosuperior" unicode="&#xb2;" horiz-adv-x="359" 
d="M336 299h-306v97l143 105q21 16 29.5 28.5t8.5 25.5q0 12 -7.5 19.5t-21.5 7.5t-23 -10.5t-10 -28.5h-120q0 69 42 111t110 42q33 0 61.5 -10t48.5 -28t31.5 -42.5t11.5 -53.5q0 -39 -23 -72t-72 -66l-25 -17h122v-108z" />
    <glyph glyph-name="threesuperior" unicode="&#xb3;" horiz-adv-x="367" 
d="M174 540q15 0 24.5 7.5t9.5 21.5q0 10 -8 16.5t-19 6.5q-27 0 -29 -28h-115q0 60 40.5 96t105.5 36q31 0 57.5 -8.5t45.5 -23.5t30 -36t11 -45q0 -46 -43 -77q29 -15 43.5 -36.5t14.5 -51.5q0 -29 -11.5 -52.5t-32 -40t-49.5 -26t-63 -9.5q-72 0 -114 38t-42 103h119
q0 -14 10.5 -24t27.5 -10q15 0 24 8t9 20q0 16 -11 24t-31 8h-18v83h14z" />
    <glyph glyph-name="acute" unicode="&#xb4;" horiz-adv-x="500" 
d="M179 571l104 151h181l-142 -151h-143z" />
    <glyph glyph-name="uni00B5" unicode="&#xb5;" horiz-adv-x="604" 
d="M238 500v-268q0 -38 16.5 -58.5t46.5 -20.5q29 0 47 21t18 60v266h183v-500h-183v61q-20 -35 -53 -54t-75 -21v-194h-183v708h183z" />
    <glyph glyph-name="paragraph" unicode="&#xb6;" horiz-adv-x="688" 
d="M377 -108h-131v376q-52 1 -94.5 16.5t-73 43t-47 67t-16.5 89.5q0 51 17.5 91.5t50 68t77 42t98.5 14.5h410v-125h-70v-683h-131v683h-90v-683z" />
    <glyph glyph-name="periodcentered" unicode="&#xb7;" horiz-adv-x="302" 
d="M257 269q0 -21 -8.5 -40t-22.5 -33.5t-33.5 -23t-41.5 -8.5t-41 8.5t-33.5 22.5t-23 33.5t-8.5 40.5t8.5 40.5t23 33.5t33.5 22.5t41 8.5t41 -8.5t33.5 -22.5t23 -33.5t8.5 -40.5z" />
    <glyph glyph-name="cedilla" unicode="&#xb8;" horiz-adv-x="500" 
d="M266 -41q41 0 67 -26t26 -66q0 -48 -31 -75.5t-78 -27.5q-53 0 -83 26t-32 67h87q1 -6 8 -13t19 -7t19.5 7.5t7.5 18.5t-7.5 18.5t-19.5 7.5q-7 0 -12.5 -3.5t-9.5 -8.5l-77 38l33 85h84l-19 -43q10 2 18 2z" />
    <glyph glyph-name="onesuperior" unicode="&#xb9;" horiz-adv-x="261" 
d="M87 299v278h-62v110h186v-388h-124z" />
    <glyph glyph-name="ordmasculine" unicode="&#xba;" horiz-adv-x="465" 
d="M233 682q44 0 81.5 -15t65.5 -41t43.5 -62.5t15.5 -78.5t-15.5 -78t-43.5 -62t-65.5 -41t-81.5 -15t-82 15t-66 41t-43.5 62t-15.5 78t15.5 78.5t43.5 62.5t66 41t82 15zM233 558q-29 0 -51 -21t-22 -52t22 -52t51 -21t51 21t22 52t-22 52t-51 21z" />
    <glyph glyph-name="guillemotright" unicode="&#xbb;" horiz-adv-x="568" 
d="M538 269l-133 -202h-154l131 202l-132 202h158zM312 269l-133 -202h-154l131 202l-132 202h158z" />
    <glyph glyph-name="onequarter" unicode="&#xbc;" horiz-adv-x="819" 
d="M87 299v278h-62v110h186v-388h-124zM200 0h-143l510 687h143zM761 168h45v-97h-45v-71h-117v71h-180v80l146 237h151v-220zM587 168h57v97z" />
    <glyph glyph-name="onehalf" unicode="&#xbd;" horiz-adv-x="835" 
d="M87 299v278h-62v110h186v-388h-124zM200 0h-143l510 687h143zM812 0h-306v97l143 105q21 16 29.5 28.5t8.5 25.5q0 12 -7.5 19.5t-21.5 7.5t-23 -10.5t-10 -28.5h-120q0 69 42 111t110 42q33 0 61.5 -10t48.5 -28t31.5 -42.5t11.5 -53.5q0 -39 -23 -72t-72 -66l-25 -17
h122v-108z" />
    <glyph glyph-name="threequarters" unicode="&#xbe;" horiz-adv-x="905" 
d="M174 540q15 0 24.5 7.5t9.5 21.5q0 10 -8 16.5t-19 6.5q-27 0 -29 -28h-115q0 60 40.5 96t105.5 36q31 0 57.5 -8.5t45.5 -23.5t30 -36t11 -45q0 -46 -43 -77q29 -15 43.5 -36.5t14.5 -51.5q0 -29 -11.5 -52.5t-32 -40t-49.5 -26t-63 -9.5q-72 0 -114 38t-42 103h119
q0 -14 10.5 -24t27.5 -10q15 0 24 8t9 20q0 16 -11 24t-31 8h-18v83h14zM286 0h-143l510 687h143zM847 168h45v-97h-45v-71h-117v71h-180v80l146 237h151v-220zM673 168h57v97z" />
    <glyph glyph-name="questiondown" unicode="&#xbf;" horiz-adv-x="565" 
d="M35 0q0 93 72 154q15 13 32 25t31.5 24t23.5 23.5t9 25.5v14h179v-33q0 -35 -25 -70t-73 -65q-32 -20 -48 -39t-16 -42t17 -40t46 -17t47 20.5t19 51.5h181q0 -55 -17.5 -100t-50 -77.5t-78.5 -50.5t-102 -18q-54 0 -99.5 16t-78 44.5t-51 67.5t-18.5 86zM191 414
q0 20 7.5 38.5t21 32t32 21.5t39.5 8q42 0 71 -29t29 -71t-29 -71t-71 -29q-21 0 -39.5 8t-32 21.5t-21 32t-7.5 38.5z" />
    <glyph glyph-name="Agrave" unicode="&#xc0;" horiz-adv-x="738" 
d="M455 700l277 -700h-196l-45 119h-249l-44 -119h-192l277 700h172zM297 277h140l-70 191zM294 753l-142 151h181l104 -151h-143z" />
    <glyph glyph-name="Aacute" unicode="&#xc1;" horiz-adv-x="738" 
d="M455 700l277 -700h-196l-45 119h-249l-44 -119h-192l277 700h172zM297 277h140l-70 191zM305 753l104 151h181l-142 -151h-143z" />
    <glyph glyph-name="Acircumflex" unicode="&#xc2;" horiz-adv-x="738" 
d="M455 700l277 -700h-196l-45 119h-249l-44 -119h-192l277 700h172zM297 277h140l-70 191zM190 753l110 151h138l110 -151h-144l-37 57l-37 -57h-140z" />
    <glyph glyph-name="Atilde" unicode="&#xc3;" horiz-adv-x="738" 
d="M455 700l277 -700h-196l-45 119h-249l-44 -119h-192l277 700h172zM297 277h140l-70 191zM183 754q2 72 34 113t88 41q26 0 43 -7t29 -15.5t22.5 -15.5t23.5 -7q14 0 24 10.5t11 29.5h101q-2 -72 -34 -113t-88 -41q-26 0 -43 7t-29 15.5t-22.5 15.5t-23.5 7
q-15 0 -24.5 -10.5t-10.5 -29.5h-101z" />
    <glyph glyph-name="Adieresis" unicode="&#xc4;" horiz-adv-x="738" 
d="M455 700l277 -700h-196l-45 119h-249l-44 -119h-192l277 700h172zM297 277h140l-70 191zM345 828q0 -33 -24 -57.5t-59 -24.5q-34 0 -58 24t-24 58t24 58t58 24q35 0 59 -24.5t24 -57.5zM559 828q0 -33 -24 -57.5t-59 -24.5q-34 0 -58 24t-24 58t24 58t58 24
q35 0 59 -24.5t24 -57.5z" />
    <glyph glyph-name="Aring" unicode="&#xc5;" horiz-adv-x="738" 
d="M455 700l277 -700h-196l-45 119h-249l-44 -119h-192l277 700h172zM297 277h140l-70 191zM369 736q-23 0 -44 8.5t-36.5 23t-24.5 34.5t-9 43t9 43t24.5 34.5t36.5 23t44 8.5t44 -8.5t36.5 -23t24.5 -34.5t9 -43t-9 -43t-24.5 -34.5t-36.5 -23t-44 -8.5zM369 877
q-13 0 -22.5 -9t-9.5 -23t9.5 -23t22.5 -9t22.5 9t9.5 23t-9.5 23t-22.5 9z" />
    <glyph glyph-name="AE" unicode="&#xc6;" horiz-adv-x="960" 
d="M492 119h-222l-68 -119h-202l407 700h511v-170h-239v-96h215v-164h-215v-100h241v-170h-428v119zM492 277v242l-136 -242h136z" />
    <glyph glyph-name="Ccedilla" unicode="&#xc7;" horiz-adv-x="604" 
d="M384 -41q41 0 67 -26t26 -66q0 -48 -31 -75.5t-78 -27.5q-53 0 -83 26t-32 67h87q1 -6 8 -13t19 -7t19.5 7.5t7.5 18.5t-7.5 18.5t-19.5 7.5q-7 0 -12.5 -3.5t-9.5 -8.5l-77 38l32 83q-59 15 -107.5 47t-84 77.5t-55 103.5t-19.5 124q0 77 28.5 143.5t77.5 115.5
t115.5 77t143.5 28q40 0 81.5 -10.5t79.5 -32.5v-196q-33 26 -69.5 40t-82.5 14q-40 0 -73 -14t-57 -38t-37 -57t-13 -70t13 -69.5t37 -57t57 -38.5t73 -14q45 0 81 13.5t72 38.5v-195q-45 -24 -86.5 -33t-76.5 -9h-19l-13 -29q10 2 18 2z" />
    <glyph glyph-name="Egrave" unicode="&#xc8;" horiz-adv-x="532" 
d="M64 700h426v-170h-238v-96h214v-164h-214v-100h240v-170h-428v700zM232 753l-142 151h181l104 -151h-143z" />
    <glyph glyph-name="Eacute" unicode="&#xc9;" horiz-adv-x="532" 
d="M64 700h426v-170h-238v-96h214v-164h-214v-100h240v-170h-428v700zM194 753l104 151h181l-142 -151h-143z" />
    <glyph glyph-name="Ecircumflex" unicode="&#xca;" horiz-adv-x="532" 
d="M64 700h426v-170h-238v-96h214v-164h-214v-100h240v-170h-428v700zM99 753l110 151h138l110 -151h-144l-37 57l-37 -57h-140z" />
    <glyph glyph-name="Edieresis" unicode="&#xcb;" horiz-adv-x="532" 
d="M64 700h426v-170h-238v-96h214v-164h-214v-100h240v-170h-428v700zM255 828q0 -33 -24 -57.5t-59 -24.5q-34 0 -58 24t-24 58t24 58t58 24q35 0 59 -24.5t24 -57.5zM469 828q0 -33 -24 -57.5t-59 -24.5q-34 0 -58 24t-24 58t24 58t58 24q35 0 59 -24.5t24 -57.5z" />
    <glyph glyph-name="Igrave" unicode="&#xcc;" horiz-adv-x="318" 
d="M254 700v-700h-190v700h190zM92 753l-142 151h181l104 -151h-143z" />
    <glyph glyph-name="Iacute" unicode="&#xcd;" horiz-adv-x="318" 
d="M254 700v-700h-190v700h190zM83 753l104 151h181l-142 -151h-143z" />
    <glyph glyph-name="Icircumflex" unicode="&#xce;" horiz-adv-x="318" 
d="M254 700v-700h-190v700h190zM-20 753l110 151h138l110 -151h-144l-37 57l-37 -57h-140z" />
    <glyph glyph-name="Idieresis" unicode="&#xcf;" horiz-adv-x="318" 
d="M254 700v-700h-190v700h190zM135 828q0 -33 -24 -57.5t-59 -24.5q-34 0 -58 24t-24 58t24 58t58 24q35 0 59 -24.5t24 -57.5zM349 828q0 -33 -24 -57.5t-59 -24.5q-34 0 -58 24t-24 58t24 58t58 24q35 0 59 -24.5t24 -57.5z" />
    <glyph glyph-name="Eth" unicode="&#xd0;" horiz-adv-x="721" 
d="M687 350q0 -73 -28.5 -137t-78 -111t-115.5 -74.5t-140 -27.5h-246v278h-67v148h67v274h246q74 0 140 -27.5t115.5 -74.5t78 -111t28.5 -137zM386 278h-119v-102h54q36 0 67.5 13.5t55 37.5t37 55.5t13.5 67.5t-13.5 67.5t-37 55.5t-55 37.5t-67.5 13.5h-54v-98h119v-148
z" />
    <glyph glyph-name="Ntilde" unicode="&#xd1;" horiz-adv-x="772" 
d="M708 700v-700h-190l-271 397v-397h-183v700h192l269 -401v401h183zM216 754q2 72 34 113t88 41q26 0 43 -7t29 -15.5t22.5 -15.5t23.5 -7q14 0 24 10.5t11 29.5h101q-2 -72 -34 -113t-88 -41q-26 0 -43 7t-29 15.5t-22.5 15.5t-23.5 7q-15 0 -24.5 -10.5t-10.5 -29.5
h-101z" />
    <glyph glyph-name="Ograve" unicode="&#xd2;" horiz-adv-x="810" 
d="M776 350q0 -76 -29 -142.5t-79.5 -115.5t-118 -77.5t-144.5 -28.5t-144.5 28.5t-118 77.5t-79.5 115.5t-29 142.5t29 142.5t79.5 115.5t118 77.5t144.5 28.5t144.5 -28.5t118 -77.5t79.5 -115.5t29 -142.5zM583 350q0 38 -14 71t-38 57.5t-56.5 38.5t-69.5 14
q-38 0 -70.5 -14t-56.5 -38.5t-37.5 -57.5t-13.5 -71t13.5 -71t37.5 -57.5t56.5 -38.5t70.5 -14q37 0 69.5 14t56.5 38.5t38 57.5t14 71zM334 753l-142 151h181l104 -151h-143z" />
    <glyph glyph-name="Oacute" unicode="&#xd3;" horiz-adv-x="810" 
d="M776 350q0 -76 -29 -142.5t-79.5 -115.5t-118 -77.5t-144.5 -28.5t-144.5 28.5t-118 77.5t-79.5 115.5t-29 142.5t29 142.5t79.5 115.5t118 77.5t144.5 28.5t144.5 -28.5t118 -77.5t79.5 -115.5t29 -142.5zM583 350q0 38 -14 71t-38 57.5t-56.5 38.5t-69.5 14
q-38 0 -70.5 -14t-56.5 -38.5t-37.5 -57.5t-13.5 -71t13.5 -71t37.5 -57.5t56.5 -38.5t70.5 -14q37 0 69.5 14t56.5 38.5t38 57.5t14 71zM333 753l104 151h181l-142 -151h-143z" />
    <glyph glyph-name="Ocircumflex" unicode="&#xd4;" horiz-adv-x="810" 
d="M776 350q0 -76 -29 -142.5t-79.5 -115.5t-118 -77.5t-144.5 -28.5t-144.5 28.5t-118 77.5t-79.5 115.5t-29 142.5t29 142.5t79.5 115.5t118 77.5t144.5 28.5t144.5 -28.5t118 -77.5t79.5 -115.5t29 -142.5zM583 350q0 38 -14 71t-38 57.5t-56.5 38.5t-69.5 14
q-38 0 -70.5 -14t-56.5 -38.5t-37.5 -57.5t-13.5 -71t13.5 -71t37.5 -57.5t56.5 -38.5t70.5 -14q37 0 69.5 14t56.5 38.5t38 57.5t14 71zM226 753l110 151h138l110 -151h-144l-37 57l-37 -57h-140z" />
    <glyph glyph-name="Otilde" unicode="&#xd5;" horiz-adv-x="810" 
d="M776 350q0 -76 -29 -142.5t-79.5 -115.5t-118 -77.5t-144.5 -28.5t-144.5 28.5t-118 77.5t-79.5 115.5t-29 142.5t29 142.5t79.5 115.5t118 77.5t144.5 28.5t144.5 -28.5t118 -77.5t79.5 -115.5t29 -142.5zM583 350q0 38 -14 71t-38 57.5t-56.5 38.5t-69.5 14
q-38 0 -70.5 -14t-56.5 -38.5t-37.5 -57.5t-13.5 -71t13.5 -71t37.5 -57.5t56.5 -38.5t70.5 -14q37 0 69.5 14t56.5 38.5t38 57.5t14 71zM220 754q2 72 34 113t88 41q26 0 43 -7t29 -15.5t22.5 -15.5t23.5 -7q14 0 24 10.5t11 29.5h101q-2 -72 -34 -113t-88 -41q-26 0 -43 7
t-29 15.5t-22.5 15.5t-23.5 7q-15 0 -24.5 -10.5t-10.5 -29.5h-101z" />
    <glyph glyph-name="Odieresis" unicode="&#xd6;" horiz-adv-x="810" 
d="M776 350q0 -76 -29 -142.5t-79.5 -115.5t-118 -77.5t-144.5 -28.5t-144.5 28.5t-118 77.5t-79.5 115.5t-29 142.5t29 142.5t79.5 115.5t118 77.5t144.5 28.5t144.5 -28.5t118 -77.5t79.5 -115.5t29 -142.5zM583 350q0 38 -14 71t-38 57.5t-56.5 38.5t-69.5 14
q-38 0 -70.5 -14t-56.5 -38.5t-37.5 -57.5t-13.5 -71t13.5 -71t37.5 -57.5t56.5 -38.5t70.5 -14q37 0 69.5 14t56.5 38.5t38 57.5t14 71zM381 828q0 -33 -24 -57.5t-59 -24.5q-34 0 -58 24t-24 58t24 58t58 24q35 0 59 -24.5t24 -57.5zM595 828q0 -33 -24 -57.5t-59 -24.5
q-34 0 -58 24t-24 58t24 58t58 24q35 0 59 -24.5t24 -57.5z" />
    <glyph glyph-name="multiply" unicode="&#xd7;" 
d="M151 588l148 -149l149 149l107 -107l-149 -149l149 -148l-107 -107l-149 148l-148 -148l-107 107l148 148l-148 149z" />
    <glyph glyph-name="Oslash" unicode="&#xd8;" horiz-adv-x="810" 
d="M701 571q35 -46 55 -102t20 -119q0 -76 -29 -142.5t-79.5 -115.5t-118 -77.5t-144.5 -28.5q-62 0 -117.5 18t-102.5 51l-77 -77l-75 75l76 76q-36 46 -55.5 102t-19.5 119q0 76 29 142.5t79.5 115.5t118 77.5t144.5 28.5q62 0 117.5 -18.5t101.5 -51.5l78 78l75 -75z
M221 350q0 -49 21 -88l252 252q-20 11 -42.5 17t-46.5 6q-39 0 -72.5 -14.5t-58 -40t-39 -59.5t-14.5 -73zM589 350q0 24 -5.5 46t-15.5 42l-252 -252q40 -23 89 -23q39 0 72.5 14.5t58 40t39 59.5t14.5 73z" />
    <glyph glyph-name="Ugrave" unicode="&#xd9;" horiz-adv-x="690" 
d="M345 -14q-66 0 -119.5 20.5t-91 58t-58 91.5t-20.5 121v423h191v-411q0 -58 25 -89t73 -31t73 31t25 89v411h191v-423q0 -67 -20.5 -121t-58 -91.5t-91 -58t-119.5 -20.5zM285 753l-142 151h181l104 -151h-143z" />
    <glyph glyph-name="Uacute" unicode="&#xda;" horiz-adv-x="690" 
d="M345 -14q-66 0 -119.5 20.5t-91 58t-58 91.5t-20.5 121v423h191v-411q0 -58 25 -89t73 -31t73 31t25 89v411h191v-423q0 -67 -20.5 -121t-58 -91.5t-91 -58t-119.5 -20.5zM262 753l104 151h181l-142 -151h-143z" />
    <glyph glyph-name="Ucircumflex" unicode="&#xdb;" horiz-adv-x="690" 
d="M345 -14q-66 0 -119.5 20.5t-91 58t-58 91.5t-20.5 121v423h191v-411q0 -58 25 -89t73 -31t73 31t25 89v411h191v-423q0 -67 -20.5 -121t-58 -91.5t-91 -58t-119.5 -20.5zM167 753l110 151h138l110 -151h-144l-37 57l-37 -57h-140z" />
    <glyph glyph-name="Udieresis" unicode="&#xdc;" horiz-adv-x="690" 
d="M345 -14q-66 0 -119.5 20.5t-91 58t-58 91.5t-20.5 121v423h191v-411q0 -58 25 -89t73 -31t73 31t25 89v411h191v-423q0 -67 -20.5 -121t-58 -91.5t-91 -58t-119.5 -20.5zM321 828q0 -33 -24 -57.5t-59 -24.5q-34 0 -58 24t-24 58t24 58t58 24q35 0 59 -24.5t24 -57.5z
M535 828q0 -33 -24 -57.5t-59 -24.5q-34 0 -58 24t-24 58t24 58t58 24q35 0 59 -24.5t24 -57.5z" />
    <glyph glyph-name="Yacute" unicode="&#xdd;" horiz-adv-x="679" 
d="M434 0h-189v298l-247 402h214l129 -225l130 225h210l-247 -402v-298zM261 753l104 151h181l-142 -151h-143z" />
    <glyph glyph-name="Thorn" unicode="&#xde;" horiz-adv-x="610" 
d="M252 700v-103h63q61 0 112 -16t88 -47t57 -76t20 -102t-20 -102t-57 -75.5t-88 -47t-112 -16.5h-63v-115h-188v700h188zM252 280h67q37 0 60.5 20t23.5 55t-23.5 55t-60.5 20h-67v-150z" />
    <glyph glyph-name="germandbls" unicode="&#xdf;" horiz-adv-x="631" 
d="M55 498q0 53 19 98.5t52.5 79t80.5 52.5t104 19q55 0 102 -15.5t80.5 -43.5t52.5 -67t19 -86q0 -45 -21.5 -82t-63.5 -62q59 -27 90 -76.5t31 -105.5q0 -48 -16 -88.5t-46.5 -69.5t-74 -45.5t-97.5 -16.5q-25 0 -46.5 2.5t-41.5 8.5v142q18 -6 52 -6q38 0 64 24t26 62
q0 36 -28 61t-71 25h-37v140h25q36 0 58 22.5t22 51.5q0 32 -22 53t-53 21q-37 0 -58.5 -25.5t-21.5 -67.5v-503h-180v498z" />
    <glyph glyph-name="agrave" unicode="&#xe0;" horiz-adv-x="644" 
d="M589 500v-500h-180v54q-58 -67 -153 -67q-48 0 -90 20t-72.5 55.5t-48 83.5t-17.5 104q0 55 17.5 103.5t48 83.5t72.5 55.5t90 20.5t86.5 -16.5t66.5 -50.5v54h180zM210 250q0 -21 8 -39t22 -31.5t32.5 -21.5t39.5 -8t39.5 8t32.5 21.5t22 31.5t8 39t-8 39t-22 31.5
t-32.5 21.5t-39.5 8t-39.5 -8t-32.5 -21.5t-22 -31.5t-8 -39zM263 571l-142 151h181l104 -151h-143z" />
    <glyph glyph-name="aacute" unicode="&#xe1;" horiz-adv-x="644" 
d="M589 500v-500h-180v54q-58 -67 -153 -67q-48 0 -90 20t-72.5 55.5t-48 83.5t-17.5 104q0 55 17.5 103.5t48 83.5t72.5 55.5t90 20.5t86.5 -16.5t66.5 -50.5v54h180zM210 250q0 -21 8 -39t22 -31.5t32.5 -21.5t39.5 -8t39.5 8t32.5 21.5t22 31.5t8 39t-8 39t-22 31.5
t-32.5 21.5t-39.5 8t-39.5 -8t-32.5 -21.5t-22 -31.5t-8 -39zM221 571l104 151h181l-142 -151h-143z" />
    <glyph glyph-name="acircumflex" unicode="&#xe2;" horiz-adv-x="644" 
d="M589 500v-500h-180v54q-58 -67 -153 -67q-48 0 -90 20t-72.5 55.5t-48 83.5t-17.5 104q0 55 17.5 103.5t48 83.5t72.5 55.5t90 20.5t86.5 -16.5t66.5 -50.5v54h180zM210 250q0 -21 8 -39t22 -31.5t32.5 -21.5t39.5 -8t39.5 8t32.5 21.5t22 31.5t8 39t-8 39t-22 31.5
t-32.5 21.5t-39.5 8t-39.5 -8t-32.5 -21.5t-22 -31.5t-8 -39zM136 571l110 151h138l110 -151h-144l-37 57l-37 -57h-140z" />
    <glyph glyph-name="atilde" unicode="&#xe3;" horiz-adv-x="644" 
d="M589 500v-500h-180v54q-58 -67 -153 -67q-48 0 -90 20t-72.5 55.5t-48 83.5t-17.5 104q0 55 17.5 103.5t48 83.5t72.5 55.5t90 20.5t86.5 -16.5t66.5 -50.5v54h180zM210 250q0 -21 8 -39t22 -31.5t32.5 -21.5t39.5 -8t39.5 8t32.5 21.5t22 31.5t8 39t-8 39t-22 31.5
t-32.5 21.5t-39.5 8t-39.5 -8t-32.5 -21.5t-22 -31.5t-8 -39zM138 572q2 72 34 113t88 41q26 0 43 -7t29 -15.5t22.5 -15.5t23.5 -7q14 0 24 10.5t11 29.5h101q-2 -72 -34 -113t-88 -41q-26 0 -43 7t-29 15.5t-22.5 15.5t-23.5 7q-15 0 -24.5 -10.5t-10.5 -29.5h-101z" />
    <glyph glyph-name="adieresis" unicode="&#xe4;" horiz-adv-x="644" 
d="M589 500v-500h-180v54q-58 -67 -153 -67q-48 0 -90 20t-72.5 55.5t-48 83.5t-17.5 104q0 55 17.5 103.5t48 83.5t72.5 55.5t90 20.5t86.5 -16.5t66.5 -50.5v54h180zM210 250q0 -21 8 -39t22 -31.5t32.5 -21.5t39.5 -8t39.5 8t32.5 21.5t22 31.5t8 39t-8 39t-22 31.5
t-32.5 21.5t-39.5 8t-39.5 -8t-32.5 -21.5t-22 -31.5t-8 -39zM293 645q0 -33 -24 -57.5t-59 -24.5q-34 0 -58 24t-24 58t24 58t58 24q35 0 59 -24.5t24 -57.5zM507 645q0 -33 -24 -57.5t-59 -24.5q-34 0 -58 24t-24 58t24 58t58 24q35 0 59 -24.5t24 -57.5z" />
    <glyph glyph-name="aring" unicode="&#xe5;" horiz-adv-x="644" 
d="M589 500v-500h-180v54q-58 -67 -153 -67q-48 0 -90 20t-72.5 55.5t-48 83.5t-17.5 104q0 55 17.5 103.5t48 83.5t72.5 55.5t90 20.5t86.5 -16.5t66.5 -50.5v54h180zM210 250q0 -21 8 -39t22 -31.5t32.5 -21.5t39.5 -8t39.5 8t32.5 21.5t22 31.5t8 39t-8 39t-22 31.5
t-32.5 21.5t-39.5 8t-39.5 -8t-32.5 -21.5t-22 -31.5t-8 -39zM313 555q-23 0 -44 8.5t-36.5 23t-24.5 34.5t-9 43t9 43t24.5 34.5t36.5 23t44 8.5t44 -8.5t36.5 -23t24.5 -34.5t9 -43t-9 -43t-24.5 -34.5t-36.5 -23t-44 -8.5zM313 696q-13 0 -22.5 -9t-9.5 -23t9.5 -23
t22.5 -9t22.5 9t9.5 23t-9.5 23t-22.5 9z" />
    <glyph glyph-name="ae" unicode="&#xe6;" horiz-adv-x="863" 
d="M269 375q-48 0 -62 -46l-160 37q18 68 78.5 108t145.5 40q101 0 157 -54q32 26 72.5 40t86.5 14q57 0 103.5 -19.5t79.5 -55t51.5 -86t18.5 -112.5q0 -12 -0.5 -21t-1.5 -16h-330q3 -32 27 -52t57 -20q27 0 44.5 10.5t30.5 33.5l157 -55q-29 -65 -89 -100t-142 -35
q-59 0 -107.5 18.5t-83.5 53.5q-36 -35 -83 -53.5t-113 -18.5q-80 0 -128.5 40.5t-48.5 109.5q0 135 185 163l109 17v12q0 20 -15.5 33.5t-38.5 13.5zM586 374q-32 0 -53 -18.5t-24 -46.5h154q-3 29 -24 47t-53 18zM205 149q1 -15 12.5 -24t30.5 -9q34 0 54.5 20t20.5 54v11
l-65 -11q-53 -9 -53 -41z" />
    <glyph glyph-name="ccedilla" unicode="&#xe7;" horiz-adv-x="449" 
d="M289 -41q41 0 67 -26t26 -66q0 -48 -31 -75.5t-78 -27.5q-53 0 -83 26t-32 67h87q1 -6 8 -13t19 -7t19.5 7.5t7.5 18.5t-7.5 18.5t-19.5 7.5q-7 0 -12.5 -3.5t-9.5 -8.5l-77 38l32 84q-79 24 -128 89t-49 162q0 57 20 105.5t56 84t85.5 55t108.5 19.5q29 0 60 -6.5
t57 -19.5v-166q-43 28 -91 28t-79.5 -27.5t-31.5 -72.5t31.5 -72.5t79.5 -27.5q49 0 91 30v-166q-29 -15 -60 -21.5t-60 -6.5h-11l-13 -29q10 2 18 2z" />
    <glyph glyph-name="egrave" unicode="&#xe8;" horiz-adv-x="578" 
d="M539 121q-31 -65 -92.5 -100t-146.5 -35q-60 0 -110 19t-86 54t-56 83.5t-20 107.5q0 57 20.5 105t56 83.5t84 55.5t105.5 20q58 0 106.5 -19.5t82.5 -55t53 -86t19 -112.5q0 -12 -0.5 -21t-1.5 -16h-346q3 -32 29.5 -52t62.5 -20q30 0 49.5 10.5t33.5 33.5zM238 571
l-142 151h181l104 -151h-143zM378 309q-3 29 -26.5 47t-58.5 18t-58.5 -18.5t-26.5 -46.5h170z" />
    <glyph glyph-name="eacute" unicode="&#xe9;" horiz-adv-x="578" 
d="M539 121q-31 -65 -92.5 -100t-146.5 -35q-60 0 -110 19t-86 54t-56 83.5t-20 107.5q0 57 20.5 105t56 83.5t84 55.5t105.5 20q58 0 106.5 -19.5t82.5 -55t53 -86t19 -112.5q0 -12 -0.5 -21t-1.5 -16h-346q3 -32 29.5 -52t62.5 -20q30 0 49.5 10.5t33.5 33.5zM208 571
l104 151h181l-142 -151h-143zM378 309q-3 29 -26.5 47t-58.5 18t-58.5 -18.5t-26.5 -46.5h170z" />
    <glyph glyph-name="ecircumflex" unicode="&#xea;" horiz-adv-x="578" 
d="M539 121q-31 -65 -92.5 -100t-146.5 -35q-60 0 -110 19t-86 54t-56 83.5t-20 107.5q0 57 20.5 105t56 83.5t84 55.5t105.5 20q58 0 106.5 -19.5t82.5 -55t53 -86t19 -112.5q0 -12 -0.5 -21t-1.5 -16h-346q3 -32 29.5 -52t62.5 -20q30 0 49.5 10.5t33.5 33.5zM115 571
l110 151h138l110 -151h-144l-37 57l-37 -57h-140zM378 309q-3 29 -26.5 47t-58.5 18t-58.5 -18.5t-26.5 -46.5h170z" />
    <glyph glyph-name="edieresis" unicode="&#xeb;" horiz-adv-x="578" 
d="M539 121q-31 -65 -92.5 -100t-146.5 -35q-60 0 -110 19t-86 54t-56 83.5t-20 107.5q0 57 20.5 105t56 83.5t84 55.5t105.5 20q58 0 106.5 -19.5t82.5 -55t53 -86t19 -112.5q0 -12 -0.5 -21t-1.5 -16h-346q3 -32 29.5 -52t62.5 -20q30 0 49.5 10.5t33.5 33.5zM484 645
q0 -33 -24 -57.5t-59 -24.5q-34 0 -58 24t-24 58t24 58t58 24q35 0 59 -24.5t24 -57.5zM270 645q0 -33 -24 -57.5t-59 -24.5q-34 0 -58 24t-24 58t24 58t58 24q35 0 59 -24.5t24 -57.5zM378 309q-3 29 -26.5 47t-58.5 18t-58.5 -18.5t-26.5 -46.5h170z" />
    <glyph glyph-name="igrave" unicode="&#xec;" horiz-adv-x="295" 
d="M81 571l-142 151h181l104 -151h-143zM239 500v-500h-183v500h183z" />
    <glyph glyph-name="iacute" unicode="&#xed;" horiz-adv-x="295" 
d="M71 571l104 151h181l-142 -151h-143zM239 500v-500h-183v500h183z" />
    <glyph glyph-name="icircumflex" unicode="&#xee;" horiz-adv-x="295" 
d="M239 500v-500h-183v500h183zM-32 571l110 151h138l110 -151h-144l-37 57l-37 -57h-140z" />
    <glyph glyph-name="idieresis" unicode="&#xef;" horiz-adv-x="295" 
d="M123 645q0 -33 -24 -57.5t-59 -24.5q-34 0 -58 24t-24 58t24 58t58 24q35 0 59 -24.5t24 -57.5zM337 645q0 -33 -24 -57.5t-59 -24.5q-34 0 -58 24t-24 58t24 58t58 24q35 0 59 -24.5t24 -57.5zM239 500v-500h-183v500h183z" />
    <glyph glyph-name="eth" unicode="&#xf0;" horiz-adv-x="607" 
d="M577 258q0 -60 -20 -110t-56.5 -86t-87 -56t-110.5 -20q-58 0 -108 19.5t-86.5 54.5t-57.5 83t-21 104q0 46 16.5 87.5t46 73t70 49.5t89.5 18q20 0 41.5 -4.5t40.5 -13.5l-67 81l-108 -47l-57 82l100 44l-92 113h205l37 -48l104 46l56 -82l-97 -43l23 -29q43 -54 70 -96
t42.5 -78.5t21 -70.5t5.5 -71zM394 240q0 38 -26.5 63.5t-64.5 25.5t-64.5 -26t-26.5 -64q0 -19 7 -35t19.5 -28t29 -19t35.5 -7q38 0 64.5 26t26.5 64z" />
    <glyph glyph-name="ntilde" unicode="&#xf1;" horiz-adv-x="603" 
d="M238 0h-183v500h183v-61q21 37 57 56t82 19q81 0 127.5 -52.5t46.5 -143.5v-318h-183v268q0 38 -17 58.5t-47 20.5t-48 -21t-18 -60v-266zM125 572q2 72 34 113t88 41q26 0 43 -7t29 -15.5t22.5 -15.5t23.5 -7q14 0 24 10.5t11 29.5h101q-2 -72 -34 -113t-88 -41
q-26 0 -43 7t-29 15.5t-22.5 15.5t-23.5 7q-15 0 -24.5 -10.5t-10.5 -29.5h-101z" />
    <glyph glyph-name="ograve" unicode="&#xf2;" horiz-adv-x="610" 
d="M305 514q59 0 110 -20t88 -55.5t58 -83.5t21 -105t-21 -105t-58 -83.5t-88 -55.5t-110 -20t-110 20t-88 55.5t-58 83.5t-21 105t21 105t58 83.5t88 55.5t110 20zM305 348q-20 0 -37.5 -7.5t-31 -21t-21.5 -31t-8 -38.5t8 -38.5t21.5 -31t31 -21t37.5 -7.5q19 0 37 7.5
t31.5 21t21.5 31t8 38.5t-8 38.5t-21.5 31t-31.5 21t-37 7.5zM237 571l-142 151h181l104 -151h-143z" />
    <glyph glyph-name="oacute" unicode="&#xf3;" horiz-adv-x="610" 
d="M305 514q59 0 110 -20t88 -55.5t58 -83.5t21 -105t-21 -105t-58 -83.5t-88 -55.5t-110 -20t-110 20t-88 55.5t-58 83.5t-21 105t21 105t58 83.5t88 55.5t110 20zM305 348q-20 0 -37.5 -7.5t-31 -21t-21.5 -31t-8 -38.5t8 -38.5t21.5 -31t31 -21t37.5 -7.5q19 0 37 7.5
t31.5 21t21.5 31t8 38.5t-8 38.5t-21.5 31t-31.5 21t-37 7.5zM230 571l104 151h181l-142 -151h-143z" />
    <glyph glyph-name="ocircumflex" unicode="&#xf4;" horiz-adv-x="610" 
d="M305 514q59 0 110 -20t88 -55.5t58 -83.5t21 -105t-21 -105t-58 -83.5t-88 -55.5t-110 -20t-110 20t-88 55.5t-58 83.5t-21 105t21 105t58 83.5t88 55.5t110 20zM305 348q-20 0 -37.5 -7.5t-31 -21t-21.5 -31t-8 -38.5t8 -38.5t21.5 -31t31 -21t37.5 -7.5q19 0 37 7.5
t31.5 21t21.5 31t8 38.5t-8 38.5t-21.5 31t-31.5 21t-37 7.5zM126 571l110 151h138l110 -151h-144l-37 57l-37 -57h-140z" />
    <glyph glyph-name="otilde" unicode="&#xf5;" horiz-adv-x="610" 
d="M305 514q59 0 110 -20t88 -55.5t58 -83.5t21 -105t-21 -105t-58 -83.5t-88 -55.5t-110 -20t-110 20t-88 55.5t-58 83.5t-21 105t21 105t58 83.5t88 55.5t110 20zM305 348q-20 0 -37.5 -7.5t-31 -21t-21.5 -31t-8 -38.5t8 -38.5t21.5 -31t31 -21t37.5 -7.5q19 0 37 7.5
t31.5 21t21.5 31t8 38.5t-8 38.5t-21.5 31t-31.5 21t-37 7.5zM117 572q2 72 34 113t88 41q26 0 43 -7t29 -15.5t22.5 -15.5t23.5 -7q14 0 24 10.5t11 29.5h101q-2 -72 -34 -113t-88 -41q-26 0 -43 7t-29 15.5t-22.5 15.5t-23.5 7q-15 0 -24.5 -10.5t-10.5 -29.5h-101z" />
    <glyph glyph-name="odieresis" unicode="&#xf6;" horiz-adv-x="610" 
d="M305 514q59 0 110 -20t88 -55.5t58 -83.5t21 -105t-21 -105t-58 -83.5t-88 -55.5t-110 -20t-110 20t-88 55.5t-58 83.5t-21 105t21 105t58 83.5t88 55.5t110 20zM305 348q-20 0 -37.5 -7.5t-31 -21t-21.5 -31t-8 -38.5t8 -38.5t21.5 -31t31 -21t37.5 -7.5q19 0 37 7.5
t31.5 21t21.5 31t8 38.5t-8 38.5t-21.5 31t-31.5 21t-37 7.5zM281 645q0 -33 -24 -57.5t-59 -24.5q-34 0 -58 24t-24 58t24 58t58 24q35 0 59 -24.5t24 -57.5zM495 645q0 -33 -24 -57.5t-59 -24.5q-34 0 -58 24t-24 58t24 58t58 24q35 0 59 -24.5t24 -57.5z" />
    <glyph glyph-name="divide" unicode="&#xf7;" 
d="M60 258v151h480v-151h-480zM394 535q0 -19 -7.5 -36t-20 -30t-30 -20.5t-36.5 -7.5t-36 7.5t-30 20.5t-20.5 30t-7.5 36t7.5 36t20.5 30t30 20.5t36 7.5t36 -7.5t30 -20.5t20.5 -30t7.5 -36zM394 132q0 -19 -7.5 -36t-20 -30t-30 -20.5t-36.5 -7.5t-36 7.5t-30 20.5
t-20.5 30t-7.5 36t7.5 36t20.5 30t30 20.5t36 7.5t36 -7.5t30 -20.5t20.5 -30t7.5 -36z" />
    <glyph glyph-name="oslash" unicode="&#xf8;" horiz-adv-x="610" 
d="M305 514q89 0 157 -45l53 53l62 -62l-50 -50q26 -33 40.5 -73.5t14.5 -86.5q0 -56 -21.5 -104.5t-58.5 -84t-88 -55.5t-109 -20q-45 0 -84.5 11.5t-73.5 32.5l-52 -52l-62 62l49 49q-26 33 -40 73.5t-14 87.5q0 56 21.5 104.5t58.5 84t87.5 55.5t109.5 20zM305 360
q-23 0 -42.5 -9t-34.5 -24t-23.5 -35t-8.5 -42t7 -40l142 142q-19 8 -40 8zM414 250q0 20 -8 39l-141 -141q19 -8 40 -8q22 0 42 8.5t35 23.5t23.5 35t8.5 43z" />
    <glyph glyph-name="ugrave" unicode="&#xf9;" horiz-adv-x="601" 
d="M546 0h-183v61q-21 -37 -56.5 -56t-81.5 -19q-81 0 -127 52.5t-46 143.5v318h183v-268q0 -38 16.5 -58.5t46.5 -20.5q29 0 47 21t18 60v266h183v-500zM238 571l-142 151h181l104 -151h-143z" />
    <glyph glyph-name="uacute" unicode="&#xfa;" horiz-adv-x="601" 
d="M546 0h-183v61q-21 -37 -56.5 -56t-81.5 -19q-81 0 -127 52.5t-46 143.5v318h183v-268q0 -38 16.5 -58.5t46.5 -20.5q29 0 47 21t18 60v266h183v-500zM211 571l104 151h181l-142 -151h-143z" />
    <glyph glyph-name="ucircumflex" unicode="&#xfb;" horiz-adv-x="601" 
d="M546 0h-183v61q-21 -37 -56.5 -56t-81.5 -19q-81 0 -127 52.5t-46 143.5v318h183v-268q0 -38 16.5 -58.5t46.5 -20.5q29 0 47 21t18 60v266h183v-500zM121 571l110 151h138l110 -151h-144l-37 57l-37 -57h-140z" />
    <glyph glyph-name="udieresis" unicode="&#xfc;" horiz-adv-x="601" 
d="M546 0h-183v61q-21 -37 -56.5 -56t-81.5 -19q-81 0 -127 52.5t-46 143.5v318h183v-268q0 -38 16.5 -58.5t46.5 -20.5q29 0 47 21t18 60v266h183v-500zM275 645q0 -33 -24 -57.5t-59 -24.5q-34 0 -58 24t-24 58t24 58t58 24q35 0 59 -24.5t24 -57.5zM489 645
q0 -33 -24 -57.5t-59 -24.5q-34 0 -58 24t-24 58t24 58t58 24q35 0 59 -24.5t24 -57.5z" />
    <glyph glyph-name="yacute" unicode="&#xfd;" horiz-adv-x="607" 
d="M149 -226q-37 0 -62 7.5t-39 15.5v149q31 -14 63 -14q33 0 57.5 11.5t36.5 40.5l4 10l-205 506h193l109 -306l109 306h188l-213 -524q-44 -107 -103 -154.5t-138 -47.5zM236 571l104 151h181l-142 -151h-143z" />
    <glyph glyph-name="thorn" unicode="&#xfe;" horiz-adv-x="646" 
d="M237 700v-257q27 34 65.5 52t85.5 18q49 0 91 -20t73 -55.5t48.5 -83.5t17.5 -104t-17.5 -104t-48.5 -83t-73 -55.5t-91 -20.5q-47 0 -86 16.5t-65 50.5v-262h-182v908h182zM435 250q0 21 -8 39t-22 31.5t-32 21.5t-39 8t-39.5 -8t-32.5 -21.5t-22 -31.5t-8 -39t8 -39
t22 -31.5t32.5 -21.5t39.5 -8t39 8t32 21.5t22 31.5t8 39z" />
    <glyph glyph-name="ydieresis" unicode="&#xff;" horiz-adv-x="607" 
d="M149 -226q-37 0 -62 7.5t-39 15.5v149q31 -14 63 -14q33 0 57.5 11.5t36.5 40.5l4 10l-205 506h193l109 -306l109 306h188l-213 -524q-44 -107 -103 -154.5t-138 -47.5zM281 645q0 -33 -24 -57.5t-59 -24.5q-34 0 -58 24t-24 58t24 58t58 24q35 0 59 -24.5t24 -57.5z
M495 645q0 -33 -24 -57.5t-59 -24.5q-34 0 -58 24t-24 58t24 58t58 24q35 0 59 -24.5t24 -57.5z" />
    <glyph glyph-name="Amacron" unicode="&#x100;" horiz-adv-x="738" 
d="M455 700l277 -700h-196l-45 119h-249l-44 -119h-192l277 700h172zM297 277h140l-70 191zM203 753v121h332v-121h-332z" />
    <glyph glyph-name="amacron" unicode="&#x101;" horiz-adv-x="644" 
d="M589 500v-500h-180v54q-58 -67 -153 -67q-48 0 -90 20t-72.5 55.5t-48 83.5t-17.5 104q0 55 17.5 103.5t48 83.5t72.5 55.5t90 20.5t86.5 -16.5t66.5 -50.5v54h180zM210 250q0 -21 8 -39t22 -31.5t32.5 -21.5t39.5 -8t39.5 8t32.5 21.5t22 31.5t8 39t-8 39t-22 31.5
t-32.5 21.5t-39.5 8t-39.5 -8t-32.5 -21.5t-22 -31.5t-8 -39zM153 571v121h332v-121h-332z" />
    <glyph glyph-name="Abreve" unicode="&#x102;" horiz-adv-x="738" 
d="M455 700l277 -700h-196l-45 119h-249l-44 -119h-192l277 700h172zM297 277h140l-70 191zM369 856q20 0 33 12.5t13 35.5h116q0 -35 -12.5 -63.5t-34.5 -48.5t-51.5 -31t-63.5 -11t-63.5 11t-51.5 31t-34.5 48.5t-12.5 63.5h116q0 -23 13 -35.5t33 -12.5z" />
    <glyph glyph-name="abreve" unicode="&#x103;" horiz-adv-x="644" 
d="M589 500v-500h-180v54q-58 -67 -153 -67q-48 0 -90 20t-72.5 55.5t-48 83.5t-17.5 104q0 55 17.5 103.5t48 83.5t72.5 55.5t90 20.5t86.5 -16.5t66.5 -50.5v54h180zM210 250q0 -21 8 -39t22 -31.5t32.5 -21.5t39.5 -8t39.5 8t32.5 21.5t22 31.5t8 39t-8 39t-22 31.5
t-32.5 21.5t-39.5 8t-39.5 -8t-32.5 -21.5t-22 -31.5t-8 -39zM315 674q20 0 33 12.5t13 35.5h116q0 -35 -12.5 -63.5t-34.5 -48.5t-51.5 -31t-63.5 -11t-63.5 11t-51.5 31t-34.5 48.5t-12.5 63.5h116q0 -23 13 -35.5t33 -12.5z" />
    <glyph glyph-name="Aogonek" unicode="&#x104;" horiz-adv-x="738" 
d="M491 119h-249l-44 -119h-192l277 700h172l277 -700h-60q-34 -11 -56.5 -31t-22.5 -44q0 -31 39 -31q9 0 19 1.5t19 5.5v-103q-29 -9 -63 -9q-63 0 -100.5 29.5t-37.5 78.5q0 62 67 103zM297 277h140l-70 191z" />
    <glyph glyph-name="aogonek" unicode="&#x105;" horiz-adv-x="644" 
d="M409 54q-58 -67 -153 -67q-48 0 -90 20t-72.5 55.5t-48 83.5t-17.5 104q0 55 17.5 103.5t48 83.5t72.5 55.5t90 20.5t86.5 -16.5t66.5 -50.5v54h180v-500h-44q-34 -11 -56.5 -31t-22.5 -44q0 -31 39 -31q9 0 19 1.5t19 5.5v-103q-29 -9 -63 -9q-63 0 -100.5 29.5
t-37.5 78.5q0 62 67 103v54zM210 250q0 -21 8 -39t22 -31.5t32.5 -21.5t39.5 -8t39.5 8t32.5 21.5t22 31.5t8 39t-8 39t-22 31.5t-32.5 21.5t-39.5 8t-39.5 -8t-32.5 -21.5t-22 -31.5t-8 -39z" />
    <glyph glyph-name="Cacute" unicode="&#x106;" horiz-adv-x="604" 
d="M34 350q0 76 27.5 142.5t76.5 116t115 77.5t144 28q41 0 82.5 -10.5t80.5 -32.5v-196q-33 26 -69.5 40t-82.5 14q-41 0 -74 -14t-56.5 -38t-36.5 -57t-13 -70t13 -69.5t36.5 -57t56.5 -38.5t74 -14q45 0 81 13.5t72 38.5v-195q-45 -24 -87.5 -33t-77.5 -9
q-79 0 -145.5 27.5t-114.5 76t-75 115t-27 145.5zM279 753l104 151h181l-142 -151h-143z" />
    <glyph glyph-name="cacute" unicode="&#x107;" horiz-adv-x="449" 
d="M28 250q0 57 20 105.5t56 84t85.5 55t108.5 19.5q29 0 60 -6.5t57 -19.5v-166q-43 28 -91 28t-79.5 -27.5t-31.5 -72.5t31.5 -72.5t79.5 -27.5q49 0 91 30v-166q-29 -15 -60 -21.5t-60 -6.5q-57 0 -105.5 18.5t-84.5 53t-56.5 83t-20.5 109.5zM178 571l104 151h181
l-142 -151h-143z" />
    <glyph glyph-name="Ccircumflex" unicode="&#x108;" horiz-adv-x="604" 
d="M34 350q0 76 27.5 142.5t76.5 116t115 77.5t144 28q41 0 82.5 -10.5t80.5 -32.5v-196q-33 26 -69.5 40t-82.5 14q-41 0 -74 -14t-56.5 -38t-36.5 -57t-13 -70t13 -69.5t36.5 -57t56.5 -38.5t74 -14q45 0 81 13.5t72 38.5v-195q-45 -24 -87.5 -33t-77.5 -9
q-79 0 -145.5 27.5t-114.5 76t-75 115t-27 145.5zM201 753l110 151h138l110 -151h-144l-37 57l-37 -57h-140z" />
    <glyph glyph-name="ccircumflex" unicode="&#x109;" horiz-adv-x="449" 
d="M28 250q0 57 20 105.5t56 84t85.5 55t108.5 19.5q29 0 60 -6.5t57 -19.5v-166q-43 28 -91 28t-79.5 -27.5t-31.5 -72.5t31.5 -72.5t79.5 -27.5q49 0 91 30v-166q-29 -15 -60 -21.5t-60 -6.5q-57 0 -105.5 18.5t-84.5 53t-56.5 83t-20.5 109.5zM83 571l110 151h138
l110 -151h-144l-37 57l-37 -57h-140z" />
    <glyph glyph-name="Cdotaccent" unicode="&#x10a;" horiz-adv-x="604" 
d="M34 350q0 76 27.5 142.5t76.5 116t115 77.5t144 28q41 0 82.5 -10.5t80.5 -32.5v-196q-33 26 -69.5 40t-82.5 14q-41 0 -74 -14t-56.5 -38t-36.5 -57t-13 -70t13 -69.5t36.5 -57t56.5 -38.5t74 -14q45 0 81 13.5t72 38.5v-195q-45 -24 -87.5 -33t-77.5 -9
q-79 0 -145.5 27.5t-114.5 76t-75 115t-27 145.5zM478 843q0 -19 -7.5 -36.5t-21 -30.5t-31 -21t-38.5 -8q-20 0 -37.5 7.5t-31 21t-21 30.5t-7.5 37t7.5 37.5t21 31t31 21t37.5 7.5q21 0 38.5 -8t31 -21t21 -31t7.5 -37z" />
    <glyph glyph-name="cdotaccent" unicode="&#x10b;" horiz-adv-x="449" 
d="M28 250q0 57 20 105.5t56 84t85.5 55t108.5 19.5q29 0 60 -6.5t57 -19.5v-166q-43 28 -91 28t-79.5 -27.5t-31.5 -72.5t31.5 -72.5t79.5 -27.5q49 0 91 30v-166q-29 -15 -60 -21.5t-60 -6.5q-57 0 -105.5 18.5t-84.5 53t-56.5 83t-20.5 109.5zM378 641q0 -20 -8 -38.5
t-22 -32.5t-32.5 -22t-40.5 -8q-21 0 -39.5 8t-32.5 22t-22 32t-8 39t8 39t22 32t32.5 22t39.5 8q22 0 40.5 -8t32.5 -22t22 -32.5t8 -38.5z" />
    <glyph glyph-name="Ccaron" unicode="&#x10c;" horiz-adv-x="604" 
d="M34 350q0 76 27.5 142.5t76.5 116t115 77.5t144 28q41 0 82.5 -10.5t80.5 -32.5v-196q-33 26 -69.5 40t-82.5 14q-41 0 -74 -14t-56.5 -38t-36.5 -57t-13 -70t13 -69.5t36.5 -57t56.5 -38.5t74 -14q45 0 81 13.5t72 38.5v-195q-45 -24 -87.5 -33t-77.5 -9
q-79 0 -145.5 27.5t-114.5 76t-75 115t-27 145.5zM559 904l-110 -151h-138l-110 151h144l37 -57l37 57h140z" />
    <glyph glyph-name="ccaron" unicode="&#x10d;" horiz-adv-x="449" 
d="M28 250q0 57 20 105.5t56 84t85.5 55t108.5 19.5q29 0 60 -6.5t57 -19.5v-166q-43 28 -91 28t-79.5 -27.5t-31.5 -72.5t31.5 -72.5t79.5 -27.5q49 0 91 30v-166q-29 -15 -60 -21.5t-60 -6.5q-57 0 -105.5 18.5t-84.5 53t-56.5 83t-20.5 109.5zM443 722l-110 -151h-138
l-110 151h144l37 -57l37 57h140z" />
    <glyph glyph-name="Dcaron" unicode="&#x10e;" horiz-adv-x="706" 
d="M672 350q0 -73 -28.5 -137t-78 -111t-115.5 -74.5t-140 -27.5h-246v700h246q74 0 140 -27.5t115.5 -74.5t78 -111t28.5 -137zM479 350q0 36 -13.5 67.5t-37 55.5t-55 37.5t-67.5 13.5h-54v-348h54q36 0 67.5 13.5t55 37.5t37 55.5t13.5 67.5zM505 904l-110 -151h-138
l-110 151h144l37 -57l37 57h140z" />
    <glyph glyph-name="dcaron" unicode="&#x10f;" horiz-adv-x="646" 
d="M591 700v-700h-182v54q-27 -33 -65.5 -50t-85.5 -17q-49 0 -91 20t-73 55.5t-48.5 83.5t-17.5 104q0 55 17.5 103.5t48.5 83.5t73 55.5t91 20.5q47 0 86 -16.5t65 -50.5v254h182zM211 250q0 -21 8 -39t22 -31.5t32 -21.5t39 -8t39.5 8t32.5 21.5t22 31.5t8 39t-8 39
t-22 31.5t-32.5 21.5t-39.5 8t-39 -8t-32 -21.5t-22 -31.5t-8 -39zM628 539l34 175h175l-61 -175h-148z" />
    <glyph glyph-name="Dcroat" unicode="&#x110;" horiz-adv-x="721" 
d="M687 350q0 -73 -28.5 -137t-78 -111t-115.5 -74.5t-140 -27.5h-246v278h-67v148h67v274h246q74 0 140 -27.5t115.5 -74.5t78 -111t28.5 -137zM386 278h-119v-102h54q36 0 67.5 13.5t55 37.5t37 55.5t13.5 67.5t-13.5 67.5t-37 55.5t-55 37.5t-67.5 13.5h-54v-98h119v-148
z" />
    <glyph glyph-name="dcroat" unicode="&#x111;" horiz-adv-x="646" 
d="M402 646v54h183v-54h61v-114h-61v-532h-183v54q-20 -30 -58.5 -48.5t-84.5 -18.5q-51 0 -93.5 18.5t-73 52t-47.5 80t-17 102.5q0 54 17 99.5t47.5 78t73 50.5t93.5 18q46 0 84.5 -17.5t58.5 -42.5v106h-168v114h168zM307 148q20 0 37.5 7t31 19.5t21 29t7.5 35.5
q0 40 -28.5 65.5t-68.5 25.5q-39 0 -67.5 -25.5t-28.5 -65.5q0 -19 7.5 -35.5t21 -29t30.5 -19.5t37 -7z" />
    <glyph glyph-name="Emacron" unicode="&#x112;" horiz-adv-x="532" 
d="M64 700h426v-170h-238v-96h214v-164h-214v-100h240v-170h-428v700zM113 753v121h332v-121h-332z" />
    <glyph glyph-name="emacron" unicode="&#x113;" horiz-adv-x="578" 
d="M539 121q-31 -65 -92.5 -100t-146.5 -35q-60 0 -110 19t-86 54t-56 83.5t-20 107.5q0 57 20.5 105t56 83.5t84 55.5t105.5 20q58 0 106.5 -19.5t82.5 -55t53 -86t19 -112.5q0 -12 -0.5 -21t-1.5 -16h-346q3 -32 29.5 -52t62.5 -20q30 0 49.5 10.5t33.5 33.5zM128 571v121
h332v-121h-332zM378 309q-3 29 -26.5 47t-58.5 18t-58.5 -18.5t-26.5 -46.5h170z" />
    <glyph glyph-name="Ebreve" unicode="&#x114;" horiz-adv-x="532" 
d="M64 700h426v-170h-238v-96h214v-164h-214v-100h240v-170h-428v700zM279 856q20 0 33 12.5t13 35.5h116q0 -35 -12.5 -63.5t-34.5 -48.5t-51.5 -31t-63.5 -11t-63.5 11t-51.5 31t-34.5 48.5t-12.5 63.5h116q0 -23 13 -35.5t33 -12.5z" />
    <glyph glyph-name="ebreve" unicode="&#x115;" horiz-adv-x="578" 
d="M539 121q-31 -65 -92.5 -100t-146.5 -35q-60 0 -110 19t-86 54t-56 83.5t-20 107.5q0 57 20.5 105t56 83.5t84 55.5t105.5 20q58 0 106.5 -19.5t82.5 -55t53 -86t19 -112.5q0 -12 -0.5 -21t-1.5 -16h-346q3 -32 29.5 -52t62.5 -20q30 0 49.5 10.5t33.5 33.5zM294 674
q20 0 33 12.5t13 35.5h116q0 -35 -12.5 -63.5t-34.5 -48.5t-51.5 -31t-63.5 -11t-63.5 11t-51.5 31t-34.5 48.5t-12.5 63.5h116q0 -23 13 -35.5t33 -12.5zM378 309q-3 29 -26.5 47t-58.5 18t-58.5 -18.5t-26.5 -46.5h170z" />
    <glyph glyph-name="Edotaccent" unicode="&#x116;" horiz-adv-x="532" 
d="M64 700h426v-170h-238v-96h214v-164h-214v-100h240v-170h-428v700zM377 843q0 -19 -7.5 -36.5t-21 -30.5t-31 -21t-38.5 -8q-20 0 -37.5 7.5t-31 21t-21 30.5t-7.5 37t7.5 37.5t21 31t31 21t37.5 7.5q21 0 38.5 -8t31 -21t21 -31t7.5 -37z" />
    <glyph glyph-name="edotaccent" unicode="&#x117;" horiz-adv-x="578" 
d="M539 121q-31 -65 -92.5 -100t-146.5 -35q-60 0 -110 19t-86 54t-56 83.5t-20 107.5q0 57 20.5 105t56 83.5t84 55.5t105.5 20q58 0 106.5 -19.5t82.5 -55t53 -86t19 -112.5q0 -12 -0.5 -21t-1.5 -16h-346q3 -32 29.5 -52t62.5 -20q30 0 49.5 10.5t33.5 33.5zM397 641
q0 -20 -8 -38.5t-22 -32.5t-32.5 -22t-40.5 -8q-21 0 -39.5 8t-32.5 22t-22 32t-8 39t8 39t22 32t32.5 22t39.5 8q22 0 40.5 -8t32.5 -22t22 -32.5t8 -38.5zM378 309q-3 29 -26.5 47t-58.5 18t-58.5 -18.5t-26.5 -46.5h170z" />
    <glyph glyph-name="Eogonek" unicode="&#x118;" horiz-adv-x="532" 
d="M64 700h426v-170h-238v-96h214v-164h-214v-100h240v-170h-30q-34 -11 -56.5 -31t-22.5 -44q0 -31 39 -31q9 0 19 1.5t19 5.5v-103q-29 -9 -63 -9q-63 0 -100.5 29.5t-37.5 78.5q0 62 67 103h-262v700z" />
    <glyph glyph-name="eogonek" unicode="&#x119;" horiz-adv-x="578" 
d="M344 -11l-22 -2t-22 -1q-60 0 -110 19t-86 54t-56 83.5t-20 107.5q0 57 20.5 105t56 83.5t84 55.5t105.5 20q58 0 106.5 -19.5t82.5 -55t53 -86t19 -112.5q0 -12 -0.5 -21t-1.5 -16h-346q3 -32 29.5 -52t62.5 -20q30 0 49.5 10.5t33.5 33.5l157 -55q-17 -34 -37 -58
t-39 -44q-21 -23 -36 -43t-15 -44q0 -38 39 -38q8 0 18.5 1.5t20.5 5.5v-103q-32 -9 -67 -9q-61 0 -98 29t-37 77q0 54 56 94zM378 309q-3 29 -26.5 47t-58.5 18t-58.5 -18.5t-26.5 -46.5h170z" />
    <glyph glyph-name="Ecaron" unicode="&#x11a;" horiz-adv-x="532" 
d="M64 700h426v-170h-238v-96h214v-164h-214v-100h240v-170h-428v700zM458 904l-110 -151h-138l-110 151h144l37 -57l37 57h140z" />
    <glyph glyph-name="ecaron" unicode="&#x11b;" horiz-adv-x="578" 
d="M539 121q-31 -65 -92.5 -100t-146.5 -35q-60 0 -110 19t-86 54t-56 83.5t-20 107.5q0 57 20.5 105t56 83.5t84 55.5t105.5 20q58 0 106.5 -19.5t82.5 -55t53 -86t19 -112.5q0 -12 -0.5 -21t-1.5 -16h-346q3 -32 29.5 -52t62.5 -20q30 0 49.5 10.5t33.5 33.5zM473 722
l-110 -151h-138l-110 151h144l37 -57l37 57h140zM378 309q-3 29 -26.5 47t-58.5 18t-58.5 -18.5t-26.5 -46.5h170z" />
    <glyph glyph-name="Gcircumflex" unicode="&#x11c;" horiz-adv-x="790" 
d="M562 448q-23 43 -63.5 66t-93.5 23q-38 0 -71 -14.5t-57.5 -40t-38.5 -59.5t-14 -73t14 -74t39 -60.5t57.5 -40.5t70.5 -15q54 0 96 24.5t56 64.5h-172v153h375v-70q0 -73 -27.5 -136.5t-75 -110t-112.5 -73t-140 -26.5q-78 0 -145.5 28.5t-117.5 78t-79 116t-29 141.5
t29.5 141t80 115.5t118 78.5t143.5 29q54 0 104 -12.5t92.5 -36t76 -58t55.5 -77.5zM226 753l110 151h138l110 -151h-144l-37 57l-37 -57h-140z" />
    <glyph glyph-name="gcircumflex" unicode="&#x11d;" horiz-adv-x="640" 
d="M405 64q-23 -26 -60.5 -43t-84.5 -17q-51 0 -93.5 19t-73 52.5t-48 79.5t-17.5 100q0 55 17.5 102.5t48.5 82t73.5 54t92.5 19.5q48 0 85 -18t60 -48v53h180v-466q0 -58 -19 -107.5t-55.5 -85.5t-91 -56t-126.5 -20q-94 0 -161.5 36.5t-95.5 98.5l146 81q17 -30 46 -48
t66 -18q54 0 82.5 31t28.5 90v28zM410 255q0 21 -8 38.5t-21.5 31t-31.5 21t-38 7.5t-38 -7.5t-31.5 -21t-21.5 -31t-8 -38.5t8 -38.5t21.5 -31t31.5 -21t38 -7.5t38 7.5t31.5 21t21.5 31t8 38.5zM135 571l110 151h138l110 -151h-144l-37 57l-37 -57h-140z" />
    <glyph glyph-name="Gbreve" unicode="&#x11e;" horiz-adv-x="790" 
d="M562 448q-23 43 -63.5 66t-93.5 23q-38 0 -71 -14.5t-57.5 -40t-38.5 -59.5t-14 -73t14 -74t39 -60.5t57.5 -40.5t70.5 -15q54 0 96 24.5t56 64.5h-172v153h375v-70q0 -73 -27.5 -136.5t-75 -110t-112.5 -73t-140 -26.5q-78 0 -145.5 28.5t-117.5 78t-79 116t-29 141.5
t29.5 141t80 115.5t118 78.5t143.5 29q54 0 104 -12.5t92.5 -36t76 -58t55.5 -77.5zM405 856q20 0 33 12.5t13 35.5h116q0 -35 -12.5 -63.5t-34.5 -48.5t-51.5 -31t-63.5 -11t-63.5 11t-51.5 31t-34.5 48.5t-12.5 63.5h116q0 -23 13 -35.5t33 -12.5z" />
    <glyph glyph-name="gbreve" unicode="&#x11f;" horiz-adv-x="640" 
d="M405 64q-23 -26 -60.5 -43t-84.5 -17q-51 0 -93.5 19t-73 52.5t-48 79.5t-17.5 100q0 55 17.5 102.5t48.5 82t73.5 54t92.5 19.5q48 0 85 -18t60 -48v53h180v-466q0 -58 -19 -107.5t-55.5 -85.5t-91 -56t-126.5 -20q-94 0 -161.5 36.5t-95.5 98.5l146 81q17 -30 46 -48
t66 -18q54 0 82.5 31t28.5 90v28zM410 255q0 21 -8 38.5t-21.5 31t-31.5 21t-38 7.5t-38 -7.5t-31.5 -21t-21.5 -31t-8 -38.5t8 -38.5t21.5 -31t31.5 -21t38 -7.5t38 7.5t31.5 21t21.5 31t8 38.5zM314 674q20 0 33 12.5t13 35.5h116q0 -35 -12.5 -63.5t-34.5 -48.5
t-51.5 -31t-63.5 -11t-63.5 11t-51.5 31t-34.5 48.5t-12.5 63.5h116q0 -23 13 -35.5t33 -12.5z" />
    <glyph glyph-name="Gdotaccent" unicode="&#x120;" horiz-adv-x="790" 
d="M562 448q-23 43 -63.5 66t-93.5 23q-38 0 -71 -14.5t-57.5 -40t-38.5 -59.5t-14 -73t14 -74t39 -60.5t57.5 -40.5t70.5 -15q54 0 96 24.5t56 64.5h-172v153h375v-70q0 -73 -27.5 -136.5t-75 -110t-112.5 -73t-140 -26.5q-78 0 -145.5 28.5t-117.5 78t-79 116t-29 141.5
t29.5 141t80 115.5t118 78.5t143.5 29q54 0 104 -12.5t92.5 -36t76 -58t55.5 -77.5zM503 843q0 -19 -7.5 -36.5t-21 -30.5t-31 -21t-38.5 -8q-20 0 -37.5 7.5t-31 21t-21 30.5t-7.5 37t7.5 37.5t21 31t31 21t37.5 7.5q21 0 38.5 -8t31 -21t21 -31t7.5 -37z" />
    <glyph glyph-name="gdotaccent" unicode="&#x121;" horiz-adv-x="640" 
d="M405 64q-23 -26 -60.5 -43t-84.5 -17q-51 0 -93.5 19t-73 52.5t-48 79.5t-17.5 100q0 55 17.5 102.5t48.5 82t73.5 54t92.5 19.5q48 0 85 -18t60 -48v53h180v-466q0 -58 -19 -107.5t-55.5 -85.5t-91 -56t-126.5 -20q-94 0 -161.5 36.5t-95.5 98.5l146 81q17 -30 46 -48
t66 -18q54 0 82.5 31t28.5 90v28zM410 255q0 21 -8 38.5t-21.5 31t-31.5 21t-38 7.5t-38 -7.5t-31.5 -21t-21.5 -31t-8 -38.5t8 -38.5t21.5 -31t31.5 -21t38 -7.5t38 7.5t31.5 21t21.5 31t8 38.5zM416 641q0 -20 -8 -38.5t-22 -32.5t-32.5 -22t-40.5 -8q-21 0 -39.5 8
t-32.5 22t-22 32t-8 39t8 39t22 32t32.5 22t39.5 8q22 0 40.5 -8t32.5 -22t22 -32.5t8 -38.5z" />
    <glyph glyph-name="Gcommaaccent" unicode="&#x122;" horiz-adv-x="790" 
d="M562 448q-23 43 -63.5 66t-93.5 23q-38 0 -71 -14.5t-57.5 -40t-38.5 -59.5t-14 -73t14 -74t39 -60.5t57.5 -40.5t70.5 -15q54 0 96 24.5t56 64.5h-172v153h375v-70q0 -73 -27.5 -136.5t-75 -110t-112.5 -73t-140 -26.5q-78 0 -145.5 28.5t-117.5 78t-79 116t-29 141.5
t29.5 141t80 115.5t118 78.5t143.5 29q54 0 104 -12.5t92.5 -36t76 -58t55.5 -77.5zM383 -207q-29 2 -48.5 23t-19.5 50q0 19 7 35.5t19 28.5t28.5 18.5t34.5 6.5q39 0 65 -25.5t26 -63.5q0 -21 -6.5 -41t-20.5 -45l-39 -70h-93z" />
    <glyph glyph-name="gcommaaccent" unicode="&#x123;" horiz-adv-x="640" 
d="M405 64q-23 -26 -60.5 -43t-84.5 -17q-51 0 -93.5 19t-73 52.5t-48 79.5t-17.5 100q0 55 17.5 102.5t48.5 82t73.5 54t92.5 19.5q48 0 85 -18t60 -48v53h180v-466q0 -58 -19 -107.5t-55.5 -85.5t-91 -56t-126.5 -20q-94 0 -161.5 36.5t-95.5 98.5l146 81q17 -30 46 -48
t66 -18q54 0 82.5 31t28.5 90v28zM382 800l-47 -83q29 -2 48.5 -23t19.5 -50q0 -19 -7 -35.5t-19 -28.5t-28.5 -18.5t-34.5 -6.5t-34 6.5t-29 18t-20.5 28t-7.5 36.5q0 21 6.5 41t20.5 45l39 70h93zM410 255q0 21 -8 38.5t-21.5 31t-31.5 21t-38 7.5t-38 -7.5t-31.5 -21
t-21.5 -31t-8 -38.5t8 -38.5t21.5 -31t31.5 -21t38 -7.5t38 7.5t31.5 21t21.5 31t8 38.5z" />
    <glyph glyph-name="Hcircumflex" unicode="&#x124;" horiz-adv-x="728" 
d="M64 700h190v-256h220v256h190v-700h-190v264h-220v-264h-190v700zM186 753l110 151h138l110 -151h-144l-37 57l-37 -57h-140z" />
    <glyph glyph-name="hcircumflex" unicode="&#x125;" horiz-adv-x="603" 
d="M238 0h-183v700h183v-261q21 37 57 56t82 19q81 0 127.5 -52.5t46.5 -143.5v-318h-183v271q0 36 -17 56t-46 20q-31 0 -49 -21.5t-18 -59.5v-266zM-33 753l110 151h138l110 -151h-144l-37 57l-37 -57h-140z" />
    <glyph glyph-name="Hbar" unicode="&#x126;" horiz-adv-x="758" 
d="M79 486h-65v145h65v69h190v-69h220v69h190v-69h65v-145h-65v-486h-190v264h-220v-264h-190v486zM489 444v42h-220v-42h220z" />
    <glyph glyph-name="hbar" unicode="&#x127;" horiz-adv-x="609" 
d="M61 646v54h183v-54h168v-114h-168v-123q21 37 57 56t82 19q81 0 127.5 -52.5t46.5 -143.5v-288h-183v241q0 36 -17 56t-46 20q-31 0 -49 -21.5t-18 -59.5v-236h-183v532h-61v114h61z" />
    <glyph glyph-name="Itilde" unicode="&#x128;" horiz-adv-x="318" 
d="M254 700v-700h-190v700h190zM-29 754q2 72 34 113t88 41q26 0 43 -7t29 -15.5t22.5 -15.5t23.5 -7q14 0 24 10.5t11 29.5h101q-2 -72 -34 -113t-88 -41q-26 0 -43 7t-29 15.5t-22.5 15.5t-23.5 7q-15 0 -24.5 -10.5t-10.5 -29.5h-101z" />
    <glyph glyph-name="itilde" unicode="&#x129;" horiz-adv-x="295" 
d="M-41 572q2 72 34 113t88 41q26 0 43 -7t29 -15.5t22.5 -15.5t23.5 -7q14 0 24 10.5t11 29.5h101q-2 -72 -34 -113t-88 -41q-26 0 -43 7t-29 15.5t-22.5 15.5t-23.5 7q-15 0 -24.5 -10.5t-10.5 -29.5h-101zM239 500v-500h-183v500h183z" />
    <glyph glyph-name="Imacron" unicode="&#x12a;" horiz-adv-x="318" 
d="M254 700v-700h-190v700h190zM-7 753v121h332v-121h-332z" />
    <glyph glyph-name="imacron" unicode="&#x12b;" horiz-adv-x="295" 
d="M-19 571v121h332v-121h-332zM239 500v-500h-183v500h183z" />
    <glyph glyph-name="Ibreve" unicode="&#x12c;" horiz-adv-x="318" 
d="M254 700v-700h-190v700h190zM159 856q20 0 33 12.5t13 35.5h116q0 -35 -12.5 -63.5t-34.5 -48.5t-51.5 -31t-63.5 -11t-63.5 11t-51.5 31t-34.5 48.5t-12.5 63.5h116q0 -23 13 -35.5t33 -12.5z" />
    <glyph glyph-name="ibreve" unicode="&#x12d;" horiz-adv-x="295" 
d="M147 674q20 0 33 12.5t13 35.5h116q0 -35 -12.5 -63.5t-34.5 -48.5t-51.5 -31t-63.5 -11t-63.5 11t-51.5 31t-34.5 48.5t-12.5 63.5h116q0 -23 13 -35.5t33 -12.5zM239 500v-500h-183v500h183z" />
    <glyph glyph-name="Iogonek" unicode="&#x12e;" horiz-adv-x="318" 
d="M254 700v-700h-24q-34 -11 -56.5 -31t-22.5 -44q0 -31 39 -31q9 0 19 1.5t19 5.5v-103q-29 -9 -63 -9q-63 0 -100.5 29.5t-37.5 78.5q0 62 67 103h-30v700h190z" />
    <glyph glyph-name="iogonek" unicode="&#x12f;" horiz-adv-x="295" 
d="M219 0q-34 -11 -56.5 -31t-22.5 -44q0 -31 39 -31q9 0 19 1.5t19 5.5v-103q-29 -9 -63 -9q-63 0 -100.5 29.5t-37.5 78.5q0 62 67 103h-27v500h183v-500h-20zM250 641q0 -20 -8 -38.5t-22 -32.5t-32.5 -22t-40.5 -8q-21 0 -39.5 8t-32.5 22t-22 32t-8 39t8 39t22 32
t32.5 22t39.5 8q22 0 40.5 -8t32.5 -22t22 -32.5t8 -38.5z" />
    <glyph glyph-name="Idotaccent" unicode="&#x130;" horiz-adv-x="318" 
d="M254 700v-700h-190v700h190zM257 843q0 -19 -7.5 -36.5t-21 -30.5t-31 -21t-38.5 -8q-20 0 -37.5 7.5t-31 21t-21 30.5t-7.5 37t7.5 37.5t21 31t31 21t37.5 7.5q21 0 38.5 -8t31 -21t21 -31t7.5 -37z" />
    <glyph glyph-name="dotlessi" unicode="&#x131;" horiz-adv-x="295" 
d="M239 500v-500h-183v500h183z" />
    <glyph glyph-name="IJ" unicode="&#x132;" horiz-adv-x="848" 
d="M254 700v-700h-190v700h190zM792 231q0 -57 -17.5 -102t-50.5 -77t-79.5 -49t-104.5 -17q-85 0 -147 40.5t-90 109.5l164 90q9 -25 28 -43.5t45 -18.5q62 0 62 73v463h190v-469z" />
    <glyph glyph-name="ij" unicode="&#x133;" horiz-adv-x="590" 
d="M56 0v500h183v-500h-183zM250 641q0 -20 -8 -38.5t-22 -32.5t-32.5 -22t-40.5 -8q-21 0 -39.5 8t-32.5 22t-22 32t-8 39t8 39t22 32t32.5 22t39.5 8q22 0 40.5 -8t32.5 -22t22 -32.5t8 -38.5zM351 500h183v-501q0 -108 -54.5 -166.5t-151.5 -58.5q-32 0 -51.5 4t-32.5 8
v154q5 -2 14.5 -4t23.5 -2q35 0 52 20.5t17 56.5v489zM545 641q0 -20 -8 -38.5t-22 -32.5t-32.5 -22t-40.5 -8q-21 0 -39.5 8t-32.5 22t-22 32t-8 39t8 39t22 32t32.5 22t39.5 8q22 0 40.5 -8t32.5 -22t22 -32.5t8 -38.5z" />
    <glyph glyph-name="Jcircumflex" unicode="&#x134;" horiz-adv-x="555" 
d="M499 231q0 -57 -17.5 -102t-50.5 -77t-79.5 -49t-104.5 -17q-85 0 -147 40.5t-90 109.5l164 90q9 -25 28 -43.5t45 -18.5q62 0 62 73v463h190v-469zM225 753l110 151h138l110 -151h-144l-37 57l-37 -57h-140z" />
    <glyph glyph-name="jcircumflex" unicode="&#x135;" horiz-adv-x="295" 
d="M56 500h183v-501q0 -108 -54.5 -166.5t-151.5 -58.5q-32 0 -51.5 4t-32.5 8v154q5 -2 14.5 -4t23.5 -2q35 0 52 20.5t17 56.5v489zM-32 571l110 151h138l110 -151h-144l-37 57l-37 -57h-140z" />
    <glyph glyph-name="Kcommaaccent" unicode="&#x136;" horiz-adv-x="696" 
d="M253 432l201 268h222l-264 -333l282 -367h-236l-205 284v-284h-189v700h189v-268zM332 -207q-29 2 -48.5 23t-19.5 50q0 19 7 35.5t19 28.5t28.5 18.5t34.5 6.5q39 0 65 -25.5t26 -63.5q0 -21 -6.5 -41t-20.5 -45l-39 -70h-93z" />
    <glyph glyph-name="kcommaaccent" unicode="&#x137;" horiz-adv-x="599" 
d="M588 500l-193 -227l204 -273h-216l-146 204v-204h-182v700h182v-367l138 167h213zM286 -207q-29 2 -48.5 23t-19.5 50q0 19 7 35.5t19 28.5t28.5 18.5t34.5 6.5q39 0 65 -25.5t26 -63.5q0 -21 -6.5 -41t-20.5 -45l-39 -70h-93z" />
    <glyph glyph-name="kgreenlandic" unicode="&#x138;" horiz-adv-x="599" 
d="M588 500l-193 -227l204 -273h-216l-146 204v-204h-182v500h182v-167l138 167h213z" />
    <glyph glyph-name="Lacute" unicode="&#x139;" horiz-adv-x="514" 
d="M252 700v-523h240v-177h-428v700h188zM83 753l104 151h181l-142 -151h-143z" />
    <glyph glyph-name="lacute" unicode="&#x13a;" horiz-adv-x="293" 
d="M238 700v-700h-183v700h183zM70 753l104 151h181l-142 -151h-143z" />
    <glyph glyph-name="Lcommaaccent" unicode="&#x13b;" horiz-adv-x="514" 
d="M252 700v-523h240v-177h-428v700h188zM253 -207q-29 2 -48.5 23t-19.5 50q0 19 7 35.5t19 28.5t28.5 18.5t34.5 6.5q39 0 65 -25.5t26 -63.5q0 -21 -6.5 -41t-20.5 -45l-39 -70h-93z" />
    <glyph glyph-name="lcommaaccent" unicode="&#x13c;" horiz-adv-x="293" 
d="M238 700v-700h-183v700h183zM125 -207q-29 2 -48.5 23t-19.5 50q0 19 7 35.5t19 28.5t28.5 18.5t34.5 6.5q39 0 65 -25.5t26 -63.5q0 -21 -6.5 -41t-20.5 -45l-39 -70h-93z" />
    <glyph glyph-name="Lcaron" unicode="&#x13d;" horiz-adv-x="514" 
d="M252 700v-523h240v-177h-428v700h188zM289 539l34 175h175l-61 -175h-148z" />
    <glyph glyph-name="lcaron" unicode="&#x13e;" horiz-adv-x="293" 
d="M238 700v-700h-183v700h183zM275 539l34 175h175l-61 -175h-148z" />
    <glyph glyph-name="Ldot" unicode="&#x13f;" horiz-adv-x="514" 
d="M252 700v-523h240v-177h-428v700h188zM514 358q0 -20 -8 -38.5t-22 -32.5t-32.5 -22t-40.5 -8q-21 0 -39.5 8t-32.5 22t-22 32t-8 39t8 39t22 32t32.5 22t39.5 8q22 0 40.5 -8t32.5 -22t22 -32.5t8 -38.5z" />
    <glyph glyph-name="ldot" unicode="&#x140;" horiz-adv-x="458" 
d="M238 700v-700h-183v700h183zM478 341q0 -20 -8 -38.5t-22 -32.5t-32.5 -22t-40.5 -8q-21 0 -39.5 8t-32.5 22t-22 32t-8 39t8 39t22 32t32.5 22t39.5 8q22 0 40.5 -8t32.5 -22t22 -32.5t8 -38.5z" />
    <glyph glyph-name="Lslash" unicode="&#x141;" horiz-adv-x="534" 
d="M272 700v-259l136 59v-149l-136 -59v-115h240v-177h-428v210l-76 -33v149l76 33v341h188z" />
    <glyph glyph-name="lslash" unicode="&#x142;" horiz-adv-x="349" 
d="M265 700v-231l74 37v-150l-74 -37v-319h-183v227l-72 -36v150l72 36v323h183z" />
    <glyph glyph-name="Nacute" unicode="&#x143;" horiz-adv-x="772" 
d="M708 700v-700h-190l-271 397v-397h-183v700h192l269 -401v401h183zM320 753l104 151h181l-142 -151h-143z" />
    <glyph glyph-name="nacute" unicode="&#x144;" horiz-adv-x="603" 
d="M238 0h-183v500h183v-61q21 37 57 56t82 19q81 0 127.5 -52.5t46.5 -143.5v-318h-183v268q0 38 -17 58.5t-47 20.5t-48 -21t-18 -60v-266zM222 571l104 151h181l-142 -151h-143z" />
    <glyph glyph-name="Ncommaaccent" unicode="&#x145;" horiz-adv-x="772" 
d="M708 700v-700h-190l-271 397v-397h-183v700h192l269 -401v401h183zM358 -207q-29 2 -48.5 23t-19.5 50q0 19 7 35.5t19 28.5t28.5 18.5t34.5 6.5q39 0 65 -25.5t26 -63.5q0 -21 -6.5 -41t-20.5 -45l-39 -70h-93z" />
    <glyph glyph-name="ncommaaccent" unicode="&#x146;" horiz-adv-x="603" 
d="M238 0h-183v500h183v-61q21 37 57 56t82 19q81 0 127.5 -52.5t46.5 -143.5v-318h-183v268q0 38 -17 58.5t-47 20.5t-48 -21t-18 -60v-266zM284 -207q-29 2 -48.5 23t-19.5 50q0 19 7 35.5t19 28.5t28.5 18.5t34.5 6.5q39 0 65 -25.5t26 -63.5q0 -21 -6.5 -41t-20.5 -45
l-39 -70h-93z" />
    <glyph glyph-name="Ncaron" unicode="&#x147;" horiz-adv-x="772" 
d="M708 700v-700h-190l-271 397v-397h-183v700h192l269 -401v401h183zM569 904l-110 -151h-138l-110 151h144l37 -57l37 57h140z" />
    <glyph glyph-name="ncaron" unicode="&#x148;" horiz-adv-x="603" 
d="M238 0h-183v500h183v-61q21 37 57 56t82 19q81 0 127.5 -52.5t46.5 -143.5v-318h-183v268q0 38 -17 58.5t-47 20.5t-48 -21t-18 -60v-266zM487 722l-110 -151h-138l-110 151h144l37 -57l37 57h140z" />
    <glyph glyph-name="Eng" unicode="&#x14a;" horiz-adv-x="772" 
d="M708 700v-701q0 -108 -55.5 -166.5t-154.5 -58.5q-35 0 -56.5 4t-35.5 8v165q5 -2 15 -4t27 -2q60 0 69 55l-270 397v-397h-183v700h192l269 -401v401h183z" />
    <glyph glyph-name="eng" unicode="&#x14b;" horiz-adv-x="603" 
d="M368 268q0 38 -17 58.5t-47 20.5t-48 -21t-18 -60v-266h-183v500h183v-61q21 37 57 56t82 19q81 0 127.5 -52.5t46.5 -143.5v-319q0 -108 -54.5 -166.5t-151.5 -58.5q-32 0 -51.5 4t-32.5 8v154q5 -2 14.5 -4t23.5 -2q35 0 52 20.5t17 56.5v257v0z" />
    <glyph glyph-name="Omacron" unicode="&#x14c;" horiz-adv-x="810" 
d="M776 350q0 -76 -29 -142.5t-79.5 -115.5t-118 -77.5t-144.5 -28.5t-144.5 28.5t-118 77.5t-79.5 115.5t-29 142.5t29 142.5t79.5 115.5t118 77.5t144.5 28.5t144.5 -28.5t118 -77.5t79.5 -115.5t29 -142.5zM583 350q0 38 -14 71t-38 57.5t-56.5 38.5t-69.5 14
q-38 0 -70.5 -14t-56.5 -38.5t-37.5 -57.5t-13.5 -71t13.5 -71t37.5 -57.5t56.5 -38.5t70.5 -14q37 0 69.5 14t56.5 38.5t38 57.5t14 71zM239 753v121h332v-121h-332z" />
    <glyph glyph-name="omacron" unicode="&#x14d;" horiz-adv-x="610" 
d="M305 514q59 0 110 -20t88 -55.5t58 -83.5t21 -105t-21 -105t-58 -83.5t-88 -55.5t-110 -20t-110 20t-88 55.5t-58 83.5t-21 105t21 105t58 83.5t88 55.5t110 20zM305 348q-20 0 -37.5 -7.5t-31 -21t-21.5 -31t-8 -38.5t8 -38.5t21.5 -31t31 -21t37.5 -7.5q19 0 37 7.5
t31.5 21t21.5 31t8 38.5t-8 38.5t-21.5 31t-31.5 21t-37 7.5zM139 571v121h332v-121h-332z" />
    <glyph glyph-name="Obreve" unicode="&#x14e;" horiz-adv-x="810" 
d="M776 350q0 -76 -29 -142.5t-79.5 -115.5t-118 -77.5t-144.5 -28.5t-144.5 28.5t-118 77.5t-79.5 115.5t-29 142.5t29 142.5t79.5 115.5t118 77.5t144.5 28.5t144.5 -28.5t118 -77.5t79.5 -115.5t29 -142.5zM583 350q0 38 -14 71t-38 57.5t-56.5 38.5t-69.5 14
q-38 0 -70.5 -14t-56.5 -38.5t-37.5 -57.5t-13.5 -71t13.5 -71t37.5 -57.5t56.5 -38.5t70.5 -14q37 0 69.5 14t56.5 38.5t38 57.5t14 71zM405 856q20 0 33 12.5t13 35.5h116q0 -35 -12.5 -63.5t-34.5 -48.5t-51.5 -31t-63.5 -11t-63.5 11t-51.5 31t-34.5 48.5t-12.5 63.5
h116q0 -23 13 -35.5t33 -12.5z" />
    <glyph glyph-name="obreve" unicode="&#x14f;" horiz-adv-x="610" 
d="M305 514q59 0 110 -20t88 -55.5t58 -83.5t21 -105t-21 -105t-58 -83.5t-88 -55.5t-110 -20t-110 20t-88 55.5t-58 83.5t-21 105t21 105t58 83.5t88 55.5t110 20zM305 348q-20 0 -37.5 -7.5t-31 -21t-21.5 -31t-8 -38.5t8 -38.5t21.5 -31t31 -21t37.5 -7.5q19 0 37 7.5
t31.5 21t21.5 31t8 38.5t-8 38.5t-21.5 31t-31.5 21t-37 7.5zM305 674q20 0 33 12.5t13 35.5h116q0 -35 -12.5 -63.5t-34.5 -48.5t-51.5 -31t-63.5 -11t-63.5 11t-51.5 31t-34.5 48.5t-12.5 63.5h116q0 -23 13 -35.5t33 -12.5z" />
    <glyph glyph-name="Ohungarumlaut" unicode="&#x150;" horiz-adv-x="810" 
d="M776 350q0 -76 -29 -142.5t-79.5 -115.5t-118 -77.5t-144.5 -28.5t-144.5 28.5t-118 77.5t-79.5 115.5t-29 142.5t29 142.5t79.5 115.5t118 77.5t144.5 28.5t144.5 -28.5t118 -77.5t79.5 -115.5t29 -142.5zM583 350q0 38 -14 71t-38 57.5t-56.5 38.5t-69.5 14
q-38 0 -70.5 -14t-56.5 -38.5t-37.5 -57.5t-13.5 -71t13.5 -71t37.5 -57.5t56.5 -38.5t70.5 -14q37 0 69.5 14t56.5 38.5t38 57.5t14 71zM241 753l89 151h154l-117 -151h-126zM439 753l89 151h154l-117 -151h-126z" />
    <glyph glyph-name="ohungarumlaut" unicode="&#x151;" horiz-adv-x="610" 
d="M305 514q59 0 110 -20t88 -55.5t58 -83.5t21 -105t-21 -105t-58 -83.5t-88 -55.5t-110 -20t-110 20t-88 55.5t-58 83.5t-21 105t21 105t58 83.5t88 55.5t110 20zM305 348q-20 0 -37.5 -7.5t-31 -21t-21.5 -31t-8 -38.5t8 -38.5t21.5 -31t31 -21t37.5 -7.5q19 0 37 7.5
t31.5 21t21.5 31t8 38.5t-8 38.5t-21.5 31t-31.5 21t-37 7.5zM142 571l89 151h154l-117 -151h-126zM340 571l89 151h154l-117 -151h-126z" />
    <glyph glyph-name="OE" unicode="&#x152;" horiz-adv-x="922" 
d="M396 0q-74 0 -140 27.5t-115.5 74.5t-78 111t-28.5 137t28.5 137t78 111t115.5 74.5t140 27.5h484v-170h-238v-96h214v-164h-214v-100h240v-170h-486zM227 350q0 -36 13.5 -67.5t37 -55.5t55 -37.5t67.5 -13.5h54v348h-54q-36 0 -67.5 -13.5t-55 -37.5t-37 -55.5
t-13.5 -67.5z" />
    <glyph glyph-name="oe" unicode="&#x153;" horiz-adv-x="935" 
d="M656 514q57 0 104.5 -19.5t81 -55t52 -86t18.5 -112.5q0 -12 -0.5 -21t-1.5 -16h-336q3 -32 28 -52t59 -20q29 0 46.5 10.5t31.5 33.5l157 -55q-30 -65 -90 -100t-144 -35q-54 0 -99.5 16.5t-79.5 47.5q-35 -30 -80 -47t-98 -17q-59 0 -110 20t-88 55.5t-58 83.5t-21 105
t21 105t58 83.5t88 55.5t110 20q53 0 98.5 -17.5t80.5 -48.5q34 32 77.5 49t94.5 17zM305 348q-20 0 -37.5 -7.5t-31 -21t-21.5 -31t-8 -38.5t8 -38.5t21.5 -31t31 -21t37.5 -7.5q19 0 36.5 7.5t31 21t21.5 31t8 38.5t-8 38.5t-21.5 31t-31 21t-36.5 7.5zM655 374
q-32 0 -54.5 -18.5t-25.5 -46.5h160q-3 29 -25 47t-55 18z" />
    <glyph glyph-name="Racute" unicode="&#x154;" horiz-adv-x="642" 
d="M251 0h-187v700h250q61 0 111.5 -15.5t87 -46t56.5 -74.5t20 -101q0 -73 -35.5 -123.5t-92.5 -79.5l179 -260h-220l-147 231h-22v-231zM251 383h66q36 0 59.5 20t23.5 55t-23.5 55t-59.5 20h-66v-150zM210 753l104 151h181l-142 -151h-143z" />
    <glyph glyph-name="racute" unicode="&#x155;" horiz-adv-x="418" 
d="M400 320q-10 4 -21.5 5.5t-22.5 1.5q-57 0 -88 -37.5t-31 -107.5v-182h-182v500h181v-79q20 44 54.5 67.5t82.5 23.5q17 0 27 -4v-188zM139 571l104 151h181l-142 -151h-143z" />
    <glyph glyph-name="Rcommaaccent" unicode="&#x156;" horiz-adv-x="642" 
d="M251 0h-187v700h250q61 0 111.5 -15.5t87 -46t56.5 -74.5t20 -101q0 -73 -35.5 -123.5t-92.5 -79.5l179 -260h-220l-147 231h-22v-231zM316 -207q-29 2 -48.5 23t-19.5 50q0 19 7 35.5t19 28.5t28.5 18.5t34.5 6.5q39 0 65 -25.5t26 -63.5q0 -21 -6.5 -41t-20.5 -45
l-39 -70h-93zM251 383h66q36 0 59.5 20t23.5 55t-23.5 55t-59.5 20h-66v-150z" />
    <glyph glyph-name="rcommaaccent" unicode="&#x157;" horiz-adv-x="418" 
d="M400 320q-10 4 -21.5 5.5t-22.5 1.5q-57 0 -88 -37.5t-31 -107.5v-182h-182v500h181v-79q20 44 54.5 67.5t82.5 23.5q17 0 27 -4v-188zM125 -207q-29 2 -48.5 23t-19.5 50q0 19 7 35.5t19 28.5t28.5 18.5t34.5 6.5q39 0 65 -25.5t26 -63.5q0 -21 -6.5 -41t-20.5 -45
l-39 -70h-93z" />
    <glyph glyph-name="Rcaron" unicode="&#x158;" horiz-adv-x="642" 
d="M251 0h-187v700h250q61 0 111.5 -15.5t87 -46t56.5 -74.5t20 -101q0 -73 -35.5 -123.5t-92.5 -79.5l179 -260h-220l-147 231h-22v-231zM489 904l-110 -151h-138l-110 151h144l37 -57l37 57h140zM251 383h66q36 0 59.5 20t23.5 55t-23.5 55t-59.5 20h-66v-150z" />
    <glyph glyph-name="rcaron" unicode="&#x159;" horiz-adv-x="418" 
d="M400 320q-10 4 -21.5 5.5t-22.5 1.5q-57 0 -88 -37.5t-31 -107.5v-182h-182v500h181v-79q20 44 54.5 67.5t82.5 23.5q17 0 27 -4v-188zM406 722l-110 -151h-138l-110 151h144l37 -57l37 57h140z" />
    <glyph glyph-name="Sacute" unicode="&#x15a;" horiz-adv-x="586" 
d="M181 246q17 -39 50 -61.5t70 -22.5q26 0 45 10.5t19 32.5q0 15 -12 26.5t-41 21.5l-85 30q-38 13 -69.5 32t-54.5 44.5t-35.5 57.5t-12.5 73q0 50 18 91t50.5 70.5t77.5 46t98 16.5q40 0 78 -10t71 -29.5t60.5 -47t45.5 -61.5l-153 -95q-15 30 -40 50t-57 20
q-26 0 -41 -11t-15 -30q0 -17 13 -26t33 -17l96 -36q87 -32 128.5 -82.5t41.5 -122.5q0 -55 -22 -98t-58.5 -72t-83.5 -44.5t-97 -15.5q-43 0 -84 11t-77 32t-65.5 52t-48.5 72zM220 753l104 151h181l-142 -151h-143z" />
    <glyph glyph-name="sacute" unicode="&#x15b;" horiz-adv-x="487" 
d="M161 571l104 151h181l-142 -151h-143zM467 160q0 -41 -16 -73t-45 -54.5t-70.5 -34.5t-92.5 -12q-66 0 -126.5 18t-105.5 50l72 127q37 -23 80.5 -37t80.5 -14q42 0 42 21q0 11 -12 16t-41 12l-26 6q-89 20 -129.5 57t-40.5 101q0 39 15.5 70t43.5 53.5t67.5 34.5
t88.5 12q55 0 106 -15t104 -44l-63 -128q-39 21 -77 33t-68 12q-20 0 -28.5 -4.5t-8.5 -15.5q0 -9 12.5 -14t43.5 -13l27 -7q88 -23 127.5 -60.5t39.5 -96.5z" />
    <glyph glyph-name="Scircumflex" unicode="&#x15c;" horiz-adv-x="586" 
d="M181 246q17 -39 50 -61.5t70 -22.5q26 0 45 10.5t19 32.5q0 15 -12 26.5t-41 21.5l-85 30q-38 13 -69.5 32t-54.5 44.5t-35.5 57.5t-12.5 73q0 50 18 91t50.5 70.5t77.5 46t98 16.5q40 0 78 -10t71 -29.5t60.5 -47t45.5 -61.5l-153 -95q-15 30 -40 50t-57 20
q-26 0 -41 -11t-15 -30q0 -17 13 -26t33 -17l96 -36q87 -32 128.5 -82.5t41.5 -122.5q0 -55 -22 -98t-58.5 -72t-83.5 -44.5t-97 -15.5q-43 0 -84 11t-77 32t-65.5 52t-48.5 72zM120 753l110 151h138l110 -151h-144l-37 57l-37 -57h-140z" />
    <glyph glyph-name="scircumflex" unicode="&#x15d;" horiz-adv-x="487" 
d="M73 571l110 151h138l110 -151h-144l-37 57l-37 -57h-140zM467 160q0 -41 -16 -73t-45 -54.5t-70.5 -34.5t-92.5 -12q-66 0 -126.5 18t-105.5 50l72 127q37 -23 80.5 -37t80.5 -14q42 0 42 21q0 11 -12 16t-41 12l-26 6q-89 20 -129.5 57t-40.5 101q0 39 15.5 70
t43.5 53.5t67.5 34.5t88.5 12q55 0 106 -15t104 -44l-63 -128q-39 21 -77 33t-68 12q-20 0 -28.5 -4.5t-8.5 -15.5q0 -9 12.5 -14t43.5 -13l27 -7q88 -23 127.5 -60.5t39.5 -96.5z" />
    <glyph glyph-name="Scedilla" unicode="&#x15e;" horiz-adv-x="586" 
d="M318 -41q41 0 67 -26t26 -66q0 -48 -31 -75.5t-78 -27.5q-53 0 -83 26t-32 67h87q1 -6 8 -13t19 -7t19.5 7.5t7.5 18.5t-7.5 18.5t-19.5 7.5q-7 0 -12.5 -3.5t-9.5 -8.5l-77 38l30 78q-67 14 -122 54t-86 106l157 93q17 -39 50 -61.5t70 -22.5q26 0 45 10.5t19 32.5
q0 15 -12 26.5t-41 21.5l-85 30q-38 13 -69.5 32t-54.5 44.5t-35.5 57.5t-12.5 73q0 50 18 91t50.5 70.5t77.5 46t98 16.5q40 0 78 -10t71 -29.5t60.5 -47t45.5 -61.5l-153 -95q-15 30 -40 50t-57 20q-26 0 -41 -11t-15 -30q0 -17 13 -26t33 -17l96 -36q87 -32 128.5 -82.5
t41.5 -122.5q0 -53 -20.5 -95t-55 -71t-79 -45.5t-92.5 -18.5l-13 -29q10 2 18 2z" />
    <glyph glyph-name="scedilla" unicode="&#x15f;" horiz-adv-x="487" 
d="M467 160q0 -78 -54 -123t-147 -50l-13 -30q10 2 18 2q41 0 67 -26t26 -66q0 -48 -31 -75.5t-78 -27.5q-53 0 -83 26t-32 67h87q1 -6 8 -13t19 -7t19.5 7.5t7.5 18.5t-7.5 18.5t-19.5 7.5q-7 0 -12.5 -3.5t-9.5 -8.5l-77 38l29 75q-50 6 -94 22.5t-79 41.5l72 127
q37 -23 80.5 -37t80.5 -14q42 0 42 21q0 11 -12 16t-41 12l-26 6q-89 20 -129.5 57t-40.5 101q0 39 15.5 70t43.5 53.5t67.5 34.5t88.5 12q55 0 106 -15t104 -44l-63 -128q-39 21 -77 33t-68 12q-20 0 -28.5 -4.5t-8.5 -15.5q0 -9 12.5 -14t43.5 -13l27 -7
q88 -23 127.5 -60.5t39.5 -96.5z" />
    <glyph glyph-name="Scaron" unicode="&#x160;" horiz-adv-x="586" 
d="M181 246q17 -39 50 -61.5t70 -22.5q26 0 45 10.5t19 32.5q0 15 -12 26.5t-41 21.5l-85 30q-38 13 -69.5 32t-54.5 44.5t-35.5 57.5t-12.5 73q0 50 18 91t50.5 70.5t77.5 46t98 16.5q40 0 78 -10t71 -29.5t60.5 -47t45.5 -61.5l-153 -95q-15 30 -40 50t-57 20
q-26 0 -41 -11t-15 -30q0 -17 13 -26t33 -17l96 -36q87 -32 128.5 -82.5t41.5 -122.5q0 -55 -22 -98t-58.5 -72t-83.5 -44.5t-97 -15.5q-43 0 -84 11t-77 32t-65.5 52t-48.5 72zM476 904l-110 -151h-138l-110 151h144l37 -57l37 57h140z" />
    <glyph glyph-name="scaron" unicode="&#x161;" horiz-adv-x="487" 
d="M428 722l-110 -151h-138l-110 151h144l37 -57l37 57h140zM467 160q0 -41 -16 -73t-45 -54.5t-70.5 -34.5t-92.5 -12q-66 0 -126.5 18t-105.5 50l72 127q37 -23 80.5 -37t80.5 -14q42 0 42 21q0 11 -12 16t-41 12l-26 6q-89 20 -129.5 57t-40.5 101q0 39 15.5 70
t43.5 53.5t67.5 34.5t88.5 12q55 0 106 -15t104 -44l-63 -128q-39 21 -77 33t-68 12q-20 0 -28.5 -4.5t-8.5 -15.5q0 -9 12.5 -14t43.5 -13l27 -7q88 -23 127.5 -60.5t39.5 -96.5z" />
    <glyph glyph-name="Tcommaaccent" unicode="&#x162;" horiz-adv-x="568" 
d="M17 700h534v-176h-173v-524h-188v524h-173v176zM263 -207q-29 2 -48.5 23t-19.5 50q0 19 7 35.5t19 28.5t28.5 18.5t34.5 6.5q39 0 65 -25.5t26 -63.5q0 -21 -6.5 -41t-20.5 -45l-39 -70h-93z" />
    <glyph glyph-name="tcommaaccent" unicode="&#x163;" horiz-adv-x="397" 
d="M260 643v-143h117v-147h-117v-135q0 -38 16 -53.5t47 -15.5q14 0 28 4t26 11v-154q-18 -9 -47 -16t-71 -7q-84 0 -132.5 49t-48.5 139v178h-67v147h67v143h182zM198 -207q-29 2 -48.5 23t-19.5 50q0 19 7 35.5t19 28.5t28.5 18.5t34.5 6.5q39 0 65 -25.5t26 -63.5
q0 -21 -6.5 -41t-20.5 -45l-39 -70h-93z" />
    <glyph glyph-name="Tcaron" unicode="&#x164;" horiz-adv-x="568" 
d="M17 700h534v-176h-173v-524h-188v524h-173v176zM463 904l-110 -151h-138l-110 151h144l37 -57l37 57h140z" />
    <glyph glyph-name="tcaron" unicode="&#x165;" horiz-adv-x="397" 
d="M260 643v-143h117v-147h-117v-135q0 -38 16 -53.5t47 -15.5q14 0 28 4t26 11v-154q-18 -9 -47 -16t-71 -7q-84 0 -132.5 49t-48.5 139v178h-67v147h67v143h182zM297 539l34 175h175l-61 -175h-148z" />
    <glyph glyph-name="Tbar" unicode="&#x166;" horiz-adv-x="568" 
d="M17 700h534v-176h-173v-95h95v-159h-95v-270h-188v270h-95v159h95v95h-173v176z" />
    <glyph glyph-name="tbar" unicode="&#x167;" horiz-adv-x="414" 
d="M269 643v-143h117v-147h-117v-36h117v-108h-117q2 -33 18 -46.5t45 -13.5q14 0 28 4t26 11v-154q-18 -9 -47 -16t-71 -7q-84 0 -132.5 49t-48.5 139v34h-67v108h67v36h-67v147h67v143h182z" />
    <glyph glyph-name="Utilde" unicode="&#x168;" horiz-adv-x="690" 
d="M345 -14q-66 0 -119.5 20.5t-91 58t-58 91.5t-20.5 121v423h191v-411q0 -58 25 -89t73 -31t73 31t25 89v411h191v-423q0 -67 -20.5 -121t-58 -91.5t-91 -58t-119.5 -20.5zM161 754q2 72 34 113t88 41q26 0 43 -7t29 -15.5t22.5 -15.5t23.5 -7q14 0 24 10.5t11 29.5h101
q-2 -72 -34 -113t-88 -41q-26 0 -43 7t-29 15.5t-22.5 15.5t-23.5 7q-15 0 -24.5 -10.5t-10.5 -29.5h-101z" />
    <glyph glyph-name="utilde" unicode="&#x169;" horiz-adv-x="601" 
d="M546 0h-183v61q-21 -37 -56.5 -56t-81.5 -19q-81 0 -127 52.5t-46 143.5v318h183v-268q0 -38 16.5 -58.5t46.5 -20.5q29 0 47 21t18 60v266h183v-500zM116 572q2 72 34 113t88 41q26 0 43 -7t29 -15.5t22.5 -15.5t23.5 -7q14 0 24 10.5t11 29.5h101q-2 -72 -34 -113
t-88 -41q-26 0 -43 7t-29 15.5t-22.5 15.5t-23.5 7q-15 0 -24.5 -10.5t-10.5 -29.5h-101z" />
    <glyph glyph-name="Umacron" unicode="&#x16a;" horiz-adv-x="690" 
d="M345 -14q-66 0 -119.5 20.5t-91 58t-58 91.5t-20.5 121v423h191v-411q0 -58 25 -89t73 -31t73 31t25 89v411h191v-423q0 -67 -20.5 -121t-58 -91.5t-91 -58t-119.5 -20.5zM179 753v121h332v-121h-332z" />
    <glyph glyph-name="umacron" unicode="&#x16b;" horiz-adv-x="601" 
d="M546 0h-183v61q-21 -37 -56.5 -56t-81.5 -19q-81 0 -127 52.5t-46 143.5v318h183v-268q0 -38 16.5 -58.5t46.5 -20.5q29 0 47 21t18 60v266h183v-500zM132 571v121h332v-121h-332z" />
    <glyph glyph-name="Ubreve" unicode="&#x16c;" horiz-adv-x="690" 
d="M345 -14q-66 0 -119.5 20.5t-91 58t-58 91.5t-20.5 121v423h191v-411q0 -58 25 -89t73 -31t73 31t25 89v411h191v-423q0 -67 -20.5 -121t-58 -91.5t-91 -58t-119.5 -20.5zM345 856q20 0 33 12.5t13 35.5h116q0 -35 -12.5 -63.5t-34.5 -48.5t-51.5 -31t-63.5 -11t-63.5 11
t-51.5 31t-34.5 48.5t-12.5 63.5h116q0 -23 13 -35.5t33 -12.5z" />
    <glyph glyph-name="ubreve" unicode="&#x16d;" horiz-adv-x="601" 
d="M546 0h-183v61q-21 -37 -56.5 -56t-81.5 -19q-81 0 -127 52.5t-46 143.5v318h183v-268q0 -38 16.5 -58.5t46.5 -20.5q29 0 47 21t18 60v266h183v-500zM299 674q20 0 33 12.5t13 35.5h116q0 -35 -12.5 -63.5t-34.5 -48.5t-51.5 -31t-63.5 -11t-63.5 11t-51.5 31
t-34.5 48.5t-12.5 63.5h116q0 -23 13 -35.5t33 -12.5z" />
    <glyph glyph-name="Uring" unicode="&#x16e;" horiz-adv-x="690" 
d="M345 -14q-66 0 -119.5 20.5t-91 58t-58 91.5t-20.5 121v423h191v-411q0 -58 25 -89t73 -31t73 31t25 89v411h191v-423q0 -67 -20.5 -121t-58 -91.5t-91 -58t-119.5 -20.5zM345 736q-23 0 -44 8.5t-36.5 23t-24.5 34.5t-9 43t9 43t24.5 34.5t36.5 23t44 8.5t44 -8.5
t36.5 -23t24.5 -34.5t9 -43t-9 -43t-24.5 -34.5t-36.5 -23t-44 -8.5zM345 877q-13 0 -22.5 -9t-9.5 -23t9.5 -23t22.5 -9t22.5 9t9.5 23t-9.5 23t-22.5 9z" />
    <glyph glyph-name="uring" unicode="&#x16f;" horiz-adv-x="601" 
d="M546 0h-183v61q-21 -37 -56.5 -56t-81.5 -19q-81 0 -127 52.5t-46 143.5v318h183v-268q0 -38 16.5 -58.5t46.5 -20.5q29 0 47 21t18 60v266h183v-500zM297 555q-23 0 -44 8.5t-36.5 23t-24.5 34.5t-9 43t9 43t24.5 34.5t36.5 23t44 8.5t44 -8.5t36.5 -23t24.5 -34.5
t9 -43t-9 -43t-24.5 -34.5t-36.5 -23t-44 -8.5zM297 696q-13 0 -22.5 -9t-9.5 -23t9.5 -23t22.5 -9t22.5 9t9.5 23t-9.5 23t-22.5 9z" />
    <glyph glyph-name="Uhungarumlaut" unicode="&#x170;" horiz-adv-x="690" 
d="M345 -14q-66 0 -119.5 20.5t-91 58t-58 91.5t-20.5 121v423h191v-411q0 -58 25 -89t73 -31t73 31t25 89v411h191v-423q0 -67 -20.5 -121t-58 -91.5t-91 -58t-119.5 -20.5zM170 753l89 151h154l-117 -151h-126zM368 753l89 151h154l-117 -151h-126z" />
    <glyph glyph-name="uhungarumlaut" unicode="&#x171;" horiz-adv-x="601" 
d="M546 0h-183v61q-21 -37 -56.5 -56t-81.5 -19q-81 0 -127 52.5t-46 143.5v318h183v-268q0 -38 16.5 -58.5t46.5 -20.5q29 0 47 21t18 60v266h183v-500zM121 571l89 151h154l-117 -151h-126zM319 571l89 151h154l-117 -151h-126z" />
    <glyph glyph-name="Uogonek" unicode="&#x172;" horiz-adv-x="690" 
d="M315 -13q-60 5 -108 27.5t-81.5 60t-51.5 88.5t-18 114v423h191v-410q0 -59 25 -90t73 -31t73 31t25 90v410h191v-423q0 -100 -43 -168t-119 -101q-35 -16 -58 -37t-23 -46q0 -31 39 -31q9 0 19 1.5t19 5.5v-103q-29 -9 -63 -9q-63 0 -100.5 29.5t-37.5 78.5q0 52 48 90z
" />
    <glyph glyph-name="uogonek" unicode="&#x173;" horiz-adv-x="601" 
d="M546 0h-47q-34 -11 -56.5 -31t-22.5 -44q0 -31 39 -31q9 0 19 1.5t19 5.5v-103q-29 -9 -63 -9q-63 0 -100.5 29.5t-37.5 78.5q0 62 67 103v61q-21 -37 -56.5 -56t-81.5 -19q-81 0 -127 52.5t-46 143.5v318h183v-268q0 -38 16.5 -58.5t46.5 -20.5q29 0 47 21t18 60v266
h183v-500z" />
    <glyph glyph-name="Wcircumflex" unicode="&#x174;" horiz-adv-x="1074" 
d="M247 0l-241 700h196l129 -420l127 420h162l126 -420l130 420h192l-241 -700h-163l-127 426l-127 -426h-163zM360 753l110 151h138l110 -151h-144l-37 57l-37 -57h-140z" />
    <glyph glyph-name="wcircumflex" unicode="&#x175;" horiz-adv-x="839" 
d="M507 0l-88 267l-87 -267h-156l-170 500h185l78 -260l85 260h135l84 -260l79 260h181l-170 -500h-156zM243 571l110 151h138l110 -151h-144l-37 57l-37 -57h-140z" />
    <glyph glyph-name="Ycircumflex" unicode="&#x176;" horiz-adv-x="679" 
d="M434 0h-189v298l-247 402h214l129 -225l130 225h210l-247 -402v-298zM162 753l110 151h138l110 -151h-144l-37 57l-37 -57h-140z" />
    <glyph glyph-name="ycircumflex" unicode="&#x177;" horiz-adv-x="607" 
d="M149 -226q-37 0 -62 7.5t-39 15.5v149q31 -14 63 -14q33 0 57.5 11.5t36.5 40.5l4 10l-205 506h193l109 -306l109 306h188l-213 -524q-44 -107 -103 -154.5t-138 -47.5zM128 571l110 151h138l110 -151h-144l-37 57l-37 -57h-140z" />
    <glyph glyph-name="Ydieresis" unicode="&#x178;" horiz-adv-x="679" 
d="M434 0h-189v298l-247 402h214l129 -225l130 225h210l-247 -402v-298zM317 828q0 -33 -24 -57.5t-59 -24.5q-34 0 -58 24t-24 58t24 58t58 24q35 0 59 -24.5t24 -57.5zM531 828q0 -33 -24 -57.5t-59 -24.5q-34 0 -58 24t-24 58t24 58t58 24q35 0 59 -24.5t24 -57.5z" />
    <glyph glyph-name="Zacute" unicode="&#x179;" horiz-adv-x="619" 
d="M280 169h311v-169h-565v133l304 398h-284v169h539v-133zM233 753l104 151h181l-142 -151h-143z" />
    <glyph glyph-name="zacute" unicode="&#x17a;" horiz-adv-x="513" 
d="M480 386l-212 -240h216v-146h-455v116l210 238h-199v146h440v-114zM176 571l104 151h181l-142 -151h-143z" />
    <glyph glyph-name="Zdotaccent" unicode="&#x17b;" horiz-adv-x="619" 
d="M280 169h311v-169h-565v133l304 398h-284v169h539v-133zM424 843q0 -19 -7.5 -36.5t-21 -30.5t-31 -21t-38.5 -8q-20 0 -37.5 7.5t-31 21t-21 30.5t-7.5 37t7.5 37.5t21 31t31 21t37.5 7.5q21 0 38.5 -8t31 -21t21 -31t7.5 -37z" />
    <glyph glyph-name="zdotaccent" unicode="&#x17c;" horiz-adv-x="513" 
d="M480 386l-212 -240h216v-146h-455v116l210 238h-199v146h440v-114zM371 641q0 -20 -8 -38.5t-22 -32.5t-32.5 -22t-40.5 -8q-21 0 -39.5 8t-32.5 22t-22 32t-8 39t8 39t22 32t32.5 22t39.5 8q22 0 40.5 -8t32.5 -22t22 -32.5t8 -38.5z" />
    <glyph glyph-name="Zcaron" unicode="&#x17d;" horiz-adv-x="619" 
d="M280 169h311v-169h-565v133l304 398h-284v169h539v-133zM505 904l-110 -151h-138l-110 151h144l37 -57l37 57h140z" />
    <glyph glyph-name="zcaron" unicode="&#x17e;" horiz-adv-x="513" 
d="M480 386l-212 -240h216v-146h-455v116l210 238h-199v146h440v-114zM448 722l-110 -151h-138l-110 151h144l37 -57l37 57h140z" />
    <glyph glyph-name="florin" unicode="&#x192;" horiz-adv-x="550" 
d="M94 440h109l16 89q17 94 76.5 148t153.5 54q25 0 48 -4t43 -11v-158q-33 14 -66 14q-29 0 -50.5 -14t-26.5 -45l-13 -73h107v-151h-134l-46 -266q-17 -94 -76.5 -148t-153.5 -54q-25 0 -48 4t-43 11v158q33 -14 66 -14q29 0 50.5 14t26.5 45l44 250h-83v151z" />
    <glyph glyph-name="AEacute" unicode="&#x1fc;" horiz-adv-x="960" 
d="M492 119h-222l-68 -119h-202l407 700h511v-170h-239v-96h215v-164h-215v-100h241v-170h-428v119zM492 277v242l-136 -242h136zM511 753l104 151h181l-142 -151h-143z" />
    <glyph glyph-name="aeacute" unicode="&#x1fd;" horiz-adv-x="863" 
d="M269 375q-48 0 -62 -46l-160 37q18 68 78.5 108t145.5 40q101 0 157 -54q32 26 72.5 40t86.5 14q57 0 103.5 -19.5t79.5 -55t51.5 -86t18.5 -112.5q0 -12 -0.5 -21t-1.5 -16h-330q3 -32 27 -52t57 -20q27 0 44.5 10.5t30.5 33.5l157 -55q-29 -65 -89 -100t-142 -35
q-59 0 -107.5 18.5t-83.5 53.5q-36 -35 -83 -53.5t-113 -18.5q-80 0 -128.5 40.5t-48.5 109.5q0 135 185 163l109 17v12q0 20 -15.5 33.5t-38.5 13.5zM586 374q-32 0 -53 -18.5t-24 -46.5h154q-3 29 -24 47t-53 18zM205 149q1 -15 12.5 -24t30.5 -9q34 0 54.5 20t20.5 54v11
l-65 -11q-53 -9 -53 -41zM361 571l104 151h181l-142 -151h-143z" />
    <glyph glyph-name="Oslashacute" unicode="&#x1fe;" horiz-adv-x="810" 
d="M701 571q35 -46 55 -102t20 -119q0 -76 -29 -142.5t-79.5 -115.5t-118 -77.5t-144.5 -28.5q-62 0 -117.5 18t-102.5 51l-77 -77l-75 75l76 76q-36 46 -55.5 102t-19.5 119q0 76 29 142.5t79.5 115.5t118 77.5t144.5 28.5q62 0 117.5 -18.5t101.5 -51.5l78 78l75 -75z
M589 350q0 24 -5.5 46t-15.5 42l-252 -252q40 -23 89 -23q39 0 72.5 14.5t58 40t39 59.5t14.5 73zM221 350q0 -49 21 -88l252 252q-20 11 -42.5 17t-46.5 6q-39 0 -72.5 -14.5t-58 -40t-39 -59.5t-14.5 -73zM333 753l104 151h181l-142 -151h-143z" />
    <glyph glyph-name="oslashacute" unicode="&#x1ff;" horiz-adv-x="610" 
d="M305 514q89 0 157 -45l53 53l62 -62l-50 -50q26 -33 40.5 -73.5t14.5 -86.5q0 -56 -21.5 -104.5t-58.5 -84t-88 -55.5t-109 -20q-45 0 -84.5 11.5t-73.5 32.5l-52 -52l-62 62l49 49q-26 33 -40 73.5t-14 87.5q0 56 21.5 104.5t58.5 84t87.5 55.5t109.5 20zM230 571
l104 151h181l-142 -151h-143zM305 360q-23 0 -42.5 -9t-34.5 -24t-23.5 -35t-8.5 -42t7 -40l142 142q-19 8 -40 8zM414 250q0 20 -8 39l-141 -141q19 -8 40 -8q22 0 42 8.5t35 23.5t23.5 35t8.5 43z" />
    <glyph glyph-name="Scommaaccent" unicode="&#x218;" horiz-adv-x="586" 
d="M181 246q17 -39 50 -61.5t70 -22.5q26 0 45 10.5t19 32.5q0 15 -12 26.5t-41 21.5l-85 30q-38 13 -69.5 32t-54.5 44.5t-35.5 57.5t-12.5 73q0 50 18 91t50.5 70.5t77.5 46t98 16.5q40 0 78 -10t71 -29.5t60.5 -47t45.5 -61.5l-153 -95q-15 30 -40 50t-57 20
q-26 0 -41 -11t-15 -30q0 -17 13 -26t33 -17l96 -36q87 -32 128.5 -82.5t41.5 -122.5q0 -55 -22 -98t-58.5 -72t-83.5 -44.5t-97 -15.5q-43 0 -84 11t-77 32t-65.5 52t-48.5 72zM274 -207q-29 2 -48.5 23t-19.5 50q0 19 7 35.5t19 28.5t28.5 18.5t34.5 6.5q39 0 65 -25.5
t26 -63.5q0 -21 -6.5 -41t-20.5 -45l-39 -70h-93z" />
    <glyph glyph-name="scommaaccent" unicode="&#x219;" horiz-adv-x="487" 
d="M231 -207q-29 2 -48.5 23t-19.5 50q0 19 7 35.5t19 28.5t28.5 18.5t34.5 6.5q39 0 65 -25.5t26 -63.5q0 -21 -6.5 -41t-20.5 -45l-39 -70h-93zM467 160q0 -41 -16 -73t-45 -54.5t-70.5 -34.5t-92.5 -12q-66 0 -126.5 18t-105.5 50l72 127q37 -23 80.5 -37t80.5 -14
q42 0 42 21q0 11 -12 16t-41 12l-26 6q-89 20 -129.5 57t-40.5 101q0 39 15.5 70t43.5 53.5t67.5 34.5t88.5 12q55 0 106 -15t104 -44l-63 -128q-39 21 -77 33t-68 12q-20 0 -28.5 -4.5t-8.5 -15.5q0 -9 12.5 -14t43.5 -13l27 -7q88 -23 127.5 -60.5t39.5 -96.5z" />
    <glyph glyph-name="dotlessj" unicode="&#x237;" horiz-adv-x="295" 
d="M56 500h183v-501q0 -108 -54.5 -166.5t-151.5 -58.5q-32 0 -51.5 4t-32.5 8v154q5 -2 14.5 -4t23.5 -2q35 0 52 20.5t17 56.5v489z" />
    <glyph glyph-name="circumflex" unicode="&#x2c6;" horiz-adv-x="500" 
d="M71 571l110 151h138l110 -151h-144l-37 57l-37 -57h-140z" />
    <glyph glyph-name="caron" unicode="&#x2c7;" horiz-adv-x="500" 
d="M429 722l-110 -151h-138l-110 151h144l37 -57l37 57h140z" />
    <glyph glyph-name="breve" unicode="&#x2d8;" horiz-adv-x="500" 
d="M250 674q20 0 33 12.5t13 35.5h116q0 -35 -12.5 -63.5t-34.5 -48.5t-51.5 -31t-63.5 -11t-63.5 11t-51.5 31t-34.5 48.5t-12.5 63.5h116q0 -23 13 -35.5t33 -12.5z" />
    <glyph glyph-name="dotaccent" unicode="&#x2d9;" horiz-adv-x="500" 
d="M352 641q0 -20 -8 -38.5t-22 -32.5t-32.5 -22t-40.5 -8q-21 0 -39.5 8t-32.5 22t-22 32t-8 39t8 39t22 32t32.5 22t39.5 8q22 0 40.5 -8t32.5 -22t22 -32.5t8 -38.5z" />
    <glyph glyph-name="ring" unicode="&#x2da;" horiz-adv-x="500" 
d="M250 555q-23 0 -44 8.5t-36.5 23t-24.5 34.5t-9 43t9 43t24.5 34.5t36.5 23t44 8.5t44 -8.5t36.5 -23t24.5 -34.5t9 -43t-9 -43t-24.5 -34.5t-36.5 -23t-44 -8.5zM250 696q-13 0 -22.5 -9t-9.5 -23t9.5 -23t22.5 -9t22.5 9t9.5 23t-9.5 23t-22.5 9z" />
    <glyph glyph-name="ogonek" unicode="&#x2db;" horiz-adv-x="500" 
d="M332 0q-34 -11 -56.5 -31t-22.5 -44q0 -31 39 -31q9 0 19 1.5t19 5.5v-103q-29 -9 -63 -9q-63 0 -100.5 29.5t-37.5 78.5q0 62 67 103h136z" />
    <glyph glyph-name="tilde" unicode="&#x2dc;" horiz-adv-x="500" 
d="M62 572q2 72 34 113t88 41q26 0 43 -7t29 -15.5t22.5 -15.5t23.5 -7q14 0 24 10.5t11 29.5h101q-2 -72 -34 -113t-88 -41q-26 0 -43 7t-29 15.5t-22.5 15.5t-23.5 7q-15 0 -24.5 -10.5t-10.5 -29.5h-101z" />
    <glyph glyph-name="hungarumlaut" unicode="&#x2dd;" horiz-adv-x="500" 
d="M88 571l89 151h154l-117 -151h-126zM286 571l89 151h154l-117 -151h-126z" />
    <glyph glyph-name="uni0312" unicode="&#x312;" horiz-adv-x="500" 
d="M319 800l-47 -83q29 -2 48.5 -23t19.5 -50q0 -19 -7 -35.5t-19 -28.5t-28.5 -18.5t-34.5 -6.5t-34 6.5t-29 18t-20.5 28t-7.5 36.5q0 21 6.5 41t20.5 45l39 70h93z" />
    <glyph glyph-name="mu" unicode="&#x3bc;" horiz-adv-x="604" 
d="M238 500v-268q0 -38 16.5 -58.5t46.5 -20.5q29 0 47 21t18 60v266h183v-500h-183v61q-20 -35 -53 -54t-75 -21v-194h-183v708h183z" />
    <glyph glyph-name="pi" unicode="&#x3c0;" horiz-adv-x="674" 
d="M15 500h644v-155h-80v-345h-183v345h-118v-345h-183v345h-80v155z" />
    <glyph glyph-name="Wgrave" unicode="&#x1e80;" horiz-adv-x="1074" 
d="M247 0l-241 700h196l129 -420l127 420h162l126 -420l130 420h192l-241 -700h-163l-127 426l-127 -426h-163zM469 753l-142 151h181l104 -151h-143z" />
    <glyph glyph-name="wgrave" unicode="&#x1e81;" horiz-adv-x="839" 
d="M507 0l-88 267l-87 -267h-156l-170 500h185l78 -260l85 260h135l84 -260l79 260h181l-170 -500h-156zM345 571l-142 151h181l104 -151h-143z" />
    <glyph glyph-name="Wacute" unicode="&#x1e82;" horiz-adv-x="1074" 
d="M247 0l-241 700h196l129 -420l127 420h162l126 -420l130 420h192l-241 -700h-163l-127 426l-127 -426h-163zM466 753l104 151h181l-142 -151h-143z" />
    <glyph glyph-name="wacute" unicode="&#x1e83;" horiz-adv-x="839" 
d="M507 0l-88 267l-87 -267h-156l-170 500h185l78 -260l85 260h135l84 -260l79 260h181l-170 -500h-156zM351 571l104 151h181l-142 -151h-143z" />
    <glyph glyph-name="Wdieresis" unicode="&#x1e84;" horiz-adv-x="1074" 
d="M247 0l-241 700h196l129 -420l127 420h162l126 -420l130 420h192l-241 -700h-163l-127 426l-127 -426h-163zM515 828q0 -33 -24 -57.5t-59 -24.5q-34 0 -58 24t-24 58t24 58t58 24q35 0 59 -24.5t24 -57.5zM729 828q0 -33 -24 -57.5t-59 -24.5q-34 0 -58 24t-24 58t24 58
t58 24q35 0 59 -24.5t24 -57.5z" />
    <glyph glyph-name="wdieresis" unicode="&#x1e85;" horiz-adv-x="839" 
d="M507 0l-88 267l-87 -267h-156l-170 500h185l78 -260l85 260h135l84 -260l79 260h181l-170 -500h-156zM397 645q0 -33 -24 -57.5t-59 -24.5q-34 0 -58 24t-24 58t24 58t58 24q35 0 59 -24.5t24 -57.5zM611 645q0 -33 -24 -57.5t-59 -24.5q-34 0 -58 24t-24 58t24 58t58 24
q35 0 59 -24.5t24 -57.5z" />
    <glyph glyph-name="Ygrave" unicode="&#x1ef2;" horiz-adv-x="679" 
d="M434 0h-189v298l-247 402h214l129 -225l130 225h210l-247 -402v-298zM279 753l-142 151h181l104 -151h-143z" />
    <glyph glyph-name="ygrave" unicode="&#x1ef3;" horiz-adv-x="607" 
d="M149 -226q-37 0 -62 7.5t-39 15.5v149q31 -14 63 -14q33 0 57.5 11.5t36.5 40.5l4 10l-205 506h193l109 -306l109 306h188l-213 -524q-44 -107 -103 -154.5t-138 -47.5zM235 571l-142 151h181l104 -151h-143z" />
    <glyph glyph-name="thinspace" unicode="&#x2009;" horiz-adv-x="100" 
 />
    <glyph glyph-name="figuredash" unicode="&#x2012;" 
d="M50 347h500v-156h-500v156z" />
    <glyph glyph-name="endash" unicode="&#x2013;" horiz-adv-x="570" 
d="M50 347h470v-156h-470v156z" />
    <glyph glyph-name="emdash" unicode="&#x2014;" horiz-adv-x="870" 
d="M50 347h770v-156h-770v156z" />
    <glyph glyph-name="quoteleft" unicode="&#x2018;" horiz-adv-x="248" 
d="M208 700l-67 -115h2q32 0 53.5 -22.5t21.5 -54.5q0 -41 -27 -66.5t-66 -25.5q-42 0 -68.5 25.5t-26.5 66.5q0 22 6.5 43t21.5 48l57 101h93z" />
    <glyph glyph-name="quoteright" unicode="&#x2019;" horiz-adv-x="248" 
d="M40 430l66 115h-1q-32 0 -53.5 22.5t-21.5 54.5q0 41 27 66.5t66 25.5q42 0 68.5 -25.5t26.5 -66.5q0 -22 -6.5 -43t-21.5 -48l-57 -101h-93z" />
    <glyph glyph-name="quotesinglbase" unicode="&#x201a;" horiz-adv-x="248" 
d="M40 -113l66 115h-1q-32 0 -53.5 22.5t-21.5 54.5q0 41 27 66.5t66 25.5q42 0 68.5 -25.5t26.5 -66.5q0 -22 -6.5 -43t-21.5 -48l-57 -101h-93z" />
    <glyph glyph-name="quotedblleft" unicode="&#x201c;" horiz-adv-x="476" 
d="M208 700l-67 -115h2q32 0 53.5 -22.5t21.5 -54.5q0 -41 -27 -66.5t-66 -25.5q-42 0 -68.5 25.5t-26.5 66.5q0 22 6.5 43t21.5 48l57 101h93zM436 700l-67 -115h2q32 0 53.5 -22.5t21.5 -54.5q0 -41 -27 -66.5t-66 -25.5q-42 0 -68.5 25.5t-26.5 66.5q0 22 6.5 43t21.5 48
l57 101h93z" />
    <glyph glyph-name="quotedblright" unicode="&#x201d;" horiz-adv-x="476" 
d="M40 430l66 115h-1q-32 0 -53.5 22.5t-21.5 54.5q0 41 27 66.5t66 25.5q42 0 68.5 -25.5t26.5 -66.5q0 -22 -6.5 -43t-21.5 -48l-57 -101h-93zM268 430l66 115h-1q-32 0 -53.5 22.5t-21.5 54.5q0 41 27 66.5t66 25.5q42 0 68.5 -25.5t26.5 -66.5q0 -22 -6.5 -43t-21.5 -48
l-57 -101h-93z" />
    <glyph glyph-name="quotedblbase" unicode="&#x201e;" horiz-adv-x="476" 
d="M40 -113l66 115h-1q-32 0 -53.5 22.5t-21.5 54.5q0 41 27 66.5t66 25.5q42 0 68.5 -25.5t26.5 -66.5q0 -22 -6.5 -43t-21.5 -48l-57 -101h-93zM268 -113l66 115h-1q-32 0 -53.5 22.5t-21.5 54.5q0 41 27 66.5t66 25.5q42 0 68.5 -25.5t26.5 -66.5q0 -22 -6.5 -43
t-21.5 -48l-57 -101h-93z" />
    <glyph glyph-name="dagger" unicode="&#x2020;" horiz-adv-x="508" 
d="M35 500h129v200h180v-200h129v-160h-129v-448h-180v448h-129v160z" />
    <glyph glyph-name="daggerdbl" unicode="&#x2021;" horiz-adv-x="508" 
d="M35 522h129v178h180v-178h129v-160h-129v-122h129v-160h-129v-188h-180v188h-129v160h129v122h-129v160z" />
    <glyph glyph-name="bullet" unicode="&#x2022;" horiz-adv-x="388" 
d="M40 270q0 31 12 59t33 49t49 33t60 12q31 0 59 -12t49 -33t33.5 -49t12.5 -59t-12.5 -59t-33.5 -49t-49 -33t-59 -12q-32 0 -60 12t-49 33t-33 49t-12 59z" />
    <glyph glyph-name="ellipsis" unicode="&#x2026;" horiz-adv-x="906" 
d="M257 91q0 -21 -8.5 -40t-22.5 -33.5t-33.5 -23t-41.5 -8.5t-41 8.5t-33.5 22.5t-23 33.5t-8.5 40.5t8.5 40.5t23 33.5t33.5 22.5t41 8.5t41 -8.5t33.5 -22.5t23 -33.5t8.5 -40.5zM861 91q0 -21 -8.5 -40t-22.5 -33.5t-33.5 -23t-41.5 -8.5t-41 8.5t-33.5 22.5t-23 33.5
t-8.5 40.5t8.5 40.5t23 33.5t33.5 22.5t41 8.5t41 -8.5t33.5 -22.5t23 -33.5t8.5 -40.5zM559 91q0 -21 -8.5 -40t-22.5 -33.5t-33.5 -23t-41.5 -8.5t-41 8.5t-33.5 22.5t-23 33.5t-8.5 40.5t8.5 40.5t23 33.5t33.5 22.5t41 8.5t41 -8.5t33.5 -22.5t23 -33.5t8.5 -40.5z" />
    <glyph glyph-name="perthousand" unicode="&#x2030;" horiz-adv-x="1239" 
d="M377 527q0 -36 -13.5 -66.5t-37.5 -53.5t-56 -36t-69 -13t-69 13t-56 36t-37.5 53.5t-13.5 66.5t13.5 66.5t37.5 53.5t56 36t69 13t69 -13t56 -36t37.5 -53.5t13.5 -66.5zM259 527q0 26 -16.5 42.5t-41.5 16.5t-41.5 -16.5t-16.5 -42.5t16.5 -42.5t41.5 -16.5t41.5 16.5
t16.5 42.5zM242 0h-153l510 687h153zM464 160q0 36 13.5 66.5t37.5 53.5t56 36t69 13t69 -13t56 -36t37.5 -53.5t13.5 -66.5t-13.5 -66.5t-37.5 -53.5t-56 -36t-69 -13t-69 13t-56 36t-37.5 53.5t-13.5 66.5zM582 160q0 -26 16.5 -42.5t41.5 -16.5t41.5 16.5t16.5 42.5
t-16.5 42.5t-41.5 16.5t-41.5 -16.5t-16.5 -42.5zM862 160q0 36 13.5 66.5t37.5 53.5t56 36t69 13t69 -13t56 -36t37.5 -53.5t13.5 -66.5t-13.5 -66.5t-37.5 -53.5t-56 -36t-69 -13t-69 13t-56 36t-37.5 53.5t-13.5 66.5zM980 160q0 -26 16.5 -42.5t41.5 -16.5t41.5 16.5
t16.5 42.5t-16.5 42.5t-41.5 16.5t-41.5 -16.5t-16.5 -42.5z" />
    <glyph glyph-name="guilsinglleft" unicode="&#x2039;" horiz-adv-x="342" 
d="M30 269l133 202h154l-131 -202l132 -202h-158z" />
    <glyph glyph-name="guilsinglright" unicode="&#x203a;" horiz-adv-x="342" 
d="M312 269l-133 -202h-154l131 202l-132 202h158z" />
    <glyph glyph-name="fraction" unicode="&#x2044;" horiz-adv-x="205" 
d="M-81 0h-143l510 687h143z" />
    <glyph glyph-name="uni2070" unicode="&#x2070;" horiz-adv-x="384" 
d="M351 493q0 -92 -41 -147.5t-118 -55.5t-118 55.5t-41 147.5t41 147.5t118 55.5t118 -55.5t41 -147.5zM232 493q0 48 -10 70.5t-30 22.5t-30 -22.5t-10 -70.5t10 -70.5t30 -22.5t30 22.5t10 70.5z" />
    <glyph glyph-name="uni2074" unicode="&#x2074;" horiz-adv-x="373" 
d="M315 467h45v-97h-45v-71h-117v71h-180v80l146 237h151v-220zM141 467h57v97z" />
    <glyph glyph-name="uni2075" unicode="&#x2075;" horiz-adv-x="363" 
d="M40 476l29 211h243v-98h-153l-6 -34q22 11 58 11q28 0 51.5 -9.5t40.5 -26.5t27 -40t10 -50q0 -33 -11.5 -60.5t-32 -47.5t-48.5 -31t-61 -11q-70 0 -112.5 36t-44.5 96h116q8 -25 39 -25q15 0 26.5 11t11.5 26q0 18 -10.5 28.5t-27.5 10.5q-23 0 -36 -18z" />
    <glyph glyph-name="uni2076" unicode="&#x2076;" horiz-adv-x="373" 
d="M346 441q0 -33 -12 -60.5t-33 -48t-50 -31.5t-63 -11q-35 0 -63.5 11t-49.5 31.5t-32.5 48t-11.5 60.5q0 57 36 113l86 133h133l-83 -119q5 1 9.5 1h6.5q26 0 49 -10t40.5 -27.5t27.5 -40.5t10 -50zM231 436q0 18 -12 29.5t-30 11.5t-30 -11.5t-12 -29.5t12 -29.5
t30 -11.5t30 11.5t12 29.5z" />
    <glyph glyph-name="uni2077" unicode="&#x2077;" horiz-adv-x="351" 
d="M40 299l150 281h-167v107h309v-89l-155 -299h-137z" />
    <glyph glyph-name="uni2078" unicode="&#x2078;" horiz-adv-x="364" 
d="M182 290q-34 0 -63 9.5t-50 27t-32.5 41t-11.5 51.5q0 29 17 54.5t44 36.5q-21 12 -32.5 32t-11.5 43q0 24 10.5 44.5t29 35t44.5 23t56 8.5t56 -8.5t44.5 -23t29 -35t10.5 -44.5q0 -23 -11.5 -43t-32.5 -32q27 -11 44 -36.5t17 -54.5q0 -28 -11.5 -51.5t-32.5 -41
t-50 -27t-63 -9.5zM182 388q17 0 27.5 10.5t10.5 25.5t-10.5 25.5t-27.5 10.5t-27.5 -10.5t-10.5 -25.5t10.5 -25.5t27.5 -10.5zM182 545q14 0 22.5 8t8.5 20t-8.5 20t-22.5 8t-22.5 -8t-8.5 -20t8.5 -20t22.5 -8z" />
    <glyph glyph-name="uni2079" unicode="&#x2079;" horiz-adv-x="373" 
d="M27 545q0 33 12 60.5t33 48t50 31.5t63 11t63 -11t50 -31.5t32.5 -48t11.5 -60.5q0 -57 -36 -113l-86 -133h-133l83 118q-5 -1 -9.5 -1h-6.5q-26 0 -49.5 10t-40.5 27.5t-27 41t-10 50.5zM142 550q0 -18 12 -29.5t30 -11.5t30 11.5t12 29.5t-12 29.5t-30 11.5t-30 -11.5
t-12 -29.5z" />
    <glyph glyph-name="uni207A" unicode="&#x207a;" horiz-adv-x="344" 
d="M32 543h90v90h100v-90h90v-100h-90v-90h-100v90h-90v100z" />
    <glyph glyph-name="uni207B" unicode="&#x207b;" horiz-adv-x="344" 
d="M32 543h280v-100h-280v100z" />
    <glyph glyph-name="uni207C" unicode="&#x207c;" horiz-adv-x="344" 
d="M32 476h280v-100h-280v100zM32 611h280v-100h-280v100z" />
    <glyph glyph-name="uni207D" unicode="&#x207d;" horiz-adv-x="245" 
d="M28 493q0 63 23 125.5t71 111.5h108q-46 -57 -68 -117.5t-22 -119.5q0 -60 22 -120.5t68 -117.5h-108q-48 48 -71 111.5t-23 126.5z" />
    <glyph glyph-name="uni207E" unicode="&#x207e;" horiz-adv-x="245" 
d="M217 493q0 -63 -23 -126.5t-71 -111.5h-108q46 57 68 117.5t22 120.5q0 59 -22 119.5t-68 117.5h108q48 -49 71 -111.5t23 -125.5z" />
    <glyph glyph-name="n.superior" unicode="&#x207f;" horiz-adv-x="469" 
d="M187 299h-136v373h136v-46q16 28 42.5 42t61.5 14q60 0 95 -39t35 -107v-237h-137v200q0 29 -12.5 44t-34.5 15q-23 0 -36.5 -16t-13.5 -45v-198z" />
    <glyph glyph-name="uni2080" unicode="&#x2080;" horiz-adv-x="384" 
d="M351 194q0 -92 -41 -147.5t-118 -55.5t-118 55.5t-41 147.5t41 147.5t118 55.5t118 -55.5t41 -147.5zM232 194q0 48 -10 70.5t-30 22.5t-30 -22.5t-10 -70.5t10 -70.5t30 -22.5t30 22.5t10 70.5z" />
    <glyph glyph-name="uni2081" unicode="&#x2081;" horiz-adv-x="261" 
d="M87 0v278h-62v110h186v-388h-124z" />
    <glyph glyph-name="uni2082" unicode="&#x2082;" horiz-adv-x="359" 
d="M336 0h-306v97l143 105q21 16 29.5 28.5t8.5 25.5q0 12 -7.5 19.5t-21.5 7.5t-23 -10.5t-10 -28.5h-120q0 69 42 111t110 42q33 0 61.5 -10t48.5 -28t31.5 -42.5t11.5 -53.5q0 -39 -23 -72t-72 -66l-25 -17h122v-108z" />
    <glyph glyph-name="uni2083" unicode="&#x2083;" horiz-adv-x="367" 
d="M174 241q15 0 24.5 7.5t9.5 21.5q0 10 -8 16.5t-19 6.5q-27 0 -29 -28h-115q0 60 40.5 96t105.5 36q31 0 57.5 -8.5t45.5 -23.5t30 -36t11 -45q0 -46 -43 -77q29 -15 43.5 -36.5t14.5 -51.5q0 -29 -11.5 -52.5t-32 -40t-49.5 -26t-63 -9.5q-72 0 -114 38t-42 103h119
q0 -14 10.5 -24t27.5 -10q15 0 24 8t9 20q0 16 -11 24t-31 8h-18v83h14z" />
    <glyph glyph-name="uni2084" unicode="&#x2084;" horiz-adv-x="373" 
d="M315 168h45v-97h-45v-71h-117v71h-180v80l146 237h151v-220zM141 168h57v97z" />
    <glyph glyph-name="uni2085" unicode="&#x2085;" horiz-adv-x="363" 
d="M40 177l29 211h243v-98h-153l-6 -34q22 11 58 11q28 0 51.5 -9.5t40.5 -26.5t27 -40t10 -50q0 -33 -11.5 -60.5t-32 -47.5t-48.5 -31t-61 -11q-70 0 -112.5 36t-44.5 96h116q8 -25 39 -25q15 0 26.5 11t11.5 26q0 18 -10.5 28.5t-27.5 10.5q-23 0 -36 -18z" />
    <glyph glyph-name="uni2086" unicode="&#x2086;" horiz-adv-x="373" 
d="M346 142q0 -33 -12 -60.5t-33 -48t-50 -31.5t-63 -11q-35 0 -63.5 11t-49.5 31.5t-32.5 48t-11.5 60.5q0 57 36 113l86 133h133l-83 -119q5 1 9.5 1h6.5q26 0 49 -10t40.5 -27.5t27.5 -40.5t10 -50zM231 137q0 18 -12 29.5t-30 11.5t-30 -11.5t-12 -29.5t12 -29.5
t30 -11.5t30 11.5t12 29.5z" />
    <glyph glyph-name="uni2087" unicode="&#x2087;" horiz-adv-x="351" 
d="M40 0l150 281h-167v107h309v-89l-155 -299h-137z" />
    <glyph glyph-name="uni2088" unicode="&#x2088;" horiz-adv-x="364" 
d="M182 -9q-34 0 -63 9.5t-50 27t-32.5 41t-11.5 51.5q0 29 17 54.5t44 36.5q-21 12 -32.5 32t-11.5 43q0 24 10.5 44.5t29 35t44.5 23t56 8.5t56 -8.5t44.5 -23t29 -35t10.5 -44.5q0 -23 -11.5 -43t-32.5 -32q27 -11 44 -36.5t17 -54.5q0 -28 -11.5 -51.5t-32.5 -41
t-50 -27t-63 -9.5zM182 89q17 0 27.5 10.5t10.5 25.5t-10.5 25.5t-27.5 10.5t-27.5 -10.5t-10.5 -25.5t10.5 -25.5t27.5 -10.5zM182 246q14 0 22.5 8t8.5 20t-8.5 20t-22.5 8t-22.5 -8t-8.5 -20t8.5 -20t22.5 -8z" />
    <glyph glyph-name="uni2089" unicode="&#x2089;" horiz-adv-x="373" 
d="M27 246q0 33 12 60.5t33 48t50 31.5t63 11t63 -11t50 -31.5t32.5 -48t11.5 -60.5q0 -57 -36 -113l-86 -133h-133l83 118q-5 -1 -9.5 -1h-6.5q-26 0 -49.5 10t-40.5 27.5t-27 41t-10 50.5zM142 251q0 -18 12 -29.5t30 -11.5t30 11.5t12 29.5t-12 29.5t-30 11.5t-30 -11.5
t-12 -29.5z" />
    <glyph glyph-name="uni208A" unicode="&#x208a;" horiz-adv-x="344" 
d="M32 244h90v90h100v-90h90v-100h-90v-90h-100v90h-90v100z" />
    <glyph glyph-name="uni208B" unicode="&#x208b;" horiz-adv-x="344" 
d="M32 244h280v-100h-280v100z" />
    <glyph glyph-name="uni208C" unicode="&#x208c;" horiz-adv-x="344" 
d="M32 177h280v-100h-280v100zM32 312h280v-100h-280v100z" />
    <glyph glyph-name="uni208D" unicode="&#x208d;" horiz-adv-x="245" 
d="M28 194q0 63 23 125.5t71 111.5h108q-46 -57 -68 -117.5t-22 -119.5q0 -60 22 -120.5t68 -117.5h-108q-48 48 -71 111.5t-23 126.5z" />
    <glyph glyph-name="uni208E" unicode="&#x208e;" horiz-adv-x="245" 
d="M217 194q0 -63 -23 -126.5t-71 -111.5h-108q46 57 68 117.5t22 120.5q0 59 -22 119.5t-68 117.5h108q48 -49 71 -111.5t23 -125.5z" />
    <glyph glyph-name="Euro" unicode="&#x20ac;" horiz-adv-x="605" 
d="M463 228h-160q21 -27 51.5 -42.5t68.5 -15.5q41 0 74 13t65 36v-179q-41 -23 -79 -31.5t-70 -8.5q-56 0 -105.5 16t-90.5 46t-71 72t-46 94h-82v97h66q-1 7 -1 10v8v9t1 12h-66v97h84q17 49 47.5 90.5t71 71t90 46t103.5 16.5q36 0 74 -10t73 -30v-181q-30 24 -63 37.5
t-75 13.5q-37 0 -66.5 -14.5t-50.5 -39.5h156v-97h-195q-1 -2 -1 -6v-15v-13q0 -3 1 -5h196v-97z" />
    <glyph glyph-name="afii61289" unicode="&#x2113;" horiz-adv-x="477" 
d="M20 297q17 5 32.5 10.5t31.5 12.5v162q0 102 53.5 159t147.5 57q39 0 70.5 -12t54 -34.5t35 -53.5t12.5 -69q0 -75 -49 -146.5t-150 -128.5v-42q0 -35 25 -49.5t59 -14.5q19 0 34 4t27 10v-156q-43 -20 -106 -20q-100 0 -155.5 47.5t-57.5 148.5q-16 -5 -31.5 -8.5
t-32.5 -7.5v131zM258 422q25 23 39.5 47t14.5 49q0 33 -26 33q-28 0 -28 -47v-82z" />
    <glyph glyph-name="trademark" unicode="&#x2122;" horiz-adv-x="817" 
d="M220 358h-112v235h-88v107h288v-107h-88v-235zM773 700v-342h-107v170l-67 -170h-68l-68 169v-169h-106v342h132l78 -186l78 186h128z" />
    <glyph glyph-name="ohm" unicode="&#x2126;" horiz-adv-x="804" 
d="M362 0h-317v169h97q-45 42 -66 96.5t-21 116.5q0 73 27.5 132.5t75 102t110.5 65.5t134 23t134 -23t110.5 -65.5t75 -102t27.5 -132.5q0 -62 -22 -116.5t-68 -96.5h100v-169h-317v145q51 32 86.5 85.5t35.5 129.5q0 39 -12.5 70.5t-34.5 54t-51.5 34.5t-63.5 12
t-63.5 -12t-51.5 -34.5t-34.5 -54t-12.5 -70.5q0 -76 35.5 -129.5t86.5 -85.5v-145z" />
    <glyph glyph-name="estimated" unicode="&#x212e;" horiz-adv-x="752" 
d="M686 179q-21 -43 -53 -78.5t-72.5 -61t-87.5 -39.5t-96 -14q-73 0 -135.5 27t-108 73.5t-71.5 109.5t-26 134t25.5 134t71.5 110t108 74t136 27q73 0 135 -28.5t107.5 -78t71 -116t25.5 -142.5h-544v-150q35 -48 88 -76t117 -28q72 0 130 33.5t93 89.5h86zM377 605
q-66 0 -118 -27.5t-87 -75.5v-122h403v125q-35 46 -85.5 73t-112.5 27z" />
    <glyph glyph-name="uni2153" unicode="&#x2153;" horiz-adv-x="843" 
d="M87 299v278h-62v110h186v-388h-124zM200 0h-143l510 687h143zM650 241q15 0 24.5 7.5t9.5 21.5q0 10 -8 16.5t-19 6.5q-27 0 -29 -28h-115q0 60 40.5 96t105.5 36q31 0 57.5 -8.5t45.5 -23.5t30 -36t11 -45q0 -46 -43 -77q29 -15 43.5 -36.5t14.5 -51.5
q0 -29 -11.5 -52.5t-32 -40t-49.5 -26t-63 -9.5q-72 0 -114 38t-42 103h119q0 -14 10.5 -24t27.5 -10q15 0 24 8t9 20q0 16 -11 24t-31 8h-18v83h14z" />
    <glyph glyph-name="uni2154" unicode="&#x2154;" horiz-adv-x="956" 
d="M336 299h-306v97l143 105q21 16 29.5 28.5t8.5 25.5q0 12 -7.5 19.5t-21.5 7.5t-23 -10.5t-10 -28.5h-120q0 69 42 111t110 42q33 0 61.5 -10t48.5 -28t31.5 -42.5t11.5 -53.5q0 -39 -23 -72t-72 -66l-25 -17h122v-108zM313 0h-143l510 687h143zM763 241q15 0 24.5 7.5
t9.5 21.5q0 10 -8 16.5t-19 6.5q-27 0 -29 -28h-115q0 60 40.5 96t105.5 36q31 0 57.5 -8.5t45.5 -23.5t30 -36t11 -45q0 -46 -43 -77q29 -15 43.5 -36.5t14.5 -51.5q0 -29 -11.5 -52.5t-32 -40t-49.5 -26t-63 -9.5q-72 0 -114 38t-42 103h119q0 -14 10.5 -24t27.5 -10
q15 0 24 8t9 20q0 16 -11 24t-31 8h-18v83h14z" />
    <glyph glyph-name="uni2155" unicode="&#x2155;" horiz-adv-x="849" 
d="M87 299v278h-62v110h186v-388h-124zM200 0h-143l510 687h143zM526 177l29 211h243v-98h-153l-6 -34q22 11 58 11q28 0 51.5 -9.5t40.5 -26.5t27 -40t10 -50q0 -33 -11.5 -60.5t-32 -47.5t-48.5 -31t-61 -11q-70 0 -112.5 36t-44.5 96h116q8 -25 39 -25q15 0 26.5 11
t11.5 26q0 18 -10.5 28.5t-27.5 10.5q-23 0 -36 -18z" />
    <glyph glyph-name="uni2156" unicode="&#x2156;" horiz-adv-x="962" 
d="M336 299h-306v97l143 105q21 16 29.5 28.5t8.5 25.5q0 12 -7.5 19.5t-21.5 7.5t-23 -10.5t-10 -28.5h-120q0 69 42 111t110 42q33 0 61.5 -10t48.5 -28t31.5 -42.5t11.5 -53.5q0 -39 -23 -72t-72 -66l-25 -17h122v-108zM313 0h-143l510 687h143zM639 177l29 211h243v-98
h-153l-6 -34q22 11 58 11q28 0 51.5 -9.5t40.5 -26.5t27 -40t10 -50q0 -33 -11.5 -60.5t-32 -47.5t-48.5 -31t-61 -11q-70 0 -112.5 36t-44.5 96h116q8 -25 39 -25q15 0 26.5 11t11.5 26q0 18 -10.5 28.5t-27.5 10.5q-23 0 -36 -18z" />
    <glyph glyph-name="uni2157" unicode="&#x2157;" horiz-adv-x="935" 
d="M174 540q15 0 24.5 7.5t9.5 21.5q0 10 -8 16.5t-19 6.5q-27 0 -29 -28h-115q0 60 40.5 96t105.5 36q31 0 57.5 -8.5t45.5 -23.5t30 -36t11 -45q0 -46 -43 -77q29 -15 43.5 -36.5t14.5 -51.5q0 -29 -11.5 -52.5t-32 -40t-49.5 -26t-63 -9.5q-72 0 -114 38t-42 103h119
q0 -14 10.5 -24t27.5 -10q15 0 24 8t9 20q0 16 -11 24t-31 8h-18v83h14zM286 0h-143l510 687h143zM612 177l29 211h243v-98h-153l-6 -34q22 11 58 11q28 0 51.5 -9.5t40.5 -26.5t27 -40t10 -50q0 -33 -11.5 -60.5t-32 -47.5t-48.5 -31t-61 -11q-70 0 -112.5 36t-44.5 96h116
q8 -25 39 -25q15 0 26.5 11t11.5 26q0 18 -10.5 28.5t-27.5 10.5q-23 0 -36 -18z" />
    <glyph glyph-name="uni2158" unicode="&#x2158;" horiz-adv-x="961" 
d="M315 467h45v-97h-45v-71h-117v71h-180v80l146 237h151v-220zM141 467h57v97zM312 0h-143l510 687h143zM638 177l29 211h243v-98h-153l-6 -34q22 11 58 11q28 0 51.5 -9.5t40.5 -26.5t27 -40t10 -50q0 -33 -11.5 -60.5t-32 -47.5t-48.5 -31t-61 -11q-70 0 -112.5 36
t-44.5 96h116q8 -25 39 -25q15 0 26.5 11t11.5 26q0 18 -10.5 28.5t-27.5 10.5q-23 0 -36 -18z" />
    <glyph glyph-name="uni2159" unicode="&#x2159;" horiz-adv-x="814" 
d="M87 299v278h-62v110h186v-388h-124zM200 0h-143l510 687h143zM787 142q0 -33 -12 -60.5t-33 -48t-50 -31.5t-63 -11q-35 0 -63.5 11t-49.5 31.5t-32.5 48t-11.5 60.5q0 57 36 113l86 133h133l-83 -119q5 1 9.5 1h6.5q26 0 49 -10t40.5 -27.5t27.5 -40.5t10 -50zM672 137
q0 18 -12 29.5t-30 11.5t-30 -11.5t-12 -29.5t12 -29.5t30 -11.5t30 11.5t12 29.5z" />
    <glyph glyph-name="uni215A" unicode="&#x215a;" horiz-adv-x="891" 
d="M40 476l29 211h243v-98h-153l-6 -34q22 11 58 11q28 0 51.5 -9.5t40.5 -26.5t27 -40t10 -50q0 -33 -11.5 -60.5t-32 -47.5t-48.5 -31t-61 -11q-70 0 -112.5 36t-44.5 96h116q8 -25 39 -25q15 0 26.5 11t11.5 26q0 18 -10.5 28.5t-27.5 10.5q-23 0 -36 -18zM277 0h-143
l510 687h143zM864 142q0 -33 -12 -60.5t-33 -48t-50 -31.5t-63 -11q-35 0 -63.5 11t-49.5 31.5t-32.5 48t-11.5 60.5q0 57 36 113l86 133h133l-83 -119q5 1 9.5 1h6.5q26 0 49 -10t40.5 -27.5t27.5 -40.5t10 -50zM749 137q0 18 -12 29.5t-30 11.5t-30 -11.5t-12 -29.5
t12 -29.5t30 -11.5t30 11.5t12 29.5z" />
    <glyph glyph-name="uni215B" unicode="&#x215b;" horiz-adv-x="845" 
d="M87 299v278h-62v110h186v-388h-124zM200 0h-143l510 687h143zM663 -9q-34 0 -63 9.5t-50 27t-32.5 41t-11.5 51.5q0 29 17 54.5t44 36.5q-21 12 -32.5 32t-11.5 43q0 24 10.5 44.5t29 35t44.5 23t56 8.5t56 -8.5t44.5 -23t29 -35t10.5 -44.5q0 -23 -11.5 -43t-32.5 -32
q27 -11 44 -36.5t17 -54.5q0 -28 -11.5 -51.5t-32.5 -41t-50 -27t-63 -9.5zM663 89q17 0 27.5 10.5t10.5 25.5t-10.5 25.5t-27.5 10.5t-27.5 -10.5t-10.5 -25.5t10.5 -25.5t27.5 -10.5zM663 246q14 0 22.5 8t8.5 20t-8.5 20t-22.5 8t-22.5 -8t-8.5 -20t8.5 -20t22.5 -8z" />
    <glyph glyph-name="uni215C" unicode="&#x215c;" horiz-adv-x="931" 
d="M174 540q15 0 24.5 7.5t9.5 21.5q0 10 -8 16.5t-19 6.5q-27 0 -29 -28h-115q0 60 40.5 96t105.5 36q31 0 57.5 -8.5t45.5 -23.5t30 -36t11 -45q0 -46 -43 -77q29 -15 43.5 -36.5t14.5 -51.5q0 -29 -11.5 -52.5t-32 -40t-49.5 -26t-63 -9.5q-72 0 -114 38t-42 103h119
q0 -14 10.5 -24t27.5 -10q15 0 24 8t9 20q0 16 -11 24t-31 8h-18v83h14zM286 0h-143l510 687h143zM749 -9q-34 0 -63 9.5t-50 27t-32.5 41t-11.5 51.5q0 29 17 54.5t44 36.5q-21 12 -32.5 32t-11.5 43q0 24 10.5 44.5t29 35t44.5 23t56 8.5t56 -8.5t44.5 -23t29 -35
t10.5 -44.5q0 -23 -11.5 -43t-32.5 -32q27 -11 44 -36.5t17 -54.5q0 -28 -11.5 -51.5t-32.5 -41t-50 -27t-63 -9.5zM749 89q17 0 27.5 10.5t10.5 25.5t-10.5 25.5t-27.5 10.5t-27.5 -10.5t-10.5 -25.5t10.5 -25.5t27.5 -10.5zM749 246q14 0 22.5 8t8.5 20t-8.5 20t-22.5 8
t-22.5 -8t-8.5 -20t8.5 -20t22.5 -8z" />
    <glyph glyph-name="uni215D" unicode="&#x215d;" horiz-adv-x="922" 
d="M40 476l29 211h243v-98h-153l-6 -34q22 11 58 11q28 0 51.5 -9.5t40.5 -26.5t27 -40t10 -50q0 -33 -11.5 -60.5t-32 -47.5t-48.5 -31t-61 -11q-70 0 -112.5 36t-44.5 96h116q8 -25 39 -25q15 0 26.5 11t11.5 26q0 18 -10.5 28.5t-27.5 10.5q-23 0 -36 -18zM277 0h-143
l510 687h143zM740 -9q-34 0 -63 9.5t-50 27t-32.5 41t-11.5 51.5q0 29 17 54.5t44 36.5q-21 12 -32.5 32t-11.5 43q0 24 10.5 44.5t29 35t44.5 23t56 8.5t56 -8.5t44.5 -23t29 -35t10.5 -44.5q0 -23 -11.5 -43t-32.5 -32q27 -11 44 -36.5t17 -54.5q0 -28 -11.5 -51.5
t-32.5 -41t-50 -27t-63 -9.5zM740 89q17 0 27.5 10.5t10.5 25.5t-10.5 25.5t-27.5 10.5t-27.5 -10.5t-10.5 -25.5t10.5 -25.5t27.5 -10.5zM740 246q14 0 22.5 8t8.5 20t-8.5 20t-22.5 8t-22.5 -8t-8.5 -20t8.5 -20t22.5 -8z" />
    <glyph glyph-name="uni215E" unicode="&#x215e;" horiz-adv-x="860" 
d="M40 299l150 281h-167v107h309v-89l-155 -299h-137zM215 0h-143l510 687h143zM678 -9q-34 0 -63 9.5t-50 27t-32.5 41t-11.5 51.5q0 29 17 54.5t44 36.5q-21 12 -32.5 32t-11.5 43q0 24 10.5 44.5t29 35t44.5 23t56 8.5t56 -8.5t44.5 -23t29 -35t10.5 -44.5
q0 -23 -11.5 -43t-32.5 -32q27 -11 44 -36.5t17 -54.5q0 -28 -11.5 -51.5t-32.5 -41t-50 -27t-63 -9.5zM678 89q17 0 27.5 10.5t10.5 25.5t-10.5 25.5t-27.5 10.5t-27.5 -10.5t-10.5 -25.5t10.5 -25.5t27.5 -10.5zM678 246q14 0 22.5 8t8.5 20t-8.5 20t-22.5 8t-22.5 -8
t-8.5 -20t8.5 -20t22.5 -8z" />
    <glyph glyph-name="uni215F" unicode="&#x215f;" horiz-adv-x="486" 
d="M87 299v278h-62v110h186v-388h-124zM200 0h-143l510 687h143z" />
    <glyph glyph-name="arrowleft" unicode="&#x2190;" horiz-adv-x="850" 
d="M786 275h-444l154 -154l-106 -106l-335 335l335 335l106 -106l-154 -154h444v-150z" />
    <glyph glyph-name="arrowup" unicode="&#x2191;" horiz-adv-x="800" 
d="M325 0v434l-154 -154l-106 106l335 335l335 -335l-106 -106l-154 154v-434h-150z" />
    <glyph glyph-name="arrowright" unicode="&#x2192;" horiz-adv-x="850" 
d="M64 425h444l-154 154l106 106l335 -335l-335 -335l-106 106l154 154h-444v150z" />
    <glyph glyph-name="arrowdown" unicode="&#x2193;" horiz-adv-x="800" 
d="M475 700v-434l154 154l106 -106l-335 -335l-335 335l106 106l154 -154v434h150z" />
    <glyph glyph-name="uni2196" unicode="&#x2196;" horiz-adv-x="750" 
d="M569 550h-218l354 -354l-106 -106l-354 354v-218h-150v474h474v-150z" />
    <glyph glyph-name="uni2197" unicode="&#x2197;" horiz-adv-x="750" 
d="M181 700h474v-474h-150v218l-354 -354l-106 106l354 354h-218v150z" />
    <glyph glyph-name="uni2198" unicode="&#x2198;" horiz-adv-x="750" 
d="M569 0h-474v474h150v-218l354 354l106 -106l-354 -354h218v-150z" />
    <glyph glyph-name="uni2199" unicode="&#x2199;" horiz-adv-x="750" 
d="M181 150h218l-354 354l106 106l354 -354v218h150v-474h-474v150z" />
    <glyph glyph-name="partialdiff" unicode="&#x2202;" horiz-adv-x="619" 
d="M274 461q74 0 124 -32q-2 54 -42.5 87t-104.5 33q-34 0 -70 -10t-69 -27v160q35 17 74.5 25t80.5 8q72 0 130 -24.5t98.5 -70t62.5 -110.5t22 -145q0 -85 -20 -153.5t-58 -116.5t-92 -73.5t-121 -25.5q-58 0 -105 17t-80.5 48t-51.5 74.5t-18 97.5q0 53 17 97t48.5 75.5
t76 48.5t98.5 17zM305 310q-42 0 -68 -24t-26 -62q0 -35 22 -56.5t60 -21.5q40 0 67.5 32.5t34.5 86.5q-14 21 -37.5 33t-52.5 12z" />
    <glyph glyph-name="Delta" unicode="&#x2206;" horiz-adv-x="746" 
d="M25 0l267 694h162l267 -694h-696zM268 166h207l-104 282z" />
    <glyph glyph-name="product" unicode="&#x220f;" horiz-adv-x="700" 
d="M64 694h572v-694h-185v519h-202v-519h-185v694z" />
    <glyph glyph-name="summation" unicode="&#x2211;" horiz-adv-x="580" 
d="M35 143l174 204l-174 204v143h510v-170h-259l119 -142v-70l-119 -142h259v-170h-510v143z" />
    <glyph glyph-name="minus" unicode="&#x2212;" 
d="M60 409h480v-151h-480v151z" />
    <glyph glyph-name="radical" unicode="&#x221a;" horiz-adv-x="774" 
d="M754 694l-305 -694h-164l-148 342h-112v158h238l106 -270l198 464h187z" />
    <glyph glyph-name="infinity" unicode="&#x221e;" horiz-adv-x="844" 
d="M419 224q-30 -36 -72 -61t-97 -25q-43 0 -79.5 15t-63.5 41t-42 61.5t-15 76.5t15 76.5t42 61.5t63.5 41t79.5 15q57 0 101 -25t74 -62q30 37 72 62t97 25q43 0 79.5 -15t63.5 -41t42 -61.5t15 -76.5t-15 -76.5t-42 -61.5t-63.5 -41t-79.5 -15q-57 0 -101 25t-74 61z
M647 332q0 25 -18 41.5t-44 16.5q-28 0 -47.5 -19t-33.5 -41q15 -20 34 -38t47 -18q26 0 44 16.5t18 41.5zM197 332q0 -25 18 -41.5t44 -16.5q28 0 47.5 19t33.5 41q-15 20 -34 38t-47 18q-26 0 -44 -16.5t-18 -41.5z" />
    <glyph glyph-name="integral" unicode="&#x222b;" horiz-adv-x="432" 
d="M307 -6q0 -104 -55.5 -162t-155.5 -58q-25 0 -47.5 3t-38.5 9v154q19 -7 44 -7q32 0 51.5 17t19.5 56v479q0 104 55.5 162t155.5 58q25 0 47.5 -3t38.5 -9v-154q-19 7 -44 7q-32 0 -51.5 -17t-19.5 -56v-479v0z" />
    <glyph glyph-name="approxequal" unicode="&#x2248;" 
d="M72 146q2 79 40.5 124.5t106.5 45.5q33 0 54 -8t36.5 -17t28 -17t29.5 -8q20 0 31.5 11.5t12.5 32.5h118q-2 -79 -40.5 -124.5t-106.5 -45.5q-33 0 -54 8t-36.5 17t-28.5 17t-29 8q-20 0 -31.5 -11.5t-12.5 -32.5h-118zM72 357q2 79 40.5 124.5t106.5 45.5q33 0 54 -8
t36.5 -17t28 -17t29.5 -8q20 0 31.5 11.5t12.5 32.5h118q-2 -79 -40.5 -124.5t-106.5 -45.5q-33 0 -54 8t-36.5 17t-28.5 17t-29 8q-20 0 -31.5 -11.5t-12.5 -32.5h-118z" />
    <glyph glyph-name="notequal" unicode="&#x2260;" 
d="M60 521h250l35 75h154l-35 -75h76v-151h-145l-33 -73h178v-151h-248l-35 -78h-154l35 78h-78v151h148l33 73h-181v151z" />
    <glyph glyph-name="equivalence" unicode="&#x2261;" 
d="M60 205h480v-151h-480v151zM60 409h480v-151h-480v151zM60 613h480v-151h-480v151z" />
    <glyph glyph-name="lessequal" unicode="&#x2264;" 
d="M80 171h440v-149h-440v149zM80 529l440 145v-165l-244 -68l244 -68v-169l-440 145v180z" />
    <glyph glyph-name="greaterequal" unicode="&#x2265;" 
d="M520 22h-440v149h440v-149zM520 349l-440 -145v165l244 68l-244 68v169l440 -145v-180z" />
    <glyph glyph-name="lozenge" unicode="&#x25ca;" horiz-adv-x="628" 
d="M390 0h-152l-218 347l218 347h152l218 -347zM312 501l-96 -151l100 -157l96 151z" />
    <glyph glyph-name="anglebracketleft" unicode="&#x3008;" horiz-adv-x="408" 
d="M25 290l202 463h177l-198 -459l200 -459h-181z" />
    <glyph glyph-name="anglebracketright" unicode="&#x3009;" horiz-adv-x="408" 
d="M383 298l-202 -463h-177l198 459l-200 459h181z" />
    <glyph glyph-name="commaaccent" unicode="&#xf6c3;" horiz-adv-x="500" 
d="M228 -207q-29 2 -48.5 23t-19.5 50q0 19 7 35.5t19 28.5t28.5 18.5t34.5 6.5q39 0 65 -25.5t26 -63.5q0 -21 -6.5 -41t-20.5 -45l-39 -70h-93z" />
    <glyph glyph-name="fi" unicode="&#xfb01;" horiz-adv-x="696" 
d="M261 500h123v-147h-123v-353h-182v353h-67v147h67v13q0 103 59 161.5t165 58.5q25 0 48 -4.5t40 -12.5v-151q-11 5 -24.5 8.5t-30.5 3.5q-32 0 -53.5 -16.5t-21.5 -51.5v-9zM457 0v500h183v-500h-183zM651 641q0 -20 -8 -38.5t-22 -32.5t-32.5 -22t-40.5 -8
q-21 0 -39.5 8t-32.5 22t-22 32t-8 39t8 39t22 32t32.5 22t39.5 8q22 0 40.5 -8t32.5 -22t22 -32.5t8 -38.5z" />
    <glyph glyph-name="fl" unicode="&#xfb02;" horiz-adv-x="694" 
d="M261 500h123v-147h-123v-353h-182v353h-67v147h67v13q0 103 59 161.5t165 58.5q25 0 48 -4.5t40 -12.5v-151q-11 5 -24.5 8.5t-30.5 3.5q-32 0 -53.5 -16.5t-21.5 -51.5v-9zM639 700v-700h-183v700h183z" />
    <glyph glyph-name="Adieresis.square" horiz-adv-x="738" 
d="M455 700l277 -700h-196l-45 119h-249l-44 -119h-192l277 700h172zM297 277h140l-70 191zM180 751v154h159v-154h-159zM400 751v154h159v-154h-159z" />
    <glyph glyph-name="Anocross" horiz-adv-x="738" 
d="M199 0h-193l277 700h172l277 -700h-197l-168 464z" />
    <glyph glyph-name="Cdotaccent.square" horiz-adv-x="604" 
d="M34 350q0 76 27.5 142.5t76.5 116t115 77.5t144 28q41 0 82.5 -10.5t80.5 -32.5v-196q-33 26 -69.5 40t-82.5 14q-41 0 -74 -14t-56.5 -38t-36.5 -57t-13 -70t13 -69.5t36.5 -57t56.5 -38.5t74 -14q45 0 81 13.5t72 38.5v-195q-45 -24 -87.5 -33t-77.5 -9
q-79 0 -145.5 27.5t-114.5 76t-75 115t-27 145.5zM289 755v163h183v-163h-183z" />
    <glyph glyph-name="Edieresis.square" horiz-adv-x="532" 
d="M64 700h426v-170h-238v-96h214v-164h-214v-100h240v-170h-428v700zM90 751v154h159v-154h-159zM310 751v154h159v-154h-159z" />
    <glyph glyph-name="Edotaccent.square" horiz-adv-x="532" 
d="M64 700h426v-170h-238v-96h214v-164h-214v-100h240v-170h-428v700zM188 755v163h183v-163h-183z" />
    <glyph glyph-name="Gcommaaccent.square" horiz-adv-x="790" 
d="M562 448q-23 43 -63.5 66t-93.5 23q-38 0 -71 -14.5t-57.5 -40t-38.5 -59.5t-14 -73t14 -74t39 -60.5t57.5 -40.5t70.5 -15q54 0 96 24.5t56 64.5h-172v153h375v-70q0 -73 -27.5 -136.5t-75 -110t-112.5 -73t-140 -26.5q-78 0 -145.5 28.5t-117.5 78t-79 116t-29 141.5
t29.5 141t80 115.5t118 78.5t143.5 29q54 0 104 -12.5t92.5 -36t76 -58t55.5 -77.5zM326 -51h156v-136q0 -60 -34.5 -86.5t-91.5 -26.5q-9 0 -15.5 0.5t-11.5 1.5v70q4 -1 8 -1h8q25 1 38.5 10t13.5 31v2h-71v135z" />
    <glyph glyph-name="Gdotaccent.square" horiz-adv-x="790" 
d="M562 448q-23 43 -63.5 66t-93.5 23q-38 0 -71 -14.5t-57.5 -40t-38.5 -59.5t-14 -73t14 -74t39 -60.5t57.5 -40.5t70.5 -15q54 0 96 24.5t56 64.5h-172v153h375v-70q0 -73 -27.5 -136.5t-75 -110t-112.5 -73t-140 -26.5q-78 0 -145.5 28.5t-117.5 78t-79 116t-29 141.5
t29.5 141t80 115.5t118 78.5t143.5 29q54 0 104 -12.5t92.5 -36t76 -58t55.5 -77.5zM314 755v163h183v-163h-183z" />
    <glyph glyph-name="Idieresis.square" horiz-adv-x="318" 
d="M254 700v-700h-190v700h190zM-30 751v154h159v-154h-159zM190 751v154h159v-154h-159z" />
    <glyph glyph-name="Idotaccent.square" horiz-adv-x="318" 
d="M254 700v-700h-190v700h190zM68 755v163h183v-163h-183z" />
    <glyph glyph-name="Kcommaaccent.square" horiz-adv-x="696" 
d="M253 432l201 268h222l-264 -333l282 -367h-236l-205 284v-284h-189v700h189v-268zM276 -51h156v-136q0 -60 -34.5 -86.5t-91.5 -26.5q-9 0 -15.5 0.5t-11.5 1.5v70q4 -1 8 -1h8q25 1 38.5 10t13.5 31v2h-71v135z" />
    <glyph glyph-name="Lcommaaccent.square" horiz-adv-x="514" 
d="M252 700v-523h240v-177h-428v700h188zM197 -51h156v-136q0 -60 -34.5 -86.5t-91.5 -26.5q-9 0 -15.5 0.5t-11.5 1.5v70q4 -1 8 -1h8q25 1 38.5 10t13.5 31v2h-71v135z" />
    <glyph glyph-name="Ldot.square" horiz-adv-x="514" 
d="M252 700v-523h240v-177h-428v700h188zM320 276v163h183v-163h-183z" />
    <glyph glyph-name="Ncommaaccent.square" horiz-adv-x="772" 
d="M708 700v-700h-190l-271 397v-397h-183v700h192l269 -401v401h183zM301 -51h156v-136q0 -60 -34.5 -86.5t-91.5 -26.5q-9 0 -15.5 0.5t-11.5 1.5v70q4 -1 8 -1h8q25 1 38.5 10t13.5 31v2h-71v135z" />
    <glyph glyph-name="Odieresis.square" horiz-adv-x="810" 
d="M776 350q0 -76 -29 -142.5t-79.5 -115.5t-118 -77.5t-144.5 -28.5t-144.5 28.5t-118 77.5t-79.5 115.5t-29 142.5t29 142.5t79.5 115.5t118 77.5t144.5 28.5t144.5 -28.5t118 -77.5t79.5 -115.5t29 -142.5zM583 350q0 38 -14 71t-38 57.5t-56.5 38.5t-69.5 14
q-38 0 -70.5 -14t-56.5 -38.5t-37.5 -57.5t-13.5 -71t13.5 -71t37.5 -57.5t56.5 -38.5t70.5 -14q37 0 69.5 14t56.5 38.5t38 57.5t14 71zM216 751v154h159v-154h-159zM436 751v154h159v-154h-159z" />
    <glyph glyph-name="Rcommaaccent.square" horiz-adv-x="642" 
d="M251 0h-187v700h250q61 0 111.5 -15.5t87 -46t56.5 -74.5t20 -101q0 -73 -35.5 -123.5t-92.5 -79.5l179 -260h-220l-147 231h-22v-231zM251 383h66q36 0 59.5 20t23.5 55t-23.5 55t-59.5 20h-66v-150zM259 -51h156v-136q0 -60 -34.5 -86.5t-91.5 -26.5q-9 0 -15.5 0.5
t-11.5 1.5v70q4 -1 8 -1h8q25 1 38.5 10t13.5 31v2h-71v135z" />
    <glyph glyph-name="Scommaaccent.square" horiz-adv-x="586" 
d="M181 246q17 -39 50 -61.5t70 -22.5q26 0 45 10.5t19 32.5q0 15 -12 26.5t-41 21.5l-85 30q-38 13 -69.5 32t-54.5 44.5t-35.5 57.5t-12.5 73q0 50 18 91t50.5 70.5t77.5 46t98 16.5q40 0 78 -10t71 -29.5t60.5 -47t45.5 -61.5l-153 -95q-15 30 -40 50t-57 20
q-26 0 -41 -11t-15 -30q0 -17 13 -26t33 -17l96 -36q87 -32 128.5 -82.5t41.5 -122.5q0 -55 -22 -98t-58.5 -72t-83.5 -44.5t-97 -15.5q-43 0 -84 11t-77 32t-65.5 52t-48.5 72zM217 -51h156v-136q0 -60 -34.5 -86.5t-91.5 -26.5q-9 0 -15.5 0.5t-11.5 1.5v70q4 -1 8 -1h8
q25 1 38.5 10t13.5 31v2h-71v135z" />
    <glyph glyph-name="Tcommaaccent.square" horiz-adv-x="568" 
d="M17 700h534v-176h-173v-524h-188v524h-173v176zM206 -51h156v-136q0 -60 -34.5 -86.5t-91.5 -26.5q-9 0 -15.5 0.5t-11.5 1.5v70q4 -1 8 -1h8q25 1 38.5 10t13.5 31v2h-71v135z" />
    <glyph glyph-name="Udieresis.square" horiz-adv-x="690" 
d="M345 -14q-66 0 -119.5 20.5t-91 58t-58 91.5t-20.5 121v423h191v-411q0 -58 25 -89t73 -31t73 31t25 89v411h191v-423q0 -67 -20.5 -121t-58 -91.5t-91 -58t-119.5 -20.5zM156 751v154h159v-154h-159zM376 751v154h159v-154h-159z" />
    <glyph glyph-name="Wdieresis.square" horiz-adv-x="1074" 
d="M247 0l-241 700h196l129 -420l127 420h162l126 -420l130 420h192l-241 -700h-163l-127 426l-127 -426h-163zM350 751v154h159v-154h-159zM570 751v154h159v-154h-159z" />
    <glyph glyph-name="Ydieresis.square" horiz-adv-x="679" 
d="M434 0h-189v298l-247 402h214l129 -225l130 225h210l-247 -402v-298zM152 751v154h159v-154h-159zM372 751v154h159v-154h-159z" />
    <glyph glyph-name="Zdotaccent.square" horiz-adv-x="619" 
d="M280 169h311v-169h-565v133l304 398h-284v169h539v-133zM235 755v163h183v-163h-183z" />
    <glyph glyph-name="a.alt" horiz-adv-x="554" 
d="M29 136q0 135 187 163l109 17v12q0 20 -15.5 33.5t-38.5 13.5q-49 0 -63 -46l-160 37q18 68 78.5 108t146.5 40q110 0 169.5 -51.5t59.5 -146.5v-316h-169l-2 51q-18 -30 -53 -47.5t-80 -17.5q-77 0 -123 40.5t-46 109.5zM206 149q1 -15 12.5 -24t31.5 -9q34 0 54.5 19.5
t20.5 53.5v12l-65 -11q-54 -9 -54 -41z" />
    <glyph glyph-name="t.alt" horiz-adv-x="360" 
d="M85 0v353h-75v147h75v143h182v-143h85v-147h-85v-353h-182z" />
    <glyph glyph-name="u.alt" horiz-adv-x="586" 
d="M293 -14q-56 0 -100.5 15.5t-75.5 44t-48 69.5t-17 92v293h183v-282q0 -32 15 -49.5t43 -17.5t43 17.5t15 49.5v282h183v-293q0 -51 -17 -92t-48 -69.5t-76 -44t-100 -15.5z" />
    <glyph glyph-name="adieresis.square" horiz-adv-x="644" 
d="M589 500v-500h-180v54q-58 -67 -153 -67q-48 0 -90 20t-72.5 55.5t-48 83.5t-17.5 104q0 55 17.5 103.5t48 83.5t72.5 55.5t90 20.5t86.5 -16.5t66.5 -50.5v54h180zM210 250q0 -21 8 -39t22 -31.5t32.5 -21.5t39.5 -8t39.5 8t32.5 21.5t22 31.5t8 39t-8 39t-22 31.5
t-32.5 21.5t-39.5 8t-39.5 -8t-32.5 -21.5t-22 -31.5t-8 -39zM130 568v154h159v-154h-159zM350 568v154h159v-154h-159z" />
    <glyph glyph-name="cdotaccent.square" horiz-adv-x="449" 
d="M28 250q0 57 20 105.5t56 84t85.5 55t108.5 19.5q29 0 60 -6.5t57 -19.5v-166q-43 28 -91 28t-79.5 -27.5t-31.5 -72.5t31.5 -72.5t79.5 -27.5q49 0 91 30v-166q-29 -15 -60 -21.5t-60 -6.5q-57 0 -105.5 18.5t-84.5 53t-56.5 83t-20.5 109.5zM184 559v163h183v-163h-183
z" />
    <glyph glyph-name="edieresis.square" horiz-adv-x="578" 
d="M539 121q-31 -65 -92.5 -100t-146.5 -35q-60 0 -110 19t-86 54t-56 83.5t-20 107.5q0 57 20.5 105t56 83.5t84 55.5t105.5 20q58 0 106.5 -19.5t82.5 -55t53 -86t19 -112.5q0 -12 -0.5 -21t-1.5 -16h-346q3 -32 29.5 -52t62.5 -20q30 0 49.5 10.5t33.5 33.5zM325 568v154
h159v-154h-159zM105 568v154h159v-154h-159zM378 309q-3 29 -26.5 47t-58.5 18t-58.5 -18.5t-26.5 -46.5h170z" />
    <glyph glyph-name="edotaccent.square" horiz-adv-x="578" 
d="M539 121q-31 -65 -92.5 -100t-146.5 -35q-60 0 -110 19t-86 54t-56 83.5t-20 107.5q0 57 20.5 105t56 83.5t84 55.5t105.5 20q58 0 106.5 -19.5t82.5 -55t53 -86t19 -112.5q0 -12 -0.5 -21t-1.5 -16h-346q3 -32 29.5 -52t62.5 -20q30 0 49.5 10.5t33.5 33.5zM203 559v163
h183v-163h-183zM378 309q-3 29 -26.5 47t-58.5 18t-58.5 -18.5t-26.5 -46.5h170z" />
    <glyph glyph-name="gcommaaccent.square" horiz-adv-x="640" 
d="M405 64q-23 -26 -60.5 -43t-84.5 -17q-51 0 -93.5 19t-73 52.5t-48 79.5t-17.5 100q0 55 17.5 102.5t48.5 82t73.5 54t92.5 19.5q48 0 85 -18t60 -48v53h180v-466q0 -58 -19 -107.5t-55.5 -85.5t-91 -56t-126.5 -20q-94 0 -161.5 36.5t-95.5 98.5l146 81q17 -30 46 -48
t66 -18q54 0 82.5 31t28.5 90v28zM410 255q0 21 -8 38.5t-21.5 31t-31.5 21t-38 7.5t-38 -7.5t-31.5 -21t-21.5 -31t-8 -38.5t8 -38.5t21.5 -31t31.5 -21t38 -7.5t38 7.5t31.5 21t21.5 31t8 38.5zM393 565h-156v141q0 60 34.5 86.5t91.5 26.5q9 0 15.5 -0.5t11.5 -1.5v-70
q-4 1 -8 1h-8q-25 -1 -38.5 -10t-13.5 -31v-2h71v-140z" />
    <glyph glyph-name="gdotaccent.square" horiz-adv-x="640" 
d="M405 64q-23 -26 -60.5 -43t-84.5 -17q-51 0 -93.5 19t-73 52.5t-48 79.5t-17.5 100q0 55 17.5 102.5t48.5 82t73.5 54t92.5 19.5q48 0 85 -18t60 -48v53h180v-466q0 -58 -19 -107.5t-55.5 -85.5t-91 -56t-126.5 -20q-94 0 -161.5 36.5t-95.5 98.5l146 81q17 -30 46 -48
t66 -18q54 0 82.5 31t28.5 90v28zM410 255q0 21 -8 38.5t-21.5 31t-31.5 21t-38 7.5t-38 -7.5t-31.5 -21t-21.5 -31t-8 -38.5t8 -38.5t21.5 -31t31.5 -21t38 -7.5t38 7.5t31.5 21t21.5 31t8 38.5zM222 559v163h183v-163h-183z" />
    <glyph glyph-name="idieresis.square" horiz-adv-x="295" 
d="M239 500v-500h-183v500h183zM-42 568v154h159v-154h-159zM178 568v154h159v-154h-159z" />
    <glyph glyph-name="idotaccent" horiz-adv-x="295" 
d="M56 0v500h183v-500h-183zM250 641q0 -20 -8 -38.5t-22 -32.5t-32.5 -22t-40.5 -8q-21 0 -39.5 8t-32.5 22t-22 32t-8 39t8 39t22 32t32.5 22t39.5 8q22 0 40.5 -8t32.5 -22t22 -32.5t8 -38.5z" />
    <glyph glyph-name="idotaccent.square" horiz-adv-x="295" 
d="M56 559v163h183v-163h-183zM239 500v-500h-183v500h183z" />
    <glyph glyph-name="iogonek.square" horiz-adv-x="295" 
d="M239 500v-500h-20q-34 -11 -56.5 -31t-22.5 -44q0 -31 39 -31q9 0 19 1.5t19 5.5v-103q-29 -9 -63 -9q-63 0 -100.5 29.5t-37.5 78.5q0 62 67 103h-27v500h183zM56 559v163h183v-163h-183z" />
    <glyph glyph-name="kcommaaccent.square" horiz-adv-x="599" 
d="M588 500l-193 -227l204 -273h-216l-146 204v-204h-182v700h182v-367l138 167h213zM229 -51h156v-136q0 -60 -34.5 -86.5t-91.5 -26.5q-9 0 -15.5 0.5t-11.5 1.5v70q4 -1 8 -1h8q25 1 38.5 10t13.5 31v2h-71v135z" />
    <glyph glyph-name="lcommaaccent.square" horiz-adv-x="293" 
d="M238 700v-700h-183v700h183zM68 -51h156v-136q0 -60 -34.5 -86.5t-91.5 -26.5q-9 0 -15.5 0.5t-11.5 1.5v70q4 -1 8 -1h8q25 1 38.5 10t13.5 31v2h-71v135z" />
    <glyph glyph-name="ldot.square" horiz-adv-x="458" 
d="M238 700v-700h-183v700h183zM284 259v163h183v-163h-183z" />
    <glyph glyph-name="ncommaaccent.square" horiz-adv-x="603" 
d="M238 0h-183v500h183v-61q21 37 57 56t82 19q81 0 127.5 -52.5t46.5 -143.5v-318h-183v268q0 38 -17 58.5t-47 20.5t-48 -21t-18 -60v-266zM226 -51h156v-136q0 -60 -34.5 -86.5t-91.5 -26.5q-9 0 -15.5 0.5t-11.5 1.5v70q4 -1 8 -1h8q25 1 38.5 10t13.5 31v2h-71v135z
" />
    <glyph glyph-name="odieresis.square" horiz-adv-x="610" 
d="M305 514q59 0 110 -20t88 -55.5t58 -83.5t21 -105t-21 -105t-58 -83.5t-88 -55.5t-110 -20t-110 20t-88 55.5t-58 83.5t-21 105t21 105t58 83.5t88 55.5t110 20zM305 348q-20 0 -37.5 -7.5t-31 -21t-21.5 -31t-8 -38.5t8 -38.5t21.5 -31t31 -21t37.5 -7.5q19 0 37 7.5
t31.5 21t21.5 31t8 38.5t-8 38.5t-21.5 31t-31.5 21t-37 7.5zM116 568v154h159v-154h-159zM336 568v154h159v-154h-159z" />
    <glyph glyph-name="rcommaaccent.square" horiz-adv-x="418" 
d="M400 320q-10 4 -21.5 5.5t-22.5 1.5q-57 0 -88 -37.5t-31 -107.5v-182h-182v500h181v-79q20 44 54.5 67.5t82.5 23.5q17 0 27 -4v-188zM67 -51h156v-136q0 -60 -34.5 -86.5t-91.5 -26.5q-9 0 -15.5 0.5t-11.5 1.5v70q4 -1 8 -1h8q25 1 38.5 10t13.5 31v2h-71v135z" />
    <glyph glyph-name="scommaaccent.square" horiz-adv-x="487" 
d="M170 -51h156v-136q0 -60 -34.5 -86.5t-91.5 -26.5q-9 0 -15.5 0.5t-11.5 1.5v70q4 -1 8 -1h8q25 1 38.5 10t13.5 31v2h-71v135zM467 160q0 -41 -16 -73t-45 -54.5t-70.5 -34.5t-92.5 -12q-66 0 -126.5 18t-105.5 50l72 127q37 -23 80.5 -37t80.5 -14q42 0 42 21
q0 11 -12 16t-41 12l-26 6q-89 20 -129.5 57t-40.5 101q0 39 15.5 70t43.5 53.5t67.5 34.5t88.5 12q55 0 106 -15t104 -44l-63 -128q-39 21 -77 33t-68 12q-20 0 -28.5 -4.5t-8.5 -15.5q0 -9 12.5 -14t43.5 -13l27 -7q88 -23 127.5 -60.5t39.5 -96.5z" />
    <glyph glyph-name="tcommaaccent.square" horiz-adv-x="397" 
d="M260 643v-143h117v-147h-117v-135q0 -38 16 -53.5t47 -15.5q14 0 28 4t26 11v-154q-18 -9 -47 -16t-71 -7q-84 0 -132.5 49t-48.5 139v178h-67v147h67v143h182zM142 -51h156v-136q0 -60 -34.5 -86.5t-91.5 -26.5q-9 0 -15.5 0.5t-11.5 1.5v70q4 -1 8 -1h8q25 1 38.5 10
t13.5 31v2h-71v135z" />
    <glyph glyph-name="udieresis.square" horiz-adv-x="601" 
d="M546 0h-183v61q-21 -37 -56.5 -56t-81.5 -19q-81 0 -127 52.5t-46 143.5v318h183v-268q0 -38 16.5 -58.5t46.5 -20.5q29 0 47 21t18 60v266h183v-500zM108 568v154h159v-154h-159zM328 568v154h159v-154h-159z" />
    <glyph glyph-name="wdieresis.square" horiz-adv-x="839" 
d="M507 0l-88 267l-87 -267h-156l-170 500h185l78 -260l85 260h135l84 -260l79 260h181l-170 -500h-156zM231 568v154h159v-154h-159zM451 568v154h159v-154h-159z" />
    <glyph glyph-name="ydieresis.square" horiz-adv-x="607" 
d="M149 -226q-37 0 -62 7.5t-39 15.5v149q31 -14 63 -14q33 0 57.5 11.5t36.5 40.5l4 10l-205 506h193l109 -306l109 306h188l-213 -524q-44 -107 -103 -154.5t-138 -47.5zM118 568v154h159v-154h-159zM338 568v154h159v-154h-159z" />
    <glyph glyph-name="ij.square" horiz-adv-x="590" 
d="M56 559v163h183v-163h-183zM239 500v-500h-183v500h183zM351 500h183v-501q0 -108 -54.5 -166.5t-151.5 -58.5q-32 0 -51.5 4t-32.5 8v154q5 -2 14.5 -4t23.5 -2q35 0 52 20.5t17 56.5v489zM351 559v163h183v-163h-183z" />
    <glyph glyph-name="zdotaccent.square" horiz-adv-x="513" 
d="M480 386l-212 -240h216v-146h-455v116l210 238h-199v146h440v-114zM177 559v163h183v-163h-183z" />
    <glyph glyph-name="i.square" horiz-adv-x="295" 
d="M56 559v163h183v-163h-183zM239 500v-500h-183v500h183z" />
    <glyph glyph-name="j.square" horiz-adv-x="295" 
d="M56 500h183v-501q0 -108 -54.5 -166.5t-151.5 -58.5q-32 0 -51.5 4t-32.5 8v154q5 -2 14.5 -4t23.5 -2q35 0 52 20.5t17 56.5v489zM56 559v163h183v-163h-183z" />
    <glyph glyph-name="aring.alt" horiz-adv-x="554" 
d="M29 136q0 135 187 163l109 17v12q0 20 -15.5 33.5t-38.5 13.5q-49 0 -63 -46l-160 37q18 68 78.5 108t146.5 40q110 0 169.5 -51.5t59.5 -146.5v-316h-169l-2 51q-18 -30 -53 -47.5t-80 -17.5q-77 0 -123 40.5t-46 109.5zM206 149q1 -15 12.5 -24t31.5 -9q34 0 54.5 19.5
t20.5 53.5v12l-65 -11q-54 -9 -54 -41zM276 555q-23 0 -44 8.5t-36.5 23t-24.5 34.5t-9 43t9 43t24.5 34.5t36.5 23t44 8.5t44 -8.5t36.5 -23t24.5 -34.5t9 -43t-9 -43t-24.5 -34.5t-36.5 -23t-44 -8.5zM276 696q-13 0 -22.5 -9t-9.5 -23t9.5 -23t22.5 -9t22.5 9t9.5 23
t-9.5 23t-22.5 9z" />
    <glyph glyph-name="aacute.alt" horiz-adv-x="554" 
d="M198 571l104 151h181l-142 -151h-143zM29 136q0 135 187 163l109 17v12q0 20 -15.5 33.5t-38.5 13.5q-49 0 -63 -46l-160 37q18 68 78.5 108t146.5 40q110 0 169.5 -51.5t59.5 -146.5v-316h-169l-2 51q-18 -30 -53 -47.5t-80 -17.5q-77 0 -123 40.5t-46 109.5zM206 149
q1 -15 12.5 -24t31.5 -9q34 0 54.5 19.5t20.5 53.5v12l-65 -11q-54 -9 -54 -41z" />
    <glyph glyph-name="abreve.alt" horiz-adv-x="554" 
d="M276 674q20 0 33 12.5t13 35.5h116q0 -35 -12.5 -63.5t-34.5 -48.5t-51.5 -31t-63.5 -11t-63.5 11t-51.5 31t-34.5 48.5t-12.5 63.5h116q0 -23 13 -35.5t33 -12.5zM29 136q0 135 187 163l109 17v12q0 20 -15.5 33.5t-38.5 13.5q-49 0 -63 -46l-160 37q18 68 78.5 108
t146.5 40q110 0 169.5 -51.5t59.5 -146.5v-316h-169l-2 51q-18 -30 -53 -47.5t-80 -17.5q-77 0 -123 40.5t-46 109.5zM206 149q1 -15 12.5 -24t31.5 -9q34 0 54.5 19.5t20.5 53.5v12l-65 -11q-54 -9 -54 -41z" />
    <glyph glyph-name="acircumflex.alt" horiz-adv-x="554" 
d="M101 571l110 151h138l110 -151h-144l-37 57l-37 -57h-140zM29 136q0 135 187 163l109 17v12q0 20 -15.5 33.5t-38.5 13.5q-49 0 -63 -46l-160 37q18 68 78.5 108t146.5 40q110 0 169.5 -51.5t59.5 -146.5v-316h-169l-2 51q-18 -30 -53 -47.5t-80 -17.5q-77 0 -123 40.5
t-46 109.5zM206 149q1 -15 12.5 -24t31.5 -9q34 0 54.5 19.5t20.5 53.5v12l-65 -11q-54 -9 -54 -41z" />
    <glyph glyph-name="adieresis.alt" horiz-adv-x="554" 
d="M252 645q0 -33 -24 -57.5t-59 -24.5q-34 0 -58 24t-24 58t24 58t58 24q35 0 59 -24.5t24 -57.5zM466 645q0 -33 -24 -57.5t-59 -24.5q-34 0 -58 24t-24 58t24 58t58 24q35 0 59 -24.5t24 -57.5zM29 136q0 135 187 163l109 17v12q0 20 -15.5 33.5t-38.5 13.5
q-49 0 -63 -46l-160 37q18 68 78.5 108t146.5 40q110 0 169.5 -51.5t59.5 -146.5v-316h-169l-2 51q-18 -30 -53 -47.5t-80 -17.5q-77 0 -123 40.5t-46 109.5zM206 149q1 -15 12.5 -24t31.5 -9q34 0 54.5 19.5t20.5 53.5v12l-65 -11q-54 -9 -54 -41z" />
    <glyph glyph-name="adieresisalt.square" horiz-adv-x="554" 
d="M87 568v154h159v-154h-159zM307 568v154h159v-154h-159zM29 136q0 135 187 163l109 17v12q0 20 -15.5 33.5t-38.5 13.5q-49 0 -63 -46l-160 37q18 68 78.5 108t146.5 40q110 0 169.5 -51.5t59.5 -146.5v-316h-169l-2 51q-18 -30 -53 -47.5t-80 -17.5q-77 0 -123 40.5
t-46 109.5zM206 149q1 -15 12.5 -24t31.5 -9q34 0 54.5 19.5t20.5 53.5v12l-65 -11q-54 -9 -54 -41z" />
    <glyph glyph-name="agrave.alt" horiz-adv-x="554" 
d="M219 571l-142 151h181l104 -151h-143zM29 136q0 135 187 163l109 17v12q0 20 -15.5 33.5t-38.5 13.5q-49 0 -63 -46l-160 37q18 68 78.5 108t146.5 40q110 0 169.5 -51.5t59.5 -146.5v-316h-169l-2 51q-18 -30 -53 -47.5t-80 -17.5q-77 0 -123 40.5t-46 109.5zM206 149
q1 -15 12.5 -24t31.5 -9q34 0 54.5 19.5t20.5 53.5v12l-65 -11q-54 -9 -54 -41z" />
    <glyph glyph-name="amacron.alt" horiz-adv-x="554" 
d="M110 571v121h332v-121h-332zM29 136q0 135 187 163l109 17v12q0 20 -15.5 33.5t-38.5 13.5q-49 0 -63 -46l-160 37q18 68 78.5 108t146.5 40q110 0 169.5 -51.5t59.5 -146.5v-316h-169l-2 51q-18 -30 -53 -47.5t-80 -17.5q-77 0 -123 40.5t-46 109.5zM206 149
q1 -15 12.5 -24t31.5 -9q34 0 54.5 19.5t20.5 53.5v12l-65 -11q-54 -9 -54 -41z" />
    <glyph glyph-name="aogonek.alt" horiz-adv-x="554" 
d="M29 136q0 135 187 163l109 17v12q0 20 -15.5 33.5t-38.5 13.5q-49 0 -63 -46l-160 37q18 68 78.5 108t146.5 40q110 0 169.5 -51.5t59.5 -146.5v-316h-30q-34 -11 -56.5 -31t-22.5 -44q0 -31 39 -31q9 0 19 1.5t19 5.5v-103q-29 -9 -63 -9q-63 0 -100.5 29.5t-37.5 78.5
q0 62 67 103h-3l-2 51q-18 -30 -53 -47.5t-80 -17.5q-77 0 -123 40.5t-46 109.5zM206 149q1 -15 12.5 -24t31.5 -9q34 0 54.5 19.5t20.5 53.5v12l-65 -11q-54 -9 -54 -41z" />
    <glyph glyph-name="atilde.alt" horiz-adv-x="554" 
d="M94 572q2 72 34 113t88 41q26 0 43 -7t29 -15.5t22.5 -15.5t23.5 -7q14 0 24 10.5t11 29.5h101q-2 -72 -34 -113t-88 -41q-26 0 -43 7t-29 15.5t-22.5 15.5t-23.5 7q-15 0 -24.5 -10.5t-10.5 -29.5h-101zM29 136q0 135 187 163l109 17v12q0 20 -15.5 33.5t-38.5 13.5
q-49 0 -63 -46l-160 37q18 68 78.5 108t146.5 40q110 0 169.5 -51.5t59.5 -146.5v-316h-169l-2 51q-18 -30 -53 -47.5t-80 -17.5q-77 0 -123 40.5t-46 109.5zM206 149q1 -15 12.5 -24t31.5 -9q34 0 54.5 19.5t20.5 53.5v12l-65 -11q-54 -9 -54 -41z" />
    <glyph glyph-name="tbar.alt" horiz-adv-x="360" 
d="M10 317h75v36h-75v147h75v143h182v-143h85v-147h-85v-36h85v-108h-85v-209h-182v209h-75v108z" />
    <glyph glyph-name="tcaron.alt" horiz-adv-x="360" 
d="M304 539l34 175h175l-61 -175h-148zM85 0v353h-75v147h75v143h182v-143h85v-147h-85v-353h-182z" />
    <glyph glyph-name="tcommaaccent.alt" horiz-adv-x="360" 
d="M152 -207q-29 2 -48.5 23t-19.5 50q0 19 7 35.5t19 28.5t28.5 18.5t34.5 6.5q39 0 65 -25.5t26 -63.5q0 -21 -6.5 -41t-20.5 -45l-39 -70h-93zM85 0v353h-75v147h75v143h182v-143h85v-147h-85v-353h-182z" />
    <glyph glyph-name="tcommaaccentalt.square" horiz-adv-x="360" 
d="M98 -51h156v-136q0 -60 -34.5 -86.5t-91.5 -26.5q-9 0 -15.5 0.5t-11.5 1.5v70q4 -1 8 -1h8q25 1 38.5 10t13.5 31v2h-71v135zM85 0v353h-75v147h75v143h182v-143h85v-147h-85v-353h-182z" />
    <glyph glyph-name="uacute.alt" horiz-adv-x="586" 
d="M211 571l104 151h181l-142 -151h-143zM293 -14q-56 0 -100.5 15.5t-75.5 44t-48 69.5t-17 92v293h183v-282q0 -32 15 -49.5t43 -17.5t43 17.5t15 49.5v282h183v-293q0 -51 -17 -92t-48 -69.5t-76 -44t-100 -15.5z" />
    <glyph glyph-name="ubreve.alt" horiz-adv-x="586" 
d="M293 674q20 0 33 12.5t13 35.5h116q0 -35 -12.5 -63.5t-34.5 -48.5t-51.5 -31t-63.5 -11t-63.5 11t-51.5 31t-34.5 48.5t-12.5 63.5h116q0 -23 13 -35.5t33 -12.5zM293 -14q-56 0 -100.5 15.5t-75.5 44t-48 69.5t-17 92v293h183v-282q0 -32 15 -49.5t43 -17.5t43 17.5
t15 49.5v282h183v-293q0 -51 -17 -92t-48 -69.5t-76 -44t-100 -15.5z" />
    <glyph glyph-name="ucircumflex.alt" horiz-adv-x="586" 
d="M115 571l110 151h138l110 -151h-144l-37 57l-37 -57h-140zM293 -14q-56 0 -100.5 15.5t-75.5 44t-48 69.5t-17 92v293h183v-282q0 -32 15 -49.5t43 -17.5t43 17.5t15 49.5v282h183v-293q0 -51 -17 -92t-48 -69.5t-76 -44t-100 -15.5z" />
    <glyph glyph-name="udieresis.alt" horiz-adv-x="586" 
d="M269 645q0 -33 -24 -57.5t-59 -24.5q-34 0 -58 24t-24 58t24 58t58 24q35 0 59 -24.5t24 -57.5zM483 645q0 -33 -24 -57.5t-59 -24.5q-34 0 -58 24t-24 58t24 58t58 24q35 0 59 -24.5t24 -57.5zM293 -14q-56 0 -100.5 15.5t-75.5 44t-48 69.5t-17 92v293h183v-282
q0 -32 15 -49.5t43 -17.5t43 17.5t15 49.5v282h183v-293q0 -51 -17 -92t-48 -69.5t-76 -44t-100 -15.5z" />
    <glyph glyph-name="udieresisalt.square" horiz-adv-x="586" 
d="M104 568v154h159v-154h-159zM324 568v154h159v-154h-159zM293 -14q-56 0 -100.5 15.5t-75.5 44t-48 69.5t-17 92v293h183v-282q0 -32 15 -49.5t43 -17.5t43 17.5t15 49.5v282h183v-293q0 -51 -17 -92t-48 -69.5t-76 -44t-100 -15.5z" />
    <glyph glyph-name="ugrave.alt" horiz-adv-x="586" 
d="M232 571l-142 151h181l104 -151h-143zM293 -14q-56 0 -100.5 15.5t-75.5 44t-48 69.5t-17 92v293h183v-282q0 -32 15 -49.5t43 -17.5t43 17.5t15 49.5v282h183v-293q0 -51 -17 -92t-48 -69.5t-76 -44t-100 -15.5z" />
    <glyph glyph-name="uhungarumlaut.alt" horiz-adv-x="586" 
d="M115 571l89 151h154l-117 -151h-126zM313 571l89 151h154l-117 -151h-126zM293 -14q-56 0 -100.5 15.5t-75.5 44t-48 69.5t-17 92v293h183v-282q0 -32 15 -49.5t43 -17.5t43 17.5t15 49.5v282h183v-293q0 -51 -17 -92t-48 -69.5t-76 -44t-100 -15.5z" />
    <glyph glyph-name="umacron.alt" horiz-adv-x="586" 
d="M293 -14q-56 0 -100.5 15.5t-75.5 44t-48 69.5t-17 92v293h183v-282q0 -32 15 -49.5t43 -17.5t43 17.5t15 49.5v282h183v-293q0 -51 -17 -92t-48 -69.5t-76 -44t-100 -15.5zM127 571v121h332v-121h-332z" />
    <glyph glyph-name="uogonek.alt" horiz-adv-x="586" 
d="M206 -103q0 54 49 91q-95 10 -149 67.5t-54 151.5v293h183v-282q0 -32 15 -49.5t43 -17.5t43 17.5t15 49.5v282h183v-293q0 -76 -36 -128t-100 -78q-30 -12 -49 -32t-19 -44q0 -31 39 -31q9 0 19 1.5t19 5.5v-103q-29 -9 -63 -9q-63 0 -100.5 29.5t-37.5 78.5z" />
    <glyph glyph-name="uring.alt" horiz-adv-x="586" 
d="M293 555q-23 0 -44 8.5t-36.5 23t-24.5 34.5t-9 43t9 43t24.5 34.5t36.5 23t44 8.5t44 -8.5t36.5 -23t24.5 -34.5t9 -43t-9 -43t-24.5 -34.5t-36.5 -23t-44 -8.5zM293 696q-13 0 -22.5 -9t-9.5 -23t9.5 -23t22.5 -9t22.5 9t9.5 23t-9.5 23t-22.5 9zM293 -14
q-56 0 -100.5 15.5t-75.5 44t-48 69.5t-17 92v293h183v-282q0 -32 15 -49.5t43 -17.5t43 17.5t15 49.5v282h183v-293q0 -51 -17 -92t-48 -69.5t-76 -44t-100 -15.5z" />
    <glyph glyph-name="utilde.alt" horiz-adv-x="586" 
d="M113 572q2 72 34 113t88 41q26 0 43 -7t29 -15.5t22.5 -15.5t23.5 -7q14 0 24 10.5t11 29.5h101q-2 -72 -34 -113t-88 -41q-26 0 -43 7t-29 15.5t-22.5 15.5t-23.5 7q-15 0 -24.5 -10.5t-10.5 -29.5h-101zM293 -14q-56 0 -100.5 15.5t-75.5 44t-48 69.5t-17 92v293h183
v-282q0 -32 15 -49.5t43 -17.5t43 17.5t15 49.5v282h183v-293q0 -51 -17 -92t-48 -69.5t-76 -44t-100 -15.5z" />
    <glyph glyph-name="ordfeminine.alt" horiz-adv-x="427" 
d="M27 400q0 101 139 122l81 12v9q0 15 -11.5 25t-28.5 10q-36 0 -47 -34l-119 28q14 51 58.5 80.5t108.5 29.5q82 0 126.5 -38.5t44.5 -109.5v-235h-126l-1 38q-14 -23 -40.5 -35.5t-58.5 -12.5q-57 0 -91.5 30t-34.5 81zM158 410q2 -25 33 -25q26 0 41 14.5t15 40.5v9
l-48 -8q-41 -7 -41 -31z" />
    <glyph glyph-name="a.superior" horiz-adv-x="495" 
d="M444 672v-373h-134v44q-17 -26 -47 -40t-65 -14q-37 0 -68.5 14.5t-54.5 41t-36 62.5t-13 78q0 43 13 79t36 62t54.5 40.5t68.5 14.5t66.5 -14t45.5 -38v43h134zM238 411q31 0 53.5 21.5t22.5 52.5q0 32 -22.5 53.5t-53.5 21.5t-53.5 -21.5t-22.5 -53.5q0 -31 22.5 -52.5
t53.5 -21.5z" />
    <glyph glyph-name="b.superior" horiz-adv-x="496" 
d="M187 821v-193q17 24 45.5 38.5t63.5 14.5q38 0 70 -14.5t55 -41t36 -62.5t13 -78t-13 -78t-36.5 -62t-55.5 -41t-69 -15q-36 0 -64 13.5t-45 35.5v-39h-136v522h136zM258 411q30 0 52.5 21.5t22.5 52.5q0 32 -22.5 53.5t-52.5 21.5t-52.5 -21.5t-22.5 -53.5
q0 -31 22.5 -52.5t52.5 -21.5z" />
    <glyph glyph-name="c.superior" horiz-adv-x="347" 
d="M26 485q0 43 15 79t42 62t64 41t81 15q46 0 87 -19v-124q-33 21 -68 21t-59 -20.5t-24 -54.5q0 -33 23.5 -53.5t59.5 -20.5q37 0 68 22v-124q-22 -11 -45 -15.5t-45 -4.5q-42 0 -78.5 13.5t-63 39t-42 62t-15.5 81.5z" />
    <glyph glyph-name="d.superior" horiz-adv-x="497" 
d="M239 411q30 0 52.5 21.5t22.5 52.5q0 32 -22.5 53.5t-52.5 21.5q-31 0 -53.5 -21.5t-22.5 -53.5q0 -31 22.5 -52.5t53.5 -21.5zM310 299v43q-17 -23 -45.5 -38t-63.5 -15q-38 0 -70 15t-55.5 41t-36.5 62t-13 78t13.5 78t36.5 62.5t55 41t70 14.5q36 0 64 -13t45 -36v189
h136v-522h-136z" />
    <glyph glyph-name="e.superior" horiz-adv-x="441" 
d="M225 682q43 0 79 -14.5t61.5 -41t39.5 -64t14 -83.5q0 -9 -0.5 -16t-0.5 -12h-258q2 -24 22 -39t46 -15q23 0 37 8t25 25l117 -41q-23 -48 -69 -74t-109 -26q-45 0 -82.5 14t-64 40t-41.5 62t-15 80q0 42 15 78.5t42 62.5t63.5 41t78.5 15zM224 578q-26 0 -44 -14
t-20 -35h127q-2 22 -19.5 35.5t-43.5 13.5z" />
    <glyph glyph-name="f.superior" horiz-adv-x="304" 
d="M197 672h92v-110h-92v-263h-135v263h-50v110h50v9q0 77 44 120.5t123 43.5q18 0 35.5 -3t29.5 -10v-112q-8 4 -18 6.5t-23 2.5q-23 0 -39.5 -12.5t-16.5 -38.5v-6z" />
    <glyph glyph-name="g.superior" horiz-adv-x="492" 
d="M307 347q-17 -20 -45 -32t-63 -12q-38 0 -69.5 14t-54.5 39t-36 59t-13 74q0 41 13 76.5t36 61t54.5 40t69.5 14.5q36 0 63.5 -13t44.5 -36v40h134v-348q0 -43 -14 -79.5t-41.5 -63.5t-68 -42t-93.5 -15q-70 0 -120.5 27t-71.5 73l109 61q12 -23 34 -36t50 -13
q39 0 60.5 23t21.5 67v21zM311 489q0 31 -22 52t-52 21q-29 0 -51.5 -21t-22.5 -52t22.5 -52t51.5 -21q30 0 52 21t22 52z" />
    <glyph glyph-name="h.superior" horiz-adv-x="469" 
d="M187 299h-136v522h136v-195q16 28 42.5 42t61.5 14q60 0 95 -39t35 -107v-237h-137v202q0 27 -12.5 42t-34.5 15q-23 0 -36.5 -16.5t-13.5 -44.5v-198z" />
    <glyph glyph-name="i.superior" horiz-adv-x="238" 
d="M51 299v373h136v-373h-136zM195 777q0 -31 -22 -53.5t-54 -22.5t-54 22.5t-22 53.5t22 53t54 22t54 -22.5t22 -52.5z" />
    <glyph glyph-name="j.superior" horiz-adv-x="212" 
d="M161 298q0 -80 -40.5 -123.5t-112.5 -43.5q-24 0 -38.5 3t-24.5 6v114q8 -4 28 -4q26 0 39 15t13 42v365h136v-374zM169 777q0 -31 -22 -53.5t-54 -22.5t-54 22.5t-22 53.5t22 53t54 22t54 -22.5t22 -52.5z" />
    <glyph glyph-name="k.superior" horiz-adv-x="456" 
d="M448 672l-144 -170l152 -203h-161l-108 152v-152h-136v522h136v-274l102 125h159z" />
    <glyph glyph-name="l.superior" horiz-adv-x="238" 
d="M187 821v-522h-136v522h136z" />
    <glyph glyph-name="m.superior" horiz-adv-x="687" 
d="M187 299h-136v373h136v-44q15 24 40.5 39t61.5 15t62.5 -15.5t41.5 -44.5q20 33 51.5 46.5t64.5 13.5q63 0 96.5 -38.5t33.5 -104.5v-240h-136v203q0 26 -12 41t-32 15q-21 0 -33.5 -15t-12.5 -43v-201h-136v203q0 26 -12 41t-32 15q-21 0 -33.5 -15t-12.5 -43v-201z" />
    <glyph glyph-name="o.superior" horiz-adv-x="465" 
d="M233 682q44 0 81.5 -15t65.5 -41t43.5 -62.5t15.5 -78.5t-15.5 -78t-43.5 -62t-65.5 -41t-81.5 -15t-82 15t-66 41t-43.5 62t-15.5 78t15.5 78.5t43.5 62.5t66 41t82 15zM233 558q-29 0 -51 -21t-22 -52t22 -52t51 -21t51 21t22 52t-22 52t-51 21z" />
    <glyph glyph-name="p.superior" horiz-adv-x="496" 
d="M51 144v528h136v-44q17 24 45.5 38.5t63.5 14.5q38 0 70 -14.5t55 -41t36 -62.5t13 -78t-13 -78t-36.5 -62t-55.5 -41t-69 -15q-36 0 -64 13.5t-45 35.5v-194h-136zM258 411q30 0 52.5 21.5t22.5 52.5q0 32 -22.5 53.5t-52.5 21.5t-52.5 -21.5t-22.5 -53.5
q0 -31 22.5 -52.5t52.5 -21.5z" />
    <glyph glyph-name="q.superior" horiz-adv-x="497" 
d="M239 411q30 0 52.5 21.5t22.5 52.5q0 32 -22.5 53.5t-52.5 21.5q-31 0 -53.5 -21.5t-22.5 -53.5q0 -31 22.5 -52.5t53.5 -21.5zM310 144v198q-17 -23 -45.5 -38t-63.5 -15q-38 0 -70 15t-55.5 41t-36.5 62t-13 78t13.5 78t36.5 62.5t55 41t70 14.5q36 0 64 -13t45 -36v40
h136v-528h-136z" />
    <glyph glyph-name="r.superior" horiz-adv-x="325" 
d="M308 537q-15 6 -33 6q-42 0 -65 -28t-23 -80v-136h-136v373h135v-59q31 67 102 67q12 0 20 -2v-141z" />
    <glyph glyph-name="s.superior" horiz-adv-x="368" 
d="M349 417q0 -60 -45.5 -94t-120.5 -34q-47 0 -92 14.5t-80 40.5l57 92q26 -17 58.5 -28.5t57.5 -11.5q29 0 29 16q0 8 -8 12t-26 9l-21 6q-65 17 -95 43.5t-30 72.5q0 28 11.5 51.5t32.5 40.5t50.5 26t65.5 9q39 0 79 -13t75 -36l-52 -92q-28 17 -54.5 26t-47.5 9
q-26 0 -26 -15q0 -7 7 -10t29 -10l19 -5q68 -18 97.5 -46.5t29.5 -72.5z" />
    <glyph glyph-name="t.superior" horiz-adv-x="303" 
d="M197 778v-106h87v-110h-87v-101q0 -28 12 -39.5t35 -11.5q21 0 40 11v-115q-14 -6 -35 -11.5t-53 -5.5q-63 0 -99 37t-36 103v133h-50v110h50v106h136z" />
    <glyph glyph-name="u.superior" horiz-adv-x="467" 
d="M279 672h137v-373h-137v45q-15 -27 -41.5 -41t-60.5 -14q-60 0 -94.5 38.5t-34.5 107.5v237h136v-200q0 -59 47 -59q22 0 35 15.5t13 44.5v199z" />
    <glyph glyph-name="v.superior" horiz-adv-x="436" 
d="M4 672h144l72 -208l72 208h140l-150 -373h-128z" />
    <glyph glyph-name="w.superior" horiz-adv-x="629" 
d="M380 299l-66 199l-65 -199h-116l-127 373h138l58 -194l64 194h100l63 -194l59 194h135l-127 -373h-116z" />
    <glyph glyph-name="x.superior" horiz-adv-x="443" 
d="M220 391l-64 -92h-150l138 188l-132 185h155l56 -86l58 86h151l-132 -182l137 -191h-154z" />
    <glyph glyph-name="y.superior" horiz-adv-x="454" 
d="M112 131q-27 0 -45.5 5.5t-29.5 11.5v111q24 -11 47 -11q24 0 42.5 8.5t27.5 30.5l3 8l-153 377h144l81 -228l81 228h140l-158 -391q-33 -80 -76.5 -115t-103.5 -35z" />
    <glyph glyph-name="z.superior" horiz-adv-x="393" 
d="M363 587l-157 -179h160v-109h-339v86l156 178h-148v109h328v-85z" />
    <glyph glyph-name="aalt.superior" horiz-adv-x="427" 
d="M27 400q0 101 139 122l81 12v9q0 15 -11.5 25t-28.5 10q-36 0 -47 -34l-119 28q14 51 58.5 80.5t108.5 29.5q82 0 126.5 -38.5t44.5 -109.5v-235h-126l-1 38q-14 -23 -40.5 -35.5t-58.5 -12.5q-57 0 -91.5 30t-34.5 81zM158 410q2 -25 33 -25q26 0 41 14.5t15 40.5v9
l-48 -8q-41 -7 -41 -31z" />
    <glyph glyph-name="talt.superior" horiz-adv-x="273" 
d="M66 299v263h-56v110h56v106h136v-106h63v-110h-63v-263h-136z" />
    <glyph glyph-name="ualt.superior" horiz-adv-x="455" 
d="M227 289q-83 0 -131 43.5t-48 120.5v219h136v-211q0 -49 43 -49q44 0 44 49v211h136v-219q0 -77 -48 -120.5t-132 -43.5z" />
    <glyph glyph-name="isquare.superior" horiz-adv-x="238" 
d="M51 299v373h136v-373h-136zM51 715v122h136v-122h-136z" />
    <glyph glyph-name="jsquare.superior" horiz-adv-x="212" 
d="M25 672h136v-374q0 -80 -40.5 -123.5t-112.5 -43.5q-24 0 -38.5 3t-24.5 6v114q8 -4 28 -4q26 0 39 15t13 42v365zM25 715v122h136v-122h-136z" />
    <glyph glyph-name="caronSlovak" horiz-adv-x="500" 
d="M146 539l34 175h175l-61 -175h-148z" />
    <glyph glyph-name="commaaccent.square" horiz-adv-x="500" 
d="M172 -51h156v-136q0 -60 -34.5 -86.5t-91.5 -26.5q-9 0 -15.5 0.5t-11.5 1.5v70q4 -1 8 -1h8q25 1 38.5 10t13.5 31v2h-71v135z" />
    <glyph glyph-name="dieresis.square" horiz-adv-x="500" 
d="M60 568v154h159v-154h-159zM280 568v154h159v-154h-159z" />
    <glyph glyph-name="dotaccent.square" horiz-adv-x="500" 
d="M158 559v163h183v-163h-183z" />
    <glyph glyph-name="uni0312.square" horiz-adv-x="500" 
d="M328 565h-156v141q0 60 34.5 86.5t91.5 26.5q9 0 15.5 -0.5t11.5 -1.5v-70q-4 1 -8 1h-8q-25 -1 -38.5 -10t-13.5 -31v-2h71v-140z" />
    <glyph glyph-name="acute.cap" horiz-adv-x="500" 
d="M179 753l104 151h181l-142 -151h-143z" />
    <glyph glyph-name="breve.cap" horiz-adv-x="500" 
d="M250 856q20 0 33 12.5t13 35.5h116q0 -35 -12.5 -63.5t-34.5 -48.5t-51.5 -31t-63.5 -11t-63.5 11t-51.5 31t-34.5 48.5t-12.5 63.5h116q0 -23 13 -35.5t33 -12.5z" />
    <glyph glyph-name="caron.cap" horiz-adv-x="500" 
d="M429 904l-110 -151h-138l-110 151h144l37 -57l37 57h140z" />
    <glyph glyph-name="circumflex.cap" horiz-adv-x="500" 
d="M71 753l110 151h138l110 -151h-144l-37 57l-37 -57h-140z" />
    <glyph glyph-name="dieresis.cap" horiz-adv-x="500" 
d="M225 828q0 -33 -24 -57.5t-59 -24.5q-34 0 -58 24t-24 58t24 58t58 24q35 0 59 -24.5t24 -57.5zM439 828q0 -33 -24 -57.5t-59 -24.5q-34 0 -58 24t-24 58t24 58t58 24q35 0 59 -24.5t24 -57.5z" />
    <glyph glyph-name="dieresiscap.square" horiz-adv-x="500" 
d="M60 751v154h159v-154h-159zM280 751v154h159v-154h-159z" />
    <glyph glyph-name="dotaccent.cap" horiz-adv-x="500" 
d="M347 843q0 -19 -7.5 -36.5t-21 -30.5t-31 -21t-38.5 -8q-20 0 -37.5 7.5t-31 21t-21 30.5t-7.5 37t7.5 37.5t21 31t31 21t37.5 7.5q21 0 38.5 -8t31 -21t21 -31t7.5 -37z" />
    <glyph glyph-name="dotaccentcap.square" horiz-adv-x="500" 
d="M158 755v163h183v-163h-183z" />
    <glyph glyph-name="grave.cap" horiz-adv-x="500" 
d="M179 753l-142 151h181l104 -151h-143z" />
    <glyph glyph-name="hungarumlaut.cap" horiz-adv-x="500" 
d="M88 753l89 151h154l-117 -151h-126zM286 753l89 151h154l-117 -151h-126z" />
    <glyph glyph-name="macron.cap" horiz-adv-x="500" 
d="M84 753v121h332v-121h-332z" />
    <glyph glyph-name="ring.cap" horiz-adv-x="500" 
d="M250 736q-23 0 -44 8.5t-36.5 23t-24.5 34.5t-9 43t9 43t24.5 34.5t36.5 23t44 8.5t44 -8.5t36.5 -23t24.5 -34.5t9 -43t-9 -43t-24.5 -34.5t-36.5 -23t-44 -8.5zM250 877q-13 0 -22.5 -9t-9.5 -23t9.5 -23t22.5 -9t22.5 9t9.5 23t-9.5 23t-22.5 9z" />
    <glyph glyph-name="tilde.cap" horiz-adv-x="500" 
d="M62 754q2 72 34 113t88 41q26 0 43 -7t29 -15.5t22.5 -15.5t23.5 -7q14 0 24 10.5t11 29.5h101q-2 -72 -34 -113t-88 -41q-26 0 -43 7t-29 15.5t-22.5 15.5t-23.5 7q-15 0 -24.5 -10.5t-10.5 -29.5h-101z" />
    <glyph glyph-name="period.square" horiz-adv-x="302" 
d="M59 0v181h184v-181h-184z" />
    <glyph glyph-name="comma.square" horiz-adv-x="302" 
d="M59 181h184v-179q0 -85 -44.5 -124.5t-116.5 -39.5q-5 0 -10 0.5t-10 1.5v87q4 -1 12 -1q32 2 50 17.5t18 47.5v9h-83v181z" />
    <glyph glyph-name="colon.square" horiz-adv-x="302" 
d="M59 0v181h184v-181h-184zM59 319v181h184v-181h-184z" />
    <glyph glyph-name="semicolon.square" horiz-adv-x="302" 
d="M59 181h184v-179q0 -85 -44.5 -124.5t-116.5 -39.5q-5 0 -10 0.5t-10 1.5v87q4 -1 12 -1q32 2 50 17.5t18 47.5v9h-83v181zM59 319v181h184v-181h-184z" />
    <glyph glyph-name="ellipsis.square" horiz-adv-x="906" 
d="M59 0v181h184v-181h-184zM663 0v181h184v-181h-184zM361 0v181h184v-181h-184z" />
    <glyph glyph-name="exclamdown.cap" horiz-adv-x="320" 
d="M241 466l16 -466h-194l16 466h162zM60 614q0 20 7.5 38.5t21 32t32 21.5t39.5 8q42 0 71 -29t29 -71t-29 -71t-71 -29q-21 0 -39.5 8t-32 21.5t-21 32t-7.5 38.5z" />
    <glyph glyph-name="questiondown.cap" horiz-adv-x="565" 
d="M35 200q0 93 72 154q15 13 32 25t31.5 24t23.5 23.5t9 25.5v14h179v-33q0 -35 -25 -70t-73 -65q-32 -20 -48 -39t-16 -42t17 -40t46 -17t47 20.5t19 51.5h181q0 -55 -17.5 -100t-50 -77.5t-78.5 -50.5t-102 -18q-54 0 -99.5 16t-78 44.5t-51 67.5t-18.5 86zM191 614
q0 20 7.5 38.5t21 32t32 21.5t39.5 8q42 0 71 -29t29 -71t-29 -71t-71 -29q-21 0 -39.5 8t-32 21.5t-21 32t-7.5 38.5z" />
    <glyph glyph-name="exclam.square" horiz-adv-x="320" 
d="M253 174v-174h-186v174h186zM257 700l-17 -466h-160l-17 466h194z" />
    <glyph glyph-name="exclamdown.square" horiz-adv-x="320" 
d="M63 -208l17 474h160l17 -474h-194zM253 500v-174h-186v174h186z" />
    <glyph glyph-name="exclamdowncap.square" horiz-adv-x="320" 
d="M253 700v-174h-186v174h186zM63 0l17 466h160l17 -466h-194z" />
    <glyph glyph-name="question.square" horiz-adv-x="555" 
d="M361 174v-174h-186v174h186zM525 500q0 -93 -72 -154q-15 -13 -32.5 -25t-32.5 -24t-24.5 -24.5t-9.5 -26.5v-12h-173v31q0 35 23.5 71t71.5 66q64 40 64 81q0 23 -17 40t-46 17t-47 -20.5t-19 -51.5h-181q0 55 17.5 100t50 77.5t78.5 50.5t102 18q54 0 99.5 -16
t78 -44.5t51 -68t18.5 -85.5z" />
    <glyph glyph-name="questiondown.square" horiz-adv-x="555" 
d="M380 500v-174h-186v174h186zM30 0q0 93 72 154q15 13 32.5 25t32.5 24t24.5 24.5t9.5 26.5v12h173v-31q0 -35 -23.5 -71t-71.5 -66q-64 -40 -64 -81q0 -23 17 -40t46 -17t47 20.5t19 51.5h181q0 -55 -17.5 -100t-50 -77.5t-78.5 -50.5t-102 -18q-54 0 -99.5 16t-78 44.5
t-51 67.5t-18.5 86z" />
    <glyph glyph-name="questiondowncap.square" horiz-adv-x="555" 
d="M380 700v-174h-186v174h186zM30 200q0 93 72 154q15 13 32.5 25t32.5 24t24.5 24.5t9.5 26.5v12h173v-31q0 -35 -23.5 -71t-71.5 -66q-64 -40 -64 -81q0 -23 17 -40t46 -17t47 20.5t19 51.5h181q0 -55 -17.5 -100t-50 -77.5t-78.5 -50.5t-102 -18q-54 0 -99.5 16
t-78 44.5t-51 67.5t-18.5 86z" />
    <glyph glyph-name="reversequoteleft" horiz-adv-x="248" 
d="M115 430l-67 118q-8 16 -13 36t-5 38q0 41 26.5 66.5t68.5 25.5q39 0 66 -25.5t27 -66.5q0 -32 -21.5 -54.5t-53.5 -22.5h-2l67 -115h-93z" />
    <glyph glyph-name="reversequotedblleft" horiz-adv-x="476" 
d="M343 430l-67 118q-8 16 -13 36t-5 38q0 41 26.5 66.5t68.5 25.5q39 0 66 -25.5t27 -66.5q0 -32 -21.5 -54.5t-53.5 -22.5h-2l67 -115h-93zM115 430l-67 118q-8 16 -13 36t-5 38q0 41 26.5 66.5t68.5 25.5q39 0 66 -25.5t27 -66.5q0 -32 -21.5 -54.5t-53.5 -22.5h-2
l67 -115h-93z" />
    <glyph glyph-name="quoteleft.square" horiz-adv-x="248" 
d="M204 418h-162v160q0 74 37.5 105t100.5 31q5 0 10.5 -0.5t10.5 -1.5v-76q-5 1 -12 1q-27 0 -42.5 -12.5t-15.5 -39.5v-11h73v-156z" />
    <glyph glyph-name="quoteright.square" horiz-adv-x="248" 
d="M44 700h162v-160q0 -74 -37.5 -105t-100.5 -31q-5 0 -10.5 0.5t-10.5 1.5v76q5 -1 12 -1q27 0 42.5 12.5t15.5 39.5v11h-73v156z" />
    <glyph glyph-name="quotedblleft.square" horiz-adv-x="470" 
d="M204 418h-162v160q0 74 37.5 105t100.5 31q5 0 10.5 -0.5t10.5 -1.5v-76q-5 1 -12 1q-27 0 -42.5 -12.5t-15.5 -39.5v-11h73v-156zM426 418h-162v160q0 74 37.5 105t100.5 31q5 0 10.5 -0.5t10.5 -1.5v-76q-5 1 -12 1q-27 0 -42.5 -12.5t-15.5 -39.5v-11h73v-156z" />
    <glyph glyph-name="quotedblright.square" horiz-adv-x="470" 
d="M44 700h162v-160q0 -74 -37.5 -105t-100.5 -31q-5 0 -10.5 0.5t-10.5 1.5v76q5 -1 12 -1q27 0 42.5 12.5t15.5 39.5v11h-73v156zM266 700h162v-160q0 -74 -37.5 -105t-100.5 -31q-5 0 -10.5 0.5t-10.5 1.5v76q5 -1 12 -1q27 0 42.5 12.5t15.5 39.5v11h-73v156z" />
    <glyph glyph-name="quotesinglbase.square" horiz-adv-x="248" 
d="M42 156h162v-160q0 -74 -37.5 -105t-100.5 -31q-5 0 -10.5 0.5t-10.5 1.5v76q5 -1 12 -1q27 0 42.5 12.5t15.5 39.5v11h-73v156z" />
    <glyph glyph-name="quotedblbase.square" horiz-adv-x="470" 
d="M42 156h162v-160q0 -74 -37.5 -105t-100.5 -31q-5 0 -10.5 0.5t-10.5 1.5v76q5 -1 12 -1q27 0 42.5 12.5t15.5 39.5v11h-73v156zM264 156h162v-160q0 -74 -37.5 -105t-100.5 -31q-5 0 -10.5 0.5t-10.5 1.5v76q5 -1 12 -1q27 0 42.5 12.5t15.5 39.5v11h-73v156z" />
    <glyph glyph-name="reversequoteleft.square" horiz-adv-x="248" 
d="M204 544h-73v-11q0 -27 15.5 -39.5t42.5 -12.5q7 0 12 1v-76q-5 -1 -10.5 -1.5t-10.5 -0.5q-63 0 -100.5 31t-37.5 105v160h162v-156z" />
    <glyph glyph-name="reversequotedblleft.square" horiz-adv-x="470" 
d="M204 544h-73v-11q0 -27 15.5 -39.5t42.5 -12.5q7 0 12 1v-76q-5 -1 -10.5 -1.5t-10.5 -0.5q-63 0 -100.5 31t-37.5 105v160h162v-156zM426 544h-73v-11q0 -27 15.5 -39.5t42.5 -12.5q7 0 12 1v-76q-5 -1 -10.5 -1.5t-10.5 -0.5q-63 0 -100.5 31t-37.5 105v160h162v-156z
" />
    <glyph glyph-name="guilsinglleft.cap" horiz-adv-x="342" 
d="M30 345l133 202h154l-131 -202l132 -202h-158z" />
    <glyph glyph-name="guilsinglright.cap" horiz-adv-x="342" 
d="M312 345l-133 -202h-154l131 202l-132 202h158z" />
    <glyph glyph-name="guillemotleft.cap" horiz-adv-x="568" 
d="M30 345l133 202h154l-131 -202l132 -202h-158zM256 345l133 202h154l-131 -202l132 -202h-158z" />
    <glyph glyph-name="guillemotright.cap" horiz-adv-x="568" 
d="M538 345l-133 -202h-154l131 202l-132 202h158zM312 345l-133 -202h-154l131 202l-132 202h158z" />
    <glyph glyph-name="doublebar" horiz-adv-x="544" 
d="M69 -156v921h170v-921h-170zM305 -156v921h170v-921h-170z" />
    <glyph glyph-name="slash.cap" horiz-adv-x="520" 
d="M10 -24l319 748h181l-319 -748h-181z" />
    <glyph glyph-name="backslash.cap" horiz-adv-x="520" 
d="M329 -24l-319 748h181l319 -748h-181z" />
    <glyph glyph-name="bar.cap" horiz-adv-x="308" 
d="M69 -24v748h170v-748h-170z" />
    <glyph glyph-name="doublebar.cap" horiz-adv-x="544" 
d="M69 -24v748h170v-748h-170zM305 -24v748h170v-748h-170z" />
    <glyph glyph-name="brokenbar.cap" horiz-adv-x="308" 
d="M69 431v293h170v-293h-170zM239 274v-298h-170v298h170z" />
    <glyph glyph-name="bullet.cap" horiz-adv-x="388" 
d="M40 345q0 31 12 59t33 49t49 33t60 12q31 0 59 -12t49 -33t33.5 -49t12.5 -59t-12.5 -59t-33.5 -49t-49 -33t-59 -12q-32 0 -60 12t-49 33t-33 49t-12 59z" />
    <glyph glyph-name="periodcentered.square" horiz-adv-x="302" 
d="M59 178v181h184v-181h-184z" />
    <glyph glyph-name="periodcentered.cap" horiz-adv-x="302" 
d="M257 345q0 -21 -8.5 -40t-22.5 -33.5t-33.5 -23t-41.5 -8.5t-41 8.5t-33.5 22.5t-23 33.5t-8.5 40.5t8.5 40.5t23 33.5t33.5 22.5t41 8.5t41 -8.5t33.5 -22.5t23 -33.5t8.5 -40.5z" />
    <glyph glyph-name="periodcenteredcap.square" horiz-adv-x="302" 
d="M59 254v181h184v-181h-184z" />
    <glyph glyph-name="hyphen.cap" horiz-adv-x="425" 
d="M50 427h325v-164h-325v164z" />
    <glyph glyph-name="endash.cap" horiz-adv-x="570" 
d="M50 423h470v-156h-470v156z" />
    <glyph glyph-name="emdash.cap" horiz-adv-x="870" 
d="M50 423h770v-156h-770v156z" />
    <glyph glyph-name="figuredash.cap" 
d="M50 423h500v-156h-500v156z" />
    <glyph glyph-name="parenleft.cap" horiz-adv-x="377" 
d="M40 347q0 56 10 111.5t29 107.5t46.5 99.5t62.5 87.5h174q-71 -96 -108.5 -196.5t-37.5 -209.5t37.5 -210t108.5 -197h-174q-35 40 -62.5 87.5t-46.5 100t-29 108t-10 111.5z" />
    <glyph glyph-name="parenright.cap" horiz-adv-x="377" 
d="M337 346q0 -56 -10 -111.5t-29 -107.5t-46.5 -99.5t-62.5 -87.5h-174q71 96 108.5 196.5t37.5 209.5t-37.5 210t-108.5 197h174q35 -40 62.5 -87.5t46.5 -100t29 -108t10 -111.5z" />
    <glyph glyph-name="bracketleft.cap" horiz-adv-x="368" 
d="M55 753h283v-142h-113v-529h113v-142h-283v813z" />
    <glyph glyph-name="bracketright.cap" horiz-adv-x="368" 
d="M313 -60h-283v142h113v529h-113v142h283v-813z" />
    <glyph glyph-name="braceleft.cap" horiz-adv-x="384" 
d="M265 132q-2 -38 17 -51t52 -13l20 1v-127q-30 -3 -58 -3q-104 0 -155 43.5t-46 144.5l3 67q2 39 -17.5 62.5t-55.5 28.5v122q36 5 55.5 29.5t17.5 63.5l-3 66q-5 101 46 144.5t155 43.5q23 0 58 -3v-127l-20 1q-33 0 -52 -13t-17 -51l3 -65q1 -26 -2 -47t-12 -38.5
t-25 -32.5t-40 -29q24 -15 40 -30t25 -33t12 -39.5t2 -48.5z" />
    <glyph glyph-name="braceright.cap" horiz-adv-x="384" 
d="M119 561q2 38 -17 51t-52 13l-20 -1v127q30 3 58 3q104 0 155 -43.5t46 -144.5l-3 -67q-2 -39 17.5 -62.5t55.5 -28.5v-122q-36 -5 -55.5 -29.5t-17.5 -63.5l3 -66q5 -101 -46 -144.5t-155 -43.5q-23 0 -58 3v127l20 -1q33 0 52 13t17 51l-3 65q-1 26 2 47t12 38.5
t25 32.5t40 29q-24 15 -40 30t-25 33t-12 39.5t-2 48.5z" />
    <glyph glyph-name="anglebracketleft.cap" horiz-adv-x="403" 
d="M25 344l180 409h178l-177 -405l180 -408h-181z" />
    <glyph glyph-name="anglebracketright.cap" horiz-adv-x="403" 
d="M198 -60h-178l177 405l-180 408h181l180 -404z" />
    <glyph glyph-name="at.cap" horiz-adv-x="855" 
d="M619 159q-39 -1 -68 13t-42 41q-17 -26 -47 -41.5t-63 -15.5q-36 0 -66 13t-51.5 37t-34 58t-12.5 77q0 42 13.5 79t37 64t55.5 42.5t70 15.5q31 0 54.5 -12.5t37.5 -35.5l5 36h118l-27 -223q-2 -15 3 -25.5t25 -10.5q14 0 26.5 10t22 27.5t15 41.5t5.5 51q0 49 -17 89.5
t-48 69t-75 44.5t-97 16q-62 0 -115 -21t-92 -58t-61 -87.5t-22 -109.5q0 -57 19.5 -105.5t55 -83.5t85 -54.5t108.5 -19.5q119 0 206 54l65 -106q-48 -32 -121.5 -52.5t-151.5 -20.5q-85 0 -158 26t-127 75t-85 120.5t-31 163.5q0 89 32.5 163t89.5 127t134.5 82.5
t167.5 29.5q79 0 146.5 -26t116.5 -71.5t76.5 -107.5t27.5 -134q0 -57 -17.5 -102t-46.5 -77t-66 -49t-76 -17zM421 269q29 0 48 26t19 64q0 34 -16.5 52t-41.5 18q-29 0 -48 -25.5t-19 -62.5q0 -35 17 -53.5t41 -18.5z" />
    <glyph glyph-name="registered.superior" horiz-adv-x="439" 
d="M414 505q0 -40 -15.5 -75.5t-41.5 -61.5t-62 -41.5t-76 -15.5t-75.5 15.5t-61.5 41.5t-41.5 61.5t-15.5 75.5t15.5 76t41.5 62t61.5 41.5t75.5 15.5t76 -15.5t62 -41.5t41.5 -62t15.5 -76zM345 505q0 26 -10 49.5t-27 41t-40 28t-49 10.5t-48.5 -10.5t-39.5 -28t-27 -41
t-10 -49.5t10 -49t27 -40.5t39.5 -28t48.5 -10.5t49 10.5t40 28t27 40.5t10 49zM214 474h-6v-54h-52v175h70q31 0 49.5 -16t18.5 -45q0 -17 -8 -30t-22 -21l37 -63h-58zM208 515h15q7 0 12 4.5t5 12.5t-5 13t-12 5h-15v-35z" />
    <glyph glyph-name="numbersign.LT" 
d="M498 518h77v-122h-94l-15 -101h78v-122h-95l-24 -173h-135l24 173h-78l-24 -173h-135l24 173h-76v122h94l14 101h-77v122h95l24 168h134l-24 -168h78l24 168h135zM253 295h78l15 101h-78z" />
    <glyph glyph-name="zero.LT" 
d="M572 343q0 -84 -18.5 -150t-53.5 -112t-85.5 -70.5t-114.5 -24.5t-114.5 24.5t-85.5 70.5t-53.5 112t-18.5 150t18.5 150t53.5 112t85.5 70.5t114.5 24.5t114.5 -24.5t85.5 -70.5t53.5 -112t18.5 -150zM387 343q0 184 -87 184t-87 -184t87 -184t87 184z" />
    <glyph glyph-name="one.LT" 
d="M51 161h172v357h-115v168h301v-525h159v-161h-517v161z" />
    <glyph glyph-name="two.LT" 
d="M300 700q56 0 103 -17t81 -48t53 -73t19 -93q0 -33 -8.5 -63.5t-27.5 -59.5t-49.5 -58.5t-75.5 -62.5q-39 -29 -64.5 -44.5t-30.5 -17.5h260v-163h-517v146l253 205q40 32 57 56t17 49q0 32 -19.5 52t-50.5 20q-35 0 -55.5 -24.5t-21.5 -69.5h-181q0 61 18 110.5t52 84
t81.5 53t106.5 18.5z" />
    <glyph glyph-name="three.LT" 
d="M288 421q31 0 50 17.5t19 44.5q0 24 -16.5 41t-46.5 17q-31 0 -48 -22t-18 -57h-175q0 56 17.5 100.5t50 75t77.5 46.5t100 16q52 0 96 -15t76 -41t49.5 -61.5t17.5 -77.5q0 -88 -76 -139q51 -25 77.5 -62.5t26.5 -93.5q0 -50 -19.5 -91t-54.5 -70.5t-83 -46t-106 -16.5
q-59 0 -107.5 17t-83 49t-53 79.5t-18.5 108.5h180q1 -38 23 -63.5t59 -25.5q35 0 56.5 18t21.5 51q0 30 -23 48.5t-65 18.5h-29v134h25v0z" />
    <glyph glyph-name="four.LT" 
d="M17 252l258 434h227v-407h83v-150h-83v-129h-173v129h-312v123zM330 279v222l-122 -222h122z" />
    <glyph glyph-name="five.LT" 
d="M56 314l51 372h411v-156h-273l-13 -88q50 32 114 32q49 0 89.5 -18t69.5 -49t45 -72.5t16 -87.5q0 -56 -20 -104t-55.5 -83t-83.5 -54.5t-104 -19.5q-60 0 -108 16.5t-82.5 46.5t-53.5 72.5t-20 94.5h176q1 -12 7 -23.5t16.5 -21t26 -15.5t35.5 -6q38 0 63 25.5t25 62.5
t-25 61t-63 24q-28 0 -49 -12.5t-32 -30.5z" />
    <glyph glyph-name="six.LT" 
d="M570 246q0 -56 -20.5 -104t-56.5 -82.5t-85 -54t-106 -19.5q-58 0 -107 19.5t-85 53.5t-56 80.5t-20 101.5q0 49 17.5 101t46.5 99l155 245h209l-152 -216q5 2 14.5 4.5t22.5 2.5q49 0 90 -18t70.5 -49t46 -73.5t16.5 -90.5zM394 239q0 19 -7 35.5t-20 29t-30 19.5t-36 7
t-36 -7t-29.5 -19t-19.5 -28.5t-7 -35.5q0 -38 26.5 -64.5t65.5 -26.5q19 0 36 7t30 19t20 28.5t7 35.5z" />
    <glyph glyph-name="seven.LT" 
d="M290 0h-204l264 523h-303v163h513v-131z" />
    <glyph glyph-name="eight.LT" 
d="M300 700q48 0 91 -14t75 -40.5t51 -63t19 -81.5q0 -43 -21.5 -76t-56.5 -54q20 -10 39.5 -25.5t34.5 -36.5t24.5 -46.5t9.5 -55.5q0 -52 -22 -93t-59 -69.5t-85 -43.5t-100 -15t-100 15t-85 43.5t-59 69.5t-22 93q0 30 9.5 55.5t24.5 46.5t34.5 36.5t39.5 25.5
q-35 21 -56.5 54t-21.5 76q0 45 19 81.5t51 63t75 40.5t91 14zM386 217q0 34 -24 57t-62 23t-62 -23t-24 -57q0 -35 24 -58t62 -23t62 23t24 58zM300 554q-30 0 -50.5 -18.5t-20.5 -47.5t20 -47.5t51 -18.5t51 18.5t20 47.5t-20.5 47.5t-50.5 18.5z" />
    <glyph glyph-name="nine.LT" 
d="M29 440q0 56 20.5 104t56.5 82.5t85 54t106 19.5q58 0 107 -19.5t85 -53.5t56 -80.5t20 -101.5q0 -49 -17.5 -101t-46.5 -99l-154 -245h-212l150 213q-9 -5 -35 -5q-49 0 -89.5 18t-70 49.5t-45.5 74t-16 90.5zM205 447q0 -19 7 -35.5t20 -29t29.5 -19.5t36.5 -7
q19 0 36 7t29.5 19t19.5 28.5t7 35.5q0 38 -26.5 64.5t-65.5 26.5q-20 0 -36.5 -7t-29.5 -19t-20 -28.5t-7 -35.5z" />
    <glyph glyph-name="Euro.LT" 
d="M460 228h-160q21 -27 51.5 -42.5t68.5 -15.5q41 0 74 13t65 36v-179q-41 -23 -79 -31.5t-70 -8.5q-56 0 -105.5 16t-90.5 46t-71 72t-46 94h-82v97h66q-1 7 -1 10v8v9t1 12h-66v97h84q17 49 47.5 90.5t71 71t90 46t103.5 16.5q36 0 74 -10t73 -30v-181q-30 24 -63 37.5
t-75 13.5q-37 0 -66.5 -14.5t-50.5 -39.5h156v-97h-195q-1 -2 -1 -6v-15v-13q0 -3 1 -5h196v-97z" />
    <glyph glyph-name="dollar.LT" 
d="M195 245q15 -37 46.5 -58t66.5 -21q25 0 42.5 10t17.5 30q0 14 -11.5 25t-38.5 20l-80 28q-71 25 -116.5 72t-45.5 123q0 40 12.5 74t35.5 60.5t54.5 44.5t70.5 26v97h120v-99q57 -13 103.5 -46.5t73.5 -84.5l-144 -90q-14 29 -37.5 47.5t-54.5 18.5q-24 0 -38 -10.5
t-14 -27.5q0 -16 12 -24.5t31 -16.5l90 -34q82 -30 121 -77t39 -116q0 -43 -14.5 -78t-39 -61.5t-58 -44.5t-70.5 -26v-102h-120v101q-65 12 -119 50.5t-83 101.5z" />
    <glyph glyph-name="cent.LT" 
d="M115 343q0 43 12.5 81.5t36 69.5t56 53t71.5 34v105h116v-96q38 -6 73 -22v-156q-22 14 -42.5 20.5t-43.5 6.5q-43 0 -73 -27t-30 -69t29.5 -69t73.5 -27q23 0 43.5 7t42.5 21v-156q-35 -17 -73 -23v-96h-116v103q-39 11 -71 32.5t-55.5 52t-36.5 70t-13 85.5z" />
    <glyph glyph-name="sterling.LT" 
d="M101 463q0 51 16 93.5t46.5 73t75 47.5t100.5 17q54 0 98 -17.5t75 -48t48 -73t17 -91.5h-177q-1 26 -16 45t-41 19q-29 0 -42.5 -20.5t-13.5 -51.5v-50h137v-144h-137v-15q0 -30 -8 -51.5t-25 -31.5h317v-164h-531v164h6q26 0 40.5 18.5t14.5 62.5v17h-61v144h61v57z
" />
    <glyph glyph-name="florin.LT" 
d="M119 440h109l16 89q17 94 76.5 148t153.5 54q25 0 48 -4t43 -11v-158q-33 14 -66 14q-29 0 -50.5 -14t-26.5 -45l-13 -73h107v-151h-134l-46 -266q-17 -94 -76.5 -148t-153.5 -54q-25 0 -48 4t-43 11v158q33 -14 66 -14q29 0 50.5 14t26.5 45l44 250h-83v151z" />
    <glyph glyph-name="yen.LT" 
d="M50 408h101l-151 277h201l101 -199l101 199h197l-150 -277h101v-113h-159v-46h159v-113h-159v-136h-183v136h-159v113h159v46h-159v113z" />
    <glyph glyph-name="zero.OP" horiz-adv-x="634" 
d="M601 298q0 -71 -21 -128.5t-58.5 -98.5t-90 -63t-114.5 -22t-114.5 22t-90 63t-58.5 98.5t-21 128.5t21 128.5t58.5 98.5t90 63t114.5 22t114.5 -22t90 -63t58.5 -98.5t21 -128.5zM417 298q0 60 -27.5 100t-72.5 40t-72.5 -40t-27.5 -100t27.5 -100t72.5 -40t72.5 40
t27.5 100z" />
    <glyph glyph-name="one.OP" horiz-adv-x="386" 
d="M145 0v428h-115v168h301v-596h-186z" />
    <glyph glyph-name="two.OP" horiz-adv-x="545" 
d="M274 610q52 0 96 -15t75.5 -42t49 -64.5t17.5 -82.5q0 -132 -168 -225q-14 -8 -25 -12.5t-13 -5.5h209v-163h-483v145l158 110q43 30 69.5 50t41.5 35t20.5 27t5.5 25q0 23 -15.5 37.5t-38.5 14.5q-27 0 -43 -20t-17 -55h-181q0 54 17.5 98t49.5 76t76.5 49.5t98.5 17.5z
" />
    <glyph glyph-name="three.OP" horiz-adv-x="586" 
d="M283 331q31 0 50 17.5t19 44.5q0 24 -16.5 41t-46.5 17q-31 0 -48 -22t-18 -57h-175q0 56 17.5 100.5t50 75t77.5 46.5t100 16q52 0 96 -15t76 -41t49.5 -61.5t17.5 -77.5q0 -88 -76 -139q51 -25 77.5 -62.5t26.5 -93.5q0 -50 -19.5 -91t-54.5 -70.5t-83 -46t-106 -16.5
q-59 0 -107.5 17t-83 49t-53 79.5t-18.5 108.5h180q1 -38 23 -63.5t59 -25.5q35 0 56.5 18t21.5 51q0 30 -23 48.5t-65 18.5h-29v134h25v0z" />
    <glyph glyph-name="four.OP" horiz-adv-x="620" 
d="M17 161l264 435h226v-407h96v-150h-96v-129h-173v129h-317v122zM335 189v223l-126 -223h126z" />
    <glyph glyph-name="five.OP" horiz-adv-x="591" 
d="M51 224l51 372h411v-156h-273l-13 -88q50 32 114 32q49 0 89.5 -18t69.5 -49t45 -72.5t16 -87.5q0 -56 -20 -104t-55.5 -83t-83.5 -54.5t-104 -19.5q-60 0 -108 16.5t-82.5 46.5t-53.5 72.5t-20 94.5h176q1 -12 7 -23.5t16.5 -21t26 -15.5t35.5 -6q38 0 63 25.5t25 62.5
t-25 61t-63 24q-28 0 -49 -12.5t-32 -30.5z" />
    <glyph glyph-name="six.OP" horiz-adv-x="601" 
d="M571 246q0 -56 -20.5 -104t-56.5 -82.5t-85 -54t-106 -19.5q-58 0 -107 19.5t-85 53.5t-56 80.5t-20 101.5q0 49 17.5 101t46.5 99l155 245h209l-152 -216q5 2 14.5 4.5t22.5 2.5q49 0 90 -18t70.5 -49t46 -73.5t16.5 -90.5zM395 239q0 19 -7 35.5t-20 29t-30 19.5t-36 7
t-36 -7t-29.5 -19t-19.5 -28.5t-7 -35.5q0 -38 26.5 -64.5t65.5 -26.5q19 0 36 7t30 19t20 28.5t7 35.5z" />
    <glyph glyph-name="seven.OP" horiz-adv-x="563" 
d="M265 -90h-204l264 523h-303v163h513v-131z" />
    <glyph glyph-name="eight.OP" horiz-adv-x="592" 
d="M296 700q48 0 91 -14t75 -40.5t51 -63t19 -81.5q0 -43 -21.5 -76t-56.5 -54q20 -10 39.5 -25.5t34.5 -36.5t24.5 -46.5t9.5 -55.5q0 -52 -22 -93t-59 -69.5t-85 -43.5t-100 -15t-100 15t-85 43.5t-59 69.5t-22 93q0 30 9.5 55.5t24.5 46.5t34.5 36.5t39.5 25.5
q-35 21 -56.5 54t-21.5 76q0 45 19 81.5t51 63t75 40.5t91 14zM382 217q0 34 -24 57t-62 23t-62 -23t-24 -57q0 -35 24 -58t62 -23t62 23t24 58zM296 554q-30 0 -50.5 -18.5t-20.5 -47.5t20 -47.5t51 -18.5t51 18.5t20 47.5t-20.5 47.5t-50.5 18.5z" />
    <glyph glyph-name="nine.OP" horiz-adv-x="603" 
d="M32 350q0 56 20.5 104t56.5 82.5t85 54t106 19.5q58 0 107 -19.5t85 -53.5t56 -80.5t20 -101.5q0 -49 -17.5 -101t-46.5 -99l-154 -245h-212l150 213q-9 -5 -35 -5q-49 0 -89.5 18t-70 49.5t-45.5 74t-16 90.5zM208 357q0 -19 7 -35.5t20 -29t29.5 -19.5t36.5 -7
q19 0 36 7t29.5 19t19.5 28.5t7 35.5q0 38 -26.5 64.5t-65.5 26.5q-20 0 -36.5 -7t-29.5 -19t-20 -28.5t-7 -35.5z" />
    <glyph glyph-name="zero.OT" 
d="M572 298q0 -73 -20 -130.5t-56 -98t-86 -62t-110 -21.5t-110 21.5t-86 62t-56 98t-20 130.5t20 130.5t56 98t86 62t110 21.5t110 -21.5t86 -62t56 -98t20 -130.5zM388 298q0 64 -23 102t-65 38t-65 -38t-23 -102t23 -102t65 -38t65 38t23 102z" />
    <glyph glyph-name="one.OT" 
d="M63 161h159v267h-115v168h301v-435h148v-161h-493v161z" />
    <glyph glyph-name="two.OT" 
d="M301 610q52 0 96 -15t75.5 -42t49 -64.5t17.5 -82.5q0 -132 -168 -225q-14 -8 -24.5 -12.5t-13.5 -5.5h209v-163h-483v145l158 110q43 30 69.5 50t41.5 35t20.5 27t5.5 25q0 23 -15.5 37.5t-38.5 14.5q-27 0 -43 -20t-17 -55h-181q0 54 17.5 98t49.5 76t76.5 49.5
t98.5 17.5z" />
    <glyph glyph-name="three.OT" 
d="M290 331q31 0 50 17.5t19 44.5q0 24 -16.5 41t-46.5 17q-31 0 -48 -22t-18 -57h-175q0 56 17.5 100.5t50 75t77.5 46.5t100 16q52 0 96 -15t76 -41t49.5 -61.5t17.5 -77.5q0 -88 -76 -139q51 -25 77.5 -62.5t26.5 -93.5q0 -50 -19.5 -91t-54.5 -70.5t-83 -46t-106 -16.5
q-59 0 -107.5 17t-83 49t-53 79.5t-18.5 108.5h180q1 -38 23 -63.5t59 -25.5q35 0 56.5 18t21.5 51q0 30 -23 48.5t-65 18.5h-29v134h25v0z" />
    <glyph glyph-name="four.OT" 
d="M16 162l258 434h227v-407h83v-150h-83v-129h-173v129h-312v123zM329 189v222l-122 -222h122z" />
    <glyph glyph-name="five.OT" 
d="M55 224l51 372h411v-156h-273l-13 -88q50 32 114 32q49 0 89.5 -18t69.5 -49t45 -72.5t16 -87.5q0 -56 -20 -104t-55.5 -83t-83.5 -54.5t-104 -19.5q-60 0 -108 16.5t-82.5 46.5t-53.5 72.5t-20 94.5h176q1 -12 7 -23.5t16.5 -21t26 -15.5t35.5 -6q38 0 63 25.5t25 62.5
t-25 61t-63 24q-28 0 -49 -12.5t-32 -30.5z" />
    <glyph glyph-name="six.OT" 
d="M570 246q0 -56 -20.5 -104t-56.5 -82.5t-85 -54t-106 -19.5q-58 0 -107 19.5t-85 53.5t-56 80.5t-20 101.5q0 49 17.5 101t46.5 99l155 245h209l-152 -216q5 2 14.5 4.5t22.5 2.5q49 0 90 -18t70.5 -49t46 -73.5t16.5 -90.5zM394 239q0 19 -7 35.5t-20 29t-30 19.5t-36 7
t-36 -7t-29.5 -19t-19.5 -28.5t-7 -35.5q0 -38 26.5 -64.5t65.5 -26.5q19 0 36 7t30 19t20 28.5t7 35.5z" />
    <glyph glyph-name="seven.OT" 
d="M283 -90h-204l264 523h-303v163h513v-131z" />
    <glyph glyph-name="eight.OT" 
d="M300 700q48 0 91 -14t75 -40.5t51 -63t19 -81.5q0 -43 -21.5 -76t-56.5 -54q20 -10 39.5 -25.5t34.5 -36.5t24.5 -46.5t9.5 -55.5q0 -52 -22 -93t-59 -69.5t-85 -43.5t-100 -15t-100 15t-85 43.5t-59 69.5t-22 93q0 30 9.5 55.5t24.5 46.5t34.5 36.5t39.5 25.5
q-35 21 -56.5 54t-21.5 76q0 45 19 81.5t51 63t75 40.5t91 14zM386 217q0 34 -24 57t-62 23t-62 -23t-24 -57q0 -35 24 -58t62 -23t62 23t24 58zM300 554q-30 0 -50.5 -18.5t-20.5 -47.5t20 -47.5t51 -18.5t51 18.5t20 47.5t-20.5 47.5t-50.5 18.5z" />
    <glyph glyph-name="nine.OT" 
d="M31 350q0 56 20.5 104t56.5 82.5t85 54t106 19.5q58 0 107 -19.5t85 -53.5t56 -80.5t20 -101.5q0 -49 -17.5 -101t-46.5 -99l-154 -245h-212l150 213q-9 -5 -35 -5q-49 0 -89.5 18t-70 49.5t-45.5 74t-16 90.5zM207 357q0 -19 7 -35.5t20 -29t29.5 -19.5t36.5 -7
q19 0 36 7t29.5 19t19.5 28.5t7 35.5q0 38 -26.5 64.5t-65.5 26.5q-20 0 -36.5 -7t-29.5 -19t-20 -28.5t-7 -35.5z" />
    <glyph glyph-name="zero.inf" horiz-adv-x="384" 
d="M351 86q0 -92 -41 -147.5t-118 -55.5t-118 55.5t-41 147.5t41 147.5t118 55.5t118 -55.5t41 -147.5zM232 86q0 48 -10 70.5t-30 22.5t-30 -22.5t-10 -70.5t10 -70.5t30 -22.5t30 22.5t10 70.5z" />
    <glyph glyph-name="one.inf" horiz-adv-x="261" 
d="M87 -108v278h-62v110h186v-388h-124z" />
    <glyph glyph-name="two.inf" horiz-adv-x="359" 
d="M336 -108h-306v97l143 105q21 16 29.5 28.5t8.5 25.5q0 12 -7.5 19.5t-21.5 7.5t-23 -10.5t-10 -28.5h-120q0 69 42 111t110 42q33 0 61.5 -10t48.5 -28t31.5 -42.5t11.5 -53.5q0 -39 -23 -72t-72 -66l-25 -17h122v-108z" />
    <glyph glyph-name="three.inf" horiz-adv-x="367" 
d="M174 133q15 0 24.5 7.5t9.5 21.5q0 10 -8 16.5t-19 6.5q-27 0 -29 -28h-115q0 60 40.5 96t105.5 36q31 0 57.5 -8.5t45.5 -23.5t30 -36t11 -45q0 -46 -43 -77q29 -15 43.5 -36.5t14.5 -51.5q0 -29 -11.5 -52.5t-32 -40t-49.5 -26t-63 -9.5q-72 0 -114 38t-42 103h119
q0 -14 10.5 -24t27.5 -10q15 0 24 8t9 20q0 16 -11 24t-31 8h-18v83h14z" />
    <glyph glyph-name="four.inf" horiz-adv-x="373" 
d="M315 60h45v-97h-45v-71h-117v71h-180v80l146 237h151v-220zM141 60h57v97z" />
    <glyph glyph-name="five.inf" horiz-adv-x="363" 
d="M40 69l29 211h243v-98h-153l-6 -34q22 11 58 11q28 0 51.5 -9.5t40.5 -26.5t27 -40t10 -50q0 -33 -11.5 -60.5t-32 -47.5t-48.5 -31t-61 -11q-70 0 -112.5 36t-44.5 96h116q8 -25 39 -25q15 0 26.5 11t11.5 26q0 18 -10.5 28.5t-27.5 10.5q-23 0 -36 -18z" />
    <glyph glyph-name="six.inf" horiz-adv-x="373" 
d="M346 34q0 -33 -12 -60.5t-33 -48t-50 -31.5t-63 -11q-35 0 -63.5 11t-49.5 31.5t-32.5 48t-11.5 60.5q0 57 36 113l86 133h133l-83 -119q5 1 9.5 1h6.5q26 0 49 -10t40.5 -27.5t27.5 -40.5t10 -50zM231 29q0 18 -12 29.5t-30 11.5t-30 -11.5t-12 -29.5t12 -29.5t30 -11.5
t30 11.5t12 29.5z" />
    <glyph glyph-name="seven.inf" horiz-adv-x="351" 
d="M40 -108l150 281h-167v107h309v-89l-155 -299h-137z" />
    <glyph glyph-name="eight.inf" horiz-adv-x="364" 
d="M182 -117q-34 0 -63 9.5t-50 27t-32.5 41t-11.5 51.5q0 29 17 54.5t44 36.5q-21 12 -32.5 32t-11.5 43q0 24 10.5 44.5t29 35t44.5 23t56 8.5t56 -8.5t44.5 -23t29 -35t10.5 -44.5q0 -23 -11.5 -43t-32.5 -32q27 -11 44 -36.5t17 -54.5q0 -28 -11.5 -51.5t-32.5 -41
t-50 -27t-63 -9.5zM182 -19q17 0 27.5 10.5t10.5 25.5t-10.5 25.5t-27.5 10.5t-27.5 -10.5t-10.5 -25.5t10.5 -25.5t27.5 -10.5zM182 138q14 0 22.5 8t8.5 20t-8.5 20t-22.5 8t-22.5 -8t-8.5 -20t8.5 -20t22.5 -8z" />
    <glyph glyph-name="nine.inf" horiz-adv-x="373" 
d="M27 138q0 33 12 60.5t33 48t50 31.5t63 11t63 -11t50 -31.5t32.5 -48t11.5 -60.5q0 -57 -36 -113l-86 -133h-133l83 118q-5 -1 -9.5 -1h-6.5q-26 0 -49.5 10t-40.5 27.5t-27 41t-10 50.5zM142 143q0 -18 12 -29.5t30 -11.5t30 11.5t12 29.5t-12 29.5t-30 11.5t-30 -11.5
t-12 -29.5z" />
    <glyph glyph-name="plus.inf" horiz-adv-x="344" 
d="M32 136h90v90h100v-90h90v-100h-90v-90h-100v90h-90v100z" />
    <glyph glyph-name="minus.inf" horiz-adv-x="344" 
d="M32 136h280v-100h-280v100z" />
    <glyph glyph-name="equal.inf" horiz-adv-x="344" 
d="M32 69h280v-100h-280v100zM32 204h280v-100h-280v100z" />
    <glyph glyph-name="parenleft.inf" horiz-adv-x="245" 
d="M28 86q0 63 23 125.5t71 111.5h108q-46 -57 -68 -117.5t-22 -119.5q0 -60 22 -120.5t68 -117.5h-108q-48 48 -71 111.5t-23 126.5z" />
    <glyph glyph-name="parenright.inf" horiz-adv-x="245" 
d="M217 86q0 -63 -23 -126.5t-71 -111.5h-108q46 57 68 117.5t22 120.5q0 59 -22 119.5t-68 117.5h108q48 -49 71 -111.5t23 -125.5z" />
    </font>
</defs>
</svg>
