<?xml version="1.0" standalone="no"?>
<!DOCTYPE svg PUBLIC "-//W3C//DTD SVG 1.1//EN" "http://www.w3.org/Graphics/SVG/1.1/DTD/svg11.dtd" >
<svg xmlns="http://www.w3.org/2000/svg" xmlns:xlink="http://www.w3.org/1999/xlink" version="1.1">
<metadata>
Created by FontForge 20200314 at Sat Aug 26 04:39:11 2017
 By Unknown
Copyright (c) 2017 by Josh Finklea. All rights reserved.
</metadata>
<defs>
<font id="CentraNo2-Medium" horiz-adv-x="600" >
  <font-face 
    font-family="Centra No2 Medium"
    font-weight="500"
    font-stretch="normal"
    units-per-em="1000"
    panose-1="0 0 0 0 0 0 0 0 0 0"
    ascent="800"
    descent="-200"
    x-height="490"
    cap-height="700"
    bbox="-209 -251 1178 931"
    underline-thickness="50"
    underline-position="-100"
    unicode-range="U+000D-FB02"
  />
<missing-glyph horiz-adv-x="840" 
d="M70 700h700v-700h-700v700zM140 70h560v560h-560v-560zM233 113l-50 50l188 187l-188 187l50 50l187 -188l187 188l50 -50l-188 -187l188 -187l-50 -50l-187 188z" />
    <glyph glyph-name=".notdef" horiz-adv-x="840" 
d="M70 700h700v-700h-700v700zM140 70h560v560h-560v-560zM233 113l-50 50l188 187l-188 187l50 50l187 -188l187 188l50 -50l-188 -187l188 -187l-50 -50l-187 188z" />
    <glyph glyph-name=".null" horiz-adv-x="0" 
 />
    <glyph glyph-name="nonmarkingreturn" unicode="&#xd;" horiz-adv-x="239" 
 />
    <glyph glyph-name="NULL" horiz-adv-x="0" 
 />
    <glyph glyph-name="NULL" horiz-adv-x="0" 
 />
    <glyph glyph-name="space" unicode=" " horiz-adv-x="239" 
 />
    <glyph glyph-name="exclam" unicode="!" horiz-adv-x="280" 
d="M88 208l-10 492h124l-10 -492h-104zM66 62q0 30 21 51.5t53 21.5t53 -21.5t21 -51.5t-21 -51.5t-53 -21.5t-53 21.5t-21 51.5z" />
    <glyph glyph-name="quotedbl" unicode="&#x22;" horiz-adv-x="379" 
d="M55 417l-13 283h117l-13 -283h-91zM233 417l-13 283h117l-13 -283h-91z" />
    <glyph glyph-name="numbersign" unicode="#" horiz-adv-x="663" 
d="M526 507h101v-85h-113l-21 -152h103v-85h-115l-26 -185h-97l26 185h-151l-26 -185h-96l26 185h-101v85h113l21 152h-103v85h115l26 180h96l-26 -180h151l26 180h97zM245 270h151l21 152h-151z" />
    <glyph glyph-name="dollar" unicode="$" horiz-adv-x="534" 
d="M315 776v-96q56 -11 99 -47t66 -93l-97 -50q-11 26 -28 47t-40 32v-171l26 -10q78 -29 116 -74.5t38 -111.5q0 -41 -14 -75t-38 -59.5t-57 -41.5t-71 -22v-100h-83v100q-69 10 -121 51.5t-76 110.5l100 48q14 -38 38.5 -63.5t58.5 -36.5v195l-15 6q-72 29 -113.5 71
t-41.5 112q0 38 13 70t35.5 56t53.5 39t68 20v93h83zM379 195q0 55 -64 83v-165q28 9 46 29.5t18 52.5zM178 505q0 -25 13.5 -42t40.5 -31v142q-25 -8 -39.5 -26t-14.5 -43z" />
    <glyph glyph-name="percent" unicode="%" horiz-adv-x="820" 
d="M371 533q0 -35 -13 -64.5t-36 -51.5t-53.5 -34.5t-65.5 -12.5t-65.5 12.5t-53.5 34.5t-36 51.5t-13 64.5q0 34 13 63.5t36 51.5t53.5 34.5t65.5 12.5t65.5 -12.5t53.5 -34.5t36 -51.5t13 -63.5zM203 456q32 0 53.5 22t21.5 55q0 32 -21.5 54t-53.5 22t-53.5 -22
t-21.5 -54q0 -33 21.5 -55t53.5 -22zM98 0l508 687h117l-508 -687h-117zM617 -8q-35 0 -65.5 12.5t-53.5 34.5t-36 51.5t-13 63.5t13 64t36 52t53.5 34.5t65.5 12.5t65.5 -12.5t53.5 -34.5t36 -52t13 -64t-13 -63.5t-36 -51.5t-53.5 -34.5t-65.5 -12.5zM617 78q32 0 53.5 22
t21.5 54q0 33 -21.5 55t-53.5 22t-53.5 -22t-21.5 -55q0 -32 21.5 -54t53.5 -22z" />
    <glyph glyph-name="ampersand" unicode="&#x26;" horiz-adv-x="723" 
d="M562 0l-94 95q-50 -55 -106.5 -81t-120.5 -26q-45 0 -82 13.5t-64 38.5t-42 59.5t-15 75.5q0 61 33 111t104 98q-39 40 -56.5 78t-17.5 79q0 36 14 67.5t38.5 55t58.5 36.5t73 13q37 0 69.5 -12.5t56 -34.5t37 -52t13.5 -65q0 -50 -27 -92t-90 -87l120 -120l116 135
l81 -67l-120 -141l178 -177h-157zM254 93q70 0 135 75l1 1l-142 143q-17 -11 -33.5 -24t-30 -29.5t-22 -35.5t-8.5 -40q0 -19 7.5 -35.5t21 -28.5t32 -19t39.5 -7zM211 544q0 -24 14.5 -48.5t46.5 -56.5q44 29 63.5 55.5t19.5 52.5q0 29 -21 49.5t-52 20.5q-29 0 -50 -21.5
t-21 -51.5z" />
    <glyph glyph-name="quotesingle" unicode="'" horiz-adv-x="201" 
d="M55 417l-13 283h117l-13 -283h-91z" />
    <glyph glyph-name="parenleft" unicode="(" horiz-adv-x="336" 
d="M50 294q0 131 43 249.5t120 209.5h115q-81 -104 -122.5 -218.5t-41.5 -240.5t41.5 -240t122.5 -219h-115q-77 91 -120 209.5t-43 249.5z" />
    <glyph glyph-name="parenright" unicode=")" horiz-adv-x="336" 
d="M285 294q0 -131 -42.5 -249.5t-119.5 -209.5h-115q81 104 122 218.5t41 240.5t-41 240t-122 219h115q77 -91 119.5 -209.5t42.5 -249.5z" />
    <glyph glyph-name="asterisk" unicode="*" horiz-adv-x="429" 
d="M214 458l-66 -94l-74 55l68 93l-110 35l27 87l110 -37l-1 116h93l-1 -116l110 37l27 -87l-110 -35l69 -93l-75 -55z" />
    <glyph glyph-name="plus" unicode="+" 
d="M70 382h182v185h96v-185h182v-97h-182v-187h-96v187h-182v97z" />
    <glyph glyph-name="comma" unicode="," horiz-adv-x="268" 
d="M65 -108l56 108h-1q-26 0 -43.5 18.5t-17.5 44.5q0 32 22 53t53 21q32 0 53.5 -21t21.5 -53q0 -17 -5 -34t-16 -37l-50 -100h-73z" />
    <glyph glyph-name="hyphen" unicode="-" horiz-adv-x="424" 
d="M57 317h310v-104h-310v104z" />
    <glyph glyph-name="period" unicode="." horiz-adv-x="268" 
d="M59 63q0 31 21.5 52.5t53.5 21.5t53.5 -21.5t21.5 -52.5t-21.5 -52.5t-53.5 -21.5t-53.5 21.5t-21.5 52.5z" />
    <glyph glyph-name="slash" unicode="/" horiz-adv-x="471" 
d="M101 -100h-115l368 865h115z" />
    <glyph glyph-name="zero" unicode="0" horiz-adv-x="670" 
d="M620 344q0 -70 -18 -134.5t-53.5 -113.5t-89 -78.5t-124.5 -29.5t-124.5 29.5t-89 78.5t-53.5 113.5t-18 134.5t18 134t53.5 113t89 78.5t124.5 29.5t124.5 -29.5t89 -78.5t53.5 -113t18 -134zM501 344q0 46 -10 90t-30 78.5t-51.5 55t-74.5 20.5t-74.5 -20.5t-51.5 -55
t-30 -78.5t-10 -90q0 -47 10 -91t30 -78.5t51.5 -55t74.5 -20.5t74.5 20.5t51.5 55t30 78.5t10 91z" />
    <glyph glyph-name="one" unicode="1" horiz-adv-x="358" 
d="M157 0v577h-121v110h239v-687h-118z" />
    <glyph glyph-name="two" unicode="2" horiz-adv-x="556" 
d="M277 699q50 0 93 -16t74 -44.5t48.5 -68.5t17.5 -87q0 -31 -8 -59.5t-24.5 -56t-42 -56t-61.5 -60.5l-164 -144h307v-107h-476v95l268 241q44 40 63 73t19 67q0 24 -9 44.5t-24 35.5t-36 23.5t-45 8.5q-27 0 -48.5 -10.5t-36.5 -28.5t-23.5 -43t-8.5 -53h-116
q0 55 16.5 100t47.5 77.5t73.5 50.5t95.5 18z" />
    <glyph glyph-name="three" unicode="3" horiz-adv-x="567" 
d="M281 406q21 0 39.5 7.5t32.5 20.5t22 30t8 36q0 39 -28 65t-73 26q-48 0 -77.5 -31.5t-31.5 -80.5h-114q1 50 18 91t46.5 69.5t70.5 44t90 15.5q47 0 87 -14t68.5 -39t44.5 -59t16 -74q0 -48 -23 -86t-66 -61q56 -20 87.5 -64t31.5 -102q0 -47 -18.5 -86t-50.5 -67
t-77 -43.5t-97 -15.5q-55 0 -99.5 16.5t-76 46.5t-49 73.5t-18.5 97.5h115q2 -27 12.5 -49.5t27.5 -39.5t40.5 -26.5t50.5 -9.5q53 0 87 29t34 80q0 48 -37 76.5t-93 28.5h-34v95h34v0z" />
    <glyph glyph-name="four" unicode="4" horiz-adv-x="602" 
d="M24 235l318 451h140v-435h96v-100h-96v-151h-115v151h-343v84zM367 251v300l-212 -300h212z" />
    <glyph glyph-name="five" unicode="5" horiz-adv-x="574" 
d="M59 320l50 367h381v-105h-290l-23 -166q23 23 60 36t77 13q49 0 90.5 -18t71.5 -49t46.5 -72.5t16.5 -88.5q0 -53 -19 -98.5t-53 -79t-79.5 -52.5t-97.5 -19q-54 0 -99.5 16t-78 45.5t-51 70t-19.5 88.5h116q5 -48 39.5 -79.5t91.5 -31.5q28 0 52 10.5t41.5 28.5
t27.5 42.5t10 52.5t-10 52.5t-28 42.5t-42.5 28t-52.5 10q-40 0 -70 -18.5t-51 -47.5z" />
    <glyph glyph-name="six" unicode="6" horiz-adv-x="590" 
d="M552 236q0 -53 -19.5 -98t-54 -78.5t-80.5 -52.5t-100 -19q-55 0 -101.5 19t-80.5 52t-53.5 78t-19.5 98q0 46 17.5 96t55.5 109l161 247h138l-163 -237q25 19 69 19q50 0 92.5 -18.5t73 -50t48 -74t17.5 -90.5zM433 231q0 28 -10.5 52.5t-29 42.5t-43 28.5t-52.5 10.5
q-29 0 -53.5 -10t-43 -28t-29 -42.5t-10.5 -52.5q0 -27 10.5 -51.5t28.5 -42.5t42.5 -28.5t53.5 -10.5q28 0 53 10.5t43.5 28.5t29 42t10.5 51z" />
    <glyph glyph-name="seven" unicode="7" horiz-adv-x="527" 
d="M218 0h-130l275 579h-330v107h466v-87z" />
    <glyph glyph-name="eight" unicode="8" horiz-adv-x="566" 
d="M283 699q44 0 83.5 -13.5t69.5 -38t47.5 -59t17.5 -76.5q0 -52 -27 -89t-65 -53q21 -8 42.5 -23t38.5 -36.5t28 -49.5t11 -62q0 -50 -20.5 -89t-54.5 -66t-78.5 -41.5t-92.5 -14.5t-92.5 14.5t-78.5 41.5t-54.5 66t-20.5 89q0 34 10.5 62t28 49.5t38.5 36.5t42 23
q-37 16 -64 53t-27 89q0 42 17.5 76.5t47.5 59t69.5 38t83.5 13.5zM412 204q0 25 -10 45.5t-27.5 35t-41 22.5t-50.5 8t-50.5 -8t-41.5 -22.5t-28 -35t-10 -45.5t10.5 -46t28 -36t41 -23t50.5 -8t50.5 8t41 23t27.5 36t10 46zM283 598q-21 0 -40.5 -7t-34.5 -19t-23.5 -29
t-8.5 -38t8.5 -38.5t23.5 -29.5t34.5 -18.5t40.5 -6.5t40.5 6.5t34.5 18.5t23.5 29.5t8.5 38.5t-8.5 38t-23.5 29t-34.5 19t-40.5 7z" />
    <glyph glyph-name="nine" unicode="9" horiz-adv-x="590" 
d="M38 451q0 52 19.5 97.5t54 79t80.5 52.5t100 19q55 0 101.5 -19t80.5 -52t53.5 -78t19.5 -98q0 -46 -17.5 -96t-55.5 -109l-161 -247h-138l163 237q-25 -19 -69 -19q-50 0 -92.5 18.5t-73 50t-48 74t-17.5 90.5zM157 456q0 -29 10.5 -53.5t29 -42.5t43 -28t52.5 -10
t53 10t43.5 28t29 42.5t10.5 52.5q0 27 -10.5 51.5t-28.5 42.5t-43 28.5t-53 10.5q-29 0 -53.5 -10.5t-43 -28.5t-29 -42t-10.5 -51z" />
    <glyph glyph-name="colon" unicode=":" horiz-adv-x="268" 
d="M59 411q0 31 21.5 52.5t53.5 21.5t53.5 -21.5t21.5 -52.5t-21.5 -52.5t-53.5 -21.5t-53.5 21.5t-21.5 52.5zM59 63q0 31 21.5 52.5t53.5 21.5t53.5 -21.5t21.5 -52.5t-21.5 -52.5t-53.5 -21.5t-53.5 21.5t-21.5 52.5z" />
    <glyph glyph-name="semicolon" unicode=";" horiz-adv-x="268" 
d="M65 -108l56 108h-1q-26 0 -43.5 18.5t-17.5 44.5q0 32 22 53t53 21q32 0 53.5 -21t21.5 -53q0 -17 -5 -34t-16 -37l-50 -100h-73zM59 411q0 31 21.5 52.5t53.5 21.5t53.5 -21.5t21.5 -52.5t-21.5 -52.5t-53.5 -21.5t-53.5 21.5t-21.5 52.5z" />
    <glyph glyph-name="less" unicode="&#x3c;" 
d="M86 385l428 205v-115l-304 -141l304 -141v-117l-428 205v104z" />
    <glyph glyph-name="equal" unicode="=" 
d="M70 280h460v-96h-460v96zM70 483h460v-96h-460v96z" />
    <glyph glyph-name="greater" unicode="&#x3e;" 
d="M514 281l-428 -205v115l304 141l-304 141v117l428 -205v-104z" />
    <glyph glyph-name="question" unicode="?" horiz-adv-x="537" 
d="M197 62q0 30 21 51.5t53 21.5t53 -21.5t21 -51.5t-21 -51.5t-53 -21.5t-53 21.5t-21 51.5zM499 512q0 -48 -20 -88.5t-65 -79.5q-14 -12 -29 -24.5t-28.5 -26t-22 -29t-8.5 -32.5v-24h-117v35q0 35 24.5 73t71.5 73q75 57 75 114q0 41 -30 69.5t-77 28.5q-48 0 -79.5 -33
t-32.5 -83h-116q0 49 17 91t47.5 72.5t72.5 47.5t92 17q48 0 89.5 -15t71.5 -42t47 -64t17 -80z" />
    <glyph glyph-name="at" unicode="@" horiz-adv-x="863" 
d="M642 68q-47 0 -70.5 20t-29.5 44q-20 -30 -55.5 -48t-79.5 -18q-36 0 -66 13.5t-52 37.5t-34.5 58t-12.5 75q0 42 14.5 79t39 64t58 43t72.5 16q45 0 76 -17t46 -45l6 51h84l-29 -238q-8 -57 34 -57q19 0 35.5 12.5t29 34.5t20 52t7.5 66q0 57 -21 104t-58 80.5t-87 52.5
t-108 19q-68 0 -127 -23t-103.5 -64.5t-70 -99t-25.5 -126.5q0 -71 24 -127.5t65.5 -95.5t97 -60t119.5 -21q65 0 123 17.5t103 49.5l43 -74q-23 -17 -54 -31t-66 -24.5t-73 -16t-76 -5.5q-82 0 -154.5 26t-127 75.5t-86 121t-31.5 163.5q0 88 33.5 161.5t90.5 126.5
t133.5 82t163.5 29q76 0 142.5 -25.5t115.5 -70.5t77.5 -106t28.5 -132q0 -61 -16 -107.5t-42 -78t-59.5 -47.5t-67.5 -16zM423 146q21 0 40.5 9.5t34.5 26.5t24 39.5t9 48.5q0 43 -25 72.5t-69 29.5q-22 0 -41 -9.5t-33.5 -26t-23 -38.5t-8.5 -47q0 -47 27 -76t65 -29z" />
    <glyph glyph-name="A" unicode="A" horiz-adv-x="692" 
d="M397 700l285 -700h-126l-71 177h-282l-70 -177h-123l285 700h102zM242 282h205l-103 260z" />
    <glyph glyph-name="B" unicode="B" horiz-adv-x="622" 
d="M82 700h237q48 0 88.5 -13t70 -37t45.5 -58.5t16 -78.5q0 -48 -21.5 -84t-61.5 -56q61 -20 93 -64t32 -107q0 -47 -17 -84.5t-49 -63.5t-77 -40t-101 -14h-255v700zM332 103q58 0 93 27t35 78q0 49 -35.5 76.5t-93.5 27.5h-131v-209h132zM311 411q49 0 80 24.5t31 69.5
t-31 69t-80 24h-111v-187h111z" />
    <glyph glyph-name="C" unicode="C" horiz-adv-x="643" 
d="M46 350q0 76 28 142.5t76.5 115.5t114.5 77t142 28q51 0 98.5 -14.5t92.5 -42.5v-129q-46 35 -92 52t-98 17q-51 0 -94.5 -19t-75.5 -52t-50 -78t-18 -97q0 -51 18 -95.5t50 -78t75.5 -52.5t94.5 -19t98 17t94 50v-129q-48 -29 -97 -42t-97 -13q-76 0 -141.5 27.5
t-114 76.5t-76.5 115t-28 143z" />
    <glyph glyph-name="D" unicode="D" horiz-adv-x="709" 
d="M663 350q0 -74 -27.5 -138t-75.5 -111t-112 -74t-137 -27h-229v700h229q73 0 137 -27t112 -74t75.5 -111t27.5 -138zM540 350q0 50 -17.5 93.5t-48.5 75.5t-73.5 50.5t-92.5 18.5h-106v-476h106q50 0 92.5 18.5t73.5 50.5t48.5 75.5t17.5 93.5z" />
    <glyph glyph-name="E" unicode="E" horiz-adv-x="535" 
d="M82 700h400v-109h-280v-178h258v-106h-258v-198h282v-109h-402v700z" />
    <glyph glyph-name="F" unicode="F" horiz-adv-x="514" 
d="M202 0h-120v700h391v-109h-271v-178h253v-109h-253v-304z" />
    <glyph glyph-name="G" unicode="G" horiz-adv-x="789" 
d="M608 480q-29 57 -81.5 88t-119.5 31q-50 0 -93.5 -19.5t-76 -53.5t-51 -79t-18.5 -97q0 -51 18.5 -96.5t51 -79.5t76 -53.5t94.5 -19.5q42 0 77.5 13t63 36t45.5 54.5t24 69.5h-228v105h356v-45q0 -73 -25 -136.5t-70 -110t-107 -73t-137 -26.5t-141 28.5t-115 77.5
t-77 115t-28 141t28.5 141t78 115.5t115 78t140.5 28.5q51 0 97.5 -12.5t86 -36t71 -56.5t52.5 -74z" />
    <glyph glyph-name="H" unicode="H" horiz-adv-x="732" 
d="M82 700h120v-283h328v283h120v-700h-120v303h-328v-303h-120v700z" />
    <glyph glyph-name="I" unicode="I" horiz-adv-x="284" 
d="M202 700v-700h-120v700h120z" />
    <glyph glyph-name="J" unicode="J" horiz-adv-x="517" 
d="M444 217q0 -53 -15 -95.5t-43 -72t-68.5 -45.5t-90.5 -16q-76 0 -132 38.5t-82 106.5l102 56q18 -42 46 -65.5t66 -23.5q47 0 72 31t25 87v482h120v-483v0z" />
    <glyph glyph-name="K" unicode="K" horiz-adv-x="644" 
d="M202 408l264 292h146l-293 -320l316 -380h-151l-244 299l-38 -42v-257h-120v700h120v-292z" />
    <glyph glyph-name="L" unicode="L" horiz-adv-x="469" 
d="M202 700v-588h246v-112h-366v700h120z" />
    <glyph glyph-name="M" unicode="M" horiz-adv-x="944" 
d="M862 700v-700h-117v498l-234 -498h-79l-233 497v-497h-117v700h146l246 -531l246 531h142z" />
    <glyph glyph-name="N" unicode="N" horiz-adv-x="774" 
d="M692 700v-700h-117l-377 514v-514h-116v700h122l372 -513v513h116z" />
    <glyph glyph-name="O" unicode="O" horiz-adv-x="818" 
d="M46 350q0 76 28.5 142t77.5 115t115.5 77.5t141.5 28.5t141.5 -28.5t115.5 -77.5t77.5 -115t28.5 -142q0 -75 -28.5 -141t-77.5 -115t-115.5 -77.5t-141.5 -28.5t-141.5 28.5t-115.5 77.5t-77.5 115t-28.5 141zM169 350q0 -51 18.5 -96t51 -78t76 -52.5t94.5 -19.5
t94.5 19.5t76 52.5t51 78t18.5 96t-18.5 96t-51 78.5t-76 53t-94.5 19.5t-94.5 -19.5t-76 -53t-51 -78.5t-18.5 -96z" />
    <glyph glyph-name="P" unicode="P" horiz-adv-x="575" 
d="M309 700q54 0 98.5 -14.5t76.5 -41.5t49.5 -67t17.5 -91t-17.5 -90.5t-49.5 -66.5t-76.5 -41.5t-98.5 -14.5h-107v-273h-120v700h227zM202 380h109q53 0 86.5 27.5t33.5 78.5t-33.5 78.5t-86.5 27.5h-109v-212z" />
    <glyph glyph-name="Q" unicode="Q" horiz-adv-x="818" 
d="M697 -16l-80 69q-45 -31 -97.5 -48t-110.5 -17q-75 0 -141.5 28.5t-115.5 77.5t-77.5 115t-28.5 141q0 76 28.5 142t77.5 115t115.5 77.5t141.5 28.5t141.5 -28.5t115.5 -77.5t77.5 -115t28.5 -142q0 -64 -21 -121t-57 -104l72 -61zM167 350q0 -51 18.5 -96.5t51.5 -79
t77 -53t95 -19.5q32 0 61 8t55 22l-71 61l69 78l81 -69q22 31 34.5 68.5t12.5 79.5q0 52 -18.5 97t-51.5 79t-77 53.5t-95 19.5t-95 -19.5t-77 -53.5t-51.5 -79t-18.5 -97z" />
    <glyph glyph-name="R" unicode="R" horiz-adv-x="605" 
d="M201 0h-119v700h219q53 0 97 -14t76 -41.5t49.5 -67t17.5 -90.5q0 -78 -44 -129t-114 -71l206 -287h-141l-193 277h-54v-277zM201 378h100q53 0 86.5 28.5t33.5 79.5t-33.5 78.5t-86.5 27.5h-100v-214z" />
    <glyph glyph-name="S" unicode="S" horiz-adv-x="556" 
d="M139 213q19 -51 56.5 -81.5t90.5 -30.5q45 0 78 23.5t33 68.5q0 65 -88 97l-83 30q-78 28 -121 75t-43 119q0 45 16.5 82t46 63t69 40t85.5 14q76 -1 136 -41.5t89 -113.5l-103 -52q-16 40 -46 67.5t-75 27.5q-42 0 -69 -22t-27 -58q0 -32 22 -52.5t65 -37.5l86 -33
q82 -32 122.5 -79.5t40.5 -117.5q0 -50 -19 -89.5t-51 -67t-75 -42t-91 -14.5q-88 0 -155 45.5t-96 129.5z" />
    <glyph glyph-name="T" unicode="T" horiz-adv-x="547" 
d="M19 700h509v-111h-194v-589h-121v589h-194v111z" />
    <glyph glyph-name="U" unicode="U" horiz-adv-x="694" 
d="M347 -12q-65 0 -116 21t-86 59t-53.5 91.5t-18.5 118.5v422h120v-417q0 -81 39.5 -130t114.5 -49t114.5 49t39.5 130v417h120v-422q0 -65 -18.5 -118.5t-53.5 -91.5t-86 -59t-116 -21z" />
    <glyph glyph-name="V" unicode="V" horiz-adv-x="652" 
d="M280 0l-271 700h127l192 -511l191 511h124l-271 -700h-92z" />
    <glyph glyph-name="W" unicode="W" horiz-adv-x="1012" 
d="M249 0l-238 700h124l161 -499l167 499h88l166 -499l162 499h122l-239 -700h-90l-167 500l-166 -500h-90z" />
    <glyph glyph-name="X" unicode="X" horiz-adv-x="642" 
d="M161 700l160 -246l162 246h135l-227 -339l243 -361h-139l-175 268l-177 -268h-135l242 360l-227 340h138z" />
    <glyph glyph-name="Y" unicode="Y" horiz-adv-x="641" 
d="M381 0h-120v308l-253 392h138l176 -281l176 281h135l-252 -392v-308z" />
    <glyph glyph-name="Z" unicode="Z" horiz-adv-x="611" 
d="M196 108h382v-108h-546v78l378 514h-354v108h518v-78z" />
    <glyph glyph-name="bracketleft" unicode="[" horiz-adv-x="341" 
d="M72 753h246v-93h-137v-732h137v-93h-246v918z" />
    <glyph glyph-name="backslash" unicode="\" horiz-adv-x="471" 
d="M2 765h115l368 -865h-115z" />
    <glyph glyph-name="bracketright" unicode="]" horiz-adv-x="341" 
d="M269 -165h-246v93h137v732h-137v93h246v-918z" />
    <glyph glyph-name="asciicircum" unicode="^" horiz-adv-x="477" 
d="M443 393h-109l-96 191l-96 -191h-108l159 307h91z" />
    <glyph glyph-name="underscore" unicode="_" horiz-adv-x="502" 
d="M16 -42h470v-92h-470v92z" />
    <glyph glyph-name="grave" unicode="`" horiz-adv-x="500" 
d="M238 575l-121 143h127l95 -143h-101z" />
    <glyph glyph-name="a" unicode="a" horiz-adv-x="632" 
d="M559 490v-490h-114v71q-27 -38 -71 -60.5t-95 -22.5t-94.5 20t-75.5 54.5t-50.5 81.5t-18.5 101t18.5 101t50.5 81.5t75.5 54.5t94.5 20t95 -20.5t71 -58.5v67h114zM156 245q0 -32 11.5 -59.5t31 -48t46.5 -32.5t58 -12t58 12t46.5 32.5t31 48t11.5 59.5t-11.5 59.5
t-31 48t-46.5 32.5t-58 12t-58 -12t-46.5 -32.5t-31 -48t-11.5 -59.5z" />
    <glyph glyph-name="b" unicode="b" horiz-adv-x="632" 
d="M72 0v700h115v-280q27 38 71 60t95 22t94.5 -19.5t75.5 -54t50.5 -81.5t18.5 -102q0 -54 -18.5 -101t-50.5 -81.5t-75.5 -54.5t-94.5 -20t-95 20.5t-71 58.5v-67h-115zM476 245q0 32 -11.5 59.5t-31 48t-46.5 32.5t-58 12t-58 -12t-46.5 -32.5t-31 -48t-11.5 -59.5
t11.5 -59.5t31 -48t46.5 -32.5t58 -12t58 12t46.5 32.5t31 48t11.5 59.5z" />
    <glyph glyph-name="c" unicode="c" horiz-adv-x="472" 
d="M40 245q0 55 19 102t53.5 81.5t82 54t104.5 19.5q73 0 131 -35v-115q-58 44 -121 44q-33 0 -60.5 -11.5t-48 -32t-32 -48t-11.5 -59.5t11.5 -59.5t31.5 -48t48 -32t61 -11.5q35 0 66 13t57 31v-115q-62 -35 -134 -35q-57 0 -104.5 19t-81.5 53.5t-53 81.5t-19 103z" />
    <glyph glyph-name="d" unicode="d" horiz-adv-x="632" 
d="M445 0v70q-27 -38 -71 -60t-95 -22t-94.5 19.5t-75.5 54t-50.5 81.5t-18.5 102q0 54 18.5 101t50.5 81.5t75.5 54.5t94.5 20t95 -20.5t71 -58.5v277h115v-700h-115zM156 245q0 -32 11.5 -59.5t31 -48t46.5 -32.5t58 -12t58 12t46.5 32.5t31 48t11.5 59.5t-11.5 59.5
t-31 48t-46.5 32.5t-58 12t-58 -12t-46.5 -32.5t-31 -48t-11.5 -59.5z" />
    <glyph glyph-name="e" unicode="e" horiz-adv-x="568" 
d="M516 115q-31 -58 -87 -92.5t-134 -34.5q-56 0 -103 19t-80.5 53t-52.5 81t-19 104q0 55 19 102t52.5 81.5t79 54t98.5 19.5q54 0 98.5 -19.5t77 -54t50.5 -81.5t18 -102q0 -14 -1 -35h-377q2 -27 14 -49.5t31 -39t44 -26t52 -9.5q48 0 76 21t49 53zM418 294q-3 24 -14 45
t-28 36t-40 23.5t-49 8.5t-48.5 -10t-40 -25.5t-28.5 -36t-14 -41.5h262z" />
    <glyph glyph-name="f" unicode="f" horiz-adv-x="363" 
d="M211 490h132v-98h-132v-392h-116v392h-73v98h73v29q0 49 13.5 86t38.5 62t59 38t76 13q25 0 43.5 -4t31.5 -10v-102q-11 6 -25.5 10t-32.5 4q-38 0 -63 -22t-25 -74v-30z" />
    <glyph glyph-name="g" unicode="g" horiz-adv-x="622" 
d="M436 84q-25 -35 -67.5 -57t-93.5 -22q-50 0 -93 19t-74.5 52t-49.5 78t-18 98t18 98.5t49.5 79.5t74.5 53t93 19q51 0 93.5 -21t67.5 -57v66h114v-460q0 -57 -17.5 -104t-50.5 -80.5t-80.5 -52t-107.5 -18.5q-82 0 -143.5 34t-93.5 95l92 58q23 -42 60.5 -64t84.5 -22
q66 0 104 40.5t38 112.5v55zM441 252q0 30 -11 57t-30 46.5t-45 31t-56 11.5t-56 -11.5t-45 -31t-30 -46.5t-11 -57q0 -31 11 -57.5t30 -46.5t45 -31.5t56 -11.5t56 11.5t45 31.5t30 46.5t11 57.5z" />
    <glyph glyph-name="h" unicode="h" horiz-adv-x="594" 
d="M188 0h-116v700h116v-275q23 35 60.5 56t89.5 21q90 0 140 -55.5t50 -151.5v-295h-116v273q0 57 -28 89.5t-81 32.5q-52 0 -83.5 -37t-31.5 -100v-258z" />
    <glyph glyph-name="i" unicode="i" horiz-adv-x="260" 
d="M72 0v490h116v-490h-116zM201 633q0 -29 -20.5 -50t-51.5 -21q-29 0 -50 21t-21 50q0 30 21 51t50 21q31 0 51.5 -21.5t20.5 -50.5z" />
    <glyph glyph-name="j" unicode="j" horiz-adv-x="263" 
d="M75 490h116v-521q0 -95 -45.5 -143t-122.5 -48q-23 0 -38.5 3.5t-27.5 8.5v101q18 -9 46 -9q34 0 53 23.5t19 67.5v517zM204 633q0 -29 -20.5 -50t-51.5 -21q-29 0 -50 21t-21 50q0 30 21 51t50 21q31 0 51.5 -21.5t20.5 -50.5z" />
    <glyph glyph-name="k" unicode="k" horiz-adv-x="536" 
d="M513 490l-213 -213l229 -277h-142l-175 217l-25 -23v-194h-115v700h115v-395l184 185h142z" />
    <glyph glyph-name="l" unicode="l" horiz-adv-x="260" 
d="M188 700v-700h-116v700h116z" />
    <glyph glyph-name="m" unicode="m" horiz-adv-x="884" 
d="M188 0h-116v490h116v-65q20 35 55 56t85 21q53 0 91 -24t58 -67q10 18 25.5 34t35.5 29t45.5 20.5t56.5 7.5q85 0 131.5 -54.5t46.5 -146.5v-301h-116v279q0 54 -24 85.5t-70 31.5q-47 0 -75.5 -35.5t-29.5 -95.5v-265h-116v275q0 57 -24 89t-70 32q-48 0 -76.5 -36.5
t-28.5 -99.5v-260z" />
    <glyph glyph-name="n" unicode="n" horiz-adv-x="594" 
d="M188 0h-116v490h116v-65q23 35 60.5 56t89.5 21q90 0 140 -55.5t50 -151.5v-295h-116v273q0 57 -28 89.5t-81 32.5q-52 0 -83.5 -37t-31.5 -100v-258z" />
    <glyph glyph-name="o" unicode="o" horiz-adv-x="602" 
d="M301 502q56 0 104 -20t83 -54.5t54.5 -81.5t19.5 -101t-19.5 -101t-54.5 -81.5t-83 -54.5t-104 -20t-104 20t-83 54.5t-54.5 81.5t-19.5 101t19.5 101t54.5 81.5t83 54.5t104 20zM301 396q-31 0 -57.5 -12t-46 -32t-31 -48t-11.5 -59q0 -32 11.5 -59.5t31 -47.5t46 -32
t57.5 -12t57.5 12t46 32t31 47.5t11.5 59.5q0 31 -11.5 59t-31 48t-46 32t-57.5 12z" />
    <glyph glyph-name="p" unicode="p" horiz-adv-x="632" 
d="M187 490v-70q27 38 71 60t95 22t94.5 -19.5t75.5 -54t50.5 -81.5t18.5 -102q0 -54 -18.5 -101t-50.5 -81.5t-75.5 -54.5t-94.5 -20t-95 20.5t-71 58.5v-275h-115v698h115zM476 245q0 32 -11.5 59.5t-31 48t-46.5 32.5t-58 12t-58 -12t-46.5 -32.5t-31 -48t-11.5 -59.5
t11.5 -59.5t31 -48t46.5 -32.5t58 -12t58 12t46.5 32.5t31 48t11.5 59.5z" />
    <glyph glyph-name="q" unicode="q" horiz-adv-x="632" 
d="M560 490v-698h-115v278q-26 -38 -70 -60t-96 -22q-51 0 -94.5 20t-75.5 54.5t-50.5 81.5t-18.5 101t18.5 101t50.5 81.5t75.5 54.5t94.5 20q52 0 95.5 -20.5t70.5 -58.5v67h115zM156 245q0 -32 11.5 -59.5t31 -48t46.5 -32.5t58 -12t58 12t46.5 32.5t31 48t11.5 59.5
t-11.5 59.5t-31 48t-46.5 32.5t-58 12t-58 -12t-46.5 -32.5t-31 -48t-11.5 -59.5z" />
    <glyph glyph-name="r" unicode="r" horiz-adv-x="378" 
d="M354 379q-8 4 -30 4q-64 0 -100.5 -45.5t-36.5 -121.5v-216h-115v490h114v-84q18 43 58 68.5t88 25.5q19 0 22 -3v-118z" />
    <glyph glyph-name="s" unicode="s" horiz-adv-x="429" 
d="M122 162q13 -34 39 -54.5t59 -20.5q27 0 46.5 12.5t19.5 38.5q0 20 -13.5 32t-42.5 21l-59 19q-125 40 -125 142q0 34 13.5 62t36.5 47.5t53.5 30t65.5 10.5q60 0 107.5 -30t70.5 -81l-93 -50q-14 29 -35.5 47t-49.5 18q-25 0 -42 -12t-17 -33q0 -35 55 -53l58 -19
q69 -23 99 -58.5t30 -84.5q0 -38 -14.5 -67t-39.5 -49.5t-57.5 -31t-68.5 -10.5q-69 0 -119 34t-71 91z" />
    <glyph glyph-name="t" unicode="t" horiz-adv-x="368" 
d="M208 635v-145h130v-98h-130v-220q0 -41 18.5 -59.5t57.5 -18.5q14 0 28.5 3.5t25.5 11.5v-103q-14 -8 -36 -13t-52 -5q-74 0 -115.5 43t-41.5 120v241h-73v98h73v145h115z" />
    <glyph glyph-name="u" unicode="u" horiz-adv-x="590" 
d="M402 490h116v-490h-116v65q-23 -35 -60.5 -56t-88.5 -21q-88 0 -137.5 55.5t-49.5 151.5v295h116v-273q0 -57 27.5 -89.5t78.5 -32.5q52 0 83 37t31 100v258z" />
    <glyph glyph-name="v" unicode="v" horiz-adv-x="534" 
d="M14 490h123l131 -340l132 340h120l-202 -490h-102z" />
    <glyph glyph-name="w" unicode="w" horiz-adv-x="808" 
d="M519 0l-115 331l-116 -331h-93l-178 490h119l112 -332l115 332h85l115 -332l112 332h116l-178 -490h-94z" />
    <glyph glyph-name="x" unicode="x" horiz-adv-x="528" 
d="M262 168l-119 -168h-129l182 249l-174 241h133l110 -157l111 157h131l-175 -238l182 -252h-134z" />
    <glyph glyph-name="y" unicode="y" horiz-adv-x="542" 
d="M116 -222q-23 0 -39.5 4.5t-28.5 9.5v99q23 -10 51 -10q31 0 52 16.5t38 58.5l21 51l-196 483h123l134 -353l138 353h119l-227 -549q-36 -87 -79.5 -125t-105.5 -38z" />
    <glyph glyph-name="z" unicode="z" horiz-adv-x="469" 
d="M439 420l-261 -323h265v-97h-416v72l259 321h-243v97h396v-70z" />
    <glyph glyph-name="braceleft" unicode="{" horiz-adv-x="369" 
d="M108 564q-5 102 43 145.5t140 43.5q19 0 48 -3v-86q-23 2 -31 2q-45 0 -70 -23t-22 -82l6 -133q2 -53 -17.5 -83.5t-63.5 -49.5q45 -20 64 -51.5t17 -83.5l-6 -134q-2 -59 22.5 -81.5t69.5 -22.5h31v-85q-29 -3 -48 -3q-46 0 -81.5 10.5t-58.5 33t-34 58.5t-9 86l6 135
q2 45 -22 66.5t-60 26.5v87q37 5 60.5 26.5t21.5 66.5z" />
    <glyph glyph-name="bar" unicode="|" horiz-adv-x="283" 
d="M87 -156v921h109v-921h-109z" />
    <glyph glyph-name="braceright" unicode="}" horiz-adv-x="369" 
d="M261 23q4 -101 -43.5 -145t-139.5 -44q-19 0 -48 3v86q15 -1 31 -1q45 0 70 22.5t22 81.5l-5 134q-2 52 17 82.5t63 50.5q-44 20 -63 51.5t-17 83.5l5 133q3 59 -22 82t-70 23q-14 0 -31 -1v85q29 3 48 3q92 0 139.5 -43.5t43.5 -144.5l-5 -135q-2 -45 22 -66.5t60 -26.5
v-86q-37 -5 -60.5 -27t-21.5 -67z" />
    <glyph glyph-name="asciitilde" unicode="~" horiz-adv-x="522" 
d="M42 198q0 34 10.5 60t28.5 44t42.5 27t52.5 9q38 0 60.5 -9t38.5 -20.5t29.5 -20.5t33.5 -9q23 0 37 15.5t15 38.5h91q0 -34 -10.5 -60t-28.5 -44t-42.5 -27t-52.5 -9q-38 0 -61 9t-39 20.5t-29.5 20.5t-32.5 9q-23 0 -37 -15.5t-15 -38.5h-91z" />
    <glyph glyph-name="nonbreakingspace" unicode="&#xa0;" horiz-adv-x="239" 
 />
    <glyph glyph-name="exclamdown" unicode="&#xa1;" horiz-adv-x="280" 
d="M192 283l10 -491h-124l10 491h104zM66 429q0 30 21 51.5t53 21.5t53 -21.5t21 -51.5t-21 -51.5t-53 -21.5t-53 21.5t-21 51.5z" />
    <glyph glyph-name="cent" unicode="&#xa2;" horiz-adv-x="459" 
d="M315 199q29 3 54.5 14.5t48.5 27.5v-110q-49 -27 -103 -32v-102h-81v106q-44 8 -79 29t-60.5 52.5t-39 71.5t-13.5 87q0 45 14 84.5t39 71t60.5 53t78.5 30.5v105h81v-100q27 -3 52.5 -10.5t48.5 -21.5v-110q-49 37 -101 41v-287zM234 473q-37 -17 -58.5 -51.5
t-21.5 -78.5t21.5 -78.5t58.5 -51.5v260z" />
    <glyph glyph-name="sterling" unicode="&#xa3;" 
d="M126 461q0 51 14.5 93t42.5 72t68.5 46.5t93.5 16.5q49 0 89.5 -16.5t69.5 -45.5t44.5 -68t15.5 -83h-114q0 21 -7 40t-20.5 33.5t-32.5 23t-42 8.5q-53 0 -78 -33.5t-25 -90.5v-75h166v-97h-166v-90q0 -36 -9.5 -58t-23.5 -30h345v-107h-503v107h16q24 0 40 19.5
t16 67.5v91h-72v97h72v79z" />
    <glyph glyph-name="currency" unicode="&#xa4;" 
d="M538 332q0 -37 -11 -70t-31 -61l74 -74l-66 -65l-76 76q-28 -17 -60.5 -26.5t-67.5 -9.5t-67.5 9.5t-60.5 26.5l-76 -76l-65 65l73 73q-20 28 -31 61t-11 71q0 37 10.5 70t30.5 61l-73 74l66 65l76 -76q28 17 60.5 26.5t67.5 9.5q70 0 129 -36l76 76l65 -65l-74 -74
q20 -28 31 -61t11 -70zM432 332q0 28 -10.5 52t-28.5 41.5t-42 27.5t-51 10t-51 -10t-42 -27.5t-28.5 -41.5t-10.5 -52t10.5 -52t28.5 -41.5t42 -27.5t51 -10t51 10t42 27.5t28.5 41.5t10.5 52z" />
    <glyph glyph-name="yen" unicode="&#xa5;" horiz-adv-x="627" 
d="M83 383h125l-193 301h133l166 -266l168 266h130l-193 -301h127v-82h-174v-54h174v-83h-174v-164h-116v164h-173v83h173v54h-173v82z" />
    <glyph glyph-name="brokenbar" unicode="&#xa6;" horiz-adv-x="283" 
d="M87 385v380h109v-380h-109zM196 228v-384h-109v384h109z" />
    <glyph glyph-name="section" unicode="&#xa7;" horiz-adv-x="496" 
d="M461 290q0 -39 -24 -71.5t-66 -50.5q31 -21 48.5 -53t17.5 -70q0 -36 -14 -66t-39.5 -52t-60 -34.5t-76.5 -12.5q-40 0 -74.5 12.5t-59.5 35t-40 53.5t-16 69h101q4 -35 29 -57.5t60 -22.5q38 0 61 21t23 53q0 23 -15 40t-42 28l-89 34q-75 29 -112.5 65.5t-37.5 91.5
q0 38 23.5 70.5t66.5 50.5q-32 21 -49 53.5t-17 70.5q0 36 14 66t39.5 52t60 34.5t76.5 12.5q40 0 74.5 -12.5t59.5 -35t40 -53.5t16 -69h-101q-4 35 -29 57.5t-60 22.5q-38 0 -61 -21t-23 -53q0 -23 15 -40t42 -28l89 -34q75 -29 112.5 -65.5t37.5 -91.5zM211 384
q-30 -6 -50 -25t-20 -47q0 -52 84 -82l60 -21q30 6 50 25t20 47q0 52 -84 82z" />
    <glyph glyph-name="dieresis" unicode="&#xa8;" horiz-adv-x="500" 
d="M216 633q0 -25 -18.5 -43.5t-44.5 -18.5q-25 0 -43 18t-18 44t18 44t43 18q27 0 45 -18.5t18 -43.5zM407 633q0 -25 -18 -43.5t-44 -18.5t-44 18t-18 44t18 44t44 18t44 -18.5t18 -43.5z" />
    <glyph glyph-name="copyright" unicode="&#xa9;" horiz-adv-x="808" 
d="M234 349q0 39 14 73t39.5 59t60.5 39.5t77 14.5q53 0 94 -27v-85q-22 14 -43.5 21.5t-45.5 7.5q-45 0 -74.5 -29.5t-29.5 -73.5q0 -21 8 -39.5t22 -32t33 -21.5t41 -8q26 0 48 8.5t42 20.5v-85q-44 -27 -95 -27q-42 0 -77 14t-60.5 39t-39.5 58.5t-14 72.5zM762 350
q0 -75 -28 -141t-77 -115t-114 -77.5t-139 -28.5t-139 28.5t-114 77.5t-77 115t-28 141t28 141t77 115.5t114 78t139 28.5t139 -28.5t114 -78t77 -115.5t28 -141zM669 350q0 57 -20.5 107t-56.5 87.5t-84.5 59t-103.5 21.5t-103.5 -21.5t-84.5 -59t-56.5 -87.5t-20.5 -107
q0 -56 20.5 -106t56.5 -87.5t84.5 -59t103.5 -21.5t103.5 21.5t84.5 59t56.5 87.5t20.5 106z" />
    <glyph glyph-name="ordfeminine" unicode="&#xaa;" horiz-adv-x="492" 
d="M429 667v-368h-92v52q-19 -28 -52 -44.5t-72 -16.5q-38 0 -70.5 14.5t-56.5 40.5t-38 61.5t-14 76.5t14 76.5t38 61t56.5 40t70.5 14.5q40 0 72.5 -15t51.5 -41v48h92zM233 374q22 0 42 8.5t34 23t22.5 34.5t8.5 43t-8.5 43t-22.5 34.5t-34 23t-42 8.5q-46 0 -76.5 -31.5
t-30.5 -77.5t30.5 -77.5t76.5 -31.5z" />
    <glyph glyph-name="guillemotleft" unicode="&#xab;" horiz-adv-x="499" 
d="M40 264l133 202h109l-132 -202l133 -202h-111zM232 264l133 202h109l-132 -202l133 -202h-111z" />
    <glyph glyph-name="logicalnot" unicode="&#xac;" 
d="M70 465h460v-263h-97v167h-363v96z" />
    <glyph glyph-name="registered" unicode="&#xae;" horiz-adv-x="810" 
d="M763 350q0 -75 -28 -141t-77 -115t-114 -77.5t-139 -28.5t-139 28.5t-114 77.5t-77 115t-28 141t28 141t77 115.5t114 78t139 28.5t139 -28.5t114 -78t77 -115.5t28 -141zM670 350q0 57 -20.5 107t-56.5 87.5t-84.5 59t-103.5 21.5t-103.5 -21.5t-84.5 -59t-56.5 -87.5
t-20.5 -107q0 -56 20.5 -106t56.5 -87.5t84.5 -59t103.5 -21.5t103.5 21.5t84.5 59t56.5 87.5t20.5 106zM542 411q0 -33 -17.5 -59t-48.5 -41l88 -136h-99l-73 119h-23v-119h-85v350h129q57 0 93 -30t36 -84zM455 409q0 20 -14 30.5t-34 10.5h-38v-83h38q20 0 34 11t14 31z
" />
    <glyph glyph-name="macron" unicode="&#xaf;" horiz-adv-x="500" 
d="M106 590v77h288v-77h-288z" />
    <glyph glyph-name="degree" unicode="&#xb0;" horiz-adv-x="414" 
d="M50 548q0 32 12.5 59.5t33.5 48t49.5 32t61.5 11.5t61.5 -11.5t49.5 -32t33.5 -48t12.5 -59.5t-12.5 -59.5t-33.5 -48t-49.5 -32t-61.5 -11.5t-61.5 11.5t-49.5 32t-33.5 48t-12.5 59.5zM138 548q0 -30 20 -50t49 -20t49 20t20 50t-20 50t-49 20t-49 -20t-20 -50z" />
    <glyph glyph-name="plusminus" unicode="&#xb1;" 
d="M70 480h182v172h96v-172h182v-95h-182v-170h-96v170h-182v95zM70 140h460v-95h-460v95z" />
    <glyph glyph-name="twosuperior" unicode="&#xb2;" horiz-adv-x="342" 
d="M317 299h-286v68l145 118q52 42 52 78q0 24 -14.5 38t-39.5 14q-26 0 -41.5 -17.5t-16.5 -46.5h-84q0 32 10.5 58.5t29 45.5t44.5 29.5t57 10.5q62 0 101.5 -35t39.5 -92q0 -38 -21 -70.5t-69 -70.5l-64 -51h157v-77z" />
    <glyph glyph-name="threesuperior" unicode="&#xb3;" horiz-adv-x="346" 
d="M170 533q23 0 38 12.5t15 31.5q0 18 -14 30t-35 12q-23 0 -37 -14t-15 -34h-82q0 27 10 50t28 39.5t43 25.5t54 9q28 0 52.5 -8t42 -22.5t27.5 -34.5t10 -43q0 -52 -49 -81q32 -13 48.5 -36.5t16.5 -55.5q0 -27 -11 -49.5t-30.5 -39t-46 -25.5t-58.5 -9q-65 0 -105.5 36
t-40.5 96h86q0 -24 17 -39t44 -15q26 0 42.5 14t16.5 35q0 23 -18 36.5t-48 13.5h-19v65h18z" />
    <glyph glyph-name="acute" unicode="&#xb4;" horiz-adv-x="500" 
d="M159 575l96 143h127l-121 -143h-102z" />
    <glyph glyph-name="uni00B5" unicode="&#xb5;" horiz-adv-x="596" 
d="M188 490v-273q0 -57 27.5 -89.5t78.5 -32.5q52 0 83 37t31 100v258h116v-490h-116v65q-23 -35 -60.5 -56t-88.5 -21q-37 0 -71 13v-209h-116v698h116z" />
    <glyph glyph-name="paragraph" unicode="&#xb6;" horiz-adv-x="611" 
d="M514 614v-722h-91v722h-101v-722h-91v425h-8q-43 0 -80 13.5t-64 38t-42 60t-15 80.5t15.5 80.5t42.5 60t65 37.5t83 13h356v-86h-70z" />
    <glyph glyph-name="periodcentered" unicode="&#xb7;" horiz-adv-x="267" 
d="M59 264q0 31 21.5 52.5t53.5 21.5t53.5 -21.5t21.5 -52.5t-21.5 -52.5t-53.5 -21.5t-53.5 21.5t-21.5 52.5z" />
    <glyph glyph-name="cedilla" unicode="&#xb8;" horiz-adv-x="500" 
d="M261 -47q38 0 63 -24t25 -61q0 -41 -28.5 -67t-72.5 -26q-42 0 -69 24t-32 59h70q2 -8 10 -16t22 -8q15 0 24 9t9 23t-9 22.5t-23 8.5q-17 0 -29 -14l-59 32l36 85h68l-24 -50q3 2 8.5 2.5t10.5 0.5z" />
    <glyph glyph-name="onesuperior" unicode="&#xb9;" horiz-adv-x="239" 
d="M93 299v308h-67v80h154v-388h-87z" />
    <glyph glyph-name="ordmasculine" unicode="&#xba;" horiz-adv-x="459" 
d="M230 676q40 0 76 -15t62 -41t41.5 -61.5t15.5 -75.5q0 -41 -15.5 -76t-41.5 -61t-62 -41t-76 -15q-41 0 -76.5 15t-62 41t-42 61t-15.5 76q0 40 15.5 75.5t42 61.5t62 41t76.5 15zM230 591q-22 0 -41 -8.5t-33 -23t-22 -34.5t-8 -42q0 -23 8 -42.5t22 -34t33 -23t41 -8.5
q21 0 40 8.5t33.5 23t22.5 34t8 42.5q0 22 -8 42t-22.5 34.5t-33.5 23t-40 8.5z" />
    <glyph glyph-name="guillemotright" unicode="&#xbb;" horiz-adv-x="499" 
d="M459 264l-133 -202h-109l132 202l-133 202h111zM267 264l-133 -202h-109l132 202l-133 202h111z" />
    <glyph glyph-name="onequarter" unicode="&#xbc;" horiz-adv-x="762" 
d="M93 299v308h-67v80h154v-388h-87zM157 0h-107l507 687h108zM700 153h47v-73h-47v-80h-84v80h-189v61l168 247h105v-235zM521 153h95v140z" />
    <glyph glyph-name="onehalf" unicode="&#xbd;" horiz-adv-x="797" 
d="M93 299v308h-67v80h154v-388h-87zM157 0h-107l507 687h108zM772 0h-286v68l145 118q52 42 52 78q0 24 -14.5 38t-39.5 14q-26 0 -41.5 -17.5t-16.5 -46.5h-84q0 32 10.5 58.5t29 45.5t44.5 29.5t57 10.5q62 0 101.5 -35t39.5 -92q0 -38 -21 -70.5t-69 -70.5l-64 -51h157
v-77z" />
    <glyph glyph-name="threequarters" unicode="&#xbe;" horiz-adv-x="852" 
d="M170 533q23 0 38 12.5t15 31.5q0 18 -14 30t-35 12q-23 0 -37 -14t-15 -34h-82q0 27 10 50t28 39.5t43 25.5t54 9q28 0 52.5 -8t42 -22.5t27.5 -34.5t10 -43q0 -52 -49 -81q32 -13 48.5 -36.5t16.5 -55.5q0 -27 -11 -49.5t-30.5 -39t-46 -25.5t-58.5 -9q-65 0 -105.5 36
t-40.5 96h86q0 -24 17 -39t44 -15q26 0 42.5 14t16.5 35q0 23 -18 36.5t-48 13.5h-19v65h18zM247 0h-107l507 687h108zM790 153h47v-73h-47v-80h-84v80h-189v61l168 247h105v-235zM611 153h95v140z" />
    <glyph glyph-name="questiondown" unicode="&#xbf;" horiz-adv-x="530" 
d="M197 429q0 30 21 51.5t53 21.5t53 -21.5t21 -51.5t-21 -51.5t-53 -21.5t-53 21.5t-21 51.5zM45 -17q0 48 20.5 88t64.5 80q14 12 29.5 24.5t28.5 26t21.5 28.5t8.5 32v21h117v-31q0 -74 -96 -146q-75 -58 -75 -115q0 -41 30 -69t77 -28q48 0 79.5 32.5t32.5 82.5h116
q0 -50 -17 -91.5t-47.5 -71.5t-72.5 -47t-92 -17q-48 0 -89.5 15t-71.5 42t-47 64t-17 80z" />
    <glyph glyph-name="Agrave" unicode="&#xc0;" horiz-adv-x="692" 
d="M397 700l285 -700h-126l-71 177h-282l-70 -177h-123l285 700h102zM242 282h205l-103 260zM291 755l-121 143h127l95 -143h-101z" />
    <glyph glyph-name="Aacute" unicode="&#xc1;" horiz-adv-x="692" 
d="M397 700l285 -700h-126l-71 177h-282l-70 -177h-123l285 700h102zM242 282h205l-103 260zM301 755l96 143h127l-121 -143h-102z" />
    <glyph glyph-name="Acircumflex" unicode="&#xc2;" horiz-adv-x="692" 
d="M397 700l285 -700h-126l-71 177h-282l-70 -177h-123l285 700h102zM242 282h205l-103 260zM191 755l111 143h90l110 -143h-106l-51 67l-50 -67h-104z" />
    <glyph glyph-name="Atilde" unicode="&#xc3;" horiz-adv-x="692" 
d="M397 700l285 -700h-126l-71 177h-282l-70 -177h-123l285 700h102zM242 282h205l-103 260zM179 765q-1 61 28 90t73 29q25 0 43 -7.5t32 -16.5t26 -16.5t26 -7.5q18 0 27.5 12t9.5 32h72q1 -62 -28.5 -90.5t-72.5 -28.5q-26 0 -43.5 7.5t-31.5 16.5t-26 16.5t-26 7.5
q-19 0 -28 -12t-9 -32h-72z" />
    <glyph glyph-name="Adieresis" unicode="&#xc4;" horiz-adv-x="692" 
d="M397 700l285 -700h-126l-71 177h-282l-70 -177h-123l285 700h102zM242 282h205l-103 260zM313 827q0 -26 -18.5 -44t-44.5 -18q-25 0 -43 18t-18 44q0 25 18 43t43 18q27 0 45 -18.5t18 -42.5zM504 827q0 -26 -18 -44t-44 -18t-44 18t-18 44q0 25 18 43t44 18t44 -18.5
t18 -42.5z" />
    <glyph glyph-name="Aring" unicode="&#xc5;" horiz-adv-x="692" 
d="M397 700l285 -700h-126l-71 177h-282l-70 -177h-123l285 700h102zM242 282h205l-103 260zM244 833q0 21 8 39t22 31t33 20.5t40 7.5t40 -7.5t33 -20.5t22 -31t8 -39t-8 -39t-22 -31t-33 -20.5t-40 -7.5t-40 7.5t-33 20.5t-22 31t-8 39zM309 833q0 -16 11 -27t27 -11
t27 11t11 27t-11 27t-27 11t-27 -11t-11 -27z" />
    <glyph glyph-name="AE" unicode="&#xc6;" horiz-adv-x="944" 
d="M491 176h-244l-108 -176h-131l432 700h451v-109h-281v-178h259v-106h-259v-198h283v-109h-402v176zM491 280v301l-183 -301h183z" />
    <glyph glyph-name="Ccedilla" unicode="&#xc7;" horiz-adv-x="643" 
d="M398 -47q38 0 63 -24t25 -61q0 -41 -28.5 -67t-72.5 -26q-42 0 -69 24t-32 59h70q2 -8 10 -16t22 -8q15 0 24 9t9 23t-9 22.5t-23 8.5q-17 0 -29 -14l-59 32l34 80q-62 12 -115 43.5t-91 78.5t-59.5 106t-21.5 127q0 76 28 142.5t76.5 115.5t114.5 77t142 28
q51 0 98.5 -14.5t92.5 -42.5v-129q-46 35 -92 52t-98 17q-51 0 -94.5 -19t-75.5 -52t-50 -78t-18 -97q0 -51 18 -95.5t50 -78t75.5 -52.5t94.5 -19t98 17t94 50v-129q-48 -29 -97 -42t-97 -13h-9l-18 -38q3 2 8.5 2.5t10.5 0.5z" />
    <glyph glyph-name="Egrave" unicode="&#xc8;" horiz-adv-x="535" 
d="M82 700h400v-109h-280v-178h258v-106h-258v-198h282v-109h-402v700zM260 755l-121 143h127l95 -143h-101z" />
    <glyph glyph-name="Eacute" unicode="&#xc9;" horiz-adv-x="535" 
d="M82 700h400v-109h-280v-178h258v-106h-258v-198h282v-109h-402v700zM217 755l96 143h127l-121 -143h-102z" />
    <glyph glyph-name="Ecircumflex" unicode="&#xca;" horiz-adv-x="535" 
d="M82 700h400v-109h-280v-178h258v-106h-258v-198h282v-109h-402v700zM127 755l111 143h90l110 -143h-106l-51 67l-50 -67h-104z" />
    <glyph glyph-name="Edieresis" unicode="&#xcb;" horiz-adv-x="535" 
d="M82 700h400v-109h-280v-178h258v-106h-258v-198h282v-109h-402v700zM250 827q0 -26 -18.5 -44t-44.5 -18q-25 0 -43 18t-18 44q0 25 18 43t43 18q27 0 45 -18.5t18 -42.5zM441 827q0 -26 -18 -44t-44 -18t-44 18t-18 44q0 25 18 43t44 18t44 -18.5t18 -42.5z" />
    <glyph glyph-name="Igrave" unicode="&#xcc;" horiz-adv-x="284" 
d="M202 700v-700h-120v700h120zM93 755l-121 143h127l95 -143h-101z" />
    <glyph glyph-name="Iacute" unicode="&#xcd;" horiz-adv-x="284" 
d="M202 700v-700h-120v700h120zM90 755l96 143h127l-121 -143h-102z" />
    <glyph glyph-name="Icircumflex" unicode="&#xce;" horiz-adv-x="284" 
d="M202 700v-700h-120v700h120zM-14 755l111 143h90l110 -143h-106l-51 67l-50 -67h-104z" />
    <glyph glyph-name="Idieresis" unicode="&#xcf;" horiz-adv-x="284" 
d="M202 700v-700h-120v700h120zM108 827q0 -26 -18.5 -44t-44.5 -18q-25 0 -43 18t-18 44q0 25 18 43t43 18q27 0 45 -18.5t18 -42.5zM299 827q0 -26 -18 -44t-44 -18t-44 18t-18 44q0 25 18 43t44 18t44 -18.5t18 -42.5z" />
    <glyph glyph-name="Eth" unicode="&#xd0;" horiz-adv-x="724" 
d="M678 350q0 -74 -27.5 -138t-75.5 -111t-112 -74t-137 -27h-229v302h-82v101h82v297h229q73 0 137 -27t112 -74t75.5 -111t27.5 -138zM395 302h-178v-190h106q50 0 92.5 18.5t73.5 50.5t48.5 75.5t17.5 93.5t-17.5 93.5t-48.5 75.5t-73.5 50.5t-92.5 18.5h-106v-185h178
v-101z" />
    <glyph glyph-name="Ntilde" unicode="&#xd1;" horiz-adv-x="774" 
d="M692 700v-700h-117l-377 514v-514h-116v700h122l372 -513v513h116zM236 765q-1 61 28 90t73 29q25 0 43 -7.5t32 -16.5t26 -16.5t26 -7.5q18 0 27.5 12t9.5 32h72q1 -62 -28.5 -90.5t-72.5 -28.5q-26 0 -43.5 7.5t-31.5 16.5t-26 16.5t-26 7.5q-19 0 -28 -12t-9 -32h-72z
" />
    <glyph glyph-name="Ograve" unicode="&#xd2;" horiz-adv-x="818" 
d="M46 350q0 76 28.5 142t77.5 115t115.5 77.5t141.5 28.5t141.5 -28.5t115.5 -77.5t77.5 -115t28.5 -142q0 -75 -28.5 -141t-77.5 -115t-115.5 -77.5t-141.5 -28.5t-141.5 28.5t-115.5 77.5t-77.5 115t-28.5 141zM169 350q0 -51 18.5 -96t51 -78t76 -52.5t94.5 -19.5
t94.5 19.5t76 52.5t51 78t18.5 96t-18.5 96t-51 78.5t-76 53t-94.5 19.5t-94.5 -19.5t-76 -53t-51 -78.5t-18.5 -96zM363 755l-121 143h127l95 -143h-101z" />
    <glyph glyph-name="Oacute" unicode="&#xd3;" horiz-adv-x="818" 
d="M46 350q0 76 28.5 142t77.5 115t115.5 77.5t141.5 28.5t141.5 -28.5t115.5 -77.5t77.5 -115t28.5 -142q0 -75 -28.5 -141t-77.5 -115t-115.5 -77.5t-141.5 -28.5t-141.5 28.5t-115.5 77.5t-77.5 115t-28.5 141zM169 350q0 -51 18.5 -96t51 -78t76 -52.5t94.5 -19.5
t94.5 19.5t76 52.5t51 78t18.5 96t-18.5 96t-51 78.5t-76 53t-94.5 19.5t-94.5 -19.5t-76 -53t-51 -78.5t-18.5 -96zM354 755l96 143h127l-121 -143h-102z" />
    <glyph glyph-name="Ocircumflex" unicode="&#xd4;" horiz-adv-x="818" 
d="M46 350q0 76 28.5 142t77.5 115t115.5 77.5t141.5 28.5t141.5 -28.5t115.5 -77.5t77.5 -115t28.5 -142q0 -75 -28.5 -141t-77.5 -115t-115.5 -77.5t-141.5 -28.5t-141.5 28.5t-115.5 77.5t-77.5 115t-28.5 141zM169 350q0 -51 18.5 -96t51 -78t76 -52.5t94.5 -19.5
t94.5 19.5t76 52.5t51 78t18.5 96t-18.5 96t-51 78.5t-76 53t-94.5 19.5t-94.5 -19.5t-76 -53t-51 -78.5t-18.5 -96zM253 755l111 143h90l110 -143h-106l-51 67l-50 -67h-104z" />
    <glyph glyph-name="Otilde" unicode="&#xd5;" horiz-adv-x="818" 
d="M46 350q0 76 28.5 142t77.5 115t115.5 77.5t141.5 28.5t141.5 -28.5t115.5 -77.5t77.5 -115t28.5 -142q0 -75 -28.5 -141t-77.5 -115t-115.5 -77.5t-141.5 -28.5t-141.5 28.5t-115.5 77.5t-77.5 115t-28.5 141zM169 350q0 -51 18.5 -96t51 -78t76 -52.5t94.5 -19.5
t94.5 19.5t76 52.5t51 78t18.5 96t-18.5 96t-51 78.5t-76 53t-94.5 19.5t-94.5 -19.5t-76 -53t-51 -78.5t-18.5 -96zM242 765q-1 61 28 90t73 29q25 0 43 -7.5t32 -16.5t26 -16.5t26 -7.5q18 0 27.5 12t9.5 32h72q1 -62 -28.5 -90.5t-72.5 -28.5q-26 0 -43.5 7.5t-31.5 16.5
t-26 16.5t-26 7.5q-19 0 -28 -12t-9 -32h-72z" />
    <glyph glyph-name="Odieresis" unicode="&#xd6;" horiz-adv-x="818" 
d="M46 350q0 76 28.5 142t77.5 115t115.5 77.5t141.5 28.5t141.5 -28.5t115.5 -77.5t77.5 -115t28.5 -142q0 -75 -28.5 -141t-77.5 -115t-115.5 -77.5t-141.5 -28.5t-141.5 28.5t-115.5 77.5t-77.5 115t-28.5 141zM169 350q0 -51 18.5 -96t51 -78t76 -52.5t94.5 -19.5
t94.5 19.5t76 52.5t51 78t18.5 96t-18.5 96t-51 78.5t-76 53t-94.5 19.5t-94.5 -19.5t-76 -53t-51 -78.5t-18.5 -96zM376 827q0 -26 -18.5 -44t-44.5 -18q-25 0 -43 18t-18 44q0 25 18 43t43 18q27 0 45 -18.5t18 -42.5zM567 827q0 -26 -18 -44t-44 -18t-44 18t-18 44
q0 25 18 43t44 18t44 -18.5t18 -42.5z" />
    <glyph glyph-name="multiply" unicode="&#xd7;" 
d="M135 565l165 -165l165 165l68 -68l-165 -165l165 -164l-68 -68l-165 164l-165 -164l-68 68l165 164l-165 165z" />
    <glyph glyph-name="Oslash" unicode="&#xd8;" horiz-adv-x="818" 
d="M46 350q0 76 28.5 142t77.5 115t115.5 77.5t141.5 28.5q62 0 117.5 -19t101.5 -54l76 79l63 -60l-76 -80q38 -47 59.5 -105t21.5 -124q0 -75 -28.5 -141t-77.5 -115t-115.5 -77.5t-141.5 -28.5q-62 0 -117 18.5t-100 52.5l-76 -79l-65 63l76 78q-38 47 -59.5 105
t-21.5 124zM167 350q0 -80 43 -143l336 349q-29 20 -64 31.5t-73 11.5q-51 0 -95 -19.5t-77 -53.5t-51.5 -79t-18.5 -97zM651 350q0 40 -11.5 76t-31.5 67l-335 -349q59 -42 136 -42q51 0 95 19.5t77 53t51.5 79t18.5 96.5z" />
    <glyph glyph-name="Ugrave" unicode="&#xd9;" horiz-adv-x="694" 
d="M347 -12q-65 0 -116 21t-86 59t-53.5 91.5t-18.5 118.5v422h120v-417q0 -81 39.5 -130t114.5 -49t114.5 49t39.5 130v417h120v-422q0 -65 -18.5 -118.5t-53.5 -91.5t-86 -59t-116 -21zM311 755l-121 143h127l95 -143h-101z" />
    <glyph glyph-name="Uacute" unicode="&#xda;" horiz-adv-x="694" 
d="M347 -12q-65 0 -116 21t-86 59t-53.5 91.5t-18.5 118.5v422h120v-417q0 -81 39.5 -130t114.5 -49t114.5 49t39.5 130v417h120v-422q0 -65 -18.5 -118.5t-53.5 -91.5t-86 -59t-116 -21zM279 755l96 143h127l-121 -143h-102z" />
    <glyph glyph-name="Ucircumflex" unicode="&#xdb;" horiz-adv-x="694" 
d="M347 -12q-65 0 -116 21t-86 59t-53.5 91.5t-18.5 118.5v422h120v-417q0 -81 39.5 -130t114.5 -49t114.5 49t39.5 130v417h120v-422q0 -65 -18.5 -118.5t-53.5 -91.5t-86 -59t-116 -21zM192 755l111 143h90l110 -143h-106l-51 67l-50 -67h-104z" />
    <glyph glyph-name="Udieresis" unicode="&#xdc;" horiz-adv-x="694" 
d="M347 -12q-65 0 -116 21t-86 59t-53.5 91.5t-18.5 118.5v422h120v-417q0 -81 39.5 -130t114.5 -49t114.5 49t39.5 130v417h120v-422q0 -65 -18.5 -118.5t-53.5 -91.5t-86 -59t-116 -21zM314 827q0 -26 -18.5 -44t-44.5 -18q-25 0 -43 18t-18 44q0 25 18 43t43 18
q27 0 45 -18.5t18 -42.5zM505 827q0 -26 -18 -44t-44 -18t-44 18t-18 44q0 25 18 43t44 18t44 -18.5t18 -42.5z" />
    <glyph glyph-name="Yacute" unicode="&#xdd;" horiz-adv-x="641" 
d="M381 0h-120v308l-253 392h138l176 -281l176 281h135l-252 -392v-308zM265 755l96 143h127l-121 -143h-102z" />
    <glyph glyph-name="Thorn" unicode="&#xde;" horiz-adv-x="575" 
d="M202 700v-132h107q54 0 98.5 -14.5t76.5 -41.5t49.5 -67t17.5 -91t-17.5 -90.5t-49.5 -66.5t-76.5 -41.5t-98.5 -14.5h-107v-141h-120v700h120zM202 248h109q53 0 86.5 27.5t33.5 78.5t-33.5 78.5t-86.5 27.5h-109v-212z" />
    <glyph glyph-name="germandbls" unicode="&#xdf;" horiz-adv-x="611" 
d="M72 490q0 55 16 100.5t46 77.5t73 49.5t97 17.5q49 0 90.5 -14.5t71.5 -40t47 -61t17 -76.5q0 -54 -25 -93t-67 -62q59 -23 94 -72.5t35 -112.5q0 -48 -17 -87.5t-47.5 -67t-74 -43t-96.5 -15.5q-23 0 -42.5 2.5t-38.5 8.5v96q14 -5 32 -6.5t34 -1.5q28 0 52.5 9t42.5 25
t28.5 38.5t10.5 49.5t-11 49t-30.5 38.5t-46 25.5t-56.5 9h-25v97h20q49 0 82 29t33 75q0 21 -8.5 39.5t-23.5 32t-35.5 21.5t-44.5 8q-56 0 -87 -38t-31 -102v-495h-115v490z" />
    <glyph glyph-name="agrave" unicode="&#xe0;" horiz-adv-x="632" 
d="M559 490v-490h-114v71q-27 -38 -71 -60.5t-95 -22.5t-94.5 20t-75.5 54.5t-50.5 81.5t-18.5 101t18.5 101t50.5 81.5t75.5 54.5t94.5 20t95 -20.5t71 -58.5v67h114zM156 245q0 -32 11.5 -59.5t31 -48t46.5 -32.5t58 -12t58 12t46.5 32.5t31 48t11.5 59.5t-11.5 59.5
t-31 48t-46.5 32.5t-58 12t-58 -12t-46.5 -32.5t-31 -48t-11.5 -59.5zM277 575l-121 143h127l95 -143h-101z" />
    <glyph glyph-name="aacute" unicode="&#xe1;" horiz-adv-x="632" 
d="M559 490v-490h-114v71q-27 -38 -71 -60.5t-95 -22.5t-94.5 20t-75.5 54.5t-50.5 81.5t-18.5 101t18.5 101t50.5 81.5t75.5 54.5t94.5 20t95 -20.5t71 -58.5v67h114zM156 245q0 -32 11.5 -59.5t31 -48t46.5 -32.5t58 -12t58 12t46.5 32.5t31 48t11.5 59.5t-11.5 59.5
t-31 48t-46.5 32.5t-58 12t-58 -12t-46.5 -32.5t-31 -48t-11.5 -59.5zM244 575l96 143h127l-121 -143h-102z" />
    <glyph glyph-name="acircumflex" unicode="&#xe2;" horiz-adv-x="632" 
d="M559 490v-490h-114v71q-27 -38 -71 -60.5t-95 -22.5t-94.5 20t-75.5 54.5t-50.5 81.5t-18.5 101t18.5 101t50.5 81.5t75.5 54.5t94.5 20t95 -20.5t71 -58.5v67h114zM156 245q0 -32 11.5 -59.5t31 -48t46.5 -32.5t58 -12t58 12t46.5 32.5t31 48t11.5 59.5t-11.5 59.5
t-31 48t-46.5 32.5t-58 12t-58 -12t-46.5 -32.5t-31 -48t-11.5 -59.5zM150 575l111 143h90l110 -143h-106l-51 68l-50 -68h-104z" />
    <glyph glyph-name="atilde" unicode="&#xe3;" horiz-adv-x="632" 
d="M559 490v-490h-114v71q-27 -38 -71 -60.5t-95 -22.5t-94.5 20t-75.5 54.5t-50.5 81.5t-18.5 101t18.5 101t50.5 81.5t75.5 54.5t94.5 20t95 -20.5t71 -58.5v67h114zM156 245q0 -32 11.5 -59.5t31 -48t46.5 -32.5t58 -12t58 12t46.5 32.5t31 48t11.5 59.5t-11.5 59.5
t-31 48t-46.5 32.5t-58 12t-58 -12t-46.5 -32.5t-31 -48t-11.5 -59.5zM145 583q-1 61 28 90t73 29q25 0 43 -7.5t32 -16.5t26 -16.5t26 -7.5q18 0 27.5 12t9.5 32h72q1 -62 -28.5 -90.5t-72.5 -28.5q-26 0 -43.5 7.5t-31.5 16.5t-26 16.5t-26 7.5q-19 0 -28 -12t-9 -32h-72z
" />
    <glyph glyph-name="adieresis" unicode="&#xe4;" horiz-adv-x="632" 
d="M559 490v-490h-114v71q-27 -38 -71 -60.5t-95 -22.5t-94.5 20t-75.5 54.5t-50.5 81.5t-18.5 101t18.5 101t50.5 81.5t75.5 54.5t94.5 20t95 -20.5t71 -58.5v67h114zM156 245q0 -32 11.5 -59.5t31 -48t46.5 -32.5t58 -12t58 12t46.5 32.5t31 48t11.5 59.5t-11.5 59.5
t-31 48t-46.5 32.5t-58 12t-58 -12t-46.5 -32.5t-31 -48t-11.5 -59.5zM271 633q0 -25 -18.5 -43.5t-44.5 -18.5q-25 0 -43 18t-18 44t18 44t43 18q27 0 45 -18.5t18 -43.5zM462 633q0 -25 -18 -43.5t-44 -18.5t-44 18t-18 44t18 44t44 18t44 -18.5t18 -43.5z" />
    <glyph glyph-name="aring" unicode="&#xe5;" horiz-adv-x="632" 
d="M559 490v-490h-114v71q-27 -38 -71 -60.5t-95 -22.5t-94.5 20t-75.5 54.5t-50.5 81.5t-18.5 101t18.5 101t50.5 81.5t75.5 54.5t94.5 20t95 -20.5t71 -58.5v67h114zM156 245q0 -32 11.5 -59.5t31 -48t46.5 -32.5t58 -12t58 12t46.5 32.5t31 48t11.5 59.5t-11.5 59.5
t-31 48t-46.5 32.5t-58 12t-58 -12t-46.5 -32.5t-31 -48t-11.5 -59.5zM201 653q0 21 8 39t22 31t33 20.5t40 7.5t40 -7.5t33 -20.5t22 -31t8 -39t-8 -39t-22 -31t-33 -20.5t-40 -7.5t-40 7.5t-33 20.5t-22 31t-8 39zM266 653q0 -16 11 -27t27 -11t27 11t11 27t-11 27t-27 11
t-27 -11t-11 -27z" />
    <glyph glyph-name="ae" unicode="&#xe6;" horiz-adv-x="862" 
d="M810 115q-29 -58 -83.5 -92.5t-129.5 -34.5q-62 0 -111.5 25t-81.5 73q-32 -52 -83 -75t-114 -23q-75 0 -120.5 39.5t-45.5 102.5q0 66 43 107t131 52l133 17v21q0 37 -23.5 58.5t-63.5 21.5q-75 0 -97 -74l-106 27q18 66 73 104t130 38q55 0 94.5 -20.5t62.5 -56.5
q32 36 76.5 56.5t96.5 20.5t95 -19.5t74.5 -54t49 -81.5t17.5 -102q0 -14 -1 -35h-361q2 -27 13 -50t29 -39.5t41.5 -26t49.5 -9.5q46 0 72 21t46 54zM712 294q-5 49 -39 81t-84 32q-24 0 -45 -10t-37.5 -25.5t-27 -36t-13.5 -41.5h246zM349 220l-111 -15q-41 -5 -61.5 -23
t-20.5 -44t19.5 -41.5t49.5 -15.5q56 0 90 33t34 89v17z" />
    <glyph glyph-name="ccedilla" unicode="&#xe7;" horiz-adv-x="472" 
d="M292 -47q38 0 63 -24t25 -61q0 -41 -28.5 -67t-72.5 -26q-42 0 -69 24t-32 59h70q2 -8 10 -16t22 -8q15 0 24 9t9 23t-9 22.5t-23 8.5q-17 0 -29 -14l-59 32l34 82q-42 10 -76.5 32.5t-59 54.5t-38 73t-13.5 88q0 55 19 102t53.5 81.5t82 54t104.5 19.5q73 0 131 -35
v-115q-58 44 -121 44q-33 0 -60.5 -11.5t-48 -32t-32 -48t-11.5 -59.5t11.5 -59.5t31.5 -48t48 -32t61 -11.5q35 0 66 13t57 31v-115q-62 -35 -134 -35h-7l-18 -38q3 2 8.5 2.5t10.5 0.5z" />
    <glyph glyph-name="egrave" unicode="&#xe8;" horiz-adv-x="568" 
d="M418 294q-3 24 -14 45t-28 36t-40 23.5t-49 8.5t-48.5 -10t-40 -25.5t-28.5 -36t-14 -41.5h262zM255 575l-121 143h127l95 -143h-101zM516 115q-31 -58 -87 -92.5t-134 -34.5q-56 0 -103 19t-80.5 53t-52.5 81t-19 104q0 55 19 102t52.5 81.5t79 54t98.5 19.5
q54 0 98.5 -19.5t77 -54t50.5 -81.5t18 -102q0 -14 -1 -35h-377q2 -27 14 -49.5t31 -39t44 -26t52 -9.5q48 0 76 21t49 53z" />
    <glyph glyph-name="eacute" unicode="&#xe9;" horiz-adv-x="568" 
d="M418 294q-3 24 -14 45t-28 36t-40 23.5t-49 8.5t-48.5 -10t-40 -25.5t-28.5 -36t-14 -41.5h262zM226 575l96 143h127l-121 -143h-102zM516 115q-31 -58 -87 -92.5t-134 -34.5q-56 0 -103 19t-80.5 53t-52.5 81t-19 104q0 55 19 102t52.5 81.5t79 54t98.5 19.5
q54 0 98.5 -19.5t77 -54t50.5 -81.5t18 -102q0 -14 -1 -35h-377q2 -27 14 -49.5t31 -39t44 -26t52 -9.5q48 0 76 21t49 53z" />
    <glyph glyph-name="ecircumflex" unicode="&#xea;" horiz-adv-x="568" 
d="M134 575l111 143h90l110 -143h-106l-51 68l-50 -68h-104zM418 294q-3 24 -14 45t-28 36t-40 23.5t-49 8.5t-48.5 -10t-40 -25.5t-28.5 -36t-14 -41.5h262zM516 115q-31 -58 -87 -92.5t-134 -34.5q-56 0 -103 19t-80.5 53t-52.5 81t-19 104q0 55 19 102t52.5 81.5t79 54
t98.5 19.5q54 0 98.5 -19.5t77 -54t50.5 -81.5t18 -102q0 -14 -1 -35h-377q2 -27 14 -49.5t31 -39t44 -26t52 -9.5q48 0 76 21t49 53z" />
    <glyph glyph-name="edieresis" unicode="&#xeb;" horiz-adv-x="568" 
d="M418 294q-3 24 -14 45t-28 36t-40 23.5t-49 8.5t-48.5 -10t-40 -25.5t-28.5 -36t-14 -41.5h262zM447 633q0 -25 -18 -43.5t-44 -18.5t-44 18t-18 44t18 44t44 18t44 -18.5t18 -43.5zM256 633q0 -25 -18.5 -43.5t-44.5 -18.5q-25 0 -43 18t-18 44t18 44t43 18
q27 0 45 -18.5t18 -43.5zM516 115q-31 -58 -87 -92.5t-134 -34.5q-56 0 -103 19t-80.5 53t-52.5 81t-19 104q0 55 19 102t52.5 81.5t79 54t98.5 19.5q54 0 98.5 -19.5t77 -54t50.5 -81.5t18 -102q0 -14 -1 -35h-377q2 -27 14 -49.5t31 -39t44 -26t52 -9.5q48 0 76 21t49 53z
" />
    <glyph glyph-name="igrave" unicode="&#xec;" horiz-adv-x="260" 
d="M188 490v-490h-116v490h116zM80 575l-121 143h127l95 -143h-101z" />
    <glyph glyph-name="iacute" unicode="&#xed;" horiz-adv-x="260" 
d="M188 490v-490h-116v490h116zM78 575l96 143h127l-121 -143h-102z" />
    <glyph glyph-name="icircumflex" unicode="&#xee;" horiz-adv-x="260" 
d="M188 490v-490h-116v490h116zM-26 575l111 143h90l110 -143h-106l-51 68l-50 -68h-104z" />
    <glyph glyph-name="idieresis" unicode="&#xef;" horiz-adv-x="260" 
d="M188 490v-490h-116v490h116zM96 633q0 -25 -18.5 -43.5t-44.5 -18.5q-25 0 -43 18t-18 44t18 44t43 18q27 0 45 -18.5t18 -43.5zM287 633q0 -25 -18 -43.5t-44 -18.5t-44 18t-18 44t18 44t44 18t44 -18.5t18 -43.5z" />
    <glyph glyph-name="eth" unicode="&#xf0;" horiz-adv-x="604" 
d="M562 246q0 -56 -19.5 -103t-54 -81.5t-82.5 -54t-104 -19.5t-103.5 19.5t-82 54t-54.5 81t-20 101.5q0 48 17.5 90.5t48.5 74.5t73 50.5t90 18.5q33 0 62 -7.5t49 -24.5q-5 7 -16.5 22.5t-25 32.5t-26.5 33t-20 25l-6 7l-129 -53l-40 63l119 49l-84 101h132l50 -61
l117 48l40 -63l-108 -44l29 -35q42 -51 70.5 -93.5t45.5 -81t24.5 -75t7.5 -75.5zM445 240q0 30 -10.5 56t-29.5 45t-45.5 30t-57.5 11t-57 -11t-45.5 -30.5t-30.5 -45.5t-11 -55q0 -30 11 -57t30.5 -47t45.5 -31.5t57 -11.5t57 11.5t45 31.5t30 47t11 57z" />
    <glyph glyph-name="ntilde" unicode="&#xf1;" horiz-adv-x="594" 
d="M188 0h-116v490h116v-65q23 35 60.5 56t89.5 21q90 0 140 -55.5t50 -151.5v-295h-116v273q0 57 -28 89.5t-81 32.5q-52 0 -83.5 -37t-31.5 -100v-258zM136 583q-1 61 28 90t73 29q25 0 43 -7.5t32 -16.5t26 -16.5t26 -7.5q18 0 27.5 12t9.5 32h72q1 -62 -28.5 -90.5
t-72.5 -28.5q-26 0 -43.5 7.5t-31.5 16.5t-26 16.5t-26 7.5q-19 0 -28 -12t-9 -32h-72z" />
    <glyph glyph-name="ograve" unicode="&#xf2;" horiz-adv-x="602" 
d="M301 502q56 0 104 -20t83 -54.5t54.5 -81.5t19.5 -101t-19.5 -101t-54.5 -81.5t-83 -54.5t-104 -20t-104 20t-83 54.5t-54.5 81.5t-19.5 101t19.5 101t54.5 81.5t83 54.5t104 20zM301 396q-31 0 -57.5 -12t-46 -32t-31 -48t-11.5 -59q0 -32 11.5 -59.5t31 -47.5t46 -32
t57.5 -12t57.5 12t46 32t31 47.5t11.5 59.5q0 31 -11.5 59t-31 48t-46 32t-57.5 12zM254 575l-121 143h127l95 -143h-101z" />
    <glyph glyph-name="oacute" unicode="&#xf3;" horiz-adv-x="602" 
d="M301 502q56 0 104 -20t83 -54.5t54.5 -81.5t19.5 -101t-19.5 -101t-54.5 -81.5t-83 -54.5t-104 -20t-104 20t-83 54.5t-54.5 81.5t-19.5 101t19.5 101t54.5 81.5t83 54.5t104 20zM301 396q-31 0 -57.5 -12t-46 -32t-31 -48t-11.5 -59q0 -32 11.5 -59.5t31 -47.5t46 -32
t57.5 -12t57.5 12t46 32t31 47.5t11.5 59.5q0 31 -11.5 59t-31 48t-46 32t-57.5 12zM246 575l96 143h127l-121 -143h-102z" />
    <glyph glyph-name="ocircumflex" unicode="&#xf4;" horiz-adv-x="602" 
d="M301 502q56 0 104 -20t83 -54.5t54.5 -81.5t19.5 -101t-19.5 -101t-54.5 -81.5t-83 -54.5t-104 -20t-104 20t-83 54.5t-54.5 81.5t-19.5 101t19.5 101t54.5 81.5t83 54.5t104 20zM301 396q-31 0 -57.5 -12t-46 -32t-31 -48t-11.5 -59q0 -32 11.5 -59.5t31 -47.5t46 -32
t57.5 -12t57.5 12t46 32t31 47.5t11.5 59.5q0 31 -11.5 59t-31 48t-46 32t-57.5 12zM145 575l111 143h90l110 -143h-106l-51 68l-50 -68h-104z" />
    <glyph glyph-name="otilde" unicode="&#xf5;" horiz-adv-x="602" 
d="M301 502q56 0 104 -20t83 -54.5t54.5 -81.5t19.5 -101t-19.5 -101t-54.5 -81.5t-83 -54.5t-104 -20t-104 20t-83 54.5t-54.5 81.5t-19.5 101t19.5 101t54.5 81.5t83 54.5t104 20zM301 396q-31 0 -57.5 -12t-46 -32t-31 -48t-11.5 -59q0 -32 11.5 -59.5t31 -47.5t46 -32
t57.5 -12t57.5 12t46 32t31 47.5t11.5 59.5q0 31 -11.5 59t-31 48t-46 32t-57.5 12zM133 583q-1 61 28 90t73 29q25 0 43 -7.5t32 -16.5t26 -16.5t26 -7.5q18 0 27.5 12t9.5 32h72q1 -62 -28.5 -90.5t-72.5 -28.5q-26 0 -43.5 7.5t-31.5 16.5t-26 16.5t-26 7.5
q-19 0 -28 -12t-9 -32h-72z" />
    <glyph glyph-name="odieresis" unicode="&#xf6;" horiz-adv-x="602" 
d="M301 502q56 0 104 -20t83 -54.5t54.5 -81.5t19.5 -101t-19.5 -101t-54.5 -81.5t-83 -54.5t-104 -20t-104 20t-83 54.5t-54.5 81.5t-19.5 101t19.5 101t54.5 81.5t83 54.5t104 20zM301 396q-31 0 -57.5 -12t-46 -32t-31 -48t-11.5 -59q0 -32 11.5 -59.5t31 -47.5t46 -32
t57.5 -12t57.5 12t46 32t31 47.5t11.5 59.5q0 31 -11.5 59t-31 48t-46 32t-57.5 12zM267 633q0 -25 -18.5 -43.5t-44.5 -18.5q-25 0 -43 18t-18 44t18 44t43 18q27 0 45 -18.5t18 -43.5zM458 633q0 -25 -18 -43.5t-44 -18.5t-44 18t-18 44t18 44t44 18t44 -18.5t18 -43.5z
" />
    <glyph glyph-name="divide" unicode="&#xf7;" 
d="M232 151q0 28 19.5 47.5t48.5 19.5t48.5 -19.5t19.5 -47.5t-19.5 -47.5t-48.5 -19.5t-48.5 19.5t-19.5 47.5zM232 516q0 28 19.5 47.5t48.5 19.5t48.5 -19.5t19.5 -47.5t-19.5 -47.5t-48.5 -19.5t-48.5 19.5t-19.5 47.5zM70 285v97h460v-97h-460z" />
    <glyph glyph-name="oslash" unicode="&#xf8;" horiz-adv-x="604" 
d="M302 502q43 0 80.5 -12t69.5 -33l49 50l57 -56l-48 -49q25 -32 39 -72t14 -85q0 -54 -20 -101t-55 -81.5t-82.5 -54.5t-103.5 -20q-43 0 -80.5 11.5t-69.5 32.5l-49 -51l-57 57l48 49q-26 33 -39.5 73t-13.5 85q0 54 20 101t55 81.5t82.5 54.5t103.5 20zM302 400
q-32 0 -59 -12t-47 -33t-31.5 -49.5t-11.5 -60.5q0 -41 19 -77l205 211q-17 10 -36 15.5t-39 5.5zM451 245q0 40 -19 76l-204 -211q32 -20 74 -20q31 0 58.5 12.5t47.5 33.5t31.5 49t11.5 60z" />
    <glyph glyph-name="ugrave" unicode="&#xf9;" horiz-adv-x="590" 
d="M402 490h116v-490h-116v65q-23 -35 -60.5 -56t-88.5 -21q-88 0 -137.5 55.5t-49.5 151.5v295h116v-273q0 -57 27.5 -89.5t78.5 -32.5q52 0 83 37t31 100v258zM253 575l-121 143h127l95 -143h-101z" />
    <glyph glyph-name="uacute" unicode="&#xfa;" horiz-adv-x="590" 
d="M402 490h116v-490h-116v65q-23 -35 -60.5 -56t-88.5 -21q-88 0 -137.5 55.5t-49.5 151.5v295h116v-273q0 -57 27.5 -89.5t78.5 -32.5q52 0 83 37t31 100v258zM227 575l96 143h127l-121 -143h-102z" />
    <glyph glyph-name="ucircumflex" unicode="&#xfb;" horiz-adv-x="590" 
d="M402 490h116v-490h-116v65q-23 -35 -60.5 -56t-88.5 -21q-88 0 -137.5 55.5t-49.5 151.5v295h116v-273q0 -57 27.5 -89.5t78.5 -32.5q52 0 83 37t31 100v258zM136 575l111 143h90l110 -143h-106l-51 68l-50 -68h-104z" />
    <glyph glyph-name="udieresis" unicode="&#xfc;" horiz-adv-x="590" 
d="M402 490h116v-490h-116v65q-23 -35 -60.5 -56t-88.5 -21q-88 0 -137.5 55.5t-49.5 151.5v295h116v-273q0 -57 27.5 -89.5t78.5 -32.5q52 0 83 37t31 100v258zM258 633q0 -25 -18.5 -43.5t-44.5 -18.5q-25 0 -43 18t-18 44t18 44t43 18q27 0 45 -18.5t18 -43.5zM449 633
q0 -25 -18 -43.5t-44 -18.5t-44 18t-18 44t18 44t44 18t44 -18.5t18 -43.5z" />
    <glyph glyph-name="yacute" unicode="&#xfd;" horiz-adv-x="542" 
d="M116 -222q-23 0 -39.5 4.5t-28.5 9.5v99q23 -10 51 -10q31 0 52 16.5t38 58.5l21 51l-196 483h123l134 -353l138 353h119l-227 -549q-36 -87 -79.5 -125t-105.5 -38zM217 575l96 143h127l-121 -143h-102z" />
    <glyph glyph-name="thorn" unicode="&#xfe;" horiz-adv-x="632" 
d="M187 700v-280q27 38 71 60t95 22t94.5 -19.5t75.5 -54t50.5 -81.5t18.5 -102q0 -54 -18.5 -101t-50.5 -81.5t-75.5 -54.5t-94.5 -20t-95 20.5t-71 58.5v-275h-115v908h115zM476 245q0 32 -11.5 59.5t-31 48t-46.5 32.5t-58 12t-58 -12t-46.5 -32.5t-31 -48t-11.5 -59.5
t11.5 -59.5t31 -48t46.5 -32.5t58 -12t58 12t46.5 32.5t31 48t11.5 59.5z" />
    <glyph glyph-name="ydieresis" unicode="&#xff;" horiz-adv-x="542" 
d="M116 -222q-23 0 -39.5 4.5t-28.5 9.5v99q23 -10 51 -10q31 0 52 16.5t38 58.5l21 51l-196 483h123l134 -353l138 353h119l-227 -549q-36 -87 -79.5 -125t-105.5 -38zM238 633q0 -25 -18.5 -43.5t-44.5 -18.5q-25 0 -43 18t-18 44t18 44t43 18q27 0 45 -18.5t18 -43.5z
M429 633q0 -25 -18 -43.5t-44 -18.5t-44 18t-18 44t18 44t44 18t44 -18.5t18 -43.5z" />
    <glyph glyph-name="Amacron" unicode="&#x100;" horiz-adv-x="692" 
d="M397 700l285 -700h-126l-71 177h-282l-70 -177h-123l285 700h102zM242 282h205l-103 260zM203 772v77h288v-77h-288z" />
    <glyph glyph-name="amacron" unicode="&#x101;" horiz-adv-x="632" 
d="M559 490v-490h-114v71q-27 -38 -71 -60.5t-95 -22.5t-94.5 20t-75.5 54.5t-50.5 81.5t-18.5 101t18.5 101t50.5 81.5t75.5 54.5t94.5 20t95 -20.5t71 -58.5v67h114zM156 245q0 -32 11.5 -59.5t31 -48t46.5 -32.5t58 -12t58 12t46.5 32.5t31 48t11.5 59.5t-11.5 59.5
t-31 48t-46.5 32.5t-58 12t-58 -12t-46.5 -32.5t-31 -48t-11.5 -59.5zM163 591v77h288v-77h-288z" />
    <glyph glyph-name="Abreve" unicode="&#x102;" horiz-adv-x="692" 
d="M397 700l285 -700h-126l-71 177h-282l-70 -177h-123l285 700h102zM242 282h205l-103 260zM347 832q26 0 42 17t18 46h82q0 -63 -40 -101t-102 -38q-63 0 -103 38t-40 101h82q2 -29 18.5 -46t42.5 -17z" />
    <glyph glyph-name="abreve" unicode="&#x103;" horiz-adv-x="632" 
d="M559 490v-490h-114v71q-27 -38 -71 -60.5t-95 -22.5t-94.5 20t-75.5 54.5t-50.5 81.5t-18.5 101t18.5 101t50.5 81.5t75.5 54.5t94.5 20t95 -20.5t71 -58.5v67h114zM156 245q0 -32 11.5 -59.5t31 -48t46.5 -32.5t58 -12t58 12t46.5 32.5t31 48t11.5 59.5t-11.5 59.5
t-31 48t-46.5 32.5t-58 12t-58 -12t-46.5 -32.5t-31 -48t-11.5 -59.5zM304 650q26 0 42 17t18 46h82q0 -63 -40 -101t-102 -38q-63 0 -103 38t-40 101h82q2 -29 18.5 -46t42.5 -17z" />
    <glyph glyph-name="Aogonek" unicode="&#x104;" horiz-adv-x="692" 
d="M397 700l285 -700q-54 -9 -88.5 -36.5t-34.5 -58.5q0 -18 11 -27t31 -9q26 0 46 13v-74q-30 -14 -67 -14q-51 0 -80 25t-29 67q0 69 85 114l-71 177h-282l-70 -177h-123l285 700h102zM242 282h205l-103 260z" />
    <glyph glyph-name="aogonek" unicode="&#x105;" horiz-adv-x="632" 
d="M559 490v-490q-23 -6 -43 -15.5t-35 -22t-24 -27.5t-9 -30q0 -18 11 -27t31 -9q26 0 46 13v-74q-30 -14 -67 -14q-51 0 -80 25t-29 67q0 69 85 114v71q-27 -38 -71 -60.5t-95 -22.5t-94.5 20t-75.5 54.5t-50.5 81.5t-18.5 101t18.5 101t50.5 81.5t75.5 54.5t94.5 20
t95 -20.5t71 -58.5v67h114zM156 245q0 -32 11.5 -59.5t31 -48t46.5 -32.5t58 -12t58 12t46.5 32.5t31 48t11.5 59.5t-11.5 59.5t-31 48t-46.5 32.5t-58 12t-58 -12t-46.5 -32.5t-31 -48t-11.5 -59.5z" />
    <glyph glyph-name="Cacute" unicode="&#x106;" horiz-adv-x="643" 
d="M46 350q0 76 28 142.5t76.5 115.5t114.5 77t142 28q51 0 98.5 -14.5t92.5 -42.5v-129q-46 35 -92 52t-98 17q-51 0 -94.5 -19t-75.5 -52t-50 -78t-18 -97q0 -51 18 -95.5t50 -78t75.5 -52.5t94.5 -19t98 17t94 50v-129q-48 -29 -97 -42t-97 -13q-76 0 -141.5 27.5
t-114 76.5t-76.5 115t-28 143zM327 755l96 143h127l-121 -143h-102z" />
    <glyph glyph-name="cacute" unicode="&#x107;" horiz-adv-x="472" 
d="M40 245q0 55 19 102t53.5 81.5t82 54t104.5 19.5q73 0 131 -35v-115q-58 44 -121 44q-33 0 -60.5 -11.5t-48 -32t-32 -48t-11.5 -59.5t11.5 -59.5t31.5 -48t48 -32t61 -11.5q35 0 66 13t57 31v-115q-62 -35 -134 -35q-57 0 -104.5 19t-81.5 53.5t-53 81.5t-19 103z
M220 575l96 143h127l-121 -143h-102z" />
    <glyph glyph-name="Ccircumflex" unicode="&#x108;" horiz-adv-x="643" 
d="M46 350q0 76 28 142.5t76.5 115.5t114.5 77t142 28q51 0 98.5 -14.5t92.5 -42.5v-129q-46 35 -92 52t-98 17q-51 0 -94.5 -19t-75.5 -52t-50 -78t-18 -97q0 -51 18 -95.5t50 -78t75.5 -52.5t94.5 -19t98 17t94 50v-129q-48 -29 -97 -42t-97 -13q-76 0 -141.5 27.5
t-114 76.5t-76.5 115t-28 143zM242 755l111 143h90l110 -143h-106l-51 67l-50 -67h-104z" />
    <glyph glyph-name="ccircumflex" unicode="&#x109;" horiz-adv-x="472" 
d="M40 245q0 55 19 102t53.5 81.5t82 54t104.5 19.5q73 0 131 -35v-115q-58 44 -121 44q-33 0 -60.5 -11.5t-48 -32t-32 -48t-11.5 -59.5t11.5 -59.5t31.5 -48t48 -32t61 -11.5q35 0 66 13t57 31v-115q-62 -35 -134 -35q-57 0 -104.5 19t-81.5 53.5t-53 81.5t-19 103z
M130 575l111 143h90l110 -143h-106l-51 68l-50 -68h-104z" />
    <glyph glyph-name="Cdotaccent" unicode="&#x10a;" horiz-adv-x="643" 
d="M46 350q0 76 28 142.5t76.5 115.5t114.5 77t142 28q51 0 98.5 -14.5t92.5 -42.5v-129q-46 35 -92 52t-98 17q-51 0 -94.5 -19t-75.5 -52t-50 -78t-18 -97q0 -51 18 -95.5t50 -78t75.5 -52.5t94.5 -19t98 17t94 50v-129q-48 -29 -97 -42t-97 -13q-76 0 -141.5 27.5
t-114 76.5t-76.5 115t-28 143zM469 832q0 -28 -20 -48t-49 -20q-28 0 -48 19.5t-20 48.5t20 49t48 20q29 0 49 -20.5t20 -48.5z" />
    <glyph glyph-name="cdotaccent" unicode="&#x10b;" horiz-adv-x="472" 
d="M40 245q0 55 19 102t53.5 81.5t82 54t104.5 19.5q73 0 131 -35v-115q-58 44 -121 44q-33 0 -60.5 -11.5t-48 -32t-32 -48t-11.5 -59.5t11.5 -59.5t31.5 -48t48 -32t61 -11.5q35 0 66 13t57 31v-115q-62 -35 -134 -35q-57 0 -104.5 19t-81.5 53.5t-53 81.5t-19 103z
M365 633q0 -29 -20.5 -50t-51.5 -21q-29 0 -50 21t-21 50q0 30 21 51t50 21q31 0 51.5 -21.5t20.5 -50.5z" />
    <glyph glyph-name="Ccaron" unicode="&#x10c;" horiz-adv-x="643" 
d="M46 350q0 76 28 142.5t76.5 115.5t114.5 77t142 28q51 0 98.5 -14.5t92.5 -42.5v-129q-46 35 -92 52t-98 17q-51 0 -94.5 -19t-75.5 -52t-50 -78t-18 -97q0 -51 18 -95.5t50 -78t75.5 -52.5t94.5 -19t98 17t94 50v-129q-48 -29 -97 -42t-97 -13q-76 0 -141.5 27.5
t-114 76.5t-76.5 115t-28 143zM553 898l-110 -143h-90l-111 143h106l51 -68l51 68h103z" />
    <glyph glyph-name="ccaron" unicode="&#x10d;" horiz-adv-x="472" 
d="M40 245q0 55 19 102t53.5 81.5t82 54t104.5 19.5q73 0 131 -35v-115q-58 44 -121 44q-33 0 -60.5 -11.5t-48 -32t-32 -48t-11.5 -59.5t11.5 -59.5t31.5 -48t48 -32t61 -11.5q35 0 66 13t57 31v-115q-62 -35 -134 -35q-57 0 -104.5 19t-81.5 53.5t-53 81.5t-19 103z
M445 718l-110 -143h-90l-111 143h106l51 -68l51 68h103z" />
    <glyph glyph-name="Dcaron" unicode="&#x10e;" horiz-adv-x="709" 
d="M663 350q0 -74 -27.5 -138t-75.5 -111t-112 -74t-137 -27h-229v700h229q73 0 137 -27t112 -74t75.5 -111t27.5 -138zM540 350q0 50 -17.5 93.5t-48.5 75.5t-73.5 50.5t-92.5 18.5h-106v-476h106q50 0 92.5 18.5t73.5 50.5t48.5 75.5t17.5 93.5zM481 898l-110 -143h-90
l-111 143h106l51 -68l51 68h103z" />
    <glyph glyph-name="dcaron" unicode="&#x10f;" horiz-adv-x="632" 
d="M445 0v70q-27 -38 -71 -60t-95 -22t-94.5 19.5t-75.5 54t-50.5 81.5t-18.5 102q0 54 18.5 101t50.5 81.5t75.5 54.5t94.5 20t95 -20.5t71 -58.5v277h115v-700h-115zM156 245q0 -32 11.5 -59.5t31 -48t46.5 -32.5t58 -12t58 12t46.5 32.5t31 48t11.5 59.5t-11.5 59.5
t-31 48t-46.5 32.5t-58 12t-58 -12t-46.5 -32.5t-31 -48t-11.5 -59.5zM600 545l30 167h115l-48 -167h-97z" />
    <glyph glyph-name="Dcroat" unicode="&#x110;" horiz-adv-x="724" 
d="M678 350q0 -74 -27.5 -138t-75.5 -111t-112 -74t-137 -27h-229v302h-82v101h82v297h229q73 0 137 -27t112 -74t75.5 -111t27.5 -138zM395 302h-178v-190h106q50 0 92.5 18.5t73.5 50.5t48.5 75.5t17.5 93.5t-17.5 93.5t-48.5 75.5t-73.5 50.5t-92.5 18.5h-106v-185h178
v-101z" />
    <glyph glyph-name="dcroat" unicode="&#x111;" horiz-adv-x="636" 
d="M443 0v70q-27 -38 -71 -60t-95 -22q-50 0 -93.5 19.5t-75.5 53.5t-50 80.5t-18 100.5q0 53 18 99t50 80t75.5 53.5t93.5 19.5q51 0 95 -19t71 -54v129h-205v79h205v71h115v-71h65v-79h-65v-550h-115zM156 242q0 -31 11 -58t30.5 -47.5t46.5 -32t58 -11.5t57.5 11.5t46 32
t31 47.5t11.5 58t-11.5 58.5t-31 47.5t-46 31.5t-57.5 11.5t-58 -11.5t-46.5 -31.5t-30.5 -47.5t-11 -58.5z" />
    <glyph glyph-name="Emacron" unicode="&#x112;" horiz-adv-x="535" 
d="M82 700h400v-109h-280v-178h258v-106h-258v-198h282v-109h-402v700zM139 772v77h288v-77h-288z" />
    <glyph glyph-name="emacron" unicode="&#x113;" horiz-adv-x="568" 
d="M418 294q-3 24 -14 45t-28 36t-40 23.5t-49 8.5t-48.5 -10t-40 -25.5t-28.5 -36t-14 -41.5h262zM145 590v77h288v-77h-288zM516 115q-31 -58 -87 -92.5t-134 -34.5q-56 0 -103 19t-80.5 53t-52.5 81t-19 104q0 55 19 102t52.5 81.5t79 54t98.5 19.5q54 0 98.5 -19.5
t77 -54t50.5 -81.5t18 -102q0 -14 -1 -35h-377q2 -27 14 -49.5t31 -39t44 -26t52 -9.5q48 0 76 21t49 53z" />
    <glyph glyph-name="Ebreve" unicode="&#x114;" horiz-adv-x="535" 
d="M82 700h400v-109h-280v-178h258v-106h-258v-198h282v-109h-402v700zM283 832q26 0 42 17t18 46h82q0 -63 -40 -101t-102 -38q-63 0 -103 38t-40 101h82q2 -29 18.5 -46t42.5 -17z" />
    <glyph glyph-name="ebreve" unicode="&#x115;" horiz-adv-x="568" 
d="M289 650q26 0 42 17t18 46h82q0 -63 -40 -101t-102 -38q-63 0 -103 38t-40 101h82q2 -29 18.5 -46t42.5 -17zM418 294q-3 24 -14 45t-28 36t-40 23.5t-49 8.5t-48.5 -10t-40 -25.5t-28.5 -36t-14 -41.5h262zM516 115q-31 -58 -87 -92.5t-134 -34.5q-56 0 -103 19
t-80.5 53t-52.5 81t-19 104q0 55 19 102t52.5 81.5t79 54t98.5 19.5q54 0 98.5 -19.5t77 -54t50.5 -81.5t18 -102q0 -14 -1 -35h-377q2 -27 14 -49.5t31 -39t44 -26t52 -9.5q48 0 76 21t49 53z" />
    <glyph glyph-name="Edotaccent" unicode="&#x116;" horiz-adv-x="535" 
d="M82 700h400v-109h-280v-178h258v-106h-258v-198h282v-109h-402v700zM352 832q0 -28 -20 -48t-49 -20q-28 0 -48 19.5t-20 48.5t20 49t48 20q29 0 49 -20.5t20 -48.5z" />
    <glyph glyph-name="edotaccent" unicode="&#x117;" horiz-adv-x="568" 
d="M418 294q-3 24 -14 45t-28 36t-40 23.5t-49 8.5t-48.5 -10t-40 -25.5t-28.5 -36t-14 -41.5h262zM361 633q0 -29 -20.5 -50t-51.5 -21q-29 0 -50 21t-21 50q0 30 21 51t50 21q31 0 51.5 -21.5t20.5 -50.5zM516 115q-31 -58 -87 -92.5t-134 -34.5q-56 0 -103 19t-80.5 53
t-52.5 81t-19 104q0 55 19 102t52.5 81.5t79 54t98.5 19.5q54 0 98.5 -19.5t77 -54t50.5 -81.5t18 -102q0 -14 -1 -35h-377q2 -27 14 -49.5t31 -39t44 -26t52 -9.5q48 0 76 21t49 53z" />
    <glyph glyph-name="Eogonek" unicode="&#x118;" horiz-adv-x="535" 
d="M82 700h400v-109h-280v-178h258v-106h-258v-198h282v-109h-13q-23 -6 -43 -15.5t-35 -22t-24 -27.5t-9 -30q0 -18 11 -27t31 -9q26 0 46 13v-74q-30 -14 -67 -14q-51 0 -80 25t-29 67q0 69 85 114h-275v700z" />
    <glyph glyph-name="eogonek" unicode="&#x119;" horiz-adv-x="568" 
d="M516 115q-15 -28 -36.5 -52.5t-47.5 -47.5t-40.5 -48t-14.5 -53q0 -45 42 -45q25 0 47 13v-74q-31 -14 -71 -14q-50 0 -78.5 26t-28.5 67q0 31 12 56t33 48q-20 -3 -38 -3q-56 0 -103 19t-80.5 53t-52.5 81t-19 104q0 55 19 102t52.5 81.5t79 54t98.5 19.5
q54 0 98.5 -19.5t77 -54t50.5 -81.5t18 -102q0 -14 -1 -35h-377q2 -27 14 -49.5t31 -39t44 -26t52 -9.5q48 0 76 21t49 53zM418 294q-3 24 -14 45t-28 36t-40 23.5t-49 8.5t-48.5 -10t-40 -25.5t-28.5 -36t-14 -41.5h262z" />
    <glyph glyph-name="Ecaron" unicode="&#x11a;" horiz-adv-x="535" 
d="M82 700h400v-109h-280v-178h258v-106h-258v-198h282v-109h-402v700zM438 898l-110 -143h-90l-111 143h106l51 -68l51 68h103z" />
    <glyph glyph-name="ecaron" unicode="&#x11b;" horiz-adv-x="568" 
d="M444 718l-110 -143h-90l-111 143h106l51 -68l51 68h103zM418 294q-3 24 -14 45t-28 36t-40 23.5t-49 8.5t-48.5 -10t-40 -25.5t-28.5 -36t-14 -41.5h262zM516 115q-31 -58 -87 -92.5t-134 -34.5q-56 0 -103 19t-80.5 53t-52.5 81t-19 104q0 55 19 102t52.5 81.5t79 54
t98.5 19.5q54 0 98.5 -19.5t77 -54t50.5 -81.5t18 -102q0 -14 -1 -35h-377q2 -27 14 -49.5t31 -39t44 -26t52 -9.5q48 0 76 21t49 53z" />
    <glyph glyph-name="Gcircumflex" unicode="&#x11c;" horiz-adv-x="789" 
d="M608 480q-29 57 -81.5 88t-119.5 31q-50 0 -93.5 -19.5t-76 -53.5t-51 -79t-18.5 -97q0 -51 18.5 -96.5t51 -79.5t76 -53.5t94.5 -19.5q42 0 77.5 13t63 36t45.5 54.5t24 69.5h-228v105h356v-45q0 -73 -25 -136.5t-70 -110t-107 -73t-137 -26.5t-141 28.5t-115 77.5
t-77 115t-28 141t28.5 141t78 115.5t115 78t140.5 28.5q51 0 97.5 -12.5t86 -36t71 -56.5t52.5 -74zM250 755l111 143h90l110 -143h-106l-51 67l-50 -67h-104z" />
    <glyph glyph-name="gcircumflex" unicode="&#x11d;" horiz-adv-x="622" 
d="M436 84q-25 -35 -67.5 -57t-93.5 -22q-50 0 -93 19t-74.5 52t-49.5 78t-18 98t18 98.5t49.5 79.5t74.5 53t93 19q51 0 93.5 -21t67.5 -57v66h114v-460q0 -57 -17.5 -104t-50.5 -80.5t-80.5 -52t-107.5 -18.5q-82 0 -143.5 34t-93.5 95l92 58q23 -42 60.5 -64t84.5 -22
q66 0 104 40.5t38 112.5v55zM441 252q0 30 -11 57t-30 46.5t-45 31t-56 11.5t-56 -11.5t-45 -31t-30 -46.5t-11 -57q0 -31 11 -57.5t30 -46.5t45 -31.5t56 -11.5t56 11.5t45 31.5t30 46.5t11 57.5zM148 575l111 143h90l110 -143h-106l-51 68l-50 -68h-104z" />
    <glyph glyph-name="Gbreve" unicode="&#x11e;" horiz-adv-x="789" 
d="M608 480q-29 57 -81.5 88t-119.5 31q-50 0 -93.5 -19.5t-76 -53.5t-51 -79t-18.5 -97q0 -51 18.5 -96.5t51 -79.5t76 -53.5t94.5 -19.5q42 0 77.5 13t63 36t45.5 54.5t24 69.5h-228v105h356v-45q0 -73 -25 -136.5t-70 -110t-107 -73t-137 -26.5t-141 28.5t-115 77.5
t-77 115t-28 141t28.5 141t78 115.5t115 78t140.5 28.5q51 0 97.5 -12.5t86 -36t71 -56.5t52.5 -74zM407 832q26 0 42 17t18 46h82q0 -63 -40 -101t-102 -38q-63 0 -103 38t-40 101h82q2 -29 18.5 -46t42.5 -17z" />
    <glyph glyph-name="gbreve" unicode="&#x11f;" horiz-adv-x="622" 
d="M436 84q-25 -35 -67.5 -57t-93.5 -22q-50 0 -93 19t-74.5 52t-49.5 78t-18 98t18 98.5t49.5 79.5t74.5 53t93 19q51 0 93.5 -21t67.5 -57v66h114v-460q0 -57 -17.5 -104t-50.5 -80.5t-80.5 -52t-107.5 -18.5q-82 0 -143.5 34t-93.5 95l92 58q23 -42 60.5 -64t84.5 -22
q66 0 104 40.5t38 112.5v55zM441 252q0 30 -11 57t-30 46.5t-45 31t-56 11.5t-56 -11.5t-45 -31t-30 -46.5t-11 -57q0 -31 11 -57.5t30 -46.5t45 -31.5t56 -11.5t56 11.5t45 31.5t30 46.5t11 57.5zM303 650q26 0 42 17t18 46h82q0 -63 -40 -101t-102 -38q-63 0 -103 38
t-40 101h82q2 -29 18.5 -46t42.5 -17z" />
    <glyph glyph-name="Gdotaccent" unicode="&#x120;" horiz-adv-x="789" 
d="M608 480q-29 57 -81.5 88t-119.5 31q-50 0 -93.5 -19.5t-76 -53.5t-51 -79t-18.5 -97q0 -51 18.5 -96.5t51 -79.5t76 -53.5t94.5 -19.5q42 0 77.5 13t63 36t45.5 54.5t24 69.5h-228v105h356v-45q0 -73 -25 -136.5t-70 -110t-107 -73t-137 -26.5t-141 28.5t-115 77.5
t-77 115t-28 141t28.5 141t78 115.5t115 78t140.5 28.5q51 0 97.5 -12.5t86 -36t71 -56.5t52.5 -74zM477 832q0 -28 -20 -48t-49 -20q-28 0 -48 19.5t-20 48.5t20 49t48 20q29 0 49 -20.5t20 -48.5z" />
    <glyph glyph-name="gdotaccent" unicode="&#x121;" horiz-adv-x="622" 
d="M436 84q-25 -35 -67.5 -57t-93.5 -22q-50 0 -93 19t-74.5 52t-49.5 78t-18 98t18 98.5t49.5 79.5t74.5 53t93 19q51 0 93.5 -21t67.5 -57v66h114v-460q0 -57 -17.5 -104t-50.5 -80.5t-80.5 -52t-107.5 -18.5q-82 0 -143.5 34t-93.5 95l92 58q23 -42 60.5 -64t84.5 -22
q66 0 104 40.5t38 112.5v55zM441 252q0 30 -11 57t-30 46.5t-45 31t-56 11.5t-56 -11.5t-45 -31t-30 -46.5t-11 -57q0 -31 11 -57.5t30 -46.5t45 -31.5t56 -11.5t56 11.5t45 31.5t30 46.5t11 57.5zM375 633q0 -29 -20.5 -50t-51.5 -21q-29 0 -50 21t-21 50q0 30 21 51t50 21
q31 0 51.5 -21.5t20.5 -50.5z" />
    <glyph glyph-name="Gcommaaccent" unicode="&#x122;" horiz-adv-x="789" 
d="M608 480q-29 57 -81.5 88t-119.5 31q-50 0 -93.5 -19.5t-76 -53.5t-51 -79t-18.5 -97q0 -51 18.5 -96.5t51 -79.5t76 -53.5t94.5 -19.5q42 0 77.5 13t63 36t45.5 54.5t24 69.5h-228v105h356v-45q0 -73 -25 -136.5t-70 -110t-107 -73t-137 -26.5t-141 28.5t-115 77.5
t-77 115t-28 141t28.5 141t78 115.5t115 78t140.5 28.5q51 0 97.5 -12.5t86 -36t71 -56.5t52.5 -74zM394 -167h-2q-21 1 -36 16t-15 37q0 29 19.5 46.5t45.5 17.5q29 0 47.5 -17.5t18.5 -45.5q0 -14 -4.5 -28t-10.5 -27l-35 -72h-66z" />
    <glyph glyph-name="gcommaaccent" unicode="&#x123;" horiz-adv-x="622" 
d="M436 84q-25 -35 -67.5 -57t-93.5 -22q-50 0 -93 19t-74.5 52t-49.5 78t-18 98t18 98.5t49.5 79.5t74.5 53t93 19q51 0 93.5 -21t67.5 -57v66h114v-460q0 -57 -17.5 -104t-50.5 -80.5t-80.5 -52t-107.5 -18.5q-82 0 -143.5 34t-93.5 95l92 58q23 -42 60.5 -64t84.5 -22
q66 0 104 40.5t38 112.5v55zM441 252q0 30 -11 57t-30 46.5t-45 31t-56 11.5t-56 -11.5t-45 -31t-30 -46.5t-11 -57q0 -31 11 -57.5t30 -46.5t45 -31.5t56 -11.5t56 11.5t45 31.5t30 46.5t11 57.5zM349 752l-37 -72h1q21 -1 36 -16.5t15 -38.5q0 -28 -18.5 -45.5
t-45.5 -17.5t-46.5 18t-19.5 45q0 16 5 30t13 31l33 66h64z" />
    <glyph glyph-name="Hcircumflex" unicode="&#x124;" horiz-adv-x="732" 
d="M82 700h120v-283h328v283h120v-700h-120v303h-328v-303h-120v700zM211 755l111 143h90l110 -143h-106l-51 67l-50 -67h-104z" />
    <glyph glyph-name="hcircumflex" unicode="&#x125;" horiz-adv-x="594" 
d="M188 0h-116v700h116v-275q23 35 60.5 56t89.5 21q90 0 140 -55.5t50 -151.5v-295h-116v273q0 57 -28 89.5t-81 32.5q-52 0 -83.5 -37t-31.5 -100v-258zM-24 755l111 143h90l110 -143h-106l-51 67l-50 -67h-104z" />
    <glyph glyph-name="Hbar" unicode="&#x126;" horiz-adv-x="762" 
d="M97 505h-74v100h74v95h120v-95h328v95h120v-95h74v-100h-74v-505h-120v303h-328v-303h-120v505zM545 417v88h-328v-88h328z" />
    <glyph glyph-name="hbar" unicode="&#x127;" 
d="M78 629v71h116v-71h197v-79h-197v-134q23 35 60.5 56t89.5 21q90 0 140 -55.5t50 -151.5v-286h-116v264q0 57 -28 89.5t-81 32.5q-52 0 -83.5 -37t-31.5 -100v-249h-116v550h-66v79h66z" />
    <glyph glyph-name="Itilde" unicode="&#x128;" horiz-adv-x="284" 
d="M202 700v-700h-120v700h120zM-28 765q-1 61 28 90t73 29q25 0 43 -7.5t32 -16.5t26 -16.5t26 -7.5q18 0 27.5 12t9.5 32h72q1 -62 -28.5 -90.5t-72.5 -28.5q-26 0 -43.5 7.5t-31.5 16.5t-26 16.5t-26 7.5q-19 0 -28 -12t-9 -32h-72z" />
    <glyph glyph-name="itilde" unicode="&#x129;" horiz-adv-x="260" 
d="M188 490v-490h-116v490h116zM-41 583q-1 61 28 90t73 29q25 0 43 -7.5t32 -16.5t26 -16.5t26 -7.5q18 0 27.5 12t9.5 32h72q1 -62 -28.5 -90.5t-72.5 -28.5q-26 0 -43.5 7.5t-31.5 16.5t-26 16.5t-26 7.5q-19 0 -28 -12t-9 -32h-72z" />
    <glyph glyph-name="Imacron" unicode="&#x12a;" horiz-adv-x="284" 
d="M202 700v-700h-120v700h120zM-2 772v77h288v-77h-288z" />
    <glyph glyph-name="imacron" unicode="&#x12b;" horiz-adv-x="260" 
d="M188 490v-490h-116v490h116zM-14 590v77h288v-77h-288z" />
    <glyph glyph-name="Ibreve" unicode="&#x12c;" horiz-adv-x="284" 
d="M202 700v-700h-120v700h120zM142 832q26 0 42 17t18 46h82q0 -63 -40 -101t-102 -38q-63 0 -103 38t-40 101h82q2 -29 18.5 -46t42.5 -17z" />
    <glyph glyph-name="ibreve" unicode="&#x12d;" horiz-adv-x="260" 
d="M188 490v-490h-116v490h116zM130 650q26 0 42 17t18 46h82q0 -63 -40 -101t-102 -38q-63 0 -103 38t-40 101h82q2 -29 18.5 -46t42.5 -17z" />
    <glyph glyph-name="Iogonek" unicode="&#x12e;" horiz-adv-x="284" 
d="M202 700v-700q-45 -12 -68.5 -37t-23.5 -54q0 -20 10.5 -30.5t28.5 -10.5q11 0 24 3t24 11v-74q-30 -14 -68 -14q-50 0 -78.5 26.5t-28.5 70.5q0 33 15.5 60t44.5 49v700h120z" />
    <glyph glyph-name="iogonek" unicode="&#x12f;" horiz-adv-x="260" 
d="M188 0q-43 -13 -68 -37.5t-25 -53.5q0 -20 11 -30.5t30 -10.5q11 0 24 3t24 11v-74q-30 -14 -68 -14q-50 0 -78.5 26.5t-28.5 70.5q0 33 16.5 60t46.5 49v490h116v-490zM201 633q0 -29 -20.5 -50t-51.5 -21q-29 0 -50 21t-21 50q0 30 21 51t50 21q31 0 51.5 -21.5
t20.5 -50.5z" />
    <glyph glyph-name="Idotaccent" unicode="&#x130;" horiz-adv-x="284" 
d="M202 700v-700h-120v700h120zM210 832q0 -28 -20 -48t-49 -20q-28 0 -48 19.5t-20 48.5t20 49t48 20q29 0 49 -20.5t20 -48.5z" />
    <glyph glyph-name="dotlessi" unicode="&#x131;" horiz-adv-x="260" 
d="M188 490v-490h-116v490h116z" />
    <glyph glyph-name="IJ" unicode="&#x132;" horiz-adv-x="782" 
d="M202 700v-700h-120v700h120zM709 217q0 -53 -15 -95.5t-43 -72t-68.5 -45.5t-90.5 -16q-76 0 -132 38.5t-82 106.5l102 56q18 -42 46 -65.5t66 -23.5q47 0 72 31t25 87v482h120v-483z" />
    <glyph glyph-name="ij" unicode="&#x133;" horiz-adv-x="523" 
d="M72 0v490h116v-490h-116zM201 633q0 -29 -20.5 -50t-51.5 -21q-29 0 -50 21t-21 50q0 30 21 51t50 21q31 0 51.5 -21.5t20.5 -50.5zM335 490h116v-521q0 -95 -45.5 -143t-122.5 -48q-23 0 -38.5 3.5t-27.5 8.5v101q18 -9 46 -9q34 0 53 23.5t19 67.5v517zM464 633
q0 -29 -20.5 -50t-51.5 -21q-29 0 -50 21t-21 50q0 30 21 51t50 21q31 0 51.5 -21.5t20.5 -50.5z" />
    <glyph glyph-name="Jcircumflex" unicode="&#x134;" horiz-adv-x="517" 
d="M444 217q0 -53 -15 -95.5t-43 -72t-68.5 -45.5t-90.5 -16q-76 0 -132 38.5t-82 106.5l102 56q18 -42 46 -65.5t66 -23.5q47 0 72 31t25 87v482h120v-483zM229 755l111 143h90l110 -143h-106l-51 67l-50 -67h-104z" />
    <glyph glyph-name="jcircumflex" unicode="&#x135;" horiz-adv-x="263" 
d="M75 490h116v-521q0 -95 -45.5 -143t-122.5 -48q-23 0 -38.5 3.5t-27.5 8.5v102q9 -5 21 -7t25 -2q34 0 53 23t19 67v517zM-23 575l111 143h90l110 -143h-106l-51 68l-50 -68h-104z" />
    <glyph glyph-name="Kcommaaccent" unicode="&#x136;" horiz-adv-x="644" 
d="M202 408l264 292h146l-293 -320l316 -380h-151l-244 299l-38 -42v-257h-120v700h120v-292zM323 -167h-2q-21 1 -36 16t-15 37q0 29 19.5 46.5t45.5 17.5q29 0 47.5 -17.5t18.5 -45.5q0 -14 -4.5 -28t-10.5 -27l-35 -72h-66z" />
    <glyph glyph-name="kcommaaccent" unicode="&#x137;" horiz-adv-x="536" 
d="M513 490l-213 -213l229 -277h-142l-175 217l-25 -23v-194h-115v700h115v-395l184 185h142zM270 -167h-2q-21 1 -36 16t-15 37q0 29 19.5 46.5t45.5 17.5q29 0 47.5 -17.5t18.5 -45.5q0 -14 -4.5 -28t-10.5 -27l-35 -72h-66z" />
    <glyph glyph-name="kgreenlandic" unicode="&#x138;" horiz-adv-x="536" 
d="M187 490v-185l184 185h142l-213 -213l229 -277h-142l-177 219l-23 -21v-198h-115v490h115z" />
    <glyph glyph-name="Lacute" unicode="&#x139;" horiz-adv-x="469" 
d="M90 755l96 143h127l-121 -143h-102zM202 700v-588h246v-112h-366v700h120z" />
    <glyph glyph-name="lacute" unicode="&#x13a;" horiz-adv-x="260" 
d="M188 700v-700h-116v700h116zM78 755l96 143h127l-121 -143h-102z" />
    <glyph glyph-name="Lcommaaccent" unicode="&#x13b;" horiz-adv-x="469" 
d="M202 700v-588h246v-112h-366v700h120zM252 -167h-2q-21 1 -36 16t-15 37q0 29 19.5 46.5t45.5 17.5q29 0 47.5 -17.5t18.5 -45.5q0 -14 -4.5 -28t-10.5 -27l-35 -72h-66z" />
    <glyph glyph-name="lcommaaccent" unicode="&#x13c;" horiz-adv-x="260" 
d="M188 700v-700h-116v700h116zM119 -167h-2q-21 1 -36 16t-15 37q0 29 19.5 46.5t45.5 17.5q29 0 47.5 -17.5t18.5 -45.5q0 -14 -4.5 -28t-10.5 -27l-35 -72h-66z" />
    <glyph glyph-name="Lcaron" unicode="&#x13d;" horiz-adv-x="469" 
d="M202 700v-588h246v-112h-366v700h120zM270 545l30 167h115l-48 -167h-97z" />
    <glyph glyph-name="lcaron" unicode="&#x13e;" horiz-adv-x="260" 
d="M188 700v-700h-116v700h116zM227 545l30 167h115l-48 -167h-97z" />
    <glyph glyph-name="Ldot" unicode="&#x13f;" horiz-adv-x="469" 
d="M202 700v-588h246v-112h-366v700h120zM443 353q0 -29 -20.5 -50t-51.5 -21q-29 0 -50 21t-21 50q0 30 21 51t50 21q31 0 51.5 -21.5t20.5 -50.5z" />
    <glyph glyph-name="ldot" unicode="&#x140;" horiz-adv-x="367" 
d="M385 333q0 -29 -20.5 -50t-51.5 -21q-29 0 -50 21t-21 50q0 30 21 51t50 21q31 0 51.5 -21.5t20.5 -50.5zM188 700v-700h-116v700h116z" />
    <glyph glyph-name="Lslash" unicode="&#x141;" horiz-adv-x="484" 
d="M217 700v-294l154 74v-100l-154 -74v-194h246v-112h-366v248l-85 -41v100l85 41v352h120z" />
    <glyph glyph-name="lslash" unicode="&#x142;" horiz-adv-x="305" 
d="M210 700v-254l85 45v-99l-85 -45v-347h-116v285l-82 -43v100l82 43v315h116z" />
    <glyph glyph-name="Nacute" unicode="&#x143;" horiz-adv-x="774" 
d="M692 700v-700h-117l-377 514v-514h-116v700h122l372 -513v513h116zM344 755l96 143h127l-121 -143h-102z" />
    <glyph glyph-name="nacute" unicode="&#x144;" horiz-adv-x="594" 
d="M188 0h-116v490h116v-65q23 35 60.5 56t89.5 21q90 0 140 -55.5t50 -151.5v-295h-116v273q0 57 -28 89.5t-81 32.5q-52 0 -83.5 -37t-31.5 -100v-258zM239 575l96 143h127l-121 -143h-102z" />
    <glyph glyph-name="Ncommaaccent" unicode="&#x145;" horiz-adv-x="774" 
d="M692 700v-700h-117l-377 514v-514h-116v700h122l372 -513v513h116zM367 -167h-2q-21 1 -36 16t-15 37q0 29 19.5 46.5t45.5 17.5q29 0 47.5 -17.5t18.5 -45.5q0 -14 -4.5 -28t-10.5 -27l-35 -72h-66z" />
    <glyph glyph-name="ncommaaccent" unicode="&#x146;" horiz-adv-x="594" 
d="M188 0h-116v490h116v-65q23 35 60.5 56t89.5 21q90 0 140 -55.5t50 -151.5v-295h-116v273q0 57 -28 89.5t-81 32.5q-52 0 -83.5 -37t-31.5 -100v-258zM289 -167h-2q-21 1 -36 16t-15 37q0 29 19.5 46.5t45.5 17.5q29 0 47.5 -17.5t18.5 -45.5q0 -14 -4.5 -28t-10.5 -27
l-35 -72h-66z" />
    <glyph glyph-name="Ncaron" unicode="&#x147;" horiz-adv-x="774" 
d="M692 700v-700h-117l-377 514v-514h-116v700h122l372 -513v513h116zM549 898l-110 -143h-90l-111 143h106l51 -68l51 68h103z" />
    <glyph glyph-name="ncaron" unicode="&#x148;" horiz-adv-x="594" 
d="M188 0h-116v490h116v-65q23 35 60.5 56t89.5 21q90 0 140 -55.5t50 -151.5v-295h-116v273q0 57 -28 89.5t-81 32.5q-52 0 -83.5 -37t-31.5 -100v-258zM457 718l-110 -143h-90l-111 143h106l51 -68l51 68h103z" />
    <glyph glyph-name="Eng" unicode="&#x14a;" horiz-adv-x="774" 
d="M692 700v-705q0 -104 -53 -160.5t-149 -56.5q-33 0 -54.5 5t-34.5 9v106q10 -4 26 -7.5t42 -3.5q49 0 76 28.5t29 83.5v2l-376 513v-514h-116v700h122l372 -513v513h116z" />
    <glyph glyph-name="eng" unicode="&#x14b;" horiz-adv-x="594" 
d="M188 0h-116v490h116v-65q23 35 60.5 56t89.5 21q90 0 140 -55.5t50 -151.5v-326q0 -95 -45.5 -143t-122.5 -48q-23 0 -38.5 3.5t-27.5 8.5v101q18 -9 46 -9q34 0 53 23.5t19 67.5v300q0 57 -28 89.5t-81 32.5q-52 0 -83.5 -37t-31.5 -100v-258z" />
    <glyph glyph-name="Omacron" unicode="&#x14c;" horiz-adv-x="818" 
d="M46 350q0 76 28.5 142t77.5 115t115.5 77.5t141.5 28.5t141.5 -28.5t115.5 -77.5t77.5 -115t28.5 -142q0 -75 -28.5 -141t-77.5 -115t-115.5 -77.5t-141.5 -28.5t-141.5 28.5t-115.5 77.5t-77.5 115t-28.5 141zM169 350q0 -51 18.5 -96t51 -78t76 -52.5t94.5 -19.5
t94.5 19.5t76 52.5t51 78t18.5 96t-18.5 96t-51 78.5t-76 53t-94.5 19.5t-94.5 -19.5t-76 -53t-51 -78.5t-18.5 -96zM265 772v77h288v-77h-288z" />
    <glyph glyph-name="omacron" unicode="&#x14d;" horiz-adv-x="602" 
d="M301 502q56 0 104 -20t83 -54.5t54.5 -81.5t19.5 -101t-19.5 -101t-54.5 -81.5t-83 -54.5t-104 -20t-104 20t-83 54.5t-54.5 81.5t-19.5 101t19.5 101t54.5 81.5t83 54.5t104 20zM301 396q-31 0 -57.5 -12t-46 -32t-31 -48t-11.5 -59q0 -32 11.5 -59.5t31 -47.5t46 -32
t57.5 -12t57.5 12t46 32t31 47.5t11.5 59.5q0 31 -11.5 59t-31 48t-46 32t-57.5 12zM157 590v77h288v-77h-288z" />
    <glyph glyph-name="Obreve" unicode="&#x14e;" horiz-adv-x="818" 
d="M46 350q0 76 28.5 142t77.5 115t115.5 77.5t141.5 28.5t141.5 -28.5t115.5 -77.5t77.5 -115t28.5 -142q0 -75 -28.5 -141t-77.5 -115t-115.5 -77.5t-141.5 -28.5t-141.5 28.5t-115.5 77.5t-77.5 115t-28.5 141zM169 350q0 -51 18.5 -96t51 -78t76 -52.5t94.5 -19.5
t94.5 19.5t76 52.5t51 78t18.5 96t-18.5 96t-51 78.5t-76 53t-94.5 19.5t-94.5 -19.5t-76 -53t-51 -78.5t-18.5 -96zM409 832q26 0 42 17t18 46h82q0 -63 -40 -101t-102 -38q-63 0 -103 38t-40 101h82q2 -29 18.5 -46t42.5 -17z" />
    <glyph glyph-name="obreve" unicode="&#x14f;" horiz-adv-x="602" 
d="M301 502q56 0 104 -20t83 -54.5t54.5 -81.5t19.5 -101t-19.5 -101t-54.5 -81.5t-83 -54.5t-104 -20t-104 20t-83 54.5t-54.5 81.5t-19.5 101t19.5 101t54.5 81.5t83 54.5t104 20zM301 396q-31 0 -57.5 -12t-46 -32t-31 -48t-11.5 -59q0 -32 11.5 -59.5t31 -47.5t46 -32
t57.5 -12t57.5 12t46 32t31 47.5t11.5 59.5q0 31 -11.5 59t-31 48t-46 32t-57.5 12zM301 650q26 0 42 17t18 46h82q0 -63 -40 -101t-102 -38q-63 0 -103 38t-40 101h82q2 -29 18.5 -46t42.5 -17z" />
    <glyph glyph-name="Ohungarumlaut" unicode="&#x150;" horiz-adv-x="818" 
d="M46 350q0 76 28.5 142t77.5 115t115.5 77.5t141.5 28.5t141.5 -28.5t115.5 -77.5t77.5 -115t28.5 -142q0 -75 -28.5 -141t-77.5 -115t-115.5 -77.5t-141.5 -28.5t-141.5 28.5t-115.5 77.5t-77.5 115t-28.5 141zM169 350q0 -51 18.5 -96t51 -78t76 -52.5t94.5 -19.5
t94.5 19.5t76 52.5t51 78t18.5 96t-18.5 96t-51 78.5t-76 53t-94.5 19.5t-94.5 -19.5t-76 -53t-51 -78.5t-18.5 -96zM276 755l87 143h112l-107 -143h-92zM449 755l86 143h112l-107 -143h-91z" />
    <glyph glyph-name="ohungarumlaut" unicode="&#x151;" horiz-adv-x="602" 
d="M301 502q56 0 104 -20t83 -54.5t54.5 -81.5t19.5 -101t-19.5 -101t-54.5 -81.5t-83 -54.5t-104 -20t-104 20t-83 54.5t-54.5 81.5t-19.5 101t19.5 101t54.5 81.5t83 54.5t104 20zM301 396q-31 0 -57.5 -12t-46 -32t-31 -48t-11.5 -59q0 -32 11.5 -59.5t31 -47.5t46 -32
t57.5 -12t57.5 12t46 32t31 47.5t11.5 59.5q0 31 -11.5 59t-31 48t-46 32t-57.5 12zM171 572l86 142h112l-107 -142h-91zM343 572l86 142h111l-106 -142h-91z" />
    <glyph glyph-name="OE" unicode="&#x152;" horiz-adv-x="959" 
d="M46 350q0 74 27.5 138t75.5 111t112 74t137 27h508v-109h-281v-178h259v-106h-259v-198h283v-109h-510q-73 0 -137 27t-112 74t-75.5 111t-27.5 138zM169 350q0 -50 17.5 -94t48.5 -76t73.5 -50.5t92.5 -18.5h105v478h-105q-50 0 -92.5 -18.5t-73.5 -51t-48.5 -76
t-17.5 -93.5z" />
    <glyph glyph-name="oe" unicode="&#x153;" horiz-adv-x="961" 
d="M909 115q-30 -58 -85.5 -92.5t-131.5 -34.5q-63 0 -113 24.5t-82 69.5q-34 -44 -84.5 -69t-111.5 -25q-56 0 -104 20t-83 54.5t-54.5 81.5t-19.5 101t19.5 101t54.5 81.5t83 54.5t104 20q62 0 112.5 -25.5t84.5 -69.5q32 45 80.5 70t107.5 25q52 0 96.5 -19.5t76 -54
t49.5 -81.5t18 -102q0 -14 -1 -35h-369q2 -27 13.5 -49.5t30 -39t42.5 -26t51 -9.5q47 0 74 21t47 53zM301 396q-31 0 -57.5 -12t-46 -32t-31 -48t-11.5 -59q0 -32 11.5 -59.5t31 -47.5t46 -32t57.5 -12t57.5 12t46 32t31 47.5t11.5 59.5q0 31 -11.5 59t-31 48t-46 32
t-57.5 12zM811 294q-2 24 -12.5 45t-27.5 36t-39.5 23.5t-47.5 8.5t-47 -10t-39 -25.5t-27.5 -36t-13.5 -41.5h254z" />
    <glyph glyph-name="Racute" unicode="&#x154;" horiz-adv-x="605" 
d="M201 0h-119v700h219q53 0 97 -14t76 -41.5t49.5 -67t17.5 -90.5q0 -78 -44 -129t-114 -71l206 -287h-141l-193 277h-54v-277zM201 378h100q53 0 86.5 28.5t33.5 79.5t-33.5 78.5t-86.5 27.5h-100v-214zM218 755l96 143h127l-121 -143h-102z" />
    <glyph glyph-name="racute" unicode="&#x155;" horiz-adv-x="378" 
d="M354 379q-8 4 -30 4q-64 0 -100.5 -45.5t-36.5 -121.5v-216h-115v490h114v-84q18 43 58 68.5t88 25.5q19 0 22 -3v-118zM141 575l96 143h127l-121 -143h-102z" />
    <glyph glyph-name="Rcommaaccent" unicode="&#x156;" horiz-adv-x="605" 
d="M201 0h-119v700h219q53 0 97 -14t76 -41.5t49.5 -67t17.5 -90.5q0 -78 -44 -129t-114 -71l206 -287h-141l-193 277h-54v-277zM201 378h100q53 0 86.5 28.5t33.5 79.5t-33.5 78.5t-86.5 27.5h-100v-214zM312 -167h-2q-21 1 -36 16t-15 37q0 29 19.5 46.5t45.5 17.5
q29 0 47.5 -17.5t18.5 -45.5q0 -14 -4.5 -28t-10.5 -27l-35 -72h-66z" />
    <glyph glyph-name="rcommaaccent" unicode="&#x157;" horiz-adv-x="378" 
d="M354 379q-8 4 -30 4q-64 0 -100.5 -45.5t-36.5 -121.5v-216h-115v490h114v-84q18 43 58 68.5t88 25.5q19 0 22 -3v-118zM119 -167h-2q-21 1 -36 16t-15 37q0 29 19.5 46.5t45.5 17.5q29 0 47.5 -17.5t18.5 -45.5q0 -14 -4.5 -28t-10.5 -27l-35 -72h-66z" />
    <glyph glyph-name="Rcaron" unicode="&#x158;" horiz-adv-x="605" 
d="M201 0h-119v700h219q53 0 97 -14t76 -41.5t49.5 -67t17.5 -90.5q0 -78 -44 -129t-114 -71l206 -287h-141l-193 277h-54v-277zM201 378h100q53 0 86.5 28.5t33.5 79.5t-33.5 78.5t-86.5 27.5h-100v-214zM449 898l-110 -143h-90l-111 143h106l51 -68l51 68h103z" />
    <glyph glyph-name="rcaron" unicode="&#x159;" horiz-adv-x="378" 
d="M354 379q-8 4 -30 4q-64 0 -100.5 -45.5t-36.5 -121.5v-216h-115v490h114v-84q18 43 58 68.5t88 25.5q19 0 22 -3v-118zM369 718l-110 -143h-90l-111 143h106l51 -68l51 68h103z" />
    <glyph glyph-name="Sacute" unicode="&#x15a;" horiz-adv-x="556" 
d="M139 213q19 -51 56.5 -81.5t90.5 -30.5q45 0 78 23.5t33 68.5q0 65 -88 97l-83 30q-78 28 -121 75t-43 119q0 45 16.5 82t46 63t69 40t85.5 14q76 -1 136 -41.5t89 -113.5l-103 -52q-16 40 -46 67.5t-75 27.5q-42 0 -69 -22t-27 -58q0 -32 22 -52.5t65 -37.5l86 -33
q82 -32 122.5 -79.5t40.5 -117.5q0 -50 -19 -89.5t-51 -67t-75 -42t-91 -14.5q-88 0 -155 45.5t-96 129.5zM222 755l96 143h127l-121 -143h-102z" />
    <glyph glyph-name="sacute" unicode="&#x15b;" horiz-adv-x="429" 
d="M122 162q13 -34 39 -54.5t59 -20.5q27 0 46.5 12.5t19.5 38.5q0 20 -13.5 32t-42.5 21l-59 19q-125 40 -125 142q0 34 13.5 62t36.5 47.5t53.5 30t65.5 10.5q60 0 107.5 -30t70.5 -81l-93 -50q-14 29 -35.5 47t-49.5 18q-25 0 -42 -12t-17 -33q0 -35 55 -53l58 -19
q69 -23 99 -58.5t30 -84.5q0 -38 -14.5 -67t-39.5 -49.5t-57.5 -31t-68.5 -10.5q-69 0 -119 34t-71 91zM150 575l96 143h127l-121 -143h-102z" />
    <glyph glyph-name="Scircumflex" unicode="&#x15c;" horiz-adv-x="556" 
d="M139 213q19 -51 56.5 -81.5t90.5 -30.5q45 0 78 23.5t33 68.5q0 65 -88 97l-83 30q-78 28 -121 75t-43 119q0 45 16.5 82t46 63t69 40t85.5 14q76 -1 136 -41.5t89 -113.5l-103 -52q-16 40 -46 67.5t-75 27.5q-42 0 -69 -22t-27 -58q0 -32 22 -52.5t65 -37.5l86 -33
q82 -32 122.5 -79.5t40.5 -117.5q0 -50 -19 -89.5t-51 -67t-75 -42t-91 -14.5q-88 0 -155 45.5t-96 129.5zM121 755l111 143h90l110 -143h-106l-51 67l-50 -67h-104z" />
    <glyph glyph-name="scircumflex" unicode="&#x15d;" horiz-adv-x="429" 
d="M122 162q13 -34 39 -54.5t59 -20.5q27 0 46.5 12.5t19.5 38.5q0 20 -13.5 32t-42.5 21l-59 19q-125 40 -125 142q0 34 13.5 62t36.5 47.5t53.5 30t65.5 10.5q60 0 107.5 -30t70.5 -81l-93 -50q-14 29 -35.5 47t-49.5 18q-25 0 -42 -12t-17 -33q0 -35 55 -53l58 -19
q69 -23 99 -58.5t30 -84.5q0 -38 -14.5 -67t-39.5 -49.5t-57.5 -31t-68.5 -10.5q-69 0 -119 34t-71 91zM57 575l111 143h90l110 -143h-106l-51 68l-50 -68h-104z" />
    <glyph glyph-name="Scedilla" unicode="&#x15e;" horiz-adv-x="556" 
d="M304 -47q38 0 63 -24t25 -61q0 -41 -28.5 -67t-72.5 -26q-42 0 -69 24t-32 59h70q2 -8 10 -16t22 -8q15 0 24 9t9 23t-9 22.5t-23 8.5q-17 0 -29 -14l-59 32l32 77q-72 11 -125.5 55t-78.5 116l106 50q19 -51 56.5 -81.5t90.5 -30.5q45 0 78 23.5t33 68.5q0 65 -88 97
l-83 30q-78 28 -121 75t-43 119q0 45 16.5 82t46 63t69 40t85.5 14q76 -1 136 -41.5t89 -113.5l-103 -52q-16 40 -46 67.5t-75 27.5q-42 0 -69 -22t-27 -58q0 -32 22 -52.5t65 -37.5l86 -33q82 -32 122.5 -79.5t40.5 -117.5q0 -47 -17 -85t-46.5 -65.5t-69 -43t-84.5 -18.5
l-18 -39q3 2 8.5 2.5t10.5 0.5z" />
    <glyph glyph-name="scedilla" unicode="&#x15f;" horiz-adv-x="429" 
d="M234 -47q38 0 63 -24t25 -61q0 -41 -28.5 -67t-72.5 -26q-42 0 -69 24t-32 59h70q2 -8 10 -16t22 -8q15 0 24 9t9 23t-9 22.5t-23 8.5q-17 0 -29 -14l-59 32l33 78q-51 11 -87 42t-53 78l94 49q13 -34 39 -54.5t59 -20.5q27 0 46.5 12.5t19.5 38.5q0 20 -13.5 32
t-42.5 21l-59 19q-125 40 -125 142q0 34 13.5 62t36.5 47.5t53.5 30t65.5 10.5q60 0 107.5 -30t70.5 -81l-93 -50q-14 29 -35.5 47t-49.5 18q-25 0 -42 -12t-17 -33q0 -35 55 -53l58 -19q69 -23 99 -58.5t30 -84.5q0 -36 -13 -64t-35.5 -48t-52.5 -31.5t-64 -13.5l-18 -39
q3 2 8.5 2.5t10.5 0.5z" />
    <glyph glyph-name="Scaron" unicode="&#x160;" horiz-adv-x="556" 
d="M139 213q19 -51 56.5 -81.5t90.5 -30.5q45 0 78 23.5t33 68.5q0 65 -88 97l-83 30q-78 28 -121 75t-43 119q0 45 16.5 82t46 63t69 40t85.5 14q76 -1 136 -41.5t89 -113.5l-103 -52q-16 40 -46 67.5t-75 27.5q-42 0 -69 -22t-27 -58q0 -32 22 -52.5t65 -37.5l86 -33
q82 -32 122.5 -79.5t40.5 -117.5q0 -50 -19 -89.5t-51 -67t-75 -42t-91 -14.5q-88 0 -155 45.5t-96 129.5zM432 898l-110 -143h-90l-111 143h106l51 -68l51 68h103z" />
    <glyph glyph-name="scaron" unicode="&#x161;" horiz-adv-x="429" 
d="M122 162q13 -34 39 -54.5t59 -20.5q27 0 46.5 12.5t19.5 38.5q0 20 -13.5 32t-42.5 21l-59 19q-125 40 -125 142q0 34 13.5 62t36.5 47.5t53.5 30t65.5 10.5q60 0 107.5 -30t70.5 -81l-93 -50q-14 29 -35.5 47t-49.5 18q-25 0 -42 -12t-17 -33q0 -35 55 -53l58 -19
q69 -23 99 -58.5t30 -84.5q0 -38 -14.5 -67t-39.5 -49.5t-57.5 -31t-68.5 -10.5q-69 0 -119 34t-71 91zM368 718l-110 -143h-90l-111 143h106l51 -68l51 68h103z" />
    <glyph glyph-name="Tcommaaccent" unicode="&#x162;" horiz-adv-x="547" 
d="M19 700h509v-111h-194v-589h-121v589h-194v111zM263 -167h-2q-21 1 -36 16t-15 37q0 29 19.5 46.5t45.5 17.5q29 0 47.5 -17.5t18.5 -45.5q0 -14 -4.5 -28t-10.5 -27l-35 -72h-66z" />
    <glyph glyph-name="tcommaaccent" unicode="&#x163;" horiz-adv-x="368" 
d="M208 635v-145h130v-98h-130v-220q0 -41 18.5 -59.5t57.5 -18.5q14 0 28.5 3.5t25.5 11.5v-103q-14 -8 -36 -13t-52 -5q-74 0 -115.5 43t-41.5 120v241h-73v98h73v145h115zM195 -167h-2q-21 1 -36 16t-15 37q0 29 19.5 46.5t45.5 17.5q29 0 47.5 -17.5t18.5 -45.5
q0 -14 -4.5 -28t-10.5 -27l-35 -72h-66z" />
    <glyph glyph-name="Tcaron" unicode="&#x164;" horiz-adv-x="547" 
d="M19 700h509v-111h-194v-589h-121v589h-194v111zM430 898l-110 -143h-90l-111 143h106l51 -68l51 68h103z" />
    <glyph glyph-name="tcaron" unicode="&#x165;" horiz-adv-x="368" 
d="M208 635v-145h130v-98h-130v-220q0 -41 18.5 -59.5t57.5 -18.5q14 0 28.5 3.5t25.5 11.5v-103q-14 -8 -36 -13t-52 -5q-74 0 -115.5 43t-41.5 120v241h-73v98h73v145h115zM262 545l30 167h115l-48 -167h-97z" />
    <glyph glyph-name="Tbar" unicode="&#x166;" horiz-adv-x="547" 
d="M19 700h509v-111h-194v-186h118v-105h-118v-298h-121v298h-118v105h118v186h-194v111z" />
    <glyph glyph-name="tbar" unicode="&#x167;" horiz-adv-x="373" 
d="M211 635v-145h130v-98h-130v-81h130v-90h-130v-49q0 -41 18.5 -59.5t57.5 -18.5q14 0 28.5 3.5t25.5 11.5v-103q-14 -8 -36 -13t-52 -5q-74 0 -115.5 43t-41.5 120v70h-70v90h70v81h-73v98h73v145h115z" />
    <glyph glyph-name="Utilde" unicode="&#x168;" horiz-adv-x="694" 
d="M347 -12q-65 0 -116 21t-86 59t-53.5 91.5t-18.5 118.5v422h120v-417q0 -81 39.5 -130t114.5 -49t114.5 49t39.5 130v417h120v-422q0 -65 -18.5 -118.5t-53.5 -91.5t-86 -59t-116 -21zM182 765q-1 61 28 90t73 29q25 0 43 -7.5t32 -16.5t26 -16.5t26 -7.5q18 0 27.5 12
t9.5 32h72q1 -62 -28.5 -90.5t-72.5 -28.5q-26 0 -43.5 7.5t-31.5 16.5t-26 16.5t-26 7.5q-19 0 -28 -12t-9 -32h-72z" />
    <glyph glyph-name="utilde" unicode="&#x169;" horiz-adv-x="590" 
d="M402 490h116v-490h-116v65q-23 -35 -60.5 -56t-88.5 -21q-88 0 -137.5 55.5t-49.5 151.5v295h116v-273q0 -57 27.5 -89.5t78.5 -32.5q52 0 83 37t31 100v258zM127 583q-1 61 28 90t73 29q25 0 43 -7.5t32 -16.5t26 -16.5t26 -7.5q18 0 27.5 12t9.5 32h72
q1 -62 -28.5 -90.5t-72.5 -28.5q-26 0 -43.5 7.5t-31.5 16.5t-26 16.5t-26 7.5q-19 0 -28 -12t-9 -32h-72z" />
    <glyph glyph-name="Umacron" unicode="&#x16a;" horiz-adv-x="694" 
d="M347 -12q-65 0 -116 21t-86 59t-53.5 91.5t-18.5 118.5v422h120v-417q0 -81 39.5 -130t114.5 -49t114.5 49t39.5 130v417h120v-422q0 -65 -18.5 -118.5t-53.5 -91.5t-86 -59t-116 -21zM203 772v77h288v-77h-288z" />
    <glyph glyph-name="umacron" unicode="&#x16b;" horiz-adv-x="590" 
d="M402 490h116v-490h-116v65q-23 -35 -60.5 -56t-88.5 -21q-88 0 -137.5 55.5t-49.5 151.5v295h116v-273q0 -57 27.5 -89.5t78.5 -32.5q52 0 83 37t31 100v258zM148 590v77h288v-77h-288z" />
    <glyph glyph-name="Ubreve" unicode="&#x16c;" horiz-adv-x="694" 
d="M347 -12q-65 0 -116 21t-86 59t-53.5 91.5t-18.5 118.5v422h120v-417q0 -81 39.5 -130t114.5 -49t114.5 49t39.5 130v417h120v-422q0 -65 -18.5 -118.5t-53.5 -91.5t-86 -59t-116 -21zM347 832q26 0 42 17t18 46h82q0 -63 -40 -101t-102 -38q-63 0 -103 38t-40 101h82
q2 -29 18.5 -46t42.5 -17z" />
    <glyph glyph-name="ubreve" unicode="&#x16d;" horiz-adv-x="590" 
d="M402 490h116v-490h-116v65q-23 -35 -60.5 -56t-88.5 -21q-88 0 -137.5 55.5t-49.5 151.5v295h116v-273q0 -57 27.5 -89.5t78.5 -32.5q52 0 83 37t31 100v258zM293 650q26 0 42 17t18 46h82q0 -63 -40 -101t-102 -38q-63 0 -103 38t-40 101h82q2 -29 18.5 -46t42.5 -17z
" />
    <glyph glyph-name="Uring" unicode="&#x16e;" horiz-adv-x="694" 
d="M347 -12q-65 0 -116 21t-86 59t-53.5 91.5t-18.5 118.5v422h120v-417q0 -81 39.5 -130t114.5 -49t114.5 49t39.5 130v417h120v-422q0 -65 -18.5 -118.5t-53.5 -91.5t-86 -59t-116 -21zM244 833q0 21 8 39t22 31t33 20.5t40 7.5t40 -7.5t33 -20.5t22 -31t8 -39t-8 -39
t-22 -31t-33 -20.5t-40 -7.5t-40 7.5t-33 20.5t-22 31t-8 39zM309 833q0 -16 11 -27t27 -11t27 11t11 27t-11 27t-27 11t-27 -11t-11 -27z" />
    <glyph glyph-name="uring" unicode="&#x16f;" horiz-adv-x="590" 
d="M402 490h116v-490h-116v65q-23 -35 -60.5 -56t-88.5 -21q-88 0 -137.5 55.5t-49.5 151.5v295h116v-273q0 -57 27.5 -89.5t78.5 -32.5q52 0 83 37t31 100v258zM188 653q0 21 8 39t22 31t33 20.5t40 7.5t40 -7.5t33 -20.5t22 -31t8 -39t-8 -39t-22 -31t-33 -20.5t-40 -7.5
t-40 7.5t-33 20.5t-22 31t-8 39zM253 653q0 -16 11 -27t27 -11t27 11t11 27t-11 27t-27 11t-27 -11t-11 -27z" />
    <glyph glyph-name="Uhungarumlaut" unicode="&#x170;" horiz-adv-x="694" 
d="M347 -12q-65 0 -116 21t-86 59t-53.5 91.5t-18.5 118.5v422h120v-417q0 -81 39.5 -130t114.5 -49t114.5 49t39.5 130v417h120v-422q0 -65 -18.5 -118.5t-53.5 -91.5t-86 -59t-116 -21zM203 755l87 143h112l-107 -143h-92zM376 755l86 143h112l-107 -143h-91z" />
    <glyph glyph-name="uhungarumlaut" unicode="&#x171;" horiz-adv-x="590" 
d="M402 490h116v-490h-116v65q-23 -35 -60.5 -56t-88.5 -21q-88 0 -137.5 55.5t-49.5 151.5v295h116v-273q0 -57 27.5 -89.5t78.5 -32.5q52 0 83 37t31 100v258zM150 572l86 142h112l-107 -142h-91zM322 572l86 142h111l-106 -142h-91z" />
    <glyph glyph-name="Uogonek" unicode="&#x172;" horiz-adv-x="694" 
d="M274 -114q0 61 62 102q-62 1 -111 22.5t-83 59.5t-51.5 91t-17.5 117v422h120v-417q0 -81 39.5 -130t114.5 -49t114.5 49t39.5 130v417h120v-422q0 -99 -41 -168t-114 -102q-20 -9 -38.5 -20t-32.5 -24.5t-23 -28t-9 -30.5q0 -18 11 -27t30 -9q26 0 46 13v-74
q-30 -14 -66 -14q-51 0 -80.5 25t-29.5 67z" />
    <glyph glyph-name="uogonek" unicode="&#x173;" horiz-adv-x="590" 
d="M402 490h116v-490q-23 -6 -43.5 -15.5t-36.5 -22t-25 -27.5t-9 -30q0 -18 11 -27t31 -9q26 0 46 13v-74q-30 -14 -67 -14q-51 0 -80 25t-29 67q0 69 86 114v65q-23 -35 -60.5 -56t-88.5 -21q-88 0 -137.5 55.5t-49.5 151.5v295h116v-273q0 -57 27.5 -89.5t78.5 -32.5
q52 0 83 37t31 100v258z" />
    <glyph glyph-name="Wcircumflex" unicode="&#x174;" horiz-adv-x="1012" 
d="M249 0l-238 700h124l161 -499l167 499h88l166 -499l162 499h122l-239 -700h-90l-167 500l-166 -500h-90zM351 755l111 143h90l110 -143h-106l-51 67l-50 -67h-104z" />
    <glyph glyph-name="wcircumflex" unicode="&#x175;" horiz-adv-x="808" 
d="M519 0l-115 331l-116 -331h-93l-178 490h119l112 -332l115 332h85l115 -332l112 332h116l-178 -490h-94zM251 575l111 143h90l110 -143h-106l-51 68l-50 -68h-104z" />
    <glyph glyph-name="Ycircumflex" unicode="&#x176;" horiz-adv-x="641" 
d="M381 0h-120v308l-253 392h138l176 -281l176 281h135l-252 -392v-308zM166 755l111 143h90l110 -143h-106l-51 67l-50 -67h-104z" />
    <glyph glyph-name="ycircumflex" unicode="&#x177;" horiz-adv-x="542" 
d="M116 -222q-23 0 -39.5 4.5t-28.5 9.5v99q23 -10 51 -10q31 0 52 16.5t38 58.5l21 51l-196 483h123l134 -353l138 353h119l-227 -549q-36 -87 -79.5 -125t-105.5 -38zM117 575l111 143h90l110 -143h-106l-51 68l-50 -68h-104z" />
    <glyph glyph-name="Ydieresis" unicode="&#x178;" horiz-adv-x="641" 
d="M381 0h-120v308l-253 392h138l176 -281l176 281h135l-252 -392v-308zM288 827q0 -26 -18.5 -44t-44.5 -18q-25 0 -43 18t-18 44q0 25 18 43t43 18q27 0 45 -18.5t18 -42.5zM479 827q0 -26 -18 -44t-44 -18t-44 18t-18 44q0 25 18 43t44 18t44 -18.5t18 -42.5z" />
    <glyph glyph-name="Zacute" unicode="&#x179;" horiz-adv-x="611" 
d="M196 108h382v-108h-546v78l378 514h-354v108h518v-78zM254 755l96 143h127l-121 -143h-102z" />
    <glyph glyph-name="zacute" unicode="&#x17a;" horiz-adv-x="469" 
d="M439 420l-261 -323h265v-97h-416v72l259 321h-243v97h396v-70zM182 575l96 143h127l-121 -143h-102z" />
    <glyph glyph-name="Zdotaccent" unicode="&#x17b;" horiz-adv-x="611" 
d="M196 108h382v-108h-546v78l378 514h-354v108h518v-78zM394 832q0 -28 -20 -48t-49 -20q-28 0 -48 19.5t-20 48.5t20 49t48 20q29 0 49 -20.5t20 -48.5z" />
    <glyph glyph-name="zdotaccent" unicode="&#x17c;" horiz-adv-x="469" 
d="M439 420l-261 -323h265v-97h-416v72l259 321h-243v97h396v-70zM322 633q0 -29 -20.5 -50t-51.5 -21q-29 0 -50 21t-21 50q0 30 21 51t50 21q31 0 51.5 -21.5t20.5 -50.5z" />
    <glyph glyph-name="Zcaron" unicode="&#x17d;" horiz-adv-x="611" 
d="M196 108h382v-108h-546v78l378 514h-354v108h518v-78zM480 898l-110 -143h-90l-111 143h106l51 -68l51 68h103z" />
    <glyph glyph-name="zcaron" unicode="&#x17e;" horiz-adv-x="469" 
d="M439 420l-261 -323h265v-97h-416v72l259 321h-243v97h396v-70zM406 718l-110 -143h-90l-111 143h106l51 -68l51 68h103z" />
    <glyph glyph-name="florin" unicode="&#x192;" horiz-adv-x="535" 
d="M106 416h114l23 128q15 86 65.5 132.5t130.5 46.5q23 0 43 -4t36 -10v-105q-31 14 -65 14q-39 0 -63.5 -21t-32.5 -63l-21 -118h123v-100h-140l-54 -308q-15 -86 -65.5 -132.5t-130.5 -46.5q-23 0 -43 4t-36 10v105q31 -14 65 -14q39 0 63.5 21t32.5 63l52 298h-97v100z
" />
    <glyph glyph-name="AEacute" unicode="&#x1fc;" horiz-adv-x="944" 
d="M491 176h-244l-108 -176h-131l432 700h451v-109h-281v-178h259v-106h-259v-198h283v-109h-402v176zM491 280v301l-183 -301h183zM528 755l96 143h127l-121 -143h-102z" />
    <glyph glyph-name="aeacute" unicode="&#x1fd;" horiz-adv-x="861" 
d="M810 115q-29 -58 -83.5 -92.5t-129.5 -34.5q-62 0 -111.5 25t-81.5 73q-32 -52 -83 -75t-114 -23q-75 0 -120.5 39.5t-45.5 102.5q0 66 43 107t131 52l133 17v21q0 37 -23.5 58.5t-63.5 21.5q-75 0 -97 -74l-106 27q18 66 73 104t130 38q55 0 94.5 -20.5t62.5 -56.5
q32 36 76.5 56.5t96.5 20.5t95 -19.5t74.5 -54t49 -81.5t17.5 -102q0 -14 -1 -35h-361q2 -27 13 -50t29 -39.5t41.5 -26t49.5 -9.5q46 0 72 21t46 54zM712 294q-5 49 -39 81t-84 32q-24 0 -45 -10t-37.5 -25.5t-27 -36t-13.5 -41.5h246zM349 220l-111 -15q-41 -5 -61.5 -23
t-20.5 -44t19.5 -41.5t49.5 -15.5q56 0 90 33t34 89v17zM384 575l96 143h127l-121 -143h-102z" />
    <glyph glyph-name="Oslashacute" unicode="&#x1fe;" horiz-adv-x="818" 
d="M46 350q0 76 28.5 142t77.5 115t115.5 77.5t141.5 28.5q62 0 117.5 -19t101.5 -54l76 79l63 -60l-76 -80q38 -47 59.5 -105t21.5 -124q0 -75 -28.5 -141t-77.5 -115t-115.5 -77.5t-141.5 -28.5q-62 0 -117 18.5t-100 52.5l-76 -79l-65 63l76 78q-38 47 -59.5 105
t-21.5 124zM167 350q0 -80 43 -143l336 349q-29 20 -64 31.5t-73 11.5q-51 0 -95 -19.5t-77 -53.5t-51.5 -79t-18.5 -97zM651 350q0 40 -11.5 76t-31.5 67l-335 -349q59 -42 136 -42q51 0 95 19.5t77 53t51.5 79t18.5 96.5zM354 755l96 143h127l-121 -143h-102z" />
    <glyph glyph-name="oslashacute" unicode="&#x1ff;" horiz-adv-x="604" 
d="M302 502q43 0 80.5 -12t69.5 -33l49 50l57 -56l-48 -49q25 -32 39 -72t14 -85q0 -54 -20 -101t-55 -81.5t-82.5 -54.5t-103.5 -20q-43 0 -80.5 11.5t-69.5 32.5l-49 -51l-57 57l48 49q-26 33 -39.5 73t-13.5 85q0 54 20 101t55 81.5t82.5 54.5t103.5 20zM302 400
q-32 0 -59 -12t-47 -33t-31.5 -49.5t-11.5 -60.5q0 -41 19 -77l205 211q-17 10 -36 15.5t-39 5.5zM451 245q0 40 -19 76l-204 -211q32 -20 74 -20q31 0 58.5 12.5t47.5 33.5t31.5 49t11.5 60zM246 575l96 143h127l-121 -143h-102z" />
    <glyph glyph-name="Scommaaccent" unicode="&#x218;" horiz-adv-x="556" 
d="M139 213q19 -51 56.5 -81.5t90.5 -30.5q45 0 78 23.5t33 68.5q0 65 -88 97l-83 30q-78 28 -121 75t-43 119q0 45 16.5 82t46 63t69 40t85.5 14q76 -1 136 -41.5t89 -113.5l-103 -52q-16 40 -46 67.5t-75 27.5q-42 0 -69 -22t-27 -58q0 -32 22 -52.5t65 -37.5l86 -33
q82 -32 122.5 -79.5t40.5 -117.5q0 -50 -19 -89.5t-51 -67t-75 -42t-91 -14.5q-88 0 -155 45.5t-96 129.5zM271 -167h-2q-21 1 -36 16t-15 37q0 29 19.5 46.5t45.5 17.5q29 0 47.5 -17.5t18.5 -45.5q0 -14 -4.5 -28t-10.5 -27l-35 -72h-66z" />
    <glyph glyph-name="scommaaccent" unicode="&#x219;" horiz-adv-x="429" 
d="M122 162q13 -34 39 -54.5t59 -20.5q27 0 46.5 12.5t19.5 38.5q0 20 -13.5 32t-42.5 21l-59 19q-125 40 -125 142q0 34 13.5 62t36.5 47.5t53.5 30t65.5 10.5q60 0 107.5 -30t70.5 -81l-93 -50q-14 29 -35.5 47t-49.5 18q-25 0 -42 -12t-17 -33q0 -35 55 -53l58 -19
q69 -23 99 -58.5t30 -84.5q0 -38 -14.5 -67t-39.5 -49.5t-57.5 -31t-68.5 -10.5q-69 0 -119 34t-71 91zM206 -167h-2q-21 1 -36 16t-15 37q0 29 19.5 46.5t45.5 17.5q29 0 47.5 -17.5t18.5 -45.5q0 -14 -4.5 -28t-10.5 -27l-35 -72h-66z" />
    <glyph glyph-name="dotlessj" unicode="&#x237;" horiz-adv-x="263" 
d="M75 490h116v-521q0 -95 -45.5 -143t-122.5 -48q-23 0 -38.5 3.5t-27.5 8.5v102q9 -5 21 -7t25 -2q34 0 53 23t19 67v517z" />
    <glyph glyph-name="circumflex" unicode="&#x2c6;" horiz-adv-x="500" 
d="M94 575l111 143h90l110 -143h-106l-51 68l-50 -68h-104z" />
    <glyph glyph-name="caron" unicode="&#x2c7;" horiz-adv-x="500" 
d="M405 718l-110 -143h-90l-111 143h106l51 -68l51 68h103z" />
    <glyph glyph-name="breve" unicode="&#x2d8;" horiz-adv-x="500" 
d="M250 650q26 0 42 17t18 46h82q0 -63 -40 -101t-102 -38q-63 0 -103 38t-40 101h82q2 -29 18.5 -46t42.5 -17z" />
    <glyph glyph-name="dotaccent" unicode="&#x2d9;" horiz-adv-x="500" 
d="M321 633q0 -29 -20.5 -50t-51.5 -21q-29 0 -50 21t-21 50q0 30 21 51t50 21q31 0 51.5 -21.5t20.5 -50.5z" />
    <glyph glyph-name="ring" unicode="&#x2da;" horiz-adv-x="500" 
d="M147 653q0 21 8 39t22 31t33 20.5t40 7.5t40 -7.5t33 -20.5t22 -31t8 -39t-8 -39t-22 -31t-33 -20.5t-40 -7.5t-40 7.5t-33 20.5t-22 31t-8 39zM212 653q0 -16 11 -27t27 -11t27 11t11 27t-11 27t-27 11t-27 -11t-11 -27z" />
    <glyph glyph-name="ogonek" unicode="&#x2db;" horiz-adv-x="500" 
d="M350 0q-23 -6 -43 -15.5t-35 -22t-24 -27.5t-9 -30q0 -18 11 -27t31 -9q26 0 46 13v-74q-30 -14 -67 -14q-51 0 -80 25t-29 67q0 69 85 114h114z" />
    <glyph glyph-name="tilde" unicode="&#x2dc;" horiz-adv-x="500" 
d="M81 583q-1 61 28 90t73 29q25 0 43 -7.5t32 -16.5t26 -16.5t26 -7.5q18 0 27.5 12t9.5 32h72q1 -62 -28.5 -90.5t-72.5 -28.5q-26 0 -43.5 7.5t-31.5 16.5t-26 16.5t-26 7.5q-19 0 -28 -12t-9 -32h-72z" />
    <glyph glyph-name="hungarumlaut" unicode="&#x2dd;" horiz-adv-x="500" 
d="M83 572l86 142h112l-107 -142h-91zM255 572l86 142h111l-106 -142h-91z" />
    <glyph glyph-name="uni0312" unicode="&#x312;" horiz-adv-x="500" 
d="M300 752l-37 -72h1q21 -1 36 -16.5t15 -38.5q0 -28 -18.5 -45.5t-45.5 -17.5t-46.5 18t-19.5 45q0 16 5 30t13 31l33 66h64z" />
    <glyph glyph-name="mu" unicode="&#x3bc;" horiz-adv-x="596" 
d="M188 490v-273q0 -57 27.5 -89.5t78.5 -32.5q52 0 83 37t31 100v258h116v-490h-116v65q-23 -35 -60.5 -56t-88.5 -21q-37 0 -71 13v-209h-116v698h116z" />
    <glyph glyph-name="pi" unicode="&#x3c0;" horiz-adv-x="620" 
d="M22 490h576v-103h-83v-387h-116v387h-178v-387h-116v387h-83v103z" />
    <glyph glyph-name="Wgrave" unicode="&#x1e80;" horiz-adv-x="1012" 
d="M249 0l-238 700h124l161 -499l167 499h88l166 -499l162 499h122l-239 -700h-90l-167 500l-166 -500h-90zM457 755l-121 143h127l95 -143h-101z" />
    <glyph glyph-name="wgrave" unicode="&#x1e81;" horiz-adv-x="808" 
d="M519 0l-115 331l-116 -331h-93l-178 490h119l112 -332l115 332h85l115 -332l112 332h116l-178 -490h-94zM352 575l-121 143h127l95 -143h-101z" />
    <glyph glyph-name="Wacute" unicode="&#x1e82;" horiz-adv-x="1012" 
d="M249 0l-238 700h124l161 -499l167 499h88l166 -499l162 499h122l-239 -700h-90l-167 500l-166 -500h-90zM455 755l96 143h127l-121 -143h-102z" />
    <glyph glyph-name="wacute" unicode="&#x1e83;" horiz-adv-x="808" 
d="M519 0l-115 331l-116 -331h-93l-178 490h119l112 -332l115 332h85l115 -332l112 332h116l-178 -490h-94zM357 575l96 143h127l-121 -143h-102z" />
    <glyph glyph-name="Wdieresis" unicode="&#x1e84;" horiz-adv-x="1012" 
d="M249 0l-238 700h124l161 -499l167 499h88l166 -499l162 499h122l-239 -700h-90l-167 500l-166 -500h-90zM474 827q0 -26 -18.5 -44t-44.5 -18q-25 0 -43 18t-18 44q0 25 18 43t43 18q27 0 45 -18.5t18 -42.5zM665 827q0 -26 -18 -44t-44 -18t-44 18t-18 44q0 25 18 43
t44 18t44 -18.5t18 -42.5z" />
    <glyph glyph-name="wdieresis" unicode="&#x1e85;" horiz-adv-x="808" 
d="M519 0l-115 331l-116 -331h-93l-178 490h119l112 -332l115 332h85l115 -332l112 332h116l-178 -490h-94zM372 633q0 -25 -18.5 -43.5t-44.5 -18.5q-25 0 -43 18t-18 44t18 44t43 18q27 0 45 -18.5t18 -43.5zM563 633q0 -25 -18 -43.5t-44 -18.5t-44 18t-18 44t18 44
t44 18t44 -18.5t18 -43.5z" />
    <glyph glyph-name="Ygrave" unicode="&#x1ef2;" horiz-adv-x="641" 
d="M381 0h-120v308l-253 392h138l176 -281l176 281h135l-252 -392v-308zM277 755l-121 143h127l95 -143h-101z" />
    <glyph glyph-name="ygrave" unicode="&#x1ef3;" horiz-adv-x="542" 
d="M116 -222q-23 0 -39.5 4.5t-28.5 9.5v99q23 -10 51 -10q31 0 52 16.5t38 58.5l21 51l-196 483h123l134 -353l138 353h119l-227 -549q-36 -87 -79.5 -125t-105.5 -38zM227 575l-121 143h127l95 -143h-101z" />
    <glyph glyph-name="thinspace" unicode="&#x2009;" horiz-adv-x="110" 
 />
    <glyph glyph-name="figuredash" unicode="&#x2012;" 
d="M57 314h486v-98h-486v98z" />
    <glyph glyph-name="endash" unicode="&#x2013;" horiz-adv-x="565" 
d="M57 314h451v-98h-451v98z" />
    <glyph glyph-name="emdash" unicode="&#x2014;" horiz-adv-x="865" 
d="M57 314h751v-98h-751v98z" />
    <glyph glyph-name="quoteleft" unicode="&#x2018;" horiz-adv-x="216" 
d="M173 700l-53 -102h1q24 0 41 -17.5t17 -42.5q0 -31 -21 -50.5t-50 -19.5q-30 0 -50.5 20t-20.5 50q0 17 5.5 32.5t14.5 34.5l47 95h69z" />
    <glyph glyph-name="quoteright" unicode="&#x2019;" horiz-adv-x="216" 
d="M43 481l53 102h-1q-24 0 -41 17.5t-17 42.5q0 31 21 50.5t50 19.5q30 0 50.5 -20t20.5 -50q0 -17 -5.5 -32.5t-14.5 -34.5l-47 -95h-69z" />
    <glyph glyph-name="quotesinglbase" unicode="&#x201a;" horiz-adv-x="216" 
d="M43 -103l53 102h-1q-24 0 -41 17.5t-17 42.5q0 31 21 50.5t50 19.5q30 0 50.5 -20t20.5 -50q0 -17 -5.5 -32.5t-14.5 -34.5l-47 -95h-69z" />
    <glyph glyph-name="quotedblleft" unicode="&#x201c;" horiz-adv-x="398" 
d="M173 700l-53 -102h1q24 0 41 -17.5t17 -42.5q0 -31 -21 -50.5t-50 -19.5q-30 0 -50.5 20t-20.5 50q0 17 5.5 32.5t14.5 34.5l47 95h69zM355 700l-53 -102h1q24 0 41 -17.5t17 -42.5q0 -31 -21 -50.5t-50 -19.5q-30 0 -50.5 20t-20.5 50q0 17 5.5 32.5t14.5 34.5l47 95h69
z" />
    <glyph glyph-name="quotedblright" unicode="&#x201d;" horiz-adv-x="398" 
d="M43 481l53 102h-1q-24 0 -41 17.5t-17 42.5q0 31 21 50.5t50 19.5q30 0 50.5 -20t20.5 -50q0 -17 -5.5 -32.5t-14.5 -34.5l-47 -95h-69zM225 481l53 102h-1q-24 0 -41 17.5t-17 42.5q0 31 21 50.5t50 19.5q30 0 50.5 -20t20.5 -50q0 -17 -5.5 -32.5t-14.5 -34.5l-47 -95
h-69z" />
    <glyph glyph-name="quotedblbase" unicode="&#x201e;" horiz-adv-x="398" 
d="M43 -103l53 102h-1q-24 0 -41 17.5t-17 42.5q0 31 21 50.5t50 19.5q30 0 50.5 -20t20.5 -50q0 -17 -5.5 -32.5t-14.5 -34.5l-47 -95h-69zM225 -103l53 102h-1q-24 0 -41 17.5t-17 42.5q0 31 21 50.5t50 19.5q30 0 50.5 -20t20.5 -50q0 -17 -5.5 -32.5t-14.5 -34.5
l-47 -95h-69z" />
    <glyph glyph-name="dagger" unicode="&#x2020;" horiz-adv-x="471" 
d="M39 471h140v229h114v-229h140v-102h-140v-477h-114v477h-140v102z" />
    <glyph glyph-name="daggerdbl" unicode="&#x2021;" horiz-adv-x="471" 
d="M39 492h140v208h114v-208h140v-102h-140v-179h140v-102h-140v-217h-114v217h-140v102h140v179h-140v102z" />
    <glyph glyph-name="bullet" unicode="&#x2022;" horiz-adv-x="318" 
d="M268 265q0 -22 -8.5 -41.5t-23.5 -34.5t-35 -23.5t-42 -8.5t-42 8.5t-35 23.5t-23.5 34.5t-8.5 41.5t8.5 41.5t23.5 34.5t35 23.5t42 8.5t42 -8.5t35 -23.5t23.5 -34.5t8.5 -41.5z" />
    <glyph glyph-name="ellipsis" unicode="&#x2026;" horiz-adv-x="860" 
d="M59 63q0 31 21.5 52.5t53.5 21.5t53.5 -21.5t21.5 -52.5t-21.5 -52.5t-53.5 -21.5t-53.5 21.5t-21.5 52.5zM355 63q0 31 21.5 52.5t53.5 21.5t53.5 -21.5t21.5 -52.5t-21.5 -52.5t-53.5 -21.5t-53.5 21.5t-21.5 52.5zM651 63q0 31 21.5 52.5t53.5 21.5t53.5 -21.5
t21.5 -52.5t-21.5 -52.5t-53.5 -21.5t-53.5 21.5t-21.5 52.5z" />
    <glyph glyph-name="perthousand" unicode="&#x2030;" horiz-adv-x="1213" 
d="M371 533q0 -35 -13 -64.5t-36 -51.5t-53.5 -34.5t-65.5 -12.5t-65.5 12.5t-53.5 34.5t-36 51.5t-13 64.5q0 34 13 63.5t36 51.5t53.5 34.5t65.5 12.5t65.5 -12.5t53.5 -34.5t36 -51.5t13 -63.5zM203 456q32 0 53.5 22t21.5 55q0 32 -21.5 54t-53.5 22t-53.5 -22
t-21.5 -54q0 -33 21.5 -55t53.5 -22zM215 0h-117l508 687h117zM449 154q0 34 13 64t36 52t53.5 34.5t65.5 12.5t65.5 -12.5t53.5 -34.5t36 -52t13 -64t-13 -63.5t-36 -51.5t-53.5 -34.5t-65.5 -12.5t-65.5 12.5t-53.5 34.5t-36 51.5t-13 63.5zM542 154q0 -32 21.5 -54
t53.5 -22t53.5 22t21.5 54q0 33 -21.5 55t-53.5 22t-53.5 -22t-21.5 -55zM843 154q0 34 13 64t35.5 52t53 34.5t65.5 12.5t66 -12.5t53.5 -34.5t35.5 -52t13 -64t-13 -63.5t-35.5 -51.5t-53.5 -34.5t-66 -12.5t-65.5 12.5t-53 34.5t-35.5 51.5t-13 63.5zM935 154
q0 -32 21.5 -54t53.5 -22t54 22t22 54q0 33 -22 55t-54 22t-53.5 -22t-21.5 -55z" />
    <glyph glyph-name="guilsinglleft" unicode="&#x2039;" horiz-adv-x="307" 
d="M40 264l133 202h109l-132 -202l133 -202h-111z" />
    <glyph glyph-name="guilsinglright" unicode="&#x203a;" horiz-adv-x="307" 
d="M267 264l-133 -202h-109l132 202l-133 202h111z" />
    <glyph glyph-name="fraction" unicode="&#x2044;" horiz-adv-x="196" 
d="M-102 0h-107l507 687h108z" />
    <glyph glyph-name="uni2070" unicode="&#x2070;" horiz-adv-x="374" 
d="M339 493q0 -94 -40 -148t-112 -54t-112 54t-40 148t40 148t112 54t112 -54t40 -148zM253 493q0 60 -17 91t-49 31t-49 -31t-17 -91t17 -91t49 -31t49 31t17 91z" />
    <glyph glyph-name="uni2074" unicode="&#x2074;" horiz-adv-x="354" 
d="M292 452h47v-73h-47v-80h-84v80h-189v61l168 247h105v-235zM113 452h95v140z" />
    <glyph glyph-name="uni2075" unicode="&#x2075;" horiz-adv-x="349" 
d="M42 482l28 205h227v-73h-162l-10 -74q13 12 32 17.5t40 5.5q27 0 50.5 -9.5t41 -27t27 -41t9.5 -50.5q0 -31 -11 -57t-31 -45.5t-47 -30.5t-59 -11q-63 0 -103.5 35t-42.5 92h85q2 -22 19 -35.5t42 -13.5q26 0 44.5 18t18.5 44q0 27 -18 44.5t-46 17.5q-17 0 -31.5 -7.5
t-23.5 -20.5z" />
    <glyph glyph-name="uni2076" unicode="&#x2076;" horiz-adv-x="361" 
d="M332 435q0 -31 -11.5 -57t-31.5 -45.5t-47.5 -30.5t-59.5 -11q-33 0 -60.5 11t-47.5 30.5t-31 46t-11 57.5q0 55 40 114l89 137h98l-89 -128q13 6 32 6q27 0 50.5 -10t41.5 -27t28 -41t10 -52zM248 432q0 27 -18.5 45.5t-47.5 18.5q-28 0 -47 -18.5t-19 -44.5
q0 -27 19 -45.5t47 -18.5t47 18t19 45z" />
    <glyph glyph-name="uni2077" unicode="&#x2077;" horiz-adv-x="332" 
d="M51 299l159 310h-186v78h287v-63l-162 -325h-98z" />
    <glyph glyph-name="uni2078" unicode="&#x2078;" horiz-adv-x="349" 
d="M174 291q-31 0 -58 9t-46.5 25.5t-30.5 39t-11 48.5q0 32 18 58t49 38q-50 25 -50 78q0 23 9.5 42.5t27 34t41 23t51.5 8.5t52 -8.5t41.5 -23t27.5 -34t10 -42.5q0 -53 -50 -78q30 -12 48 -38t18 -58q0 -26 -11 -48.5t-31 -39t-47 -25.5t-58 -9zM174 365q27 0 44.5 15
t17.5 38t-17.5 38t-44.5 15q-26 0 -43 -15t-17 -38t17 -38t43 -15zM174 537q23 0 37 12t14 31t-14 31.5t-37 12.5q-22 0 -36 -12.5t-14 -31.5t14 -31t36 -12z" />
    <glyph glyph-name="uni2079" unicode="&#x2079;" horiz-adv-x="361" 
d="M28 551q0 31 11.5 57t31.5 45.5t47.5 30.5t59.5 11q33 0 60.5 -11t47.5 -30.5t31 -46t11 -57.5q0 -55 -40 -114l-89 -137h-98l89 128q-14 -6 -32 -6q-27 0 -50.5 10t-41.5 27t-28 41t-10 52zM112 554q0 -27 18.5 -45.5t47.5 -18.5q28 0 47 18.5t19 44.5q0 27 -19 45.5
t-47 18.5t-47 -18t-19 -45z" />
    <glyph glyph-name="uni207A" unicode="&#x207a;" horiz-adv-x="343" 
d="M38 530h97v97h74v-97h97v-74h-97v-97h-74v97h-97v74z" />
    <glyph glyph-name="uni207B" unicode="&#x207b;" horiz-adv-x="343" 
d="M38 530h268v-74h-268v74z" />
    <glyph glyph-name="uni207C" unicode="&#x207c;" horiz-adv-x="343" 
d="M38 468h268v-73h-268v73zM38 592h268v-73h-268v73z" />
    <glyph glyph-name="uni207D" unicode="&#x207d;" horiz-adv-x="222" 
d="M33 493q0 63 23 125.5t71 111.5h77q-46 -57 -68 -117.5t-22 -119.5q0 -60 22 -120.5t68 -117.5h-77q-48 48 -71 111.5t-23 126.5z" />
    <glyph glyph-name="uni207E" unicode="&#x207e;" horiz-adv-x="222" 
d="M189 493q0 -63 -23 -126.5t-71 -111.5h-77q46 57 68 117.5t22 120.5q0 59 -22 119.5t-68 117.5h77q48 -49 71 -111.5t23 -125.5z" />
    <glyph glyph-name="n.superior" unicode="&#x207f;" horiz-adv-x="466" 
d="M154 299h-92v368h92v-50q17 27 45.5 43t67.5 16q67 0 104.5 -41.5t37.5 -112.5v-223h-93v204q0 42 -20 65t-58 23t-61 -26.5t-23 -71.5v-194z" />
    <glyph glyph-name="uni2080" unicode="&#x2080;" horiz-adv-x="374" 
d="M339 194q0 -94 -40 -148t-112 -54t-112 54t-40 148t40 148t112 54t112 -54t40 -148zM253 194q0 60 -17 91t-49 31t-49 -31t-17 -91t17 -91t49 -31t49 31t17 91z" />
    <glyph glyph-name="uni2081" unicode="&#x2081;" horiz-adv-x="239" 
d="M93 0v308h-67v80h154v-388h-87z" />
    <glyph glyph-name="uni2082" unicode="&#x2082;" horiz-adv-x="342" 
d="M317 0h-286v68l145 118q52 42 52 78q0 24 -14.5 38t-39.5 14q-26 0 -41.5 -17.5t-16.5 -46.5h-84q0 32 10.5 58.5t29 45.5t44.5 29.5t57 10.5q62 0 101.5 -35t39.5 -92q0 -38 -21 -70.5t-69 -70.5l-64 -51h157v-77z" />
    <glyph glyph-name="uni2083" unicode="&#x2083;" horiz-adv-x="346" 
d="M170 234q23 0 38 12.5t15 31.5q0 18 -14 30t-35 12q-23 0 -37 -14t-15 -34h-82q0 27 10 50t28 39.5t43 25.5t54 9q28 0 52.5 -8t42 -22.5t27.5 -34.5t10 -43q0 -52 -49 -81q32 -13 48.5 -36.5t16.5 -55.5q0 -27 -11 -49.5t-30.5 -39t-46 -25.5t-58.5 -9q-65 0 -105.5 36
t-40.5 96h86q0 -24 17 -39t44 -15q26 0 42.5 14t16.5 35q0 23 -18 36.5t-48 13.5h-19v65h18z" />
    <glyph glyph-name="uni2084" unicode="&#x2084;" horiz-adv-x="354" 
d="M292 153h47v-73h-47v-80h-84v80h-189v61l168 247h105v-235zM113 153h95v140z" />
    <glyph glyph-name="uni2085" unicode="&#x2085;" horiz-adv-x="349" 
d="M42 183l28 205h227v-73h-162l-10 -74q13 12 32 17.5t40 5.5q27 0 50.5 -9.5t41 -27t27 -41t9.5 -50.5q0 -31 -11 -57t-31 -45.5t-47 -30.5t-59 -11q-63 0 -103.5 35t-42.5 92h85q2 -22 19 -35.5t42 -13.5q26 0 44.5 18t18.5 44q0 27 -18 44.5t-46 17.5q-17 0 -31.5 -7.5
t-23.5 -20.5z" />
    <glyph glyph-name="uni2086" unicode="&#x2086;" horiz-adv-x="361" 
d="M332 136q0 -31 -11.5 -57t-31.5 -45.5t-47.5 -30.5t-59.5 -11q-33 0 -60.5 11t-47.5 30.5t-31 46t-11 57.5q0 55 40 114l89 137h98l-89 -128q13 6 32 6q27 0 50.5 -10t41.5 -27t28 -41t10 -52zM248 133q0 27 -18.5 45.5t-47.5 18.5q-28 0 -47 -18.5t-19 -44.5
q0 -27 19 -45.5t47 -18.5t47 18t19 45z" />
    <glyph glyph-name="uni2087" unicode="&#x2087;" horiz-adv-x="332" 
d="M51 0l159 310h-186v78h287v-63l-162 -325h-98z" />
    <glyph glyph-name="uni2088" unicode="&#x2088;" horiz-adv-x="349" 
d="M174 -8q-31 0 -58 9t-46.5 25.5t-30.5 39t-11 48.5q0 32 18 58t49 38q-50 25 -50 78q0 23 9.5 42.5t27 34t41 23t51.5 8.5t52 -8.5t41.5 -23t27.5 -34t10 -42.5q0 -53 -50 -78q30 -12 48 -38t18 -58q0 -26 -11 -48.5t-31 -39t-47 -25.5t-58 -9zM174 66q27 0 44.5 15
t17.5 38t-17.5 38t-44.5 15q-26 0 -43 -15t-17 -38t17 -38t43 -15zM174 238q23 0 37 12t14 31t-14 31.5t-37 12.5q-22 0 -36 -12.5t-14 -31.5t14 -31t36 -12z" />
    <glyph glyph-name="uni2089" unicode="&#x2089;" horiz-adv-x="361" 
d="M28 252q0 31 11.5 57t31.5 45.5t47.5 30.5t59.5 11q33 0 60.5 -11t47.5 -30.5t31 -46t11 -57.5q0 -55 -40 -114l-89 -137h-98l89 128q-14 -6 -32 -6q-27 0 -50.5 10t-41.5 27t-28 41t-10 52zM112 255q0 -27 18.5 -45.5t47.5 -18.5q28 0 47 18.5t19 44.5q0 27 -19 45.5
t-47 18.5t-47 -18t-19 -45z" />
    <glyph glyph-name="uni208A" unicode="&#x208a;" horiz-adv-x="343" 
d="M38 231h97v97h74v-97h97v-74h-97v-97h-74v97h-97v74z" />
    <glyph glyph-name="uni208B" unicode="&#x208b;" horiz-adv-x="343" 
d="M38 231h268v-74h-268v74z" />
    <glyph glyph-name="uni208C" unicode="&#x208c;" horiz-adv-x="343" 
d="M38 169h268v-73h-268v73zM38 293h268v-73h-268v73z" />
    <glyph glyph-name="uni208D" unicode="&#x208d;" horiz-adv-x="222" 
d="M33 194q0 63 23 125.5t71 111.5h77q-46 -57 -68 -117.5t-22 -119.5q0 -60 22 -120.5t68 -117.5h-77q-48 48 -71 111.5t-23 126.5z" />
    <glyph glyph-name="uni208E" unicode="&#x208e;" horiz-adv-x="222" 
d="M189 194q0 -63 -23 -126.5t-71 -111.5h-77q46 57 68 117.5t22 120.5q0 59 -22 119.5t-68 117.5h77q48 -49 71 -111.5t23 -125.5z" />
    <glyph glyph-name="Euro" unicode="&#x20ac;" horiz-adv-x="602" 
d="M445 240h-219q24 -59 73.5 -95t113.5 -36q42 0 76.5 11t69.5 31v-114q-35 -19 -74.5 -27.5t-77.5 -8.5q-55 0 -104 17t-89 48.5t-68.5 75.5t-43.5 98h-85v77h73q-1 11 -1 26q0 17 1 27h-73v78h86q15 53 43.5 96.5t68.5 75t88.5 49t103.5 17.5q39 0 78.5 -9t72.5 -26v-116
q-34 20 -68 32t-77 12q-63 0 -112.5 -36t-74.5 -95h218v-78h-237q-1 -10 -1 -27t1 -26h238v-77z" />
    <glyph glyph-name="afii61289" unicode="&#x2113;" horiz-adv-x="429" 
d="M30 280q36 11 71 27v212q0 86 41 132t113 46q65 0 104.5 -40.5t39.5 -108.5q0 -85 -48.5 -159.5t-136.5 -129.5v-88q0 -41 21.5 -59.5t59.5 -18.5q35 0 58 15v-103q-31 -17 -83 -17q-81 0 -125 43t-44 127v47q-33 -13 -71 -22v97zM214 382q36 34 59 74t23 85q0 26 -10 41
t-30 15q-42 0 -42 -69v-146z" />
    <glyph glyph-name="trademark" unicode="&#x2122;" horiz-adv-x="805" 
d="M197 358h-79v266h-97v76h273v-76h-97v-266zM750 700v-342h-77v214l-96 -214h-51l-95 213v-213h-77v342h96l104 -231l103 231h93z" />
    <glyph glyph-name="ohm" unicode="&#x2126;" horiz-adv-x="803" 
d="M355 0h-303v110h120q-25 21 -45.5 50t-35 63.5t-22.5 72.5t-8 78q0 70 27 130.5t73.5 104.5t108.5 69.5t132 25.5t132 -25.5t108.5 -69.5t73.5 -104.5t27 -130.5q0 -40 -8 -78t-23 -72.5t-36 -63.5t-46 -50h121v-110h-302v90q37 12 68.5 37.5t55 61t37 79.5t13.5 94
q0 48 -17.5 90t-47.5 73t-70 49t-86 18t-86 -18t-70 -49t-47.5 -73t-17.5 -90q0 -50 13.5 -94t37 -79.5t55 -61t68.5 -37.5v-90z" />
    <glyph glyph-name="estimated" unicode="&#x212e;" horiz-adv-x="769" 
d="M691 179q-20 -42 -52 -77.5t-72 -60.5t-86.5 -39t-95.5 -14q-72 0 -134 27t-107 73.5t-71 109t-26 133.5t25.5 134t70.5 109.5t107 73.5t135 27t134.5 -27.5t106.5 -75.5t70.5 -112t25.5 -137h-547v-187q38 -45 91.5 -71.5t118.5 -26.5q78 0 142.5 39t100.5 102h63z
M385 625q-66 0 -119 -25.5t-91 -70.5v-156h415v159q-38 43 -90 68t-115 25z" />
    <glyph glyph-name="uni2153" unicode="&#x2153;" horiz-adv-x="801" 
d="M93 299v308h-67v80h154v-388h-87zM157 0h-107l507 687h108zM625 234q23 0 38 12.5t15 31.5q0 18 -14 30t-35 12q-23 0 -37 -14t-15 -34h-82q0 27 10 50t28 39.5t43 25.5t54 9q28 0 52.5 -8t42 -22.5t27.5 -34.5t10 -43q0 -52 -49 -81q32 -13 48.5 -36.5t16.5 -55.5
q0 -27 -11 -49.5t-30.5 -39t-46 -25.5t-58.5 -9q-65 0 -105.5 36t-40.5 96h86q0 -24 17 -39t44 -15q26 0 42.5 14t16.5 35q0 23 -18 36.5t-48 13.5h-19v65h18z" />
    <glyph glyph-name="uni2154" unicode="&#x2154;" horiz-adv-x="919" 
d="M317 299h-286v68l145 118q52 42 52 78q0 24 -14.5 38t-39.5 14q-26 0 -41.5 -17.5t-16.5 -46.5h-84q0 32 10.5 58.5t29 45.5t44.5 29.5t57 10.5q62 0 101.5 -35t39.5 -92q0 -38 -21 -70.5t-69 -70.5l-64 -51h157v-77zM275 0h-107l507 687h108zM743 234q23 0 38 12.5
t15 31.5q0 18 -14 30t-35 12q-23 0 -37 -14t-15 -34h-82q0 27 10 50t28 39.5t43 25.5t54 9q28 0 52.5 -8t42 -22.5t27.5 -34.5t10 -43q0 -52 -49 -81q32 -13 48.5 -36.5t16.5 -55.5q0 -27 -11 -49.5t-30.5 -39t-46 -25.5t-58.5 -9q-65 0 -105.5 36t-40.5 96h86q0 -24 17 -39
t44 -15q26 0 42.5 14t16.5 35q0 23 -18 36.5t-48 13.5h-19v65h18z" />
    <glyph glyph-name="uni2155" unicode="&#x2155;" horiz-adv-x="807" 
d="M93 299v308h-67v80h154v-388h-87zM157 0h-107l507 687h108zM500 183l28 205h227v-73h-162l-10 -74q13 12 32 17.5t40 5.5q27 0 50.5 -9.5t41 -27t27 -41t9.5 -50.5q0 -31 -11 -57t-31 -45.5t-47 -30.5t-59 -11q-63 0 -103.5 35t-42.5 92h85q2 -22 19 -35.5t42 -13.5
q26 0 44.5 18t18.5 44q0 27 -18 44.5t-46 17.5q-17 0 -31.5 -7.5t-23.5 -20.5z" />
    <glyph glyph-name="uni2156" unicode="&#x2156;" horiz-adv-x="925" 
d="M317 299h-286v68l145 118q52 42 52 78q0 24 -14.5 38t-39.5 14q-26 0 -41.5 -17.5t-16.5 -46.5h-84q0 32 10.5 58.5t29 45.5t44.5 29.5t57 10.5q62 0 101.5 -35t39.5 -92q0 -38 -21 -70.5t-69 -70.5l-64 -51h157v-77zM275 0h-107l507 687h108zM618 183l28 205h227v-73
h-162l-10 -74q13 12 32 17.5t40 5.5q27 0 50.5 -9.5t41 -27t27 -41t9.5 -50.5q0 -31 -11 -57t-31 -45.5t-47 -30.5t-59 -11q-63 0 -103.5 35t-42.5 92h85q2 -22 19 -35.5t42 -13.5q26 0 44.5 18t18.5 44q0 27 -18 44.5t-46 17.5q-17 0 -31.5 -7.5t-23.5 -20.5z" />
    <glyph glyph-name="uni2157" unicode="&#x2157;" horiz-adv-x="897" 
d="M170 533q23 0 38 12.5t15 31.5q0 18 -14 30t-35 12q-23 0 -37 -14t-15 -34h-82q0 27 10 50t28 39.5t43 25.5t54 9q28 0 52.5 -8t42 -22.5t27.5 -34.5t10 -43q0 -52 -49 -81q32 -13 48.5 -36.5t16.5 -55.5q0 -27 -11 -49.5t-30.5 -39t-46 -25.5t-58.5 -9q-65 0 -105.5 36
t-40.5 96h86q0 -24 17 -39t44 -15q26 0 42.5 14t16.5 35q0 23 -18 36.5t-48 13.5h-19v65h18zM247 0h-107l507 687h108zM590 183l28 205h227v-73h-162l-10 -74q13 12 32 17.5t40 5.5q27 0 50.5 -9.5t41 -27t27 -41t9.5 -50.5q0 -31 -11 -57t-31 -45.5t-47 -30.5t-59 -11
q-63 0 -103.5 35t-42.5 92h85q2 -22 19 -35.5t42 -13.5q26 0 44.5 18t18.5 44q0 27 -18 44.5t-46 17.5q-17 0 -31.5 -7.5t-23.5 -20.5z" />
    <glyph glyph-name="uni2158" unicode="&#x2158;" horiz-adv-x="922" 
d="M292 452h47v-73h-47v-80h-84v80h-189v61l168 247h105v-235zM113 452h95v140zM272 0h-107l507 687h108zM615 183l28 205h227v-73h-162l-10 -74q13 12 32 17.5t40 5.5q27 0 50.5 -9.5t41 -27t27 -41t9.5 -50.5q0 -31 -11 -57t-31 -45.5t-47 -30.5t-59 -11q-63 0 -103.5 35
t-42.5 92h85q2 -22 19 -35.5t42 -13.5q26 0 44.5 18t18.5 44q0 27 -18 44.5t-46 17.5q-17 0 -31.5 -7.5t-23.5 -20.5z" />
    <glyph glyph-name="uni2159" unicode="&#x2159;" horiz-adv-x="771" 
d="M93 299v308h-67v80h154v-388h-87zM157 0h-107l507 687h108zM742 136q0 -31 -11.5 -57t-31.5 -45.5t-47.5 -30.5t-59.5 -11q-33 0 -60.5 11t-47.5 30.5t-31 46t-11 57.5q0 55 40 114l89 137h98l-89 -128q13 6 32 6q27 0 50.5 -10t41.5 -27t28 -41t10 -52zM658 133
q0 27 -18.5 45.5t-47.5 18.5q-28 0 -47 -18.5t-19 -44.5q0 -27 19 -45.5t47 -18.5t47 18t19 45z" />
    <glyph glyph-name="uni215A" unicode="&#x215a;" horiz-adv-x="859" 
d="M42 482l28 205h227v-73h-162l-10 -74q13 12 32 17.5t40 5.5q27 0 50.5 -9.5t41 -27t27 -41t9.5 -50.5q0 -31 -11 -57t-31 -45.5t-47 -30.5t-59 -11q-63 0 -103.5 35t-42.5 92h85q2 -22 19 -35.5t42 -13.5q26 0 44.5 18t18.5 44q0 27 -18 44.5t-46 17.5q-17 0 -31.5 -7.5
t-23.5 -20.5zM245 0h-107l507 687h108zM830 136q0 -31 -11.5 -57t-31.5 -45.5t-47.5 -30.5t-59.5 -11q-33 0 -60.5 11t-47.5 30.5t-31 46t-11 57.5q0 55 40 114l89 137h98l-89 -128q13 6 32 6q27 0 50.5 -10t41.5 -27t28 -41t10 -52zM746 133q0 27 -18.5 45.5t-47.5 18.5
q-28 0 -47 -18.5t-19 -44.5q0 -27 19 -45.5t47 -18.5t47 18t19 45z" />
    <glyph glyph-name="uni215B" unicode="&#x215b;" horiz-adv-x="799" 
d="M93 299v308h-67v80h154v-388h-87zM157 0h-107l507 687h108zM624 -8q-31 0 -58 9t-46.5 25.5t-30.5 39t-11 48.5q0 32 18 58t49 38q-50 25 -50 78q0 23 9.5 42.5t27 34t41 23t51.5 8.5t52 -8.5t41.5 -23t27.5 -34t10 -42.5q0 -53 -50 -78q30 -12 48 -38t18 -58
q0 -26 -11 -48.5t-31 -39t-47 -25.5t-58 -9zM624 66q27 0 44.5 15t17.5 38t-17.5 38t-44.5 15q-26 0 -43 -15t-17 -38t17 -38t43 -15zM624 238q23 0 37 12t14 31t-14 31.5t-37 12.5q-22 0 -36 -12.5t-14 -31.5t14 -31t36 -12z" />
    <glyph glyph-name="uni215C" unicode="&#x215c;" horiz-adv-x="889" 
d="M170 533q23 0 38 12.5t15 31.5q0 18 -14 30t-35 12q-23 0 -37 -14t-15 -34h-82q0 27 10 50t28 39.5t43 25.5t54 9q28 0 52.5 -8t42 -22.5t27.5 -34.5t10 -43q0 -52 -49 -81q32 -13 48.5 -36.5t16.5 -55.5q0 -27 -11 -49.5t-30.5 -39t-46 -25.5t-58.5 -9q-65 0 -105.5 36
t-40.5 96h86q0 -24 17 -39t44 -15q26 0 42.5 14t16.5 35q0 23 -18 36.5t-48 13.5h-19v65h18zM247 0h-107l507 687h108zM714 -8q-31 0 -58 9t-46.5 25.5t-30.5 39t-11 48.5q0 32 18 58t49 38q-50 25 -50 78q0 23 9.5 42.5t27 34t41 23t51.5 8.5t52 -8.5t41.5 -23t27.5 -34
t10 -42.5q0 -53 -50 -78q30 -12 48 -38t18 -58q0 -26 -11 -48.5t-31 -39t-47 -25.5t-58 -9zM714 66q27 0 44.5 15t17.5 38t-17.5 38t-44.5 15q-26 0 -43 -15t-17 -38t17 -38t43 -15zM714 238q23 0 37 12t14 31t-14 31.5t-37 12.5q-22 0 -36 -12.5t-14 -31.5t14 -31t36 -12z
" />
    <glyph glyph-name="uni215D" unicode="&#x215d;" horiz-adv-x="887" 
d="M42 482l28 205h227v-73h-162l-10 -74q13 12 32 17.5t40 5.5q27 0 50.5 -9.5t41 -27t27 -41t9.5 -50.5q0 -31 -11 -57t-31 -45.5t-47 -30.5t-59 -11q-63 0 -103.5 35t-42.5 92h85q2 -22 19 -35.5t42 -13.5q26 0 44.5 18t18.5 44q0 27 -18 44.5t-46 17.5q-17 0 -31.5 -7.5
t-23.5 -20.5zM245 0h-107l507 687h108zM712 -8q-31 0 -58 9t-46.5 25.5t-30.5 39t-11 48.5q0 32 18 58t49 38q-50 25 -50 78q0 23 9.5 42.5t27 34t41 23t51.5 8.5t52 -8.5t41.5 -23t27.5 -34t10 -42.5q0 -53 -50 -78q30 -12 48 -38t18 -58q0 -26 -11 -48.5t-31 -39
t-47 -25.5t-58 -9zM712 66q27 0 44.5 15t17.5 38t-17.5 38t-44.5 15q-26 0 -43 -15t-17 -38t17 -38t43 -15zM712 238q23 0 37 12t14 31t-14 31.5t-37 12.5q-22 0 -36 -12.5t-14 -31.5t14 -31t36 -12z" />
    <glyph glyph-name="uni215E" unicode="&#x215e;" horiz-adv-x="820" 
d="M51 299l159 310h-186v78h287v-63l-162 -325h-98zM178 0h-107l507 687h108zM645 -8q-31 0 -58 9t-46.5 25.5t-30.5 39t-11 48.5q0 32 18 58t49 38q-50 25 -50 78q0 23 9.5 42.5t27 34t41 23t51.5 8.5t52 -8.5t41.5 -23t27.5 -34t10 -42.5q0 -53 -50 -78q30 -12 48 -38
t18 -58q0 -26 -11 -48.5t-31 -39t-47 -25.5t-58 -9zM645 66q27 0 44.5 15t17.5 38t-17.5 38t-44.5 15q-26 0 -43 -15t-17 -38t17 -38t43 -15zM645 238q23 0 37 12t14 31t-14 31.5t-37 12.5q-22 0 -36 -12.5t-14 -31.5t14 -31t36 -12z" />
    <glyph glyph-name="uni215F" unicode="&#x215f;" horiz-adv-x="455" 
d="M93 299v308h-67v80h154v-388h-87zM157 0h-107l507 687h108z" />
    <glyph glyph-name="arrowleft" unicode="&#x2190;" horiz-adv-x="850" 
d="M775 302h-528l199 -200l-67 -67l-316 315l316 315l67 -67l-199 -200h528v-96z" />
    <glyph glyph-name="arrowup" unicode="&#x2191;" horiz-adv-x="800" 
d="M352 0v536l-200 -199l-67 67l315 315l315 -315l-67 -67l-200 199v-536h-96z" />
    <glyph glyph-name="arrowright" unicode="&#x2192;" horiz-adv-x="850" 
d="M75 398h528l-199 200l67 67l316 -315l-316 -315l-67 67l199 200h-528v96z" />
    <glyph glyph-name="arrowdown" unicode="&#x2193;" horiz-adv-x="800" 
d="M448 700v-536l200 199l67 -67l-315 -315l-315 315l67 67l200 -199v536h96z" />
    <glyph glyph-name="uni2196" unicode="&#x2196;" horiz-adv-x="750" 
d="M564 605h-282l388 -389l-67 -68l-388 389v-283h-96v446h445v-95z" />
    <glyph glyph-name="uni2197" unicode="&#x2197;" horiz-adv-x="750" 
d="M186 700h445v-446h-96v283l-388 -389l-67 68l388 389h-282v95z" />
    <glyph glyph-name="uni2198" unicode="&#x2198;" horiz-adv-x="750" 
d="M564 0h-445v446h96v-283l388 389l67 -68l-388 -389h282v-95z" />
    <glyph glyph-name="uni2199" unicode="&#x2199;" horiz-adv-x="750" 
d="M186 95h282l-388 389l67 68l388 -389v283h96v-446h-445v95z" />
    <glyph glyph-name="partialdiff" unicode="&#x2202;" horiz-adv-x="612" 
d="M284 458q54 0 95.5 -17t64.5 -43q-1 43 -13.5 80t-36.5 64.5t-57.5 43t-76.5 15.5q-32 0 -70 -8.5t-74 -28.5v106q35 17 75 25.5t79 8.5q61 0 114.5 -22.5t93 -66t62.5 -109t23 -150.5q0 -77 -17.5 -144t-53 -117t-88.5 -78.5t-123 -28.5q-50 0 -93 15.5t-74.5 45.5
t-50 72.5t-18.5 96.5q0 52 18 96.5t50.5 76t76 49.5t94.5 18zM301 356q-32 0 -58 -10.5t-44 -29t-28 -43.5t-10 -54q0 -57 35.5 -91t89.5 -34q34 0 61.5 15t47 40t31.5 57.5t15 66.5q-20 38 -57.5 60.5t-82.5 22.5z" />
    <glyph glyph-name="Delta" unicode="&#x2206;" horiz-adv-x="724" 
d="M32 0l281 698h97l282 -698h-660zM193 108h335l-168 421z" />
    <glyph glyph-name="product" unicode="&#x220f;" horiz-adv-x="710" 
d="M82 693h546v-693h-119v582h-308v-582h-119v693z" />
    <glyph glyph-name="summation" unicode="&#x2211;" horiz-adv-x="577" 
d="M45 88l219 258l-219 259v88h486v-108h-321l182 -218v-41l-183 -217h322v-109h-486v88z" />
    <glyph glyph-name="minus" unicode="&#x2212;" 
d="M70 382h460v-97h-460v97z" />
    <glyph glyph-name="radical" unicode="&#x221a;" horiz-adv-x="713" 
d="M682 694l-299 -694h-95l-157 374h-96v102h176l127 -318l228 536h116z" />
    <glyph glyph-name="infinity" unicode="&#x221e;" horiz-adv-x="805" 
d="M400 251q-33 -42 -72 -67t-91 -25q-39 0 -72 13.5t-57 36.5t-37.5 55t-13.5 68t13.5 68t37.5 55t57 36.5t72 13.5q52 0 93.5 -25.5t74.5 -66.5q33 41 72.5 66.5t90.5 25.5q39 0 72 -13.5t57 -36.5t37.5 -55t13.5 -68t-13.5 -68t-37.5 -55t-57 -36.5t-72 -13.5
q-52 0 -93.5 25.5t-74.5 66.5zM644 332q0 32 -23.5 54.5t-56.5 22.5q-17 0 -32 -7t-28 -18.5t-24 -25.5t-20 -27q9 -14 20 -27.5t24 -24t28 -17.5t32 -7q33 0 56.5 22.5t23.5 54.5zM161 332q0 -32 23.5 -54.5t56.5 -22.5q18 0 33 7t27.5 18.5t23.5 25t21 27.5q-10 13 -21 27
t-23.5 24.5t-27.5 17.5t-33 7q-33 0 -56.5 -22.5t-23.5 -54.5z" />
    <glyph glyph-name="integral" unicode="&#x222b;" horiz-adv-x="422" 
d="M269 -34q0 -93 -47.5 -140.5t-124.5 -47.5q-26 0 -45 3.5t-32 8.5v102q21 -9 55 -9t56 19t22 67v547q0 93 48 140.5t125 47.5q26 0 45 -3.5t31 -8.5v-102q-11 4 -23.5 6.5t-30.5 2.5q-34 0 -56.5 -19t-22.5 -67v-547z" />
    <glyph glyph-name="approxequal" unicode="&#x2248;" 
d="M81 170q0 34 10.5 60t28.5 44t42.5 27t52.5 9q38 0 60.5 -9t38.5 -20.5t29.5 -20.5t33.5 -9q23 0 37 15.5t15 38.5h91q0 -34 -10.5 -60t-28.5 -44t-42.5 -27t-52.5 -9q-38 0 -61 9t-39 20.5t-29.5 20.5t-32.5 9q-23 0 -37 -15.5t-15 -38.5h-91zM81 362q0 34 10.5 60
t28.5 44t42.5 27t52.5 9q38 0 60.5 -9t38.5 -20.5t29.5 -20.5t33.5 -9q23 0 37 15.5t15 38.5h91q0 -34 -10.5 -60t-28.5 -44t-42.5 -27t-52.5 -9q-38 0 -61 9t-39 20.5t-29.5 20.5t-32.5 9q-23 0 -37 -15.5t-15 -38.5h-91z" />
    <glyph glyph-name="notequal" unicode="&#x2260;" 
d="M70 483h250l39 85h103l-39 -85h107v-96h-152l-49 -107h201v-96h-245l-40 -88h-103l40 88h-112v96h156l49 107h-205v96z" />
    <glyph glyph-name="equivalence" unicode="&#x2261;" 
d="M70 185h460v-96h-460v96zM70 381h460v-96h-460v96zM70 577h460v-96h-460v96z" />
    <glyph glyph-name="lessequal" unicode="&#x2264;" 
d="M86 140h428v-95h-428v95zM86 486l428 168v-104l-304 -119l304 -119v-108l-428 168v114z" />
    <glyph glyph-name="greaterequal" unicode="&#x2265;" 
d="M514 45h-428v95h428v-95zM514 372l-428 -168v106l303 118l-303 118v108l428 -168v-114z" />
    <glyph glyph-name="lozenge" unicode="&#x25ca;" horiz-adv-x="585" 
d="M337 0h-89l-218 348l218 346h89l218 -346zM291 562l-134 -212l137 -218l135 213z" />
    <glyph glyph-name="anglebracketleft" unicode="&#x3008;" horiz-adv-x="349" 
d="M25 291l203 462h112l-200 -459l202 -459h-116z" />
    <glyph glyph-name="anglebracketright" unicode="&#x3009;" horiz-adv-x="349" 
d="M324 297l-202 -462h-113l200 459l-201 459h115z" />
    <glyph glyph-name="commaaccent" unicode="&#xf6c3;" horiz-adv-x="500" 
d="M237 -167h-2q-21 1 -36 16t-15 37q0 29 19.5 46.5t45.5 17.5q29 0 47.5 -17.5t18.5 -45.5q0 -14 -4.5 -28t-10.5 -27l-35 -72h-66z" />
    <glyph glyph-name="fi" unicode="&#xfb01;" horiz-adv-x="624" 
d="M211 490h132v-98h-132v-392h-116v392h-73v98h73v29q0 49 13.5 86t38.5 62t59 38t76 13q25 0 43.5 -4t31.5 -10v-102q-11 6 -25.5 10t-32.5 4q-38 0 -63 -22t-25 -74v-30zM436 0v490h116v-490h-116zM565 633q0 -29 -20.5 -50t-51.5 -21q-29 0 -50 21t-21 50q0 30 21 51
t50 21q31 0 51.5 -21.5t20.5 -50.5z" />
    <glyph glyph-name="fl" unicode="&#xfb02;" horiz-adv-x="623" 
d="M211 490h132v-98h-132v-392h-116v392h-73v98h73v29q0 49 13.5 86t38.5 62t59 38t76 13q25 0 43.5 -4t31.5 -10v-102q-11 6 -25.5 10t-32.5 4q-38 0 -63 -22t-25 -74v-30zM551 700v-700h-116v700h116z" />
    <glyph glyph-name="Adieresis.square" horiz-adv-x="692" 
d="M397 700l285 -700h-126l-71 177h-282l-70 -177h-123l285 700h102zM242 282h205l-103 260zM196 768v116h108v-116h-108zM389 768v116h108v-116h-108z" />
    <glyph glyph-name="Anocross" horiz-adv-x="692" 
d="M133 0h-123l285 700h100l285 -700h-126l-211 534z" />
    <glyph glyph-name="Cdotaccent.square" horiz-adv-x="643" 
d="M46 350q0 76 28 142.5t76.5 115.5t114.5 77t142 28q51 0 98.5 -14.5t92.5 -42.5v-129q-46 35 -92 52t-98 17q-51 0 -94.5 -19t-75.5 -52t-50 -78t-18 -97q0 -51 18 -95.5t50 -78t75.5 -52.5t94.5 -19t98 17t94 50v-129q-48 -29 -97 -42t-97 -13q-76 0 -141.5 27.5
t-114 76.5t-76.5 115t-28 143zM343 769v120h116v-120h-116z" />
    <glyph glyph-name="Edieresis.square" horiz-adv-x="535" 
d="M82 700h400v-109h-280v-178h258v-106h-258v-198h282v-109h-402v700zM133 768v116h108v-116h-108zM326 768v116h108v-116h-108z" />
    <glyph glyph-name="Edotaccent.square" horiz-adv-x="535" 
d="M82 700h400v-109h-280v-178h258v-106h-258v-198h282v-109h-402v700zM226 769v120h116v-120h-116z" />
    <glyph glyph-name="Gcommaaccent.square" horiz-adv-x="789" 
d="M608 480q-29 57 -81.5 88t-119.5 31q-50 0 -93.5 -19.5t-76 -53.5t-51 -79t-18.5 -97q0 -51 18.5 -96.5t51 -79.5t76 -53.5t94.5 -19.5q42 0 77.5 13t63 36t45.5 54.5t24 69.5h-228v105h356v-45q0 -73 -25 -136.5t-70 -110t-107 -73t-137 -26.5t-141 28.5t-115 77.5
t-77 115t-28 141t28.5 141t78 115.5t115 78t140.5 28.5q51 0 97.5 -12.5t86 -36t71 -56.5t52.5 -74zM353 -54h109v-108q0 -43 -22.5 -65.5t-67.5 -23.5q-9 0 -17 1v52q4 -1 9 -1q17 1 27 9t10 23v7h-48v106z" />
    <glyph glyph-name="Gdotaccent.square" horiz-adv-x="789" 
d="M608 480q-29 57 -81.5 88t-119.5 31q-50 0 -93.5 -19.5t-76 -53.5t-51 -79t-18.5 -97q0 -51 18.5 -96.5t51 -79.5t76 -53.5t94.5 -19.5q42 0 77.5 13t63 36t45.5 54.5t24 69.5h-228v105h356v-45q0 -73 -25 -136.5t-70 -110t-107 -73t-137 -26.5t-141 28.5t-115 77.5
t-77 115t-28 141t28.5 141t78 115.5t115 78t140.5 28.5q51 0 97.5 -12.5t86 -36t71 -56.5t52.5 -74zM350 769v120h116v-120h-116z" />
    <glyph glyph-name="Idieresis.square" horiz-adv-x="284" 
d="M202 700v-700h-120v700h120zM-9 768v116h108v-116h-108zM184 768v116h108v-116h-108z" />
    <glyph glyph-name="Idotaccent.square" horiz-adv-x="284" 
d="M202 700v-700h-120v700h120zM84 769v120h116v-120h-116z" />
    <glyph glyph-name="Kcommaaccent.square" horiz-adv-x="644" 
d="M202 408l264 292h146l-293 -320l316 -380h-151l-244 299l-38 -42v-257h-120v700h120v-292zM283 -54h109v-108q0 -43 -22.5 -65.5t-67.5 -23.5q-9 0 -17 1v52q4 -1 9 -1q17 1 27 9t10 23v7h-48v106z" />
    <glyph glyph-name="Lcommaaccent.square" horiz-adv-x="469" 
d="M202 700v-588h246v-112h-366v700h120zM209 -54h109v-108q0 -43 -22.5 -65.5t-67.5 -23.5q-9 0 -17 1v52q4 -1 9 -1q17 1 27 9t10 23v7h-48v106z" />
    <glyph glyph-name="Ldot.square" horiz-adv-x="469" 
d="M202 700v-588h246v-112h-366v700h120zM314 291v123h116v-123h-116z" />
    <glyph glyph-name="Ncommaaccent.square" horiz-adv-x="774" 
d="M692 700v-700h-117l-377 514v-514h-116v700h122l372 -513v513h116zM328 -54h109v-108q0 -43 -22.5 -65.5t-67.5 -23.5q-9 0 -17 1v52q4 -1 9 -1q17 1 27 9t10 23v7h-48v106z" />
    <glyph glyph-name="Odieresis.square" horiz-adv-x="818" 
d="M46 350q0 76 28.5 142t77.5 115t115.5 77.5t141.5 28.5t141.5 -28.5t115.5 -77.5t77.5 -115t28.5 -142q0 -75 -28.5 -141t-77.5 -115t-115.5 -77.5t-141.5 -28.5t-141.5 28.5t-115.5 77.5t-77.5 115t-28.5 141zM169 350q0 -51 18.5 -96t51 -78t76 -52.5t94.5 -19.5
t94.5 19.5t76 52.5t51 78t18.5 96t-18.5 96t-51 78.5t-76 53t-94.5 19.5t-94.5 -19.5t-76 -53t-51 -78.5t-18.5 -96zM259 768v116h108v-116h-108zM452 768v116h108v-116h-108z" />
    <glyph glyph-name="Rcommaaccent.square" horiz-adv-x="605" 
d="M201 0h-119v700h219q53 0 97 -14t76 -41.5t49.5 -67t17.5 -90.5q0 -78 -44 -129t-114 -71l206 -287h-141l-193 277h-54v-277zM201 378h100q53 0 86.5 28.5t33.5 79.5t-33.5 78.5t-86.5 27.5h-100v-214zM270 -54h109v-108q0 -43 -22.5 -65.5t-67.5 -23.5q-9 0 -17 1v52
q4 -1 9 -1q17 1 27 9t10 23v7h-48v106z" />
    <glyph glyph-name="Scommaaccent.square" horiz-adv-x="556" 
d="M139 213q19 -51 56.5 -81.5t90.5 -30.5q45 0 78 23.5t33 68.5q0 65 -88 97l-83 30q-78 28 -121 75t-43 119q0 45 16.5 82t46 63t69 40t85.5 14q76 -1 136 -41.5t89 -113.5l-103 -52q-16 40 -46 67.5t-75 27.5q-42 0 -69 -22t-27 -58q0 -32 22 -52.5t65 -37.5l86 -33
q82 -32 122.5 -79.5t40.5 -117.5q0 -50 -19 -89.5t-51 -67t-75 -42t-91 -14.5q-88 0 -155 45.5t-96 129.5zM228 -54h109v-108q0 -43 -22.5 -65.5t-67.5 -23.5q-9 0 -17 1v52q4 -1 9 -1q17 1 27 9t10 23v7h-48v106z" />
    <glyph glyph-name="Tcommaaccent.square" horiz-adv-x="547" 
d="M19 700h509v-111h-194v-589h-121v589h-194v111zM220 -54h109v-108q0 -43 -22.5 -65.5t-67.5 -23.5q-9 0 -17 1v52q4 -1 9 -1q17 1 27 9t10 23v7h-48v106z" />
    <glyph glyph-name="Udieresis.square" horiz-adv-x="694" 
d="M347 -12q-65 0 -116 21t-86 59t-53.5 91.5t-18.5 118.5v422h120v-417q0 -81 39.5 -130t114.5 -49t114.5 49t39.5 130v417h120v-422q0 -65 -18.5 -118.5t-53.5 -91.5t-86 -59t-116 -21zM196 768v116h108v-116h-108zM389 768v116h108v-116h-108z" />
    <glyph glyph-name="Wdieresis.square" horiz-adv-x="1012" 
d="M249 0l-238 700h124l161 -499l167 499h88l166 -499l162 499h122l-239 -700h-90l-167 500l-166 -500h-90zM356 768v116h108v-116h-108zM549 768v116h108v-116h-108z" />
    <glyph glyph-name="Ydieresis.square" horiz-adv-x="641" 
d="M381 0h-120v308l-253 392h138l176 -281l176 281h135l-252 -392v-308zM171 768v116h108v-116h-108zM364 768v116h108v-116h-108z" />
    <glyph glyph-name="Zdotaccent.square" horiz-adv-x="611" 
d="M196 108h382v-108h-546v78l378 514h-354v108h518v-78zM268 769v120h116v-120h-116z" />
    <glyph glyph-name="a.alt" horiz-adv-x="527" 
d="M41 130q0 134 174 159l133 17v21q0 37 -23.5 58.5t-63.5 21.5q-75 0 -97 -74l-106 27q18 66 73 104t130 38q96 0 148 -48t52 -135v-319h-108l-1 60q-25 -35 -65 -53.5t-88 -18.5q-35 0 -64 10.5t-50 29.5t-32.5 45t-11.5 57zM156 138q0 -26 19.5 -41.5t50.5 -15.5
q54 0 88.5 31t34.5 80v28l-111 -15q-41 -5 -61.5 -23t-20.5 -44z" />
    <glyph glyph-name="t.alt" horiz-adv-x="324" 
d="M100 0v392h-83v98h83v145h116v-145h95v-98h-95v-392h-116z" />
    <glyph glyph-name="u.alt" horiz-adv-x="568" 
d="M284 -12q-102 0 -160 58.5t-58 164.5v279h116v-272q0 -58 27 -90.5t75 -32.5t75 32.5t27 90.5v272h116v-279q0 -106 -58 -164.5t-160 -58.5z" />
    <glyph glyph-name="adieresis.square" horiz-adv-x="632" 
d="M559 490v-490h-114v71q-27 -38 -71 -60.5t-95 -22.5t-94.5 20t-75.5 54.5t-50.5 81.5t-18.5 101t18.5 101t50.5 81.5t75.5 54.5t94.5 20t95 -20.5t71 -58.5v67h114zM156 245q0 -32 11.5 -59.5t31 -48t46.5 -32.5t58 -12t58 12t46.5 32.5t31 48t11.5 59.5t-11.5 59.5
t-31 48t-46.5 32.5t-58 12t-58 -12t-46.5 -32.5t-31 -48t-11.5 -59.5zM157 576v117h108v-117h-108zM350 576v117h108v-117h-108z" />
    <glyph glyph-name="cdotaccent.square" horiz-adv-x="472" 
d="M40 245q0 55 19 102t53.5 81.5t82 54t104.5 19.5q73 0 131 -35v-115q-58 44 -121 44q-33 0 -60.5 -11.5t-48 -32t-32 -48t-11.5 -59.5t11.5 -59.5t31.5 -48t48 -32t61 -11.5q35 0 66 13t57 31v-115q-62 -35 -134 -35q-57 0 -104.5 19t-81.5 53.5t-53 81.5t-19 103z
M235 571v123h116v-123h-116z" />
    <glyph glyph-name="edieresis.square" horiz-adv-x="568" 
d="M418 294q-3 24 -14 45t-28 36t-40 23.5t-49 8.5t-48.5 -10t-40 -25.5t-28.5 -36t-14 -41.5h262zM139 576v117h108v-117h-108zM332 576v117h108v-117h-108zM516 115q-31 -58 -87 -92.5t-134 -34.5q-56 0 -103 19t-80.5 53t-52.5 81t-19 104q0 55 19 102t52.5 81.5t79 54
t98.5 19.5q54 0 98.5 -19.5t77 -54t50.5 -81.5t18 -102q0 -14 -1 -35h-377q2 -27 14 -49.5t31 -39t44 -26t52 -9.5q48 0 76 21t49 53z" />
    <glyph glyph-name="edotaccent.square" horiz-adv-x="568" 
d="M418 294q-3 24 -14 45t-28 36t-40 23.5t-49 8.5t-48.5 -10t-40 -25.5t-28.5 -36t-14 -41.5h262zM232 571v123h116v-123h-116zM516 115q-31 -58 -87 -92.5t-134 -34.5q-56 0 -103 19t-80.5 53t-52.5 81t-19 104q0 55 19 102t52.5 81.5t79 54t98.5 19.5q54 0 98.5 -19.5
t77 -54t50.5 -81.5t18 -102q0 -14 -1 -35h-377q2 -27 14 -49.5t31 -39t44 -26t52 -9.5q48 0 76 21t49 53z" />
    <glyph glyph-name="gcommaaccent.square" horiz-adv-x="622" 
d="M436 84q-25 -35 -67.5 -57t-93.5 -22q-50 0 -93 19t-74.5 52t-49.5 78t-18 98t18 98.5t49.5 79.5t74.5 53t93 19q51 0 93.5 -21t67.5 -57v66h114v-460q0 -57 -17.5 -104t-50.5 -80.5t-80.5 -52t-107.5 -18.5q-82 0 -143.5 34t-93.5 95l92 58q23 -42 60.5 -64t84.5 -22
q66 0 104 40.5t38 112.5v55zM441 252q0 30 -11 57t-30 46.5t-45 31t-56 11.5t-56 -11.5t-45 -31t-30 -46.5t-11 -57q0 -31 11 -57.5t30 -46.5t45 -31.5t56 -11.5t56 11.5t45 31.5t30 46.5t11 57.5zM353 567h-109v110q0 43 22.5 65.5t67.5 23.5q9 0 17 -1v-53q-4 1 -9 1
q-17 0 -27 -8t-10 -23v-7h48v-108z" />
    <glyph glyph-name="gdotaccent.square" horiz-adv-x="622" 
d="M436 84q-25 -35 -67.5 -57t-93.5 -22q-50 0 -93 19t-74.5 52t-49.5 78t-18 98t18 98.5t49.5 79.5t74.5 53t93 19q51 0 93.5 -21t67.5 -57v66h114v-460q0 -57 -17.5 -104t-50.5 -80.5t-80.5 -52t-107.5 -18.5q-82 0 -143.5 34t-93.5 95l92 58q23 -42 60.5 -64t84.5 -22
q66 0 104 40.5t38 112.5v55zM441 252q0 30 -11 57t-30 46.5t-45 31t-56 11.5t-56 -11.5t-45 -31t-30 -46.5t-11 -57q0 -31 11 -57.5t30 -46.5t45 -31.5t56 -11.5t56 11.5t45 31.5t30 46.5t11 57.5zM245 571v123h116v-123h-116z" />
    <glyph glyph-name="idieresis.square" horiz-adv-x="260" 
d="M188 490v-490h-116v490h116zM-21 576v117h108v-117h-108zM172 576v117h108v-117h-108z" />
    <glyph glyph-name="idotaccent" horiz-adv-x="260" 
d="M72 0v490h116v-490h-116zM201 633q0 -29 -20.5 -50t-51.5 -21q-29 0 -50 21t-21 50q0 30 21 51t50 21q31 0 51.5 -21.5t20.5 -50.5z" />
    <glyph glyph-name="idotaccent.square" horiz-adv-x="260" 
d="M72 571v123h116v-123h-116zM188 490v-490h-116v490h116z" />
    <glyph glyph-name="iogonek.square" horiz-adv-x="260" 
d="M188 490v-490q-43 -13 -68 -37.5t-25 -53.5q0 -20 11 -30.5t30 -10.5q11 0 24 3t24 11v-74q-30 -14 -68 -14q-50 0 -78.5 26.5t-28.5 70.5q0 33 16.5 60t46.5 49v490h116zM72 571v123h116v-123h-116z" />
    <glyph glyph-name="kcommaaccent.square" horiz-adv-x="536" 
d="M513 490l-213 -213l229 -277h-142l-175 217l-25 -23v-194h-115v700h115v-395l184 185h142zM230 -54h109v-108q0 -43 -22.5 -65.5t-67.5 -23.5q-9 0 -17 1v52q4 -1 9 -1q17 1 27 9t10 23v7h-48v106z" />
    <glyph glyph-name="lcommaaccent.square" horiz-adv-x="260" 
d="M188 700v-700h-116v700h116zM76 -54h109v-108q0 -43 -22.5 -65.5t-67.5 -23.5q-9 0 -17 1v52q4 -1 9 -1q17 1 27 9t10 23v7h-48v106z" />
    <glyph glyph-name="ldot.square" horiz-adv-x="366" 
d="M255 270v123h116v-123h-116zM188 700v-700h-116v700h116z" />
    <glyph glyph-name="ncommaaccent.square" horiz-adv-x="594" 
d="M188 0h-116v490h116v-65q23 35 60.5 56t89.5 21q90 0 140 -55.5t50 -151.5v-295h-116v273q0 57 -28 89.5t-81 32.5q-52 0 -83.5 -37t-31.5 -100v-258zM246 -54h109v-108q0 -43 -22.5 -65.5t-67.5 -23.5q-9 0 -17 1v52q4 -1 9 -1q17 1 27 9t10 23v7h-48v106z" />
    <glyph glyph-name="odieresis.square" horiz-adv-x="602" 
d="M301 502q56 0 104 -20t83 -54.5t54.5 -81.5t19.5 -101t-19.5 -101t-54.5 -81.5t-83 -54.5t-104 -20t-104 20t-83 54.5t-54.5 81.5t-19.5 101t19.5 101t54.5 81.5t83 54.5t104 20zM301 396q-31 0 -57.5 -12t-46 -32t-31 -48t-11.5 -59q0 -32 11.5 -59.5t31 -47.5t46 -32
t57.5 -12t57.5 12t46 32t31 47.5t11.5 59.5q0 31 -11.5 59t-31 48t-46 32t-57.5 12zM150 576v117h108v-117h-108zM343 576v117h108v-117h-108z" />
    <glyph glyph-name="rcommaaccent.square" horiz-adv-x="378" 
d="M354 379q-8 4 -30 4q-64 0 -100.5 -45.5t-36.5 -121.5v-216h-115v490h114v-84q18 43 58 68.5t88 25.5q19 0 22 -3v-118zM77 -54h109v-108q0 -43 -22.5 -65.5t-67.5 -23.5q-9 0 -17 1v52q4 -1 9 -1q17 1 27 9t10 23v7h-48v106z" />
    <glyph glyph-name="scommaaccent.square" horiz-adv-x="429" 
d="M122 162q13 -34 39 -54.5t59 -20.5q27 0 46.5 12.5t19.5 38.5q0 20 -13.5 32t-42.5 21l-59 19q-125 40 -125 142q0 34 13.5 62t36.5 47.5t53.5 30t65.5 10.5q60 0 107.5 -30t70.5 -81l-93 -50q-14 29 -35.5 47t-49.5 18q-25 0 -42 -12t-17 -33q0 -35 55 -53l58 -19
q69 -23 99 -58.5t30 -84.5q0 -38 -14.5 -67t-39.5 -49.5t-57.5 -31t-68.5 -10.5q-69 0 -119 34t-71 91zM164 -54h109v-108q0 -43 -22.5 -65.5t-67.5 -23.5q-9 0 -17 1v52q4 -1 9 -1q17 1 27 9t10 23v7h-48v106z" />
    <glyph glyph-name="tcommaaccent.square" horiz-adv-x="368" 
d="M208 635v-145h130v-98h-130v-220q0 -41 18.5 -59.5t57.5 -18.5q14 0 28.5 3.5t25.5 11.5v-103q-14 -8 -36 -13t-52 -5q-74 0 -115.5 43t-41.5 120v241h-73v98h73v145h115zM152 -54h109v-108q0 -43 -22.5 -65.5t-67.5 -23.5q-9 0 -17 1v52q4 -1 9 -1q17 1 27 9t10 23v7
h-48v106z" />
    <glyph glyph-name="udieresis.square" horiz-adv-x="590" 
d="M402 490h116v-490h-116v65q-23 -35 -60.5 -56t-88.5 -21q-88 0 -137.5 55.5t-49.5 151.5v295h116v-273q0 -57 27.5 -89.5t78.5 -32.5q52 0 83 37t31 100v258zM141 576v117h108v-117h-108zM334 576v117h108v-117h-108z" />
    <glyph glyph-name="wdieresis.square" horiz-adv-x="808" 
d="M519 0l-115 331l-116 -331h-93l-178 490h119l112 -332l115 332h85l115 -332l112 332h116l-178 -490h-94zM255 576v117h108v-117h-108zM448 576v117h108v-117h-108z" />
    <glyph glyph-name="ydieresis.square" horiz-adv-x="542" 
d="M116 -222q-23 0 -39.5 4.5t-28.5 9.5v99q23 -10 51 -10q31 0 52 16.5t38 58.5l21 51l-196 483h123l134 -353l138 353h119l-227 -549q-36 -87 -79.5 -125t-105.5 -38zM121 576v117h108v-117h-108zM314 576v117h108v-117h-108z" />
    <glyph glyph-name="ij.square" horiz-adv-x="523" 
d="M72 571v123h116v-123h-116zM188 490v-490h-116v490h116zM335 490h116v-521q0 -95 -45.5 -143t-122.5 -48q-23 0 -38.5 3.5t-27.5 8.5v101q18 -9 46 -9q34 0 53 23.5t19 67.5v517zM335 571v123h116v-123h-116z" />
    <glyph glyph-name="zdotaccent.square" horiz-adv-x="469" 
d="M439 420l-261 -323h265v-97h-416v72l259 321h-243v97h396v-70zM193 571v123h116v-123h-116z" />
    <glyph glyph-name="i.square" horiz-adv-x="260" 
d="M72 571v123h116v-123h-116zM188 490v-490h-116v490h116z" />
    <glyph glyph-name="j.square" horiz-adv-x="263" 
d="M75 490h116v-521q0 -95 -45.5 -143t-122.5 -48q-23 0 -38.5 3.5t-27.5 8.5v101q18 -9 46 -9q34 0 53 23.5t19 67.5v517zM75 571v123h116v-123h-116z" />
    <glyph glyph-name="aring.alt" horiz-adv-x="527" 
d="M41 130q0 134 174 159l133 17v21q0 37 -23.5 58.5t-63.5 21.5q-75 0 -97 -74l-106 27q18 66 73 104t130 38q96 0 148 -48t52 -135v-319h-108l-1 60q-25 -35 -65 -53.5t-88 -18.5q-35 0 -64 10.5t-50 29.5t-32.5 45t-11.5 57zM156 138q0 -26 19.5 -41.5t50.5 -15.5
q54 0 88.5 31t34.5 80v28l-111 -15q-41 -5 -61.5 -23t-20.5 -44zM161 653q0 21 8 39t22 31t33 20.5t40 7.5t40 -7.5t33 -20.5t22 -31t8 -39t-8 -39t-22 -31t-33 -20.5t-40 -7.5t-40 7.5t-33 20.5t-22 31t-8 39zM226 653q0 -16 11 -27t27 -11t27 11t11 27t-11 27t-27 11
t-27 -11t-11 -27z" />
    <glyph glyph-name="aacute.alt" horiz-adv-x="527" 
d="M206 575l96 143h127l-121 -143h-102zM41 130q0 134 174 159l133 17v21q0 37 -23.5 58.5t-63.5 21.5q-75 0 -97 -74l-106 27q18 66 73 104t130 38q96 0 148 -48t52 -135v-319h-108l-1 60q-25 -35 -65 -53.5t-88 -18.5q-35 0 -64 10.5t-50 29.5t-32.5 45t-11.5 57zM156 138
q0 -26 19.5 -41.5t50.5 -15.5q54 0 88.5 31t34.5 80v28l-111 -15q-41 -5 -61.5 -23t-20.5 -44z" />
    <glyph glyph-name="abreve.alt" horiz-adv-x="527" 
d="M262 650q26 0 42 17t18 46h82q0 -63 -40 -101t-102 -38q-63 0 -103 38t-40 101h82q2 -29 18.5 -46t42.5 -17zM41 130q0 134 174 159l133 17v21q0 37 -23.5 58.5t-63.5 21.5q-75 0 -97 -74l-106 27q18 66 73 104t130 38q96 0 148 -48t52 -135v-319h-108l-1 60
q-25 -35 -65 -53.5t-88 -18.5q-35 0 -64 10.5t-50 29.5t-32.5 45t-11.5 57zM156 138q0 -26 19.5 -41.5t50.5 -15.5q54 0 88.5 31t34.5 80v28l-111 -15q-41 -5 -61.5 -23t-20.5 -44z" />
    <glyph glyph-name="acircumflex.alt" horiz-adv-x="527" 
d="M109 575l111 143h90l110 -143h-106l-51 68l-50 -68h-104zM41 130q0 134 174 159l133 17v21q0 37 -23.5 58.5t-63.5 21.5q-75 0 -97 -74l-106 27q18 66 73 104t130 38q96 0 148 -48t52 -135v-319h-108l-1 60q-25 -35 -65 -53.5t-88 -18.5q-35 0 -64 10.5t-50 29.5
t-32.5 45t-11.5 57zM156 138q0 -26 19.5 -41.5t50.5 -15.5q54 0 88.5 31t34.5 80v28l-111 -15q-41 -5 -61.5 -23t-20.5 -44z" />
    <glyph glyph-name="adieresis.alt" horiz-adv-x="527" 
d="M229 633q0 -25 -18.5 -43.5t-44.5 -18.5q-25 0 -43 18t-18 44t18 44t43 18q27 0 45 -18.5t18 -43.5zM420 633q0 -25 -18 -43.5t-44 -18.5t-44 18t-18 44t18 44t44 18t44 -18.5t18 -43.5zM41 130q0 134 174 159l133 17v21q0 37 -23.5 58.5t-63.5 21.5q-75 0 -97 -74
l-106 27q18 66 73 104t130 38q96 0 148 -48t52 -135v-319h-108l-1 60q-25 -35 -65 -53.5t-88 -18.5q-35 0 -64 10.5t-50 29.5t-32.5 45t-11.5 57zM156 138q0 -26 19.5 -41.5t50.5 -15.5q54 0 88.5 31t34.5 80v28l-111 -15q-41 -5 -61.5 -23t-20.5 -44z" />
    <glyph glyph-name="adieresisalt.square" horiz-adv-x="527" 
d="M112 576v117h108v-117h-108zM305 576v117h108v-117h-108zM41 130q0 134 174 159l133 17v21q0 37 -23.5 58.5t-63.5 21.5q-75 0 -97 -74l-106 27q18 66 73 104t130 38q96 0 148 -48t52 -135v-319h-108l-1 60q-25 -35 -65 -53.5t-88 -18.5q-35 0 -64 10.5t-50 29.5
t-32.5 45t-11.5 57zM156 138q0 -26 19.5 -41.5t50.5 -15.5q54 0 88.5 31t34.5 80v28l-111 -15q-41 -5 -61.5 -23t-20.5 -44z" />
    <glyph glyph-name="agrave.alt" horiz-adv-x="527" 
d="M228 575l-121 143h127l95 -143h-101zM41 130q0 134 174 159l133 17v21q0 37 -23.5 58.5t-63.5 21.5q-75 0 -97 -74l-106 27q18 66 73 104t130 38q96 0 148 -48t52 -135v-319h-108l-1 60q-25 -35 -65 -53.5t-88 -18.5q-35 0 -64 10.5t-50 29.5t-32.5 45t-11.5 57zM156 138
q0 -26 19.5 -41.5t50.5 -15.5q54 0 88.5 31t34.5 80v28l-111 -15q-41 -5 -61.5 -23t-20.5 -44z" />
    <glyph glyph-name="amacron.alt" horiz-adv-x="527" 
d="M119 590v77h288v-77h-288zM41 130q0 134 174 159l133 17v21q0 37 -23.5 58.5t-63.5 21.5q-75 0 -97 -74l-106 27q18 66 73 104t130 38q96 0 148 -48t52 -135v-319h-108l-1 60q-25 -35 -65 -53.5t-88 -18.5q-35 0 -64 10.5t-50 29.5t-32.5 45t-11.5 57zM156 138
q0 -26 19.5 -41.5t50.5 -15.5q54 0 88.5 31t34.5 80v28l-111 -15q-41 -5 -61.5 -23t-20.5 -44z" />
    <glyph glyph-name="aogonek.alt" horiz-adv-x="527" 
d="M41 130q0 134 174 159l133 17v21q0 37 -23.5 58.5t-63.5 21.5q-75 0 -97 -74l-106 27q18 66 73 104t130 38q96 0 148 -48t52 -135v-319q-21 -6 -40 -15.5t-34 -22.5t-24 -27.5t-9 -29.5q0 -18 11 -27t31 -9q26 0 46 13v-74q-30 -14 -67 -14q-51 0 -80 25t-29 67
q0 69 87 114l-1 60q-25 -35 -65 -53.5t-88 -18.5q-35 0 -64 10.5t-50 29.5t-32.5 45t-11.5 57zM156 138q0 -26 19.5 -41.5t50.5 -15.5q54 0 88.5 31t34.5 80v28l-111 -15q-41 -5 -61.5 -23t-20.5 -44z" />
    <glyph glyph-name="atilde.alt" horiz-adv-x="527" 
d="M97 583q-1 61 28 90t73 29q25 0 43 -7.5t32 -16.5t26 -16.5t26 -7.5q18 0 27.5 12t9.5 32h72q1 -62 -28.5 -90.5t-72.5 -28.5q-26 0 -43.5 7.5t-31.5 16.5t-26 16.5t-26 7.5q-19 0 -28 -12t-9 -32h-72zM41 130q0 134 174 159l133 17v21q0 37 -23.5 58.5t-63.5 21.5
q-75 0 -97 -74l-106 27q18 66 73 104t130 38q96 0 148 -48t52 -135v-319h-108l-1 60q-25 -35 -65 -53.5t-88 -18.5q-35 0 -64 10.5t-50 29.5t-32.5 45t-11.5 57zM156 138q0 -26 19.5 -41.5t50.5 -15.5q54 0 88.5 31t34.5 80v28l-111 -15q-41 -5 -61.5 -23t-20.5 -44z" />
    <glyph glyph-name="tbar.alt" horiz-adv-x="324" 
d="M17 311h83v81h-83v98h83v145h116v-145h95v-98h-95v-81h95v-90h-95v-221h-116v221h-83v90z" />
    <glyph glyph-name="tcaron.alt" horiz-adv-x="324" 
d="M270 545l30 167h115l-48 -167h-97zM100 0v392h-83v98h83v145h116v-145h95v-98h-95v-392h-116z" />
    <glyph glyph-name="tcommaaccent.alt" horiz-adv-x="324" 
d="M146 -167h-2q-21 1 -36 16t-15 37q0 29 19.5 46.5t45.5 17.5q29 0 47.5 -17.5t18.5 -45.5q0 -14 -4.5 -28t-10.5 -27l-35 -72h-66zM100 0v392h-83v98h83v145h116v-145h95v-98h-95v-392h-116z" />
    <glyph glyph-name="tcommaaccentalt.square" horiz-adv-x="324" 
d="M104 -54h109v-108q0 -48 -25 -68t-65 -21q-8 0 -11.5 0.5t-5.5 0.5v52q1 0 3.5 -0.5t5.5 -0.5q17 1 27 9t10 23v7h-48v106zM100 0v392h-83v98h83v145h116v-145h95v-98h-95v-392h-116z" />
    <glyph glyph-name="uacute.alt" horiz-adv-x="568" 
d="M220 575l96 143h127l-121 -143h-102zM284 -12q-102 0 -160 58.5t-58 164.5v279h116v-272q0 -58 27 -90.5t75 -32.5t75 32.5t27 90.5v272h116v-279q0 -106 -58 -164.5t-160 -58.5z" />
    <glyph glyph-name="ubreve.alt" horiz-adv-x="568" 
d="M284 650q26 0 42 17t18 46h82q0 -63 -40 -101t-102 -38q-63 0 -103 38t-40 101h82q2 -29 18.5 -46t42.5 -17zM284 -12q-102 0 -160 58.5t-58 164.5v279h116v-272q0 -58 27 -90.5t75 -32.5t75 32.5t27 90.5v272h116v-279q0 -106 -58 -164.5t-160 -58.5z" />
    <glyph glyph-name="ucircumflex.alt" horiz-adv-x="568" 
d="M128 575l111 143h90l110 -143h-106l-51 68l-50 -68h-104zM284 -12q-102 0 -160 58.5t-58 164.5v279h116v-272q0 -58 27 -90.5t75 -32.5t75 32.5t27 90.5v272h116v-279q0 -106 -58 -164.5t-160 -58.5z" />
    <glyph glyph-name="udieresis.alt" horiz-adv-x="568" 
d="M250 633q0 -25 -18.5 -43.5t-44.5 -18.5q-25 0 -43 18t-18 44t18 44t43 18q27 0 45 -18.5t18 -43.5zM441 633q0 -25 -18 -43.5t-44 -18.5t-44 18t-18 44t18 44t44 18t44 -18.5t18 -43.5zM284 -12q-102 0 -160 58.5t-58 164.5v279h116v-272q0 -58 27 -90.5t75 -32.5
t75 32.5t27 90.5v272h116v-279q0 -106 -58 -164.5t-160 -58.5z" />
    <glyph glyph-name="udieresisalt.square" horiz-adv-x="568" 
d="M133 576v117h108v-117h-108zM326 576v117h108v-117h-108zM284 -12q-102 0 -160 58.5t-58 164.5v279h116v-272q0 -58 27 -90.5t75 -32.5t75 32.5t27 90.5v272h116v-279q0 -106 -58 -164.5t-160 -58.5z" />
    <glyph glyph-name="ugrave.alt" horiz-adv-x="568" 
d="M244 575l-121 143h127l95 -143h-101zM284 -12q-102 0 -160 58.5t-58 164.5v279h116v-272q0 -58 27 -90.5t75 -32.5t75 32.5t27 90.5v272h116v-279q0 -106 -58 -164.5t-160 -58.5z" />
    <glyph glyph-name="uhungarumlaut.alt" horiz-adv-x="568" 
d="M141 572l86 142h112l-107 -142h-91zM313 572l86 142h111l-106 -142h-91zM284 -12q-102 0 -160 58.5t-58 164.5v279h116v-272q0 -58 27 -90.5t75 -32.5t75 32.5t27 90.5v272h116v-279q0 -106 -58 -164.5t-160 -58.5z" />
    <glyph glyph-name="umacron.alt" horiz-adv-x="568" 
d="M284 -12q-102 0 -160 58.5t-58 164.5v279h116v-272q0 -58 27 -90.5t75 -32.5t75 32.5t27 90.5v272h116v-279q0 -106 -58 -164.5t-160 -58.5zM140 590v77h288v-77h-288z" />
    <glyph glyph-name="uogonek.alt" horiz-adv-x="568" 
d="M210 -113q0 60 59 102q-96 5 -149.5 63.5t-53.5 158.5v279h116v-272q0 -58 27 -90.5t75 -32.5t75 32.5t27 90.5v272h116v-279q0 -77 -32 -129t-89 -78q-37 -17 -60 -43.5t-23 -55.5q0 -18 11 -27t31 -9q26 0 46 13v-74q-30 -14 -66 -14q-51 0 -80.5 25.5t-29.5 67.5z" />
    <glyph glyph-name="uring.alt" horiz-adv-x="568" 
d="M181 653q0 21 8 39t22 31t33 20.5t40 7.5t40 -7.5t33 -20.5t22 -31t8 -39t-8 -39t-22 -31t-33 -20.5t-40 -7.5t-40 7.5t-33 20.5t-22 31t-8 39zM246 653q0 -16 11 -27t27 -11t27 11t11 27t-11 27t-27 11t-27 -11t-11 -27zM284 -12q-102 0 -160 58.5t-58 164.5v279h116
v-272q0 -58 27 -90.5t75 -32.5t75 32.5t27 90.5v272h116v-279q0 -106 -58 -164.5t-160 -58.5z" />
    <glyph glyph-name="utilde.alt" horiz-adv-x="568" 
d="M119 583q-1 61 28 90t73 29q25 0 43 -7.5t32 -16.5t26 -16.5t26 -7.5q18 0 27.5 12t9.5 32h72q1 -62 -28.5 -90.5t-72.5 -28.5q-26 0 -43.5 7.5t-31.5 16.5t-26 16.5t-26 7.5q-19 0 -28 -12t-9 -32h-72zM284 -12q-102 0 -160 58.5t-58 164.5v279h116v-272q0 -58 27 -90.5
t75 -32.5t75 32.5t27 90.5v272h116v-279q0 -106 -58 -164.5t-160 -58.5z" />
    <glyph glyph-name="ordfeminine.alt" horiz-adv-x="414" 
d="M35 399q0 103 137 120l95 12v12q0 26 -18 40.5t-47 14.5q-54 0 -72 -50l-81 24q14 48 54.5 76t98.5 28q74 0 114.5 -37t40.5 -102v-238h-87v44q-20 -25 -50 -39t-65 -14q-54 0 -87 30t-33 79zM125 402q0 -18 14 -28t37 -10q39 0 65 23t26 59v18l-76 -10q-32 -4 -49 -17.5
t-17 -34.5z" />
    <glyph glyph-name="a.superior" horiz-adv-x="492" 
d="M429 667v-368h-92v52q-19 -28 -52 -44.5t-72 -16.5q-38 0 -70.5 14.5t-56.5 40.5t-38 61.5t-14 76.5t14 76.5t38 61t56.5 40t70.5 14.5q40 0 72.5 -15t51.5 -41v48h92zM233 374q22 0 42 8.5t34 23t22.5 34.5t8.5 43t-8.5 43t-22.5 34.5t-34 23t-42 8.5q-46 0 -76.5 -31.5
t-30.5 -77.5t30.5 -77.5t76.5 -31.5z" />
    <glyph glyph-name="b.superior" horiz-adv-x="491" 
d="M154 823v-205q20 26 52 41.5t71 15.5t72 -14.5t57 -40.5t37.5 -61t13.5 -76t-14 -76t-38 -61t-57 -41t-71 -15q-39 0 -71 16.5t-52 43.5v-51h-92v524h92zM258 374q46 0 76.5 31.5t30.5 77.5t-30.5 77.5t-76.5 31.5q-23 0 -42 -8.5t-33.5 -23t-22.5 -34.5t-8 -43t8 -43
t22.5 -34.5t33.5 -23t42 -8.5z" />
    <glyph glyph-name="c.superior" horiz-adv-x="364" 
d="M34 483q0 41 14.5 76.5t40.5 61.5t62 40.5t79 14.5q26 0 51.5 -6.5t46.5 -20.5v-87q-22 16 -44 23t-45 7q-48 0 -80 -31t-32 -79q0 -46 31.5 -77t80.5 -31q24 0 47.5 8t43.5 22v-87q-47 -27 -101 -27q-43 0 -78.5 14.5t-61.5 40t-40.5 61t-14.5 77.5z" />
    <glyph glyph-name="d.superior" horiz-adv-x="492" 
d="M233 374q22 0 42 8.5t34 23t22.5 34.5t8.5 43t-8.5 43t-22.5 34.5t-34 23t-42 8.5q-46 0 -76.5 -31.5t-30.5 -77.5t30.5 -77.5t76.5 -31.5zM337 299v52q-19 -28 -51.5 -44.5t-71.5 -16.5q-38 0 -71 15t-57 41t-38 61t-14 76t14 76t38 61t57 40.5t71 14.5q39 0 71.5 -15
t51.5 -40v203h93v-524h-93z" />
    <glyph glyph-name="e.superior" horiz-adv-x="437" 
d="M223 676q40 0 74 -14.5t58.5 -40.5t38 -61.5t13.5 -77.5q0 -10 -0.5 -16.5t-0.5 -8.5h-281q3 -40 33 -65t69 -25q35 0 55.5 14t35.5 38l77 -33q-23 -45 -65.5 -70.5t-102.5 -25.5q-42 0 -77.5 14t-61 39.5t-40 61t-14.5 78.5q0 41 14.5 76.5t40 61.5t60 40.5t74.5 14.5z
M221 601q-18 0 -34.5 -7t-29.5 -18t-21 -25.5t-10 -29.5h191q-5 35 -31 57.5t-65 22.5z" />
    <glyph glyph-name="f.superior" horiz-adv-x="281" 
d="M166 667h99v-78h-99v-290h-92v290h-55v78h55v23q0 72 39 109.5t103 37.5q37 0 59 -10v-79q-18 8 -43 8q-28 0 -47 -15t-19 -51v-23z" />
    <glyph glyph-name="g.superior" horiz-adv-x="485" 
d="M331 359q-18 -25 -50 -40.5t-70 -15.5t-70.5 14t-56 39t-37 59t-13.5 73q0 40 13.5 74t37 59t56 39.5t70.5 14.5t70 -16t50 -43v51h92v-346q0 -42 -13.5 -77t-39 -60t-62 -39t-82.5 -14q-63 0 -109.5 25t-70.5 72l73 45q17 -29 45 -46t63 -17q48 0 76 30t28 82v37z
M334 488q0 45 -30 74.5t-74 29.5q-45 0 -74.5 -29.5t-29.5 -74.5t29.5 -75t74.5 -30q44 0 74 30t30 75z" />
    <glyph glyph-name="h.superior" horiz-adv-x="466" 
d="M154 299h-92v524h92v-206q17 27 45.5 43t67.5 16q67 0 104.5 -41.5t37.5 -112.5v-223h-93v205q0 41 -20 64t-58 23t-61 -26.5t-23 -71.5v-194z" />
    <glyph glyph-name="i.superior" horiz-adv-x="217" 
d="M62 299v368h93v-368h-93zM164 774q0 -23 -16 -39.5t-40 -16.5t-40 16.5t-16 39.5q0 22 16 38.5t40 16.5t40 -16.5t16 -38.5z" />
    <glyph glyph-name="j.superior" horiz-adv-x="194" 
d="M132 281q0 -74 -35 -110.5t-94 -36.5q-19 0 -31 2.5t-21 6.5v79q7 -4 16 -5t17 -1q28 0 41.5 18t13.5 51v382h93v-386zM141 774q0 -23 -16 -39.5t-40 -16.5t-40 16.5t-16 39.5q0 22 16 38.5t40 16.5t40 -16.5t16 -38.5z" />
    <glyph glyph-name="k.superior" horiz-adv-x="420" 
d="M154 530l135 137h113l-160 -161l172 -207h-114l-130 163l-16 -14v-149h-92v524h92v-293z" />
    <glyph glyph-name="l.superior" horiz-adv-x="216" 
d="M154 823v-524h-92v524h92z" />
    <glyph glyph-name="m.superior" horiz-adv-x="685" 
d="M154 299h-92v368h92v-48q15 26 41.5 41.5t64.5 15.5q40 0 68 -17.5t44 -49.5q16 27 46.5 47t75.5 20q65 0 99.5 -40.5t34.5 -109.5v-227h-92v209q0 38 -18 60.5t-51 22.5q-34 0 -54.5 -24.5t-21.5 -68.5v-199h-92v206q0 40 -18 63t-51 23q-35 0 -55.5 -26t-20.5 -71v-195
z" />
    <glyph glyph-name="o.superior" horiz-adv-x="459" 
d="M230 676q40 0 76 -15t62 -41t41.5 -61.5t15.5 -75.5q0 -41 -15.5 -76t-41.5 -61t-62 -41t-76 -15q-41 0 -76.5 15t-62 41t-42 61t-15.5 76q0 40 15.5 75.5t42 61.5t62 41t76.5 15zM230 591q-22 0 -41 -8.5t-33 -23t-22 -34.5t-8 -42q0 -23 8 -42.5t22 -34t33 -23t41 -8.5
q21 0 40 8.5t33.5 23t22.5 34t8 42.5q0 22 -8 42t-22.5 34.5t-33.5 23t-40 8.5z" />
    <glyph glyph-name="p.superior" horiz-adv-x="491" 
d="M62 144v523h92v-52q20 28 52 44t71 16t72 -14.5t57 -40.5t37.5 -61t13.5 -76t-14 -76t-38 -61t-57 -41t-71 -15q-39 0 -71 15.5t-52 40.5v-202h-92zM258 374q46 0 76.5 31.5t30.5 77.5t-30.5 77.5t-76.5 31.5q-23 0 -42 -8.5t-33.5 -23t-22.5 -34.5t-8 -43t8 -43
t22.5 -34.5t33.5 -23t42 -8.5z" />
    <glyph glyph-name="q.superior" horiz-adv-x="492" 
d="M233 374q22 0 42 8.5t34 23t22.5 34.5t8.5 43t-8.5 43t-22.5 34.5t-34 23t-42 8.5q-46 0 -76.5 -31.5t-30.5 -77.5t30.5 -77.5t76.5 -31.5zM337 144v204q-19 -26 -51.5 -42t-71.5 -16q-38 0 -71 15t-57 41t-38 61t-14 76t14 76t38 61t57 40.5t71 14.5q39 0 71.5 -16
t51.5 -43v51h93v-523h-93z" />
    <glyph glyph-name="r.superior" horiz-adv-x="297" 
d="M279 578q-2 1 -8.5 2t-15.5 1q-56 0 -78.5 -40t-22.5 -104v-138h-92v368h91v-62q14 32 43.5 50.5t65.5 18.5q15 0 17 -2v-94z" />
    <glyph glyph-name="s.superior" horiz-adv-x="336" 
d="M309 408q0 -27 -11 -49t-29.5 -37.5t-44 -23.5t-54.5 -8q-54 0 -93 26t-53 70l75 33q11 -23 30 -38t42 -15q22 0 36.5 9.5t14.5 28.5q0 15 -10.5 23t-32.5 15l-45 14q-51 16 -73.5 43t-22.5 65q0 50 36.5 81t92.5 31q46 0 82.5 -21.5t53.5 -63.5l-75 -36
q-10 20 -25.5 33.5t-35.5 13.5q-18 0 -30 -9t-12 -23q0 -13 9.5 -22t32.5 -17l41 -13q101 -32 101 -110z" />
    <glyph glyph-name="t.superior" horiz-adv-x="287" 
d="M164 775v-108h97v-78h-97v-157q0 -58 56 -58q11 0 22 3t19 8v-81q-11 -5 -28 -9.5t-40 -4.5q-57 0 -89 32.5t-32 91.5v175h-55v78h55v108h92z" />
    <glyph glyph-name="u.superior" horiz-adv-x="464" 
d="M309 667h93v-368h-93v50q-17 -27 -45 -43t-66 -16q-67 0 -104 41.5t-37 112.5v223h92v-204q0 -42 20 -65t58 -23q37 0 59.5 26.5t22.5 71.5v194z" />
    <glyph glyph-name="v.superior" horiz-adv-x="411" 
d="M12 667h98l97 -249l96 249h96l-153 -368h-82z" />
    <glyph glyph-name="w.superior" horiz-adv-x="618" 
d="M394 299l-85 243l-85 -243h-75l-134 368h94l82 -242l85 242h68l85 -242l82 242h92l-134 -368h-75z" />
    <glyph glyph-name="x.superior" horiz-adv-x="408" 
d="M203 421l-88 -122h-103l138 187l-132 181h107l80 -114l82 114h103l-131 -179l137 -189h-107z" />
    <glyph glyph-name="y.superior" horiz-adv-x="419" 
d="M92 134q-18 0 -31.5 3t-22.5 8v78q18 -8 40 -8q23 0 39.5 12.5t28.5 41.5l15 35l-149 363h98l100 -260l101 260h96l-156 -371q-18 -44 -34.5 -74.5t-35 -50t-40 -28.5t-49.5 -9z" />
    <glyph glyph-name="z.superior" horiz-adv-x="363" 
d="M337 610l-192 -234h195v-77h-317v58l191 233h-179v77h302v-57z" />
    <glyph glyph-name="aalt.superior" horiz-adv-x="414" 
d="M35 399q0 103 137 120l95 12v12q0 26 -18 40.5t-47 14.5q-54 0 -72 -50l-81 24q14 48 54.5 76t98.5 28q74 0 114.5 -37t40.5 -102v-238h-87v44q-20 -25 -50 -39t-65 -14q-54 0 -87 30t-33 79zM125 402q0 -18 14 -28t37 -10q39 0 65 23t26 59v18l-76 -10q-32 -4 -49 -17.5
t-17 -34.5z" />
    <glyph glyph-name="talt.superior" horiz-adv-x="253" 
d="M77 299v290h-62v78h62v108h92v-108h72v-78h-72v-290h-92z" />
    <glyph glyph-name="ualt.superior" horiz-adv-x="447" 
d="M223 290q-78 0 -122 44t-44 122v211h93v-205q0 -41 19 -64t54 -23t54.5 23t19.5 64v205h93v-211q0 -78 -44.5 -122t-122.5 -44z" />
    <glyph glyph-name="isquare.superior" horiz-adv-x="217" 
d="M62 299v368h93v-368h-93zM62 725v97h93v-97h-93z" />
    <glyph glyph-name="jsquare.superior" horiz-adv-x="194" 
d="M39 667h93v-386q0 -74 -35 -110.5t-94 -36.5q-19 0 -31 2.5t-21 6.5v79q7 -4 16 -5t17 -1q28 0 41.5 18t13.5 51v382zM39 725v97h93v-97h-93z" />
    <glyph glyph-name="caronSlovak" horiz-adv-x="500" 
d="M177 545l30 167h115l-48 -167h-97z" />
    <glyph glyph-name="commaaccent.square" horiz-adv-x="500" 
d="M195 -54h109v-108q0 -43 -22.5 -65.5t-67.5 -23.5q-9 0 -17 1v52q4 -1 9 -1q17 1 27 9t10 23v7h-48v106z" />
    <glyph glyph-name="dieresis.square" horiz-adv-x="500" 
d="M99 576v117h108v-117h-108zM292 576v117h108v-117h-108z" />
    <glyph glyph-name="dotaccent.square" horiz-adv-x="500" 
d="M192 571v123h116v-123h-116z" />
    <glyph glyph-name="uni0312.square" horiz-adv-x="500" 
d="M304 567h-109v110q0 43 22.5 65.5t67.5 23.5q9 0 17 -1v-53q-4 1 -9 1q-17 0 -27 -8t-10 -23v-7h48v-108z" />
    <glyph glyph-name="acute.cap" horiz-adv-x="500" 
d="M159 755l96 143h127l-121 -143h-102z" />
    <glyph glyph-name="breve.cap" horiz-adv-x="500" 
d="M250 832q26 0 42 17t18 46h82q0 -63 -40 -101t-102 -38q-63 0 -103 38t-40 101h82q2 -29 18.5 -46t42.5 -17z" />
    <glyph glyph-name="caron.cap" horiz-adv-x="500" 
d="M405 898l-110 -143h-90l-111 143h106l51 -68l51 68h103z" />
    <glyph glyph-name="circumflex.cap" horiz-adv-x="500" 
d="M94 755l111 143h90l110 -143h-106l-51 67l-50 -67h-104z" />
    <glyph glyph-name="dieresis.cap" horiz-adv-x="500" 
d="M216 827q0 -26 -18.5 -44t-44.5 -18q-25 0 -43 18t-18 44q0 25 18 43t43 18q27 0 45 -18.5t18 -42.5zM407 827q0 -26 -18 -44t-44 -18t-44 18t-18 44q0 25 18 43t44 18t44 -18.5t18 -42.5z" />
    <glyph glyph-name="dieresiscap.square" horiz-adv-x="500" 
d="M99 768v116h108v-116h-108zM292 768v116h108v-116h-108z" />
    <glyph glyph-name="dotaccent.cap" horiz-adv-x="500" 
d="M318 832q0 -28 -20 -48t-49 -20q-28 0 -48 19.5t-20 48.5t20 49t48 20q29 0 49 -20.5t20 -48.5z" />
    <glyph glyph-name="dotaccentcap.square" horiz-adv-x="500" 
d="M192 769v120h116v-120h-116z" />
    <glyph glyph-name="grave.cap" horiz-adv-x="500" 
d="M238 755l-121 143h127l95 -143h-101z" />
    <glyph glyph-name="hungarumlaut.cap" horiz-adv-x="500" 
d="M80 755l87 143h112l-107 -143h-92zM253 755l86 143h112l-107 -143h-91z" />
    <glyph glyph-name="macron.cap" horiz-adv-x="500" 
d="M106 772v77h288v-77h-288z" />
    <glyph glyph-name="ring.cap" horiz-adv-x="500" 
d="M147 833q0 21 8 39t22 31t33 20.5t40 7.5t40 -7.5t33 -20.5t22 -31t8 -39t-8 -39t-22 -31t-33 -20.5t-40 -7.5t-40 7.5t-33 20.5t-22 31t-8 39zM212 833q0 -16 11 -27t27 -11t27 11t11 27t-11 27t-27 11t-27 -11t-11 -27z" />
    <glyph glyph-name="tilde.cap" horiz-adv-x="500" 
d="M80 765q-1 61 28 90t73 29q25 0 43 -7.5t32 -16.5t26 -16.5t26 -7.5q18 0 27.5 12t9.5 32h72q1 -62 -28.5 -90.5t-72.5 -28.5q-26 0 -43.5 7.5t-31.5 16.5t-26 16.5t-26 7.5q-19 0 -28 -12t-9 -32h-72z" />
    <glyph glyph-name="period.square" horiz-adv-x="268" 
d="M71 0v131h126v-131h-126z" />
    <glyph glyph-name="comma.square" horiz-adv-x="268" 
d="M71 131h126v-135q0 -63 -30 -93t-78 -30h-11q-3 0 -5 1v61q0 -1 2 -1h8q18 0 31 13.5t13 36.5v16h-56v131z" />
    <glyph glyph-name="colon.square" horiz-adv-x="268" 
d="M71 0v131h126v-131h-126zM71 346v131h126v-131h-126z" />
    <glyph glyph-name="semicolon.square" horiz-adv-x="268" 
d="M71 346v131h126v-131h-126zM71 131h126v-135q0 -63 -30 -93t-78 -30h-11q-3 0 -5 1v61q0 -1 2 -1h8q18 0 31 13.5t13 36.5v16h-56v131z" />
    <glyph glyph-name="ellipsis.square" horiz-adv-x="859" 
d="M71 0v131h126v-131h-126zM661 0v131h127v-131h-127zM366 0v131h126v-131h-126z" />
    <glyph glyph-name="exclamdown.cap" horiz-adv-x="280" 
d="M192 493l10 -493h-124l10 493h104zM66 639q0 30 21 51.5t53 21.5t53 -21.5t21 -51.5t-21 -51.5t-53 -21.5t-53 21.5t-21 51.5z" />
    <glyph glyph-name="questiondown.cap" horiz-adv-x="537" 
d="M347 639q0 -30 -21 -51.5t-53 -21.5t-53 21.5t-21 51.5t21 51.5t53 21.5t53 -21.5t21 -51.5zM45 189q0 48 20 88.5t65 79.5q13 12 28.5 24.5t29 26t22 29t8.5 32.5v24h117v-35q0 -35 -24.5 -73t-71.5 -73q-75 -57 -75 -114q0 -40 30 -68.5t77 -28.5q48 0 79.5 33t32.5 82
h116q0 -49 -17 -90.5t-47.5 -72t-72.5 -47.5t-92 -17q-48 0 -89.5 15t-71.5 42t-47 63.5t-17 79.5z" />
    <glyph glyph-name="exclam.square" horiz-adv-x="279" 
d="M202 127v-127h-124v127h124zM202 700l-11 -492h-102l-11 492h124z" />
    <glyph glyph-name="exclamdown.square" horiz-adv-x="279" 
d="M78 363v127h124v-127h-124zM78 -208l11 491h102l11 -491h-124z" />
    <glyph glyph-name="exclamdowncap.square" horiz-adv-x="279" 
d="M78 573v127h124v-127h-124zM78 0l11 493h102l11 -493h-124z" />
    <glyph glyph-name="question.square" horiz-adv-x="534" 
d="M329 127v-127h-125v127h125zM498 512q0 -48 -20.5 -88.5t-65.5 -79.5q-14 -12 -29.5 -24.5t-29 -26.5t-22 -29t-8.5 -33v-23h-113v34q0 36 23 74t71 73q75 57 75 114q0 42 -30.5 70t-77.5 28t-78.5 -33t-32.5 -83h-116q0 49 17 91t47 72.5t72 47.5t92 17q49 0 90.5 -15
t71.5 -42t47 -64t17 -80z" />
    <glyph glyph-name="questiondown.square" horiz-adv-x="527" 
d="M213 363v127h125v-127h-125zM44 -17q0 48 20.5 88.5t65.5 79.5q14 12 29.5 24.5t29 26.5t22 29t8.5 33v19h113v-30q0 -36 -23 -74t-71 -73q-75 -57 -75 -114q0 -42 30.5 -70t77.5 -28t78.5 33t32.5 83h116q0 -50 -17 -91.5t-47 -72t-72 -47.5t-92 -17q-49 0 -90.5 15
t-71.5 42t-47 64t-17 80z" />
    <glyph glyph-name="questiondowncap.square" horiz-adv-x="534" 
d="M213 573v127h125v-127h-125zM44 190q0 48 20.5 88.5t65.5 79.5q14 12 29.5 24.5t29 26.5t22 29t8.5 33v22h113v-33q0 -36 -23 -74t-71 -73q-75 -57 -75 -114q0 -42 30.5 -70t77.5 -28t78.5 33t32.5 82h116q0 -49 -17 -90.5t-47 -72t-72 -47.5t-92 -17q-49 0 -90.5 15
t-71.5 42t-47 64t-17 80z" />
    <glyph glyph-name="reversequoteleft" horiz-adv-x="216" 
d="M104 481l-47 95q-9 19 -14.5 34.5t-5.5 32.5q0 30 20.5 50t50.5 20q29 0 50 -19.5t21 -50.5q0 -25 -17 -42.5t-41 -17.5h-1l53 -102h-69z" />
    <glyph glyph-name="reversequotedblleft" horiz-adv-x="398" 
d="M286 481l-47 95q-9 19 -14.5 34.5t-5.5 32.5q0 30 20.5 50t50.5 20q29 0 50 -19.5t21 -50.5q0 -25 -17 -42.5t-41 -17.5h-1l53 -102h-69zM104 481l-47 95q-9 19 -14.5 34.5t-5.5 32.5q0 30 20.5 50t50.5 20q29 0 50 -19.5t21 -50.5q0 -25 -17 -42.5t-41 -17.5h-1l53 -102
h-69z" />
    <glyph glyph-name="quoteleft.square" horiz-adv-x="217" 
d="M167 469h-119v127q0 54 26 85t76 31q6 0 15 -1v-57q-6 1 -10 1q-18 0 -29.5 -14t-11.5 -34v-15h53v-123z" />
    <glyph glyph-name="quoteright.square" horiz-adv-x="216" 
d="M49 700h119v-127q0 -54 -26 -85t-76 -31q-6 0 -15 1v57q6 -1 10 -1q18 0 29.5 14t11.5 34v15h-53v123z" />
    <glyph glyph-name="quotedblleft.square" horiz-adv-x="391" 
d="M167 469h-119v127q0 54 26 85t76 31q6 0 15 -1v-57q-6 1 -10 1q-18 0 -29.5 -14t-11.5 -34v-15h53v-123zM341 469h-119v127q0 54 26 85t76 31q6 0 15 -1v-57q-6 1 -10 1q-18 0 -29.5 -14t-11.5 -34v-15h53v-123z" />
    <glyph glyph-name="quotedblright.square" horiz-adv-x="390" 
d="M223 700h119v-127q0 -54 -26 -85t-76 -31q-6 0 -15 1v57q6 -1 10 -1q18 0 29.5 14t11.5 34v15h-53v123zM49 700h119v-127q0 -54 -26 -85t-76 -31q-6 0 -15 1v57q6 -1 10 -1q18 0 29.5 14t11.5 34v15h-53v123z" />
    <glyph glyph-name="quotesinglbase.square" horiz-adv-x="216" 
d="M48 123h119v-127q0 -54 -26 -85t-76 -31q-6 0 -15 1v57q6 -1 10 -1q18 0 29.5 14t11.5 34v15h-53v123z" />
    <glyph glyph-name="quotedblbase.square" horiz-adv-x="391" 
d="M223 123h119v-127q0 -54 -26 -85t-76 -31q-6 0 -15 1v57q6 -1 10 -1q18 0 29.5 14t11.5 34v15h-53v123zM48 123h119v-127q0 -54 -26 -85t-76 -31q-6 0 -15 1v57q6 -1 10 -1q18 0 29.5 14t11.5 34v15h-53v123z" />
    <glyph glyph-name="reversequoteleft.square" horiz-adv-x="217" 
d="M167 577h-53v-15q0 -20 11.5 -34t29.5 -14q4 0 10 1v-57q-9 -1 -15 -1q-50 0 -76 31t-26 85v127h119v-123z" />
    <glyph glyph-name="reversequotedblleft.square" horiz-adv-x="391" 
d="M167 577h-53v-15q0 -20 11.5 -34t29.5 -14q4 0 10 1v-57q-9 -1 -15 -1q-50 0 -76 31t-26 85v127h119v-123zM341 577h-53v-15q0 -20 11.5 -34t29.5 -14q4 0 10 1v-57q-9 -1 -15 -1q-50 0 -76 31t-26 85v127h119v-123z" />
    <glyph glyph-name="guilsinglleft.cap" horiz-adv-x="307" 
d="M40 345l133 202h109l-132 -202l133 -202h-111z" />
    <glyph glyph-name="guilsinglright.cap" horiz-adv-x="307" 
d="M267 345l-133 -202h-109l132 202l-133 202h111z" />
    <glyph glyph-name="guillemotleft.cap" horiz-adv-x="499" 
d="M40 345l133 202h109l-132 -202l133 -202h-111zM232 345l133 202h109l-132 -202l133 -202h-111z" />
    <glyph glyph-name="guillemotright.cap" horiz-adv-x="499" 
d="M459 345l-133 -202h-109l132 202l-133 202h111zM267 345l-133 -202h-109l132 202l-133 202h111z" />
    <glyph glyph-name="doublebar" horiz-adv-x="467" 
d="M87 -156v921h109v-921h-109zM271 -156v921h109v-921h-109z" />
    <glyph glyph-name="slash.cap" horiz-adv-x="471" 
d="M18 -24l319 748h115l-319 -748h-115z" />
    <glyph glyph-name="backslash.cap" horiz-adv-x="471" 
d="M337 -24l-319 748h116l319 -748h-116z" />
    <glyph glyph-name="bar.cap" horiz-adv-x="283" 
d="M87 -24v748h109v-748h-109z" />
    <glyph glyph-name="doublebar.cap" horiz-adv-x="467" 
d="M87 -24v748h109v-748h-109zM271 -24v748h109v-748h-109z" />
    <glyph glyph-name="brokenbar.cap" horiz-adv-x="283" 
d="M87 431v293h109v-293h-109zM196 274v-298h-109v298h109z" />
    <glyph glyph-name="bullet.cap" horiz-adv-x="318" 
d="M268 345q0 -22 -8.5 -41.5t-23.5 -34.5t-35 -23.5t-42 -8.5t-42 8.5t-35 23.5t-23.5 34.5t-8.5 41.5t8.5 41.5t23.5 34.5t35 23.5t42 8.5t42 -8.5t35 -23.5t23.5 -34.5t8.5 -41.5z" />
    <glyph glyph-name="periodcentered.square" horiz-adv-x="267" 
d="M70 199v131h126v-131h-126z" />
    <glyph glyph-name="periodcentered.cap" horiz-adv-x="267" 
d="M59 344q0 31 21.5 52.5t53.5 21.5t53.5 -21.5t21.5 -52.5t-21.5 -52.5t-53.5 -21.5t-53.5 21.5t-21.5 52.5z" />
    <glyph glyph-name="periodcenteredcap.square" horiz-adv-x="267" 
d="M70 279v131h126v-131h-126z" />
    <glyph glyph-name="hyphen.cap" horiz-adv-x="424" 
d="M57 397h310v-104h-310v104z" />
    <glyph glyph-name="endash.cap" horiz-adv-x="565" 
d="M57 395h451v-98h-451v98z" />
    <glyph glyph-name="emdash.cap" horiz-adv-x="865" 
d="M57 395h751v-98h-751v98z" />
    <glyph glyph-name="figuredash.cap" 
d="M57 395h486v-98h-486v98z" />
    <glyph glyph-name="parenleft.cap" horiz-adv-x="336" 
d="M50 347q0 55 10 110t29.5 107t48 100t65.5 89h114q-77 -96 -115 -199.5t-38 -206.5t38 -207t115 -200h-114q-37 40 -65.5 88.5t-48 101t-29.5 107.5t-10 110z" />
    <glyph glyph-name="parenright.cap" horiz-adv-x="336" 
d="M285 347q0 -55 -10 -110t-29 -107.5t-48 -101t-66 -88.5h-114q78 96 115.5 199.5t37.5 207.5q0 103 -37.5 206.5t-115.5 199.5h114q37 -41 66 -89t48 -100.5t29 -107.5t10 -109z" />
    <glyph glyph-name="bracketleft.cap" horiz-adv-x="341" 
d="M72 753h246v-93h-137v-627h137v-93h-246v813z" />
    <glyph glyph-name="bracketright.cap" horiz-adv-x="341" 
d="M269 -60h-246v93h137v627h-137v93h246v-813z" />
    <glyph glyph-name="braceleft.cap" horiz-adv-x="369" 
d="M217 129q-4 -56 21.5 -79t69.5 -23q13 0 31 2v-86q-29 -3 -48 -3q-92 0 -140 43.5t-42 142.5l5 84q2 45 -22 66.5t-60 26.5v87q37 5 60.5 26.5t21.5 66.5l-5 84q-6 99 42 142.5t140 43.5q19 0 48 -3v-86q-18 2 -31 2q-44 0 -69.5 -23t-21.5 -79l5 -83q3 -53 -17 -83.5
t-64 -49.5q45 -20 64 -51.5t17 -83.5z" />
    <glyph glyph-name="braceright.cap" horiz-adv-x="369" 
d="M153 564q4 56 -21.5 79t-69.5 23q-13 0 -32 -2v86q30 3 49 3q92 0 140 -43.5t42 -142.5l-5 -84q-2 -45 22 -66.5t60 -26.5v-87q-37 -5 -60.5 -26.5t-21.5 -66.5l5 -84q6 -99 -42 -142.5t-140 -43.5q-19 0 -49 3v86q18 -2 32 -2q44 0 69.5 23t21.5 79l-5 83q-3 53 17 83.5
t64 49.5q-45 20 -64 51.5t-17 83.5z" />
    <glyph glyph-name="anglebracketleft.cap" horiz-adv-x="344" 
d="M25 345l182 408h112l-179 -406l181 -407h-115z" />
    <glyph glyph-name="anglebracketright.cap" horiz-adv-x="344" 
d="M138 -60h-115l180 406l-180 407h114l182 -407z" />
    <glyph glyph-name="at.cap" horiz-adv-x="860" 
d="M642 158q-47 0 -70.5 20t-29.5 44q-20 -30 -55.5 -48t-79.5 -18q-36 0 -66 13.5t-52 37.5t-34.5 58t-12.5 75q0 42 14.5 79t39 64t58 43t72.5 16q45 0 76 -17t46 -45l6 51h84l-29 -238q-8 -57 34 -57q19 0 35.5 12.5t29 34.5t20 52t7.5 66q0 57 -21 104t-58 80.5
t-87 52.5t-108 19q-68 0 -127 -23t-103.5 -64.5t-70 -99t-25.5 -126.5q0 -71 24 -127.5t65.5 -95.5t97 -60t119.5 -21q65 0 123 17.5t103 49.5l43 -74q-23 -17 -54 -31t-66 -24.5t-73 -16t-76 -5.5q-82 0 -154.5 26t-127 75.5t-86 121t-31.5 163.5q0 88 33.5 161.5
t90.5 126.5t133.5 82t163.5 29q76 0 142.5 -25.5t115.5 -70.5t77.5 -106t28.5 -132q0 -61 -16 -107.5t-42 -78t-59.5 -47.5t-67.5 -16zM423 236q21 0 40.5 9.5t34.5 26.5t24 39.5t9 48.5q0 43 -25 72.5t-69 29.5q-22 0 -41 -9.5t-33.5 -26t-23 -38.5t-8.5 -47q0 -47 27 -76
t65 -29z" />
    <glyph glyph-name="registered.superior" horiz-adv-x="465" 
d="M424 506q0 -40 -15 -75t-41.5 -61.5t-61 -41.5t-73.5 -15t-74 15t-61 41.5t-41 61.5t-15 75t15 75.5t41 61.5t61 41.5t74 15.5t73.5 -15.5t61 -41.5t41.5 -61.5t15 -75.5zM366 506q0 28 -10.5 53.5t-28.5 44t-42.5 29.5t-51.5 11q-28 0 -52 -11t-42 -29.5t-28.5 -44
t-10.5 -53.5t10.5 -53t28.5 -43.5t42 -29.5t52 -11q27 0 51.5 11t42.5 29.5t28.5 43.5t10.5 53zM227 477h-10v-60h-48v182h68q32 0 50.5 -16t18.5 -45q0 -35 -32 -51l42 -70h-56zM217 518h18q9 0 15.5 5t6.5 15q0 9 -6.5 14t-15.5 5h-18v-39z" />
    <glyph glyph-name="numbersign.LT" 
d="M477 506h96v-83h-108l-21 -154h98v-83h-110l-26 -186h-93l26 186h-123l-26 -186h-93l26 186h-96v83h108l21 154h-98v83h110l26 181h93l-26 -181h123l26 181h93zM228 269h123l21 154h-123z" />
    <glyph glyph-name="zero.LT" 
d="M560 344q0 -82 -18 -147.5t-52 -112t-82 -71.5t-108 -25t-108 25t-82 71.5t-52 112t-18 147.5q0 81 18 147t52 112t82 71t108 25t108 -25t82 -71t52 -112t18 -147zM442 344q0 115 -38 179t-104 64t-104 -64t-38 -179t38 -179.5t104 -64.5t104 64.5t38 179.5z" />
    <glyph glyph-name="one.LT" 
d="M72 105h182v472h-130v110h248v-582h176v-105h-476v105z" />
    <glyph glyph-name="two.LT" 
d="M299 699q50 0 93 -16t74 -44.5t48.5 -68.5t17.5 -87q0 -31 -8 -59.5t-24.5 -56t-42 -56t-61.5 -60.5l-164 -144h307v-107h-476v95l268 241q44 40 63 73t19 67q0 24 -9 44.5t-24 35.5t-36 23.5t-45 8.5q-27 0 -48.5 -10.5t-36.5 -28.5t-23.5 -43t-8.5 -53h-116
q0 55 16.5 100t47.5 77.5t73.5 50.5t95.5 18z" />
    <glyph glyph-name="three.LT" 
d="M297 406q21 0 39.5 7.5t32.5 20.5t22 30t8 36q0 39 -28 65t-73 26q-48 0 -77.5 -31.5t-31.5 -80.5h-114q1 50 18 91t46.5 69.5t70.5 44t90 15.5q47 0 87 -14t68.5 -39t44.5 -59t16 -74q0 -48 -23 -86t-66 -61q56 -20 87.5 -64t31.5 -102q0 -47 -18.5 -86t-50.5 -67
t-77 -43.5t-97 -15.5q-55 0 -99.5 16.5t-76 46.5t-49 73.5t-18.5 97.5h115q2 -27 12.5 -49.5t27.5 -39.5t40.5 -26.5t50.5 -9.5q53 0 87 29t34 80q0 48 -37 76.5t-93 28.5h-34v95h34v0z" />
    <glyph glyph-name="four.LT" 
d="M33 235l308 451h140v-435h86v-100h-86v-151h-115v151h-333v84zM366 251v300l-203 -300h203z" />
    <glyph glyph-name="five.LT" 
d="M72 320l50 367h381v-105h-290l-23 -166q23 23 60 36t77 13q49 0 90.5 -18t71.5 -49t46.5 -72.5t16.5 -88.5q0 -53 -19 -98.5t-53 -79t-79.5 -52.5t-97.5 -19q-54 0 -99.5 16t-78 45.5t-51 70t-19.5 88.5h116q5 -48 39.5 -79.5t91.5 -31.5q28 0 52 10.5t41.5 28.5
t27.5 42.5t10 52.5t-10 52.5t-28 42.5t-42.5 28t-52.5 10q-40 0 -70 -18.5t-51 -47.5z" />
    <glyph glyph-name="six.LT" 
d="M557 236q0 -53 -19.5 -98t-54 -78.5t-80.5 -52.5t-100 -19q-55 0 -101.5 19t-80.5 52t-53.5 78t-19.5 98q0 46 17.5 96t55.5 109l161 247h138l-163 -237q25 19 69 19q50 0 92.5 -18.5t73 -50t48 -74t17.5 -90.5zM438 231q0 28 -10.5 52.5t-29 42.5t-43 28.5t-52.5 10.5
q-29 0 -53.5 -10t-43 -28t-29 -42.5t-10.5 -52.5q0 -27 10.5 -51.5t28.5 -42.5t42.5 -28.5t53.5 -10.5q28 0 53 10.5t43.5 28.5t29 42t10.5 51z" />
    <glyph glyph-name="seven.LT" 
d="M254 0h-130l275 579h-330v107h466v-87z" />
    <glyph glyph-name="eight.LT" 
d="M300 699q44 0 83.5 -13.5t69.5 -38t47.5 -59t17.5 -76.5q0 -52 -27 -89t-65 -53q21 -8 42.5 -23t38.5 -36.5t28 -49.5t11 -62q0 -50 -20.5 -89t-54.5 -66t-78.5 -41.5t-92.5 -14.5t-92.5 14.5t-78.5 41.5t-54.5 66t-20.5 89q0 34 10.5 62t28 49.5t38.5 36.5t42 23
q-37 16 -64 53t-27 89q0 42 17.5 76.5t47.5 59t69.5 38t83.5 13.5zM429 204q0 25 -10 45.5t-27.5 35t-41 22.5t-50.5 8t-50.5 -8t-41.5 -22.5t-28 -35t-10 -45.5t10.5 -46t28 -36t41 -23t50.5 -8t50.5 8t41 23t27.5 36t10 46zM300 598q-21 0 -40.5 -7t-34.5 -19t-23.5 -29
t-8.5 -38t8.5 -38.5t23.5 -29.5t34.5 -18.5t40.5 -6.5t40.5 6.5t34.5 18.5t23.5 29.5t8.5 38.5t-8.5 38t-23.5 29t-34.5 19t-40.5 7z" />
    <glyph glyph-name="nine.LT" 
d="M43 451q0 52 19.5 97.5t54 79t80.5 52.5t100 19q55 0 101.5 -19t80.5 -52t53.5 -78t19.5 -98q0 -46 -17.5 -96t-55.5 -109l-161 -247h-138l163 237q-25 -19 -69 -19q-50 0 -92.5 18.5t-73 50t-48 74t-17.5 90.5zM162 456q0 -29 10.5 -53.5t29 -42.5t43 -28t52.5 -10
t53 10t43.5 28t29 42.5t10.5 52.5q0 27 -10.5 51.5t-28.5 42.5t-43 28.5t-53 10.5q-29 0 -53.5 -10.5t-43 -28.5t-29 -42t-10.5 -51z" />
    <glyph glyph-name="Euro.LT" 
d="M444 240h-219q24 -59 73.5 -95t113.5 -36q42 0 76.5 11t69.5 31v-114q-35 -19 -74.5 -27.5t-77.5 -8.5q-55 0 -104 17t-89 48.5t-68.5 75.5t-43.5 98h-85v77h73q-1 11 -1 26q0 17 1 27h-73v78h86q15 53 43.5 96.5t68.5 75t88.5 49t103.5 17.5q39 0 78.5 -9t72.5 -26v-116
q-34 20 -68 32t-77 12q-63 0 -112.5 -36t-74.5 -95h218v-78h-237q-1 -10 -1 -27t1 -26h238v-77z" />
    <glyph glyph-name="dollar.LT" 
d="M348 776v-96q56 -11 99 -47t66 -93l-97 -50q-11 26 -28 47t-40 32v-171l26 -10q78 -29 116 -74.5t38 -111.5q0 -41 -14 -75t-38 -59.5t-57 -41.5t-71 -22v-100h-83v100q-69 10 -121 51.5t-76 110.5l100 48q14 -38 38.5 -63.5t58.5 -36.5v195l-15 6q-72 29 -113.5 71
t-41.5 112q0 38 13 70t35.5 56t53.5 39t68 20v93h83zM412 195q0 55 -64 83v-165q28 9 46 29.5t18 52.5zM211 505q0 -25 13.5 -42t40.5 -31v142q-25 -8 -39.5 -26t-14.5 -43z" />
    <glyph glyph-name="cent.LT" 
d="M385 199q29 3 54.5 14.5t48.5 27.5v-110q-49 -27 -103 -32v-102h-81v106q-44 8 -79 29t-60.5 52.5t-39 71.5t-13.5 87q0 45 14 84.5t39 71t60.5 53t78.5 30.5v105h81v-100q27 -3 52.5 -10.5t48.5 -21.5v-110q-49 37 -101 41v-287zM304 473q-37 -17 -58.5 -51.5
t-21.5 -78.5t21.5 -78.5t58.5 -51.5v260z" />
    <glyph glyph-name="sterling.LT" 
d="M126 461q0 51 14.5 93t42.5 72t68.5 46.5t93.5 16.5q49 0 89.5 -16.5t69.5 -45.5t44.5 -68t15.5 -83h-114q0 21 -7 40t-20.5 33.5t-32.5 23t-42 8.5q-53 0 -78 -33.5t-25 -90.5v-75h166v-97h-166v-90q0 -36 -9.5 -58t-23.5 -30h345v-107h-503v107h16q24 0 40 19.5
t16 67.5v91h-72v97h72v79z" />
    <glyph glyph-name="florin.LT" 
d="M138 416h114l23 128q15 86 65.5 132.5t130.5 46.5q23 0 43 -4t36 -10v-105q-31 14 -65 14q-39 0 -63.5 -21t-32.5 -63l-21 -118h123v-100h-140l-54 -308q-15 -86 -65.5 -132.5t-130.5 -46.5q-23 0 -43 4t-36 10v105q31 -14 65 -14q39 0 63.5 21t32.5 63l52 298h-97v100z
" />
    <glyph glyph-name="yen.LT" 
d="M69 383h136l-181 301h131l146 -248l146 248h129l-181 -301h137v-82h-173v-54h173v-83h-173v-164h-118v164h-172v83h172v54h-172v82z" />
    <glyph glyph-name="zero.OP" horiz-adv-x="635" 
d="M591 299q0 -70 -20.5 -127t-56.5 -98t-86 -63.5t-110 -22.5t-110 22.5t-86 63.5t-56.5 98t-20.5 127q0 69 20.5 126.5t56.5 98t86 63t110 22.5t110 -22.5t86 -63t56.5 -98t20.5 -126.5zM473 299q0 44 -11.5 80.5t-32 63t-49 41t-62.5 14.5t-62.5 -14.5t-49 -41t-32 -63
t-11.5 -80.5q0 -45 11.5 -81.5t32 -63t49 -41t62.5 -14.5t62.5 14.5t49 41t32 63t11.5 81.5z" />
    <glyph glyph-name="one.OP" horiz-adv-x="348" 
d="M157 0v486h-121v110h240v-596h-119z" />
    <glyph glyph-name="two.OP" horiz-adv-x="528" 
d="M268 609q48 0 88 -14.5t69 -40t45 -61t16 -77.5q0 -34 -9 -62.5t-28.5 -56t-51.5 -56t-77 -61.5l-99 -73h271v-107h-453v95l212 163q34 26 56.5 46t36 37t19 33t5.5 33q0 42 -28.5 68t-71.5 26q-49 0 -80 -36t-31 -92h-115q0 52 16.5 95.5t46 75t71 48.5t92.5 17z" />
    <glyph glyph-name="three.OP" horiz-adv-x="563" 
d="M281 315q21 0 39.5 7.5t32.5 20.5t22 30t8 36q0 39 -28 65t-73 26q-48 0 -77.5 -31.5t-31.5 -80.5h-114q1 50 18 91t46.5 69.5t70.5 44t90 15.5q47 0 87 -14t68.5 -39t44.5 -59t16 -74q0 -48 -23 -86t-66 -61q56 -20 87.5 -64t31.5 -102q0 -47 -18.5 -86t-50.5 -67
t-77 -43.5t-97 -15.5q-55 0 -99.5 16.5t-76 46.5t-49 73.5t-18.5 97.5h115q2 -27 12.5 -49.5t27.5 -39.5t40.5 -26.5t50.5 -9.5q53 0 87 29t34 80q0 48 -37 76.5t-93 28.5h-34v95h34v0z" />
    <glyph glyph-name="four.OP" horiz-adv-x="597" 
d="M20 126l317 470h139v-454h96v-100h-96v-132h-114v132h-342v84zM362 142v320l-211 -320h211z" />
    <glyph glyph-name="five.OP" horiz-adv-x="569" 
d="M56 229l50 367h381v-105h-290l-23 -166q23 23 60 36t77 13q49 0 90.5 -18t71.5 -49t46.5 -72.5t16.5 -88.5q0 -53 -19 -98.5t-53 -79t-79.5 -52.5t-97.5 -19q-54 0 -99.5 16t-78 45.5t-51 70t-19.5 88.5h116q5 -48 39.5 -79.5t91.5 -31.5q28 0 52 10.5t41.5 28.5
t27.5 42.5t10 52.5t-10 52.5t-28 42.5t-42.5 28t-52.5 10q-40 0 -70 -18.5t-51 -47.5z" />
    <glyph glyph-name="six.OP" horiz-adv-x="590" 
d="M552 236q0 -53 -19.5 -98t-54 -78.5t-80.5 -52.5t-100 -19q-55 0 -101.5 19t-80.5 52t-53.5 78t-19.5 98q0 46 17.5 96t55.5 109l161 247h138l-163 -237q25 19 69 19q50 0 92.5 -18.5t73 -50t48 -74t17.5 -90.5zM433 231q0 28 -10.5 52.5t-29 42.5t-43 28.5t-52.5 10.5
q-29 0 -53.5 -10t-43 -28t-29 -42.5t-10.5 -52.5q0 -27 10.5 -51.5t28.5 -42.5t42.5 -28.5t53.5 -10.5q28 0 53 10.5t43.5 28.5t29 42t10.5 51z" />
    <glyph glyph-name="seven.OP" horiz-adv-x="524" 
d="M211 -90h-130l275 579h-330v107h466v-87z" />
    <glyph glyph-name="eight.OP" horiz-adv-x="566" 
d="M283 699q44 0 83.5 -13.5t69.5 -38t47.5 -59t17.5 -76.5q0 -52 -27 -89t-65 -53q21 -8 42.5 -23t38.5 -36.5t28 -49.5t11 -62q0 -50 -20.5 -89t-54.5 -66t-78.5 -41.5t-92.5 -14.5t-92.5 14.5t-78.5 41.5t-54.5 66t-20.5 89q0 34 10.5 62t28 49.5t38.5 36.5t42 23
q-37 16 -64 53t-27 89q0 42 17.5 76.5t47.5 59t69.5 38t83.5 13.5zM412 204q0 25 -10 45.5t-27.5 35t-41 22.5t-50.5 8t-50.5 -8t-41.5 -22.5t-28 -35t-10 -45.5t10.5 -46t28 -36t41 -23t50.5 -8t50.5 8t41 23t27.5 36t10 46zM283 598q-21 0 -40.5 -7t-34.5 -19t-23.5 -29
t-8.5 -38t8.5 -38.5t23.5 -29.5t34.5 -18.5t40.5 -6.5t40.5 6.5t34.5 18.5t23.5 29.5t8.5 38.5t-8.5 38t-23.5 29t-34.5 19t-40.5 7z" />
    <glyph glyph-name="nine.OP" horiz-adv-x="588" 
d="M37 361q0 52 19.5 97.5t54 79t80.5 52.5t100 19q55 0 101.5 -19t80.5 -52t53.5 -78t19.5 -98q0 -46 -17.5 -96t-55.5 -109l-161 -247h-138l163 237q-25 -19 -69 -19q-50 0 -92.5 18.5t-73 50t-48 74t-17.5 90.5zM156 366q0 -29 10.5 -53.5t29 -42.5t43 -28t52.5 -10
t53 10t43.5 28t29 42.5t10.5 52.5q0 27 -10.5 51.5t-28.5 42.5t-43 28.5t-53 10.5q-29 0 -53.5 -10.5t-43 -28.5t-29 -42t-10.5 -51z" />
    <glyph glyph-name="zero.OT" 
d="M40 299q0 71 18.5 128t53 97.5t82 62.5t106.5 22q58 0 106 -22t82.5 -62.5t53 -97.5t18.5 -128t-18.5 -128.5t-53 -98t-82.5 -62.5t-106 -22q-59 0 -106.5 22t-82 62.5t-53 98t-18.5 128.5zM442 299q0 92 -38 145.5t-104 53.5t-104 -53.5t-38 -145.5q0 -93 38 -146.5
t104 -53.5t104 53.5t38 146.5z" />
    <glyph glyph-name="one.OT" 
d="M78 104h176v382h-127v110h246v-492h168v-104h-463v104z" />
    <glyph glyph-name="two.OT" 
d="M304 609q48 0 88 -14.5t69 -40t45 -61t16 -77.5q0 -34 -9 -62.5t-28.5 -56t-51.5 -56t-77 -61.5l-99 -73h271v-107h-453v95l212 163q34 26 56.5 46t36 37t19 33t5.5 33q0 42 -28.5 68t-71.5 26q-49 0 -80 -36t-31 -92h-115q0 52 16.5 95.5t46 75t71 48.5t92.5 17z" />
    <glyph glyph-name="three.OT" 
d="M300 315q21 0 39.5 7.5t32.5 20.5t22 30t8 36q0 39 -28 65t-73 26q-48 0 -77.5 -31.5t-31.5 -80.5h-114q1 50 18 91t46.5 69.5t70.5 44t90 15.5q47 0 87 -14t68.5 -39t44.5 -59t16 -74q0 -48 -23 -86t-66 -61q56 -20 87.5 -64t31.5 -102q0 -47 -18.5 -86t-50.5 -67
t-77 -43.5t-97 -15.5q-55 0 -99.5 16.5t-76 46.5t-49 73.5t-18.5 97.5h115q2 -27 12.5 -49.5t27.5 -39.5t40.5 -26.5t50.5 -9.5q53 0 87 29t34 80q0 48 -37 76.5t-93 28.5h-34v95h34v0z" />
    <glyph glyph-name="four.OT" 
d="M31 126l308 470h139v-454h87v-100h-87v-132h-114v132h-333v84zM364 142v320l-204 -320h204z" />
    <glyph glyph-name="five.OT" 
d="M71 229l50 367h381v-105h-290l-23 -166q23 23 60 36t77 13q49 0 90.5 -18t71.5 -49t46.5 -72.5t16.5 -88.5q0 -53 -19 -98.5t-53 -79t-79.5 -52.5t-97.5 -19q-54 0 -99.5 16t-78 45.5t-51 70t-19.5 88.5h116q5 -48 39.5 -79.5t91.5 -31.5q28 0 52 10.5t41.5 28.5
t27.5 42.5t10 52.5t-10 52.5t-28 42.5t-42.5 28t-52.5 10q-40 0 -70 -18.5t-51 -47.5z" />
    <glyph glyph-name="six.OT" 
d="M557 236q0 -53 -19.5 -98t-54 -78.5t-80.5 -52.5t-100 -19q-55 0 -101.5 19t-80.5 52t-53.5 78t-19.5 98q0 46 17.5 96t55.5 109l161 247h138l-163 -237q25 19 69 19q50 0 92.5 -18.5t73 -50t48 -74t17.5 -90.5zM438 231q0 28 -10.5 52.5t-29 42.5t-43 28.5t-52.5 10.5
q-29 0 -53.5 -10t-43 -28t-29 -42.5t-10.5 -52.5q0 -27 10.5 -51.5t28.5 -42.5t42.5 -28.5t53.5 -10.5q28 0 53 10.5t43.5 28.5t29 42t10.5 51z" />
    <glyph glyph-name="seven.OT" 
d="M249 -90h-130l275 579h-330v107h466v-87z" />
    <glyph glyph-name="eight.OT" 
d="M300 699q44 0 83.5 -13.5t69.5 -38t47.5 -59t17.5 -76.5q0 -52 -27 -89t-65 -53q21 -8 42.5 -23t38.5 -36.5t28 -49.5t11 -62q0 -50 -20.5 -89t-54.5 -66t-78.5 -41.5t-92.5 -14.5t-92.5 14.5t-78.5 41.5t-54.5 66t-20.5 89q0 34 10.5 62t28 49.5t38.5 36.5t42 23
q-37 16 -64 53t-27 89q0 42 17.5 76.5t47.5 59t69.5 38t83.5 13.5zM429 204q0 25 -10 45.5t-27.5 35t-41 22.5t-50.5 8t-50.5 -8t-41.5 -22.5t-28 -35t-10 -45.5t10.5 -46t28 -36t41 -23t50.5 -8t50.5 8t41 23t27.5 36t10 46zM300 598q-21 0 -40.5 -7t-34.5 -19t-23.5 -29
t-8.5 -38t8.5 -38.5t23.5 -29.5t34.5 -18.5t40.5 -6.5t40.5 6.5t34.5 18.5t23.5 29.5t8.5 38.5t-8.5 38t-23.5 29t-34.5 19t-40.5 7z" />
    <glyph glyph-name="nine.OT" 
d="M43 361q0 52 19.5 97.5t54 79t80.5 52.5t100 19q55 0 101.5 -19t80.5 -52t53.5 -78t19.5 -98q0 -46 -17.5 -96t-55.5 -109l-161 -247h-138l163 237q-25 -19 -69 -19q-50 0 -92.5 18.5t-73 50t-48 74t-17.5 90.5zM162 366q0 -29 10.5 -53.5t29 -42.5t43 -28t52.5 -10
t53 10t43.5 28t29 42.5t10.5 52.5q0 27 -10.5 51.5t-28.5 42.5t-43 28.5t-53 10.5q-29 0 -53.5 -10.5t-43 -28.5t-29 -42t-10.5 -51z" />
    <glyph glyph-name="zero.inf" horiz-adv-x="374" 
d="M339 86q0 -94 -40 -148t-112 -54t-112 54t-40 148t40 148t112 54t112 -54t40 -148zM253 86q0 60 -17 91t-49 31t-49 -31t-17 -91t17 -91t49 -31t49 31t17 91z" />
    <glyph glyph-name="one.inf" horiz-adv-x="239" 
d="M93 -108v308h-67v80h154v-388h-87z" />
    <glyph glyph-name="two.inf" horiz-adv-x="342" 
d="M317 -108h-286v68l145 118q52 42 52 78q0 24 -14.5 38t-39.5 14q-26 0 -41.5 -17.5t-16.5 -46.5h-84q0 32 10.5 58.5t29 45.5t44.5 29.5t57 10.5q62 0 101.5 -35t39.5 -92q0 -38 -21 -70.5t-69 -70.5l-64 -51h157v-77z" />
    <glyph glyph-name="three.inf" horiz-adv-x="346" 
d="M170 126q23 0 38 12.5t15 31.5q0 18 -14 30t-35 12q-23 0 -37 -14t-15 -34h-82q0 27 10 50t28 39.5t43 25.5t54 9q28 0 52.5 -8t42 -22.5t27.5 -34.5t10 -43q0 -52 -49 -81q32 -13 48.5 -36.5t16.5 -55.5q0 -27 -11 -49.5t-30.5 -39t-46 -25.5t-58.5 -9q-65 0 -105.5 36
t-40.5 96h86q0 -24 17 -39t44 -15q26 0 42.5 14t16.5 35q0 23 -18 36.5t-48 13.5h-19v65h18z" />
    <glyph glyph-name="four.inf" horiz-adv-x="354" 
d="M292 45h47v-73h-47v-80h-84v80h-189v61l168 247h105v-235zM113 45h95v140z" />
    <glyph glyph-name="five.inf" horiz-adv-x="349" 
d="M42 75l28 205h227v-73h-162l-10 -74q13 12 32 17.5t40 5.5q27 0 50.5 -9.5t41 -27t27 -41t9.5 -50.5q0 -31 -11 -57t-31 -45.5t-47 -30.5t-59 -11q-63 0 -103.5 35t-42.5 92h85q2 -22 19 -35.5t42 -13.5q26 0 44.5 18t18.5 44q0 27 -18 44.5t-46 17.5q-17 0 -31.5 -7.5
t-23.5 -20.5z" />
    <glyph glyph-name="six.inf" horiz-adv-x="361" 
d="M332 28q0 -31 -11.5 -57t-31.5 -45.5t-47.5 -30.5t-59.5 -11q-33 0 -60.5 11t-47.5 30.5t-31 46t-11 57.5q0 55 40 114l89 137h98l-89 -128q13 6 32 6q27 0 50.5 -10t41.5 -27t28 -41t10 -52zM248 25q0 27 -18.5 45.5t-47.5 18.5q-28 0 -47 -18.5t-19 -44.5
q0 -27 19 -45.5t47 -18.5t47 18t19 45z" />
    <glyph glyph-name="seven.inf" horiz-adv-x="332" 
d="M51 -108l159 310h-186v78h287v-63l-162 -325h-98z" />
    <glyph glyph-name="eight.inf" horiz-adv-x="349" 
d="M174 -116q-31 0 -58 9t-46.5 25.5t-30.5 39t-11 48.5q0 32 18 58t49 38q-50 25 -50 78q0 23 9.5 42.5t27 34t41 23t51.5 8.5t52 -8.5t41.5 -23t27.5 -34t10 -42.5q0 -53 -50 -78q30 -12 48 -38t18 -58q0 -26 -11 -48.5t-31 -39t-47 -25.5t-58 -9zM174 -42q27 0 44.5 15
t17.5 38t-17.5 38t-44.5 15q-26 0 -43 -15t-17 -38t17 -38t43 -15zM174 130q23 0 37 12t14 31t-14 31.5t-37 12.5q-22 0 -36 -12.5t-14 -31.5t14 -31t36 -12z" />
    <glyph glyph-name="nine.inf" horiz-adv-x="361" 
d="M28 144q0 31 11.5 57t31.5 45.5t47.5 30.5t59.5 11q33 0 60.5 -11t47.5 -30.5t31 -46t11 -57.5q0 -55 -40 -114l-89 -137h-98l89 128q-14 -6 -32 -6q-27 0 -50.5 10t-41.5 27t-28 41t-10 52zM112 147q0 -27 18.5 -45.5t47.5 -18.5q28 0 47 18.5t19 44.5q0 27 -19 45.5
t-47 18.5t-47 -18t-19 -45z" />
    <glyph glyph-name="plus.inf" horiz-adv-x="343" 
d="M38 124h97v97h74v-97h97v-74h-97v-97h-74v97h-97v74z" />
    <glyph glyph-name="minus.inf" horiz-adv-x="343" 
d="M38 124h268v-74h-268v74z" />
    <glyph glyph-name="equal.inf" horiz-adv-x="343" 
d="M38 61h268v-73h-268v73zM38 185h268v-73h-268v73z" />
    <glyph glyph-name="parenleft.inf" horiz-adv-x="222" 
d="M33 86q0 63 23 125.5t71 111.5h77q-46 -57 -68 -117.5t-22 -119.5q0 -60 22 -120.5t68 -117.5h-77q-48 48 -71 111.5t-23 126.5z" />
    <glyph glyph-name="parenright.inf" horiz-adv-x="222" 
d="M189 86q0 -63 -23 -126.5t-71 -111.5h-77q46 57 68 117.5t22 120.5q0 59 -22 119.5t-68 117.5h77q48 -49 71 -111.5t23 -125.5z" />
    </font>
</defs>
</svg>
